M48
; DRILL file {KiCad 7.0.7} date 2023 September 26, Tuesday 10:41:01
; FORMAT={-:-/ absolute / inch / decimal}
; #@! TF.CreationDate,2023-09-26T10:41:01-05:00
; #@! TF.GenerationSoftware,Kicad,Pcbnew,7.0.7
; #@! TF.FileFunction,Plated,1,4,PTH
FMAT,2
INCH
; #@! TA.AperFunction,Plated,PTH,ViaDrill
T1C0.0157
; #@! TA.AperFunction,Plated,PTH,ComponentDrill
T2C0.0276
; #@! TA.AperFunction,Plated,PTH,ComponentDrill
T3C0.0300
; #@! TA.AperFunction,Plated,PTH,ComponentDrill
T4C0.0374
; #@! TA.AperFunction,Plated,PTH,ComponentDrill
T5C0.0394
; #@! TA.AperFunction,Plated,PTH,ComponentDrill
T6C0.0512
%
G90
G05
T1
X2.45Y-5.228
T2
X1.4961Y-1.9291
X1.4961Y-2.0291
X1.4961Y-2.1654
X1.4961Y-2.2654
X1.7323Y-1.9291
X1.7323Y-2.0291
X1.7323Y-2.1654
X1.7323Y-2.2654
T3
X1.022Y-1.036
X1.022Y-1.136
X1.022Y-1.236
X1.112Y-5.706
X1.112Y-5.806
X1.112Y-5.906
X1.122Y-1.036
X1.122Y-1.136
X1.122Y-1.236
X1.212Y-5.706
X1.212Y-5.806
X1.212Y-5.906
X1.222Y-1.036
X1.222Y-1.136
X1.222Y-1.236
X1.312Y-5.706
X1.312Y-5.806
X1.312Y-5.906
X2.0471Y-3.1547
X2.0471Y-3.2547
X2.0471Y-3.3547
X2.0471Y-3.4547
X2.7471Y-3.0547
X2.7471Y-3.1547
X2.7471Y-3.2547
X2.7471Y-3.3547
X2.7471Y-3.4547
X2.7471Y-3.5547
X3.308Y-2.916
X3.308Y-3.916
X3.316Y-5.604
X3.316Y-5.704
X3.316Y-5.804
X3.416Y-5.604
X3.416Y-5.704
X3.416Y-5.804
X3.516Y-5.604
X3.516Y-5.704
X3.516Y-5.804
X3.636Y-0.88
X3.636Y-0.98
X3.636Y-1.08
X3.736Y-0.88
X3.736Y-0.98
X3.736Y-1.08
X3.836Y-0.88
X3.836Y-0.98
X3.836Y-1.08
X3.908Y-2.916
X3.908Y-3.916
T4
X3.2783Y-0.69
X3.304Y-2.19
X3.3107Y-2.522
X3.3767Y-0.69
X3.4024Y-2.19
X3.4091Y-2.522
X3.4751Y-0.69
X3.5009Y-2.19
X3.5076Y-2.522
X3.5736Y-0.69
X3.5993Y-2.19
X3.606Y-2.522
X3.672Y-0.69
X3.7704Y-0.69
T5
X1.2414Y-2.7477
X1.2414Y-2.8477
X1.2414Y-2.9477
X1.2414Y-3.0477
X1.2414Y-3.1477
X1.2414Y-3.2477
X1.2414Y-3.3477
X1.2414Y-3.4477
X1.2414Y-3.5477
X1.2414Y-3.6477
X1.2414Y-3.7477
X1.2414Y-3.8477
X1.2414Y-3.9477
X1.2414Y-4.0477
X1.2414Y-4.1477
X1.242Y-4.755
X1.242Y-4.855
X1.242Y-4.955
X1.242Y-5.055
X1.242Y-5.155
X1.242Y-5.255
X1.442Y-5.255
X1.442Y-5.355
X1.442Y-5.455
X1.446Y-4.926
X1.446Y-5.026
X1.542Y-5.255
X1.542Y-5.355
X1.542Y-5.455
X1.546Y-4.926
X1.546Y-5.026
X1.642Y-5.255
X1.642Y-5.355
X1.642Y-5.455
X1.646Y-4.926
X1.646Y-5.026
X1.742Y-5.255
X1.742Y-5.355
X1.742Y-5.455
X1.746Y-4.926
X1.746Y-5.026
X1.762Y-1.268
X1.762Y-1.3664
X1.8414Y-2.7477
X1.8414Y-2.8477
X1.8414Y-2.9477
X1.8414Y-3.0477
X1.8414Y-3.1477
X1.8414Y-3.2477
X1.8414Y-3.3477
X1.8414Y-3.4477
X1.8414Y-3.5477
X1.8414Y-3.6477
X1.8414Y-3.7477
X1.8414Y-3.8477
X1.8414Y-3.9477
X1.8414Y-4.0477
X1.8414Y-4.1477
X1.846Y-4.926
X1.846Y-5.026
X1.942Y-5.255
X1.942Y-5.355
X1.942Y-5.455
X1.946Y-4.926
X1.946Y-5.026
X2.042Y-5.255
X2.042Y-5.355
X2.042Y-5.455
X2.046Y-4.926
X2.046Y-5.026
X2.0576Y-5.632
X2.088Y-1.05
X2.088Y-1.1484
X2.126Y-4.154
X2.128Y-4.314
X2.13Y-3.996
X2.142Y-5.255
X2.142Y-5.355
X2.142Y-5.455
X2.146Y-4.926
X2.146Y-5.026
X2.156Y-5.632
X2.226Y-4.154
X2.228Y-4.314
X2.23Y-3.996
X2.242Y-5.255
X2.242Y-5.355
X2.242Y-5.455
X2.246Y-4.926
X2.246Y-5.026
X2.322Y-4.66
X2.326Y-4.154
X2.328Y-4.314
X2.33Y-3.996
X2.346Y-4.926
X2.346Y-5.026
X2.364Y-1.456
X2.364Y-1.6
X2.364Y-1.744
X2.364Y-1.89
X2.436Y-5.764
X2.446Y-4.926
X2.446Y-5.026
X2.458Y-4.66
X2.462Y-1.036
X2.462Y-1.1344
X2.464Y-1.456
X2.464Y-1.6
X2.464Y-1.744
X2.464Y-1.89
X2.536Y-5.764
X2.542Y-5.255
X2.542Y-5.355
X2.542Y-5.455
X2.546Y-4.926
X2.546Y-5.026
X2.564Y-1.456
X2.564Y-1.6
X2.564Y-1.744
X2.564Y-1.89
X2.578Y-3.99
X2.588Y-4.158
X2.594Y-4.316
X2.636Y-5.764
X2.642Y-5.255
X2.642Y-5.355
X2.642Y-5.455
X2.646Y-4.926
X2.646Y-5.026
X2.678Y-3.99
X2.688Y-4.158
X2.694Y-4.316
X2.736Y-5.764
X2.742Y-5.255
X2.742Y-5.355
X2.742Y-5.455
X2.746Y-4.926
X2.746Y-5.026
X2.778Y-3.99
X2.782Y-1.036
X2.782Y-1.1344
X2.788Y-4.158
X2.794Y-4.316
X2.836Y-5.764
X2.842Y-5.255
X2.842Y-5.355
X2.842Y-5.455
X2.846Y-4.926
X2.846Y-5.026
X2.85Y-2.1226
X2.85Y-2.2226
X2.85Y-2.3226
X2.936Y-5.764
X2.946Y-4.926
X2.946Y-5.026
X2.9814Y-4.316
X2.984Y-4.16
X3.036Y-5.764
X3.042Y-3.8074
X3.042Y-3.9074
X3.042Y-4.0074
X3.042Y-5.255
X3.042Y-5.355
X3.042Y-5.455
X3.046Y-4.926
X3.046Y-5.026
X3.074Y-1.206
X3.074Y-1.3044
X3.0814Y-4.316
X3.084Y-4.16
X3.136Y-5.764
X3.142Y-5.255
X3.142Y-5.355
X3.142Y-5.455
X3.146Y-4.926
X3.146Y-5.026
X3.1814Y-4.316
X3.184Y-4.16
X3.242Y-5.255
X3.242Y-5.355
X3.242Y-5.455
X3.246Y-4.926
X3.246Y-5.026
X3.342Y-5.255
X3.342Y-5.355
X3.342Y-5.455
X3.346Y-4.926
X3.346Y-5.026
X3.542Y-4.755
X3.542Y-4.855
X3.542Y-4.955
X3.542Y-5.055
X3.542Y-5.155
X3.542Y-5.255
T6
X0.904Y-1.984
X0.904Y-2.184
X0.906Y-1.542
X0.906Y-1.742
X1.478Y-0.636
X1.544Y-5.99
X1.678Y-0.636
X1.744Y-5.99
X1.924Y-0.636
X1.994Y-5.99
X2.124Y-0.636
X2.194Y-5.99
X2.37Y-0.636
X2.57Y-0.636
X2.812Y-0.636
X3.012Y-0.636
X3.952Y-1.378
X3.952Y-1.578
T0
M30
