M48
; DRILL file {KiCad 7.0.7} date 2023 September 26, Tuesday 10:41:01
; FORMAT={-:-/ absolute / inch / decimal}
; #@! TF.CreationDate,2023-09-26T10:41:01-05:00
; #@! TF.GenerationSoftware,Kicad,Pcbnew,7.0.7
; #@! TF.FileFunction,Plated,2,3,Buried
FMAT,2
INCH
; #@! TA.AperFunction,Plated,Buried,ViaDrill
T1C0.0157
%
G90
G05
T1
X1.054Y-2.432
X1.0666Y-2.3594
X1.31Y-1.488
X1.31Y-1.5274
X1.3403Y-2.6319
X1.351Y-5.1388
X1.376Y-1.632
X1.416Y-1.324
X1.462Y-1.324
X1.508Y-1.322
X1.758Y-5.568
X1.848Y-4.274
X2.0Y-3.526
X2.022Y-4.24
X2.14Y-3.79
X2.22Y-3.912
X2.27Y-5.824
X2.32Y-4.51
X2.328Y-3.874
X2.372Y-3.592
X2.386Y-5.144
X2.414Y-5.642
X2.532Y-3.802
X2.568Y-3.702
X2.588Y-2.336
X2.664Y-3.67
X2.666Y-2.496
X2.724Y-2.658
X2.834Y-2.486
X2.886Y-4.334
X2.9Y-4.526
X3.012Y-2.214
X3.012Y-2.486
X3.064Y-5.664
X3.138Y-2.176
X3.19Y-3.262
X3.336Y-3.138
X3.378Y-4.4765
X3.454Y-4.904
X3.644Y-4.55
X3.654Y-4.832
X3.716Y-1.93
X3.716Y-2.026
X3.778Y-1.934
X3.778Y-2.028
X3.808Y-4.39
X3.808Y-4.548
X3.996Y-5.008
X4.082Y-4.9
T0
M30
