%TF.GenerationSoftware,KiCad,Pcbnew,(7.0.0-0)*%
%TF.CreationDate,2023-08-10T08:47:01-05:00*%
%TF.ProjectId,DingoPCB,44696e67-6f50-4434-922e-6b696361645f,rev?*%
%TF.SameCoordinates,Original*%
%TF.FileFunction,Copper,L2,Bot*%
%TF.FilePolarity,Positive*%
%FSLAX46Y46*%
G04 Gerber Fmt 4.6, Leading zero omitted, Abs format (unit mm)*
G04 Created by KiCad (PCBNEW (7.0.0-0)) date 2023-08-10 08:47:01*
%MOMM*%
%LPD*%
G01*
G04 APERTURE LIST*
G04 Aperture macros list*
%AMRoundRect*
0 Rectangle with rounded corners*
0 $1 Rounding radius*
0 $2 $3 $4 $5 $6 $7 $8 $9 X,Y pos of 4 corners*
0 Add a 4 corners polygon primitive as box body*
4,1,4,$2,$3,$4,$5,$6,$7,$8,$9,$2,$3,0*
0 Add four circle primitives for the rounded corners*
1,1,$1+$1,$2,$3*
1,1,$1+$1,$4,$5*
1,1,$1+$1,$6,$7*
1,1,$1+$1,$8,$9*
0 Add four rect primitives between the rounded corners*
20,1,$1+$1,$2,$3,$4,$5,0*
20,1,$1+$1,$4,$5,$6,$7,0*
20,1,$1+$1,$6,$7,$8,$9,0*
20,1,$1+$1,$8,$9,$2,$3,0*%
G04 Aperture macros list end*
%TA.AperFunction,ComponentPad*%
%ADD10RoundRect,0.250000X-0.600000X-0.750000X0.600000X-0.750000X0.600000X0.750000X-0.600000X0.750000X0*%
%TD*%
%TA.AperFunction,ComponentPad*%
%ADD11O,1.700000X2.000000*%
%TD*%
%TA.AperFunction,ComponentPad*%
%ADD12R,2.600000X2.600000*%
%TD*%
%TA.AperFunction,ComponentPad*%
%ADD13C,2.600000*%
%TD*%
%TA.AperFunction,ComponentPad*%
%ADD14C,1.400000*%
%TD*%
%TA.AperFunction,ComponentPad*%
%ADD15O,1.400000X1.400000*%
%TD*%
%TA.AperFunction,ComponentPad*%
%ADD16R,1.600000X1.600000*%
%TD*%
%TA.AperFunction,ComponentPad*%
%ADD17O,1.600000X1.600000*%
%TD*%
%TA.AperFunction,Conductor*%
%ADD18C,0.250000*%
%TD*%
G04 APERTURE END LIST*
D10*
%TO.P,J12,1,Pin_1*%
%TO.N,GND*%
X42762800Y-40792400D03*
D11*
%TO.P,J12,2,Pin_2*%
%TO.N,+5V*%
X45262799Y-40792399D03*
%TD*%
D12*
%TO.P,J1,1,Pin_1*%
%TO.N,GND*%
X22961599Y-38557199D03*
D13*
%TO.P,J1,2,Pin_2*%
%TO.N,+15V*%
X22961600Y-43637200D03*
%TD*%
D10*
%TO.P,J11,1,Pin_1*%
%TO.N,+12V*%
X60553600Y-40792400D03*
D11*
%TO.P,J11,2,Pin_2*%
%TO.N,GND*%
X63053599Y-40792399D03*
%TD*%
D14*
%TO.P,R2,1*%
%TO.N,Net-(J10-Pin_2)*%
X64159600Y-35306000D03*
D15*
%TO.P,R2,2*%
%TO.N,GND*%
X66699599Y-35305999D03*
%TD*%
D12*
%TO.P,J4,1,Pin_1*%
%TO.N,GND*%
X51257199Y-54051199D03*
D13*
%TO.P,J4,2,Pin_2*%
%TO.N,+15V*%
X56337200Y-54051200D03*
%TD*%
D10*
%TO.P,J20,1,Pin_1*%
%TO.N,GND*%
X84328000Y-23520400D03*
D11*
%TO.P,J20,2,Pin_2*%
%TO.N,+5V*%
X86827999Y-23520399D03*
%TD*%
D12*
%TO.P,J2,1,Pin_1*%
%TO.N,GND*%
X52933599Y-24485599D03*
D13*
%TO.P,J2,2,Pin_2*%
%TO.N,+15V*%
X47853600Y-24485600D03*
%TD*%
D10*
%TO.P,J8,1,Pin_1*%
%TO.N,+12V*%
X69392800Y-40792400D03*
D11*
%TO.P,J8,2,Pin_2*%
%TO.N,GND*%
X71892799Y-40792399D03*
%TD*%
D10*
%TO.P,J9,1,Pin_1*%
%TO.N,GND*%
X33223200Y-40792400D03*
D11*
%TO.P,J9,2,Pin_2*%
%TO.N,+5V*%
X35723199Y-40792399D03*
%TD*%
D12*
%TO.P,J7,1,Pin_1*%
%TO.N,GND*%
X75387199Y-24485599D03*
D13*
%TO.P,J7,2,Pin_2*%
%TO.N,+5V*%
X70307200Y-24485600D03*
%TD*%
D10*
%TO.P,J17,1,Pin_1*%
%TO.N,GND*%
X28234000Y-54254400D03*
D11*
%TO.P,J17,2,Pin_2*%
%TO.N,+5V*%
X30733999Y-54254399D03*
%TD*%
D10*
%TO.P,J14,1,Pin_1*%
%TO.N,GND*%
X51754400Y-40792400D03*
D11*
%TO.P,J14,2,Pin_2*%
%TO.N,+5V*%
X54254399Y-40792399D03*
%TD*%
D16*
%TO.P,D1,1,K*%
%TO.N,Net-(D1-K)*%
X51460399Y-35356799D03*
D17*
%TO.P,D1,2,A*%
%TO.N,+15V*%
X43840399Y-35356799D03*
%TD*%
D10*
%TO.P,J18,1,Pin_1*%
%TO.N,GND*%
X85547200Y-54203600D03*
D11*
%TO.P,J18,2,Pin_2*%
%TO.N,+5V*%
X88047199Y-54203599D03*
%TD*%
D14*
%TO.P,R1,1*%
%TO.N,Net-(D1-K)*%
X56540400Y-35306000D03*
D15*
%TO.P,R1,2*%
%TO.N,Net-(J10-Pin_2)*%
X59080399Y-35305999D03*
%TD*%
D10*
%TO.P,J15,1,Pin_1*%
%TO.N,GND*%
X27624400Y-23825200D03*
D11*
%TO.P,J15,2,Pin_2*%
%TO.N,+5V*%
X30124399Y-23825199D03*
%TD*%
D10*
%TO.P,J13,1,Pin_1*%
%TO.N,+12V*%
X78282800Y-40843200D03*
D11*
%TO.P,J13,2,Pin_2*%
%TO.N,GND*%
X80782799Y-40843199D03*
%TD*%
D12*
%TO.P,J3,1,Pin_1*%
%TO.N,GND*%
X40030399Y-54051199D03*
D13*
%TO.P,J3,2,Pin_2*%
%TO.N,+15V*%
X45110400Y-54051200D03*
%TD*%
D10*
%TO.P,J16,1,Pin_1*%
%TO.N,GND*%
X37936800Y-23825200D03*
D11*
%TO.P,J16,2,Pin_2*%
%TO.N,+5V*%
X40436799Y-23825199D03*
%TD*%
D12*
%TO.P,J5,1,Pin_1*%
%TO.N,GND*%
X62478999Y-54051399D03*
D13*
%TO.P,J5,2,Pin_2*%
%TO.N,+15V*%
X67559000Y-54051400D03*
%TD*%
D12*
%TO.P,J6,1,Pin_1*%
%TO.N,GND*%
X92405199Y-44145199D03*
D13*
%TO.P,J6,2,Pin_2*%
%TO.N,+12V*%
X92405200Y-39065200D03*
%TD*%
D12*
%TO.P,J10,1,Pin_1*%
%TO.N,GND*%
X64160399Y-24485599D03*
D13*
%TO.P,J10,2,Pin_2*%
%TO.N,Net-(J10-Pin_2)*%
X59080400Y-24485600D03*
%TD*%
D10*
%TO.P,J19,1,Pin_1*%
%TO.N,GND*%
X76047600Y-54203600D03*
D11*
%TO.P,J19,2,Pin_2*%
%TO.N,+5V*%
X78547599Y-54203599D03*
%TD*%
D18*
%TO.N,+5V*%
X40436800Y-27990800D02*
X35723200Y-32704400D01*
X55168800Y-37947600D02*
X54254400Y-38862000D01*
X70866000Y-24485600D02*
X70866000Y-21894800D01*
X52929400Y-42117400D02*
X54254400Y-40792400D01*
X66395600Y-37947600D02*
X55168800Y-37947600D01*
X70866000Y-34747200D02*
X67665600Y-37947600D01*
X30124400Y-22504400D02*
X31394400Y-21234400D01*
X37048200Y-42117400D02*
X43937800Y-42117400D01*
X88047200Y-54203600D02*
X86722200Y-52878600D01*
X31394400Y-21234400D02*
X38557200Y-21234400D01*
X35723200Y-32704400D02*
X35723200Y-40792400D01*
X67665600Y-37947600D02*
X66395600Y-37947600D01*
X45262800Y-40792400D02*
X46587800Y-42117400D01*
X54254400Y-38862000D02*
X54254400Y-40792400D01*
X66395600Y-42051600D02*
X66395600Y-37947600D01*
X43937800Y-42117400D02*
X45262800Y-40792400D01*
X86722200Y-52878600D02*
X79872600Y-52878600D01*
X72136000Y-20624800D02*
X85090000Y-20624800D01*
X35723200Y-40792400D02*
X37048200Y-42117400D01*
X38557200Y-21234400D02*
X40436800Y-23114000D01*
X79872600Y-52878600D02*
X78547600Y-54203600D01*
X70866000Y-24485600D02*
X70866000Y-34747200D01*
X70866000Y-21894800D02*
X72136000Y-20624800D01*
X85090000Y-20624800D02*
X86828000Y-22362800D01*
X46587800Y-42117400D02*
X52929400Y-42117400D01*
X78547600Y-54203600D02*
X66395600Y-42051600D01*
X86828000Y-22362800D02*
X86828000Y-23520400D01*
X35723200Y-43067600D02*
X30734000Y-48056800D01*
X40436800Y-23825200D02*
X40436800Y-27990800D01*
X40436800Y-23114000D02*
X40436800Y-23825200D01*
X35723200Y-40792400D02*
X35723200Y-43067600D01*
X30124400Y-23825200D02*
X30124400Y-22504400D01*
X30734000Y-48056800D02*
X30734000Y-54254400D01*
%TO.N,Net-(J10-Pin_2)*%
X59080400Y-24485600D02*
X59080400Y-35306000D01*
%TD*%
%TA.AperFunction,Conductor*%
%TO.N,GND*%
G36*
X41033193Y-19318759D02*
G01*
X97564479Y-19354721D01*
X97626446Y-19371360D01*
X97671800Y-19416744D01*
X97688400Y-19478721D01*
X97688400Y-59007200D01*
X97671787Y-59069200D01*
X97626400Y-59114587D01*
X97564400Y-59131200D01*
X17954800Y-59131200D01*
X17892800Y-59114587D01*
X17847413Y-59069200D01*
X17830800Y-59007200D01*
X17830800Y-56253200D01*
X18545012Y-56253200D01*
X18545328Y-56257618D01*
X18563824Y-56516242D01*
X18563825Y-56516251D01*
X18564141Y-56520665D01*
X18565081Y-56524990D01*
X18565083Y-56524998D01*
X18614756Y-56753340D01*
X18621140Y-56782685D01*
X18714849Y-57033926D01*
X18716969Y-57037808D01*
X18716972Y-57037815D01*
X18841231Y-57265380D01*
X18841235Y-57265387D01*
X18843358Y-57269274D01*
X18846015Y-57272823D01*
X19001400Y-57480394D01*
X19001405Y-57480400D01*
X19004053Y-57483937D01*
X19193663Y-57673547D01*
X19197200Y-57676195D01*
X19197205Y-57676199D01*
X19299804Y-57753003D01*
X19408326Y-57834242D01*
X19412216Y-57836366D01*
X19412219Y-57836368D01*
X19639784Y-57960627D01*
X19643674Y-57962751D01*
X19894915Y-58056460D01*
X20156935Y-58113459D01*
X20424400Y-58132588D01*
X20691865Y-58113459D01*
X20953885Y-58056460D01*
X21205126Y-57962751D01*
X21440474Y-57834242D01*
X21655137Y-57673547D01*
X21844747Y-57483937D01*
X22005442Y-57269274D01*
X22133951Y-57033926D01*
X22227660Y-56782685D01*
X22284659Y-56520665D01*
X22303788Y-56253200D01*
X92545012Y-56253200D01*
X92545328Y-56257618D01*
X92563824Y-56516242D01*
X92563825Y-56516251D01*
X92564141Y-56520665D01*
X92565081Y-56524990D01*
X92565083Y-56524998D01*
X92614756Y-56753340D01*
X92621140Y-56782685D01*
X92714849Y-57033926D01*
X92716969Y-57037808D01*
X92716972Y-57037815D01*
X92841231Y-57265380D01*
X92841235Y-57265387D01*
X92843358Y-57269274D01*
X92846015Y-57272823D01*
X93001400Y-57480394D01*
X93001405Y-57480400D01*
X93004053Y-57483937D01*
X93193663Y-57673547D01*
X93197200Y-57676195D01*
X93197205Y-57676199D01*
X93299804Y-57753003D01*
X93408326Y-57834242D01*
X93412216Y-57836366D01*
X93412219Y-57836368D01*
X93639784Y-57960627D01*
X93643674Y-57962751D01*
X93894915Y-58056460D01*
X94156935Y-58113459D01*
X94424400Y-58132588D01*
X94691865Y-58113459D01*
X94953885Y-58056460D01*
X95205126Y-57962751D01*
X95440474Y-57834242D01*
X95655137Y-57673547D01*
X95844747Y-57483937D01*
X96005442Y-57269274D01*
X96133951Y-57033926D01*
X96227660Y-56782685D01*
X96284659Y-56520665D01*
X96303788Y-56253200D01*
X96284659Y-55985735D01*
X96227660Y-55723715D01*
X96133951Y-55472474D01*
X96128688Y-55462835D01*
X96007568Y-55241019D01*
X96007566Y-55241016D01*
X96005442Y-55237126D01*
X95912314Y-55112722D01*
X95847399Y-55026005D01*
X95847395Y-55026000D01*
X95844747Y-55022463D01*
X95655137Y-54832853D01*
X95651600Y-54830205D01*
X95651594Y-54830200D01*
X95444023Y-54674815D01*
X95440474Y-54672158D01*
X95436587Y-54670035D01*
X95436580Y-54670031D01*
X95209015Y-54545772D01*
X95209008Y-54545769D01*
X95205126Y-54543649D01*
X95143668Y-54520726D01*
X94958028Y-54451485D01*
X94958024Y-54451483D01*
X94953885Y-54449940D01*
X94924540Y-54443556D01*
X94696198Y-54393883D01*
X94696190Y-54393881D01*
X94691865Y-54392941D01*
X94687451Y-54392625D01*
X94687442Y-54392624D01*
X94428818Y-54374128D01*
X94424400Y-54373812D01*
X94419982Y-54374128D01*
X94161357Y-54392624D01*
X94161346Y-54392625D01*
X94156935Y-54392941D01*
X94152611Y-54393881D01*
X94152601Y-54393883D01*
X93899240Y-54448999D01*
X93899237Y-54448999D01*
X93894915Y-54449940D01*
X93890779Y-54451482D01*
X93890771Y-54451485D01*
X93647823Y-54542101D01*
X93647817Y-54542103D01*
X93643674Y-54543649D01*
X93639796Y-54545766D01*
X93639784Y-54545772D01*
X93412219Y-54670031D01*
X93412205Y-54670039D01*
X93408326Y-54672158D01*
X93404780Y-54674811D01*
X93404776Y-54674815D01*
X93197205Y-54830200D01*
X93197192Y-54830210D01*
X93193663Y-54832853D01*
X93190537Y-54835978D01*
X93190530Y-54835985D01*
X93007185Y-55019330D01*
X93007178Y-55019337D01*
X93004053Y-55022463D01*
X93001410Y-55025992D01*
X93001400Y-55026005D01*
X92846015Y-55233576D01*
X92846011Y-55233580D01*
X92843358Y-55237126D01*
X92841239Y-55241005D01*
X92841231Y-55241019D01*
X92716972Y-55468584D01*
X92716966Y-55468596D01*
X92714849Y-55472474D01*
X92713303Y-55476617D01*
X92713301Y-55476623D01*
X92622685Y-55719571D01*
X92622682Y-55719579D01*
X92621140Y-55723715D01*
X92620199Y-55728037D01*
X92620199Y-55728040D01*
X92565083Y-55981401D01*
X92565081Y-55981411D01*
X92564141Y-55985735D01*
X92563825Y-55990146D01*
X92563824Y-55990157D01*
X92545961Y-56239927D01*
X92545012Y-56253200D01*
X22303788Y-56253200D01*
X22284659Y-55985735D01*
X22227660Y-55723715D01*
X22133951Y-55472474D01*
X22128688Y-55462835D01*
X22007568Y-55241019D01*
X22007566Y-55241016D01*
X22005442Y-55237126D01*
X21912314Y-55112722D01*
X21866281Y-55051229D01*
X26884001Y-55051229D01*
X26884321Y-55057511D01*
X26893805Y-55150359D01*
X26896623Y-55163522D01*
X26947370Y-55316667D01*
X26953432Y-55329666D01*
X27037890Y-55466594D01*
X27046794Y-55477855D01*
X27160544Y-55591605D01*
X27171805Y-55600509D01*
X27308733Y-55684967D01*
X27321732Y-55691029D01*
X27474874Y-55741775D01*
X27488041Y-55744594D01*
X27580890Y-55754080D01*
X27587168Y-55754400D01*
X27967674Y-55754400D01*
X27980549Y-55750949D01*
X27984000Y-55738074D01*
X27984000Y-54520726D01*
X27980549Y-54507850D01*
X27967674Y-54504400D01*
X26900327Y-54504400D01*
X26887451Y-54507850D01*
X26884001Y-54520726D01*
X26884001Y-55051229D01*
X21866281Y-55051229D01*
X21847399Y-55026005D01*
X21847395Y-55026000D01*
X21844747Y-55022463D01*
X21655137Y-54832853D01*
X21651600Y-54830205D01*
X21651594Y-54830200D01*
X21444023Y-54674815D01*
X21440474Y-54672158D01*
X21436587Y-54670035D01*
X21436580Y-54670031D01*
X21209015Y-54545772D01*
X21209008Y-54545769D01*
X21205126Y-54543649D01*
X21143668Y-54520726D01*
X20958028Y-54451485D01*
X20958024Y-54451483D01*
X20953885Y-54449940D01*
X20924540Y-54443556D01*
X20696198Y-54393883D01*
X20696190Y-54393881D01*
X20691865Y-54392941D01*
X20687451Y-54392625D01*
X20687442Y-54392624D01*
X20428818Y-54374128D01*
X20424400Y-54373812D01*
X20419982Y-54374128D01*
X20161357Y-54392624D01*
X20161346Y-54392625D01*
X20156935Y-54392941D01*
X20152611Y-54393881D01*
X20152601Y-54393883D01*
X19899240Y-54448999D01*
X19899237Y-54448999D01*
X19894915Y-54449940D01*
X19890779Y-54451482D01*
X19890771Y-54451485D01*
X19647823Y-54542101D01*
X19647817Y-54542103D01*
X19643674Y-54543649D01*
X19639796Y-54545766D01*
X19639784Y-54545772D01*
X19412219Y-54670031D01*
X19412205Y-54670039D01*
X19408326Y-54672158D01*
X19404780Y-54674811D01*
X19404776Y-54674815D01*
X19197205Y-54830200D01*
X19197192Y-54830210D01*
X19193663Y-54832853D01*
X19190537Y-54835978D01*
X19190530Y-54835985D01*
X19007185Y-55019330D01*
X19007178Y-55019337D01*
X19004053Y-55022463D01*
X19001410Y-55025992D01*
X19001400Y-55026005D01*
X18846015Y-55233576D01*
X18846011Y-55233580D01*
X18843358Y-55237126D01*
X18841239Y-55241005D01*
X18841231Y-55241019D01*
X18716972Y-55468584D01*
X18716966Y-55468596D01*
X18714849Y-55472474D01*
X18713303Y-55476617D01*
X18713301Y-55476623D01*
X18622685Y-55719571D01*
X18622682Y-55719579D01*
X18621140Y-55723715D01*
X18620199Y-55728037D01*
X18620199Y-55728040D01*
X18565083Y-55981401D01*
X18565081Y-55981411D01*
X18564141Y-55985735D01*
X18563825Y-55990146D01*
X18563824Y-55990157D01*
X18545961Y-56239927D01*
X18545012Y-56253200D01*
X17830800Y-56253200D01*
X17830800Y-53988074D01*
X26884000Y-53988074D01*
X26887450Y-54000949D01*
X26900326Y-54004400D01*
X27967674Y-54004400D01*
X27980549Y-54000949D01*
X27984000Y-53988074D01*
X27984000Y-52770727D01*
X27980549Y-52757851D01*
X27967674Y-52754401D01*
X27587171Y-52754401D01*
X27580888Y-52754721D01*
X27488040Y-52764205D01*
X27474877Y-52767023D01*
X27321732Y-52817770D01*
X27308733Y-52823832D01*
X27171805Y-52908290D01*
X27160544Y-52917194D01*
X27046794Y-53030944D01*
X27037890Y-53042205D01*
X26953432Y-53179133D01*
X26947370Y-53192132D01*
X26896624Y-53345274D01*
X26893805Y-53358441D01*
X26884319Y-53451290D01*
X26884000Y-53457568D01*
X26884000Y-53988074D01*
X17830800Y-53988074D01*
X17830800Y-43637200D01*
X21156051Y-43637200D01*
X21156398Y-43641831D01*
X21174161Y-43878874D01*
X21176217Y-43906303D01*
X21236266Y-44169395D01*
X21334857Y-44420598D01*
X21469785Y-44654302D01*
X21638039Y-44865285D01*
X21835859Y-45048835D01*
X22058826Y-45200851D01*
X22301959Y-45317938D01*
X22306387Y-45319303D01*
X22306390Y-45319305D01*
X22430893Y-45357709D01*
X22559828Y-45397480D01*
X22826671Y-45437700D01*
X23091892Y-45437700D01*
X23096529Y-45437700D01*
X23363372Y-45397480D01*
X23621241Y-45317938D01*
X23864375Y-45200851D01*
X24087341Y-45048835D01*
X24285161Y-44865285D01*
X24453415Y-44654302D01*
X24588343Y-44420598D01*
X24686934Y-44169395D01*
X24746983Y-43906303D01*
X24767149Y-43637200D01*
X24746983Y-43368097D01*
X24686934Y-43105005D01*
X24588343Y-42853802D01*
X24453415Y-42620098D01*
X24285161Y-42409115D01*
X24143868Y-42278014D01*
X24090746Y-42228724D01*
X24090743Y-42228721D01*
X24087341Y-42225565D01*
X24083512Y-42222954D01*
X24083509Y-42222952D01*
X23895581Y-42094825D01*
X23864375Y-42073549D01*
X23843234Y-42063368D01*
X23625420Y-41958474D01*
X23625414Y-41958471D01*
X23621241Y-41956462D01*
X23616819Y-41955098D01*
X23616809Y-41955094D01*
X23367802Y-41878286D01*
X23367796Y-41878284D01*
X23363372Y-41876920D01*
X23358795Y-41876230D01*
X23358786Y-41876228D01*
X23101114Y-41837391D01*
X23101113Y-41837390D01*
X23096529Y-41836700D01*
X22826671Y-41836700D01*
X22822087Y-41837390D01*
X22822085Y-41837391D01*
X22564413Y-41876228D01*
X22564401Y-41876230D01*
X22559828Y-41876920D01*
X22555406Y-41878283D01*
X22555397Y-41878286D01*
X22306390Y-41955094D01*
X22306375Y-41955099D01*
X22301959Y-41956462D01*
X22297785Y-41958471D01*
X22297780Y-41958474D01*
X22063011Y-42071533D01*
X22063004Y-42071536D01*
X22058826Y-42073549D01*
X22054993Y-42076162D01*
X22054990Y-42076164D01*
X21839690Y-42222952D01*
X21839680Y-42222959D01*
X21835859Y-42225565D01*
X21832463Y-42228716D01*
X21832453Y-42228724D01*
X21641443Y-42405956D01*
X21641439Y-42405959D01*
X21638039Y-42409115D01*
X21635149Y-42412737D01*
X21635146Y-42412742D01*
X21473396Y-42615570D01*
X21469785Y-42620098D01*
X21467466Y-42624113D01*
X21467465Y-42624116D01*
X21337178Y-42849781D01*
X21337175Y-42849786D01*
X21334857Y-42853802D01*
X21333163Y-42858116D01*
X21333161Y-42858122D01*
X21246223Y-43079635D01*
X21236266Y-43105005D01*
X21235233Y-43109526D01*
X21235232Y-43109533D01*
X21177248Y-43363577D01*
X21177246Y-43363585D01*
X21176217Y-43368097D01*
X21175870Y-43372716D01*
X21175870Y-43372722D01*
X21166213Y-43501589D01*
X21156051Y-43637200D01*
X17830800Y-43637200D01*
X17830800Y-41589229D01*
X31873201Y-41589229D01*
X31873521Y-41595511D01*
X31883005Y-41688359D01*
X31885823Y-41701522D01*
X31936570Y-41854667D01*
X31942632Y-41867666D01*
X32027090Y-42004594D01*
X32035994Y-42015855D01*
X32149744Y-42129605D01*
X32161005Y-42138509D01*
X32297933Y-42222967D01*
X32310932Y-42229029D01*
X32464074Y-42279775D01*
X32477241Y-42282594D01*
X32570090Y-42292080D01*
X32576368Y-42292400D01*
X32956874Y-42292400D01*
X32969749Y-42288949D01*
X32973200Y-42276074D01*
X32973200Y-41058726D01*
X32969749Y-41045850D01*
X32956874Y-41042400D01*
X31889527Y-41042400D01*
X31876651Y-41045850D01*
X31873201Y-41058726D01*
X31873201Y-41589229D01*
X17830800Y-41589229D01*
X17830800Y-40526074D01*
X31873200Y-40526074D01*
X31876650Y-40538949D01*
X31889526Y-40542400D01*
X32956874Y-40542400D01*
X32969749Y-40538949D01*
X32973200Y-40526074D01*
X32973200Y-39308727D01*
X32969749Y-39295851D01*
X32956874Y-39292401D01*
X32576371Y-39292401D01*
X32570088Y-39292721D01*
X32477240Y-39302205D01*
X32464077Y-39305023D01*
X32310932Y-39355770D01*
X32297933Y-39361832D01*
X32161005Y-39446290D01*
X32149744Y-39455194D01*
X32035994Y-39568944D01*
X32027090Y-39580205D01*
X31942632Y-39717133D01*
X31936570Y-39730132D01*
X31885824Y-39883274D01*
X31883005Y-39896441D01*
X31873519Y-39989290D01*
X31873200Y-39995568D01*
X31873200Y-40526074D01*
X17830800Y-40526074D01*
X17830800Y-39901718D01*
X21161600Y-39901718D01*
X21161953Y-39908314D01*
X21167173Y-39956867D01*
X21170711Y-39971841D01*
X21215147Y-40090977D01*
X21223562Y-40106389D01*
X21299098Y-40207292D01*
X21311507Y-40219701D01*
X21412410Y-40295237D01*
X21427822Y-40303652D01*
X21546958Y-40348088D01*
X21561932Y-40351626D01*
X21610485Y-40356846D01*
X21617082Y-40357200D01*
X22695274Y-40357200D01*
X22708149Y-40353749D01*
X22711600Y-40340874D01*
X23211600Y-40340874D01*
X23215050Y-40353749D01*
X23227926Y-40357200D01*
X24306118Y-40357200D01*
X24312714Y-40356846D01*
X24361267Y-40351626D01*
X24376241Y-40348088D01*
X24495377Y-40303652D01*
X24510789Y-40295237D01*
X24611692Y-40219701D01*
X24624101Y-40207292D01*
X24699637Y-40106389D01*
X24708052Y-40090977D01*
X24752488Y-39971841D01*
X24756026Y-39956867D01*
X24761246Y-39908314D01*
X24761600Y-39901718D01*
X24761600Y-38823526D01*
X24758149Y-38810650D01*
X24745274Y-38807200D01*
X23227926Y-38807200D01*
X23215050Y-38810650D01*
X23211600Y-38823526D01*
X23211600Y-40340874D01*
X22711600Y-40340874D01*
X22711600Y-38823526D01*
X22708149Y-38810650D01*
X22695274Y-38807200D01*
X21177926Y-38807200D01*
X21165050Y-38810650D01*
X21161600Y-38823526D01*
X21161600Y-39901718D01*
X17830800Y-39901718D01*
X17830800Y-38290874D01*
X21161600Y-38290874D01*
X21165050Y-38303749D01*
X21177926Y-38307200D01*
X22695274Y-38307200D01*
X22708149Y-38303749D01*
X22711600Y-38290874D01*
X23211600Y-38290874D01*
X23215050Y-38303749D01*
X23227926Y-38307200D01*
X24745274Y-38307200D01*
X24758149Y-38303749D01*
X24761600Y-38290874D01*
X24761600Y-37212682D01*
X24761246Y-37206085D01*
X24756026Y-37157532D01*
X24752488Y-37142558D01*
X24708052Y-37023422D01*
X24699637Y-37008010D01*
X24624101Y-36907107D01*
X24611692Y-36894698D01*
X24510789Y-36819162D01*
X24495377Y-36810747D01*
X24376241Y-36766311D01*
X24361267Y-36762773D01*
X24312714Y-36757553D01*
X24306118Y-36757200D01*
X23227926Y-36757200D01*
X23215050Y-36760650D01*
X23211600Y-36773526D01*
X23211600Y-38290874D01*
X22711600Y-38290874D01*
X22711600Y-36773526D01*
X22708149Y-36760650D01*
X22695274Y-36757200D01*
X21617082Y-36757200D01*
X21610485Y-36757553D01*
X21561932Y-36762773D01*
X21546958Y-36766311D01*
X21427822Y-36810747D01*
X21412410Y-36819162D01*
X21311507Y-36894698D01*
X21299098Y-36907107D01*
X21223562Y-37008010D01*
X21215147Y-37023422D01*
X21170711Y-37142558D01*
X21167173Y-37157532D01*
X21161953Y-37206085D01*
X21161600Y-37212682D01*
X21161600Y-38290874D01*
X17830800Y-38290874D01*
X17830800Y-24622029D01*
X26274401Y-24622029D01*
X26274721Y-24628311D01*
X26284205Y-24721159D01*
X26287023Y-24734322D01*
X26337770Y-24887467D01*
X26343832Y-24900466D01*
X26428290Y-25037394D01*
X26437194Y-25048655D01*
X26550944Y-25162405D01*
X26562205Y-25171309D01*
X26699133Y-25255767D01*
X26712132Y-25261829D01*
X26865274Y-25312575D01*
X26878441Y-25315394D01*
X26971290Y-25324880D01*
X26977568Y-25325200D01*
X27358074Y-25325200D01*
X27370949Y-25321749D01*
X27374400Y-25308874D01*
X27374400Y-25308873D01*
X27874400Y-25308873D01*
X27877850Y-25321748D01*
X27890726Y-25325199D01*
X28271229Y-25325199D01*
X28277511Y-25324878D01*
X28370359Y-25315394D01*
X28383522Y-25312576D01*
X28536667Y-25261829D01*
X28549666Y-25255767D01*
X28686594Y-25171309D01*
X28697855Y-25162405D01*
X28811605Y-25048655D01*
X28820509Y-25037394D01*
X28908758Y-24894322D01*
X28909605Y-24894844D01*
X28941686Y-24854867D01*
X28995641Y-24831122D01*
X29054464Y-24834975D01*
X29104860Y-24865556D01*
X29252999Y-25013695D01*
X29257431Y-25016798D01*
X29257433Y-25016800D01*
X29302927Y-25048655D01*
X29446570Y-25149235D01*
X29451470Y-25151520D01*
X29451472Y-25151521D01*
X29474813Y-25162405D01*
X29660737Y-25249103D01*
X29665967Y-25250504D01*
X29665969Y-25250505D01*
X29708019Y-25261772D01*
X29888992Y-25310263D01*
X30124400Y-25330859D01*
X30359808Y-25310263D01*
X30588063Y-25249103D01*
X30802229Y-25149235D01*
X30995801Y-25013695D01*
X31162895Y-24846601D01*
X31298435Y-24653029D01*
X31312891Y-24622029D01*
X36586801Y-24622029D01*
X36587121Y-24628311D01*
X36596605Y-24721159D01*
X36599423Y-24734322D01*
X36650170Y-24887467D01*
X36656232Y-24900466D01*
X36740690Y-25037394D01*
X36749594Y-25048655D01*
X36863344Y-25162405D01*
X36874605Y-25171309D01*
X37011533Y-25255767D01*
X37024532Y-25261829D01*
X37177674Y-25312575D01*
X37190841Y-25315394D01*
X37283690Y-25324880D01*
X37289968Y-25325200D01*
X37670474Y-25325200D01*
X37683349Y-25321749D01*
X37686800Y-25308874D01*
X37686800Y-24091526D01*
X37683349Y-24078650D01*
X37670474Y-24075200D01*
X36603127Y-24075200D01*
X36590251Y-24078650D01*
X36586801Y-24091526D01*
X36586801Y-24622029D01*
X31312891Y-24622029D01*
X31398303Y-24438863D01*
X31459463Y-24210608D01*
X31474900Y-24034166D01*
X31474900Y-23616234D01*
X31469882Y-23558874D01*
X36586800Y-23558874D01*
X36590250Y-23571749D01*
X36603126Y-23575200D01*
X37670474Y-23575200D01*
X37683349Y-23571749D01*
X37686800Y-23558874D01*
X37686800Y-22341527D01*
X37683349Y-22328651D01*
X37670474Y-22325201D01*
X37289971Y-22325201D01*
X37283688Y-22325521D01*
X37190840Y-22335005D01*
X37177677Y-22337823D01*
X37024532Y-22388570D01*
X37011533Y-22394632D01*
X36874605Y-22479090D01*
X36863344Y-22487994D01*
X36749594Y-22601744D01*
X36740690Y-22613005D01*
X36656232Y-22749933D01*
X36650170Y-22762932D01*
X36599424Y-22916074D01*
X36596605Y-22929241D01*
X36587119Y-23022090D01*
X36586800Y-23028368D01*
X36586800Y-23558874D01*
X31469882Y-23558874D01*
X31459463Y-23439792D01*
X31409701Y-23254074D01*
X31399705Y-23216769D01*
X31399704Y-23216767D01*
X31398303Y-23211537D01*
X31298435Y-22997371D01*
X31162895Y-22803799D01*
X31023923Y-22664827D01*
X30991829Y-22609239D01*
X30991829Y-22545052D01*
X31023921Y-22489468D01*
X31617171Y-21896219D01*
X31657400Y-21869339D01*
X31704853Y-21859900D01*
X38246748Y-21859900D01*
X38294201Y-21869339D01*
X38334429Y-21896219D01*
X38551729Y-22113519D01*
X38581979Y-22162882D01*
X38586521Y-22220598D01*
X38564366Y-22274085D01*
X38520343Y-22311685D01*
X38464048Y-22325200D01*
X38203126Y-22325200D01*
X38190250Y-22328650D01*
X38186800Y-22341526D01*
X38186800Y-25308873D01*
X38190250Y-25321748D01*
X38203126Y-25325199D01*
X38583629Y-25325199D01*
X38589911Y-25324878D01*
X38682759Y-25315394D01*
X38695922Y-25312576D01*
X38849067Y-25261829D01*
X38862066Y-25255767D01*
X38998994Y-25171309D01*
X39010255Y-25162405D01*
X39124005Y-25048655D01*
X39132909Y-25037394D01*
X39221158Y-24894322D01*
X39222005Y-24894844D01*
X39254086Y-24854867D01*
X39308041Y-24831122D01*
X39366864Y-24834975D01*
X39417260Y-24865556D01*
X39565399Y-25013695D01*
X39569831Y-25016798D01*
X39569833Y-25016800D01*
X39758424Y-25148853D01*
X39797289Y-25193171D01*
X39811300Y-25250428D01*
X39811300Y-27680348D01*
X39801861Y-27727801D01*
X39774981Y-27768029D01*
X35335896Y-32207111D01*
X35327711Y-32214559D01*
X35321323Y-32218614D01*
X35315988Y-32224294D01*
X35315983Y-32224299D01*
X35275296Y-32267625D01*
X35272592Y-32270416D01*
X35255828Y-32287180D01*
X35255821Y-32287187D01*
X35253080Y-32289929D01*
X35250700Y-32292996D01*
X35250689Y-32293009D01*
X35250600Y-32293125D01*
X35243042Y-32301970D01*
X35218480Y-32328127D01*
X35218473Y-32328136D01*
X35213138Y-32333818D01*
X35209382Y-32340649D01*
X35209379Y-32340654D01*
X35203485Y-32351375D01*
X35192809Y-32367627D01*
X35185309Y-32377296D01*
X35185301Y-32377307D01*
X35180527Y-32383464D01*
X35177434Y-32390608D01*
X35177429Y-32390619D01*
X35163174Y-32423560D01*
X35158038Y-32434043D01*
X35137003Y-32472308D01*
X35135064Y-32479856D01*
X35135063Y-32479861D01*
X35132022Y-32491707D01*
X35125721Y-32510111D01*
X35120858Y-32521348D01*
X35120856Y-32521352D01*
X35117762Y-32528504D01*
X35116542Y-32536203D01*
X35116542Y-32536205D01*
X35110929Y-32571641D01*
X35108561Y-32583076D01*
X35099638Y-32617828D01*
X35099636Y-32617836D01*
X35097700Y-32625381D01*
X35097700Y-32633177D01*
X35097700Y-32645417D01*
X35096174Y-32664802D01*
X35093040Y-32684596D01*
X35093774Y-32692361D01*
X35093774Y-32692364D01*
X35097150Y-32728076D01*
X35097700Y-32739745D01*
X35097700Y-39367174D01*
X35083689Y-39424431D01*
X35044825Y-39468747D01*
X34992204Y-39505593D01*
X34856234Y-39600799D01*
X34856229Y-39600802D01*
X34851799Y-39603905D01*
X34847975Y-39607728D01*
X34847975Y-39607729D01*
X34703660Y-39752044D01*
X34653265Y-39782623D01*
X34594444Y-39786478D01*
X34540490Y-39762736D01*
X34508404Y-39722755D01*
X34507558Y-39723278D01*
X34419309Y-39580205D01*
X34410405Y-39568944D01*
X34296655Y-39455194D01*
X34285394Y-39446290D01*
X34148466Y-39361832D01*
X34135467Y-39355770D01*
X33982325Y-39305024D01*
X33969158Y-39302205D01*
X33876309Y-39292719D01*
X33870032Y-39292400D01*
X33489526Y-39292400D01*
X33476650Y-39295850D01*
X33473200Y-39308726D01*
X33473200Y-42276073D01*
X33476650Y-42288948D01*
X33489526Y-42292399D01*
X33870029Y-42292399D01*
X33876311Y-42292078D01*
X33969159Y-42282594D01*
X33982322Y-42279776D01*
X34135467Y-42229029D01*
X34148466Y-42222967D01*
X34285394Y-42138509D01*
X34296655Y-42129605D01*
X34410405Y-42015855D01*
X34419309Y-42004594D01*
X34507558Y-41861522D01*
X34508405Y-41862044D01*
X34540486Y-41822067D01*
X34594441Y-41798322D01*
X34653264Y-41802175D01*
X34703660Y-41832756D01*
X34851799Y-41980895D01*
X34856231Y-41983998D01*
X34856233Y-41984000D01*
X35044824Y-42116053D01*
X35083689Y-42160371D01*
X35097700Y-42217628D01*
X35097700Y-42757147D01*
X35088261Y-42804600D01*
X35061381Y-42844828D01*
X30346696Y-47559511D01*
X30338511Y-47566959D01*
X30332123Y-47571014D01*
X30326788Y-47576694D01*
X30326783Y-47576699D01*
X30286096Y-47620025D01*
X30283392Y-47622816D01*
X30266628Y-47639580D01*
X30266621Y-47639587D01*
X30263880Y-47642329D01*
X30261500Y-47645396D01*
X30261489Y-47645409D01*
X30261400Y-47645525D01*
X30253842Y-47654370D01*
X30229280Y-47680527D01*
X30229273Y-47680536D01*
X30223938Y-47686218D01*
X30220182Y-47693049D01*
X30220179Y-47693054D01*
X30214285Y-47703775D01*
X30203609Y-47720027D01*
X30196109Y-47729696D01*
X30196101Y-47729707D01*
X30191327Y-47735864D01*
X30188234Y-47743008D01*
X30188229Y-47743019D01*
X30173974Y-47775960D01*
X30168838Y-47786443D01*
X30147803Y-47824708D01*
X30145864Y-47832256D01*
X30145863Y-47832261D01*
X30142822Y-47844107D01*
X30136521Y-47862511D01*
X30131658Y-47873748D01*
X30131656Y-47873752D01*
X30128562Y-47880904D01*
X30127342Y-47888603D01*
X30127342Y-47888605D01*
X30121729Y-47924041D01*
X30119361Y-47935476D01*
X30110438Y-47970228D01*
X30110436Y-47970236D01*
X30108500Y-47977781D01*
X30108500Y-47985577D01*
X30108500Y-47997817D01*
X30106974Y-48017202D01*
X30103840Y-48036996D01*
X30104574Y-48044761D01*
X30104574Y-48044764D01*
X30107950Y-48080476D01*
X30108500Y-48092145D01*
X30108500Y-52829174D01*
X30094489Y-52886431D01*
X30055623Y-52930749D01*
X29867034Y-53062799D01*
X29867029Y-53062802D01*
X29862599Y-53065905D01*
X29858774Y-53069729D01*
X29858775Y-53069729D01*
X29714460Y-53214044D01*
X29664065Y-53244623D01*
X29605244Y-53248478D01*
X29551290Y-53224736D01*
X29519204Y-53184755D01*
X29518358Y-53185278D01*
X29430109Y-53042205D01*
X29421205Y-53030944D01*
X29307455Y-52917194D01*
X29296194Y-52908290D01*
X29159266Y-52823832D01*
X29146267Y-52817770D01*
X28993125Y-52767024D01*
X28979958Y-52764205D01*
X28887109Y-52754719D01*
X28880832Y-52754400D01*
X28500326Y-52754400D01*
X28487450Y-52757850D01*
X28484000Y-52770726D01*
X28484000Y-55738073D01*
X28487450Y-55750948D01*
X28500326Y-55754399D01*
X28880829Y-55754399D01*
X28887111Y-55754078D01*
X28979959Y-55744594D01*
X28993122Y-55741776D01*
X29146267Y-55691029D01*
X29159266Y-55684967D01*
X29296194Y-55600509D01*
X29307455Y-55591605D01*
X29421205Y-55477855D01*
X29430109Y-55466594D01*
X29518358Y-55323522D01*
X29519205Y-55324044D01*
X29551286Y-55284067D01*
X29605241Y-55260322D01*
X29664064Y-55264175D01*
X29714460Y-55294756D01*
X29862599Y-55442895D01*
X29867031Y-55445998D01*
X29867033Y-55446000D01*
X29912527Y-55477855D01*
X30056170Y-55578435D01*
X30061070Y-55580720D01*
X30061072Y-55580721D01*
X30070199Y-55584977D01*
X30270337Y-55678303D01*
X30275567Y-55679704D01*
X30275569Y-55679705D01*
X30310759Y-55689134D01*
X30498592Y-55739463D01*
X30734000Y-55760059D01*
X30969408Y-55739463D01*
X31197663Y-55678303D01*
X31411829Y-55578435D01*
X31605401Y-55442895D01*
X31652578Y-55395718D01*
X38230400Y-55395718D01*
X38230753Y-55402314D01*
X38235973Y-55450867D01*
X38239511Y-55465841D01*
X38283947Y-55584977D01*
X38292362Y-55600389D01*
X38367898Y-55701292D01*
X38380307Y-55713701D01*
X38481210Y-55789237D01*
X38496622Y-55797652D01*
X38615758Y-55842088D01*
X38630732Y-55845626D01*
X38679285Y-55850846D01*
X38685882Y-55851200D01*
X39764074Y-55851200D01*
X39776949Y-55847749D01*
X39780400Y-55834874D01*
X40280400Y-55834874D01*
X40283850Y-55847749D01*
X40296726Y-55851200D01*
X41374918Y-55851200D01*
X41381514Y-55850846D01*
X41430067Y-55845626D01*
X41445041Y-55842088D01*
X41564177Y-55797652D01*
X41579589Y-55789237D01*
X41680492Y-55713701D01*
X41692901Y-55701292D01*
X41768437Y-55600389D01*
X41776852Y-55584977D01*
X41821288Y-55465841D01*
X41824826Y-55450867D01*
X41830046Y-55402314D01*
X41830400Y-55395718D01*
X41830400Y-54317526D01*
X41826949Y-54304650D01*
X41814074Y-54301200D01*
X40296726Y-54301200D01*
X40283850Y-54304650D01*
X40280400Y-54317526D01*
X40280400Y-55834874D01*
X39780400Y-55834874D01*
X39780400Y-54317526D01*
X39776949Y-54304650D01*
X39764074Y-54301200D01*
X38246726Y-54301200D01*
X38233850Y-54304650D01*
X38230400Y-54317526D01*
X38230400Y-55395718D01*
X31652578Y-55395718D01*
X31772495Y-55275801D01*
X31908035Y-55082229D01*
X32007903Y-54868063D01*
X32069063Y-54639808D01*
X32084500Y-54463366D01*
X32084500Y-54051200D01*
X43304851Y-54051200D01*
X43325017Y-54320303D01*
X43326047Y-54324816D01*
X43326048Y-54324822D01*
X43384032Y-54578866D01*
X43385066Y-54583395D01*
X43386762Y-54587718D01*
X43386763Y-54587719D01*
X43386841Y-54587919D01*
X43483657Y-54834598D01*
X43618585Y-55068302D01*
X43786839Y-55279285D01*
X43834515Y-55323522D01*
X43971760Y-55450867D01*
X43984659Y-55462835D01*
X44207626Y-55614851D01*
X44450759Y-55731938D01*
X44455187Y-55733303D01*
X44455190Y-55733305D01*
X44523576Y-55754399D01*
X44708628Y-55811480D01*
X44975471Y-55851700D01*
X45240692Y-55851700D01*
X45245329Y-55851700D01*
X45512172Y-55811480D01*
X45770041Y-55731938D01*
X46013175Y-55614851D01*
X46236141Y-55462835D01*
X46308476Y-55395718D01*
X49457200Y-55395718D01*
X49457553Y-55402314D01*
X49462773Y-55450867D01*
X49466311Y-55465841D01*
X49510747Y-55584977D01*
X49519162Y-55600389D01*
X49594698Y-55701292D01*
X49607107Y-55713701D01*
X49708010Y-55789237D01*
X49723422Y-55797652D01*
X49842558Y-55842088D01*
X49857532Y-55845626D01*
X49906085Y-55850846D01*
X49912682Y-55851200D01*
X50990874Y-55851200D01*
X51003749Y-55847749D01*
X51007200Y-55834874D01*
X51507200Y-55834874D01*
X51510650Y-55847749D01*
X51523526Y-55851200D01*
X52601718Y-55851200D01*
X52608314Y-55850846D01*
X52656867Y-55845626D01*
X52671841Y-55842088D01*
X52790977Y-55797652D01*
X52806389Y-55789237D01*
X52907292Y-55713701D01*
X52919701Y-55701292D01*
X52995237Y-55600389D01*
X53003652Y-55584977D01*
X53048088Y-55465841D01*
X53051626Y-55450867D01*
X53056846Y-55402314D01*
X53057200Y-55395718D01*
X53057200Y-54317526D01*
X53053749Y-54304650D01*
X53040874Y-54301200D01*
X51523526Y-54301200D01*
X51510650Y-54304650D01*
X51507200Y-54317526D01*
X51507200Y-55834874D01*
X51007200Y-55834874D01*
X51007200Y-54317526D01*
X51003749Y-54304650D01*
X50990874Y-54301200D01*
X49473526Y-54301200D01*
X49460650Y-54304650D01*
X49457200Y-54317526D01*
X49457200Y-55395718D01*
X46308476Y-55395718D01*
X46433961Y-55279285D01*
X46602215Y-55068302D01*
X46737143Y-54834598D01*
X46835734Y-54583395D01*
X46895783Y-54320303D01*
X46915949Y-54051200D01*
X54531651Y-54051200D01*
X54551817Y-54320303D01*
X54552847Y-54324816D01*
X54552848Y-54324822D01*
X54610832Y-54578866D01*
X54611866Y-54583395D01*
X54613562Y-54587718D01*
X54613563Y-54587719D01*
X54613641Y-54587919D01*
X54710457Y-54834598D01*
X54845385Y-55068302D01*
X55013639Y-55279285D01*
X55061315Y-55323522D01*
X55198560Y-55450867D01*
X55211459Y-55462835D01*
X55434426Y-55614851D01*
X55677559Y-55731938D01*
X55681987Y-55733303D01*
X55681990Y-55733305D01*
X55750376Y-55754399D01*
X55935428Y-55811480D01*
X56202271Y-55851700D01*
X56467492Y-55851700D01*
X56472129Y-55851700D01*
X56738972Y-55811480D01*
X56996841Y-55731938D01*
X57239975Y-55614851D01*
X57462941Y-55462835D01*
X57535060Y-55395918D01*
X60679000Y-55395918D01*
X60679353Y-55402514D01*
X60684573Y-55451067D01*
X60688111Y-55466041D01*
X60732547Y-55585177D01*
X60740962Y-55600589D01*
X60816498Y-55701492D01*
X60828907Y-55713901D01*
X60929810Y-55789437D01*
X60945222Y-55797852D01*
X61064358Y-55842288D01*
X61079332Y-55845826D01*
X61127885Y-55851046D01*
X61134482Y-55851400D01*
X62212674Y-55851400D01*
X62225549Y-55847949D01*
X62229000Y-55835074D01*
X62729000Y-55835074D01*
X62732450Y-55847949D01*
X62745326Y-55851400D01*
X63823518Y-55851400D01*
X63830114Y-55851046D01*
X63878667Y-55845826D01*
X63893641Y-55842288D01*
X64012777Y-55797852D01*
X64028189Y-55789437D01*
X64129092Y-55713901D01*
X64141501Y-55701492D01*
X64217037Y-55600589D01*
X64225452Y-55585177D01*
X64269888Y-55466041D01*
X64273426Y-55451067D01*
X64278646Y-55402514D01*
X64279000Y-55395918D01*
X64279000Y-54317726D01*
X64275549Y-54304850D01*
X64262674Y-54301400D01*
X62745326Y-54301400D01*
X62732450Y-54304850D01*
X62729000Y-54317726D01*
X62729000Y-55835074D01*
X62229000Y-55835074D01*
X62229000Y-54317726D01*
X62225549Y-54304850D01*
X62212674Y-54301400D01*
X60695326Y-54301400D01*
X60682450Y-54304850D01*
X60679000Y-54317726D01*
X60679000Y-55395918D01*
X57535060Y-55395918D01*
X57660761Y-55279285D01*
X57829015Y-55068302D01*
X57963943Y-54834598D01*
X58062534Y-54583395D01*
X58122583Y-54320303D01*
X58142734Y-54051400D01*
X65753451Y-54051400D01*
X65773617Y-54320503D01*
X65774647Y-54325016D01*
X65774648Y-54325022D01*
X65832632Y-54579066D01*
X65833666Y-54583595D01*
X65835362Y-54587918D01*
X65835363Y-54587919D01*
X65927301Y-54822172D01*
X65932257Y-54834798D01*
X66067185Y-55068502D01*
X66235439Y-55279485D01*
X66352673Y-55388262D01*
X66429637Y-55459675D01*
X66433259Y-55463035D01*
X66437089Y-55465646D01*
X66437090Y-55465647D01*
X66453189Y-55476623D01*
X66656226Y-55615051D01*
X66899359Y-55732138D01*
X66903787Y-55733503D01*
X66903790Y-55733505D01*
X67028293Y-55771909D01*
X67157228Y-55811680D01*
X67424071Y-55851900D01*
X67689292Y-55851900D01*
X67693929Y-55851900D01*
X67960772Y-55811680D01*
X68218641Y-55732138D01*
X68461775Y-55615051D01*
X68684741Y-55463035D01*
X68882561Y-55279485D01*
X69050815Y-55068502D01*
X69090117Y-55000429D01*
X74697601Y-55000429D01*
X74697921Y-55006711D01*
X74707405Y-55099559D01*
X74710223Y-55112722D01*
X74760970Y-55265867D01*
X74767032Y-55278866D01*
X74851490Y-55415794D01*
X74860394Y-55427055D01*
X74974144Y-55540805D01*
X74985405Y-55549709D01*
X75122333Y-55634167D01*
X75135332Y-55640229D01*
X75288474Y-55690975D01*
X75301641Y-55693794D01*
X75394490Y-55703280D01*
X75400768Y-55703600D01*
X75781274Y-55703600D01*
X75794149Y-55700149D01*
X75797600Y-55687274D01*
X75797600Y-54469926D01*
X75794149Y-54457050D01*
X75781274Y-54453600D01*
X74713927Y-54453600D01*
X74701051Y-54457050D01*
X74697601Y-54469926D01*
X74697601Y-55000429D01*
X69090117Y-55000429D01*
X69185743Y-54834798D01*
X69284334Y-54583595D01*
X69344383Y-54320503D01*
X69364549Y-54051400D01*
X69344383Y-53782297D01*
X69284334Y-53519205D01*
X69185743Y-53268002D01*
X69050815Y-53034298D01*
X68882561Y-52823315D01*
X68757076Y-52706882D01*
X68688146Y-52642924D01*
X68688143Y-52642921D01*
X68684741Y-52639765D01*
X68680912Y-52637154D01*
X68680909Y-52637152D01*
X68540293Y-52541282D01*
X68461775Y-52487749D01*
X68457589Y-52485733D01*
X68222820Y-52372674D01*
X68222814Y-52372671D01*
X68218641Y-52370662D01*
X68214219Y-52369298D01*
X68214209Y-52369294D01*
X67965202Y-52292486D01*
X67965196Y-52292484D01*
X67960772Y-52291120D01*
X67956195Y-52290430D01*
X67956186Y-52290428D01*
X67698514Y-52251591D01*
X67698513Y-52251590D01*
X67693929Y-52250900D01*
X67424071Y-52250900D01*
X67419487Y-52251590D01*
X67419485Y-52251591D01*
X67161813Y-52290428D01*
X67161801Y-52290430D01*
X67157228Y-52291120D01*
X67152806Y-52292483D01*
X67152797Y-52292486D01*
X66903790Y-52369294D01*
X66903775Y-52369299D01*
X66899359Y-52370662D01*
X66895185Y-52372671D01*
X66895180Y-52372674D01*
X66660411Y-52485733D01*
X66660404Y-52485736D01*
X66656226Y-52487749D01*
X66652393Y-52490362D01*
X66652390Y-52490364D01*
X66437090Y-52637152D01*
X66437080Y-52637159D01*
X66433259Y-52639765D01*
X66429863Y-52642916D01*
X66429853Y-52642924D01*
X66238843Y-52820156D01*
X66238839Y-52820159D01*
X66235439Y-52823315D01*
X66232549Y-52826937D01*
X66232546Y-52826942D01*
X66070077Y-53030671D01*
X66067185Y-53034298D01*
X66064866Y-53038313D01*
X66064865Y-53038316D01*
X65934578Y-53263981D01*
X65934575Y-53263986D01*
X65932257Y-53268002D01*
X65930563Y-53272316D01*
X65930561Y-53272322D01*
X65835363Y-53514880D01*
X65833666Y-53519205D01*
X65832633Y-53523726D01*
X65832632Y-53523733D01*
X65774648Y-53777777D01*
X65774646Y-53777785D01*
X65773617Y-53782297D01*
X65773270Y-53786916D01*
X65773270Y-53786922D01*
X65757907Y-53991935D01*
X65753451Y-54051400D01*
X58142734Y-54051400D01*
X58142749Y-54051200D01*
X58122806Y-53785074D01*
X60679000Y-53785074D01*
X60682450Y-53797949D01*
X60695326Y-53801400D01*
X62212674Y-53801400D01*
X62225549Y-53797949D01*
X62229000Y-53785074D01*
X62729000Y-53785074D01*
X62732450Y-53797949D01*
X62745326Y-53801400D01*
X64262674Y-53801400D01*
X64275549Y-53797949D01*
X64279000Y-53785074D01*
X64279000Y-52706882D01*
X64278646Y-52700285D01*
X64273426Y-52651732D01*
X64269888Y-52636758D01*
X64225452Y-52517622D01*
X64217037Y-52502210D01*
X64141501Y-52401307D01*
X64129092Y-52388898D01*
X64028189Y-52313362D01*
X64012777Y-52304947D01*
X63893641Y-52260511D01*
X63878667Y-52256973D01*
X63830114Y-52251753D01*
X63823518Y-52251400D01*
X62745326Y-52251400D01*
X62732450Y-52254850D01*
X62729000Y-52267726D01*
X62729000Y-53785074D01*
X62229000Y-53785074D01*
X62229000Y-52267726D01*
X62225549Y-52254850D01*
X62212674Y-52251400D01*
X61134482Y-52251400D01*
X61127885Y-52251753D01*
X61079332Y-52256973D01*
X61064358Y-52260511D01*
X60945222Y-52304947D01*
X60929810Y-52313362D01*
X60828907Y-52388898D01*
X60816498Y-52401307D01*
X60740962Y-52502210D01*
X60732547Y-52517622D01*
X60688111Y-52636758D01*
X60684573Y-52651732D01*
X60679353Y-52700285D01*
X60679000Y-52706882D01*
X60679000Y-53785074D01*
X58122806Y-53785074D01*
X58122583Y-53782097D01*
X58062534Y-53519005D01*
X57963943Y-53267802D01*
X57829015Y-53034098D01*
X57660761Y-52823115D01*
X57561850Y-52731339D01*
X57466346Y-52642724D01*
X57466343Y-52642721D01*
X57462941Y-52639565D01*
X57459112Y-52636954D01*
X57459109Y-52636952D01*
X57284084Y-52517622D01*
X57239975Y-52487549D01*
X57234952Y-52485130D01*
X57001020Y-52372474D01*
X57001014Y-52372471D01*
X56996841Y-52370462D01*
X56992419Y-52369098D01*
X56992409Y-52369094D01*
X56743402Y-52292286D01*
X56743396Y-52292284D01*
X56738972Y-52290920D01*
X56734395Y-52290230D01*
X56734386Y-52290228D01*
X56476714Y-52251391D01*
X56476713Y-52251390D01*
X56472129Y-52250700D01*
X56202271Y-52250700D01*
X56197687Y-52251390D01*
X56197685Y-52251391D01*
X55940013Y-52290228D01*
X55940001Y-52290230D01*
X55935428Y-52290920D01*
X55931006Y-52292283D01*
X55930997Y-52292286D01*
X55681990Y-52369094D01*
X55681975Y-52369099D01*
X55677559Y-52370462D01*
X55673385Y-52372471D01*
X55673380Y-52372474D01*
X55438611Y-52485533D01*
X55438604Y-52485536D01*
X55434426Y-52487549D01*
X55430593Y-52490162D01*
X55430590Y-52490164D01*
X55215290Y-52636952D01*
X55215280Y-52636959D01*
X55211459Y-52639565D01*
X55208063Y-52642716D01*
X55208053Y-52642724D01*
X55017043Y-52819956D01*
X55017039Y-52819959D01*
X55013639Y-52823115D01*
X55010749Y-52826737D01*
X55010746Y-52826742D01*
X54863008Y-53011999D01*
X54845385Y-53034098D01*
X54843066Y-53038113D01*
X54843065Y-53038116D01*
X54712778Y-53263781D01*
X54712775Y-53263786D01*
X54710457Y-53267802D01*
X54708763Y-53272116D01*
X54708761Y-53272122D01*
X54614011Y-53513539D01*
X54611866Y-53519005D01*
X54610833Y-53523526D01*
X54610832Y-53523533D01*
X54552848Y-53777577D01*
X54552846Y-53777585D01*
X54551817Y-53782097D01*
X54551470Y-53786716D01*
X54551470Y-53786722D01*
X54536092Y-53991935D01*
X54531651Y-54051200D01*
X46915949Y-54051200D01*
X46895991Y-53784874D01*
X49457200Y-53784874D01*
X49460650Y-53797749D01*
X49473526Y-53801200D01*
X50990874Y-53801200D01*
X51003749Y-53797749D01*
X51007200Y-53784874D01*
X51507200Y-53784874D01*
X51510650Y-53797749D01*
X51523526Y-53801200D01*
X53040874Y-53801200D01*
X53053749Y-53797749D01*
X53057200Y-53784874D01*
X53057200Y-52706682D01*
X53056846Y-52700085D01*
X53051626Y-52651532D01*
X53048088Y-52636558D01*
X53003652Y-52517422D01*
X52995237Y-52502010D01*
X52919701Y-52401107D01*
X52907292Y-52388698D01*
X52806389Y-52313162D01*
X52790977Y-52304747D01*
X52671841Y-52260311D01*
X52656867Y-52256773D01*
X52608314Y-52251553D01*
X52601718Y-52251200D01*
X51523526Y-52251200D01*
X51510650Y-52254650D01*
X51507200Y-52267526D01*
X51507200Y-53784874D01*
X51007200Y-53784874D01*
X51007200Y-52267526D01*
X51003749Y-52254650D01*
X50990874Y-52251200D01*
X49912682Y-52251200D01*
X49906085Y-52251553D01*
X49857532Y-52256773D01*
X49842558Y-52260311D01*
X49723422Y-52304747D01*
X49708010Y-52313162D01*
X49607107Y-52388698D01*
X49594698Y-52401107D01*
X49519162Y-52502010D01*
X49510747Y-52517422D01*
X49466311Y-52636558D01*
X49462773Y-52651532D01*
X49457553Y-52700085D01*
X49457200Y-52706682D01*
X49457200Y-53784874D01*
X46895991Y-53784874D01*
X46895783Y-53782097D01*
X46835734Y-53519005D01*
X46737143Y-53267802D01*
X46602215Y-53034098D01*
X46433961Y-52823115D01*
X46335050Y-52731339D01*
X46239546Y-52642724D01*
X46239543Y-52642721D01*
X46236141Y-52639565D01*
X46232312Y-52636954D01*
X46232309Y-52636952D01*
X46057284Y-52517622D01*
X46013175Y-52487549D01*
X46008152Y-52485130D01*
X45774220Y-52372474D01*
X45774214Y-52372471D01*
X45770041Y-52370462D01*
X45765619Y-52369098D01*
X45765609Y-52369094D01*
X45516602Y-52292286D01*
X45516596Y-52292284D01*
X45512172Y-52290920D01*
X45507595Y-52290230D01*
X45507586Y-52290228D01*
X45249914Y-52251391D01*
X45249913Y-52251390D01*
X45245329Y-52250700D01*
X44975471Y-52250700D01*
X44970887Y-52251390D01*
X44970885Y-52251391D01*
X44713213Y-52290228D01*
X44713201Y-52290230D01*
X44708628Y-52290920D01*
X44704206Y-52292283D01*
X44704197Y-52292286D01*
X44455190Y-52369094D01*
X44455175Y-52369099D01*
X44450759Y-52370462D01*
X44446585Y-52372471D01*
X44446580Y-52372474D01*
X44211811Y-52485533D01*
X44211804Y-52485536D01*
X44207626Y-52487549D01*
X44203793Y-52490162D01*
X44203790Y-52490164D01*
X43988490Y-52636952D01*
X43988480Y-52636959D01*
X43984659Y-52639565D01*
X43981263Y-52642716D01*
X43981253Y-52642724D01*
X43790243Y-52819956D01*
X43790239Y-52819959D01*
X43786839Y-52823115D01*
X43783949Y-52826737D01*
X43783946Y-52826742D01*
X43636208Y-53011999D01*
X43618585Y-53034098D01*
X43616266Y-53038113D01*
X43616265Y-53038116D01*
X43485978Y-53263781D01*
X43485975Y-53263786D01*
X43483657Y-53267802D01*
X43481963Y-53272116D01*
X43481961Y-53272122D01*
X43387211Y-53513539D01*
X43385066Y-53519005D01*
X43384033Y-53523526D01*
X43384032Y-53523533D01*
X43326048Y-53777577D01*
X43326046Y-53777585D01*
X43325017Y-53782097D01*
X43324670Y-53786716D01*
X43324670Y-53786722D01*
X43309292Y-53991935D01*
X43304851Y-54051200D01*
X32084500Y-54051200D01*
X32084500Y-54045434D01*
X32069063Y-53868992D01*
X32046524Y-53784874D01*
X38230400Y-53784874D01*
X38233850Y-53797749D01*
X38246726Y-53801200D01*
X39764074Y-53801200D01*
X39776949Y-53797749D01*
X39780400Y-53784874D01*
X40280400Y-53784874D01*
X40283850Y-53797749D01*
X40296726Y-53801200D01*
X41814074Y-53801200D01*
X41826949Y-53797749D01*
X41830400Y-53784874D01*
X41830400Y-52706682D01*
X41830046Y-52700085D01*
X41824826Y-52651532D01*
X41821288Y-52636558D01*
X41776852Y-52517422D01*
X41768437Y-52502010D01*
X41692901Y-52401107D01*
X41680492Y-52388698D01*
X41579589Y-52313162D01*
X41564177Y-52304747D01*
X41445041Y-52260311D01*
X41430067Y-52256773D01*
X41381514Y-52251553D01*
X41374918Y-52251200D01*
X40296726Y-52251200D01*
X40283850Y-52254650D01*
X40280400Y-52267526D01*
X40280400Y-53784874D01*
X39780400Y-53784874D01*
X39780400Y-52267526D01*
X39776949Y-52254650D01*
X39764074Y-52251200D01*
X38685882Y-52251200D01*
X38679285Y-52251553D01*
X38630732Y-52256773D01*
X38615758Y-52260311D01*
X38496622Y-52304747D01*
X38481210Y-52313162D01*
X38380307Y-52388698D01*
X38367898Y-52401107D01*
X38292362Y-52502010D01*
X38283947Y-52517422D01*
X38239511Y-52636558D01*
X38235973Y-52651532D01*
X38230753Y-52700085D01*
X38230400Y-52706682D01*
X38230400Y-53784874D01*
X32046524Y-53784874D01*
X32007903Y-53640737D01*
X31908035Y-53426571D01*
X31772495Y-53232999D01*
X31605401Y-53065905D01*
X31600970Y-53062802D01*
X31600966Y-53062799D01*
X31412376Y-52930747D01*
X31373511Y-52886429D01*
X31359500Y-52829172D01*
X31359500Y-48367252D01*
X31368939Y-48319799D01*
X31395819Y-48279571D01*
X33746516Y-45928874D01*
X36110511Y-43564878D01*
X36118681Y-43557444D01*
X36125077Y-43553386D01*
X36171118Y-43504356D01*
X36173735Y-43501654D01*
X36193320Y-43482071D01*
X36195785Y-43478892D01*
X36203367Y-43470016D01*
X36233262Y-43438182D01*
X36242913Y-43420623D01*
X36253590Y-43404370D01*
X36265873Y-43388536D01*
X36283218Y-43348452D01*
X36288351Y-43337971D01*
X36309397Y-43299692D01*
X36314379Y-43280284D01*
X36320682Y-43261876D01*
X36328637Y-43243496D01*
X36335471Y-43200344D01*
X36337833Y-43188938D01*
X36348700Y-43146619D01*
X36348700Y-43126583D01*
X36350227Y-43107185D01*
X36352139Y-43095113D01*
X36352138Y-43095113D01*
X36353360Y-43087404D01*
X36349250Y-43043924D01*
X36348700Y-43032255D01*
X36348700Y-42603831D01*
X36363295Y-42545465D01*
X36403646Y-42500838D01*
X36460252Y-42480457D01*
X36519789Y-42489120D01*
X36561736Y-42519998D01*
X36562414Y-42519277D01*
X36611423Y-42565300D01*
X36614220Y-42568011D01*
X36633729Y-42587520D01*
X36636909Y-42589987D01*
X36645771Y-42597555D01*
X36659080Y-42610054D01*
X36671932Y-42622123D01*
X36671934Y-42622124D01*
X36677618Y-42627462D01*
X36684451Y-42631218D01*
X36684452Y-42631219D01*
X36695173Y-42637113D01*
X36711434Y-42647794D01*
X36727264Y-42660073D01*
X36767354Y-42677421D01*
X36777831Y-42682554D01*
X36816108Y-42703597D01*
X36833157Y-42707974D01*
X36835505Y-42708577D01*
X36853919Y-42714881D01*
X36872304Y-42722838D01*
X36915465Y-42729673D01*
X36926864Y-42732034D01*
X36969181Y-42742900D01*
X36989217Y-42742900D01*
X37008602Y-42744425D01*
X37028396Y-42747560D01*
X37066476Y-42743960D01*
X37071876Y-42743450D01*
X37083545Y-42742900D01*
X43860025Y-42742900D01*
X43871080Y-42743421D01*
X43878467Y-42745073D01*
X43945672Y-42742961D01*
X43949568Y-42742900D01*
X43973248Y-42742900D01*
X43977150Y-42742900D01*
X43981113Y-42742399D01*
X43992763Y-42741480D01*
X44036427Y-42740109D01*
X44055661Y-42734519D01*
X44074717Y-42730574D01*
X44074844Y-42730558D01*
X44094592Y-42728064D01*
X44135195Y-42711987D01*
X44146250Y-42708202D01*
X44188190Y-42696018D01*
X44205429Y-42685822D01*
X44222903Y-42677262D01*
X44234274Y-42672760D01*
X44234276Y-42672758D01*
X44241532Y-42669886D01*
X44276869Y-42644211D01*
X44286624Y-42637803D01*
X44324220Y-42615570D01*
X44338384Y-42601405D01*
X44353179Y-42588768D01*
X44369387Y-42576994D01*
X44397228Y-42543338D01*
X44405079Y-42534709D01*
X44688851Y-42250937D01*
X44744437Y-42218845D01*
X44808624Y-42218845D01*
X45027392Y-42277463D01*
X45262800Y-42298059D01*
X45498208Y-42277463D01*
X45716976Y-42218845D01*
X45781161Y-42218845D01*
X45836748Y-42250939D01*
X46090507Y-42504698D01*
X46097959Y-42512887D01*
X46102014Y-42519277D01*
X46129901Y-42545465D01*
X46151023Y-42565300D01*
X46153820Y-42568011D01*
X46173329Y-42587520D01*
X46176509Y-42589987D01*
X46185371Y-42597555D01*
X46198680Y-42610054D01*
X46211532Y-42622123D01*
X46211534Y-42622124D01*
X46217218Y-42627462D01*
X46224051Y-42631218D01*
X46224052Y-42631219D01*
X46234773Y-42637113D01*
X46251034Y-42647794D01*
X46266864Y-42660073D01*
X46306954Y-42677421D01*
X46317431Y-42682554D01*
X46355708Y-42703597D01*
X46372757Y-42707974D01*
X46375105Y-42708577D01*
X46393519Y-42714881D01*
X46411904Y-42722838D01*
X46455065Y-42729673D01*
X46466464Y-42732034D01*
X46508781Y-42742900D01*
X46528817Y-42742900D01*
X46548202Y-42744425D01*
X46567996Y-42747560D01*
X46606076Y-42743960D01*
X46611476Y-42743450D01*
X46623145Y-42742900D01*
X52851625Y-42742900D01*
X52862680Y-42743421D01*
X52870067Y-42745073D01*
X52937272Y-42742961D01*
X52941168Y-42742900D01*
X52964848Y-42742900D01*
X52968750Y-42742900D01*
X52972713Y-42742399D01*
X52984363Y-42741480D01*
X53028027Y-42740109D01*
X53047261Y-42734519D01*
X53066317Y-42730574D01*
X53066444Y-42730558D01*
X53086192Y-42728064D01*
X53126795Y-42711987D01*
X53137850Y-42708202D01*
X53179790Y-42696018D01*
X53197029Y-42685822D01*
X53214503Y-42677262D01*
X53225874Y-42672760D01*
X53225876Y-42672758D01*
X53233132Y-42669886D01*
X53268469Y-42644211D01*
X53278224Y-42637803D01*
X53315820Y-42615570D01*
X53329984Y-42601405D01*
X53344779Y-42588768D01*
X53360987Y-42576994D01*
X53388828Y-42543338D01*
X53396679Y-42534709D01*
X53680451Y-42250937D01*
X53736037Y-42218845D01*
X53800224Y-42218845D01*
X54018992Y-42277463D01*
X54254400Y-42298059D01*
X54489808Y-42277463D01*
X54718063Y-42216303D01*
X54932229Y-42116435D01*
X55125801Y-41980895D01*
X55292895Y-41813801D01*
X55428435Y-41620229D01*
X55442868Y-41589278D01*
X59203100Y-41589278D01*
X59203101Y-41592408D01*
X59203420Y-41595540D01*
X59203421Y-41595541D01*
X59212912Y-41688461D01*
X59212913Y-41688469D01*
X59213601Y-41695197D01*
X59215729Y-41701619D01*
X59215730Y-41701623D01*
X59264572Y-41849017D01*
X59268786Y-41861734D01*
X59272577Y-41867880D01*
X59357097Y-42004911D01*
X59357100Y-42004915D01*
X59360888Y-42011056D01*
X59484944Y-42135112D01*
X59491085Y-42138900D01*
X59491088Y-42138902D01*
X59548158Y-42174102D01*
X59634266Y-42227214D01*
X59800803Y-42282399D01*
X59903591Y-42292900D01*
X61203608Y-42292899D01*
X61306397Y-42282399D01*
X61472934Y-42227214D01*
X61622256Y-42135112D01*
X61746312Y-42011056D01*
X61838414Y-41861734D01*
X61839190Y-41862212D01*
X61871486Y-41821964D01*
X61925441Y-41798217D01*
X61984266Y-41802070D01*
X62034663Y-41832651D01*
X62178690Y-41976678D01*
X62186956Y-41983615D01*
X62371591Y-42112898D01*
X62380923Y-42118286D01*
X62585202Y-42213543D01*
X62595336Y-42217231D01*
X62789819Y-42269343D01*
X62801048Y-42269711D01*
X62803600Y-42258769D01*
X63303600Y-42258769D01*
X63306151Y-42269711D01*
X63317380Y-42269343D01*
X63511863Y-42217231D01*
X63521997Y-42213543D01*
X63726267Y-42118289D01*
X63735617Y-42112891D01*
X63920242Y-41983615D01*
X63928507Y-41976680D01*
X64087880Y-41817307D01*
X64094815Y-41809042D01*
X64224091Y-41624417D01*
X64229489Y-41615067D01*
X64324743Y-41410797D01*
X64328431Y-41400663D01*
X64386766Y-41182953D01*
X64388641Y-41172322D01*
X64398505Y-41059578D01*
X64395932Y-41046134D01*
X64382765Y-41042400D01*
X63319926Y-41042400D01*
X63307050Y-41045850D01*
X63303600Y-41058726D01*
X63303600Y-42258769D01*
X62803600Y-42258769D01*
X62803600Y-40526074D01*
X63303600Y-40526074D01*
X63307050Y-40538949D01*
X63319926Y-40542400D01*
X64382765Y-40542400D01*
X64395932Y-40538665D01*
X64398505Y-40525221D01*
X64388641Y-40412477D01*
X64386766Y-40401846D01*
X64328431Y-40184136D01*
X64324743Y-40174002D01*
X64229489Y-39969732D01*
X64224091Y-39960382D01*
X64094815Y-39775757D01*
X64087880Y-39767492D01*
X63928509Y-39608121D01*
X63920243Y-39601184D01*
X63735608Y-39471901D01*
X63726276Y-39466513D01*
X63521997Y-39371256D01*
X63511863Y-39367568D01*
X63317380Y-39315456D01*
X63306151Y-39315088D01*
X63303600Y-39326031D01*
X63303600Y-40526074D01*
X62803600Y-40526074D01*
X62803600Y-39326031D01*
X62801048Y-39315088D01*
X62789819Y-39315456D01*
X62595336Y-39367568D01*
X62585202Y-39371256D01*
X62380932Y-39466510D01*
X62371582Y-39471908D01*
X62186957Y-39601184D01*
X62178698Y-39608114D01*
X62034663Y-39752149D01*
X61984267Y-39782729D01*
X61925445Y-39786582D01*
X61871490Y-39762838D01*
X61839189Y-39722587D01*
X61838414Y-39723066D01*
X61750102Y-39579888D01*
X61750100Y-39579885D01*
X61746312Y-39573744D01*
X61622256Y-39449688D01*
X61616115Y-39445900D01*
X61616111Y-39445897D01*
X61479080Y-39361377D01*
X61472934Y-39357586D01*
X61388710Y-39329677D01*
X61312825Y-39304531D01*
X61312824Y-39304530D01*
X61306397Y-39302401D01*
X61299664Y-39301713D01*
X61299659Y-39301712D01*
X61206740Y-39292219D01*
X61206723Y-39292218D01*
X61203609Y-39291900D01*
X61200460Y-39291900D01*
X59906740Y-39291900D01*
X59906720Y-39291900D01*
X59903592Y-39291901D01*
X59900460Y-39292220D01*
X59900458Y-39292221D01*
X59807538Y-39301712D01*
X59807528Y-39301713D01*
X59800803Y-39302401D01*
X59794381Y-39304528D01*
X59794376Y-39304530D01*
X59641121Y-39355314D01*
X59641117Y-39355315D01*
X59634266Y-39357586D01*
X59628122Y-39361375D01*
X59628119Y-39361377D01*
X59491088Y-39445897D01*
X59491080Y-39445903D01*
X59484944Y-39449688D01*
X59479842Y-39454789D01*
X59479838Y-39454793D01*
X59365993Y-39568638D01*
X59365989Y-39568642D01*
X59360888Y-39573744D01*
X59357103Y-39579880D01*
X59357097Y-39579888D01*
X59272577Y-39716919D01*
X59268786Y-39723066D01*
X59266515Y-39729917D01*
X59266514Y-39729921D01*
X59215731Y-39883174D01*
X59213601Y-39889603D01*
X59212913Y-39896333D01*
X59212912Y-39896340D01*
X59203419Y-39989259D01*
X59203418Y-39989277D01*
X59203100Y-39992391D01*
X59203100Y-39995538D01*
X59203100Y-39995539D01*
X59203100Y-41589259D01*
X59203100Y-41589278D01*
X55442868Y-41589278D01*
X55528303Y-41406063D01*
X55589463Y-41177808D01*
X55604900Y-41001366D01*
X55604900Y-40583434D01*
X55589463Y-40406992D01*
X55528303Y-40178737D01*
X55428435Y-39964571D01*
X55292895Y-39770999D01*
X55125801Y-39603905D01*
X55121370Y-39600802D01*
X55121366Y-39600799D01*
X54932776Y-39468747D01*
X54893911Y-39424429D01*
X54879900Y-39367172D01*
X54879900Y-39172452D01*
X54889339Y-39124999D01*
X54916219Y-39084771D01*
X55391572Y-38609419D01*
X55431800Y-38582539D01*
X55479253Y-38573100D01*
X65646100Y-38573100D01*
X65708100Y-38589713D01*
X65753487Y-38635100D01*
X65770100Y-38697100D01*
X65770100Y-41973825D01*
X65769578Y-41984880D01*
X65767927Y-41992267D01*
X65768171Y-42000053D01*
X65768171Y-42000061D01*
X65770039Y-42059473D01*
X65770100Y-42063368D01*
X65770100Y-42090950D01*
X65770588Y-42094819D01*
X65770589Y-42094825D01*
X65770604Y-42094943D01*
X65771518Y-42106566D01*
X65772645Y-42142430D01*
X65772646Y-42142437D01*
X65772891Y-42150227D01*
X65775067Y-42157719D01*
X65775068Y-42157721D01*
X65778479Y-42169462D01*
X65782425Y-42188515D01*
X65784936Y-42208392D01*
X65787806Y-42215642D01*
X65787808Y-42215648D01*
X65801014Y-42249004D01*
X65804797Y-42260051D01*
X65816982Y-42301990D01*
X65820953Y-42308705D01*
X65820954Y-42308707D01*
X65827181Y-42319237D01*
X65835736Y-42336699D01*
X65840242Y-42348080D01*
X65840243Y-42348083D01*
X65843114Y-42355332D01*
X65865040Y-42385512D01*
X65868781Y-42390660D01*
X65875193Y-42400422D01*
X65893456Y-42431302D01*
X65893459Y-42431307D01*
X65897430Y-42438020D01*
X65902945Y-42443535D01*
X65911590Y-42452180D01*
X65924226Y-42466974D01*
X65931419Y-42476875D01*
X65931423Y-42476879D01*
X65936006Y-42483187D01*
X65942015Y-42488158D01*
X65942016Y-42488159D01*
X65969658Y-42511026D01*
X65978299Y-42518889D01*
X75951328Y-52491919D01*
X75981578Y-52541282D01*
X75986120Y-52598998D01*
X75963965Y-52652485D01*
X75919942Y-52690085D01*
X75863647Y-52703600D01*
X75400771Y-52703600D01*
X75394488Y-52703921D01*
X75301640Y-52713405D01*
X75288477Y-52716223D01*
X75135332Y-52766970D01*
X75122333Y-52773032D01*
X74985405Y-52857490D01*
X74974144Y-52866394D01*
X74860394Y-52980144D01*
X74851490Y-52991405D01*
X74767032Y-53128333D01*
X74760970Y-53141332D01*
X74710224Y-53294474D01*
X74707405Y-53307641D01*
X74697919Y-53400490D01*
X74697600Y-53406768D01*
X74697600Y-53937274D01*
X74701050Y-53950149D01*
X74713926Y-53953600D01*
X76173600Y-53953600D01*
X76235600Y-53970213D01*
X76280987Y-54015600D01*
X76297600Y-54077600D01*
X76297600Y-55687273D01*
X76301050Y-55700148D01*
X76313926Y-55703599D01*
X76694429Y-55703599D01*
X76700711Y-55703278D01*
X76793559Y-55693794D01*
X76806722Y-55690976D01*
X76959867Y-55640229D01*
X76972866Y-55634167D01*
X77109794Y-55549709D01*
X77121055Y-55540805D01*
X77234805Y-55427055D01*
X77243709Y-55415794D01*
X77331958Y-55272722D01*
X77332805Y-55273244D01*
X77364886Y-55233267D01*
X77418841Y-55209522D01*
X77477664Y-55213375D01*
X77528060Y-55243956D01*
X77676199Y-55392095D01*
X77680631Y-55395198D01*
X77680633Y-55395200D01*
X77790992Y-55472474D01*
X77869770Y-55527635D01*
X77874670Y-55529920D01*
X77874672Y-55529921D01*
X77898013Y-55540805D01*
X78083937Y-55627503D01*
X78089167Y-55628904D01*
X78089169Y-55628905D01*
X78131219Y-55640172D01*
X78312192Y-55688663D01*
X78547600Y-55709259D01*
X78783008Y-55688663D01*
X79011263Y-55627503D01*
X79225429Y-55527635D01*
X79419001Y-55392095D01*
X79586095Y-55225001D01*
X79721635Y-55031429D01*
X79736091Y-55000429D01*
X84197201Y-55000429D01*
X84197521Y-55006711D01*
X84207005Y-55099559D01*
X84209823Y-55112722D01*
X84260570Y-55265867D01*
X84266632Y-55278866D01*
X84351090Y-55415794D01*
X84359994Y-55427055D01*
X84473744Y-55540805D01*
X84485005Y-55549709D01*
X84621933Y-55634167D01*
X84634932Y-55640229D01*
X84788074Y-55690975D01*
X84801241Y-55693794D01*
X84894090Y-55703280D01*
X84900368Y-55703600D01*
X85280874Y-55703600D01*
X85293749Y-55700149D01*
X85297200Y-55687274D01*
X85297200Y-54469926D01*
X85293749Y-54457050D01*
X85280874Y-54453600D01*
X84213527Y-54453600D01*
X84200651Y-54457050D01*
X84197201Y-54469926D01*
X84197201Y-55000429D01*
X79736091Y-55000429D01*
X79821503Y-54817263D01*
X79882663Y-54589008D01*
X79898100Y-54412566D01*
X79898100Y-53994634D01*
X79882663Y-53818192D01*
X79884296Y-53818049D01*
X79887559Y-53768057D01*
X79918142Y-53717647D01*
X80095374Y-53540416D01*
X80135601Y-53513539D01*
X80183053Y-53504100D01*
X84073200Y-53504100D01*
X84135200Y-53520713D01*
X84180587Y-53566100D01*
X84197200Y-53628100D01*
X84197200Y-53937274D01*
X84200650Y-53950149D01*
X84213526Y-53953600D01*
X85673200Y-53953600D01*
X85735200Y-53970213D01*
X85780587Y-54015600D01*
X85797200Y-54077600D01*
X85797200Y-55687273D01*
X85800650Y-55700148D01*
X85813526Y-55703599D01*
X86194029Y-55703599D01*
X86200311Y-55703278D01*
X86293159Y-55693794D01*
X86306322Y-55690976D01*
X86459467Y-55640229D01*
X86472466Y-55634167D01*
X86609394Y-55549709D01*
X86620655Y-55540805D01*
X86734405Y-55427055D01*
X86743309Y-55415794D01*
X86831558Y-55272722D01*
X86832405Y-55273244D01*
X86864486Y-55233267D01*
X86918441Y-55209522D01*
X86977264Y-55213375D01*
X87027660Y-55243956D01*
X87175799Y-55392095D01*
X87180231Y-55395198D01*
X87180233Y-55395200D01*
X87290592Y-55472474D01*
X87369370Y-55527635D01*
X87374270Y-55529920D01*
X87374272Y-55529921D01*
X87397613Y-55540805D01*
X87583537Y-55627503D01*
X87588767Y-55628904D01*
X87588769Y-55628905D01*
X87630819Y-55640172D01*
X87811792Y-55688663D01*
X88047200Y-55709259D01*
X88282608Y-55688663D01*
X88510863Y-55627503D01*
X88725029Y-55527635D01*
X88918601Y-55392095D01*
X89085695Y-55225001D01*
X89221235Y-55031429D01*
X89321103Y-54817263D01*
X89382263Y-54589008D01*
X89397700Y-54412566D01*
X89397700Y-53994634D01*
X89382263Y-53818192D01*
X89321103Y-53589937D01*
X89221235Y-53375771D01*
X89085695Y-53182199D01*
X88918601Y-53015105D01*
X88914170Y-53012002D01*
X88914166Y-53011999D01*
X88729459Y-52882666D01*
X88729457Y-52882664D01*
X88725030Y-52879565D01*
X88720133Y-52877281D01*
X88720127Y-52877278D01*
X88515772Y-52781986D01*
X88515770Y-52781985D01*
X88510863Y-52779697D01*
X88505638Y-52778297D01*
X88505630Y-52778294D01*
X88287834Y-52719937D01*
X88287830Y-52719936D01*
X88282608Y-52718537D01*
X88277220Y-52718065D01*
X88277217Y-52718065D01*
X88052595Y-52698413D01*
X88047200Y-52697941D01*
X88041805Y-52698413D01*
X87817182Y-52718065D01*
X87817177Y-52718065D01*
X87811792Y-52718537D01*
X87806571Y-52719935D01*
X87806565Y-52719937D01*
X87593025Y-52777154D01*
X87528838Y-52777154D01*
X87473251Y-52745060D01*
X87219486Y-52491295D01*
X87212042Y-52483114D01*
X87207986Y-52476723D01*
X87158975Y-52430698D01*
X87156178Y-52427987D01*
X87139427Y-52411236D01*
X87136671Y-52408480D01*
X87133490Y-52406012D01*
X87124614Y-52398430D01*
X87098469Y-52373878D01*
X87098467Y-52373876D01*
X87092782Y-52368538D01*
X87085949Y-52364782D01*
X87085943Y-52364777D01*
X87075225Y-52358885D01*
X87058966Y-52348206D01*
X87049295Y-52340704D01*
X87049292Y-52340702D01*
X87043136Y-52335927D01*
X87035979Y-52332829D01*
X87035976Y-52332828D01*
X87003049Y-52318578D01*
X86992563Y-52313441D01*
X86961132Y-52296162D01*
X86961123Y-52296158D01*
X86954292Y-52292403D01*
X86946735Y-52290462D01*
X86946731Y-52290461D01*
X86934888Y-52287420D01*
X86916484Y-52281119D01*
X86905257Y-52276260D01*
X86905250Y-52276258D01*
X86898096Y-52273162D01*
X86890392Y-52271941D01*
X86890390Y-52271941D01*
X86854959Y-52266329D01*
X86843524Y-52263961D01*
X86808771Y-52255038D01*
X86808763Y-52255037D01*
X86801219Y-52253100D01*
X86793423Y-52253100D01*
X86781183Y-52253100D01*
X86761797Y-52251574D01*
X86742004Y-52248440D01*
X86734238Y-52249174D01*
X86734235Y-52249174D01*
X86698524Y-52252550D01*
X86686855Y-52253100D01*
X79950375Y-52253100D01*
X79939319Y-52252578D01*
X79931933Y-52250927D01*
X79924145Y-52251171D01*
X79924138Y-52251171D01*
X79864727Y-52253039D01*
X79860832Y-52253100D01*
X79833250Y-52253100D01*
X79829405Y-52253585D01*
X79829380Y-52253587D01*
X79829253Y-52253604D01*
X79817634Y-52254518D01*
X79781772Y-52255645D01*
X79781765Y-52255646D01*
X79773973Y-52255891D01*
X79766488Y-52258065D01*
X79766472Y-52258068D01*
X79754726Y-52261481D01*
X79735683Y-52265425D01*
X79723549Y-52266958D01*
X79723548Y-52266958D01*
X79715808Y-52267936D01*
X79708558Y-52270805D01*
X79708551Y-52270808D01*
X79675198Y-52284013D01*
X79664154Y-52287794D01*
X79629701Y-52297804D01*
X79629690Y-52297808D01*
X79622210Y-52299982D01*
X79615498Y-52303951D01*
X79615496Y-52303952D01*
X79604964Y-52310180D01*
X79587504Y-52318734D01*
X79576119Y-52323242D01*
X79576113Y-52323244D01*
X79568868Y-52326114D01*
X79562563Y-52330694D01*
X79562555Y-52330699D01*
X79533532Y-52351785D01*
X79523774Y-52358195D01*
X79492896Y-52376457D01*
X79492890Y-52376461D01*
X79486180Y-52380430D01*
X79480667Y-52385941D01*
X79480660Y-52385948D01*
X79472010Y-52394598D01*
X79457227Y-52407224D01*
X79447326Y-52414417D01*
X79447316Y-52414426D01*
X79441013Y-52419006D01*
X79436044Y-52425011D01*
X79436041Y-52425015D01*
X79413172Y-52452659D01*
X79405311Y-52461297D01*
X79121547Y-52745060D01*
X79065960Y-52777154D01*
X79001773Y-52777154D01*
X78788234Y-52719937D01*
X78788230Y-52719936D01*
X78783008Y-52718537D01*
X78777620Y-52718065D01*
X78777617Y-52718065D01*
X78552995Y-52698413D01*
X78547600Y-52697941D01*
X78542205Y-52698413D01*
X78317582Y-52718065D01*
X78317577Y-52718065D01*
X78312192Y-52718537D01*
X78306971Y-52719935D01*
X78306965Y-52719937D01*
X78093425Y-52777154D01*
X78029238Y-52777154D01*
X77973651Y-52745060D01*
X70718309Y-45489718D01*
X90605200Y-45489718D01*
X90605553Y-45496314D01*
X90610773Y-45544867D01*
X90614311Y-45559841D01*
X90658747Y-45678977D01*
X90667162Y-45694389D01*
X90742698Y-45795292D01*
X90755107Y-45807701D01*
X90856010Y-45883237D01*
X90871422Y-45891652D01*
X90990558Y-45936088D01*
X91005532Y-45939626D01*
X91054085Y-45944846D01*
X91060682Y-45945200D01*
X92138874Y-45945200D01*
X92151749Y-45941749D01*
X92155200Y-45928874D01*
X92655200Y-45928874D01*
X92658650Y-45941749D01*
X92671526Y-45945200D01*
X93749718Y-45945200D01*
X93756314Y-45944846D01*
X93804867Y-45939626D01*
X93819841Y-45936088D01*
X93938977Y-45891652D01*
X93954389Y-45883237D01*
X94055292Y-45807701D01*
X94067701Y-45795292D01*
X94143237Y-45694389D01*
X94151652Y-45678977D01*
X94196088Y-45559841D01*
X94199626Y-45544867D01*
X94204846Y-45496314D01*
X94205200Y-45489718D01*
X94205200Y-44411526D01*
X94201749Y-44398650D01*
X94188874Y-44395200D01*
X92671526Y-44395200D01*
X92658650Y-44398650D01*
X92655200Y-44411526D01*
X92655200Y-45928874D01*
X92155200Y-45928874D01*
X92155200Y-44411526D01*
X92151749Y-44398650D01*
X92138874Y-44395200D01*
X90621526Y-44395200D01*
X90608650Y-44398650D01*
X90605200Y-44411526D01*
X90605200Y-45489718D01*
X70718309Y-45489718D01*
X69107465Y-43878874D01*
X90605200Y-43878874D01*
X90608650Y-43891749D01*
X90621526Y-43895200D01*
X92138874Y-43895200D01*
X92151749Y-43891749D01*
X92155200Y-43878874D01*
X92655200Y-43878874D01*
X92658650Y-43891749D01*
X92671526Y-43895200D01*
X94188874Y-43895200D01*
X94201749Y-43891749D01*
X94205200Y-43878874D01*
X94205200Y-42800682D01*
X94204846Y-42794085D01*
X94199626Y-42745532D01*
X94196088Y-42730558D01*
X94151652Y-42611422D01*
X94143237Y-42596010D01*
X94067701Y-42495107D01*
X94055292Y-42482698D01*
X93954389Y-42407162D01*
X93938977Y-42398747D01*
X93819841Y-42354311D01*
X93804867Y-42350773D01*
X93756314Y-42345553D01*
X93749718Y-42345200D01*
X92671526Y-42345200D01*
X92658650Y-42348650D01*
X92655200Y-42361526D01*
X92655200Y-43878874D01*
X92155200Y-43878874D01*
X92155200Y-42361526D01*
X92151749Y-42348650D01*
X92138874Y-42345200D01*
X91060682Y-42345200D01*
X91054085Y-42345553D01*
X91005532Y-42350773D01*
X90990558Y-42354311D01*
X90871422Y-42398747D01*
X90856010Y-42407162D01*
X90755107Y-42482698D01*
X90742698Y-42495107D01*
X90667162Y-42596010D01*
X90658747Y-42611422D01*
X90614311Y-42730558D01*
X90610773Y-42745532D01*
X90605553Y-42794085D01*
X90605200Y-42800682D01*
X90605200Y-43878874D01*
X69107465Y-43878874D01*
X67057419Y-41828828D01*
X67030539Y-41788600D01*
X67021100Y-41741147D01*
X67021100Y-41589278D01*
X68042300Y-41589278D01*
X68042301Y-41592408D01*
X68042620Y-41595540D01*
X68042621Y-41595541D01*
X68052112Y-41688461D01*
X68052113Y-41688469D01*
X68052801Y-41695197D01*
X68054929Y-41701619D01*
X68054930Y-41701623D01*
X68103772Y-41849017D01*
X68107986Y-41861734D01*
X68111777Y-41867880D01*
X68196297Y-42004911D01*
X68196300Y-42004915D01*
X68200088Y-42011056D01*
X68324144Y-42135112D01*
X68330285Y-42138900D01*
X68330288Y-42138902D01*
X68387358Y-42174102D01*
X68473466Y-42227214D01*
X68640003Y-42282399D01*
X68742791Y-42292900D01*
X70042808Y-42292899D01*
X70145597Y-42282399D01*
X70312134Y-42227214D01*
X70461456Y-42135112D01*
X70585512Y-42011056D01*
X70677614Y-41861734D01*
X70678390Y-41862212D01*
X70710686Y-41821964D01*
X70764641Y-41798217D01*
X70823466Y-41802070D01*
X70873863Y-41832651D01*
X71017890Y-41976678D01*
X71026156Y-41983615D01*
X71210791Y-42112898D01*
X71220123Y-42118286D01*
X71424402Y-42213543D01*
X71434536Y-42217231D01*
X71629019Y-42269343D01*
X71640248Y-42269711D01*
X71642800Y-42258769D01*
X72142800Y-42258769D01*
X72145351Y-42269711D01*
X72156580Y-42269343D01*
X72351063Y-42217231D01*
X72361197Y-42213543D01*
X72565467Y-42118289D01*
X72574817Y-42112891D01*
X72759442Y-41983615D01*
X72767707Y-41976680D01*
X72927080Y-41817307D01*
X72934015Y-41809042D01*
X73052325Y-41640078D01*
X76932300Y-41640078D01*
X76932301Y-41643208D01*
X76932620Y-41646340D01*
X76932621Y-41646341D01*
X76942112Y-41739261D01*
X76942113Y-41739269D01*
X76942801Y-41745997D01*
X76944929Y-41752419D01*
X76944930Y-41752423D01*
X76986637Y-41878286D01*
X76997986Y-41912534D01*
X77001777Y-41918680D01*
X77086297Y-42055711D01*
X77086300Y-42055715D01*
X77090088Y-42061856D01*
X77214144Y-42185912D01*
X77220285Y-42189700D01*
X77220288Y-42189702D01*
X77250590Y-42208392D01*
X77363466Y-42278014D01*
X77530003Y-42333199D01*
X77632791Y-42343700D01*
X78932808Y-42343699D01*
X79035597Y-42333199D01*
X79202134Y-42278014D01*
X79351456Y-42185912D01*
X79475512Y-42061856D01*
X79567614Y-41912534D01*
X79568390Y-41913012D01*
X79600686Y-41872764D01*
X79654641Y-41849017D01*
X79713466Y-41852870D01*
X79763863Y-41883451D01*
X79907890Y-42027478D01*
X79916156Y-42034415D01*
X80100791Y-42163698D01*
X80110123Y-42169086D01*
X80314402Y-42264343D01*
X80324536Y-42268031D01*
X80519019Y-42320143D01*
X80530248Y-42320511D01*
X80532800Y-42309569D01*
X81032800Y-42309569D01*
X81035351Y-42320511D01*
X81046580Y-42320143D01*
X81241063Y-42268031D01*
X81251197Y-42264343D01*
X81455467Y-42169089D01*
X81464817Y-42163691D01*
X81649442Y-42034415D01*
X81657707Y-42027480D01*
X81817080Y-41868107D01*
X81824015Y-41859842D01*
X81953291Y-41675217D01*
X81958689Y-41665867D01*
X82053943Y-41461597D01*
X82057631Y-41451463D01*
X82115966Y-41233753D01*
X82117841Y-41223122D01*
X82127705Y-41110378D01*
X82125132Y-41096934D01*
X82111965Y-41093200D01*
X81049126Y-41093200D01*
X81036250Y-41096650D01*
X81032800Y-41109526D01*
X81032800Y-42309569D01*
X80532800Y-42309569D01*
X80532800Y-40576874D01*
X81032800Y-40576874D01*
X81036250Y-40589749D01*
X81049126Y-40593200D01*
X82111965Y-40593200D01*
X82125132Y-40589465D01*
X82127705Y-40576021D01*
X82117841Y-40463277D01*
X82115966Y-40452646D01*
X82057631Y-40234936D01*
X82053943Y-40224802D01*
X81958689Y-40020532D01*
X81953291Y-40011182D01*
X81824015Y-39826557D01*
X81817080Y-39818292D01*
X81657709Y-39658921D01*
X81649443Y-39651984D01*
X81464808Y-39522701D01*
X81455476Y-39517313D01*
X81251197Y-39422056D01*
X81241063Y-39418368D01*
X81046580Y-39366256D01*
X81035351Y-39365888D01*
X81032800Y-39376831D01*
X81032800Y-40576874D01*
X80532800Y-40576874D01*
X80532800Y-39376831D01*
X80530248Y-39365888D01*
X80519019Y-39366256D01*
X80324536Y-39418368D01*
X80314402Y-39422056D01*
X80110132Y-39517310D01*
X80100782Y-39522708D01*
X79916157Y-39651984D01*
X79907898Y-39658914D01*
X79763863Y-39802949D01*
X79713467Y-39833529D01*
X79654645Y-39837382D01*
X79600690Y-39813638D01*
X79568389Y-39773387D01*
X79567614Y-39773866D01*
X79479302Y-39630688D01*
X79479300Y-39630685D01*
X79475512Y-39624544D01*
X79351456Y-39500488D01*
X79345315Y-39496700D01*
X79345311Y-39496697D01*
X79208280Y-39412177D01*
X79202134Y-39408386D01*
X79106907Y-39376831D01*
X79042025Y-39355331D01*
X79042024Y-39355330D01*
X79035597Y-39353201D01*
X79028864Y-39352513D01*
X79028859Y-39352512D01*
X78935940Y-39343019D01*
X78935923Y-39343018D01*
X78932809Y-39342700D01*
X78929660Y-39342700D01*
X77635940Y-39342700D01*
X77635920Y-39342700D01*
X77632792Y-39342701D01*
X77629660Y-39343020D01*
X77629658Y-39343021D01*
X77536738Y-39352512D01*
X77536728Y-39352513D01*
X77530003Y-39353201D01*
X77523581Y-39355328D01*
X77523576Y-39355330D01*
X77370321Y-39406114D01*
X77370317Y-39406115D01*
X77363466Y-39408386D01*
X77357322Y-39412175D01*
X77357319Y-39412177D01*
X77220288Y-39496697D01*
X77220280Y-39496703D01*
X77214144Y-39500488D01*
X77209042Y-39505589D01*
X77209038Y-39505593D01*
X77095193Y-39619438D01*
X77095189Y-39619442D01*
X77090088Y-39624544D01*
X77086303Y-39630680D01*
X77086297Y-39630688D01*
X77001917Y-39767492D01*
X76997986Y-39773866D01*
X76995715Y-39780717D01*
X76995714Y-39780721D01*
X76955620Y-39901718D01*
X76942801Y-39940403D01*
X76942113Y-39947133D01*
X76942112Y-39947140D01*
X76932619Y-40040059D01*
X76932618Y-40040077D01*
X76932300Y-40043191D01*
X76932300Y-40046338D01*
X76932300Y-40046339D01*
X76932300Y-41640059D01*
X76932300Y-41640078D01*
X73052325Y-41640078D01*
X73063291Y-41624417D01*
X73068689Y-41615067D01*
X73163943Y-41410797D01*
X73167631Y-41400663D01*
X73225966Y-41182953D01*
X73227841Y-41172322D01*
X73237705Y-41059578D01*
X73235132Y-41046134D01*
X73221965Y-41042400D01*
X72159126Y-41042400D01*
X72146250Y-41045850D01*
X72142800Y-41058726D01*
X72142800Y-42258769D01*
X71642800Y-42258769D01*
X71642800Y-40526074D01*
X72142800Y-40526074D01*
X72146250Y-40538949D01*
X72159126Y-40542400D01*
X73221965Y-40542400D01*
X73235132Y-40538665D01*
X73237705Y-40525221D01*
X73227841Y-40412477D01*
X73225966Y-40401846D01*
X73167631Y-40184136D01*
X73163943Y-40174002D01*
X73068689Y-39969732D01*
X73063291Y-39960382D01*
X72934015Y-39775757D01*
X72927080Y-39767492D01*
X72767709Y-39608121D01*
X72759443Y-39601184D01*
X72574808Y-39471901D01*
X72565476Y-39466513D01*
X72361197Y-39371256D01*
X72351063Y-39367568D01*
X72156580Y-39315456D01*
X72145351Y-39315088D01*
X72142800Y-39326031D01*
X72142800Y-40526074D01*
X71642800Y-40526074D01*
X71642800Y-39326031D01*
X71640248Y-39315088D01*
X71629019Y-39315456D01*
X71434536Y-39367568D01*
X71424402Y-39371256D01*
X71220132Y-39466510D01*
X71210782Y-39471908D01*
X71026157Y-39601184D01*
X71017898Y-39608114D01*
X70873863Y-39752149D01*
X70823467Y-39782729D01*
X70764645Y-39786582D01*
X70710690Y-39762838D01*
X70678389Y-39722587D01*
X70677614Y-39723066D01*
X70589302Y-39579888D01*
X70589300Y-39579885D01*
X70585512Y-39573744D01*
X70461456Y-39449688D01*
X70455315Y-39445900D01*
X70455311Y-39445897D01*
X70318280Y-39361377D01*
X70312134Y-39357586D01*
X70227910Y-39329677D01*
X70152025Y-39304531D01*
X70152024Y-39304530D01*
X70145597Y-39302401D01*
X70138864Y-39301713D01*
X70138859Y-39301712D01*
X70045940Y-39292219D01*
X70045923Y-39292218D01*
X70042809Y-39291900D01*
X70039660Y-39291900D01*
X68745940Y-39291900D01*
X68745920Y-39291900D01*
X68742792Y-39291901D01*
X68739660Y-39292220D01*
X68739658Y-39292221D01*
X68646738Y-39301712D01*
X68646728Y-39301713D01*
X68640003Y-39302401D01*
X68633581Y-39304528D01*
X68633576Y-39304530D01*
X68480321Y-39355314D01*
X68480317Y-39355315D01*
X68473466Y-39357586D01*
X68467322Y-39361375D01*
X68467319Y-39361377D01*
X68330288Y-39445897D01*
X68330280Y-39445903D01*
X68324144Y-39449688D01*
X68319042Y-39454789D01*
X68319038Y-39454793D01*
X68205193Y-39568638D01*
X68205189Y-39568642D01*
X68200088Y-39573744D01*
X68196303Y-39579880D01*
X68196297Y-39579888D01*
X68111777Y-39716919D01*
X68107986Y-39723066D01*
X68105715Y-39729917D01*
X68105714Y-39729921D01*
X68054931Y-39883174D01*
X68052801Y-39889603D01*
X68052113Y-39896333D01*
X68052112Y-39896340D01*
X68042619Y-39989259D01*
X68042618Y-39989277D01*
X68042300Y-39992391D01*
X68042300Y-39995538D01*
X68042300Y-39995539D01*
X68042300Y-41589259D01*
X68042300Y-41589278D01*
X67021100Y-41589278D01*
X67021100Y-39065200D01*
X90599651Y-39065200D01*
X90599998Y-39069831D01*
X90618404Y-39315456D01*
X90619817Y-39334303D01*
X90620847Y-39338816D01*
X90620848Y-39338822D01*
X90662819Y-39522708D01*
X90679866Y-39597395D01*
X90681562Y-39601718D01*
X90681563Y-39601719D01*
X90749126Y-39773866D01*
X90778457Y-39848598D01*
X90913385Y-40082302D01*
X91081639Y-40293285D01*
X91085043Y-40296443D01*
X91210097Y-40412477D01*
X91279459Y-40476835D01*
X91502426Y-40628851D01*
X91745559Y-40745938D01*
X91749987Y-40747303D01*
X91749990Y-40747305D01*
X91874493Y-40785708D01*
X92003428Y-40825480D01*
X92270271Y-40865700D01*
X92535492Y-40865700D01*
X92540129Y-40865700D01*
X92806972Y-40825480D01*
X93064841Y-40745938D01*
X93307975Y-40628851D01*
X93530941Y-40476835D01*
X93728761Y-40293285D01*
X93897015Y-40082302D01*
X94031943Y-39848598D01*
X94130534Y-39597395D01*
X94190583Y-39334303D01*
X94210749Y-39065200D01*
X94190583Y-38796097D01*
X94130534Y-38533005D01*
X94031943Y-38281802D01*
X93897015Y-38048098D01*
X93728761Y-37837115D01*
X93530941Y-37653565D01*
X93527112Y-37650954D01*
X93527109Y-37650952D01*
X93350140Y-37530297D01*
X93307975Y-37501549D01*
X93303789Y-37499533D01*
X93069020Y-37386474D01*
X93069014Y-37386471D01*
X93064841Y-37384462D01*
X93060419Y-37383098D01*
X93060409Y-37383094D01*
X92811402Y-37306286D01*
X92811396Y-37306284D01*
X92806972Y-37304920D01*
X92802395Y-37304230D01*
X92802386Y-37304228D01*
X92544714Y-37265391D01*
X92544713Y-37265390D01*
X92540129Y-37264700D01*
X92270271Y-37264700D01*
X92265687Y-37265390D01*
X92265685Y-37265391D01*
X92008013Y-37304228D01*
X92008001Y-37304230D01*
X92003428Y-37304920D01*
X91999006Y-37306283D01*
X91998997Y-37306286D01*
X91749990Y-37383094D01*
X91749975Y-37383099D01*
X91745559Y-37384462D01*
X91741385Y-37386471D01*
X91741380Y-37386474D01*
X91506611Y-37499533D01*
X91506604Y-37499536D01*
X91502426Y-37501549D01*
X91498593Y-37504162D01*
X91498590Y-37504164D01*
X91283290Y-37650952D01*
X91283280Y-37650959D01*
X91279459Y-37653565D01*
X91276063Y-37656716D01*
X91276053Y-37656724D01*
X91085043Y-37833956D01*
X91085039Y-37833959D01*
X91081639Y-37837115D01*
X91078749Y-37840737D01*
X91078746Y-37840742D01*
X90916277Y-38044471D01*
X90913385Y-38048098D01*
X90911066Y-38052113D01*
X90911065Y-38052116D01*
X90780778Y-38277781D01*
X90780775Y-38277786D01*
X90778457Y-38281802D01*
X90776763Y-38286116D01*
X90776761Y-38286122D01*
X90681563Y-38528680D01*
X90679866Y-38533005D01*
X90678833Y-38537526D01*
X90678832Y-38537533D01*
X90620848Y-38791577D01*
X90620846Y-38791585D01*
X90619817Y-38796097D01*
X90619470Y-38800716D01*
X90619470Y-38800722D01*
X90599998Y-39060569D01*
X90599651Y-39065200D01*
X67021100Y-39065200D01*
X67021100Y-38697100D01*
X67037713Y-38635100D01*
X67083100Y-38589713D01*
X67145100Y-38573100D01*
X67587825Y-38573100D01*
X67598880Y-38573621D01*
X67606267Y-38575273D01*
X67673472Y-38573161D01*
X67677368Y-38573100D01*
X67701048Y-38573100D01*
X67704950Y-38573100D01*
X67708913Y-38572599D01*
X67720563Y-38571680D01*
X67764227Y-38570309D01*
X67783461Y-38564719D01*
X67802517Y-38560774D01*
X67822392Y-38558264D01*
X67862995Y-38542187D01*
X67874050Y-38538402D01*
X67904591Y-38529529D01*
X67908500Y-38528394D01*
X67908500Y-38528393D01*
X67915990Y-38526218D01*
X67933229Y-38516022D01*
X67950703Y-38507462D01*
X67962074Y-38502960D01*
X67962076Y-38502958D01*
X67969332Y-38500086D01*
X68004669Y-38474411D01*
X68014424Y-38468003D01*
X68052020Y-38445770D01*
X68066184Y-38431605D01*
X68080979Y-38418968D01*
X68097187Y-38407194D01*
X68125028Y-38373538D01*
X68132879Y-38364909D01*
X71253311Y-35244478D01*
X71261481Y-35237044D01*
X71267877Y-35232986D01*
X71313918Y-35183956D01*
X71316535Y-35181254D01*
X71336120Y-35161671D01*
X71338585Y-35158492D01*
X71346167Y-35149616D01*
X71376062Y-35117782D01*
X71385713Y-35100223D01*
X71396390Y-35083970D01*
X71408673Y-35068136D01*
X71426018Y-35028052D01*
X71431151Y-35017571D01*
X71452197Y-34979292D01*
X71457179Y-34959884D01*
X71463482Y-34941476D01*
X71471437Y-34923096D01*
X71478271Y-34879944D01*
X71480633Y-34868538D01*
X71491500Y-34826219D01*
X71491500Y-34806183D01*
X71493027Y-34786785D01*
X71494939Y-34774713D01*
X71494938Y-34774713D01*
X71496160Y-34767004D01*
X71492050Y-34723524D01*
X71491500Y-34711855D01*
X71491500Y-25897001D01*
X71501846Y-25847414D01*
X71514118Y-25830118D01*
X73587200Y-25830118D01*
X73587553Y-25836714D01*
X73592773Y-25885267D01*
X73596311Y-25900241D01*
X73640747Y-26019377D01*
X73649162Y-26034789D01*
X73724698Y-26135692D01*
X73737107Y-26148101D01*
X73838010Y-26223637D01*
X73853422Y-26232052D01*
X73972558Y-26276488D01*
X73987532Y-26280026D01*
X74036085Y-26285246D01*
X74042682Y-26285600D01*
X75120874Y-26285600D01*
X75133749Y-26282149D01*
X75137200Y-26269274D01*
X75637200Y-26269274D01*
X75640650Y-26282149D01*
X75653526Y-26285600D01*
X76731718Y-26285600D01*
X76738314Y-26285246D01*
X76786867Y-26280026D01*
X76801841Y-26276488D01*
X76920977Y-26232052D01*
X76936389Y-26223637D01*
X77037292Y-26148101D01*
X77049701Y-26135692D01*
X77125237Y-26034789D01*
X77133652Y-26019377D01*
X77178088Y-25900241D01*
X77181626Y-25885267D01*
X77186846Y-25836714D01*
X77187200Y-25830118D01*
X77187200Y-24751926D01*
X77183749Y-24739050D01*
X77170874Y-24735600D01*
X75653526Y-24735600D01*
X75640650Y-24739050D01*
X75637200Y-24751926D01*
X75637200Y-26269274D01*
X75137200Y-26269274D01*
X75137200Y-24751926D01*
X75133749Y-24739050D01*
X75120874Y-24735600D01*
X73603526Y-24735600D01*
X73590650Y-24739050D01*
X73587200Y-24751926D01*
X73587200Y-25830118D01*
X71514118Y-25830118D01*
X71531159Y-25806102D01*
X71535881Y-25801720D01*
X71630761Y-25713685D01*
X71799015Y-25502702D01*
X71933943Y-25268998D01*
X72032534Y-25017795D01*
X72092583Y-24754703D01*
X72112749Y-24485600D01*
X72100132Y-24317229D01*
X82978001Y-24317229D01*
X82978321Y-24323511D01*
X82987805Y-24416359D01*
X82990623Y-24429522D01*
X83041370Y-24582667D01*
X83047432Y-24595666D01*
X83131890Y-24732594D01*
X83140794Y-24743855D01*
X83254544Y-24857605D01*
X83265805Y-24866509D01*
X83402733Y-24950967D01*
X83415732Y-24957029D01*
X83568874Y-25007775D01*
X83582041Y-25010594D01*
X83674890Y-25020080D01*
X83681168Y-25020400D01*
X84061674Y-25020400D01*
X84074549Y-25016949D01*
X84078000Y-25004074D01*
X84078000Y-23786726D01*
X84074549Y-23773850D01*
X84061674Y-23770400D01*
X82994327Y-23770400D01*
X82981451Y-23773850D01*
X82978001Y-23786726D01*
X82978001Y-24317229D01*
X72100132Y-24317229D01*
X72092791Y-24219274D01*
X73587200Y-24219274D01*
X73590650Y-24232149D01*
X73603526Y-24235600D01*
X75120874Y-24235600D01*
X75133749Y-24232149D01*
X75137200Y-24219274D01*
X75637200Y-24219274D01*
X75640650Y-24232149D01*
X75653526Y-24235600D01*
X77170874Y-24235600D01*
X77183749Y-24232149D01*
X77187200Y-24219274D01*
X77187200Y-23254074D01*
X82978000Y-23254074D01*
X82981450Y-23266949D01*
X82994326Y-23270400D01*
X84061674Y-23270400D01*
X84074549Y-23266949D01*
X84078000Y-23254074D01*
X84078000Y-22036727D01*
X84074549Y-22023851D01*
X84061674Y-22020401D01*
X83681171Y-22020401D01*
X83674888Y-22020721D01*
X83582040Y-22030205D01*
X83568877Y-22033023D01*
X83415732Y-22083770D01*
X83402733Y-22089832D01*
X83265805Y-22174290D01*
X83254544Y-22183194D01*
X83140794Y-22296944D01*
X83131890Y-22308205D01*
X83047432Y-22445133D01*
X83041370Y-22458132D01*
X82990624Y-22611274D01*
X82987805Y-22624441D01*
X82978319Y-22717290D01*
X82978000Y-22723568D01*
X82978000Y-23254074D01*
X77187200Y-23254074D01*
X77187200Y-23141082D01*
X77186846Y-23134485D01*
X77181626Y-23085932D01*
X77178088Y-23070958D01*
X77133652Y-22951822D01*
X77125237Y-22936410D01*
X77049701Y-22835507D01*
X77037292Y-22823098D01*
X76936389Y-22747562D01*
X76920977Y-22739147D01*
X76801841Y-22694711D01*
X76786867Y-22691173D01*
X76738314Y-22685953D01*
X76731718Y-22685600D01*
X75653526Y-22685600D01*
X75640650Y-22689050D01*
X75637200Y-22701926D01*
X75637200Y-24219274D01*
X75137200Y-24219274D01*
X75137200Y-22701926D01*
X75133749Y-22689050D01*
X75120874Y-22685600D01*
X74042682Y-22685600D01*
X74036085Y-22685953D01*
X73987532Y-22691173D01*
X73972558Y-22694711D01*
X73853422Y-22739147D01*
X73838010Y-22747562D01*
X73737107Y-22823098D01*
X73724698Y-22835507D01*
X73649162Y-22936410D01*
X73640747Y-22951822D01*
X73596311Y-23070958D01*
X73592773Y-23085932D01*
X73587553Y-23134485D01*
X73587200Y-23141082D01*
X73587200Y-24219274D01*
X72092791Y-24219274D01*
X72092583Y-24216497D01*
X72032534Y-23953405D01*
X71933943Y-23702202D01*
X71799015Y-23468498D01*
X71630761Y-23257515D01*
X71531159Y-23165098D01*
X71501846Y-23123786D01*
X71491500Y-23074199D01*
X71491500Y-22205252D01*
X71500939Y-22157799D01*
X71527819Y-22117571D01*
X72358772Y-21286619D01*
X72399000Y-21259739D01*
X72446453Y-21250300D01*
X84779548Y-21250300D01*
X84827001Y-21259739D01*
X84867229Y-21286619D01*
X85846874Y-22266265D01*
X85878968Y-22321852D01*
X85878968Y-22386039D01*
X85846875Y-22441626D01*
X85808461Y-22480041D01*
X85758069Y-22510621D01*
X85699249Y-22514478D01*
X85645295Y-22490739D01*
X85613203Y-22450756D01*
X85612358Y-22451278D01*
X85524109Y-22308205D01*
X85515205Y-22296944D01*
X85401455Y-22183194D01*
X85390194Y-22174290D01*
X85253266Y-22089832D01*
X85240267Y-22083770D01*
X85087125Y-22033024D01*
X85073958Y-22030205D01*
X84981109Y-22020719D01*
X84974832Y-22020400D01*
X84594326Y-22020400D01*
X84581450Y-22023850D01*
X84578000Y-22036726D01*
X84578000Y-25004073D01*
X84581450Y-25016948D01*
X84594326Y-25020399D01*
X84974829Y-25020399D01*
X84981111Y-25020078D01*
X85073959Y-25010594D01*
X85087122Y-25007776D01*
X85240267Y-24957029D01*
X85253266Y-24950967D01*
X85390194Y-24866509D01*
X85401455Y-24857605D01*
X85515205Y-24743855D01*
X85524109Y-24732594D01*
X85612358Y-24589522D01*
X85613205Y-24590044D01*
X85645286Y-24550067D01*
X85699241Y-24526322D01*
X85758064Y-24530175D01*
X85808460Y-24560756D01*
X85956599Y-24708895D01*
X85961031Y-24711998D01*
X85961033Y-24712000D01*
X86028473Y-24759222D01*
X86150170Y-24844435D01*
X86155070Y-24846720D01*
X86155072Y-24846721D01*
X86163026Y-24850430D01*
X86364337Y-24944303D01*
X86369567Y-24945704D01*
X86369569Y-24945705D01*
X86411619Y-24956972D01*
X86592592Y-25005463D01*
X86828000Y-25026059D01*
X87063408Y-25005463D01*
X87291663Y-24944303D01*
X87505829Y-24844435D01*
X87699401Y-24708895D01*
X87866495Y-24541801D01*
X88002035Y-24348229D01*
X88101903Y-24134063D01*
X88163063Y-23905808D01*
X88178500Y-23729366D01*
X88178500Y-23311434D01*
X88163063Y-23134992D01*
X88101903Y-22906737D01*
X88002035Y-22692571D01*
X87866495Y-22498999D01*
X87699401Y-22331905D01*
X87694970Y-22328802D01*
X87694966Y-22328799D01*
X87587000Y-22253200D01*
X92545012Y-22253200D01*
X92545328Y-22257618D01*
X92563824Y-22516242D01*
X92563825Y-22516251D01*
X92564141Y-22520665D01*
X92565081Y-22524990D01*
X92565083Y-22524998D01*
X92600020Y-22685600D01*
X92621140Y-22782685D01*
X92622683Y-22786824D01*
X92622685Y-22786828D01*
X92703046Y-23002281D01*
X92714849Y-23033926D01*
X92716969Y-23037808D01*
X92716972Y-23037815D01*
X92841231Y-23265380D01*
X92841235Y-23265387D01*
X92843358Y-23269274D01*
X92846015Y-23272823D01*
X93001400Y-23480394D01*
X93001405Y-23480400D01*
X93004053Y-23483937D01*
X93193663Y-23673547D01*
X93197200Y-23676195D01*
X93197205Y-23676199D01*
X93237712Y-23706522D01*
X93408326Y-23834242D01*
X93412216Y-23836366D01*
X93412219Y-23836368D01*
X93634850Y-23957933D01*
X93643674Y-23962751D01*
X93894915Y-24056460D01*
X94156935Y-24113459D01*
X94424400Y-24132588D01*
X94691865Y-24113459D01*
X94953885Y-24056460D01*
X95205126Y-23962751D01*
X95440474Y-23834242D01*
X95655137Y-23673547D01*
X95844747Y-23483937D01*
X96005442Y-23269274D01*
X96133951Y-23033926D01*
X96227660Y-22782685D01*
X96284659Y-22520665D01*
X96303788Y-22253200D01*
X96284659Y-21985735D01*
X96227660Y-21723715D01*
X96133951Y-21472474D01*
X96102404Y-21414699D01*
X96007568Y-21241019D01*
X96007566Y-21241016D01*
X96005442Y-21237126D01*
X95924203Y-21128604D01*
X95847399Y-21026005D01*
X95847395Y-21026000D01*
X95844747Y-21022463D01*
X95655137Y-20832853D01*
X95651600Y-20830205D01*
X95651594Y-20830200D01*
X95491005Y-20709985D01*
X95440474Y-20672158D01*
X95436587Y-20670035D01*
X95436580Y-20670031D01*
X95209015Y-20545772D01*
X95209008Y-20545769D01*
X95205126Y-20543649D01*
X95200976Y-20542101D01*
X94958028Y-20451485D01*
X94958024Y-20451483D01*
X94953885Y-20449940D01*
X94924540Y-20443556D01*
X94696198Y-20393883D01*
X94696190Y-20393881D01*
X94691865Y-20392941D01*
X94687451Y-20392625D01*
X94687442Y-20392624D01*
X94428818Y-20374128D01*
X94424400Y-20373812D01*
X94419982Y-20374128D01*
X94161357Y-20392624D01*
X94161346Y-20392625D01*
X94156935Y-20392941D01*
X94152611Y-20393881D01*
X94152601Y-20393883D01*
X93899240Y-20448999D01*
X93899237Y-20448999D01*
X93894915Y-20449940D01*
X93890779Y-20451482D01*
X93890771Y-20451485D01*
X93647823Y-20542101D01*
X93647817Y-20542103D01*
X93643674Y-20543649D01*
X93639796Y-20545766D01*
X93639784Y-20545772D01*
X93412219Y-20670031D01*
X93412205Y-20670039D01*
X93408326Y-20672158D01*
X93404780Y-20674811D01*
X93404776Y-20674815D01*
X93197205Y-20830200D01*
X93197192Y-20830210D01*
X93193663Y-20832853D01*
X93190537Y-20835978D01*
X93190530Y-20835985D01*
X93007185Y-21019330D01*
X93007178Y-21019337D01*
X93004053Y-21022463D01*
X93001410Y-21025992D01*
X93001400Y-21026005D01*
X92846015Y-21233576D01*
X92846011Y-21233580D01*
X92843358Y-21237126D01*
X92841239Y-21241005D01*
X92841231Y-21241019D01*
X92716972Y-21468584D01*
X92716966Y-21468596D01*
X92714849Y-21472474D01*
X92713303Y-21476617D01*
X92713301Y-21476623D01*
X92622685Y-21719571D01*
X92622682Y-21719579D01*
X92621140Y-21723715D01*
X92620199Y-21728037D01*
X92620199Y-21728040D01*
X92565083Y-21981401D01*
X92565081Y-21981411D01*
X92564141Y-21985735D01*
X92563825Y-21990146D01*
X92563824Y-21990157D01*
X92550325Y-22178913D01*
X92545012Y-22253200D01*
X87587000Y-22253200D01*
X87510264Y-22199469D01*
X87510258Y-22199465D01*
X87505830Y-22196365D01*
X87500926Y-22194078D01*
X87500924Y-22194077D01*
X87468405Y-22178913D01*
X87431912Y-22152978D01*
X87408045Y-22117324D01*
X87406618Y-22112410D01*
X87402644Y-22105690D01*
X87396421Y-22095168D01*
X87387858Y-22077690D01*
X87380486Y-22059068D01*
X87375902Y-22052759D01*
X87375899Y-22052753D01*
X87354817Y-22023737D01*
X87348401Y-22013970D01*
X87330143Y-21983096D01*
X87330140Y-21983092D01*
X87326170Y-21976379D01*
X87312005Y-21962214D01*
X87299368Y-21947418D01*
X87292184Y-21937529D01*
X87292178Y-21937523D01*
X87287594Y-21931213D01*
X87253946Y-21903377D01*
X87245305Y-21895514D01*
X85587286Y-20237495D01*
X85579842Y-20229314D01*
X85575786Y-20222923D01*
X85526775Y-20176898D01*
X85523978Y-20174187D01*
X85507227Y-20157436D01*
X85504471Y-20154680D01*
X85501290Y-20152212D01*
X85492414Y-20144630D01*
X85466269Y-20120078D01*
X85466267Y-20120076D01*
X85460582Y-20114738D01*
X85453749Y-20110982D01*
X85453743Y-20110977D01*
X85443025Y-20105085D01*
X85426766Y-20094406D01*
X85417095Y-20086904D01*
X85417092Y-20086902D01*
X85410936Y-20082127D01*
X85403779Y-20079029D01*
X85403776Y-20079028D01*
X85370849Y-20064778D01*
X85360363Y-20059641D01*
X85328932Y-20042362D01*
X85328923Y-20042358D01*
X85322092Y-20038603D01*
X85314535Y-20036662D01*
X85314531Y-20036661D01*
X85302688Y-20033620D01*
X85284284Y-20027319D01*
X85273057Y-20022460D01*
X85273050Y-20022458D01*
X85265896Y-20019362D01*
X85258192Y-20018141D01*
X85258190Y-20018141D01*
X85222759Y-20012529D01*
X85211324Y-20010161D01*
X85176571Y-20001238D01*
X85176563Y-20001237D01*
X85169019Y-19999300D01*
X85161223Y-19999300D01*
X85148983Y-19999300D01*
X85129597Y-19997774D01*
X85109804Y-19994640D01*
X85102038Y-19995374D01*
X85102035Y-19995374D01*
X85066324Y-19998750D01*
X85054655Y-19999300D01*
X72213771Y-19999300D01*
X72202718Y-19998779D01*
X72195332Y-19997128D01*
X72187534Y-19997373D01*
X72128144Y-19999239D01*
X72124250Y-19999300D01*
X72096650Y-19999300D01*
X72092799Y-19999786D01*
X72092768Y-19999788D01*
X72092640Y-19999805D01*
X72081029Y-20000718D01*
X72045172Y-20001845D01*
X72045165Y-20001846D01*
X72037373Y-20002091D01*
X72029888Y-20004265D01*
X72029872Y-20004268D01*
X72018126Y-20007681D01*
X71999083Y-20011625D01*
X71986949Y-20013158D01*
X71986948Y-20013158D01*
X71979208Y-20014136D01*
X71971958Y-20017005D01*
X71971951Y-20017008D01*
X71938598Y-20030213D01*
X71927554Y-20033994D01*
X71893105Y-20044003D01*
X71893095Y-20044007D01*
X71885610Y-20046182D01*
X71878900Y-20050149D01*
X71878898Y-20050151D01*
X71875505Y-20052157D01*
X71868360Y-20056383D01*
X71850900Y-20064936D01*
X71832268Y-20072314D01*
X71825965Y-20076892D01*
X71825958Y-20076897D01*
X71796939Y-20097981D01*
X71787179Y-20104392D01*
X71756294Y-20122657D01*
X71756284Y-20122664D01*
X71749579Y-20126630D01*
X71744063Y-20132145D01*
X71744060Y-20132148D01*
X71735407Y-20140800D01*
X71720624Y-20153426D01*
X71710727Y-20160617D01*
X71710720Y-20160623D01*
X71704413Y-20165206D01*
X71699446Y-20171208D01*
X71699435Y-20171220D01*
X71676570Y-20198859D01*
X71668710Y-20207497D01*
X70478696Y-21397511D01*
X70470511Y-21404959D01*
X70464123Y-21409014D01*
X70458788Y-21414694D01*
X70458783Y-21414699D01*
X70418096Y-21458025D01*
X70415392Y-21460816D01*
X70398628Y-21477580D01*
X70398621Y-21477587D01*
X70395880Y-21480329D01*
X70393500Y-21483396D01*
X70393489Y-21483409D01*
X70393400Y-21483525D01*
X70385842Y-21492370D01*
X70361280Y-21518527D01*
X70361273Y-21518536D01*
X70355938Y-21524218D01*
X70352182Y-21531049D01*
X70352179Y-21531054D01*
X70346285Y-21541775D01*
X70335609Y-21558027D01*
X70328109Y-21567696D01*
X70328101Y-21567707D01*
X70323327Y-21573864D01*
X70320234Y-21581008D01*
X70320229Y-21581019D01*
X70305974Y-21613960D01*
X70300838Y-21624443D01*
X70279803Y-21662708D01*
X70277864Y-21670256D01*
X70277863Y-21670261D01*
X70274822Y-21682107D01*
X70268521Y-21700511D01*
X70263658Y-21711748D01*
X70263656Y-21711752D01*
X70260562Y-21718904D01*
X70259342Y-21726603D01*
X70259342Y-21726605D01*
X70253729Y-21762041D01*
X70251361Y-21773476D01*
X70242438Y-21808228D01*
X70242436Y-21808236D01*
X70240500Y-21815781D01*
X70240500Y-21823577D01*
X70240500Y-21835817D01*
X70238974Y-21855202D01*
X70235840Y-21874996D01*
X70236574Y-21882761D01*
X70236574Y-21882764D01*
X70239950Y-21918476D01*
X70240500Y-21930145D01*
X70240500Y-22568106D01*
X70226844Y-22624676D01*
X70188884Y-22668786D01*
X70134982Y-22690720D01*
X70061063Y-22701861D01*
X69910013Y-22724628D01*
X69910001Y-22724630D01*
X69905428Y-22725320D01*
X69901006Y-22726683D01*
X69900997Y-22726686D01*
X69651990Y-22803494D01*
X69651975Y-22803499D01*
X69647559Y-22804862D01*
X69643385Y-22806871D01*
X69643380Y-22806874D01*
X69408611Y-22919933D01*
X69408604Y-22919936D01*
X69404426Y-22921949D01*
X69400593Y-22924562D01*
X69400590Y-22924564D01*
X69185290Y-23071352D01*
X69185280Y-23071359D01*
X69181459Y-23073965D01*
X69178063Y-23077116D01*
X69178053Y-23077124D01*
X68987043Y-23254356D01*
X68987039Y-23254359D01*
X68983639Y-23257515D01*
X68980749Y-23261137D01*
X68980746Y-23261142D01*
X68838277Y-23439792D01*
X68815385Y-23468498D01*
X68813066Y-23472513D01*
X68813065Y-23472516D01*
X68682778Y-23698181D01*
X68682775Y-23698186D01*
X68680457Y-23702202D01*
X68678763Y-23706516D01*
X68678761Y-23706522D01*
X68583563Y-23949080D01*
X68581866Y-23953405D01*
X68580833Y-23957926D01*
X68580832Y-23957933D01*
X68522848Y-24211977D01*
X68522846Y-24211985D01*
X68521817Y-24216497D01*
X68521470Y-24221116D01*
X68521470Y-24221122D01*
X68501998Y-24480969D01*
X68501651Y-24485600D01*
X68501998Y-24490231D01*
X68520289Y-24734322D01*
X68521817Y-24754703D01*
X68522847Y-24759216D01*
X68522848Y-24759222D01*
X68580056Y-25009865D01*
X68581866Y-25017795D01*
X68583562Y-25022118D01*
X68583563Y-25022119D01*
X68632235Y-25146133D01*
X68680457Y-25268998D01*
X68815385Y-25502702D01*
X68983639Y-25713685D01*
X68987043Y-25716843D01*
X69168560Y-25885267D01*
X69181459Y-25897235D01*
X69404426Y-26049251D01*
X69647559Y-26166338D01*
X69651987Y-26167703D01*
X69651990Y-26167705D01*
X69739578Y-26194722D01*
X69905428Y-26245880D01*
X70134982Y-26280479D01*
X70188884Y-26302414D01*
X70226844Y-26346524D01*
X70240500Y-26403094D01*
X70240500Y-34436748D01*
X70231061Y-34484201D01*
X70204181Y-34524429D01*
X67442828Y-37285781D01*
X67402600Y-37312661D01*
X67355147Y-37322100D01*
X66474619Y-37322100D01*
X66466449Y-37322100D01*
X66443214Y-37319904D01*
X66442846Y-37319833D01*
X66442839Y-37319832D01*
X66435188Y-37318373D01*
X66427409Y-37318862D01*
X66427404Y-37318862D01*
X66379841Y-37321855D01*
X66372055Y-37322100D01*
X55246575Y-37322100D01*
X55235519Y-37321578D01*
X55228133Y-37319927D01*
X55220345Y-37320171D01*
X55220338Y-37320171D01*
X55160927Y-37322039D01*
X55157032Y-37322100D01*
X55129450Y-37322100D01*
X55125605Y-37322585D01*
X55125580Y-37322587D01*
X55125453Y-37322604D01*
X55113834Y-37323518D01*
X55077972Y-37324645D01*
X55077965Y-37324646D01*
X55070173Y-37324891D01*
X55062688Y-37327065D01*
X55062672Y-37327068D01*
X55050926Y-37330481D01*
X55031883Y-37334425D01*
X55019749Y-37335958D01*
X55019748Y-37335958D01*
X55012008Y-37336936D01*
X55004758Y-37339805D01*
X55004751Y-37339808D01*
X54971398Y-37353013D01*
X54960354Y-37356794D01*
X54925901Y-37366804D01*
X54925890Y-37366808D01*
X54918410Y-37368982D01*
X54911698Y-37372951D01*
X54911696Y-37372952D01*
X54901164Y-37379180D01*
X54883704Y-37387734D01*
X54872319Y-37392242D01*
X54872313Y-37392244D01*
X54865068Y-37395114D01*
X54858763Y-37399694D01*
X54858755Y-37399699D01*
X54829732Y-37420785D01*
X54819974Y-37427195D01*
X54789096Y-37445457D01*
X54789090Y-37445461D01*
X54782380Y-37449430D01*
X54776867Y-37454941D01*
X54776860Y-37454948D01*
X54768210Y-37463598D01*
X54753427Y-37476224D01*
X54743526Y-37483417D01*
X54743516Y-37483426D01*
X54737213Y-37488006D01*
X54732244Y-37494011D01*
X54732241Y-37494015D01*
X54709372Y-37521659D01*
X54701511Y-37530297D01*
X53867096Y-38364711D01*
X53858911Y-38372159D01*
X53852523Y-38376214D01*
X53847188Y-38381894D01*
X53847183Y-38381899D01*
X53806496Y-38425225D01*
X53803792Y-38428016D01*
X53787028Y-38444780D01*
X53787021Y-38444787D01*
X53784280Y-38447529D01*
X53781900Y-38450596D01*
X53781889Y-38450609D01*
X53781800Y-38450725D01*
X53774242Y-38459570D01*
X53749680Y-38485727D01*
X53749673Y-38485736D01*
X53744338Y-38491418D01*
X53740582Y-38498249D01*
X53740579Y-38498254D01*
X53734685Y-38508975D01*
X53724009Y-38525227D01*
X53716509Y-38534896D01*
X53716501Y-38534907D01*
X53711727Y-38541064D01*
X53708634Y-38548208D01*
X53708629Y-38548219D01*
X53694374Y-38581160D01*
X53689238Y-38591643D01*
X53668203Y-38629908D01*
X53666264Y-38637456D01*
X53666263Y-38637461D01*
X53663222Y-38649307D01*
X53656921Y-38667711D01*
X53652058Y-38678948D01*
X53652056Y-38678952D01*
X53648962Y-38686104D01*
X53647742Y-38693803D01*
X53647742Y-38693805D01*
X53642129Y-38729241D01*
X53639761Y-38740676D01*
X53630838Y-38775428D01*
X53630836Y-38775436D01*
X53628900Y-38782981D01*
X53628900Y-38790777D01*
X53628900Y-38803017D01*
X53627374Y-38822402D01*
X53624240Y-38842196D01*
X53624974Y-38849961D01*
X53624974Y-38849964D01*
X53628350Y-38885676D01*
X53628900Y-38897345D01*
X53628900Y-39367174D01*
X53614889Y-39424431D01*
X53576025Y-39468747D01*
X53523404Y-39505593D01*
X53387434Y-39600799D01*
X53387429Y-39600802D01*
X53382999Y-39603905D01*
X53379175Y-39607728D01*
X53379175Y-39607729D01*
X53234860Y-39752044D01*
X53184465Y-39782623D01*
X53125644Y-39786478D01*
X53071690Y-39762736D01*
X53039604Y-39722755D01*
X53038758Y-39723278D01*
X52950509Y-39580205D01*
X52941605Y-39568944D01*
X52827855Y-39455194D01*
X52816594Y-39446290D01*
X52679666Y-39361832D01*
X52666667Y-39355770D01*
X52513525Y-39305024D01*
X52500358Y-39302205D01*
X52407509Y-39292719D01*
X52401232Y-39292400D01*
X52020726Y-39292400D01*
X52007850Y-39295850D01*
X52004400Y-39308726D01*
X52004400Y-40918400D01*
X51987787Y-40980400D01*
X51942400Y-41025787D01*
X51880400Y-41042400D01*
X50420727Y-41042400D01*
X50407851Y-41045850D01*
X50404401Y-41058726D01*
X50404401Y-41367900D01*
X50387788Y-41429900D01*
X50342401Y-41475287D01*
X50280401Y-41491900D01*
X46898252Y-41491900D01*
X46850799Y-41482461D01*
X46810571Y-41455581D01*
X46722890Y-41367900D01*
X46633344Y-41278353D01*
X46602758Y-41227936D01*
X46599498Y-41177951D01*
X46597863Y-41177808D01*
X46603837Y-41109526D01*
X46613300Y-41001366D01*
X46613300Y-40583434D01*
X46608282Y-40526074D01*
X50404400Y-40526074D01*
X50407850Y-40538949D01*
X50420726Y-40542400D01*
X51488074Y-40542400D01*
X51500949Y-40538949D01*
X51504400Y-40526074D01*
X51504400Y-39308727D01*
X51500949Y-39295851D01*
X51488074Y-39292401D01*
X51107571Y-39292401D01*
X51101288Y-39292721D01*
X51008440Y-39302205D01*
X50995277Y-39305023D01*
X50842132Y-39355770D01*
X50829133Y-39361832D01*
X50692205Y-39446290D01*
X50680944Y-39455194D01*
X50567194Y-39568944D01*
X50558290Y-39580205D01*
X50473832Y-39717133D01*
X50467770Y-39730132D01*
X50417024Y-39883274D01*
X50414205Y-39896441D01*
X50404719Y-39989290D01*
X50404400Y-39995568D01*
X50404400Y-40526074D01*
X46608282Y-40526074D01*
X46597863Y-40406992D01*
X46536703Y-40178737D01*
X46436835Y-39964571D01*
X46301295Y-39770999D01*
X46134201Y-39603905D01*
X46129770Y-39600802D01*
X46129766Y-39600799D01*
X45945059Y-39471466D01*
X45945057Y-39471464D01*
X45940630Y-39468365D01*
X45935733Y-39466081D01*
X45935727Y-39466078D01*
X45731372Y-39370786D01*
X45731370Y-39370785D01*
X45726463Y-39368497D01*
X45721238Y-39367097D01*
X45721230Y-39367094D01*
X45503434Y-39308737D01*
X45503430Y-39308736D01*
X45498208Y-39307337D01*
X45492820Y-39306865D01*
X45492817Y-39306865D01*
X45268195Y-39287213D01*
X45262800Y-39286741D01*
X45257405Y-39287213D01*
X45032782Y-39306865D01*
X45032777Y-39306865D01*
X45027392Y-39307337D01*
X45022171Y-39308735D01*
X45022165Y-39308737D01*
X44804369Y-39367094D01*
X44804357Y-39367098D01*
X44799137Y-39368497D01*
X44794232Y-39370783D01*
X44794227Y-39370786D01*
X44589881Y-39466075D01*
X44589877Y-39466077D01*
X44584971Y-39468365D01*
X44580538Y-39471468D01*
X44580531Y-39471473D01*
X44395834Y-39600799D01*
X44395829Y-39600802D01*
X44391399Y-39603905D01*
X44387575Y-39607728D01*
X44387575Y-39607729D01*
X44243260Y-39752044D01*
X44192865Y-39782623D01*
X44134044Y-39786478D01*
X44080090Y-39762736D01*
X44048004Y-39722755D01*
X44047158Y-39723278D01*
X43958909Y-39580205D01*
X43950005Y-39568944D01*
X43836255Y-39455194D01*
X43824994Y-39446290D01*
X43688066Y-39361832D01*
X43675067Y-39355770D01*
X43521925Y-39305024D01*
X43508758Y-39302205D01*
X43415909Y-39292719D01*
X43409632Y-39292400D01*
X43029126Y-39292400D01*
X43016250Y-39295850D01*
X43012800Y-39308726D01*
X43012800Y-40918400D01*
X42996187Y-40980400D01*
X42950800Y-41025787D01*
X42888800Y-41042400D01*
X41429127Y-41042400D01*
X41416251Y-41045850D01*
X41412801Y-41058726D01*
X41412801Y-41367900D01*
X41396188Y-41429900D01*
X41350801Y-41475287D01*
X41288801Y-41491900D01*
X37358652Y-41491900D01*
X37311199Y-41482461D01*
X37270971Y-41455581D01*
X37183290Y-41367900D01*
X37093744Y-41278353D01*
X37063158Y-41227936D01*
X37059898Y-41177951D01*
X37058263Y-41177808D01*
X37064237Y-41109526D01*
X37073700Y-41001366D01*
X37073700Y-40583434D01*
X37068682Y-40526074D01*
X41412800Y-40526074D01*
X41416250Y-40538949D01*
X41429126Y-40542400D01*
X42496474Y-40542400D01*
X42509349Y-40538949D01*
X42512800Y-40526074D01*
X42512800Y-39308727D01*
X42509349Y-39295851D01*
X42496474Y-39292401D01*
X42115971Y-39292401D01*
X42109688Y-39292721D01*
X42016840Y-39302205D01*
X42003677Y-39305023D01*
X41850532Y-39355770D01*
X41837533Y-39361832D01*
X41700605Y-39446290D01*
X41689344Y-39455194D01*
X41575594Y-39568944D01*
X41566690Y-39580205D01*
X41482232Y-39717133D01*
X41476170Y-39730132D01*
X41425424Y-39883274D01*
X41422605Y-39896441D01*
X41413119Y-39989290D01*
X41412800Y-39995568D01*
X41412800Y-40526074D01*
X37068682Y-40526074D01*
X37058263Y-40406992D01*
X36997103Y-40178737D01*
X36897235Y-39964571D01*
X36761695Y-39770999D01*
X36594601Y-39603905D01*
X36590170Y-39600802D01*
X36590166Y-39600799D01*
X36401576Y-39468747D01*
X36362711Y-39424429D01*
X36348700Y-39367172D01*
X36348700Y-35356800D01*
X42534932Y-35356800D01*
X42535404Y-35362195D01*
X42552922Y-35562433D01*
X42554765Y-35583492D01*
X42556162Y-35588707D01*
X42556164Y-35588716D01*
X42612258Y-35798063D01*
X42612261Y-35798071D01*
X42613661Y-35803296D01*
X42709832Y-36009534D01*
X42840353Y-36195939D01*
X43001261Y-36356847D01*
X43187666Y-36487368D01*
X43393904Y-36583539D01*
X43399134Y-36584940D01*
X43399136Y-36584941D01*
X43608483Y-36641035D01*
X43613708Y-36642435D01*
X43840400Y-36662268D01*
X44067092Y-36642435D01*
X44286896Y-36583539D01*
X44493134Y-36487368D01*
X44679539Y-36356847D01*
X44835008Y-36201378D01*
X50159900Y-36201378D01*
X50159901Y-36204672D01*
X50160253Y-36207950D01*
X50160254Y-36207961D01*
X50165479Y-36256568D01*
X50165480Y-36256573D01*
X50166309Y-36264283D01*
X50169019Y-36271549D01*
X50169020Y-36271553D01*
X50199405Y-36353017D01*
X50216604Y-36399131D01*
X50221918Y-36406230D01*
X50221919Y-36406231D01*
X50275302Y-36477542D01*
X50302854Y-36514346D01*
X50418069Y-36600596D01*
X50552917Y-36650891D01*
X50612527Y-36657300D01*
X52308272Y-36657299D01*
X52367883Y-36650891D01*
X52502731Y-36600596D01*
X52617946Y-36514346D01*
X52704196Y-36399131D01*
X52754491Y-36264283D01*
X52760900Y-36204673D01*
X52760899Y-35306000D01*
X55334757Y-35306000D01*
X55355285Y-35527536D01*
X55356854Y-35533050D01*
X55414601Y-35736013D01*
X55414604Y-35736021D01*
X55416171Y-35741528D01*
X55418723Y-35746653D01*
X55418725Y-35746658D01*
X55512787Y-35935559D01*
X55512789Y-35935563D01*
X55515342Y-35940689D01*
X55518791Y-35945256D01*
X55518794Y-35945261D01*
X55645961Y-36113658D01*
X55645966Y-36113663D01*
X55649419Y-36118236D01*
X55653655Y-36122097D01*
X55653659Y-36122102D01*
X55744236Y-36204673D01*
X55813838Y-36268124D01*
X56002999Y-36385247D01*
X56210460Y-36465618D01*
X56429157Y-36506500D01*
X56645914Y-36506500D01*
X56651643Y-36506500D01*
X56870340Y-36465618D01*
X57077801Y-36385247D01*
X57266962Y-36268124D01*
X57431381Y-36118236D01*
X57565458Y-35940689D01*
X57664629Y-35741528D01*
X57691134Y-35648371D01*
X57723533Y-35593818D01*
X57778675Y-35562433D01*
X57842125Y-35562433D01*
X57897267Y-35593818D01*
X57929665Y-35648371D01*
X57956171Y-35741528D01*
X57958723Y-35746653D01*
X57958725Y-35746658D01*
X58052787Y-35935559D01*
X58052789Y-35935563D01*
X58055342Y-35940689D01*
X58058791Y-35945256D01*
X58058794Y-35945261D01*
X58185961Y-36113658D01*
X58185966Y-36113663D01*
X58189419Y-36118236D01*
X58193655Y-36122097D01*
X58193659Y-36122102D01*
X58284236Y-36204673D01*
X58353838Y-36268124D01*
X58542999Y-36385247D01*
X58750460Y-36465618D01*
X58969157Y-36506500D01*
X59185914Y-36506500D01*
X59191643Y-36506500D01*
X59410340Y-36465618D01*
X59617801Y-36385247D01*
X59806962Y-36268124D01*
X59971381Y-36118236D01*
X60105458Y-35940689D01*
X60204629Y-35741528D01*
X60265515Y-35527536D01*
X60286043Y-35306000D01*
X62953957Y-35306000D01*
X62974485Y-35527536D01*
X62976054Y-35533050D01*
X63033801Y-35736013D01*
X63033804Y-35736021D01*
X63035371Y-35741528D01*
X63037923Y-35746653D01*
X63037925Y-35746658D01*
X63131987Y-35935559D01*
X63131989Y-35935563D01*
X63134542Y-35940689D01*
X63137991Y-35945256D01*
X63137994Y-35945261D01*
X63265161Y-36113658D01*
X63265166Y-36113663D01*
X63268619Y-36118236D01*
X63272855Y-36122097D01*
X63272859Y-36122102D01*
X63363436Y-36204673D01*
X63433038Y-36268124D01*
X63622199Y-36385247D01*
X63829660Y-36465618D01*
X64048357Y-36506500D01*
X64265114Y-36506500D01*
X64270843Y-36506500D01*
X64489540Y-36465618D01*
X64697001Y-36385247D01*
X64886162Y-36268124D01*
X65050581Y-36118236D01*
X65184658Y-35940689D01*
X65283829Y-35741528D01*
X65310595Y-35647454D01*
X65342991Y-35592906D01*
X65398134Y-35561520D01*
X65461583Y-35561520D01*
X65516726Y-35592905D01*
X65549125Y-35647458D01*
X65574270Y-35735834D01*
X65578393Y-35746477D01*
X65672413Y-35935295D01*
X65678420Y-35944997D01*
X65805532Y-36113320D01*
X65813230Y-36121764D01*
X65969105Y-36263862D01*
X65978209Y-36270738D01*
X66157550Y-36381781D01*
X66167763Y-36386867D01*
X66364455Y-36463066D01*
X66375431Y-36466188D01*
X66436170Y-36477542D01*
X66447198Y-36477160D01*
X66449600Y-36466393D01*
X66949600Y-36466393D01*
X66952001Y-36477160D01*
X66963029Y-36477542D01*
X67023768Y-36466188D01*
X67034744Y-36463066D01*
X67231436Y-36386867D01*
X67241649Y-36381781D01*
X67420990Y-36270738D01*
X67430094Y-36263862D01*
X67585969Y-36121764D01*
X67593667Y-36113320D01*
X67720779Y-35944997D01*
X67726786Y-35935295D01*
X67820807Y-35746474D01*
X67824927Y-35735840D01*
X67872159Y-35569835D01*
X67872679Y-35558580D01*
X67861710Y-35556000D01*
X66965926Y-35556000D01*
X66953050Y-35559450D01*
X66949600Y-35572326D01*
X66949600Y-36466393D01*
X66449600Y-36466393D01*
X66449600Y-35039674D01*
X66949600Y-35039674D01*
X66953050Y-35052549D01*
X66965926Y-35056000D01*
X67861710Y-35056000D01*
X67872679Y-35053419D01*
X67872159Y-35042164D01*
X67824927Y-34876159D01*
X67820807Y-34865525D01*
X67726786Y-34676704D01*
X67720779Y-34667002D01*
X67593667Y-34498679D01*
X67585969Y-34490235D01*
X67430094Y-34348137D01*
X67420990Y-34341261D01*
X67241649Y-34230218D01*
X67231436Y-34225132D01*
X67034744Y-34148933D01*
X67023768Y-34145811D01*
X66963029Y-34134457D01*
X66952001Y-34134839D01*
X66949600Y-34145607D01*
X66949600Y-35039674D01*
X66449600Y-35039674D01*
X66449600Y-34145607D01*
X66447198Y-34134839D01*
X66436170Y-34134457D01*
X66375431Y-34145811D01*
X66364455Y-34148933D01*
X66167763Y-34225132D01*
X66157550Y-34230218D01*
X65978209Y-34341261D01*
X65969105Y-34348137D01*
X65813230Y-34490235D01*
X65805532Y-34498679D01*
X65678420Y-34667002D01*
X65672413Y-34676704D01*
X65578393Y-34865522D01*
X65574270Y-34876165D01*
X65549125Y-34964541D01*
X65516726Y-35019094D01*
X65461583Y-35050479D01*
X65398134Y-35050479D01*
X65342991Y-35019093D01*
X65310594Y-34964543D01*
X65283829Y-34870472D01*
X65184658Y-34671311D01*
X65181205Y-34666738D01*
X65054038Y-34498341D01*
X65054034Y-34498337D01*
X65050581Y-34493764D01*
X65046344Y-34489901D01*
X65046340Y-34489897D01*
X64920246Y-34374948D01*
X64886162Y-34343876D01*
X64881291Y-34340860D01*
X64881290Y-34340859D01*
X64701875Y-34229771D01*
X64701876Y-34229771D01*
X64697001Y-34226753D01*
X64489540Y-34146382D01*
X64483902Y-34145328D01*
X64276472Y-34106552D01*
X64276469Y-34106551D01*
X64270843Y-34105500D01*
X64048357Y-34105500D01*
X64042731Y-34106551D01*
X64042727Y-34106552D01*
X63835297Y-34145328D01*
X63835294Y-34145328D01*
X63829660Y-34146382D01*
X63824317Y-34148451D01*
X63824313Y-34148453D01*
X63627541Y-34224683D01*
X63627536Y-34224685D01*
X63622199Y-34226753D01*
X63617327Y-34229769D01*
X63617324Y-34229771D01*
X63437909Y-34340859D01*
X63437901Y-34340864D01*
X63433038Y-34343876D01*
X63428807Y-34347732D01*
X63428803Y-34347736D01*
X63272859Y-34489897D01*
X63272849Y-34489907D01*
X63268619Y-34493764D01*
X63265170Y-34498330D01*
X63265161Y-34498341D01*
X63137994Y-34666738D01*
X63137987Y-34666748D01*
X63134542Y-34671311D01*
X63131992Y-34676431D01*
X63131987Y-34676440D01*
X63037925Y-34865341D01*
X63037921Y-34865349D01*
X63035371Y-34870472D01*
X63033805Y-34875975D01*
X63033801Y-34875986D01*
X62981169Y-35060973D01*
X62974485Y-35084464D01*
X62973956Y-35090169D01*
X62973956Y-35090171D01*
X62960228Y-35238321D01*
X62953957Y-35306000D01*
X60286043Y-35306000D01*
X60265515Y-35084464D01*
X60213939Y-34903194D01*
X60206198Y-34875986D01*
X60206197Y-34875984D01*
X60204629Y-34870472D01*
X60105458Y-34671311D01*
X60102005Y-34666738D01*
X59974838Y-34498341D01*
X59974834Y-34498337D01*
X59971381Y-34493764D01*
X59967144Y-34489901D01*
X59967140Y-34489897D01*
X59841046Y-34374948D01*
X59806962Y-34343876D01*
X59802096Y-34340863D01*
X59802092Y-34340860D01*
X59764622Y-34317660D01*
X59721571Y-34272572D01*
X59705900Y-34212233D01*
X59705900Y-26260694D01*
X59724906Y-26194722D01*
X59776098Y-26148974D01*
X59803678Y-26135692D01*
X59983175Y-26049251D01*
X60206141Y-25897235D01*
X60278476Y-25830118D01*
X62360400Y-25830118D01*
X62360753Y-25836714D01*
X62365973Y-25885267D01*
X62369511Y-25900241D01*
X62413947Y-26019377D01*
X62422362Y-26034789D01*
X62497898Y-26135692D01*
X62510307Y-26148101D01*
X62611210Y-26223637D01*
X62626622Y-26232052D01*
X62745758Y-26276488D01*
X62760732Y-26280026D01*
X62809285Y-26285246D01*
X62815882Y-26285600D01*
X63894074Y-26285600D01*
X63906949Y-26282149D01*
X63910400Y-26269274D01*
X64410400Y-26269274D01*
X64413850Y-26282149D01*
X64426726Y-26285600D01*
X65504918Y-26285600D01*
X65511514Y-26285246D01*
X65560067Y-26280026D01*
X65575041Y-26276488D01*
X65694177Y-26232052D01*
X65709589Y-26223637D01*
X65810492Y-26148101D01*
X65822901Y-26135692D01*
X65898437Y-26034789D01*
X65906852Y-26019377D01*
X65951288Y-25900241D01*
X65954826Y-25885267D01*
X65960046Y-25836714D01*
X65960400Y-25830118D01*
X65960400Y-24751926D01*
X65956949Y-24739050D01*
X65944074Y-24735600D01*
X64426726Y-24735600D01*
X64413850Y-24739050D01*
X64410400Y-24751926D01*
X64410400Y-26269274D01*
X63910400Y-26269274D01*
X63910400Y-24751926D01*
X63906949Y-24739050D01*
X63894074Y-24735600D01*
X62376726Y-24735600D01*
X62363850Y-24739050D01*
X62360400Y-24751926D01*
X62360400Y-25830118D01*
X60278476Y-25830118D01*
X60403961Y-25713685D01*
X60572215Y-25502702D01*
X60707143Y-25268998D01*
X60805734Y-25017795D01*
X60865783Y-24754703D01*
X60885949Y-24485600D01*
X60865991Y-24219274D01*
X62360400Y-24219274D01*
X62363850Y-24232149D01*
X62376726Y-24235600D01*
X63894074Y-24235600D01*
X63906949Y-24232149D01*
X63910400Y-24219274D01*
X64410400Y-24219274D01*
X64413850Y-24232149D01*
X64426726Y-24235600D01*
X65944074Y-24235600D01*
X65956949Y-24232149D01*
X65960400Y-24219274D01*
X65960400Y-23141082D01*
X65960046Y-23134485D01*
X65954826Y-23085932D01*
X65951288Y-23070958D01*
X65906852Y-22951822D01*
X65898437Y-22936410D01*
X65822901Y-22835507D01*
X65810492Y-22823098D01*
X65709589Y-22747562D01*
X65694177Y-22739147D01*
X65575041Y-22694711D01*
X65560067Y-22691173D01*
X65511514Y-22685953D01*
X65504918Y-22685600D01*
X64426726Y-22685600D01*
X64413850Y-22689050D01*
X64410400Y-22701926D01*
X64410400Y-24219274D01*
X63910400Y-24219274D01*
X63910400Y-22701926D01*
X63906949Y-22689050D01*
X63894074Y-22685600D01*
X62815882Y-22685600D01*
X62809285Y-22685953D01*
X62760732Y-22691173D01*
X62745758Y-22694711D01*
X62626622Y-22739147D01*
X62611210Y-22747562D01*
X62510307Y-22823098D01*
X62497898Y-22835507D01*
X62422362Y-22936410D01*
X62413947Y-22951822D01*
X62369511Y-23070958D01*
X62365973Y-23085932D01*
X62360753Y-23134485D01*
X62360400Y-23141082D01*
X62360400Y-24219274D01*
X60865991Y-24219274D01*
X60865783Y-24216497D01*
X60805734Y-23953405D01*
X60707143Y-23702202D01*
X60572215Y-23468498D01*
X60403961Y-23257515D01*
X60259835Y-23123786D01*
X60209546Y-23077124D01*
X60209543Y-23077121D01*
X60206141Y-23073965D01*
X60202312Y-23071354D01*
X60202309Y-23071352D01*
X60062711Y-22976176D01*
X59983175Y-22921949D01*
X59978989Y-22919933D01*
X59744220Y-22806874D01*
X59744214Y-22806871D01*
X59740041Y-22804862D01*
X59735619Y-22803498D01*
X59735609Y-22803494D01*
X59486602Y-22726686D01*
X59486596Y-22726684D01*
X59482172Y-22725320D01*
X59477595Y-22724630D01*
X59477586Y-22724628D01*
X59219914Y-22685791D01*
X59219913Y-22685790D01*
X59215329Y-22685100D01*
X58945471Y-22685100D01*
X58940887Y-22685790D01*
X58940885Y-22685791D01*
X58683213Y-22724628D01*
X58683201Y-22724630D01*
X58678628Y-22725320D01*
X58674206Y-22726683D01*
X58674197Y-22726686D01*
X58425190Y-22803494D01*
X58425175Y-22803499D01*
X58420759Y-22804862D01*
X58416585Y-22806871D01*
X58416580Y-22806874D01*
X58181811Y-22919933D01*
X58181804Y-22919936D01*
X58177626Y-22921949D01*
X58173793Y-22924562D01*
X58173790Y-22924564D01*
X57958490Y-23071352D01*
X57958480Y-23071359D01*
X57954659Y-23073965D01*
X57951263Y-23077116D01*
X57951253Y-23077124D01*
X57760243Y-23254356D01*
X57760239Y-23254359D01*
X57756839Y-23257515D01*
X57753949Y-23261137D01*
X57753946Y-23261142D01*
X57611477Y-23439792D01*
X57588585Y-23468498D01*
X57586266Y-23472513D01*
X57586265Y-23472516D01*
X57455978Y-23698181D01*
X57455975Y-23698186D01*
X57453657Y-23702202D01*
X57451963Y-23706516D01*
X57451961Y-23706522D01*
X57356763Y-23949080D01*
X57355066Y-23953405D01*
X57354033Y-23957926D01*
X57354032Y-23957933D01*
X57296048Y-24211977D01*
X57296046Y-24211985D01*
X57295017Y-24216497D01*
X57294670Y-24221116D01*
X57294670Y-24221122D01*
X57275198Y-24480969D01*
X57274851Y-24485600D01*
X57275198Y-24490231D01*
X57293489Y-24734322D01*
X57295017Y-24754703D01*
X57296047Y-24759216D01*
X57296048Y-24759222D01*
X57353256Y-25009865D01*
X57355066Y-25017795D01*
X57356762Y-25022118D01*
X57356763Y-25022119D01*
X57405435Y-25146133D01*
X57453657Y-25268998D01*
X57588585Y-25502702D01*
X57756839Y-25713685D01*
X57760243Y-25716843D01*
X57941760Y-25885267D01*
X57954659Y-25897235D01*
X58177626Y-26049251D01*
X58320440Y-26118027D01*
X58384702Y-26148974D01*
X58435894Y-26194722D01*
X58454900Y-26260694D01*
X58454900Y-34212233D01*
X58439229Y-34272572D01*
X58396178Y-34317660D01*
X58358707Y-34340860D01*
X58358697Y-34340866D01*
X58353838Y-34343876D01*
X58349607Y-34347732D01*
X58349603Y-34347736D01*
X58193659Y-34489897D01*
X58193649Y-34489907D01*
X58189419Y-34493764D01*
X58185970Y-34498330D01*
X58185961Y-34498341D01*
X58058794Y-34666738D01*
X58058787Y-34666748D01*
X58055342Y-34671311D01*
X58052792Y-34676431D01*
X58052787Y-34676440D01*
X57958725Y-34865341D01*
X57958721Y-34865349D01*
X57956171Y-34870472D01*
X57954605Y-34875975D01*
X57954601Y-34875986D01*
X57929666Y-34963627D01*
X57897267Y-35018181D01*
X57842124Y-35049566D01*
X57778676Y-35049566D01*
X57723533Y-35018181D01*
X57691134Y-34963627D01*
X57666198Y-34875986D01*
X57666197Y-34875984D01*
X57664629Y-34870472D01*
X57565458Y-34671311D01*
X57562005Y-34666738D01*
X57434838Y-34498341D01*
X57434834Y-34498337D01*
X57431381Y-34493764D01*
X57427144Y-34489901D01*
X57427140Y-34489897D01*
X57301046Y-34374948D01*
X57266962Y-34343876D01*
X57262091Y-34340860D01*
X57262090Y-34340859D01*
X57082675Y-34229771D01*
X57082676Y-34229771D01*
X57077801Y-34226753D01*
X56870340Y-34146382D01*
X56864702Y-34145328D01*
X56657272Y-34106552D01*
X56657269Y-34106551D01*
X56651643Y-34105500D01*
X56429157Y-34105500D01*
X56423531Y-34106551D01*
X56423527Y-34106552D01*
X56216097Y-34145328D01*
X56216094Y-34145328D01*
X56210460Y-34146382D01*
X56205117Y-34148451D01*
X56205113Y-34148453D01*
X56008341Y-34224683D01*
X56008336Y-34224685D01*
X56002999Y-34226753D01*
X55998127Y-34229769D01*
X55998124Y-34229771D01*
X55818709Y-34340859D01*
X55818701Y-34340864D01*
X55813838Y-34343876D01*
X55809607Y-34347732D01*
X55809603Y-34347736D01*
X55653659Y-34489897D01*
X55653649Y-34489907D01*
X55649419Y-34493764D01*
X55645970Y-34498330D01*
X55645961Y-34498341D01*
X55518794Y-34666738D01*
X55518787Y-34666748D01*
X55515342Y-34671311D01*
X55512792Y-34676431D01*
X55512787Y-34676440D01*
X55418725Y-34865341D01*
X55418721Y-34865349D01*
X55416171Y-34870472D01*
X55414605Y-34875975D01*
X55414601Y-34875986D01*
X55361969Y-35060973D01*
X55355285Y-35084464D01*
X55354756Y-35090169D01*
X55354756Y-35090171D01*
X55341028Y-35238321D01*
X55334757Y-35306000D01*
X52760899Y-35306000D01*
X52760899Y-34508928D01*
X52754491Y-34449317D01*
X52704196Y-34314469D01*
X52617946Y-34199254D01*
X52546555Y-34145811D01*
X52509831Y-34118319D01*
X52509830Y-34118318D01*
X52502731Y-34113004D01*
X52390555Y-34071165D01*
X52375152Y-34065420D01*
X52375150Y-34065419D01*
X52367883Y-34062709D01*
X52360170Y-34061879D01*
X52360167Y-34061879D01*
X52311580Y-34056655D01*
X52311569Y-34056654D01*
X52308273Y-34056300D01*
X52304950Y-34056300D01*
X50615839Y-34056300D01*
X50615820Y-34056300D01*
X50612528Y-34056301D01*
X50609250Y-34056653D01*
X50609238Y-34056654D01*
X50560631Y-34061879D01*
X50560625Y-34061880D01*
X50552917Y-34062709D01*
X50545652Y-34065418D01*
X50545646Y-34065420D01*
X50426380Y-34109904D01*
X50426378Y-34109904D01*
X50418069Y-34113004D01*
X50410972Y-34118316D01*
X50410968Y-34118319D01*
X50309950Y-34193941D01*
X50309946Y-34193944D01*
X50302854Y-34199254D01*
X50297544Y-34206346D01*
X50297541Y-34206350D01*
X50221919Y-34307368D01*
X50221916Y-34307372D01*
X50216604Y-34314469D01*
X50213504Y-34322778D01*
X50213504Y-34322780D01*
X50169020Y-34442047D01*
X50169019Y-34442050D01*
X50166309Y-34449317D01*
X50165479Y-34457027D01*
X50165479Y-34457032D01*
X50160255Y-34505619D01*
X50160254Y-34505631D01*
X50159900Y-34508927D01*
X50159900Y-34512248D01*
X50159900Y-34512249D01*
X50159900Y-36201360D01*
X50159900Y-36201378D01*
X44835008Y-36201378D01*
X44840447Y-36195939D01*
X44970968Y-36009534D01*
X45067139Y-35803296D01*
X45126035Y-35583492D01*
X45145868Y-35356800D01*
X45126035Y-35130108D01*
X45081427Y-34963627D01*
X45068541Y-34915536D01*
X45068540Y-34915534D01*
X45067139Y-34910304D01*
X44970968Y-34704066D01*
X44840447Y-34517661D01*
X44679539Y-34356753D01*
X44609009Y-34307368D01*
X44497573Y-34229340D01*
X44497571Y-34229339D01*
X44493134Y-34226232D01*
X44319636Y-34145328D01*
X44291805Y-34132350D01*
X44291803Y-34132349D01*
X44286896Y-34130061D01*
X44281671Y-34128661D01*
X44281663Y-34128658D01*
X44072316Y-34072564D01*
X44072307Y-34072562D01*
X44067092Y-34071165D01*
X44061704Y-34070693D01*
X44061701Y-34070693D01*
X43845795Y-34051804D01*
X43840400Y-34051332D01*
X43835005Y-34051804D01*
X43619098Y-34070693D01*
X43619093Y-34070693D01*
X43613708Y-34071165D01*
X43608494Y-34072562D01*
X43608483Y-34072564D01*
X43399136Y-34128658D01*
X43399124Y-34128662D01*
X43393904Y-34130061D01*
X43388999Y-34132347D01*
X43388994Y-34132350D01*
X43192576Y-34223942D01*
X43192572Y-34223944D01*
X43187666Y-34226232D01*
X43183233Y-34229335D01*
X43183226Y-34229340D01*
X43005696Y-34353647D01*
X43005691Y-34353650D01*
X43001261Y-34356753D01*
X42997437Y-34360576D01*
X42997431Y-34360582D01*
X42844182Y-34513831D01*
X42844176Y-34513837D01*
X42840353Y-34517661D01*
X42837250Y-34522091D01*
X42837247Y-34522096D01*
X42712940Y-34699626D01*
X42712935Y-34699633D01*
X42709832Y-34704066D01*
X42707544Y-34708972D01*
X42707542Y-34708976D01*
X42615950Y-34905394D01*
X42615947Y-34905399D01*
X42613661Y-34910304D01*
X42612262Y-34915524D01*
X42612258Y-34915536D01*
X42556164Y-35124883D01*
X42556162Y-35124894D01*
X42554765Y-35130108D01*
X42554293Y-35135493D01*
X42554293Y-35135498D01*
X42544758Y-35244489D01*
X42534932Y-35356800D01*
X36348700Y-35356800D01*
X36348700Y-33014852D01*
X36358139Y-32967399D01*
X36385019Y-32927171D01*
X37105079Y-32207111D01*
X40824111Y-28488078D01*
X40832281Y-28480644D01*
X40838677Y-28476586D01*
X40884718Y-28427556D01*
X40887335Y-28424854D01*
X40906920Y-28405271D01*
X40909385Y-28402092D01*
X40916967Y-28393216D01*
X40946862Y-28361382D01*
X40956513Y-28343823D01*
X40967190Y-28327570D01*
X40979473Y-28311736D01*
X40996826Y-28271632D01*
X41001958Y-28261161D01*
X41019235Y-28229735D01*
X41019235Y-28229734D01*
X41022997Y-28222892D01*
X41027977Y-28203491D01*
X41034281Y-28185081D01*
X41042238Y-28166696D01*
X41049072Y-28123541D01*
X41051438Y-28112121D01*
X41060360Y-28077374D01*
X41062300Y-28069819D01*
X41062300Y-28049783D01*
X41063825Y-28030397D01*
X41066960Y-28010604D01*
X41062850Y-27967124D01*
X41062300Y-27955455D01*
X41062300Y-25250426D01*
X41076311Y-25193169D01*
X41115177Y-25148851D01*
X41119069Y-25146126D01*
X41308201Y-25013695D01*
X41475295Y-24846601D01*
X41610835Y-24653029D01*
X41688909Y-24485600D01*
X46048051Y-24485600D01*
X46048398Y-24490231D01*
X46066689Y-24734322D01*
X46068217Y-24754703D01*
X46069247Y-24759216D01*
X46069248Y-24759222D01*
X46126456Y-25009865D01*
X46128266Y-25017795D01*
X46129962Y-25022118D01*
X46129963Y-25022119D01*
X46178635Y-25146133D01*
X46226857Y-25268998D01*
X46361785Y-25502702D01*
X46530039Y-25713685D01*
X46533443Y-25716843D01*
X46714960Y-25885267D01*
X46727859Y-25897235D01*
X46950826Y-26049251D01*
X47193959Y-26166338D01*
X47198387Y-26167703D01*
X47198390Y-26167705D01*
X47285978Y-26194722D01*
X47451828Y-26245880D01*
X47718671Y-26286100D01*
X47983892Y-26286100D01*
X47988529Y-26286100D01*
X48255372Y-26245880D01*
X48513241Y-26166338D01*
X48756375Y-26049251D01*
X48979341Y-25897235D01*
X49051676Y-25830118D01*
X51133600Y-25830118D01*
X51133953Y-25836714D01*
X51139173Y-25885267D01*
X51142711Y-25900241D01*
X51187147Y-26019377D01*
X51195562Y-26034789D01*
X51271098Y-26135692D01*
X51283507Y-26148101D01*
X51384410Y-26223637D01*
X51399822Y-26232052D01*
X51518958Y-26276488D01*
X51533932Y-26280026D01*
X51582485Y-26285246D01*
X51589082Y-26285600D01*
X52667274Y-26285600D01*
X52680149Y-26282149D01*
X52683600Y-26269274D01*
X53183600Y-26269274D01*
X53187050Y-26282149D01*
X53199926Y-26285600D01*
X54278118Y-26285600D01*
X54284714Y-26285246D01*
X54333267Y-26280026D01*
X54348241Y-26276488D01*
X54467377Y-26232052D01*
X54482789Y-26223637D01*
X54583692Y-26148101D01*
X54596101Y-26135692D01*
X54671637Y-26034789D01*
X54680052Y-26019377D01*
X54724488Y-25900241D01*
X54728026Y-25885267D01*
X54733246Y-25836714D01*
X54733600Y-25830118D01*
X54733600Y-24751926D01*
X54730149Y-24739050D01*
X54717274Y-24735600D01*
X53199926Y-24735600D01*
X53187050Y-24739050D01*
X53183600Y-24751926D01*
X53183600Y-26269274D01*
X52683600Y-26269274D01*
X52683600Y-24751926D01*
X52680149Y-24739050D01*
X52667274Y-24735600D01*
X51149926Y-24735600D01*
X51137050Y-24739050D01*
X51133600Y-24751926D01*
X51133600Y-25830118D01*
X49051676Y-25830118D01*
X49177161Y-25713685D01*
X49345415Y-25502702D01*
X49480343Y-25268998D01*
X49578934Y-25017795D01*
X49638983Y-24754703D01*
X49659149Y-24485600D01*
X49639191Y-24219274D01*
X51133600Y-24219274D01*
X51137050Y-24232149D01*
X51149926Y-24235600D01*
X52667274Y-24235600D01*
X52680149Y-24232149D01*
X52683600Y-24219274D01*
X53183600Y-24219274D01*
X53187050Y-24232149D01*
X53199926Y-24235600D01*
X54717274Y-24235600D01*
X54730149Y-24232149D01*
X54733600Y-24219274D01*
X54733600Y-23141082D01*
X54733246Y-23134485D01*
X54728026Y-23085932D01*
X54724488Y-23070958D01*
X54680052Y-22951822D01*
X54671637Y-22936410D01*
X54596101Y-22835507D01*
X54583692Y-22823098D01*
X54482789Y-22747562D01*
X54467377Y-22739147D01*
X54348241Y-22694711D01*
X54333267Y-22691173D01*
X54284714Y-22685953D01*
X54278118Y-22685600D01*
X53199926Y-22685600D01*
X53187050Y-22689050D01*
X53183600Y-22701926D01*
X53183600Y-24219274D01*
X52683600Y-24219274D01*
X52683600Y-22701926D01*
X52680149Y-22689050D01*
X52667274Y-22685600D01*
X51589082Y-22685600D01*
X51582485Y-22685953D01*
X51533932Y-22691173D01*
X51518958Y-22694711D01*
X51399822Y-22739147D01*
X51384410Y-22747562D01*
X51283507Y-22823098D01*
X51271098Y-22835507D01*
X51195562Y-22936410D01*
X51187147Y-22951822D01*
X51142711Y-23070958D01*
X51139173Y-23085932D01*
X51133953Y-23134485D01*
X51133600Y-23141082D01*
X51133600Y-24219274D01*
X49639191Y-24219274D01*
X49638983Y-24216497D01*
X49578934Y-23953405D01*
X49480343Y-23702202D01*
X49345415Y-23468498D01*
X49177161Y-23257515D01*
X49033035Y-23123786D01*
X48982746Y-23077124D01*
X48982743Y-23077121D01*
X48979341Y-23073965D01*
X48975512Y-23071354D01*
X48975509Y-23071352D01*
X48835911Y-22976176D01*
X48756375Y-22921949D01*
X48752189Y-22919933D01*
X48517420Y-22806874D01*
X48517414Y-22806871D01*
X48513241Y-22804862D01*
X48508819Y-22803498D01*
X48508809Y-22803494D01*
X48259802Y-22726686D01*
X48259796Y-22726684D01*
X48255372Y-22725320D01*
X48250795Y-22724630D01*
X48250786Y-22724628D01*
X47993114Y-22685791D01*
X47993113Y-22685790D01*
X47988529Y-22685100D01*
X47718671Y-22685100D01*
X47714087Y-22685790D01*
X47714085Y-22685791D01*
X47456413Y-22724628D01*
X47456401Y-22724630D01*
X47451828Y-22725320D01*
X47447406Y-22726683D01*
X47447397Y-22726686D01*
X47198390Y-22803494D01*
X47198375Y-22803499D01*
X47193959Y-22804862D01*
X47189785Y-22806871D01*
X47189780Y-22806874D01*
X46955011Y-22919933D01*
X46955004Y-22919936D01*
X46950826Y-22921949D01*
X46946993Y-22924562D01*
X46946990Y-22924564D01*
X46731690Y-23071352D01*
X46731680Y-23071359D01*
X46727859Y-23073965D01*
X46724463Y-23077116D01*
X46724453Y-23077124D01*
X46533443Y-23254356D01*
X46533439Y-23254359D01*
X46530039Y-23257515D01*
X46527149Y-23261137D01*
X46527146Y-23261142D01*
X46384677Y-23439792D01*
X46361785Y-23468498D01*
X46359466Y-23472513D01*
X46359465Y-23472516D01*
X46229178Y-23698181D01*
X46229175Y-23698186D01*
X46226857Y-23702202D01*
X46225163Y-23706516D01*
X46225161Y-23706522D01*
X46129963Y-23949080D01*
X46128266Y-23953405D01*
X46127233Y-23957926D01*
X46127232Y-23957933D01*
X46069248Y-24211977D01*
X46069246Y-24211985D01*
X46068217Y-24216497D01*
X46067870Y-24221116D01*
X46067870Y-24221122D01*
X46048398Y-24480969D01*
X46048051Y-24485600D01*
X41688909Y-24485600D01*
X41710703Y-24438863D01*
X41771863Y-24210608D01*
X41787300Y-24034166D01*
X41787300Y-23616234D01*
X41771863Y-23439792D01*
X41722101Y-23254074D01*
X41712105Y-23216769D01*
X41712104Y-23216767D01*
X41710703Y-23211537D01*
X41610835Y-22997371D01*
X41475295Y-22803799D01*
X41308201Y-22636705D01*
X41303770Y-22633602D01*
X41303766Y-22633599D01*
X41119059Y-22504266D01*
X41119057Y-22504264D01*
X41114630Y-22501165D01*
X41109733Y-22498881D01*
X41109727Y-22498878D01*
X40905372Y-22403586D01*
X40905370Y-22403585D01*
X40900463Y-22401297D01*
X40895238Y-22399897D01*
X40895230Y-22399894D01*
X40677434Y-22341537D01*
X40677430Y-22341536D01*
X40672208Y-22340137D01*
X40666820Y-22339665D01*
X40666817Y-22339665D01*
X40580530Y-22332115D01*
X40538934Y-22320969D01*
X40503658Y-22296268D01*
X39788409Y-21581019D01*
X39054486Y-20847095D01*
X39047042Y-20838914D01*
X39042986Y-20832523D01*
X38993975Y-20786498D01*
X38991178Y-20783787D01*
X38974427Y-20767036D01*
X38971671Y-20764280D01*
X38968490Y-20761812D01*
X38959614Y-20754230D01*
X38933469Y-20729678D01*
X38933467Y-20729676D01*
X38927782Y-20724338D01*
X38920949Y-20720582D01*
X38920943Y-20720577D01*
X38910225Y-20714685D01*
X38893966Y-20704006D01*
X38884295Y-20696504D01*
X38884292Y-20696502D01*
X38878136Y-20691727D01*
X38870979Y-20688629D01*
X38870976Y-20688628D01*
X38838049Y-20674378D01*
X38827563Y-20669241D01*
X38796132Y-20651962D01*
X38796123Y-20651958D01*
X38789292Y-20648203D01*
X38781735Y-20646262D01*
X38781731Y-20646261D01*
X38769888Y-20643220D01*
X38751484Y-20636919D01*
X38740257Y-20632060D01*
X38740250Y-20632058D01*
X38733096Y-20628962D01*
X38725392Y-20627741D01*
X38725390Y-20627741D01*
X38689959Y-20622129D01*
X38678524Y-20619761D01*
X38643771Y-20610838D01*
X38643763Y-20610837D01*
X38636219Y-20608900D01*
X38628423Y-20608900D01*
X38616183Y-20608900D01*
X38596797Y-20607374D01*
X38577004Y-20604240D01*
X38569238Y-20604974D01*
X38569235Y-20604974D01*
X38533524Y-20608350D01*
X38521855Y-20608900D01*
X31472171Y-20608900D01*
X31461118Y-20608379D01*
X31453732Y-20606728D01*
X31445934Y-20606973D01*
X31386544Y-20608839D01*
X31382650Y-20608900D01*
X31355050Y-20608900D01*
X31351199Y-20609386D01*
X31351168Y-20609388D01*
X31351040Y-20609405D01*
X31339429Y-20610318D01*
X31303572Y-20611445D01*
X31303565Y-20611446D01*
X31295773Y-20611691D01*
X31288288Y-20613865D01*
X31288272Y-20613868D01*
X31276526Y-20617281D01*
X31257483Y-20621225D01*
X31245349Y-20622758D01*
X31245348Y-20622758D01*
X31237608Y-20623736D01*
X31230358Y-20626605D01*
X31230351Y-20626608D01*
X31196998Y-20639813D01*
X31185954Y-20643594D01*
X31151505Y-20653603D01*
X31151495Y-20653607D01*
X31144010Y-20655782D01*
X31137300Y-20659749D01*
X31137298Y-20659751D01*
X31133905Y-20661757D01*
X31126760Y-20665983D01*
X31109300Y-20674536D01*
X31090668Y-20681914D01*
X31084365Y-20686492D01*
X31084358Y-20686497D01*
X31055339Y-20707581D01*
X31045579Y-20713992D01*
X31014694Y-20732257D01*
X31014684Y-20732264D01*
X31007979Y-20736230D01*
X31002463Y-20741745D01*
X31002460Y-20741748D01*
X30993807Y-20750400D01*
X30979024Y-20763026D01*
X30969127Y-20770217D01*
X30969120Y-20770223D01*
X30962813Y-20774806D01*
X30957846Y-20780808D01*
X30957835Y-20780820D01*
X30934970Y-20808459D01*
X30927110Y-20817097D01*
X29737096Y-22007111D01*
X29728911Y-22014559D01*
X29722523Y-22018614D01*
X29717188Y-22024294D01*
X29717183Y-22024299D01*
X29676496Y-22067625D01*
X29673792Y-22070416D01*
X29657028Y-22087180D01*
X29657021Y-22087187D01*
X29654280Y-22089929D01*
X29651900Y-22092996D01*
X29651889Y-22093009D01*
X29651800Y-22093125D01*
X29644242Y-22101970D01*
X29619680Y-22128127D01*
X29619673Y-22128136D01*
X29614338Y-22133818D01*
X29610582Y-22140649D01*
X29610579Y-22140654D01*
X29604685Y-22151375D01*
X29594009Y-22167627D01*
X29586509Y-22177296D01*
X29586501Y-22177307D01*
X29581727Y-22183464D01*
X29578634Y-22190608D01*
X29578629Y-22190619D01*
X29564374Y-22223560D01*
X29559238Y-22234043D01*
X29541960Y-22265473D01*
X29538203Y-22272308D01*
X29536264Y-22279856D01*
X29536263Y-22279861D01*
X29533222Y-22291707D01*
X29526921Y-22310111D01*
X29522058Y-22321348D01*
X29522056Y-22321352D01*
X29518962Y-22328504D01*
X29517742Y-22336203D01*
X29517742Y-22336205D01*
X29512129Y-22371641D01*
X29509761Y-22383076D01*
X29498900Y-22425380D01*
X29497128Y-22424925D01*
X29481652Y-22466523D01*
X29445857Y-22500145D01*
X29446571Y-22501165D01*
X29257434Y-22633599D01*
X29257429Y-22633602D01*
X29252999Y-22636705D01*
X29249174Y-22640529D01*
X29249175Y-22640529D01*
X29104860Y-22784844D01*
X29054465Y-22815423D01*
X28995644Y-22819278D01*
X28941690Y-22795536D01*
X28909604Y-22755555D01*
X28908758Y-22756078D01*
X28820509Y-22613005D01*
X28811605Y-22601744D01*
X28697855Y-22487994D01*
X28686594Y-22479090D01*
X28549666Y-22394632D01*
X28536667Y-22388570D01*
X28383525Y-22337824D01*
X28370358Y-22335005D01*
X28277509Y-22325519D01*
X28271232Y-22325200D01*
X27890726Y-22325200D01*
X27877850Y-22328650D01*
X27874400Y-22341526D01*
X27874400Y-25308873D01*
X27374400Y-25308873D01*
X27374400Y-24091526D01*
X27370949Y-24078650D01*
X27358074Y-24075200D01*
X26290727Y-24075200D01*
X26277851Y-24078650D01*
X26274401Y-24091526D01*
X26274401Y-24622029D01*
X17830800Y-24622029D01*
X17830800Y-22199600D01*
X18871612Y-22199600D01*
X18871928Y-22204018D01*
X18890424Y-22462642D01*
X18890425Y-22462651D01*
X18890741Y-22467065D01*
X18891681Y-22471390D01*
X18891683Y-22471398D01*
X18934623Y-22668786D01*
X18947740Y-22729085D01*
X18949283Y-22733224D01*
X18949285Y-22733228D01*
X19022395Y-22929241D01*
X19041449Y-22980326D01*
X19043569Y-22984208D01*
X19043572Y-22984215D01*
X19167831Y-23211780D01*
X19167835Y-23211787D01*
X19169958Y-23215674D01*
X19172615Y-23219223D01*
X19328000Y-23426794D01*
X19328005Y-23426800D01*
X19330653Y-23430337D01*
X19520263Y-23619947D01*
X19523800Y-23622595D01*
X19523805Y-23622599D01*
X19586020Y-23669172D01*
X19734926Y-23780642D01*
X19738816Y-23782766D01*
X19738819Y-23782768D01*
X19964152Y-23905808D01*
X19970274Y-23909151D01*
X20221515Y-24002860D01*
X20483535Y-24059859D01*
X20751000Y-24078988D01*
X21018465Y-24059859D01*
X21280485Y-24002860D01*
X21531726Y-23909151D01*
X21767074Y-23780642D01*
X21981737Y-23619947D01*
X22042810Y-23558874D01*
X26274400Y-23558874D01*
X26277850Y-23571749D01*
X26290726Y-23575200D01*
X27358074Y-23575200D01*
X27370949Y-23571749D01*
X27374400Y-23558874D01*
X27374400Y-22341527D01*
X27370949Y-22328651D01*
X27358074Y-22325201D01*
X26977571Y-22325201D01*
X26971288Y-22325521D01*
X26878440Y-22335005D01*
X26865277Y-22337823D01*
X26712132Y-22388570D01*
X26699133Y-22394632D01*
X26562205Y-22479090D01*
X26550944Y-22487994D01*
X26437194Y-22601744D01*
X26428290Y-22613005D01*
X26343832Y-22749933D01*
X26337770Y-22762932D01*
X26287024Y-22916074D01*
X26284205Y-22929241D01*
X26274719Y-23022090D01*
X26274400Y-23028368D01*
X26274400Y-23558874D01*
X22042810Y-23558874D01*
X22171347Y-23430337D01*
X22332042Y-23215674D01*
X22460551Y-22980326D01*
X22554260Y-22729085D01*
X22611259Y-22467065D01*
X22630388Y-22199600D01*
X22611259Y-21932135D01*
X22554260Y-21670115D01*
X22460551Y-21418874D01*
X22453177Y-21405370D01*
X22334168Y-21187419D01*
X22334166Y-21187416D01*
X22332042Y-21183526D01*
X22209126Y-21019330D01*
X22173999Y-20972405D01*
X22173995Y-20972400D01*
X22171347Y-20968863D01*
X21981737Y-20779253D01*
X21978200Y-20776605D01*
X21978194Y-20776600D01*
X21816799Y-20655782D01*
X21767074Y-20618558D01*
X21763187Y-20616435D01*
X21763180Y-20616431D01*
X21535615Y-20492172D01*
X21535608Y-20492169D01*
X21531726Y-20490049D01*
X21527576Y-20488501D01*
X21284628Y-20397885D01*
X21284624Y-20397883D01*
X21280485Y-20396340D01*
X21203533Y-20379600D01*
X21022798Y-20340283D01*
X21022790Y-20340281D01*
X21018465Y-20339341D01*
X21014051Y-20339025D01*
X21014042Y-20339024D01*
X20755418Y-20320528D01*
X20751000Y-20320212D01*
X20746582Y-20320528D01*
X20487957Y-20339024D01*
X20487946Y-20339025D01*
X20483535Y-20339341D01*
X20479211Y-20340281D01*
X20479201Y-20340283D01*
X20225840Y-20395399D01*
X20225837Y-20395399D01*
X20221515Y-20396340D01*
X20217379Y-20397882D01*
X20217371Y-20397885D01*
X19974423Y-20488501D01*
X19974417Y-20488503D01*
X19970274Y-20490049D01*
X19966396Y-20492166D01*
X19966384Y-20492172D01*
X19738819Y-20616431D01*
X19738805Y-20616439D01*
X19734926Y-20618558D01*
X19731380Y-20621211D01*
X19731376Y-20621215D01*
X19523805Y-20776600D01*
X19523792Y-20776610D01*
X19520263Y-20779253D01*
X19517137Y-20782378D01*
X19517130Y-20782385D01*
X19333785Y-20965730D01*
X19333778Y-20965737D01*
X19330653Y-20968863D01*
X19328010Y-20972392D01*
X19328000Y-20972405D01*
X19172615Y-21179976D01*
X19172611Y-21179980D01*
X19169958Y-21183526D01*
X19167839Y-21187405D01*
X19167831Y-21187419D01*
X19043572Y-21414984D01*
X19043566Y-21414996D01*
X19041449Y-21418874D01*
X19039903Y-21423017D01*
X19039901Y-21423023D01*
X18949285Y-21665971D01*
X18949282Y-21665979D01*
X18947740Y-21670115D01*
X18946799Y-21674437D01*
X18946799Y-21674440D01*
X18891683Y-21927801D01*
X18891681Y-21927811D01*
X18890741Y-21932135D01*
X18890425Y-21936546D01*
X18890424Y-21936557D01*
X18874238Y-22162882D01*
X18871612Y-22199600D01*
X17830800Y-22199600D01*
X17830800Y-19428079D01*
X17847426Y-19366056D01*
X17892846Y-19320666D01*
X17954879Y-19304079D01*
X41033193Y-19318759D01*
G37*
%TD.AperFunction*%
%TD*%
M02*
