%TF.GenerationSoftware,KiCad,Pcbnew,(7.0.0-0)*%
%TF.CreationDate,2023-08-10T08:46:55-05:00*%
%TF.ProjectId,DingoPCB,44696e67-6f50-4434-922e-6b696361645f,rev?*%
%TF.SameCoordinates,Original*%
%TF.FileFunction,Drillmap*%
%TF.FilePolarity,Positive*%
%FSLAX45Y45*%
G04 Gerber Fmt 4.5, Leading zero omitted, Abs format (unit mm)*
G04 Created by KiCad (PCBNEW (7.0.0-0)) date 2023-08-10 08:46:55*
%MOMM*%
%LPD*%
G01*
G04 APERTURE LIST*
%ADD10C,0.100000*%
%ADD11C,0.200000*%
G04 APERTURE END LIST*
D10*
X1775100Y-1925320D02*
X9775100Y-1925320D01*
X9775100Y-1925320D02*
X9775100Y-5925320D01*
X9775100Y-5925320D02*
X1775100Y-5925320D01*
X1775100Y-5925320D02*
X1775100Y-1925320D01*
X2262510Y-2219960D02*
G75*
G03*
X2262510Y-2219960I-187410J0D01*
G01*
X2229850Y-5625320D02*
G75*
G03*
X2229850Y-5625320I-187410J0D01*
G01*
X9629850Y-5625320D02*
G75*
G03*
X9629850Y-5625320I-187410J0D01*
G01*
X9629850Y-2225320D02*
G75*
G03*
X9629850Y-2225320I-187410J0D01*
G01*
D11*
X2017719Y-6223796D02*
X2017719Y-6023796D01*
X2017719Y-6023796D02*
X2065338Y-6023796D01*
X2065338Y-6023796D02*
X2093909Y-6033320D01*
X2093909Y-6033320D02*
X2112957Y-6052368D01*
X2112957Y-6052368D02*
X2122481Y-6071415D01*
X2122481Y-6071415D02*
X2132005Y-6109510D01*
X2132005Y-6109510D02*
X2132005Y-6138082D01*
X2132005Y-6138082D02*
X2122481Y-6176177D01*
X2122481Y-6176177D02*
X2112957Y-6195225D01*
X2112957Y-6195225D02*
X2093909Y-6214272D01*
X2093909Y-6214272D02*
X2065338Y-6223796D01*
X2065338Y-6223796D02*
X2017719Y-6223796D01*
X2217719Y-6223796D02*
X2217719Y-6090463D01*
X2217719Y-6128558D02*
X2227243Y-6109510D01*
X2227243Y-6109510D02*
X2236767Y-6099987D01*
X2236767Y-6099987D02*
X2255814Y-6090463D01*
X2255814Y-6090463D02*
X2274862Y-6090463D01*
X2341529Y-6223796D02*
X2341529Y-6090463D01*
X2341529Y-6023796D02*
X2332005Y-6033320D01*
X2332005Y-6033320D02*
X2341529Y-6042844D01*
X2341529Y-6042844D02*
X2351052Y-6033320D01*
X2351052Y-6033320D02*
X2341529Y-6023796D01*
X2341529Y-6023796D02*
X2341529Y-6042844D01*
X2465338Y-6223796D02*
X2446290Y-6214272D01*
X2446290Y-6214272D02*
X2436767Y-6195225D01*
X2436767Y-6195225D02*
X2436767Y-6023796D01*
X2570100Y-6223796D02*
X2551052Y-6214272D01*
X2551052Y-6214272D02*
X2541529Y-6195225D01*
X2541529Y-6195225D02*
X2541529Y-6023796D01*
X2766290Y-6223796D02*
X2766290Y-6023796D01*
X2766290Y-6023796D02*
X2832957Y-6166653D01*
X2832957Y-6166653D02*
X2899624Y-6023796D01*
X2899624Y-6023796D02*
X2899624Y-6223796D01*
X3080576Y-6223796D02*
X3080576Y-6119034D01*
X3080576Y-6119034D02*
X3071052Y-6099987D01*
X3071052Y-6099987D02*
X3052005Y-6090463D01*
X3052005Y-6090463D02*
X3013909Y-6090463D01*
X3013909Y-6090463D02*
X2994862Y-6099987D01*
X3080576Y-6214272D02*
X3061528Y-6223796D01*
X3061528Y-6223796D02*
X3013909Y-6223796D01*
X3013909Y-6223796D02*
X2994862Y-6214272D01*
X2994862Y-6214272D02*
X2985338Y-6195225D01*
X2985338Y-6195225D02*
X2985338Y-6176177D01*
X2985338Y-6176177D02*
X2994862Y-6157129D01*
X2994862Y-6157129D02*
X3013909Y-6147606D01*
X3013909Y-6147606D02*
X3061528Y-6147606D01*
X3061528Y-6147606D02*
X3080576Y-6138082D01*
X3175814Y-6090463D02*
X3175814Y-6290463D01*
X3175814Y-6099987D02*
X3194862Y-6090463D01*
X3194862Y-6090463D02*
X3232957Y-6090463D01*
X3232957Y-6090463D02*
X3252005Y-6099987D01*
X3252005Y-6099987D02*
X3261528Y-6109510D01*
X3261528Y-6109510D02*
X3271052Y-6128558D01*
X3271052Y-6128558D02*
X3271052Y-6185701D01*
X3271052Y-6185701D02*
X3261528Y-6204748D01*
X3261528Y-6204748D02*
X3252005Y-6214272D01*
X3252005Y-6214272D02*
X3232957Y-6223796D01*
X3232957Y-6223796D02*
X3194862Y-6223796D01*
X3194862Y-6223796D02*
X3175814Y-6214272D01*
X3356767Y-6204748D02*
X3366290Y-6214272D01*
X3366290Y-6214272D02*
X3356767Y-6223796D01*
X3356767Y-6223796D02*
X3347243Y-6214272D01*
X3347243Y-6214272D02*
X3356767Y-6204748D01*
X3356767Y-6204748D02*
X3356767Y-6223796D01*
X3356767Y-6099987D02*
X3366290Y-6109510D01*
X3366290Y-6109510D02*
X3356767Y-6119034D01*
X3356767Y-6119034D02*
X3347243Y-6109510D01*
X3347243Y-6109510D02*
X3356767Y-6099987D01*
X3356767Y-6099987D02*
X3356767Y-6119034D01*
M02*
