M48
; DRILL file {KiCad (7.0.0-0)} date Tuesday, August 08, 2023 at 08:11:34 PM
; FORMAT={-:-/ absolute / inch / decimal}
; #@! TF.CreationDate,2023-08-08T20:11:34-05:00
; #@! TF.GenerationSoftware,Kicad,Pcbnew,(7.0.0-0)
; #@! TF.FileFunction,Plated,1,2,PTH
FMAT,2
INCH
; #@! TA.AperFunction,Plated,PTH,ComponentDrill
T1C0.0276
; #@! TA.AperFunction,Plated,PTH,ComponentDrill
T2C0.0315
; #@! TA.AperFunction,Plated,PTH,ComponentDrill
T3C0.0394
; #@! TA.AperFunction,Plated,PTH,ComponentDrill
T4C0.0512
%
G90
G05
T1
X1.54Y-0.632
X1.64Y-0.632
X1.84Y-0.632
X1.94Y-0.632
T2
X1.04Y-0.634
X1.34Y-0.634
T3
X0.4016Y-0.18
X0.4256Y-1.378
X0.5Y-0.18
X0.524Y-1.378
X0.622Y-0.848
X0.7204Y-0.848
X0.8076Y-0.18
X0.906Y-0.18
X0.9976Y-0.848
X1.096Y-0.848
X1.3516Y-0.848
X1.45Y-0.848
X1.698Y-0.848
X1.7964Y-0.848
X2.046Y-0.848
X2.1444Y-0.848
X2.308Y-1.376
X2.396Y-0.85
X2.4064Y-1.376
X2.4944Y-0.85
X2.634Y-0.168
X2.682Y-1.376
X2.7324Y-0.168
X2.7804Y-1.376
T4
X0.218Y-0.76
X0.218Y-0.96
X0.802Y-1.368
X1.002Y-1.368
X1.168Y-0.206
X1.332Y-1.37
X1.368Y-0.206
X1.532Y-1.37
X1.64Y-0.206
X1.83Y-1.37
X1.84Y-0.206
X2.03Y-1.37
X2.104Y-0.206
X2.304Y-0.206
X2.952Y-0.78
X2.952Y-0.98
T0
M30
