%TF.GenerationSoftware,KiCad,Pcbnew,(7.0.0-0)*%
%TF.CreationDate,2023-08-10T08:47:01-05:00*%
%TF.ProjectId,DingoPCB,44696e67-6f50-4434-922e-6b696361645f,rev?*%
%TF.SameCoordinates,Original*%
%TF.FileFunction,Soldermask,Top*%
%TF.FilePolarity,Negative*%
%FSLAX46Y46*%
G04 Gerber Fmt 4.6, Leading zero omitted, Abs format (unit mm)*
G04 Created by KiCad (PCBNEW (7.0.0-0)) date 2023-08-10 08:47:01*
%MOMM*%
%LPD*%
G01*
G04 APERTURE LIST*
G04 Aperture macros list*
%AMRoundRect*
0 Rectangle with rounded corners*
0 $1 Rounding radius*
0 $2 $3 $4 $5 $6 $7 $8 $9 X,Y pos of 4 corners*
0 Add a 4 corners polygon primitive as box body*
4,1,4,$2,$3,$4,$5,$6,$7,$8,$9,$2,$3,0*
0 Add four circle primitives for the rounded corners*
1,1,$1+$1,$2,$3*
1,1,$1+$1,$4,$5*
1,1,$1+$1,$6,$7*
1,1,$1+$1,$8,$9*
0 Add four rect primitives between the rounded corners*
20,1,$1+$1,$2,$3,$4,$5,0*
20,1,$1+$1,$4,$5,$6,$7,0*
20,1,$1+$1,$6,$7,$8,$9,0*
20,1,$1+$1,$8,$9,$2,$3,0*%
G04 Aperture macros list end*
%ADD10RoundRect,0.250000X-0.600000X-0.750000X0.600000X-0.750000X0.600000X0.750000X-0.600000X0.750000X0*%
%ADD11O,1.700000X2.000000*%
%ADD12R,2.600000X2.600000*%
%ADD13C,2.600000*%
%ADD14C,1.400000*%
%ADD15O,1.400000X1.400000*%
%ADD16R,1.600000X1.600000*%
%ADD17O,1.600000X1.600000*%
G04 APERTURE END LIST*
D10*
%TO.C,J12*%
X42762800Y-40792400D03*
D11*
X45262799Y-40792399D03*
%TD*%
D12*
%TO.C,J1*%
X22961599Y-38557199D03*
D13*
X22961600Y-43637200D03*
%TD*%
D10*
%TO.C,J11*%
X60553600Y-40792400D03*
D11*
X63053599Y-40792399D03*
%TD*%
D14*
%TO.C,R2*%
X64159600Y-35306000D03*
D15*
X66699599Y-35305999D03*
%TD*%
D12*
%TO.C,J4*%
X51257199Y-54051199D03*
D13*
X56337200Y-54051200D03*
%TD*%
D10*
%TO.C,J20*%
X84328000Y-23520400D03*
D11*
X86827999Y-23520399D03*
%TD*%
D12*
%TO.C,J2*%
X52933599Y-24485599D03*
D13*
X47853600Y-24485600D03*
%TD*%
D10*
%TO.C,J8*%
X69392800Y-40792400D03*
D11*
X71892799Y-40792399D03*
%TD*%
D10*
%TO.C,J9*%
X33223200Y-40792400D03*
D11*
X35723199Y-40792399D03*
%TD*%
D12*
%TO.C,J7*%
X75387199Y-24485599D03*
D13*
X70307200Y-24485600D03*
%TD*%
D10*
%TO.C,J17*%
X28234000Y-54254400D03*
D11*
X30733999Y-54254399D03*
%TD*%
D10*
%TO.C,J14*%
X51754400Y-40792400D03*
D11*
X54254399Y-40792399D03*
%TD*%
D16*
%TO.C,D1*%
X51460399Y-35356799D03*
D17*
X43840399Y-35356799D03*
%TD*%
D10*
%TO.C,J18*%
X85547200Y-54203600D03*
D11*
X88047199Y-54203599D03*
%TD*%
D14*
%TO.C,R1*%
X56540400Y-35306000D03*
D15*
X59080399Y-35305999D03*
%TD*%
D10*
%TO.C,J15*%
X27624400Y-23825200D03*
D11*
X30124399Y-23825199D03*
%TD*%
D10*
%TO.C,J13*%
X78282800Y-40843200D03*
D11*
X80782799Y-40843199D03*
%TD*%
D12*
%TO.C,J3*%
X40030399Y-54051199D03*
D13*
X45110400Y-54051200D03*
%TD*%
D10*
%TO.C,J16*%
X37936800Y-23825200D03*
D11*
X40436799Y-23825199D03*
%TD*%
D12*
%TO.C,J5*%
X62478999Y-54051399D03*
D13*
X67559000Y-54051400D03*
%TD*%
D12*
%TO.C,J6*%
X92405199Y-44145199D03*
D13*
X92405200Y-39065200D03*
%TD*%
D12*
%TO.C,J10*%
X64160399Y-24485599D03*
D13*
X59080400Y-24485600D03*
%TD*%
D10*
%TO.C,J19*%
X76047600Y-54203600D03*
D11*
X78547599Y-54203599D03*
%TD*%
M02*
