%TF.GenerationSoftware,KiCad,Pcbnew,7.0.7*%
%TF.CreationDate,2023-09-26T10:41:06-05:00*%
%TF.ProjectId,DingoPCB,44696e67-6f50-4434-922e-6b696361645f,rev?*%
%TF.SameCoordinates,Original*%
%TF.FileFunction,Soldermask,Bot*%
%TF.FilePolarity,Negative*%
%FSLAX46Y46*%
G04 Gerber Fmt 4.6, Leading zero omitted, Abs format (unit mm)*
G04 Created by KiCad (PCBNEW 7.0.7) date 2023-09-26 10:41:06*
%MOMM*%
%LPD*%
G01*
G04 APERTURE LIST*
G04 Aperture macros list*
%AMRoundRect*
0 Rectangle with rounded corners*
0 $1 Rounding radius*
0 $2 $3 $4 $5 $6 $7 $8 $9 X,Y pos of 4 corners*
0 Add a 4 corners polygon primitive as box body*
4,1,4,$2,$3,$4,$5,$6,$7,$8,$9,$2,$3,0*
0 Add four circle primitives for the rounded corners*
1,1,$1+$1,$2,$3*
1,1,$1+$1,$4,$5*
1,1,$1+$1,$6,$7*
1,1,$1+$1,$8,$9*
0 Add four rect primitives between the rounded corners*
20,1,$1+$1,$2,$3,$4,$5,0*
20,1,$1+$1,$4,$5,$6,$7,0*
20,1,$1+$1,$6,$7,$8,$9,0*
20,1,$1+$1,$8,$9,$2,$3,0*%
G04 Aperture macros list end*
%ADD10R,1.700000X1.700000*%
%ADD11O,1.700000X1.700000*%
%ADD12R,2.600000X2.600000*%
%ADD13C,2.600000*%
%ADD14RoundRect,0.250000X-0.750000X0.600000X-0.750000X-0.600000X0.750000X-0.600000X0.750000X0.600000X0*%
%ADD15O,2.000000X1.700000*%
%ADD16C,1.524000*%
%ADD17RoundRect,0.250000X-0.600000X-0.725000X0.600000X-0.725000X0.600000X0.725000X-0.600000X0.725000X0*%
%ADD18O,1.700000X1.950000*%
%ADD19C,1.400000*%
%ADD20O,1.400000X1.400000*%
%ADD21RoundRect,0.250000X-0.600000X-0.750000X0.600000X-0.750000X0.600000X0.750000X-0.600000X0.750000X0*%
%ADD22O,1.700000X2.000000*%
%ADD23RoundRect,0.250000X0.600000X0.725000X-0.600000X0.725000X-0.600000X-0.725000X0.600000X-0.725000X0*%
%ADD24RoundRect,0.250000X0.750000X-0.600000X0.750000X0.600000X-0.750000X0.600000X-0.750000X-0.600000X0*%
%ADD25C,3.000000*%
%ADD26C,2.000000*%
G04 APERTURE END LIST*
D10*
%TO.C,J20*%
X72390000Y-53913800D03*
D11*
X72390000Y-56453800D03*
X72390000Y-58993800D03*
%TD*%
D12*
%TO.C,J8*%
X39217600Y-152146000D03*
D13*
X44297600Y-152146000D03*
%TD*%
D14*
%TO.C,J7*%
X44754800Y-32207200D03*
D15*
X44754800Y-34707200D03*
%TD*%
D16*
%TO.C,U3*%
X84226400Y-142341600D03*
X84226400Y-144881600D03*
X84226400Y-147421600D03*
X86766400Y-142341600D03*
X86766400Y-144881600D03*
X86766400Y-147421600D03*
X89306400Y-142341600D03*
X89306400Y-144881600D03*
X89306400Y-147421600D03*
%TD*%
D17*
%TO.C,J58*%
X83921600Y-55626000D03*
D18*
X86421600Y-55626000D03*
X88921600Y-55626000D03*
X91421600Y-55626000D03*
%TD*%
D10*
%TO.C,J51*%
X60045600Y-44297600D03*
D11*
X62585600Y-44297600D03*
X65125600Y-44297600D03*
%TD*%
D17*
%TO.C,J59*%
X84092400Y-64058800D03*
D18*
X86592400Y-64058800D03*
X89092400Y-64058800D03*
X91592400Y-64058800D03*
%TD*%
D19*
%TO.C,R2*%
X38000000Y-55000000D03*
D20*
X38000000Y-57540000D03*
%TD*%
D14*
%TO.C,J12*%
X53035200Y-26670000D03*
D15*
X53035200Y-29170000D03*
%TD*%
D10*
%TO.C,J53*%
X59080400Y-105511600D03*
D11*
X56540400Y-105511600D03*
X54000400Y-105511600D03*
%TD*%
D14*
%TO.C,J14*%
X62534800Y-26314400D03*
D15*
X62534800Y-28814400D03*
%TD*%
D16*
%TO.C,U6*%
X31038800Y-31394400D03*
X31038800Y-28854400D03*
X31038800Y-26314400D03*
X28498800Y-31394400D03*
X28498800Y-28854400D03*
X28498800Y-26314400D03*
X25958800Y-31394400D03*
X25958800Y-28854400D03*
X25958800Y-26314400D03*
%TD*%
D10*
%TO.C,J50*%
X60045600Y-40640000D03*
D11*
X62585600Y-40640000D03*
X65125600Y-40640000D03*
%TD*%
D10*
%TO.C,J55*%
X80807800Y-109626400D03*
D11*
X78267800Y-109626400D03*
X75727800Y-109626400D03*
%TD*%
D10*
%TO.C,J17*%
X59182000Y-101498400D03*
D11*
X56642000Y-101498400D03*
X54102000Y-101498400D03*
%TD*%
D10*
%TO.C,J54*%
X54051200Y-109575600D03*
D11*
X56591200Y-109575600D03*
X59131200Y-109575600D03*
%TD*%
D21*
%TO.C,J9*%
X52262400Y-143052800D03*
D22*
X54762400Y-143052800D03*
%TD*%
D10*
%TO.C,J18*%
X80873600Y-105664000D03*
D11*
X78333600Y-105664000D03*
X75793600Y-105664000D03*
%TD*%
D12*
%TO.C,J13*%
X76504800Y-16154400D03*
D13*
X71424800Y-16154400D03*
%TD*%
D12*
%TO.C,J6*%
X53949600Y-16154400D03*
D13*
X48869600Y-16154400D03*
%TD*%
D19*
%TO.C,R1*%
X38000000Y-49000000D03*
D20*
X38000000Y-51540000D03*
%TD*%
D10*
%TO.C,J16*%
X70561200Y-101346000D03*
D11*
X68021200Y-101346000D03*
X65481200Y-101346000D03*
%TD*%
D16*
%TO.C,U7*%
X33324800Y-150012400D03*
X33324800Y-147472400D03*
X33324800Y-144932400D03*
X30784800Y-150012400D03*
X30784800Y-147472400D03*
X30784800Y-144932400D03*
X28244800Y-150012400D03*
X28244800Y-147472400D03*
X28244800Y-144932400D03*
%TD*%
D10*
%TO.C,J24*%
X46772800Y-105350400D03*
D11*
X46772800Y-102810400D03*
X46772800Y-100270400D03*
X46772800Y-97730400D03*
X46772800Y-95190400D03*
X46772800Y-92650400D03*
X46772800Y-90110400D03*
X46772800Y-87570400D03*
X46772800Y-85030400D03*
X46772800Y-82490400D03*
X46772800Y-79950400D03*
X46772800Y-77410400D03*
X46772800Y-74870400D03*
X46772800Y-72330400D03*
X46772800Y-69790400D03*
%TD*%
D12*
%TO.C,J5*%
X100380800Y-40081200D03*
D13*
X100380800Y-35001200D03*
%TD*%
D10*
%TO.C,J57*%
X79654400Y-146405600D03*
D11*
X77114400Y-146405600D03*
X74574400Y-146405600D03*
X72034400Y-146405600D03*
X69494400Y-146405600D03*
X66954400Y-146405600D03*
X64414400Y-146405600D03*
X61874400Y-146405600D03*
%TD*%
D12*
%TO.C,J4*%
X42621200Y-16154400D03*
D13*
X37541200Y-16154400D03*
%TD*%
D10*
%TO.C,J10*%
X70815200Y-105613200D03*
D11*
X68275200Y-105613200D03*
X65735200Y-105613200D03*
%TD*%
D16*
%TO.C,U5*%
X92354400Y-22352000D03*
X92354400Y-24892000D03*
X92354400Y-27432000D03*
X94894400Y-22352000D03*
X94894400Y-24892000D03*
X94894400Y-27432000D03*
X97434400Y-22352000D03*
X97434400Y-24892000D03*
X97434400Y-27432000D03*
%TD*%
D10*
%TO.C,J19*%
X77266800Y-101788200D03*
D11*
X77266800Y-99248200D03*
X77266800Y-96708200D03*
%TD*%
D19*
%TO.C,R3*%
X44000000Y-49000000D03*
D20*
X44000000Y-51540000D03*
%TD*%
D23*
%TO.C,J60*%
X95768800Y-17526000D03*
D18*
X93268800Y-17526000D03*
X90768800Y-17526000D03*
X88268800Y-17526000D03*
X85768800Y-17526000D03*
X83268800Y-17526000D03*
%TD*%
D12*
%TO.C,J3*%
X22961600Y-50393600D03*
D13*
X22961600Y-55473600D03*
%TD*%
D19*
%TO.C,R4*%
X44000000Y-55000000D03*
D20*
X44000000Y-57540000D03*
%TD*%
D10*
%TO.C,J49*%
X60045600Y-36982400D03*
D11*
X62585600Y-36982400D03*
X65125600Y-36982400D03*
%TD*%
D12*
%TO.C,J11*%
X65278000Y-16154400D03*
D13*
X60198000Y-16154400D03*
%TD*%
D24*
%TO.C,J15*%
X70662800Y-28814400D03*
D15*
X70662800Y-26314400D03*
%TD*%
D12*
%TO.C,J2*%
X23012400Y-39166800D03*
D13*
X23012400Y-44246800D03*
%TD*%
D10*
%TO.C,J25*%
X31532800Y-69790400D03*
D11*
X31532800Y-72330400D03*
X31532800Y-74870400D03*
X31532800Y-77410400D03*
X31532800Y-79950400D03*
X31532800Y-82490400D03*
X31532800Y-85030400D03*
X31532800Y-87570400D03*
X31532800Y-90110400D03*
X31532800Y-92650400D03*
X31532800Y-95190400D03*
X31532800Y-97730400D03*
X31532800Y-100270400D03*
X31532800Y-102810400D03*
X31532800Y-105350400D03*
%TD*%
D12*
%TO.C,J48*%
X50647600Y-152146000D03*
D13*
X55727600Y-152146000D03*
%TD*%
D10*
%TO.C,J52*%
X60045600Y-48006000D03*
D11*
X62585600Y-48006000D03*
X65125600Y-48006000D03*
%TD*%
D16*
%TO.C,U2*%
X99263200Y-74066400D03*
X84023200Y-74066400D03*
X99263200Y-99466400D03*
X84023200Y-99466400D03*
%TD*%
D24*
%TO.C,J1*%
X78079600Y-33132400D03*
D15*
X78079600Y-30632400D03*
%TD*%
D25*
%TO.C,U1*%
X32791400Y-117729000D03*
X32816800Y-136779000D03*
X88696800Y-117729000D03*
X88696800Y-136779000D03*
D26*
X31546800Y-133477000D03*
X36626800Y-136017000D03*
X39166800Y-136017000D03*
X41706800Y-136017000D03*
X44246800Y-136017000D03*
X49326800Y-136017000D03*
X51866800Y-136017000D03*
X54406800Y-136017000D03*
X56946800Y-136017000D03*
X64566800Y-136017000D03*
X67106800Y-136017000D03*
X69646800Y-136017000D03*
X72186800Y-136017000D03*
X77266800Y-136017000D03*
X79806800Y-136017000D03*
X82346800Y-136017000D03*
X84886800Y-136017000D03*
X89966800Y-133477000D03*
X31546800Y-130937000D03*
X89966800Y-130937000D03*
X31546800Y-128397000D03*
X89966800Y-128397000D03*
X31546800Y-125857000D03*
X89966800Y-125857000D03*
X31546800Y-123317000D03*
X89966800Y-123317000D03*
X31546800Y-120777000D03*
X36626800Y-138557000D03*
X39166800Y-138557000D03*
X41706800Y-138557000D03*
X44246800Y-138557000D03*
X49326800Y-138557000D03*
X51866800Y-138557000D03*
X54406800Y-138557000D03*
X56946800Y-138557000D03*
X64566800Y-138557000D03*
X67106800Y-138557000D03*
X69646800Y-138557000D03*
X72186800Y-138557000D03*
X77266800Y-138557000D03*
X79806800Y-138557000D03*
X82346800Y-138557000D03*
X84886800Y-138557000D03*
X89966800Y-120777000D03*
X36626800Y-133477000D03*
X39166800Y-133477000D03*
X41706800Y-133477000D03*
X44246800Y-133477000D03*
X49326800Y-133477000D03*
X51866800Y-133477000D03*
X54406800Y-133477000D03*
X56946800Y-133477000D03*
X64566800Y-133477000D03*
X67106800Y-133477000D03*
X69646800Y-133477000D03*
X72186800Y-133477000D03*
X77266800Y-133477000D03*
X79806800Y-133477000D03*
X82346800Y-133477000D03*
X84886800Y-133477000D03*
X58978800Y-118364000D03*
X62433200Y-118364000D03*
%TD*%
D10*
%TO.C,J56*%
X70967600Y-109626400D03*
D11*
X68427600Y-109626400D03*
X65887600Y-109626400D03*
%TD*%
D16*
%TO.C,U4*%
X69776000Y-90289400D03*
X69776000Y-87749400D03*
X69776000Y-85209400D03*
X69776000Y-82669400D03*
X69776000Y-80129400D03*
X69776000Y-77589400D03*
X51996000Y-87749400D03*
X51996000Y-85209400D03*
X51996000Y-82669400D03*
X51996000Y-80129400D03*
%TD*%
D10*
%TO.C,J21*%
X84988400Y-127660400D03*
D11*
X84988400Y-125120400D03*
X82448400Y-127660400D03*
X82448400Y-125120400D03*
X79908400Y-127660400D03*
X79908400Y-125120400D03*
X77368400Y-127660400D03*
X77368400Y-125120400D03*
X74828400Y-127660400D03*
X74828400Y-125120400D03*
X72288400Y-127660400D03*
X72288400Y-125120400D03*
X69748400Y-127660400D03*
X69748400Y-125120400D03*
X67208400Y-127660400D03*
X67208400Y-125120400D03*
X64668400Y-127660400D03*
X64668400Y-125120400D03*
X62128400Y-127660400D03*
X62128400Y-125120400D03*
X59588400Y-127660400D03*
X59588400Y-125120400D03*
X57048400Y-127660400D03*
X57048400Y-125120400D03*
X54508400Y-127660400D03*
X54508400Y-125120400D03*
X51968400Y-127660400D03*
X51968400Y-125120400D03*
X49428400Y-127660400D03*
X49428400Y-125120400D03*
X46888400Y-127660400D03*
X46888400Y-125120400D03*
X44348400Y-127660400D03*
X44348400Y-125120400D03*
X41808400Y-127660400D03*
X41808400Y-125120400D03*
X39268400Y-127660400D03*
X39268400Y-125120400D03*
X36728400Y-127660400D03*
X36728400Y-125120400D03*
%TD*%
M02*
