%TF.GenerationSoftware,KiCad,Pcbnew,7.0.7*%
%TF.CreationDate,2023-09-26T10:41:06-05:00*%
%TF.ProjectId,DingoPCB,44696e67-6f50-4434-922e-6b696361645f,rev?*%
%TF.SameCoordinates,Original*%
%TF.FileFunction,Profile,NP*%
%FSLAX46Y46*%
G04 Gerber Fmt 4.6, Leading zero omitted, Abs format (unit mm)*
G04 Created by KiCad (PCBNEW 7.0.7) date 2023-09-26 10:41:06*
%MOMM*%
%LPD*%
G01*
G04 APERTURE LIST*
%TA.AperFunction,Profile*%
%ADD10C,0.349999*%
%TD*%
%TA.AperFunction,Profile*%
%ADD11C,0.100000*%
%TD*%
G04 APERTURE END LIST*
D10*
X27823422Y-70977686D02*
X27791122Y-70834440D01*
X105869306Y-20669009D02*
X105881596Y-21164880D01*
X105002911Y-156286207D02*
X105105495Y-156178409D01*
X19059668Y-16455975D02*
X18840419Y-16892049D01*
X103053636Y-56195987D02*
X103037403Y-56259352D01*
X24509869Y-11750451D02*
X24054770Y-11926085D01*
X20810536Y-14093812D02*
X20468592Y-14453136D01*
X105292921Y-155949704D02*
X105377559Y-155829287D01*
X99708424Y-11926084D02*
X100154420Y-12123695D01*
X105870159Y-48125501D02*
X105875157Y-48060246D01*
X102952656Y-14093812D02*
X103294601Y-14453137D01*
X17885287Y-154313644D02*
X17896280Y-154461394D01*
X105779439Y-48640008D02*
X105795675Y-48576641D01*
X101429593Y-12844996D02*
X101830981Y-13127121D01*
X22333599Y-12844998D02*
X21932212Y-13127122D01*
X18470275Y-116780865D02*
X18385638Y-116901281D01*
X103616945Y-14827302D02*
X103919349Y-15215489D01*
X27653236Y-70417643D02*
X27593952Y-70283844D01*
X20881600Y-157164884D02*
X102881596Y-157164884D01*
X18467173Y-17793145D02*
X18313855Y-18256528D01*
X105791119Y-154896132D02*
X105823419Y-154752884D01*
X19843844Y-15215487D02*
X19561720Y-15616874D01*
X105742821Y-126954603D02*
X105722442Y-126892325D01*
X102881596Y-157164884D02*
X103030357Y-157161197D01*
X103110636Y-56008022D02*
X103090257Y-56070299D01*
X26404906Y-11274471D02*
X25921590Y-11358803D01*
X17896284Y-118269167D02*
X17885291Y-118416918D01*
X17930537Y-20176503D02*
X17893894Y-20669009D01*
X104294261Y-156811465D02*
X104421860Y-156739301D01*
X18011279Y-117693176D02*
X17972081Y-117834430D01*
X103294601Y-14453137D02*
X103616945Y-14827302D01*
X104895113Y-156388789D02*
X105002911Y-156286207D01*
X102951466Y-118748082D02*
X102952183Y-118813670D01*
X18169248Y-117283833D02*
X18109965Y-117417631D01*
X17939777Y-154752884D02*
X17972077Y-154896132D01*
X19733550Y-156936523D02*
X19870080Y-156989213D01*
X18560995Y-156066160D02*
X18657698Y-156178409D01*
X27593959Y-107362240D02*
X27653243Y-107228440D01*
X103893112Y-156989213D02*
X104029641Y-156936523D01*
X20150349Y-157074407D02*
X20293596Y-157106707D01*
X101015824Y-12583491D02*
X101429593Y-12844996D01*
X18109962Y-155312932D02*
X18169245Y-155446732D01*
X105836020Y-127335558D02*
X105823969Y-127271312D01*
X21544026Y-13429526D02*
X21169860Y-13751869D01*
X105580006Y-18727376D02*
X105687673Y-19204867D01*
X18868079Y-156388789D02*
X18980328Y-156485492D01*
X27791127Y-106811637D02*
X27823427Y-106668389D01*
X18307187Y-117025412D02*
X18235023Y-117153011D01*
X105779443Y-127080291D02*
X105761823Y-127017265D01*
X105881596Y-127856504D02*
X105880879Y-127790922D01*
X103030357Y-157161197D02*
X103178108Y-157150204D01*
D11*
X40346000Y-26000000D02*
G75*
G03*
X40346000Y-26000000I-2500000J0D01*
G01*
D10*
X102986396Y-119204568D02*
X102997046Y-119269065D01*
X18560996Y-116664410D02*
X18470275Y-116780865D01*
X17972077Y-154896132D02*
X18011276Y-155037386D01*
X20009095Y-157035208D02*
X20150349Y-157074407D01*
X105105495Y-156178409D02*
X105202199Y-156066160D01*
X105823970Y-48448981D02*
X105836021Y-48384733D01*
X17881600Y-59080400D02*
X17885287Y-59229158D01*
X105722442Y-126892325D02*
X105700688Y-126830457D01*
X27456020Y-107620664D02*
X27528184Y-107493063D01*
X18980328Y-156485492D02*
X19096784Y-156576213D01*
X19870080Y-156989213D02*
X20009095Y-157035208D01*
X105877909Y-154313644D02*
X105881596Y-154164884D01*
X17885291Y-118416918D02*
X17881604Y-118565679D01*
X105795675Y-48576641D02*
X105810520Y-48512958D01*
X105653234Y-155312932D02*
X105705925Y-155176402D01*
X105846669Y-127400052D02*
X105836020Y-127335558D01*
X105855911Y-127464769D02*
X105846669Y-127400052D01*
X18109962Y-60228436D02*
X18169246Y-60362235D01*
X105878731Y-127725426D02*
X105875156Y-127660040D01*
X18642808Y-17338045D02*
X18467173Y-17793145D01*
X103071256Y-119587377D02*
X103090262Y-119650044D01*
X18470273Y-155949704D02*
X18560995Y-156066160D01*
X105810520Y-48512958D02*
X105823970Y-48448981D01*
X27377561Y-69901292D02*
X27292923Y-69780875D01*
X18657701Y-61093910D02*
X18760285Y-61201707D01*
X18183193Y-18727375D02*
X18075526Y-19204867D01*
X102997062Y-56451252D02*
X102986415Y-56515744D01*
X27881599Y-71565683D02*
X27877912Y-71416924D01*
X102977174Y-56580460D02*
X102969344Y-56645378D01*
X103022550Y-119397294D02*
X103037396Y-119460979D01*
X27751929Y-106952892D02*
X27791127Y-106811637D01*
X17972081Y-117834430D02*
X17939781Y-117977677D01*
X19300215Y-16030644D02*
X19059668Y-16455975D01*
X103037396Y-119460979D02*
X103053633Y-119524348D01*
X17893894Y-20669009D02*
X17881604Y-21164880D01*
D11*
X88500000Y-26000000D02*
G75*
G03*
X88500000Y-26000000I-2500000J0D01*
G01*
D10*
X105377559Y-155829287D02*
X105456011Y-155705155D01*
X103090257Y-56070299D02*
X103071256Y-56132962D01*
X97358291Y-11274471D02*
X97841606Y-11358802D01*
X105823969Y-127271312D02*
X105810520Y-127207337D01*
X18169245Y-155446732D02*
X18235020Y-155577555D01*
X18313855Y-18256528D02*
X18183193Y-18727375D01*
X21169860Y-13751869D02*
X20810536Y-14093812D01*
X105449343Y-18256529D02*
X105580006Y-18727376D01*
X27202201Y-69664419D02*
X27105498Y-69552169D01*
X18011276Y-155037386D02*
X18057271Y-155176402D01*
X105687673Y-19204867D02*
X105772005Y-19688183D01*
X100590493Y-12342944D02*
X101015824Y-12583491D01*
X18760281Y-156286207D02*
X18868079Y-156388789D01*
X102962929Y-56710474D02*
X102957932Y-56775725D01*
X26893226Y-11213813D02*
X26404906Y-11274471D01*
X105761823Y-127017265D02*
X105742821Y-126954603D01*
X102962904Y-119009820D02*
X102969321Y-119074922D01*
X27791122Y-70834440D02*
X27751923Y-70693187D01*
X105863742Y-127529689D02*
X105855911Y-127464769D01*
X96377467Y-11177170D02*
X96869972Y-11213813D01*
X20438590Y-157132007D02*
X20585087Y-157150204D01*
X27377568Y-107744795D02*
X27456020Y-107620664D01*
X17972077Y-59811640D02*
X18011276Y-59952893D01*
X105700673Y-48889852D02*
X105722430Y-48827981D01*
X27848726Y-106523393D02*
X27866923Y-106376896D01*
X18385638Y-116901281D02*
X18307187Y-117025412D01*
X27292930Y-107865213D02*
X27377568Y-107744795D01*
X20732838Y-157161197D02*
X20881600Y-157164884D01*
X18057271Y-155176402D02*
X18109962Y-155312932D01*
X102986415Y-56515744D02*
X102977174Y-56580460D01*
X105772005Y-19688183D02*
X105832663Y-20176503D01*
X19599752Y-156877239D02*
X19733550Y-156936523D01*
X104029641Y-156936523D02*
X104163439Y-156877239D01*
X18560997Y-60981660D02*
X18657701Y-61093910D01*
X20146248Y-14827301D02*
X19843844Y-15215487D01*
X17914477Y-59523401D02*
X17939777Y-59668394D01*
X18470275Y-60865204D02*
X18560997Y-60981660D01*
X27528177Y-70153022D02*
X27456013Y-70025422D01*
X95881596Y-11164880D02*
X96377467Y-11177170D01*
X97841606Y-11358802D02*
X98319097Y-11466469D01*
X27593952Y-70283844D02*
X27528177Y-70153022D01*
X105751920Y-155037386D02*
X105791119Y-154896132D01*
X17881604Y-118565679D02*
X17881600Y-154164884D01*
X27528184Y-107493063D02*
X27593959Y-107362240D01*
X103037403Y-56259352D02*
X103022561Y-56323033D01*
X105866916Y-154461394D02*
X105877909Y-154313644D01*
X18307184Y-155705155D02*
X18385636Y-155829287D01*
X102977153Y-119139846D02*
X102986396Y-119204568D01*
X103110646Y-119712325D02*
X103132405Y-119774198D01*
X105846670Y-48320239D02*
X105855912Y-48255520D01*
X18760281Y-116444364D02*
X18657698Y-116552161D01*
X17939781Y-117977677D02*
X17914481Y-118122671D01*
X21932212Y-13127122D02*
X21544026Y-13429526D01*
X20585087Y-157150204D02*
X20732838Y-157161197D01*
X24973252Y-11597132D02*
X24509869Y-11750451D01*
X24054770Y-11926085D02*
X23608774Y-12123697D01*
X19341331Y-156739301D02*
X19468930Y-156811465D01*
X105875157Y-48060246D02*
X105878732Y-47994860D01*
X102951497Y-56972181D02*
X102951466Y-118748090D01*
X18235023Y-117153011D02*
X18169248Y-117283833D01*
X18760285Y-61201707D02*
X27002920Y-69444360D01*
X17885287Y-59229158D02*
X17896280Y-59376907D01*
X105593950Y-155446732D02*
X105653234Y-155312932D01*
X105880879Y-47929364D02*
X105881596Y-47863782D01*
X102219167Y-13429524D02*
X102593332Y-13751868D01*
X27705927Y-70554172D02*
X27653236Y-70417643D01*
X98319097Y-11466469D02*
X98789943Y-11597131D01*
X105202199Y-156066160D02*
X105292921Y-155949704D01*
X27881603Y-11164880D02*
X27385732Y-11177170D01*
X17896280Y-154461394D02*
X17914477Y-154607890D01*
X27751923Y-70693187D02*
X27705927Y-70554172D01*
X105722430Y-48827981D02*
X105742813Y-48765701D01*
X102957932Y-56775725D02*
X102954359Y-56841109D01*
X102954359Y-56841109D02*
X102952212Y-56906601D01*
X102954331Y-118879171D02*
X102957906Y-118944562D01*
X27653243Y-107228440D02*
X27705933Y-107091909D01*
X27877915Y-106229143D02*
X27881601Y-106080381D01*
X105120389Y-17338047D02*
X105296024Y-17793146D01*
X105848719Y-154607890D02*
X105866916Y-154461394D01*
D11*
X98410400Y-146862800D02*
G75*
G03*
X98410400Y-146862800I-2500000J0D01*
G01*
D10*
X105528175Y-155577555D02*
X105593950Y-155446732D01*
X102593332Y-13751868D02*
X102952656Y-14093812D01*
X103132390Y-55946153D02*
X103110636Y-56008022D01*
X18760281Y-116444364D02*
X27002920Y-108201719D01*
X104462979Y-16030645D02*
X104703527Y-16455977D01*
X18657698Y-116552161D02*
X18560996Y-116664410D01*
X96869972Y-11213813D02*
X97358291Y-11274471D01*
X27881599Y-106080396D02*
X27881599Y-71565683D01*
X105875156Y-127660040D02*
X105870159Y-127594787D01*
X18657698Y-156178409D02*
X18760281Y-156286207D01*
X103009099Y-119333315D02*
X103022550Y-119397294D01*
X27705933Y-107091909D02*
X27751929Y-106952892D01*
X105296024Y-17793146D02*
X105449343Y-18256529D01*
X18109965Y-117417631D02*
X18057275Y-117554161D01*
X104201473Y-15616876D02*
X104462979Y-16030645D01*
X18385636Y-155829287D02*
X18470273Y-155949704D01*
X17881600Y-154164884D02*
X17885287Y-154313644D01*
X27848722Y-71122680D02*
X27823422Y-70977686D01*
X102969321Y-119074922D02*
X102977153Y-119139846D01*
X105836021Y-48384733D02*
X105846670Y-48320239D01*
X27823427Y-106668389D02*
X27848726Y-106523393D01*
X104163439Y-156877239D02*
X104294261Y-156811465D01*
X17914477Y-154607890D02*
X17939777Y-154752884D01*
X18235020Y-155577555D02*
X18307184Y-155705155D01*
X27866919Y-71269174D02*
X27848722Y-71122680D01*
X25921590Y-11358803D02*
X25444099Y-11466470D01*
X27105504Y-108093920D02*
X27202208Y-107981670D01*
X104782863Y-156485492D02*
X104895113Y-156388789D01*
X20293596Y-157106707D02*
X20438590Y-157132007D01*
X18057271Y-60091907D02*
X18109962Y-60228436D01*
X105832663Y-20176503D02*
X105869306Y-20669009D01*
X18011276Y-59952893D02*
X18057271Y-60091907D01*
X18169246Y-60362235D02*
X18235021Y-60493057D01*
X18840419Y-16892049D02*
X18642808Y-17338045D01*
X19096784Y-156576213D02*
X19217200Y-156660850D01*
X18235021Y-60493057D02*
X18307185Y-60620656D01*
X103469598Y-157106707D02*
X103612844Y-157074407D01*
X19561720Y-15616874D02*
X19300215Y-16030644D01*
X103071256Y-56132962D02*
X103053636Y-56195987D01*
X27456013Y-70025422D02*
X27377561Y-69901292D01*
X103022561Y-56323033D02*
X103009112Y-56387007D01*
X23172700Y-12342946D02*
X22747369Y-12583493D01*
X27002920Y-108201719D02*
X27105504Y-108093920D01*
X103132390Y-55946153D02*
X105700673Y-48889852D01*
X105881596Y-154164884D02*
X105881596Y-127856504D01*
X105878732Y-47994860D02*
X105880879Y-47929364D01*
X103053633Y-119524348D02*
X103071256Y-119587377D01*
X105823419Y-154752884D02*
X105848719Y-154607890D01*
X27105498Y-69552169D02*
X27002914Y-69444371D01*
X17991194Y-19688182D02*
X17930537Y-20176503D01*
X103754097Y-157035208D02*
X103893112Y-156989213D01*
X19217200Y-156660850D02*
X19341331Y-156739301D01*
X27202208Y-107981670D02*
X27292930Y-107865213D01*
X102952183Y-118813670D02*
X102954331Y-118879171D01*
X105742813Y-48765701D02*
X105761818Y-48703036D01*
X22747369Y-12583493D02*
X22333599Y-12844998D01*
X18385637Y-60744787D02*
X18470275Y-60865204D01*
X104666407Y-156576213D02*
X104782863Y-156485492D01*
X104703527Y-16455977D02*
X104922776Y-16892050D01*
X27866923Y-106376896D02*
X27877915Y-106229143D01*
X100154420Y-12123695D02*
X100590493Y-12342944D01*
X105705925Y-155176402D02*
X105751920Y-155037386D01*
X105855912Y-48255520D02*
X105863743Y-48190599D01*
X102957906Y-118944562D02*
X102962904Y-119009820D01*
X102997046Y-119269065D02*
X103009099Y-119333315D01*
X27877912Y-71416924D02*
X27866919Y-71269174D01*
X17896280Y-59376907D02*
X17914477Y-59523401D01*
X25444099Y-11466470D02*
X24973252Y-11597132D01*
X23608774Y-12123697D02*
X23172700Y-12342946D01*
X105761818Y-48703036D02*
X105779439Y-48640008D01*
D11*
X27696800Y-136967600D02*
G75*
G03*
X27696800Y-136967600I-2500000J0D01*
G01*
D10*
X105880879Y-127790922D02*
X105878731Y-127725426D01*
X103178108Y-157150204D02*
X103324604Y-157132007D01*
X17881604Y-21164880D02*
X17881600Y-59080400D01*
X18075526Y-19204867D02*
X17991194Y-19688182D01*
X19468930Y-156811465D02*
X19599752Y-156877239D01*
X17939777Y-59668394D02*
X17972077Y-59811640D01*
X99253325Y-11750449D02*
X99708424Y-11926084D01*
X27385732Y-11177170D02*
X26893226Y-11213813D01*
X104421860Y-156739301D02*
X104545991Y-156660850D01*
X103090262Y-119650044D02*
X103110646Y-119712325D01*
X98789943Y-11597131D02*
X99253325Y-11750449D01*
X105881596Y-21164880D02*
X105881596Y-47863790D01*
X104922776Y-16892050D02*
X105120389Y-17338047D01*
X27292923Y-69780875D02*
X27202201Y-69664419D01*
X103612844Y-157074407D02*
X103754097Y-157035208D01*
X17914481Y-118122671D02*
X17896284Y-118269167D01*
X18057275Y-117554161D02*
X18011279Y-117693176D01*
X18307185Y-60620656D02*
X18385637Y-60744787D01*
X105863743Y-48190599D02*
X105870159Y-48125501D01*
X105810520Y-127207337D02*
X105795676Y-127143656D01*
X103919349Y-15215489D02*
X104201473Y-15616876D01*
X103132405Y-119774198D02*
X105700673Y-126830442D01*
X105870159Y-127594787D02*
X105863742Y-127529689D01*
X20468592Y-14453136D02*
X20146248Y-14827301D01*
X103324604Y-157132007D02*
X103469598Y-157106707D01*
X105456011Y-155705155D02*
X105528175Y-155577555D01*
X104545991Y-156660850D02*
X104666407Y-156576213D01*
X101830981Y-13127121D02*
X102219167Y-13429524D01*
X27881599Y-11164880D02*
X95881596Y-11164880D01*
X105795676Y-127143656D02*
X105779443Y-127080291D01*
X102969344Y-56645378D02*
X102962929Y-56710474D01*
X103009112Y-56387007D02*
X102997062Y-56451252D01*
X102952212Y-56906601D02*
X102951497Y-56972181D01*
M02*
