%TF.GenerationSoftware,KiCad,Pcbnew,(7.0.0-0)*%
%TF.CreationDate,2023-08-10T08:47:01-05:00*%
%TF.ProjectId,DingoPCB,44696e67-6f50-4434-922e-6b696361645f,rev?*%
%TF.SameCoordinates,Original*%
%TF.FileFunction,Legend,Bot*%
%TF.FilePolarity,Positive*%
%FSLAX46Y46*%
G04 Gerber Fmt 4.6, Leading zero omitted, Abs format (unit mm)*
G04 Created by KiCad (PCBNEW (7.0.0-0)) date 2023-08-10 08:47:01*
%MOMM*%
%LPD*%
G01*
G04 APERTURE LIST*
%ADD10C,0.150000*%
G04 APERTURE END LIST*
D10*
X89635600Y-28676761D02*
X89635600Y-30295809D01*
X89635600Y-30295809D02*
X89540362Y-30486285D01*
X89540362Y-30486285D02*
X89445124Y-30581523D01*
X89445124Y-30581523D02*
X89254648Y-30676761D01*
X89254648Y-30676761D02*
X88873695Y-30676761D01*
X88873695Y-30676761D02*
X88683219Y-30581523D01*
X88683219Y-30581523D02*
X88587981Y-30486285D01*
X88587981Y-30486285D02*
X88492743Y-30295809D01*
X88492743Y-30295809D02*
X88492743Y-28676761D01*
X87540362Y-30676761D02*
X87540362Y-28676761D01*
X87540362Y-28676761D02*
X86397505Y-30676761D01*
X86397505Y-30676761D02*
X86397505Y-28676761D01*
X85064172Y-28676761D02*
X84683219Y-28676761D01*
X84683219Y-28676761D02*
X84492743Y-28772000D01*
X84492743Y-28772000D02*
X84302267Y-28962476D01*
X84302267Y-28962476D02*
X84207029Y-29343428D01*
X84207029Y-29343428D02*
X84207029Y-30010095D01*
X84207029Y-30010095D02*
X84302267Y-30391047D01*
X84302267Y-30391047D02*
X84492743Y-30581523D01*
X84492743Y-30581523D02*
X84683219Y-30676761D01*
X84683219Y-30676761D02*
X85064172Y-30676761D01*
X85064172Y-30676761D02*
X85254648Y-30581523D01*
X85254648Y-30581523D02*
X85445124Y-30391047D01*
X85445124Y-30391047D02*
X85540362Y-30010095D01*
X85540362Y-30010095D02*
X85540362Y-29343428D01*
X85540362Y-29343428D02*
X85445124Y-28962476D01*
X85445124Y-28962476D02*
X85254648Y-28772000D01*
X85254648Y-28772000D02*
X85064172Y-28676761D01*
X82683219Y-29629142D02*
X83349886Y-29629142D01*
X83349886Y-30676761D02*
X83349886Y-28676761D01*
X83349886Y-28676761D02*
X82397505Y-28676761D01*
X80968933Y-29629142D02*
X81635600Y-29629142D01*
X81635600Y-30676761D02*
X81635600Y-28676761D01*
X81635600Y-28676761D02*
X80683219Y-28676761D01*
X79921314Y-30676761D02*
X79921314Y-28676761D01*
X77826076Y-30486285D02*
X77921314Y-30581523D01*
X77921314Y-30581523D02*
X78207028Y-30676761D01*
X78207028Y-30676761D02*
X78397504Y-30676761D01*
X78397504Y-30676761D02*
X78683219Y-30581523D01*
X78683219Y-30581523D02*
X78873695Y-30391047D01*
X78873695Y-30391047D02*
X78968933Y-30200571D01*
X78968933Y-30200571D02*
X79064171Y-29819619D01*
X79064171Y-29819619D02*
X79064171Y-29533904D01*
X79064171Y-29533904D02*
X78968933Y-29152952D01*
X78968933Y-29152952D02*
X78873695Y-28962476D01*
X78873695Y-28962476D02*
X78683219Y-28772000D01*
X78683219Y-28772000D02*
X78397504Y-28676761D01*
X78397504Y-28676761D02*
X78207028Y-28676761D01*
X78207028Y-28676761D02*
X77921314Y-28772000D01*
X77921314Y-28772000D02*
X77826076Y-28867238D01*
X76968933Y-30676761D02*
X76968933Y-28676761D01*
X76111790Y-30105333D02*
X75159409Y-30105333D01*
X76302266Y-30676761D02*
X75635600Y-28676761D01*
X75635600Y-28676761D02*
X74968933Y-30676761D01*
X73349885Y-30676761D02*
X74302266Y-30676761D01*
X74302266Y-30676761D02*
X74302266Y-28676761D01*
X85730837Y-33916761D02*
X85730837Y-31916761D01*
X85730837Y-31916761D02*
X85254647Y-31916761D01*
X85254647Y-31916761D02*
X84968932Y-32012000D01*
X84968932Y-32012000D02*
X84778456Y-32202476D01*
X84778456Y-32202476D02*
X84683218Y-32392952D01*
X84683218Y-32392952D02*
X84587980Y-32773904D01*
X84587980Y-32773904D02*
X84587980Y-33059619D01*
X84587980Y-33059619D02*
X84683218Y-33440571D01*
X84683218Y-33440571D02*
X84778456Y-33631047D01*
X84778456Y-33631047D02*
X84968932Y-33821523D01*
X84968932Y-33821523D02*
X85254647Y-33916761D01*
X85254647Y-33916761D02*
X85730837Y-33916761D01*
X83730837Y-33916761D02*
X83730837Y-31916761D01*
X82778456Y-33916761D02*
X82778456Y-31916761D01*
X82778456Y-31916761D02*
X81635599Y-33916761D01*
X81635599Y-33916761D02*
X81635599Y-31916761D01*
X79635599Y-32012000D02*
X79826075Y-31916761D01*
X79826075Y-31916761D02*
X80111789Y-31916761D01*
X80111789Y-31916761D02*
X80397504Y-32012000D01*
X80397504Y-32012000D02*
X80587980Y-32202476D01*
X80587980Y-32202476D02*
X80683218Y-32392952D01*
X80683218Y-32392952D02*
X80778456Y-32773904D01*
X80778456Y-32773904D02*
X80778456Y-33059619D01*
X80778456Y-33059619D02*
X80683218Y-33440571D01*
X80683218Y-33440571D02*
X80587980Y-33631047D01*
X80587980Y-33631047D02*
X80397504Y-33821523D01*
X80397504Y-33821523D02*
X80111789Y-33916761D01*
X80111789Y-33916761D02*
X79921313Y-33916761D01*
X79921313Y-33916761D02*
X79635599Y-33821523D01*
X79635599Y-33821523D02*
X79540361Y-33726285D01*
X79540361Y-33726285D02*
X79540361Y-33059619D01*
X79540361Y-33059619D02*
X79921313Y-33059619D01*
X78302266Y-31916761D02*
X77921313Y-31916761D01*
X77921313Y-31916761D02*
X77730837Y-32012000D01*
X77730837Y-32012000D02*
X77540361Y-32202476D01*
X77540361Y-32202476D02*
X77445123Y-32583428D01*
X77445123Y-32583428D02*
X77445123Y-33250095D01*
X77445123Y-33250095D02*
X77540361Y-33631047D01*
X77540361Y-33631047D02*
X77730837Y-33821523D01*
X77730837Y-33821523D02*
X77921313Y-33916761D01*
X77921313Y-33916761D02*
X78302266Y-33916761D01*
X78302266Y-33916761D02*
X78492742Y-33821523D01*
X78492742Y-33821523D02*
X78683218Y-33631047D01*
X78683218Y-33631047D02*
X78778456Y-33250095D01*
X78778456Y-33250095D02*
X78778456Y-32583428D01*
X78778456Y-32583428D02*
X78683218Y-32202476D01*
X78683218Y-32202476D02*
X78492742Y-32012000D01*
X78492742Y-32012000D02*
X78302266Y-31916761D01*
X84159409Y-37156761D02*
X84159409Y-35156761D01*
X84159409Y-35156761D02*
X83397504Y-35156761D01*
X83397504Y-35156761D02*
X83207028Y-35252000D01*
X83207028Y-35252000D02*
X83111790Y-35347238D01*
X83111790Y-35347238D02*
X83016552Y-35537714D01*
X83016552Y-35537714D02*
X83016552Y-35823428D01*
X83016552Y-35823428D02*
X83111790Y-36013904D01*
X83111790Y-36013904D02*
X83207028Y-36109142D01*
X83207028Y-36109142D02*
X83397504Y-36204380D01*
X83397504Y-36204380D02*
X84159409Y-36204380D01*
X81016552Y-36966285D02*
X81111790Y-37061523D01*
X81111790Y-37061523D02*
X81397504Y-37156761D01*
X81397504Y-37156761D02*
X81587980Y-37156761D01*
X81587980Y-37156761D02*
X81873695Y-37061523D01*
X81873695Y-37061523D02*
X82064171Y-36871047D01*
X82064171Y-36871047D02*
X82159409Y-36680571D01*
X82159409Y-36680571D02*
X82254647Y-36299619D01*
X82254647Y-36299619D02*
X82254647Y-36013904D01*
X82254647Y-36013904D02*
X82159409Y-35632952D01*
X82159409Y-35632952D02*
X82064171Y-35442476D01*
X82064171Y-35442476D02*
X81873695Y-35252000D01*
X81873695Y-35252000D02*
X81587980Y-35156761D01*
X81587980Y-35156761D02*
X81397504Y-35156761D01*
X81397504Y-35156761D02*
X81111790Y-35252000D01*
X81111790Y-35252000D02*
X81016552Y-35347238D01*
X79492742Y-36109142D02*
X79207028Y-36204380D01*
X79207028Y-36204380D02*
X79111790Y-36299619D01*
X79111790Y-36299619D02*
X79016552Y-36490095D01*
X79016552Y-36490095D02*
X79016552Y-36775809D01*
X79016552Y-36775809D02*
X79111790Y-36966285D01*
X79111790Y-36966285D02*
X79207028Y-37061523D01*
X79207028Y-37061523D02*
X79397504Y-37156761D01*
X79397504Y-37156761D02*
X80159409Y-37156761D01*
X80159409Y-37156761D02*
X80159409Y-35156761D01*
X80159409Y-35156761D02*
X79492742Y-35156761D01*
X79492742Y-35156761D02*
X79302266Y-35252000D01*
X79302266Y-35252000D02*
X79207028Y-35347238D01*
X79207028Y-35347238D02*
X79111790Y-35537714D01*
X79111790Y-35537714D02*
X79111790Y-35728190D01*
X79111790Y-35728190D02*
X79207028Y-35918666D01*
X79207028Y-35918666D02*
X79302266Y-36013904D01*
X79302266Y-36013904D02*
X79492742Y-36109142D01*
X79492742Y-36109142D02*
X80159409Y-36109142D01*
M02*
