M48
; DRILL file {KiCad (7.0.0-0)} date Thursday, August 10, 2023 at 08:46:53 AM
; FORMAT={-:-/ absolute / inch / decimal}
; #@! TF.CreationDate,2023-08-10T08:46:53-05:00
; #@! TF.GenerationSoftware,Kicad,Pcbnew,(7.0.0-0)
; #@! TF.FileFunction,Plated,1,2,PTH
FMAT,2
INCH
; #@! TA.AperFunction,Plated,PTH,ComponentDrill
T1C0.0276
; #@! TA.AperFunction,Plated,PTH,ComponentDrill
T2C0.0315
; #@! TA.AperFunction,Plated,PTH,ComponentDrill
T3C0.0394
; #@! TA.AperFunction,Plated,PTH,ComponentDrill
T4C0.0512
%
G90
G05
T1
X2.226Y-1.39
X2.326Y-1.39
X2.526Y-1.39
X2.626Y-1.39
T2
X1.726Y-1.392
X2.026Y-1.392
T3
X1.0876Y-0.938
X1.1116Y-2.136
X1.186Y-0.938
X1.21Y-2.136
X1.308Y-1.606
X1.4064Y-1.606
X1.4936Y-0.938
X1.592Y-0.938
X1.6836Y-1.606
X1.782Y-1.606
X2.0376Y-1.606
X2.136Y-1.606
X2.384Y-1.606
X2.4824Y-1.606
X2.732Y-1.606
X2.8304Y-1.606
X2.994Y-2.134
X3.082Y-1.608
X3.0924Y-2.134
X3.1804Y-1.608
X3.32Y-0.926
X3.368Y-2.134
X3.4184Y-0.926
X3.4664Y-2.134
T4
X0.904Y-1.518
X0.904Y-1.718
X1.576Y-2.128
X1.776Y-2.128
X1.884Y-0.964
X2.018Y-2.128
X2.084Y-0.964
X2.218Y-2.128
X2.326Y-0.964
X2.4598Y-2.128
X2.526Y-0.964
X2.6598Y-2.128
X2.768Y-0.964
X2.968Y-0.964
X3.638Y-1.538
X3.638Y-1.738
T0
M30
