%TF.GenerationSoftware,KiCad,Pcbnew,(7.0.0-0)*%
%TF.CreationDate,2023-08-08T20:11:38-05:00*%
%TF.ProjectId,DingoPCB,44696e67-6f50-4434-922e-6b696361645f,rev?*%
%TF.SameCoordinates,Original*%
%TF.FileFunction,Legend,Top*%
%TF.FilePolarity,Positive*%
%FSLAX46Y46*%
G04 Gerber Fmt 4.6, Leading zero omitted, Abs format (unit mm)*
G04 Created by KiCad (PCBNEW (7.0.0-0)) date 2023-08-08 20:11:38*
%MOMM*%
%LPD*%
G01*
G04 APERTURE LIST*
%ADD10C,0.150000*%
%ADD11C,0.120000*%
G04 APERTURE END LIST*
D10*
X64719104Y-7161200D02*
X64623866Y-7113580D01*
X64623866Y-7113580D02*
X64481009Y-7113580D01*
X64481009Y-7113580D02*
X64338152Y-7161200D01*
X64338152Y-7161200D02*
X64242914Y-7256438D01*
X64242914Y-7256438D02*
X64195295Y-7351676D01*
X64195295Y-7351676D02*
X64147676Y-7542152D01*
X64147676Y-7542152D02*
X64147676Y-7685009D01*
X64147676Y-7685009D02*
X64195295Y-7875485D01*
X64195295Y-7875485D02*
X64242914Y-7970723D01*
X64242914Y-7970723D02*
X64338152Y-8065961D01*
X64338152Y-8065961D02*
X64481009Y-8113580D01*
X64481009Y-8113580D02*
X64576247Y-8113580D01*
X64576247Y-8113580D02*
X64719104Y-8065961D01*
X64719104Y-8065961D02*
X64766723Y-8018342D01*
X64766723Y-8018342D02*
X64766723Y-7685009D01*
X64766723Y-7685009D02*
X64576247Y-7685009D01*
X65195295Y-8113580D02*
X65195295Y-7113580D01*
X65195295Y-7113580D02*
X65766723Y-8113580D01*
X65766723Y-8113580D02*
X65766723Y-7113580D01*
X66242914Y-8113580D02*
X66242914Y-7113580D01*
X66242914Y-7113580D02*
X66481009Y-7113580D01*
X66481009Y-7113580D02*
X66623866Y-7161200D01*
X66623866Y-7161200D02*
X66719104Y-7256438D01*
X66719104Y-7256438D02*
X66766723Y-7351676D01*
X66766723Y-7351676D02*
X66814342Y-7542152D01*
X66814342Y-7542152D02*
X66814342Y-7685009D01*
X66814342Y-7685009D02*
X66766723Y-7875485D01*
X66766723Y-7875485D02*
X66719104Y-7970723D01*
X66719104Y-7970723D02*
X66623866Y-8065961D01*
X66623866Y-8065961D02*
X66481009Y-8113580D01*
X66481009Y-8113580D02*
X66242914Y-8113580D01*
X1365238Y-27738380D02*
X1698571Y-28738380D01*
X1698571Y-28738380D02*
X2031904Y-27738380D01*
X2365238Y-28738380D02*
X2365238Y-27738380D01*
X2841428Y-28738380D02*
X2841428Y-27738380D01*
X2841428Y-27738380D02*
X3412856Y-28738380D01*
X3412856Y-28738380D02*
X3412856Y-27738380D01*
X4774761Y-29119333D02*
X4727142Y-29071714D01*
X4727142Y-29071714D02*
X4631904Y-28928857D01*
X4631904Y-28928857D02*
X4584285Y-28833619D01*
X4584285Y-28833619D02*
X4536666Y-28690761D01*
X4536666Y-28690761D02*
X4489047Y-28452666D01*
X4489047Y-28452666D02*
X4489047Y-28262190D01*
X4489047Y-28262190D02*
X4536666Y-28024095D01*
X4536666Y-28024095D02*
X4584285Y-27881238D01*
X4584285Y-27881238D02*
X4631904Y-27786000D01*
X4631904Y-27786000D02*
X4727142Y-27643142D01*
X4727142Y-27643142D02*
X4774761Y-27595523D01*
X5012857Y-28357428D02*
X5060476Y-28309809D01*
X5060476Y-28309809D02*
X5155714Y-28262190D01*
X5155714Y-28262190D02*
X5346190Y-28357428D01*
X5346190Y-28357428D02*
X5441428Y-28309809D01*
X5441428Y-28309809D02*
X5489047Y-28262190D01*
X6393809Y-28738380D02*
X5822381Y-28738380D01*
X6108095Y-28738380D02*
X6108095Y-27738380D01*
X6108095Y-27738380D02*
X6012857Y-27881238D01*
X6012857Y-27881238D02*
X5917619Y-27976476D01*
X5917619Y-27976476D02*
X5822381Y-28024095D01*
X7298571Y-27738380D02*
X6822381Y-27738380D01*
X6822381Y-27738380D02*
X6774762Y-28214571D01*
X6774762Y-28214571D02*
X6822381Y-28166952D01*
X6822381Y-28166952D02*
X6917619Y-28119333D01*
X6917619Y-28119333D02*
X7155714Y-28119333D01*
X7155714Y-28119333D02*
X7250952Y-28166952D01*
X7250952Y-28166952D02*
X7298571Y-28214571D01*
X7298571Y-28214571D02*
X7346190Y-28309809D01*
X7346190Y-28309809D02*
X7346190Y-28547904D01*
X7346190Y-28547904D02*
X7298571Y-28643142D01*
X7298571Y-28643142D02*
X7250952Y-28690761D01*
X7250952Y-28690761D02*
X7155714Y-28738380D01*
X7155714Y-28738380D02*
X6917619Y-28738380D01*
X6917619Y-28738380D02*
X6822381Y-28690761D01*
X6822381Y-28690761D02*
X6774762Y-28643142D01*
X7631905Y-27738380D02*
X7965238Y-28738380D01*
X7965238Y-28738380D02*
X8298571Y-27738380D01*
X8536667Y-29119333D02*
X8584286Y-29071714D01*
X8584286Y-29071714D02*
X8679524Y-28928857D01*
X8679524Y-28928857D02*
X8727143Y-28833619D01*
X8727143Y-28833619D02*
X8774762Y-28690761D01*
X8774762Y-28690761D02*
X8822381Y-28452666D01*
X8822381Y-28452666D02*
X8822381Y-28262190D01*
X8822381Y-28262190D02*
X8774762Y-28024095D01*
X8774762Y-28024095D02*
X8727143Y-27881238D01*
X8727143Y-27881238D02*
X8679524Y-27786000D01*
X8679524Y-27786000D02*
X8584286Y-27643142D01*
X8584286Y-27643142D02*
X8536667Y-27595523D01*
X24793485Y-7367580D02*
X24317295Y-7367580D01*
X24317295Y-7367580D02*
X24269676Y-7843771D01*
X24269676Y-7843771D02*
X24317295Y-7796152D01*
X24317295Y-7796152D02*
X24412533Y-7748533D01*
X24412533Y-7748533D02*
X24650628Y-7748533D01*
X24650628Y-7748533D02*
X24745866Y-7796152D01*
X24745866Y-7796152D02*
X24793485Y-7843771D01*
X24793485Y-7843771D02*
X24841104Y-7939009D01*
X24841104Y-7939009D02*
X24841104Y-8177104D01*
X24841104Y-8177104D02*
X24793485Y-8272342D01*
X24793485Y-8272342D02*
X24745866Y-8319961D01*
X24745866Y-8319961D02*
X24650628Y-8367580D01*
X24650628Y-8367580D02*
X24412533Y-8367580D01*
X24412533Y-8367580D02*
X24317295Y-8319961D01*
X24317295Y-8319961D02*
X24269676Y-8272342D01*
X25126819Y-7367580D02*
X25460152Y-8367580D01*
X25460152Y-8367580D02*
X25793485Y-7367580D01*
X56337104Y-37844400D02*
X56241866Y-37796780D01*
X56241866Y-37796780D02*
X56099009Y-37796780D01*
X56099009Y-37796780D02*
X55956152Y-37844400D01*
X55956152Y-37844400D02*
X55860914Y-37939638D01*
X55860914Y-37939638D02*
X55813295Y-38034876D01*
X55813295Y-38034876D02*
X55765676Y-38225352D01*
X55765676Y-38225352D02*
X55765676Y-38368209D01*
X55765676Y-38368209D02*
X55813295Y-38558685D01*
X55813295Y-38558685D02*
X55860914Y-38653923D01*
X55860914Y-38653923D02*
X55956152Y-38749161D01*
X55956152Y-38749161D02*
X56099009Y-38796780D01*
X56099009Y-38796780D02*
X56194247Y-38796780D01*
X56194247Y-38796780D02*
X56337104Y-38749161D01*
X56337104Y-38749161D02*
X56384723Y-38701542D01*
X56384723Y-38701542D02*
X56384723Y-38368209D01*
X56384723Y-38368209D02*
X56194247Y-38368209D01*
X56813295Y-38796780D02*
X56813295Y-37796780D01*
X56813295Y-37796780D02*
X57384723Y-38796780D01*
X57384723Y-38796780D02*
X57384723Y-37796780D01*
X57860914Y-38796780D02*
X57860914Y-37796780D01*
X57860914Y-37796780D02*
X58099009Y-37796780D01*
X58099009Y-37796780D02*
X58241866Y-37844400D01*
X58241866Y-37844400D02*
X58337104Y-37939638D01*
X58337104Y-37939638D02*
X58384723Y-38034876D01*
X58384723Y-38034876D02*
X58432342Y-38225352D01*
X58432342Y-38225352D02*
X58432342Y-38368209D01*
X58432342Y-38368209D02*
X58384723Y-38558685D01*
X58384723Y-38558685D02*
X58337104Y-38653923D01*
X58337104Y-38653923D02*
X58241866Y-38749161D01*
X58241866Y-38749161D02*
X58099009Y-38796780D01*
X58099009Y-38796780D02*
X57860914Y-38796780D01*
X58673904Y-25537980D02*
X58102476Y-25537980D01*
X58388190Y-25537980D02*
X58388190Y-24537980D01*
X58388190Y-24537980D02*
X58292952Y-24680838D01*
X58292952Y-24680838D02*
X58197714Y-24776076D01*
X58197714Y-24776076D02*
X58102476Y-24823695D01*
X59054857Y-24633219D02*
X59102476Y-24585600D01*
X59102476Y-24585600D02*
X59197714Y-24537980D01*
X59197714Y-24537980D02*
X59435809Y-24537980D01*
X59435809Y-24537980D02*
X59531047Y-24585600D01*
X59531047Y-24585600D02*
X59578666Y-24633219D01*
X59578666Y-24633219D02*
X59626285Y-24728457D01*
X59626285Y-24728457D02*
X59626285Y-24823695D01*
X59626285Y-24823695D02*
X59578666Y-24966552D01*
X59578666Y-24966552D02*
X59007238Y-25537980D01*
X59007238Y-25537980D02*
X59626285Y-25537980D01*
X59912000Y-24537980D02*
X60245333Y-25537980D01*
X60245333Y-25537980D02*
X60578666Y-24537980D01*
X4775104Y-14933600D02*
X4679866Y-14885980D01*
X4679866Y-14885980D02*
X4537009Y-14885980D01*
X4537009Y-14885980D02*
X4394152Y-14933600D01*
X4394152Y-14933600D02*
X4298914Y-15028838D01*
X4298914Y-15028838D02*
X4251295Y-15124076D01*
X4251295Y-15124076D02*
X4203676Y-15314552D01*
X4203676Y-15314552D02*
X4203676Y-15457409D01*
X4203676Y-15457409D02*
X4251295Y-15647885D01*
X4251295Y-15647885D02*
X4298914Y-15743123D01*
X4298914Y-15743123D02*
X4394152Y-15838361D01*
X4394152Y-15838361D02*
X4537009Y-15885980D01*
X4537009Y-15885980D02*
X4632247Y-15885980D01*
X4632247Y-15885980D02*
X4775104Y-15838361D01*
X4775104Y-15838361D02*
X4822723Y-15790742D01*
X4822723Y-15790742D02*
X4822723Y-15457409D01*
X4822723Y-15457409D02*
X4632247Y-15457409D01*
X5251295Y-15885980D02*
X5251295Y-14885980D01*
X5251295Y-14885980D02*
X5822723Y-15885980D01*
X5822723Y-15885980D02*
X5822723Y-14885980D01*
X6298914Y-15885980D02*
X6298914Y-14885980D01*
X6298914Y-14885980D02*
X6537009Y-14885980D01*
X6537009Y-14885980D02*
X6679866Y-14933600D01*
X6679866Y-14933600D02*
X6775104Y-15028838D01*
X6775104Y-15028838D02*
X6822723Y-15124076D01*
X6822723Y-15124076D02*
X6870342Y-15314552D01*
X6870342Y-15314552D02*
X6870342Y-15457409D01*
X6870342Y-15457409D02*
X6822723Y-15647885D01*
X6822723Y-15647885D02*
X6775104Y-15743123D01*
X6775104Y-15743123D02*
X6679866Y-15838361D01*
X6679866Y-15838361D02*
X6537009Y-15885980D01*
X6537009Y-15885980D02*
X6298914Y-15885980D01*
X39179428Y-28773371D02*
X39322285Y-28820990D01*
X39322285Y-28820990D02*
X39369904Y-28868609D01*
X39369904Y-28868609D02*
X39417523Y-28963847D01*
X39417523Y-28963847D02*
X39417523Y-29106704D01*
X39417523Y-29106704D02*
X39369904Y-29201942D01*
X39369904Y-29201942D02*
X39322285Y-29249561D01*
X39322285Y-29249561D02*
X39227047Y-29297180D01*
X39227047Y-29297180D02*
X38846095Y-29297180D01*
X38846095Y-29297180D02*
X38846095Y-28297180D01*
X38846095Y-28297180D02*
X39179428Y-28297180D01*
X39179428Y-28297180D02*
X39274666Y-28344800D01*
X39274666Y-28344800D02*
X39322285Y-28392419D01*
X39322285Y-28392419D02*
X39369904Y-28487657D01*
X39369904Y-28487657D02*
X39369904Y-28582895D01*
X39369904Y-28582895D02*
X39322285Y-28678133D01*
X39322285Y-28678133D02*
X39274666Y-28725752D01*
X39274666Y-28725752D02*
X39179428Y-28773371D01*
X39179428Y-28773371D02*
X38846095Y-28773371D01*
X39798476Y-29011466D02*
X40274666Y-29011466D01*
X39703238Y-29297180D02*
X40036571Y-28297180D01*
X40036571Y-28297180D02*
X40369904Y-29297180D01*
X40560381Y-28297180D02*
X41131809Y-28297180D01*
X40846095Y-29297180D02*
X40846095Y-28297180D01*
X41322286Y-28297180D02*
X41893714Y-28297180D01*
X41608000Y-29297180D02*
X41608000Y-28297180D01*
X42131810Y-28297180D02*
X42750857Y-28297180D01*
X42750857Y-28297180D02*
X42417524Y-28678133D01*
X42417524Y-28678133D02*
X42560381Y-28678133D01*
X42560381Y-28678133D02*
X42655619Y-28725752D01*
X42655619Y-28725752D02*
X42703238Y-28773371D01*
X42703238Y-28773371D02*
X42750857Y-28868609D01*
X42750857Y-28868609D02*
X42750857Y-29106704D01*
X42750857Y-29106704D02*
X42703238Y-29201942D01*
X42703238Y-29201942D02*
X42655619Y-29249561D01*
X42655619Y-29249561D02*
X42560381Y-29297180D01*
X42560381Y-29297180D02*
X42274667Y-29297180D01*
X42274667Y-29297180D02*
X42179429Y-29249561D01*
X42179429Y-29249561D02*
X42131810Y-29201942D01*
X51666685Y-11075980D02*
X51190495Y-11075980D01*
X51190495Y-11075980D02*
X51142876Y-11552171D01*
X51142876Y-11552171D02*
X51190495Y-11504552D01*
X51190495Y-11504552D02*
X51285733Y-11456933D01*
X51285733Y-11456933D02*
X51523828Y-11456933D01*
X51523828Y-11456933D02*
X51619066Y-11504552D01*
X51619066Y-11504552D02*
X51666685Y-11552171D01*
X51666685Y-11552171D02*
X51714304Y-11647409D01*
X51714304Y-11647409D02*
X51714304Y-11885504D01*
X51714304Y-11885504D02*
X51666685Y-11980742D01*
X51666685Y-11980742D02*
X51619066Y-12028361D01*
X51619066Y-12028361D02*
X51523828Y-12075980D01*
X51523828Y-12075980D02*
X51285733Y-12075980D01*
X51285733Y-12075980D02*
X51190495Y-12028361D01*
X51190495Y-12028361D02*
X51142876Y-11980742D01*
X52000019Y-11075980D02*
X52333352Y-12075980D01*
X52333352Y-12075980D02*
X52666685Y-11075980D01*
X53885733Y-12456933D02*
X53838114Y-12409314D01*
X53838114Y-12409314D02*
X53742876Y-12266457D01*
X53742876Y-12266457D02*
X53695257Y-12171219D01*
X53695257Y-12171219D02*
X53647638Y-12028361D01*
X53647638Y-12028361D02*
X53600019Y-11790266D01*
X53600019Y-11790266D02*
X53600019Y-11599790D01*
X53600019Y-11599790D02*
X53647638Y-11361695D01*
X53647638Y-11361695D02*
X53695257Y-11218838D01*
X53695257Y-11218838D02*
X53742876Y-11123600D01*
X53742876Y-11123600D02*
X53838114Y-10980742D01*
X53838114Y-10980742D02*
X53885733Y-10933123D01*
X54266686Y-12075980D02*
X54266686Y-11075980D01*
X54742876Y-12075980D02*
X54742876Y-11075980D01*
X54742876Y-11075980D02*
X55314304Y-12075980D01*
X55314304Y-12075980D02*
X55314304Y-11075980D01*
X55695257Y-12456933D02*
X55742876Y-12409314D01*
X55742876Y-12409314D02*
X55838114Y-12266457D01*
X55838114Y-12266457D02*
X55885733Y-12171219D01*
X55885733Y-12171219D02*
X55933352Y-12028361D01*
X55933352Y-12028361D02*
X55980971Y-11790266D01*
X55980971Y-11790266D02*
X55980971Y-11599790D01*
X55980971Y-11599790D02*
X55933352Y-11361695D01*
X55933352Y-11361695D02*
X55885733Y-11218838D01*
X55885733Y-11218838D02*
X55838114Y-11123600D01*
X55838114Y-11123600D02*
X55742876Y-10980742D01*
X55742876Y-10980742D02*
X55695257Y-10933123D01*
X44643904Y-28367000D02*
X44548666Y-28319380D01*
X44548666Y-28319380D02*
X44405809Y-28319380D01*
X44405809Y-28319380D02*
X44262952Y-28367000D01*
X44262952Y-28367000D02*
X44167714Y-28462238D01*
X44167714Y-28462238D02*
X44120095Y-28557476D01*
X44120095Y-28557476D02*
X44072476Y-28747952D01*
X44072476Y-28747952D02*
X44072476Y-28890809D01*
X44072476Y-28890809D02*
X44120095Y-29081285D01*
X44120095Y-29081285D02*
X44167714Y-29176523D01*
X44167714Y-29176523D02*
X44262952Y-29271761D01*
X44262952Y-29271761D02*
X44405809Y-29319380D01*
X44405809Y-29319380D02*
X44501047Y-29319380D01*
X44501047Y-29319380D02*
X44643904Y-29271761D01*
X44643904Y-29271761D02*
X44691523Y-29224142D01*
X44691523Y-29224142D02*
X44691523Y-28890809D01*
X44691523Y-28890809D02*
X44501047Y-28890809D01*
X45120095Y-29319380D02*
X45120095Y-28319380D01*
X45120095Y-28319380D02*
X45691523Y-29319380D01*
X45691523Y-29319380D02*
X45691523Y-28319380D01*
X46167714Y-29319380D02*
X46167714Y-28319380D01*
X46167714Y-28319380D02*
X46405809Y-28319380D01*
X46405809Y-28319380D02*
X46548666Y-28367000D01*
X46548666Y-28367000D02*
X46643904Y-28462238D01*
X46643904Y-28462238D02*
X46691523Y-28557476D01*
X46691523Y-28557476D02*
X46739142Y-28747952D01*
X46739142Y-28747952D02*
X46739142Y-28890809D01*
X46739142Y-28890809D02*
X46691523Y-29081285D01*
X46691523Y-29081285D02*
X46643904Y-29176523D01*
X46643904Y-29176523D02*
X46548666Y-29271761D01*
X46548666Y-29271761D02*
X46405809Y-29319380D01*
X46405809Y-29319380D02*
X46167714Y-29319380D01*
X23164704Y-24636400D02*
X23069466Y-24588780D01*
X23069466Y-24588780D02*
X22926609Y-24588780D01*
X22926609Y-24588780D02*
X22783752Y-24636400D01*
X22783752Y-24636400D02*
X22688514Y-24731638D01*
X22688514Y-24731638D02*
X22640895Y-24826876D01*
X22640895Y-24826876D02*
X22593276Y-25017352D01*
X22593276Y-25017352D02*
X22593276Y-25160209D01*
X22593276Y-25160209D02*
X22640895Y-25350685D01*
X22640895Y-25350685D02*
X22688514Y-25445923D01*
X22688514Y-25445923D02*
X22783752Y-25541161D01*
X22783752Y-25541161D02*
X22926609Y-25588780D01*
X22926609Y-25588780D02*
X23021847Y-25588780D01*
X23021847Y-25588780D02*
X23164704Y-25541161D01*
X23164704Y-25541161D02*
X23212323Y-25493542D01*
X23212323Y-25493542D02*
X23212323Y-25160209D01*
X23212323Y-25160209D02*
X23021847Y-25160209D01*
X23640895Y-25588780D02*
X23640895Y-24588780D01*
X23640895Y-24588780D02*
X24212323Y-25588780D01*
X24212323Y-25588780D02*
X24212323Y-24588780D01*
X24688514Y-25588780D02*
X24688514Y-24588780D01*
X24688514Y-24588780D02*
X24926609Y-24588780D01*
X24926609Y-24588780D02*
X25069466Y-24636400D01*
X25069466Y-24636400D02*
X25164704Y-24731638D01*
X25164704Y-24731638D02*
X25212323Y-24826876D01*
X25212323Y-24826876D02*
X25259942Y-25017352D01*
X25259942Y-25017352D02*
X25259942Y-25160209D01*
X25259942Y-25160209D02*
X25212323Y-25350685D01*
X25212323Y-25350685D02*
X25164704Y-25445923D01*
X25164704Y-25445923D02*
X25069466Y-25541161D01*
X25069466Y-25541161D02*
X24926609Y-25588780D01*
X24926609Y-25588780D02*
X24688514Y-25588780D01*
X64261904Y-24534800D02*
X64166666Y-24487180D01*
X64166666Y-24487180D02*
X64023809Y-24487180D01*
X64023809Y-24487180D02*
X63880952Y-24534800D01*
X63880952Y-24534800D02*
X63785714Y-24630038D01*
X63785714Y-24630038D02*
X63738095Y-24725276D01*
X63738095Y-24725276D02*
X63690476Y-24915752D01*
X63690476Y-24915752D02*
X63690476Y-25058609D01*
X63690476Y-25058609D02*
X63738095Y-25249085D01*
X63738095Y-25249085D02*
X63785714Y-25344323D01*
X63785714Y-25344323D02*
X63880952Y-25439561D01*
X63880952Y-25439561D02*
X64023809Y-25487180D01*
X64023809Y-25487180D02*
X64119047Y-25487180D01*
X64119047Y-25487180D02*
X64261904Y-25439561D01*
X64261904Y-25439561D02*
X64309523Y-25391942D01*
X64309523Y-25391942D02*
X64309523Y-25058609D01*
X64309523Y-25058609D02*
X64119047Y-25058609D01*
X64738095Y-25487180D02*
X64738095Y-24487180D01*
X64738095Y-24487180D02*
X65309523Y-25487180D01*
X65309523Y-25487180D02*
X65309523Y-24487180D01*
X65785714Y-25487180D02*
X65785714Y-24487180D01*
X65785714Y-24487180D02*
X66023809Y-24487180D01*
X66023809Y-24487180D02*
X66166666Y-24534800D01*
X66166666Y-24534800D02*
X66261904Y-24630038D01*
X66261904Y-24630038D02*
X66309523Y-24725276D01*
X66309523Y-24725276D02*
X66357142Y-24915752D01*
X66357142Y-24915752D02*
X66357142Y-25058609D01*
X66357142Y-25058609D02*
X66309523Y-25249085D01*
X66309523Y-25249085D02*
X66261904Y-25344323D01*
X66261904Y-25344323D02*
X66166666Y-25439561D01*
X66166666Y-25439561D02*
X66023809Y-25487180D01*
X66023809Y-25487180D02*
X65785714Y-25487180D01*
X20110438Y-9247180D02*
X20681866Y-9247180D01*
X20396152Y-10247180D02*
X20396152Y-9247180D01*
X21015200Y-9723371D02*
X21348533Y-9723371D01*
X21491390Y-10247180D02*
X21015200Y-10247180D01*
X21015200Y-10247180D02*
X21015200Y-9247180D01*
X21015200Y-9247180D02*
X21491390Y-9247180D01*
X21919962Y-10247180D02*
X21919962Y-9247180D01*
X21919962Y-9247180D02*
X22253295Y-9961466D01*
X22253295Y-9961466D02*
X22586628Y-9247180D01*
X22586628Y-9247180D02*
X22586628Y-10247180D01*
X23062819Y-10247180D02*
X23062819Y-9247180D01*
X23062819Y-9247180D02*
X23443771Y-9247180D01*
X23443771Y-9247180D02*
X23539009Y-9294800D01*
X23539009Y-9294800D02*
X23586628Y-9342419D01*
X23586628Y-9342419D02*
X23634247Y-9437657D01*
X23634247Y-9437657D02*
X23634247Y-9580514D01*
X23634247Y-9580514D02*
X23586628Y-9675752D01*
X23586628Y-9675752D02*
X23539009Y-9723371D01*
X23539009Y-9723371D02*
X23443771Y-9770990D01*
X23443771Y-9770990D02*
X23062819Y-9770990D01*
X27892285Y-24487180D02*
X27416095Y-24487180D01*
X27416095Y-24487180D02*
X27368476Y-24963371D01*
X27368476Y-24963371D02*
X27416095Y-24915752D01*
X27416095Y-24915752D02*
X27511333Y-24868133D01*
X27511333Y-24868133D02*
X27749428Y-24868133D01*
X27749428Y-24868133D02*
X27844666Y-24915752D01*
X27844666Y-24915752D02*
X27892285Y-24963371D01*
X27892285Y-24963371D02*
X27939904Y-25058609D01*
X27939904Y-25058609D02*
X27939904Y-25296704D01*
X27939904Y-25296704D02*
X27892285Y-25391942D01*
X27892285Y-25391942D02*
X27844666Y-25439561D01*
X27844666Y-25439561D02*
X27749428Y-25487180D01*
X27749428Y-25487180D02*
X27511333Y-25487180D01*
X27511333Y-25487180D02*
X27416095Y-25439561D01*
X27416095Y-25439561D02*
X27368476Y-25391942D01*
X28225619Y-24487180D02*
X28558952Y-25487180D01*
X28558952Y-25487180D02*
X28892285Y-24487180D01*
X7772304Y-7466000D02*
X7677066Y-7418380D01*
X7677066Y-7418380D02*
X7534209Y-7418380D01*
X7534209Y-7418380D02*
X7391352Y-7466000D01*
X7391352Y-7466000D02*
X7296114Y-7561238D01*
X7296114Y-7561238D02*
X7248495Y-7656476D01*
X7248495Y-7656476D02*
X7200876Y-7846952D01*
X7200876Y-7846952D02*
X7200876Y-7989809D01*
X7200876Y-7989809D02*
X7248495Y-8180285D01*
X7248495Y-8180285D02*
X7296114Y-8275523D01*
X7296114Y-8275523D02*
X7391352Y-8370761D01*
X7391352Y-8370761D02*
X7534209Y-8418380D01*
X7534209Y-8418380D02*
X7629447Y-8418380D01*
X7629447Y-8418380D02*
X7772304Y-8370761D01*
X7772304Y-8370761D02*
X7819923Y-8323142D01*
X7819923Y-8323142D02*
X7819923Y-7989809D01*
X7819923Y-7989809D02*
X7629447Y-7989809D01*
X8248495Y-8418380D02*
X8248495Y-7418380D01*
X8248495Y-7418380D02*
X8819923Y-8418380D01*
X8819923Y-8418380D02*
X8819923Y-7418380D01*
X9296114Y-8418380D02*
X9296114Y-7418380D01*
X9296114Y-7418380D02*
X9534209Y-7418380D01*
X9534209Y-7418380D02*
X9677066Y-7466000D01*
X9677066Y-7466000D02*
X9772304Y-7561238D01*
X9772304Y-7561238D02*
X9819923Y-7656476D01*
X9819923Y-7656476D02*
X9867542Y-7846952D01*
X9867542Y-7846952D02*
X9867542Y-7989809D01*
X9867542Y-7989809D02*
X9819923Y-8180285D01*
X9819923Y-8180285D02*
X9772304Y-8275523D01*
X9772304Y-8275523D02*
X9677066Y-8370761D01*
X9677066Y-8370761D02*
X9534209Y-8418380D01*
X9534209Y-8418380D02*
X9296114Y-8418380D01*
X73913904Y-15073180D02*
X73342476Y-15073180D01*
X73628190Y-15073180D02*
X73628190Y-14073180D01*
X73628190Y-14073180D02*
X73532952Y-14216038D01*
X73532952Y-14216038D02*
X73437714Y-14311276D01*
X73437714Y-14311276D02*
X73342476Y-14358895D01*
X74294857Y-14168419D02*
X74342476Y-14120800D01*
X74342476Y-14120800D02*
X74437714Y-14073180D01*
X74437714Y-14073180D02*
X74675809Y-14073180D01*
X74675809Y-14073180D02*
X74771047Y-14120800D01*
X74771047Y-14120800D02*
X74818666Y-14168419D01*
X74818666Y-14168419D02*
X74866285Y-14263657D01*
X74866285Y-14263657D02*
X74866285Y-14358895D01*
X74866285Y-14358895D02*
X74818666Y-14501752D01*
X74818666Y-14501752D02*
X74247238Y-15073180D01*
X74247238Y-15073180D02*
X74866285Y-15073180D01*
X75152000Y-14073180D02*
X75485333Y-15073180D01*
X75485333Y-15073180D02*
X75818666Y-14073180D01*
X77037714Y-15454133D02*
X76990095Y-15406514D01*
X76990095Y-15406514D02*
X76894857Y-15263657D01*
X76894857Y-15263657D02*
X76847238Y-15168419D01*
X76847238Y-15168419D02*
X76799619Y-15025561D01*
X76799619Y-15025561D02*
X76752000Y-14787466D01*
X76752000Y-14787466D02*
X76752000Y-14596990D01*
X76752000Y-14596990D02*
X76799619Y-14358895D01*
X76799619Y-14358895D02*
X76847238Y-14216038D01*
X76847238Y-14216038D02*
X76894857Y-14120800D01*
X76894857Y-14120800D02*
X76990095Y-13977942D01*
X76990095Y-13977942D02*
X77037714Y-13930323D01*
X77418667Y-15073180D02*
X77418667Y-14073180D01*
X77894857Y-15073180D02*
X77894857Y-14073180D01*
X77894857Y-14073180D02*
X78466285Y-15073180D01*
X78466285Y-15073180D02*
X78466285Y-14073180D01*
X78847238Y-15454133D02*
X78894857Y-15406514D01*
X78894857Y-15406514D02*
X78990095Y-15263657D01*
X78990095Y-15263657D02*
X79037714Y-15168419D01*
X79037714Y-15168419D02*
X79085333Y-15025561D01*
X79085333Y-15025561D02*
X79132952Y-14787466D01*
X79132952Y-14787466D02*
X79132952Y-14596990D01*
X79132952Y-14596990D02*
X79085333Y-14358895D01*
X79085333Y-14358895D02*
X79037714Y-14216038D01*
X79037714Y-14216038D02*
X78990095Y-14120800D01*
X78990095Y-14120800D02*
X78894857Y-13977942D01*
X78894857Y-13977942D02*
X78847238Y-13930323D01*
X74625104Y-28090800D02*
X74529866Y-28043180D01*
X74529866Y-28043180D02*
X74387009Y-28043180D01*
X74387009Y-28043180D02*
X74244152Y-28090800D01*
X74244152Y-28090800D02*
X74148914Y-28186038D01*
X74148914Y-28186038D02*
X74101295Y-28281276D01*
X74101295Y-28281276D02*
X74053676Y-28471752D01*
X74053676Y-28471752D02*
X74053676Y-28614609D01*
X74053676Y-28614609D02*
X74101295Y-28805085D01*
X74101295Y-28805085D02*
X74148914Y-28900323D01*
X74148914Y-28900323D02*
X74244152Y-28995561D01*
X74244152Y-28995561D02*
X74387009Y-29043180D01*
X74387009Y-29043180D02*
X74482247Y-29043180D01*
X74482247Y-29043180D02*
X74625104Y-28995561D01*
X74625104Y-28995561D02*
X74672723Y-28947942D01*
X74672723Y-28947942D02*
X74672723Y-28614609D01*
X74672723Y-28614609D02*
X74482247Y-28614609D01*
X75101295Y-29043180D02*
X75101295Y-28043180D01*
X75101295Y-28043180D02*
X75672723Y-29043180D01*
X75672723Y-29043180D02*
X75672723Y-28043180D01*
X76148914Y-29043180D02*
X76148914Y-28043180D01*
X76148914Y-28043180D02*
X76387009Y-28043180D01*
X76387009Y-28043180D02*
X76529866Y-28090800D01*
X76529866Y-28090800D02*
X76625104Y-28186038D01*
X76625104Y-28186038D02*
X76672723Y-28281276D01*
X76672723Y-28281276D02*
X76720342Y-28471752D01*
X76720342Y-28471752D02*
X76720342Y-28614609D01*
X76720342Y-28614609D02*
X76672723Y-28805085D01*
X76672723Y-28805085D02*
X76625104Y-28900323D01*
X76625104Y-28900323D02*
X76529866Y-28995561D01*
X76529866Y-28995561D02*
X76387009Y-29043180D01*
X76387009Y-29043180D02*
X76148914Y-29043180D01*
X18287904Y-7567600D02*
X18192666Y-7519980D01*
X18192666Y-7519980D02*
X18049809Y-7519980D01*
X18049809Y-7519980D02*
X17906952Y-7567600D01*
X17906952Y-7567600D02*
X17811714Y-7662838D01*
X17811714Y-7662838D02*
X17764095Y-7758076D01*
X17764095Y-7758076D02*
X17716476Y-7948552D01*
X17716476Y-7948552D02*
X17716476Y-8091409D01*
X17716476Y-8091409D02*
X17764095Y-8281885D01*
X17764095Y-8281885D02*
X17811714Y-8377123D01*
X17811714Y-8377123D02*
X17906952Y-8472361D01*
X17906952Y-8472361D02*
X18049809Y-8519980D01*
X18049809Y-8519980D02*
X18145047Y-8519980D01*
X18145047Y-8519980D02*
X18287904Y-8472361D01*
X18287904Y-8472361D02*
X18335523Y-8424742D01*
X18335523Y-8424742D02*
X18335523Y-8091409D01*
X18335523Y-8091409D02*
X18145047Y-8091409D01*
X18764095Y-8519980D02*
X18764095Y-7519980D01*
X18764095Y-7519980D02*
X19335523Y-8519980D01*
X19335523Y-8519980D02*
X19335523Y-7519980D01*
X19811714Y-8519980D02*
X19811714Y-7519980D01*
X19811714Y-7519980D02*
X20049809Y-7519980D01*
X20049809Y-7519980D02*
X20192666Y-7567600D01*
X20192666Y-7567600D02*
X20287904Y-7662838D01*
X20287904Y-7662838D02*
X20335523Y-7758076D01*
X20335523Y-7758076D02*
X20383142Y-7948552D01*
X20383142Y-7948552D02*
X20383142Y-8091409D01*
X20383142Y-8091409D02*
X20335523Y-8281885D01*
X20335523Y-8281885D02*
X20287904Y-8377123D01*
X20287904Y-8377123D02*
X20192666Y-8472361D01*
X20192666Y-8472361D02*
X20049809Y-8519980D01*
X20049809Y-8519980D02*
X19811714Y-8519980D01*
X59334304Y-11123600D02*
X59239066Y-11075980D01*
X59239066Y-11075980D02*
X59096209Y-11075980D01*
X59096209Y-11075980D02*
X58953352Y-11123600D01*
X58953352Y-11123600D02*
X58858114Y-11218838D01*
X58858114Y-11218838D02*
X58810495Y-11314076D01*
X58810495Y-11314076D02*
X58762876Y-11504552D01*
X58762876Y-11504552D02*
X58762876Y-11647409D01*
X58762876Y-11647409D02*
X58810495Y-11837885D01*
X58810495Y-11837885D02*
X58858114Y-11933123D01*
X58858114Y-11933123D02*
X58953352Y-12028361D01*
X58953352Y-12028361D02*
X59096209Y-12075980D01*
X59096209Y-12075980D02*
X59191447Y-12075980D01*
X59191447Y-12075980D02*
X59334304Y-12028361D01*
X59334304Y-12028361D02*
X59381923Y-11980742D01*
X59381923Y-11980742D02*
X59381923Y-11647409D01*
X59381923Y-11647409D02*
X59191447Y-11647409D01*
X59810495Y-12075980D02*
X59810495Y-11075980D01*
X59810495Y-11075980D02*
X60381923Y-12075980D01*
X60381923Y-12075980D02*
X60381923Y-11075980D01*
X60858114Y-12075980D02*
X60858114Y-11075980D01*
X60858114Y-11075980D02*
X61096209Y-11075980D01*
X61096209Y-11075980D02*
X61239066Y-11123600D01*
X61239066Y-11123600D02*
X61334304Y-11218838D01*
X61334304Y-11218838D02*
X61381923Y-11314076D01*
X61381923Y-11314076D02*
X61429542Y-11504552D01*
X61429542Y-11504552D02*
X61429542Y-11647409D01*
X61429542Y-11647409D02*
X61381923Y-11837885D01*
X61381923Y-11837885D02*
X61334304Y-11933123D01*
X61334304Y-11933123D02*
X61239066Y-12028361D01*
X61239066Y-12028361D02*
X61096209Y-12075980D01*
X61096209Y-12075980D02*
X60858114Y-12075980D01*
X71173885Y-7062780D02*
X70697695Y-7062780D01*
X70697695Y-7062780D02*
X70650076Y-7538971D01*
X70650076Y-7538971D02*
X70697695Y-7491352D01*
X70697695Y-7491352D02*
X70792933Y-7443733D01*
X70792933Y-7443733D02*
X71031028Y-7443733D01*
X71031028Y-7443733D02*
X71126266Y-7491352D01*
X71126266Y-7491352D02*
X71173885Y-7538971D01*
X71173885Y-7538971D02*
X71221504Y-7634209D01*
X71221504Y-7634209D02*
X71221504Y-7872304D01*
X71221504Y-7872304D02*
X71173885Y-7967542D01*
X71173885Y-7967542D02*
X71126266Y-8015161D01*
X71126266Y-8015161D02*
X71031028Y-8062780D01*
X71031028Y-8062780D02*
X70792933Y-8062780D01*
X70792933Y-8062780D02*
X70697695Y-8015161D01*
X70697695Y-8015161D02*
X70650076Y-7967542D01*
X71507219Y-7062780D02*
X71840552Y-8062780D01*
X71840552Y-8062780D02*
X72173885Y-7062780D01*
X72494685Y-37796780D02*
X72018495Y-37796780D01*
X72018495Y-37796780D02*
X71970876Y-38272971D01*
X71970876Y-38272971D02*
X72018495Y-38225352D01*
X72018495Y-38225352D02*
X72113733Y-38177733D01*
X72113733Y-38177733D02*
X72351828Y-38177733D01*
X72351828Y-38177733D02*
X72447066Y-38225352D01*
X72447066Y-38225352D02*
X72494685Y-38272971D01*
X72494685Y-38272971D02*
X72542304Y-38368209D01*
X72542304Y-38368209D02*
X72542304Y-38606304D01*
X72542304Y-38606304D02*
X72494685Y-38701542D01*
X72494685Y-38701542D02*
X72447066Y-38749161D01*
X72447066Y-38749161D02*
X72351828Y-38796780D01*
X72351828Y-38796780D02*
X72113733Y-38796780D01*
X72113733Y-38796780D02*
X72018495Y-38749161D01*
X72018495Y-38749161D02*
X71970876Y-38701542D01*
X72828019Y-37796780D02*
X73161352Y-38796780D01*
X73161352Y-38796780D02*
X73494685Y-37796780D01*
X51574628Y-28722571D02*
X51717485Y-28770190D01*
X51717485Y-28770190D02*
X51765104Y-28817809D01*
X51765104Y-28817809D02*
X51812723Y-28913047D01*
X51812723Y-28913047D02*
X51812723Y-29055904D01*
X51812723Y-29055904D02*
X51765104Y-29151142D01*
X51765104Y-29151142D02*
X51717485Y-29198761D01*
X51717485Y-29198761D02*
X51622247Y-29246380D01*
X51622247Y-29246380D02*
X51241295Y-29246380D01*
X51241295Y-29246380D02*
X51241295Y-28246380D01*
X51241295Y-28246380D02*
X51574628Y-28246380D01*
X51574628Y-28246380D02*
X51669866Y-28294000D01*
X51669866Y-28294000D02*
X51717485Y-28341619D01*
X51717485Y-28341619D02*
X51765104Y-28436857D01*
X51765104Y-28436857D02*
X51765104Y-28532095D01*
X51765104Y-28532095D02*
X51717485Y-28627333D01*
X51717485Y-28627333D02*
X51669866Y-28674952D01*
X51669866Y-28674952D02*
X51574628Y-28722571D01*
X51574628Y-28722571D02*
X51241295Y-28722571D01*
X52193676Y-28960666D02*
X52669866Y-28960666D01*
X52098438Y-29246380D02*
X52431771Y-28246380D01*
X52431771Y-28246380D02*
X52765104Y-29246380D01*
X52955581Y-28246380D02*
X53527009Y-28246380D01*
X53241295Y-29246380D02*
X53241295Y-28246380D01*
X53717486Y-28246380D02*
X54288914Y-28246380D01*
X54003200Y-29246380D02*
X54003200Y-28246380D01*
X55050819Y-28579714D02*
X55050819Y-29246380D01*
X54812724Y-28198761D02*
X54574629Y-28913047D01*
X54574629Y-28913047D02*
X55193676Y-28913047D01*
X67811638Y-29516380D02*
X68383066Y-29516380D01*
X68097352Y-30516380D02*
X68097352Y-29516380D01*
X68716400Y-29992571D02*
X69049733Y-29992571D01*
X69192590Y-30516380D02*
X68716400Y-30516380D01*
X68716400Y-30516380D02*
X68716400Y-29516380D01*
X68716400Y-29516380D02*
X69192590Y-29516380D01*
X69621162Y-30516380D02*
X69621162Y-29516380D01*
X69621162Y-29516380D02*
X69954495Y-30230666D01*
X69954495Y-30230666D02*
X70287828Y-29516380D01*
X70287828Y-29516380D02*
X70287828Y-30516380D01*
X70764019Y-30516380D02*
X70764019Y-29516380D01*
X70764019Y-29516380D02*
X71144971Y-29516380D01*
X71144971Y-29516380D02*
X71240209Y-29564000D01*
X71240209Y-29564000D02*
X71287828Y-29611619D01*
X71287828Y-29611619D02*
X71335447Y-29706857D01*
X71335447Y-29706857D02*
X71335447Y-29849714D01*
X71335447Y-29849714D02*
X71287828Y-29944952D01*
X71287828Y-29944952D02*
X71240209Y-29992571D01*
X71240209Y-29992571D02*
X71144971Y-30040190D01*
X71144971Y-30040190D02*
X70764019Y-30040190D01*
X46532704Y-24484000D02*
X46437466Y-24436380D01*
X46437466Y-24436380D02*
X46294609Y-24436380D01*
X46294609Y-24436380D02*
X46151752Y-24484000D01*
X46151752Y-24484000D02*
X46056514Y-24579238D01*
X46056514Y-24579238D02*
X46008895Y-24674476D01*
X46008895Y-24674476D02*
X45961276Y-24864952D01*
X45961276Y-24864952D02*
X45961276Y-25007809D01*
X45961276Y-25007809D02*
X46008895Y-25198285D01*
X46008895Y-25198285D02*
X46056514Y-25293523D01*
X46056514Y-25293523D02*
X46151752Y-25388761D01*
X46151752Y-25388761D02*
X46294609Y-25436380D01*
X46294609Y-25436380D02*
X46389847Y-25436380D01*
X46389847Y-25436380D02*
X46532704Y-25388761D01*
X46532704Y-25388761D02*
X46580323Y-25341142D01*
X46580323Y-25341142D02*
X46580323Y-25007809D01*
X46580323Y-25007809D02*
X46389847Y-25007809D01*
X47008895Y-25436380D02*
X47008895Y-24436380D01*
X47008895Y-24436380D02*
X47580323Y-25436380D01*
X47580323Y-25436380D02*
X47580323Y-24436380D01*
X48056514Y-25436380D02*
X48056514Y-24436380D01*
X48056514Y-24436380D02*
X48294609Y-24436380D01*
X48294609Y-24436380D02*
X48437466Y-24484000D01*
X48437466Y-24484000D02*
X48532704Y-24579238D01*
X48532704Y-24579238D02*
X48580323Y-24674476D01*
X48580323Y-24674476D02*
X48627942Y-24864952D01*
X48627942Y-24864952D02*
X48627942Y-25007809D01*
X48627942Y-25007809D02*
X48580323Y-25198285D01*
X48580323Y-25198285D02*
X48532704Y-25293523D01*
X48532704Y-25293523D02*
X48437466Y-25388761D01*
X48437466Y-25388761D02*
X48294609Y-25436380D01*
X48294609Y-25436380D02*
X48056514Y-25436380D01*
X63045885Y-37796780D02*
X62569695Y-37796780D01*
X62569695Y-37796780D02*
X62522076Y-38272971D01*
X62522076Y-38272971D02*
X62569695Y-38225352D01*
X62569695Y-38225352D02*
X62664933Y-38177733D01*
X62664933Y-38177733D02*
X62903028Y-38177733D01*
X62903028Y-38177733D02*
X62998266Y-38225352D01*
X62998266Y-38225352D02*
X63045885Y-38272971D01*
X63045885Y-38272971D02*
X63093504Y-38368209D01*
X63093504Y-38368209D02*
X63093504Y-38606304D01*
X63093504Y-38606304D02*
X63045885Y-38701542D01*
X63045885Y-38701542D02*
X62998266Y-38749161D01*
X62998266Y-38749161D02*
X62903028Y-38796780D01*
X62903028Y-38796780D02*
X62664933Y-38796780D01*
X62664933Y-38796780D02*
X62569695Y-38749161D01*
X62569695Y-38749161D02*
X62522076Y-38701542D01*
X63379219Y-37796780D02*
X63712552Y-38796780D01*
X63712552Y-38796780D02*
X64045885Y-37796780D01*
X58788228Y-30144971D02*
X58454895Y-30144971D01*
X58454895Y-30668780D02*
X58454895Y-29668780D01*
X58454895Y-29668780D02*
X58931085Y-29668780D01*
X59264419Y-30383066D02*
X59740609Y-30383066D01*
X59169181Y-30668780D02*
X59502514Y-29668780D01*
X59502514Y-29668780D02*
X59835847Y-30668780D01*
X60169181Y-30668780D02*
X60169181Y-29668780D01*
X60169181Y-29668780D02*
X60740609Y-30668780D01*
X60740609Y-30668780D02*
X60740609Y-29668780D01*
X61740609Y-30668780D02*
X61169181Y-30668780D01*
X61454895Y-30668780D02*
X61454895Y-29668780D01*
X61454895Y-29668780D02*
X61359657Y-29811638D01*
X61359657Y-29811638D02*
X61264419Y-29906876D01*
X61264419Y-29906876D02*
X61169181Y-29954495D01*
X47345504Y-11022000D02*
X47250266Y-10974380D01*
X47250266Y-10974380D02*
X47107409Y-10974380D01*
X47107409Y-10974380D02*
X46964552Y-11022000D01*
X46964552Y-11022000D02*
X46869314Y-11117238D01*
X46869314Y-11117238D02*
X46821695Y-11212476D01*
X46821695Y-11212476D02*
X46774076Y-11402952D01*
X46774076Y-11402952D02*
X46774076Y-11545809D01*
X46774076Y-11545809D02*
X46821695Y-11736285D01*
X46821695Y-11736285D02*
X46869314Y-11831523D01*
X46869314Y-11831523D02*
X46964552Y-11926761D01*
X46964552Y-11926761D02*
X47107409Y-11974380D01*
X47107409Y-11974380D02*
X47202647Y-11974380D01*
X47202647Y-11974380D02*
X47345504Y-11926761D01*
X47345504Y-11926761D02*
X47393123Y-11879142D01*
X47393123Y-11879142D02*
X47393123Y-11545809D01*
X47393123Y-11545809D02*
X47202647Y-11545809D01*
X47821695Y-11974380D02*
X47821695Y-10974380D01*
X47821695Y-10974380D02*
X48393123Y-11974380D01*
X48393123Y-11974380D02*
X48393123Y-10974380D01*
X48869314Y-11974380D02*
X48869314Y-10974380D01*
X48869314Y-10974380D02*
X49107409Y-10974380D01*
X49107409Y-10974380D02*
X49250266Y-11022000D01*
X49250266Y-11022000D02*
X49345504Y-11117238D01*
X49345504Y-11117238D02*
X49393123Y-11212476D01*
X49393123Y-11212476D02*
X49440742Y-11402952D01*
X49440742Y-11402952D02*
X49440742Y-11545809D01*
X49440742Y-11545809D02*
X49393123Y-11736285D01*
X49393123Y-11736285D02*
X49345504Y-11831523D01*
X49345504Y-11831523D02*
X49250266Y-11926761D01*
X49250266Y-11926761D02*
X49107409Y-11974380D01*
X49107409Y-11974380D02*
X48869314Y-11974380D01*
X37087085Y-24436380D02*
X36610895Y-24436380D01*
X36610895Y-24436380D02*
X36563276Y-24912571D01*
X36563276Y-24912571D02*
X36610895Y-24864952D01*
X36610895Y-24864952D02*
X36706133Y-24817333D01*
X36706133Y-24817333D02*
X36944228Y-24817333D01*
X36944228Y-24817333D02*
X37039466Y-24864952D01*
X37039466Y-24864952D02*
X37087085Y-24912571D01*
X37087085Y-24912571D02*
X37134704Y-25007809D01*
X37134704Y-25007809D02*
X37134704Y-25245904D01*
X37134704Y-25245904D02*
X37087085Y-25341142D01*
X37087085Y-25341142D02*
X37039466Y-25388761D01*
X37039466Y-25388761D02*
X36944228Y-25436380D01*
X36944228Y-25436380D02*
X36706133Y-25436380D01*
X36706133Y-25436380D02*
X36610895Y-25388761D01*
X36610895Y-25388761D02*
X36563276Y-25341142D01*
X37420419Y-24436380D02*
X37753752Y-25436380D01*
X37753752Y-25436380D02*
X38087085Y-24436380D01*
X65887504Y-37844400D02*
X65792266Y-37796780D01*
X65792266Y-37796780D02*
X65649409Y-37796780D01*
X65649409Y-37796780D02*
X65506552Y-37844400D01*
X65506552Y-37844400D02*
X65411314Y-37939638D01*
X65411314Y-37939638D02*
X65363695Y-38034876D01*
X65363695Y-38034876D02*
X65316076Y-38225352D01*
X65316076Y-38225352D02*
X65316076Y-38368209D01*
X65316076Y-38368209D02*
X65363695Y-38558685D01*
X65363695Y-38558685D02*
X65411314Y-38653923D01*
X65411314Y-38653923D02*
X65506552Y-38749161D01*
X65506552Y-38749161D02*
X65649409Y-38796780D01*
X65649409Y-38796780D02*
X65744647Y-38796780D01*
X65744647Y-38796780D02*
X65887504Y-38749161D01*
X65887504Y-38749161D02*
X65935123Y-38701542D01*
X65935123Y-38701542D02*
X65935123Y-38368209D01*
X65935123Y-38368209D02*
X65744647Y-38368209D01*
X66363695Y-38796780D02*
X66363695Y-37796780D01*
X66363695Y-37796780D02*
X66935123Y-38796780D01*
X66935123Y-38796780D02*
X66935123Y-37796780D01*
X67411314Y-38796780D02*
X67411314Y-37796780D01*
X67411314Y-37796780D02*
X67649409Y-37796780D01*
X67649409Y-37796780D02*
X67792266Y-37844400D01*
X67792266Y-37844400D02*
X67887504Y-37939638D01*
X67887504Y-37939638D02*
X67935123Y-38034876D01*
X67935123Y-38034876D02*
X67982742Y-38225352D01*
X67982742Y-38225352D02*
X67982742Y-38368209D01*
X67982742Y-38368209D02*
X67935123Y-38558685D01*
X67935123Y-38558685D02*
X67887504Y-38653923D01*
X67887504Y-38653923D02*
X67792266Y-38749161D01*
X67792266Y-38749161D02*
X67649409Y-38796780D01*
X67649409Y-38796780D02*
X67411314Y-38796780D01*
X39636628Y-11450571D02*
X39779485Y-11498190D01*
X39779485Y-11498190D02*
X39827104Y-11545809D01*
X39827104Y-11545809D02*
X39874723Y-11641047D01*
X39874723Y-11641047D02*
X39874723Y-11783904D01*
X39874723Y-11783904D02*
X39827104Y-11879142D01*
X39827104Y-11879142D02*
X39779485Y-11926761D01*
X39779485Y-11926761D02*
X39684247Y-11974380D01*
X39684247Y-11974380D02*
X39303295Y-11974380D01*
X39303295Y-11974380D02*
X39303295Y-10974380D01*
X39303295Y-10974380D02*
X39636628Y-10974380D01*
X39636628Y-10974380D02*
X39731866Y-11022000D01*
X39731866Y-11022000D02*
X39779485Y-11069619D01*
X39779485Y-11069619D02*
X39827104Y-11164857D01*
X39827104Y-11164857D02*
X39827104Y-11260095D01*
X39827104Y-11260095D02*
X39779485Y-11355333D01*
X39779485Y-11355333D02*
X39731866Y-11402952D01*
X39731866Y-11402952D02*
X39636628Y-11450571D01*
X39636628Y-11450571D02*
X39303295Y-11450571D01*
X40255676Y-11688666D02*
X40731866Y-11688666D01*
X40160438Y-11974380D02*
X40493771Y-10974380D01*
X40493771Y-10974380D02*
X40827104Y-11974380D01*
X41017581Y-10974380D02*
X41589009Y-10974380D01*
X41303295Y-11974380D02*
X41303295Y-10974380D01*
X41922343Y-11974380D02*
X41922343Y-10974380D01*
X41922343Y-10974380D02*
X42255676Y-11688666D01*
X42255676Y-11688666D02*
X42589009Y-10974380D01*
X42589009Y-10974380D02*
X42589009Y-11974380D01*
X43255676Y-10974380D02*
X43446152Y-10974380D01*
X43446152Y-10974380D02*
X43541390Y-11022000D01*
X43541390Y-11022000D02*
X43636628Y-11117238D01*
X43636628Y-11117238D02*
X43684247Y-11307714D01*
X43684247Y-11307714D02*
X43684247Y-11641047D01*
X43684247Y-11641047D02*
X43636628Y-11831523D01*
X43636628Y-11831523D02*
X43541390Y-11926761D01*
X43541390Y-11926761D02*
X43446152Y-11974380D01*
X43446152Y-11974380D02*
X43255676Y-11974380D01*
X43255676Y-11974380D02*
X43160438Y-11926761D01*
X43160438Y-11926761D02*
X43065200Y-11831523D01*
X43065200Y-11831523D02*
X43017581Y-11641047D01*
X43017581Y-11641047D02*
X43017581Y-11307714D01*
X43017581Y-11307714D02*
X43065200Y-11117238D01*
X43065200Y-11117238D02*
X43160438Y-11022000D01*
X43160438Y-11022000D02*
X43255676Y-10974380D01*
X44112819Y-11974380D02*
X44112819Y-10974380D01*
X44112819Y-10974380D02*
X44684247Y-11974380D01*
X44684247Y-11974380D02*
X44684247Y-10974380D01*
X40944704Y-25487180D02*
X40373276Y-25487180D01*
X40658990Y-25487180D02*
X40658990Y-24487180D01*
X40658990Y-24487180D02*
X40563752Y-24630038D01*
X40563752Y-24630038D02*
X40468514Y-24725276D01*
X40468514Y-24725276D02*
X40373276Y-24772895D01*
X41325657Y-24582419D02*
X41373276Y-24534800D01*
X41373276Y-24534800D02*
X41468514Y-24487180D01*
X41468514Y-24487180D02*
X41706609Y-24487180D01*
X41706609Y-24487180D02*
X41801847Y-24534800D01*
X41801847Y-24534800D02*
X41849466Y-24582419D01*
X41849466Y-24582419D02*
X41897085Y-24677657D01*
X41897085Y-24677657D02*
X41897085Y-24772895D01*
X41897085Y-24772895D02*
X41849466Y-24915752D01*
X41849466Y-24915752D02*
X41278038Y-25487180D01*
X41278038Y-25487180D02*
X41897085Y-25487180D01*
X42182800Y-24487180D02*
X42516133Y-25487180D01*
X42516133Y-25487180D02*
X42849466Y-24487180D01*
X30187828Y-11653771D02*
X30330685Y-11701390D01*
X30330685Y-11701390D02*
X30378304Y-11749009D01*
X30378304Y-11749009D02*
X30425923Y-11844247D01*
X30425923Y-11844247D02*
X30425923Y-11987104D01*
X30425923Y-11987104D02*
X30378304Y-12082342D01*
X30378304Y-12082342D02*
X30330685Y-12129961D01*
X30330685Y-12129961D02*
X30235447Y-12177580D01*
X30235447Y-12177580D02*
X29854495Y-12177580D01*
X29854495Y-12177580D02*
X29854495Y-11177580D01*
X29854495Y-11177580D02*
X30187828Y-11177580D01*
X30187828Y-11177580D02*
X30283066Y-11225200D01*
X30283066Y-11225200D02*
X30330685Y-11272819D01*
X30330685Y-11272819D02*
X30378304Y-11368057D01*
X30378304Y-11368057D02*
X30378304Y-11463295D01*
X30378304Y-11463295D02*
X30330685Y-11558533D01*
X30330685Y-11558533D02*
X30283066Y-11606152D01*
X30283066Y-11606152D02*
X30187828Y-11653771D01*
X30187828Y-11653771D02*
X29854495Y-11653771D01*
X30806876Y-11891866D02*
X31283066Y-11891866D01*
X30711638Y-12177580D02*
X31044971Y-11177580D01*
X31044971Y-11177580D02*
X31378304Y-12177580D01*
X31568781Y-11177580D02*
X32140209Y-11177580D01*
X31854495Y-12177580D02*
X31854495Y-11177580D01*
X32330686Y-11177580D02*
X32902114Y-11177580D01*
X32616400Y-12177580D02*
X32616400Y-11177580D01*
X33759257Y-12177580D02*
X33187829Y-12177580D01*
X33473543Y-12177580D02*
X33473543Y-11177580D01*
X33473543Y-11177580D02*
X33378305Y-11320438D01*
X33378305Y-11320438D02*
X33283067Y-11415676D01*
X33283067Y-11415676D02*
X33187829Y-11463295D01*
X35255104Y-11123600D02*
X35159866Y-11075980D01*
X35159866Y-11075980D02*
X35017009Y-11075980D01*
X35017009Y-11075980D02*
X34874152Y-11123600D01*
X34874152Y-11123600D02*
X34778914Y-11218838D01*
X34778914Y-11218838D02*
X34731295Y-11314076D01*
X34731295Y-11314076D02*
X34683676Y-11504552D01*
X34683676Y-11504552D02*
X34683676Y-11647409D01*
X34683676Y-11647409D02*
X34731295Y-11837885D01*
X34731295Y-11837885D02*
X34778914Y-11933123D01*
X34778914Y-11933123D02*
X34874152Y-12028361D01*
X34874152Y-12028361D02*
X35017009Y-12075980D01*
X35017009Y-12075980D02*
X35112247Y-12075980D01*
X35112247Y-12075980D02*
X35255104Y-12028361D01*
X35255104Y-12028361D02*
X35302723Y-11980742D01*
X35302723Y-11980742D02*
X35302723Y-11647409D01*
X35302723Y-11647409D02*
X35112247Y-11647409D01*
X35731295Y-12075980D02*
X35731295Y-11075980D01*
X35731295Y-11075980D02*
X36302723Y-12075980D01*
X36302723Y-12075980D02*
X36302723Y-11075980D01*
X36778914Y-12075980D02*
X36778914Y-11075980D01*
X36778914Y-11075980D02*
X37017009Y-11075980D01*
X37017009Y-11075980D02*
X37159866Y-11123600D01*
X37159866Y-11123600D02*
X37255104Y-11218838D01*
X37255104Y-11218838D02*
X37302723Y-11314076D01*
X37302723Y-11314076D02*
X37350342Y-11504552D01*
X37350342Y-11504552D02*
X37350342Y-11647409D01*
X37350342Y-11647409D02*
X37302723Y-11837885D01*
X37302723Y-11837885D02*
X37255104Y-11933123D01*
X37255104Y-11933123D02*
X37159866Y-12028361D01*
X37159866Y-12028361D02*
X37017009Y-12075980D01*
X37017009Y-12075980D02*
X36778914Y-12075980D01*
X18291085Y-24588780D02*
X17814895Y-24588780D01*
X17814895Y-24588780D02*
X17767276Y-25064971D01*
X17767276Y-25064971D02*
X17814895Y-25017352D01*
X17814895Y-25017352D02*
X17910133Y-24969733D01*
X17910133Y-24969733D02*
X18148228Y-24969733D01*
X18148228Y-24969733D02*
X18243466Y-25017352D01*
X18243466Y-25017352D02*
X18291085Y-25064971D01*
X18291085Y-25064971D02*
X18338704Y-25160209D01*
X18338704Y-25160209D02*
X18338704Y-25398304D01*
X18338704Y-25398304D02*
X18291085Y-25493542D01*
X18291085Y-25493542D02*
X18243466Y-25541161D01*
X18243466Y-25541161D02*
X18148228Y-25588780D01*
X18148228Y-25588780D02*
X17910133Y-25588780D01*
X17910133Y-25588780D02*
X17814895Y-25541161D01*
X17814895Y-25541161D02*
X17767276Y-25493542D01*
X18624419Y-24588780D02*
X18957752Y-25588780D01*
X18957752Y-25588780D02*
X19291085Y-24588780D01*
X14633485Y-7418380D02*
X14157295Y-7418380D01*
X14157295Y-7418380D02*
X14109676Y-7894571D01*
X14109676Y-7894571D02*
X14157295Y-7846952D01*
X14157295Y-7846952D02*
X14252533Y-7799333D01*
X14252533Y-7799333D02*
X14490628Y-7799333D01*
X14490628Y-7799333D02*
X14585866Y-7846952D01*
X14585866Y-7846952D02*
X14633485Y-7894571D01*
X14633485Y-7894571D02*
X14681104Y-7989809D01*
X14681104Y-7989809D02*
X14681104Y-8227904D01*
X14681104Y-8227904D02*
X14633485Y-8323142D01*
X14633485Y-8323142D02*
X14585866Y-8370761D01*
X14585866Y-8370761D02*
X14490628Y-8418380D01*
X14490628Y-8418380D02*
X14252533Y-8418380D01*
X14252533Y-8418380D02*
X14157295Y-8370761D01*
X14157295Y-8370761D02*
X14109676Y-8323142D01*
X14966819Y-7418380D02*
X15300152Y-8418380D01*
X15300152Y-8418380D02*
X15633485Y-7418380D01*
X53847904Y-24534800D02*
X53752666Y-24487180D01*
X53752666Y-24487180D02*
X53609809Y-24487180D01*
X53609809Y-24487180D02*
X53466952Y-24534800D01*
X53466952Y-24534800D02*
X53371714Y-24630038D01*
X53371714Y-24630038D02*
X53324095Y-24725276D01*
X53324095Y-24725276D02*
X53276476Y-24915752D01*
X53276476Y-24915752D02*
X53276476Y-25058609D01*
X53276476Y-25058609D02*
X53324095Y-25249085D01*
X53324095Y-25249085D02*
X53371714Y-25344323D01*
X53371714Y-25344323D02*
X53466952Y-25439561D01*
X53466952Y-25439561D02*
X53609809Y-25487180D01*
X53609809Y-25487180D02*
X53705047Y-25487180D01*
X53705047Y-25487180D02*
X53847904Y-25439561D01*
X53847904Y-25439561D02*
X53895523Y-25391942D01*
X53895523Y-25391942D02*
X53895523Y-25058609D01*
X53895523Y-25058609D02*
X53705047Y-25058609D01*
X54324095Y-25487180D02*
X54324095Y-24487180D01*
X54324095Y-24487180D02*
X54895523Y-25487180D01*
X54895523Y-25487180D02*
X54895523Y-24487180D01*
X55371714Y-25487180D02*
X55371714Y-24487180D01*
X55371714Y-24487180D02*
X55609809Y-24487180D01*
X55609809Y-24487180D02*
X55752666Y-24534800D01*
X55752666Y-24534800D02*
X55847904Y-24630038D01*
X55847904Y-24630038D02*
X55895523Y-24725276D01*
X55895523Y-24725276D02*
X55943142Y-24915752D01*
X55943142Y-24915752D02*
X55943142Y-25058609D01*
X55943142Y-25058609D02*
X55895523Y-25249085D01*
X55895523Y-25249085D02*
X55847904Y-25344323D01*
X55847904Y-25344323D02*
X55752666Y-25439561D01*
X55752666Y-25439561D02*
X55609809Y-25487180D01*
X55609809Y-25487180D02*
X55371714Y-25487180D01*
X13563504Y-24585600D02*
X13468266Y-24537980D01*
X13468266Y-24537980D02*
X13325409Y-24537980D01*
X13325409Y-24537980D02*
X13182552Y-24585600D01*
X13182552Y-24585600D02*
X13087314Y-24680838D01*
X13087314Y-24680838D02*
X13039695Y-24776076D01*
X13039695Y-24776076D02*
X12992076Y-24966552D01*
X12992076Y-24966552D02*
X12992076Y-25109409D01*
X12992076Y-25109409D02*
X13039695Y-25299885D01*
X13039695Y-25299885D02*
X13087314Y-25395123D01*
X13087314Y-25395123D02*
X13182552Y-25490361D01*
X13182552Y-25490361D02*
X13325409Y-25537980D01*
X13325409Y-25537980D02*
X13420647Y-25537980D01*
X13420647Y-25537980D02*
X13563504Y-25490361D01*
X13563504Y-25490361D02*
X13611123Y-25442742D01*
X13611123Y-25442742D02*
X13611123Y-25109409D01*
X13611123Y-25109409D02*
X13420647Y-25109409D01*
X14039695Y-25537980D02*
X14039695Y-24537980D01*
X14039695Y-24537980D02*
X14611123Y-25537980D01*
X14611123Y-25537980D02*
X14611123Y-24537980D01*
X15087314Y-25537980D02*
X15087314Y-24537980D01*
X15087314Y-24537980D02*
X15325409Y-24537980D01*
X15325409Y-24537980D02*
X15468266Y-24585600D01*
X15468266Y-24585600D02*
X15563504Y-24680838D01*
X15563504Y-24680838D02*
X15611123Y-24776076D01*
X15611123Y-24776076D02*
X15658742Y-24966552D01*
X15658742Y-24966552D02*
X15658742Y-25109409D01*
X15658742Y-25109409D02*
X15611123Y-25299885D01*
X15611123Y-25299885D02*
X15563504Y-25395123D01*
X15563504Y-25395123D02*
X15468266Y-25490361D01*
X15468266Y-25490361D02*
X15325409Y-25537980D01*
X15325409Y-25537980D02*
X15087314Y-25537980D01*
X31994704Y-28367000D02*
X31899466Y-28319380D01*
X31899466Y-28319380D02*
X31756609Y-28319380D01*
X31756609Y-28319380D02*
X31613752Y-28367000D01*
X31613752Y-28367000D02*
X31518514Y-28462238D01*
X31518514Y-28462238D02*
X31470895Y-28557476D01*
X31470895Y-28557476D02*
X31423276Y-28747952D01*
X31423276Y-28747952D02*
X31423276Y-28890809D01*
X31423276Y-28890809D02*
X31470895Y-29081285D01*
X31470895Y-29081285D02*
X31518514Y-29176523D01*
X31518514Y-29176523D02*
X31613752Y-29271761D01*
X31613752Y-29271761D02*
X31756609Y-29319380D01*
X31756609Y-29319380D02*
X31851847Y-29319380D01*
X31851847Y-29319380D02*
X31994704Y-29271761D01*
X31994704Y-29271761D02*
X32042323Y-29224142D01*
X32042323Y-29224142D02*
X32042323Y-28890809D01*
X32042323Y-28890809D02*
X31851847Y-28890809D01*
X32470895Y-29319380D02*
X32470895Y-28319380D01*
X32470895Y-28319380D02*
X33042323Y-29319380D01*
X33042323Y-29319380D02*
X33042323Y-28319380D01*
X33518514Y-29319380D02*
X33518514Y-28319380D01*
X33518514Y-28319380D02*
X33756609Y-28319380D01*
X33756609Y-28319380D02*
X33899466Y-28367000D01*
X33899466Y-28367000D02*
X33994704Y-28462238D01*
X33994704Y-28462238D02*
X34042323Y-28557476D01*
X34042323Y-28557476D02*
X34089942Y-28747952D01*
X34089942Y-28747952D02*
X34089942Y-28890809D01*
X34089942Y-28890809D02*
X34042323Y-29081285D01*
X34042323Y-29081285D02*
X33994704Y-29176523D01*
X33994704Y-29176523D02*
X33899466Y-29271761D01*
X33899466Y-29271761D02*
X33756609Y-29319380D01*
X33756609Y-29319380D02*
X33518514Y-29319380D01*
X67373428Y-9316971D02*
X67040095Y-9316971D01*
X67040095Y-9840780D02*
X67040095Y-8840780D01*
X67040095Y-8840780D02*
X67516285Y-8840780D01*
X67849619Y-9555066D02*
X68325809Y-9555066D01*
X67754381Y-9840780D02*
X68087714Y-8840780D01*
X68087714Y-8840780D02*
X68421047Y-9840780D01*
X68754381Y-9840780D02*
X68754381Y-8840780D01*
X68754381Y-8840780D02*
X69325809Y-9840780D01*
X69325809Y-9840780D02*
X69325809Y-8840780D01*
X69754381Y-8936019D02*
X69802000Y-8888400D01*
X69802000Y-8888400D02*
X69897238Y-8840780D01*
X69897238Y-8840780D02*
X70135333Y-8840780D01*
X70135333Y-8840780D02*
X70230571Y-8888400D01*
X70230571Y-8888400D02*
X70278190Y-8936019D01*
X70278190Y-8936019D02*
X70325809Y-9031257D01*
X70325809Y-9031257D02*
X70325809Y-9126495D01*
X70325809Y-9126495D02*
X70278190Y-9269352D01*
X70278190Y-9269352D02*
X69706762Y-9840780D01*
X69706762Y-9840780D02*
X70325809Y-9840780D01*
X7918438Y-38203180D02*
X8489866Y-38203180D01*
X8204152Y-39203180D02*
X8204152Y-38203180D01*
X8823200Y-38679371D02*
X9156533Y-38679371D01*
X9299390Y-39203180D02*
X8823200Y-39203180D01*
X8823200Y-39203180D02*
X8823200Y-38203180D01*
X8823200Y-38203180D02*
X9299390Y-38203180D01*
X9727962Y-39203180D02*
X9727962Y-38203180D01*
X9727962Y-38203180D02*
X10061295Y-38917466D01*
X10061295Y-38917466D02*
X10394628Y-38203180D01*
X10394628Y-38203180D02*
X10394628Y-39203180D01*
X10870819Y-39203180D02*
X10870819Y-38203180D01*
X10870819Y-38203180D02*
X11251771Y-38203180D01*
X11251771Y-38203180D02*
X11347009Y-38250800D01*
X11347009Y-38250800D02*
X11394628Y-38298419D01*
X11394628Y-38298419D02*
X11442247Y-38393657D01*
X11442247Y-38393657D02*
X11442247Y-38536514D01*
X11442247Y-38536514D02*
X11394628Y-38631752D01*
X11394628Y-38631752D02*
X11347009Y-38679371D01*
X11347009Y-38679371D02*
X11251771Y-38726990D01*
X11251771Y-38726990D02*
X10870819Y-38726990D01*
X26123828Y-28620971D02*
X26266685Y-28668590D01*
X26266685Y-28668590D02*
X26314304Y-28716209D01*
X26314304Y-28716209D02*
X26361923Y-28811447D01*
X26361923Y-28811447D02*
X26361923Y-28954304D01*
X26361923Y-28954304D02*
X26314304Y-29049542D01*
X26314304Y-29049542D02*
X26266685Y-29097161D01*
X26266685Y-29097161D02*
X26171447Y-29144780D01*
X26171447Y-29144780D02*
X25790495Y-29144780D01*
X25790495Y-29144780D02*
X25790495Y-28144780D01*
X25790495Y-28144780D02*
X26123828Y-28144780D01*
X26123828Y-28144780D02*
X26219066Y-28192400D01*
X26219066Y-28192400D02*
X26266685Y-28240019D01*
X26266685Y-28240019D02*
X26314304Y-28335257D01*
X26314304Y-28335257D02*
X26314304Y-28430495D01*
X26314304Y-28430495D02*
X26266685Y-28525733D01*
X26266685Y-28525733D02*
X26219066Y-28573352D01*
X26219066Y-28573352D02*
X26123828Y-28620971D01*
X26123828Y-28620971D02*
X25790495Y-28620971D01*
X26742876Y-28859066D02*
X27219066Y-28859066D01*
X26647638Y-29144780D02*
X26980971Y-28144780D01*
X26980971Y-28144780D02*
X27314304Y-29144780D01*
X27504781Y-28144780D02*
X28076209Y-28144780D01*
X27790495Y-29144780D02*
X27790495Y-28144780D01*
X28266686Y-28144780D02*
X28838114Y-28144780D01*
X28552400Y-29144780D02*
X28552400Y-28144780D01*
X29123829Y-28240019D02*
X29171448Y-28192400D01*
X29171448Y-28192400D02*
X29266686Y-28144780D01*
X29266686Y-28144780D02*
X29504781Y-28144780D01*
X29504781Y-28144780D02*
X29600019Y-28192400D01*
X29600019Y-28192400D02*
X29647638Y-28240019D01*
X29647638Y-28240019D02*
X29695257Y-28335257D01*
X29695257Y-28335257D02*
X29695257Y-28430495D01*
X29695257Y-28430495D02*
X29647638Y-28573352D01*
X29647638Y-28573352D02*
X29076210Y-29144780D01*
X29076210Y-29144780D02*
X29695257Y-29144780D01*
X8991504Y-31799200D02*
X8896266Y-31751580D01*
X8896266Y-31751580D02*
X8753409Y-31751580D01*
X8753409Y-31751580D02*
X8610552Y-31799200D01*
X8610552Y-31799200D02*
X8515314Y-31894438D01*
X8515314Y-31894438D02*
X8467695Y-31989676D01*
X8467695Y-31989676D02*
X8420076Y-32180152D01*
X8420076Y-32180152D02*
X8420076Y-32323009D01*
X8420076Y-32323009D02*
X8467695Y-32513485D01*
X8467695Y-32513485D02*
X8515314Y-32608723D01*
X8515314Y-32608723D02*
X8610552Y-32703961D01*
X8610552Y-32703961D02*
X8753409Y-32751580D01*
X8753409Y-32751580D02*
X8848647Y-32751580D01*
X8848647Y-32751580D02*
X8991504Y-32703961D01*
X8991504Y-32703961D02*
X9039123Y-32656342D01*
X9039123Y-32656342D02*
X9039123Y-32323009D01*
X9039123Y-32323009D02*
X8848647Y-32323009D01*
X9467695Y-32751580D02*
X9467695Y-31751580D01*
X9467695Y-31751580D02*
X10039123Y-32751580D01*
X10039123Y-32751580D02*
X10039123Y-31751580D01*
X10515314Y-32751580D02*
X10515314Y-31751580D01*
X10515314Y-31751580D02*
X10753409Y-31751580D01*
X10753409Y-31751580D02*
X10896266Y-31799200D01*
X10896266Y-31799200D02*
X10991504Y-31894438D01*
X10991504Y-31894438D02*
X11039123Y-31989676D01*
X11039123Y-31989676D02*
X11086742Y-32180152D01*
X11086742Y-32180152D02*
X11086742Y-32323009D01*
X11086742Y-32323009D02*
X11039123Y-32513485D01*
X11039123Y-32513485D02*
X10991504Y-32608723D01*
X10991504Y-32608723D02*
X10896266Y-32703961D01*
X10896266Y-32703961D02*
X10753409Y-32751580D01*
X10753409Y-32751580D02*
X10515314Y-32751580D01*
X32105504Y-24585600D02*
X32010266Y-24537980D01*
X32010266Y-24537980D02*
X31867409Y-24537980D01*
X31867409Y-24537980D02*
X31724552Y-24585600D01*
X31724552Y-24585600D02*
X31629314Y-24680838D01*
X31629314Y-24680838D02*
X31581695Y-24776076D01*
X31581695Y-24776076D02*
X31534076Y-24966552D01*
X31534076Y-24966552D02*
X31534076Y-25109409D01*
X31534076Y-25109409D02*
X31581695Y-25299885D01*
X31581695Y-25299885D02*
X31629314Y-25395123D01*
X31629314Y-25395123D02*
X31724552Y-25490361D01*
X31724552Y-25490361D02*
X31867409Y-25537980D01*
X31867409Y-25537980D02*
X31962647Y-25537980D01*
X31962647Y-25537980D02*
X32105504Y-25490361D01*
X32105504Y-25490361D02*
X32153123Y-25442742D01*
X32153123Y-25442742D02*
X32153123Y-25109409D01*
X32153123Y-25109409D02*
X31962647Y-25109409D01*
X32581695Y-25537980D02*
X32581695Y-24537980D01*
X32581695Y-24537980D02*
X33153123Y-25537980D01*
X33153123Y-25537980D02*
X33153123Y-24537980D01*
X33629314Y-25537980D02*
X33629314Y-24537980D01*
X33629314Y-24537980D02*
X33867409Y-24537980D01*
X33867409Y-24537980D02*
X34010266Y-24585600D01*
X34010266Y-24585600D02*
X34105504Y-24680838D01*
X34105504Y-24680838D02*
X34153123Y-24776076D01*
X34153123Y-24776076D02*
X34200742Y-24966552D01*
X34200742Y-24966552D02*
X34200742Y-25109409D01*
X34200742Y-25109409D02*
X34153123Y-25299885D01*
X34153123Y-25299885D02*
X34105504Y-25395123D01*
X34105504Y-25395123D02*
X34010266Y-25490361D01*
X34010266Y-25490361D02*
X33867409Y-25537980D01*
X33867409Y-25537980D02*
X33629314Y-25537980D01*
X15243085Y-31802380D02*
X14766895Y-31802380D01*
X14766895Y-31802380D02*
X14719276Y-32278571D01*
X14719276Y-32278571D02*
X14766895Y-32230952D01*
X14766895Y-32230952D02*
X14862133Y-32183333D01*
X14862133Y-32183333D02*
X15100228Y-32183333D01*
X15100228Y-32183333D02*
X15195466Y-32230952D01*
X15195466Y-32230952D02*
X15243085Y-32278571D01*
X15243085Y-32278571D02*
X15290704Y-32373809D01*
X15290704Y-32373809D02*
X15290704Y-32611904D01*
X15290704Y-32611904D02*
X15243085Y-32707142D01*
X15243085Y-32707142D02*
X15195466Y-32754761D01*
X15195466Y-32754761D02*
X15100228Y-32802380D01*
X15100228Y-32802380D02*
X14862133Y-32802380D01*
X14862133Y-32802380D02*
X14766895Y-32754761D01*
X14766895Y-32754761D02*
X14719276Y-32707142D01*
X15576419Y-31802380D02*
X15909752Y-32802380D01*
X15909752Y-32802380D02*
X16243085Y-31802380D01*
X9798038Y-9247180D02*
X10369466Y-9247180D01*
X10083752Y-10247180D02*
X10083752Y-9247180D01*
X10702800Y-9723371D02*
X11036133Y-9723371D01*
X11178990Y-10247180D02*
X10702800Y-10247180D01*
X10702800Y-10247180D02*
X10702800Y-9247180D01*
X10702800Y-9247180D02*
X11178990Y-9247180D01*
X11607562Y-10247180D02*
X11607562Y-9247180D01*
X11607562Y-9247180D02*
X11940895Y-9961466D01*
X11940895Y-9961466D02*
X12274228Y-9247180D01*
X12274228Y-9247180D02*
X12274228Y-10247180D01*
X12750419Y-10247180D02*
X12750419Y-9247180D01*
X12750419Y-9247180D02*
X13131371Y-9247180D01*
X13131371Y-9247180D02*
X13226609Y-9294800D01*
X13226609Y-9294800D02*
X13274228Y-9342419D01*
X13274228Y-9342419D02*
X13321847Y-9437657D01*
X13321847Y-9437657D02*
X13321847Y-9580514D01*
X13321847Y-9580514D02*
X13274228Y-9675752D01*
X13274228Y-9675752D02*
X13226609Y-9723371D01*
X13226609Y-9723371D02*
X13131371Y-9770990D01*
X13131371Y-9770990D02*
X12750419Y-9770990D01*
X18532704Y-28316200D02*
X18437466Y-28268580D01*
X18437466Y-28268580D02*
X18294609Y-28268580D01*
X18294609Y-28268580D02*
X18151752Y-28316200D01*
X18151752Y-28316200D02*
X18056514Y-28411438D01*
X18056514Y-28411438D02*
X18008895Y-28506676D01*
X18008895Y-28506676D02*
X17961276Y-28697152D01*
X17961276Y-28697152D02*
X17961276Y-28840009D01*
X17961276Y-28840009D02*
X18008895Y-29030485D01*
X18008895Y-29030485D02*
X18056514Y-29125723D01*
X18056514Y-29125723D02*
X18151752Y-29220961D01*
X18151752Y-29220961D02*
X18294609Y-29268580D01*
X18294609Y-29268580D02*
X18389847Y-29268580D01*
X18389847Y-29268580D02*
X18532704Y-29220961D01*
X18532704Y-29220961D02*
X18580323Y-29173342D01*
X18580323Y-29173342D02*
X18580323Y-28840009D01*
X18580323Y-28840009D02*
X18389847Y-28840009D01*
X19008895Y-29268580D02*
X19008895Y-28268580D01*
X19008895Y-28268580D02*
X19580323Y-29268580D01*
X19580323Y-29268580D02*
X19580323Y-28268580D01*
X20056514Y-29268580D02*
X20056514Y-28268580D01*
X20056514Y-28268580D02*
X20294609Y-28268580D01*
X20294609Y-28268580D02*
X20437466Y-28316200D01*
X20437466Y-28316200D02*
X20532704Y-28411438D01*
X20532704Y-28411438D02*
X20580323Y-28506676D01*
X20580323Y-28506676D02*
X20627942Y-28697152D01*
X20627942Y-28697152D02*
X20627942Y-28840009D01*
X20627942Y-28840009D02*
X20580323Y-29030485D01*
X20580323Y-29030485D02*
X20532704Y-29125723D01*
X20532704Y-29125723D02*
X20437466Y-29220961D01*
X20437466Y-29220961D02*
X20294609Y-29268580D01*
X20294609Y-29268580D02*
X20056514Y-29268580D01*
X49834704Y-25487180D02*
X49263276Y-25487180D01*
X49548990Y-25487180D02*
X49548990Y-24487180D01*
X49548990Y-24487180D02*
X49453752Y-24630038D01*
X49453752Y-24630038D02*
X49358514Y-24725276D01*
X49358514Y-24725276D02*
X49263276Y-24772895D01*
X50215657Y-24582419D02*
X50263276Y-24534800D01*
X50263276Y-24534800D02*
X50358514Y-24487180D01*
X50358514Y-24487180D02*
X50596609Y-24487180D01*
X50596609Y-24487180D02*
X50691847Y-24534800D01*
X50691847Y-24534800D02*
X50739466Y-24582419D01*
X50739466Y-24582419D02*
X50787085Y-24677657D01*
X50787085Y-24677657D02*
X50787085Y-24772895D01*
X50787085Y-24772895D02*
X50739466Y-24915752D01*
X50739466Y-24915752D02*
X50168038Y-25487180D01*
X50168038Y-25487180D02*
X50787085Y-25487180D01*
X51072800Y-24487180D02*
X51406133Y-25487180D01*
X51406133Y-25487180D02*
X51739466Y-24487180D01*
%TO.C,J12*%
X25778876Y-18106580D02*
X25778876Y-18820866D01*
X25778876Y-18820866D02*
X25731257Y-18963723D01*
X25731257Y-18963723D02*
X25636019Y-19058961D01*
X25636019Y-19058961D02*
X25493162Y-19106580D01*
X25493162Y-19106580D02*
X25397924Y-19106580D01*
X26778876Y-19106580D02*
X26207448Y-19106580D01*
X26493162Y-19106580D02*
X26493162Y-18106580D01*
X26493162Y-18106580D02*
X26397924Y-18249438D01*
X26397924Y-18249438D02*
X26302686Y-18344676D01*
X26302686Y-18344676D02*
X26207448Y-18392295D01*
X27159829Y-18201819D02*
X27207448Y-18154200D01*
X27207448Y-18154200D02*
X27302686Y-18106580D01*
X27302686Y-18106580D02*
X27540781Y-18106580D01*
X27540781Y-18106580D02*
X27636019Y-18154200D01*
X27636019Y-18154200D02*
X27683638Y-18201819D01*
X27683638Y-18201819D02*
X27731257Y-18297057D01*
X27731257Y-18297057D02*
X27731257Y-18392295D01*
X27731257Y-18392295D02*
X27683638Y-18535152D01*
X27683638Y-18535152D02*
X27112210Y-19106580D01*
X27112210Y-19106580D02*
X27731257Y-19106580D01*
%TO.C,J1*%
X9013866Y-17350580D02*
X9013866Y-18064866D01*
X9013866Y-18064866D02*
X8966247Y-18207723D01*
X8966247Y-18207723D02*
X8871009Y-18302961D01*
X8871009Y-18302961D02*
X8728152Y-18350580D01*
X8728152Y-18350580D02*
X8632914Y-18350580D01*
X10013866Y-18350580D02*
X9442438Y-18350580D01*
X9728152Y-18350580D02*
X9728152Y-17350580D01*
X9728152Y-17350580D02*
X9632914Y-17493438D01*
X9632914Y-17493438D02*
X9537676Y-17588676D01*
X9537676Y-17588676D02*
X9442438Y-17636295D01*
%TO.C,J11*%
X43569676Y-18106580D02*
X43569676Y-18820866D01*
X43569676Y-18820866D02*
X43522057Y-18963723D01*
X43522057Y-18963723D02*
X43426819Y-19058961D01*
X43426819Y-19058961D02*
X43283962Y-19106580D01*
X43283962Y-19106580D02*
X43188724Y-19106580D01*
X44569676Y-19106580D02*
X43998248Y-19106580D01*
X44283962Y-19106580D02*
X44283962Y-18106580D01*
X44283962Y-18106580D02*
X44188724Y-18249438D01*
X44188724Y-18249438D02*
X44093486Y-18344676D01*
X44093486Y-18344676D02*
X43998248Y-18392295D01*
X45522057Y-19106580D02*
X44950629Y-19106580D01*
X45236343Y-19106580D02*
X45236343Y-18106580D01*
X45236343Y-18106580D02*
X45141105Y-18249438D01*
X45141105Y-18249438D02*
X45045867Y-18344676D01*
X45045867Y-18344676D02*
X44950629Y-18392295D01*
%TO.C,R2*%
X47838533Y-14500180D02*
X47505200Y-14023990D01*
X47267105Y-14500180D02*
X47267105Y-13500180D01*
X47267105Y-13500180D02*
X47648057Y-13500180D01*
X47648057Y-13500180D02*
X47743295Y-13547800D01*
X47743295Y-13547800D02*
X47790914Y-13595419D01*
X47790914Y-13595419D02*
X47838533Y-13690657D01*
X47838533Y-13690657D02*
X47838533Y-13833514D01*
X47838533Y-13833514D02*
X47790914Y-13928752D01*
X47790914Y-13928752D02*
X47743295Y-13976371D01*
X47743295Y-13976371D02*
X47648057Y-14023990D01*
X47648057Y-14023990D02*
X47267105Y-14023990D01*
X48219486Y-13595419D02*
X48267105Y-13547800D01*
X48267105Y-13547800D02*
X48362343Y-13500180D01*
X48362343Y-13500180D02*
X48600438Y-13500180D01*
X48600438Y-13500180D02*
X48695676Y-13547800D01*
X48695676Y-13547800D02*
X48743295Y-13595419D01*
X48743295Y-13595419D02*
X48790914Y-13690657D01*
X48790914Y-13690657D02*
X48790914Y-13785895D01*
X48790914Y-13785895D02*
X48743295Y-13928752D01*
X48743295Y-13928752D02*
X48171867Y-14500180D01*
X48171867Y-14500180D02*
X48790914Y-14500180D01*
%TO.C,J4*%
X32229466Y-30253780D02*
X32229466Y-30968066D01*
X32229466Y-30968066D02*
X32181847Y-31110923D01*
X32181847Y-31110923D02*
X32086609Y-31206161D01*
X32086609Y-31206161D02*
X31943752Y-31253780D01*
X31943752Y-31253780D02*
X31848514Y-31253780D01*
X33134228Y-30587114D02*
X33134228Y-31253780D01*
X32896133Y-30206161D02*
X32658038Y-30920447D01*
X32658038Y-30920447D02*
X33277085Y-30920447D01*
%TO.C,J20*%
X67344076Y-834580D02*
X67344076Y-1548866D01*
X67344076Y-1548866D02*
X67296457Y-1691723D01*
X67296457Y-1691723D02*
X67201219Y-1786961D01*
X67201219Y-1786961D02*
X67058362Y-1834580D01*
X67058362Y-1834580D02*
X66963124Y-1834580D01*
X67772648Y-929819D02*
X67820267Y-882200D01*
X67820267Y-882200D02*
X67915505Y-834580D01*
X67915505Y-834580D02*
X68153600Y-834580D01*
X68153600Y-834580D02*
X68248838Y-882200D01*
X68248838Y-882200D02*
X68296457Y-929819D01*
X68296457Y-929819D02*
X68344076Y-1025057D01*
X68344076Y-1025057D02*
X68344076Y-1120295D01*
X68344076Y-1120295D02*
X68296457Y-1263152D01*
X68296457Y-1263152D02*
X67725029Y-1834580D01*
X67725029Y-1834580D02*
X68344076Y-1834580D01*
X68963124Y-834580D02*
X69058362Y-834580D01*
X69058362Y-834580D02*
X69153600Y-882200D01*
X69153600Y-882200D02*
X69201219Y-929819D01*
X69201219Y-929819D02*
X69248838Y-1025057D01*
X69248838Y-1025057D02*
X69296457Y-1215533D01*
X69296457Y-1215533D02*
X69296457Y-1453628D01*
X69296457Y-1453628D02*
X69248838Y-1644104D01*
X69248838Y-1644104D02*
X69201219Y-1739342D01*
X69201219Y-1739342D02*
X69153600Y-1786961D01*
X69153600Y-1786961D02*
X69058362Y-1834580D01*
X69058362Y-1834580D02*
X68963124Y-1834580D01*
X68963124Y-1834580D02*
X68867886Y-1786961D01*
X68867886Y-1786961D02*
X68820267Y-1739342D01*
X68820267Y-1739342D02*
X68772648Y-1644104D01*
X68772648Y-1644104D02*
X68725029Y-1453628D01*
X68725029Y-1453628D02*
X68725029Y-1215533D01*
X68725029Y-1215533D02*
X68772648Y-1025057D01*
X68772648Y-1025057D02*
X68820267Y-929819D01*
X68820267Y-929819D02*
X68867886Y-882200D01*
X68867886Y-882200D02*
X68963124Y-834580D01*
%TO.C,J2*%
X35429866Y-8460580D02*
X35429866Y-9174866D01*
X35429866Y-9174866D02*
X35382247Y-9317723D01*
X35382247Y-9317723D02*
X35287009Y-9412961D01*
X35287009Y-9412961D02*
X35144152Y-9460580D01*
X35144152Y-9460580D02*
X35048914Y-9460580D01*
X35858438Y-8555819D02*
X35906057Y-8508200D01*
X35906057Y-8508200D02*
X36001295Y-8460580D01*
X36001295Y-8460580D02*
X36239390Y-8460580D01*
X36239390Y-8460580D02*
X36334628Y-8508200D01*
X36334628Y-8508200D02*
X36382247Y-8555819D01*
X36382247Y-8555819D02*
X36429866Y-8651057D01*
X36429866Y-8651057D02*
X36429866Y-8746295D01*
X36429866Y-8746295D02*
X36382247Y-8889152D01*
X36382247Y-8889152D02*
X35810819Y-9460580D01*
X35810819Y-9460580D02*
X36429866Y-9460580D01*
%TO.C,J8*%
X52885066Y-18106580D02*
X52885066Y-18820866D01*
X52885066Y-18820866D02*
X52837447Y-18963723D01*
X52837447Y-18963723D02*
X52742209Y-19058961D01*
X52742209Y-19058961D02*
X52599352Y-19106580D01*
X52599352Y-19106580D02*
X52504114Y-19106580D01*
X53504114Y-18535152D02*
X53408876Y-18487533D01*
X53408876Y-18487533D02*
X53361257Y-18439914D01*
X53361257Y-18439914D02*
X53313638Y-18344676D01*
X53313638Y-18344676D02*
X53313638Y-18297057D01*
X53313638Y-18297057D02*
X53361257Y-18201819D01*
X53361257Y-18201819D02*
X53408876Y-18154200D01*
X53408876Y-18154200D02*
X53504114Y-18106580D01*
X53504114Y-18106580D02*
X53694590Y-18106580D01*
X53694590Y-18106580D02*
X53789828Y-18154200D01*
X53789828Y-18154200D02*
X53837447Y-18201819D01*
X53837447Y-18201819D02*
X53885066Y-18297057D01*
X53885066Y-18297057D02*
X53885066Y-18344676D01*
X53885066Y-18344676D02*
X53837447Y-18439914D01*
X53837447Y-18439914D02*
X53789828Y-18487533D01*
X53789828Y-18487533D02*
X53694590Y-18535152D01*
X53694590Y-18535152D02*
X53504114Y-18535152D01*
X53504114Y-18535152D02*
X53408876Y-18582771D01*
X53408876Y-18582771D02*
X53361257Y-18630390D01*
X53361257Y-18630390D02*
X53313638Y-18725628D01*
X53313638Y-18725628D02*
X53313638Y-18916104D01*
X53313638Y-18916104D02*
X53361257Y-19011342D01*
X53361257Y-19011342D02*
X53408876Y-19058961D01*
X53408876Y-19058961D02*
X53504114Y-19106580D01*
X53504114Y-19106580D02*
X53694590Y-19106580D01*
X53694590Y-19106580D02*
X53789828Y-19058961D01*
X53789828Y-19058961D02*
X53837447Y-19011342D01*
X53837447Y-19011342D02*
X53885066Y-18916104D01*
X53885066Y-18916104D02*
X53885066Y-18725628D01*
X53885066Y-18725628D02*
X53837447Y-18630390D01*
X53837447Y-18630390D02*
X53789828Y-18582771D01*
X53789828Y-18582771D02*
X53694590Y-18535152D01*
%TO.C,J9*%
X16715466Y-18106580D02*
X16715466Y-18820866D01*
X16715466Y-18820866D02*
X16667847Y-18963723D01*
X16667847Y-18963723D02*
X16572609Y-19058961D01*
X16572609Y-19058961D02*
X16429752Y-19106580D01*
X16429752Y-19106580D02*
X16334514Y-19106580D01*
X17239276Y-19106580D02*
X17429752Y-19106580D01*
X17429752Y-19106580D02*
X17524990Y-19058961D01*
X17524990Y-19058961D02*
X17572609Y-19011342D01*
X17572609Y-19011342D02*
X17667847Y-18868485D01*
X17667847Y-18868485D02*
X17715466Y-18678009D01*
X17715466Y-18678009D02*
X17715466Y-18297057D01*
X17715466Y-18297057D02*
X17667847Y-18201819D01*
X17667847Y-18201819D02*
X17620228Y-18154200D01*
X17620228Y-18154200D02*
X17524990Y-18106580D01*
X17524990Y-18106580D02*
X17334514Y-18106580D01*
X17334514Y-18106580D02*
X17239276Y-18154200D01*
X17239276Y-18154200D02*
X17191657Y-18201819D01*
X17191657Y-18201819D02*
X17144038Y-18297057D01*
X17144038Y-18297057D02*
X17144038Y-18535152D01*
X17144038Y-18535152D02*
X17191657Y-18630390D01*
X17191657Y-18630390D02*
X17239276Y-18678009D01*
X17239276Y-18678009D02*
X17334514Y-18725628D01*
X17334514Y-18725628D02*
X17524990Y-18725628D01*
X17524990Y-18725628D02*
X17620228Y-18678009D01*
X17620228Y-18678009D02*
X17667847Y-18630390D01*
X17667847Y-18630390D02*
X17715466Y-18535152D01*
%TO.C,J7*%
X59102666Y-8409780D02*
X59102666Y-9124066D01*
X59102666Y-9124066D02*
X59055047Y-9266923D01*
X59055047Y-9266923D02*
X58959809Y-9362161D01*
X58959809Y-9362161D02*
X58816952Y-9409780D01*
X58816952Y-9409780D02*
X58721714Y-9409780D01*
X59483619Y-8409780D02*
X60150285Y-8409780D01*
X60150285Y-8409780D02*
X59721714Y-9409780D01*
%TO.C,J17*%
X13871676Y-38127780D02*
X13871676Y-38842066D01*
X13871676Y-38842066D02*
X13824057Y-38984923D01*
X13824057Y-38984923D02*
X13728819Y-39080161D01*
X13728819Y-39080161D02*
X13585962Y-39127780D01*
X13585962Y-39127780D02*
X13490724Y-39127780D01*
X14871676Y-39127780D02*
X14300248Y-39127780D01*
X14585962Y-39127780D02*
X14585962Y-38127780D01*
X14585962Y-38127780D02*
X14490724Y-38270638D01*
X14490724Y-38270638D02*
X14395486Y-38365876D01*
X14395486Y-38365876D02*
X14300248Y-38413495D01*
X15205010Y-38127780D02*
X15871676Y-38127780D01*
X15871676Y-38127780D02*
X15443105Y-39127780D01*
%TO.C,J14*%
X34770476Y-18106580D02*
X34770476Y-18820866D01*
X34770476Y-18820866D02*
X34722857Y-18963723D01*
X34722857Y-18963723D02*
X34627619Y-19058961D01*
X34627619Y-19058961D02*
X34484762Y-19106580D01*
X34484762Y-19106580D02*
X34389524Y-19106580D01*
X35770476Y-19106580D02*
X35199048Y-19106580D01*
X35484762Y-19106580D02*
X35484762Y-18106580D01*
X35484762Y-18106580D02*
X35389524Y-18249438D01*
X35389524Y-18249438D02*
X35294286Y-18344676D01*
X35294286Y-18344676D02*
X35199048Y-18392295D01*
X36627619Y-18439914D02*
X36627619Y-19106580D01*
X36389524Y-18058961D02*
X36151429Y-18773247D01*
X36151429Y-18773247D02*
X36770476Y-18773247D01*
%TO.C,D1*%
X29487905Y-18590980D02*
X29487905Y-17590980D01*
X29487905Y-17590980D02*
X29726000Y-17590980D01*
X29726000Y-17590980D02*
X29868857Y-17638600D01*
X29868857Y-17638600D02*
X29964095Y-17733838D01*
X29964095Y-17733838D02*
X30011714Y-17829076D01*
X30011714Y-17829076D02*
X30059333Y-18019552D01*
X30059333Y-18019552D02*
X30059333Y-18162409D01*
X30059333Y-18162409D02*
X30011714Y-18352885D01*
X30011714Y-18352885D02*
X29964095Y-18448123D01*
X29964095Y-18448123D02*
X29868857Y-18543361D01*
X29868857Y-18543361D02*
X29726000Y-18590980D01*
X29726000Y-18590980D02*
X29487905Y-18590980D01*
X31011714Y-18590980D02*
X30440286Y-18590980D01*
X30726000Y-18590980D02*
X30726000Y-17590980D01*
X30726000Y-17590980D02*
X30630762Y-17733838D01*
X30630762Y-17733838D02*
X30535524Y-17829076D01*
X30535524Y-17829076D02*
X30440286Y-17876695D01*
X33774095Y-18270980D02*
X33774095Y-17270980D01*
X34345523Y-18270980D02*
X33916952Y-17699552D01*
X34345523Y-17270980D02*
X33774095Y-17842409D01*
%TO.C,J18*%
X68563276Y-31517780D02*
X68563276Y-32232066D01*
X68563276Y-32232066D02*
X68515657Y-32374923D01*
X68515657Y-32374923D02*
X68420419Y-32470161D01*
X68420419Y-32470161D02*
X68277562Y-32517780D01*
X68277562Y-32517780D02*
X68182324Y-32517780D01*
X69563276Y-32517780D02*
X68991848Y-32517780D01*
X69277562Y-32517780D02*
X69277562Y-31517780D01*
X69277562Y-31517780D02*
X69182324Y-31660638D01*
X69182324Y-31660638D02*
X69087086Y-31755876D01*
X69087086Y-31755876D02*
X68991848Y-31803495D01*
X70134705Y-31946352D02*
X70039467Y-31898733D01*
X70039467Y-31898733D02*
X69991848Y-31851114D01*
X69991848Y-31851114D02*
X69944229Y-31755876D01*
X69944229Y-31755876D02*
X69944229Y-31708257D01*
X69944229Y-31708257D02*
X69991848Y-31613019D01*
X69991848Y-31613019D02*
X70039467Y-31565400D01*
X70039467Y-31565400D02*
X70134705Y-31517780D01*
X70134705Y-31517780D02*
X70325181Y-31517780D01*
X70325181Y-31517780D02*
X70420419Y-31565400D01*
X70420419Y-31565400D02*
X70468038Y-31613019D01*
X70468038Y-31613019D02*
X70515657Y-31708257D01*
X70515657Y-31708257D02*
X70515657Y-31755876D01*
X70515657Y-31755876D02*
X70468038Y-31851114D01*
X70468038Y-31851114D02*
X70420419Y-31898733D01*
X70420419Y-31898733D02*
X70325181Y-31946352D01*
X70325181Y-31946352D02*
X70134705Y-31946352D01*
X70134705Y-31946352D02*
X70039467Y-31993971D01*
X70039467Y-31993971D02*
X69991848Y-32041590D01*
X69991848Y-32041590D02*
X69944229Y-32136828D01*
X69944229Y-32136828D02*
X69944229Y-32327304D01*
X69944229Y-32327304D02*
X69991848Y-32422542D01*
X69991848Y-32422542D02*
X70039467Y-32470161D01*
X70039467Y-32470161D02*
X70134705Y-32517780D01*
X70134705Y-32517780D02*
X70325181Y-32517780D01*
X70325181Y-32517780D02*
X70420419Y-32470161D01*
X70420419Y-32470161D02*
X70468038Y-32422542D01*
X70468038Y-32422542D02*
X70515657Y-32327304D01*
X70515657Y-32327304D02*
X70515657Y-32136828D01*
X70515657Y-32136828D02*
X70468038Y-32041590D01*
X70468038Y-32041590D02*
X70420419Y-31993971D01*
X70420419Y-31993971D02*
X70325181Y-31946352D01*
%TO.C,R1*%
X40219333Y-14500180D02*
X39886000Y-14023990D01*
X39647905Y-14500180D02*
X39647905Y-13500180D01*
X39647905Y-13500180D02*
X40028857Y-13500180D01*
X40028857Y-13500180D02*
X40124095Y-13547800D01*
X40124095Y-13547800D02*
X40171714Y-13595419D01*
X40171714Y-13595419D02*
X40219333Y-13690657D01*
X40219333Y-13690657D02*
X40219333Y-13833514D01*
X40219333Y-13833514D02*
X40171714Y-13928752D01*
X40171714Y-13928752D02*
X40124095Y-13976371D01*
X40124095Y-13976371D02*
X40028857Y-14023990D01*
X40028857Y-14023990D02*
X39647905Y-14023990D01*
X41171714Y-14500180D02*
X40600286Y-14500180D01*
X40886000Y-14500180D02*
X40886000Y-13500180D01*
X40886000Y-13500180D02*
X40790762Y-13643038D01*
X40790762Y-13643038D02*
X40695524Y-13738276D01*
X40695524Y-13738276D02*
X40600286Y-13785895D01*
%TO.C,J15*%
X10640476Y-1139380D02*
X10640476Y-1853666D01*
X10640476Y-1853666D02*
X10592857Y-1996523D01*
X10592857Y-1996523D02*
X10497619Y-2091761D01*
X10497619Y-2091761D02*
X10354762Y-2139380D01*
X10354762Y-2139380D02*
X10259524Y-2139380D01*
X11640476Y-2139380D02*
X11069048Y-2139380D01*
X11354762Y-2139380D02*
X11354762Y-1139380D01*
X11354762Y-1139380D02*
X11259524Y-1282238D01*
X11259524Y-1282238D02*
X11164286Y-1377476D01*
X11164286Y-1377476D02*
X11069048Y-1425095D01*
X12545238Y-1139380D02*
X12069048Y-1139380D01*
X12069048Y-1139380D02*
X12021429Y-1615571D01*
X12021429Y-1615571D02*
X12069048Y-1567952D01*
X12069048Y-1567952D02*
X12164286Y-1520333D01*
X12164286Y-1520333D02*
X12402381Y-1520333D01*
X12402381Y-1520333D02*
X12497619Y-1567952D01*
X12497619Y-1567952D02*
X12545238Y-1615571D01*
X12545238Y-1615571D02*
X12592857Y-1710809D01*
X12592857Y-1710809D02*
X12592857Y-1948904D01*
X12592857Y-1948904D02*
X12545238Y-2044142D01*
X12545238Y-2044142D02*
X12497619Y-2091761D01*
X12497619Y-2091761D02*
X12402381Y-2139380D01*
X12402381Y-2139380D02*
X12164286Y-2139380D01*
X12164286Y-2139380D02*
X12069048Y-2091761D01*
X12069048Y-2091761D02*
X12021429Y-2044142D01*
%TO.C,J13*%
X61298876Y-18157380D02*
X61298876Y-18871666D01*
X61298876Y-18871666D02*
X61251257Y-19014523D01*
X61251257Y-19014523D02*
X61156019Y-19109761D01*
X61156019Y-19109761D02*
X61013162Y-19157380D01*
X61013162Y-19157380D02*
X60917924Y-19157380D01*
X62298876Y-19157380D02*
X61727448Y-19157380D01*
X62013162Y-19157380D02*
X62013162Y-18157380D01*
X62013162Y-18157380D02*
X61917924Y-18300238D01*
X61917924Y-18300238D02*
X61822686Y-18395476D01*
X61822686Y-18395476D02*
X61727448Y-18443095D01*
X62632210Y-18157380D02*
X63251257Y-18157380D01*
X63251257Y-18157380D02*
X62917924Y-18538333D01*
X62917924Y-18538333D02*
X63060781Y-18538333D01*
X63060781Y-18538333D02*
X63156019Y-18585952D01*
X63156019Y-18585952D02*
X63203638Y-18633571D01*
X63203638Y-18633571D02*
X63251257Y-18728809D01*
X63251257Y-18728809D02*
X63251257Y-18966904D01*
X63251257Y-18966904D02*
X63203638Y-19062142D01*
X63203638Y-19062142D02*
X63156019Y-19109761D01*
X63156019Y-19109761D02*
X63060781Y-19157380D01*
X63060781Y-19157380D02*
X62775067Y-19157380D01*
X62775067Y-19157380D02*
X62679829Y-19109761D01*
X62679829Y-19109761D02*
X62632210Y-19062142D01*
%TO.C,J3*%
X18869066Y-30406180D02*
X18869066Y-31120466D01*
X18869066Y-31120466D02*
X18821447Y-31263323D01*
X18821447Y-31263323D02*
X18726209Y-31358561D01*
X18726209Y-31358561D02*
X18583352Y-31406180D01*
X18583352Y-31406180D02*
X18488114Y-31406180D01*
X19250019Y-30406180D02*
X19869066Y-30406180D01*
X19869066Y-30406180D02*
X19535733Y-30787133D01*
X19535733Y-30787133D02*
X19678590Y-30787133D01*
X19678590Y-30787133D02*
X19773828Y-30834752D01*
X19773828Y-30834752D02*
X19821447Y-30882371D01*
X19821447Y-30882371D02*
X19869066Y-30977609D01*
X19869066Y-30977609D02*
X19869066Y-31215704D01*
X19869066Y-31215704D02*
X19821447Y-31310942D01*
X19821447Y-31310942D02*
X19773828Y-31358561D01*
X19773828Y-31358561D02*
X19678590Y-31406180D01*
X19678590Y-31406180D02*
X19392876Y-31406180D01*
X19392876Y-31406180D02*
X19297638Y-31358561D01*
X19297638Y-31358561D02*
X19250019Y-31310942D01*
%TO.C,J16*%
X20952876Y-1139380D02*
X20952876Y-1853666D01*
X20952876Y-1853666D02*
X20905257Y-1996523D01*
X20905257Y-1996523D02*
X20810019Y-2091761D01*
X20810019Y-2091761D02*
X20667162Y-2139380D01*
X20667162Y-2139380D02*
X20571924Y-2139380D01*
X21952876Y-2139380D02*
X21381448Y-2139380D01*
X21667162Y-2139380D02*
X21667162Y-1139380D01*
X21667162Y-1139380D02*
X21571924Y-1282238D01*
X21571924Y-1282238D02*
X21476686Y-1377476D01*
X21476686Y-1377476D02*
X21381448Y-1425095D01*
X22810019Y-1139380D02*
X22619543Y-1139380D01*
X22619543Y-1139380D02*
X22524305Y-1187000D01*
X22524305Y-1187000D02*
X22476686Y-1234619D01*
X22476686Y-1234619D02*
X22381448Y-1377476D01*
X22381448Y-1377476D02*
X22333829Y-1567952D01*
X22333829Y-1567952D02*
X22333829Y-1948904D01*
X22333829Y-1948904D02*
X22381448Y-2044142D01*
X22381448Y-2044142D02*
X22429067Y-2091761D01*
X22429067Y-2091761D02*
X22524305Y-2139380D01*
X22524305Y-2139380D02*
X22714781Y-2139380D01*
X22714781Y-2139380D02*
X22810019Y-2091761D01*
X22810019Y-2091761D02*
X22857638Y-2044142D01*
X22857638Y-2044142D02*
X22905257Y-1948904D01*
X22905257Y-1948904D02*
X22905257Y-1710809D01*
X22905257Y-1710809D02*
X22857638Y-1615571D01*
X22857638Y-1615571D02*
X22810019Y-1567952D01*
X22810019Y-1567952D02*
X22714781Y-1520333D01*
X22714781Y-1520333D02*
X22524305Y-1520333D01*
X22524305Y-1520333D02*
X22429067Y-1567952D01*
X22429067Y-1567952D02*
X22381448Y-1615571D01*
X22381448Y-1615571D02*
X22333829Y-1710809D01*
%TO.C,J5*%
X44726266Y-30406180D02*
X44726266Y-31120466D01*
X44726266Y-31120466D02*
X44678647Y-31263323D01*
X44678647Y-31263323D02*
X44583409Y-31358561D01*
X44583409Y-31358561D02*
X44440552Y-31406180D01*
X44440552Y-31406180D02*
X44345314Y-31406180D01*
X45678647Y-30406180D02*
X45202457Y-30406180D01*
X45202457Y-30406180D02*
X45154838Y-30882371D01*
X45154838Y-30882371D02*
X45202457Y-30834752D01*
X45202457Y-30834752D02*
X45297695Y-30787133D01*
X45297695Y-30787133D02*
X45535790Y-30787133D01*
X45535790Y-30787133D02*
X45631028Y-30834752D01*
X45631028Y-30834752D02*
X45678647Y-30882371D01*
X45678647Y-30882371D02*
X45726266Y-30977609D01*
X45726266Y-30977609D02*
X45726266Y-31215704D01*
X45726266Y-31215704D02*
X45678647Y-31310942D01*
X45678647Y-31310942D02*
X45631028Y-31358561D01*
X45631028Y-31358561D02*
X45535790Y-31406180D01*
X45535790Y-31406180D02*
X45297695Y-31406180D01*
X45297695Y-31406180D02*
X45202457Y-31358561D01*
X45202457Y-31358561D02*
X45154838Y-31310942D01*
%TO.C,J6*%
X70735866Y-25783380D02*
X70735866Y-26497666D01*
X70735866Y-26497666D02*
X70688247Y-26640523D01*
X70688247Y-26640523D02*
X70593009Y-26735761D01*
X70593009Y-26735761D02*
X70450152Y-26783380D01*
X70450152Y-26783380D02*
X70354914Y-26783380D01*
X71640628Y-25783380D02*
X71450152Y-25783380D01*
X71450152Y-25783380D02*
X71354914Y-25831000D01*
X71354914Y-25831000D02*
X71307295Y-25878619D01*
X71307295Y-25878619D02*
X71212057Y-26021476D01*
X71212057Y-26021476D02*
X71164438Y-26211952D01*
X71164438Y-26211952D02*
X71164438Y-26592904D01*
X71164438Y-26592904D02*
X71212057Y-26688142D01*
X71212057Y-26688142D02*
X71259676Y-26735761D01*
X71259676Y-26735761D02*
X71354914Y-26783380D01*
X71354914Y-26783380D02*
X71545390Y-26783380D01*
X71545390Y-26783380D02*
X71640628Y-26735761D01*
X71640628Y-26735761D02*
X71688247Y-26688142D01*
X71688247Y-26688142D02*
X71735866Y-26592904D01*
X71735866Y-26592904D02*
X71735866Y-26354809D01*
X71735866Y-26354809D02*
X71688247Y-26259571D01*
X71688247Y-26259571D02*
X71640628Y-26211952D01*
X71640628Y-26211952D02*
X71545390Y-26164333D01*
X71545390Y-26164333D02*
X71354914Y-26164333D01*
X71354914Y-26164333D02*
X71259676Y-26211952D01*
X71259676Y-26211952D02*
X71212057Y-26259571D01*
X71212057Y-26259571D02*
X71164438Y-26354809D01*
%TO.C,J10*%
X46688476Y-8409780D02*
X46688476Y-9124066D01*
X46688476Y-9124066D02*
X46640857Y-9266923D01*
X46640857Y-9266923D02*
X46545619Y-9362161D01*
X46545619Y-9362161D02*
X46402762Y-9409780D01*
X46402762Y-9409780D02*
X46307524Y-9409780D01*
X47688476Y-9409780D02*
X47117048Y-9409780D01*
X47402762Y-9409780D02*
X47402762Y-8409780D01*
X47402762Y-8409780D02*
X47307524Y-8552638D01*
X47307524Y-8552638D02*
X47212286Y-8647876D01*
X47212286Y-8647876D02*
X47117048Y-8695495D01*
X48307524Y-8409780D02*
X48402762Y-8409780D01*
X48402762Y-8409780D02*
X48498000Y-8457400D01*
X48498000Y-8457400D02*
X48545619Y-8505019D01*
X48545619Y-8505019D02*
X48593238Y-8600257D01*
X48593238Y-8600257D02*
X48640857Y-8790733D01*
X48640857Y-8790733D02*
X48640857Y-9028828D01*
X48640857Y-9028828D02*
X48593238Y-9219304D01*
X48593238Y-9219304D02*
X48545619Y-9314542D01*
X48545619Y-9314542D02*
X48498000Y-9362161D01*
X48498000Y-9362161D02*
X48402762Y-9409780D01*
X48402762Y-9409780D02*
X48307524Y-9409780D01*
X48307524Y-9409780D02*
X48212286Y-9362161D01*
X48212286Y-9362161D02*
X48164667Y-9314542D01*
X48164667Y-9314542D02*
X48117048Y-9219304D01*
X48117048Y-9219304D02*
X48069429Y-9028828D01*
X48069429Y-9028828D02*
X48069429Y-8790733D01*
X48069429Y-8790733D02*
X48117048Y-8600257D01*
X48117048Y-8600257D02*
X48164667Y-8505019D01*
X48164667Y-8505019D02*
X48212286Y-8457400D01*
X48212286Y-8457400D02*
X48307524Y-8409780D01*
%TO.C,J19*%
X59063676Y-31517780D02*
X59063676Y-32232066D01*
X59063676Y-32232066D02*
X59016057Y-32374923D01*
X59016057Y-32374923D02*
X58920819Y-32470161D01*
X58920819Y-32470161D02*
X58777962Y-32517780D01*
X58777962Y-32517780D02*
X58682724Y-32517780D01*
X60063676Y-32517780D02*
X59492248Y-32517780D01*
X59777962Y-32517780D02*
X59777962Y-31517780D01*
X59777962Y-31517780D02*
X59682724Y-31660638D01*
X59682724Y-31660638D02*
X59587486Y-31755876D01*
X59587486Y-31755876D02*
X59492248Y-31803495D01*
X60539867Y-32517780D02*
X60730343Y-32517780D01*
X60730343Y-32517780D02*
X60825581Y-32470161D01*
X60825581Y-32470161D02*
X60873200Y-32422542D01*
X60873200Y-32422542D02*
X60968438Y-32279685D01*
X60968438Y-32279685D02*
X61016057Y-32089209D01*
X61016057Y-32089209D02*
X61016057Y-31708257D01*
X61016057Y-31708257D02*
X60968438Y-31613019D01*
X60968438Y-31613019D02*
X60920819Y-31565400D01*
X60920819Y-31565400D02*
X60825581Y-31517780D01*
X60825581Y-31517780D02*
X60635105Y-31517780D01*
X60635105Y-31517780D02*
X60539867Y-31565400D01*
X60539867Y-31565400D02*
X60492248Y-31613019D01*
X60492248Y-31613019D02*
X60444629Y-31708257D01*
X60444629Y-31708257D02*
X60444629Y-31946352D01*
X60444629Y-31946352D02*
X60492248Y-32041590D01*
X60492248Y-32041590D02*
X60539867Y-32089209D01*
X60539867Y-32089209D02*
X60635105Y-32136828D01*
X60635105Y-32136828D02*
X60825581Y-32136828D01*
X60825581Y-32136828D02*
X60920819Y-32089209D01*
X60920819Y-32089209D02*
X60968438Y-32041590D01*
X60968438Y-32041590D02*
X61016057Y-31946352D01*
D11*
%TO.C,J12*%
X22428400Y-21649200D02*
X22428400Y-24149200D01*
X22428400Y-24149200D02*
X24928400Y-24149200D01*
X22728400Y-19829200D02*
X22728400Y-23849200D01*
X22728400Y-21539200D02*
X23228400Y-21539200D01*
X22728400Y-22349200D02*
X23728400Y-22349200D01*
X22728400Y-23849200D02*
X30448400Y-23849200D01*
X23228400Y-20329200D02*
X29948400Y-20329200D01*
X23228400Y-21539200D02*
X23228400Y-20329200D01*
X23728400Y-22349200D02*
X23728400Y-23849200D01*
X29448400Y-22349200D02*
X29448400Y-23849200D01*
X29948400Y-20329200D02*
X29948400Y-21539200D01*
X29948400Y-21539200D02*
X30448400Y-21539200D01*
X30448400Y-19829200D02*
X22728400Y-19829200D01*
X30448400Y-22349200D02*
X29448400Y-22349200D01*
X30448400Y-23849200D02*
X30448400Y-19829200D01*
%TO.C,J1*%
X1377200Y-16464000D02*
X637200Y-16464000D01*
X637200Y-16464000D02*
X637200Y-16964000D01*
X10798200Y-16704000D02*
X877200Y-16704000D01*
X10798200Y-16704000D02*
X10798200Y-26984000D01*
X7838200Y-16704000D02*
X7838200Y-26984000D01*
X2937200Y-16704000D02*
X2937200Y-26984000D01*
X1437200Y-16704000D02*
X1437200Y-26984000D01*
X877200Y-16704000D02*
X877200Y-26984000D01*
X4514200Y-23157000D02*
X4468200Y-23110000D01*
X4298200Y-23350000D02*
X4263200Y-23315000D01*
X6812200Y-25454000D02*
X6776200Y-25419000D01*
X6606200Y-25659000D02*
X6560200Y-25612000D01*
X10798200Y-26984000D02*
X877200Y-26984000D01*
X6221199Y-17769001D02*
G75*
G03*
X4854158Y-17768574I-684000J-1534992D01*
G01*
X7072199Y-19987999D02*
G75*
G03*
X7072626Y-18620958I-1534992J684000D01*
G01*
X4002201Y-18620000D02*
G75*
G03*
X3856948Y-19332805I1535000J-683999D01*
G01*
X3857201Y-19304000D02*
G75*
G03*
X4002445Y-19987318I1679999J0D01*
G01*
X4853200Y-20839000D02*
G75*
G03*
X6220242Y-20839426I684000J1535000D01*
G01*
X7217200Y-24384000D02*
G75*
G03*
X7217200Y-24384000I-1680000J0D01*
G01*
%TO.C,J11*%
X40219200Y-21649200D02*
X40219200Y-24149200D01*
X40219200Y-24149200D02*
X42719200Y-24149200D01*
X40519200Y-19829200D02*
X40519200Y-23849200D01*
X40519200Y-21539200D02*
X41019200Y-21539200D01*
X40519200Y-22349200D02*
X41519200Y-22349200D01*
X40519200Y-23849200D02*
X48239200Y-23849200D01*
X41019200Y-20329200D02*
X47739200Y-20329200D01*
X41019200Y-21539200D02*
X41019200Y-20329200D01*
X41519200Y-22349200D02*
X41519200Y-23849200D01*
X47239200Y-22349200D02*
X47239200Y-23849200D01*
X47739200Y-20329200D02*
X47739200Y-21539200D01*
X47739200Y-21539200D02*
X48239200Y-21539200D01*
X48239200Y-19829200D02*
X40519200Y-19829200D01*
X48239200Y-22349200D02*
X47239200Y-22349200D01*
X48239200Y-23849200D02*
X48239200Y-19829200D01*
%TO.C,R2*%
X47655200Y-16052800D02*
X48275200Y-16052800D01*
X47655200Y-16052800D02*
G75*
G03*
X47655200Y-16052800I-920000J0D01*
G01*
%TO.C,J4*%
X30992800Y-38958000D02*
X30992800Y-39698000D01*
X30992800Y-39698000D02*
X31492800Y-39698000D01*
X31232800Y-29537000D02*
X31232800Y-39458000D01*
X31232800Y-29537000D02*
X41512800Y-29537000D01*
X31232800Y-32497000D02*
X41512800Y-32497000D01*
X31232800Y-37398000D02*
X41512800Y-37398000D01*
X31232800Y-38898000D02*
X41512800Y-38898000D01*
X31232800Y-39458000D02*
X41512800Y-39458000D01*
X37685800Y-35821000D02*
X37638800Y-35867000D01*
X37878800Y-36037000D02*
X37843800Y-36072000D01*
X39982800Y-33523000D02*
X39947800Y-33559000D01*
X40187800Y-33729000D02*
X40140800Y-33775000D01*
X41512800Y-29537000D02*
X41512800Y-39458000D01*
X32297801Y-34114001D02*
G75*
G03*
X32297374Y-35481042I1534992J-684000D01*
G01*
X34516799Y-33263001D02*
G75*
G03*
X33149758Y-33262574I-684000J-1534992D01*
G01*
X33148800Y-36332999D02*
G75*
G03*
X33861605Y-36478252I683999J1535000D01*
G01*
X33832800Y-36477999D02*
G75*
G03*
X34516118Y-36332755I0J1679999D01*
G01*
X35367800Y-35482000D02*
G75*
G03*
X35368226Y-34114958I-1535000J684000D01*
G01*
X40592800Y-34798000D02*
G75*
G03*
X40592800Y-34798000I-1680000J0D01*
G01*
%TO.C,J20*%
X63993600Y-4377200D02*
X63993600Y-6877200D01*
X63993600Y-6877200D02*
X66493600Y-6877200D01*
X64293600Y-2557200D02*
X64293600Y-6577200D01*
X64293600Y-4267200D02*
X64793600Y-4267200D01*
X64293600Y-5077200D02*
X65293600Y-5077200D01*
X64293600Y-6577200D02*
X72013600Y-6577200D01*
X64793600Y-3057200D02*
X71513600Y-3057200D01*
X64793600Y-4267200D02*
X64793600Y-3057200D01*
X65293600Y-5077200D02*
X65293600Y-6577200D01*
X71013600Y-5077200D02*
X71013600Y-6577200D01*
X71513600Y-3057200D02*
X71513600Y-4267200D01*
X71513600Y-4267200D02*
X72013600Y-4267200D01*
X72013600Y-2557200D02*
X64293600Y-2557200D01*
X72013600Y-5077200D02*
X71013600Y-5077200D01*
X72013600Y-6577200D02*
X72013600Y-2557200D01*
%TO.C,J2*%
X37587200Y-1072400D02*
X37587200Y-332400D01*
X37587200Y-332400D02*
X37087200Y-332400D01*
X37347200Y-10493400D02*
X37347200Y-572400D01*
X37347200Y-10493400D02*
X27067200Y-10493400D01*
X37347200Y-7533400D02*
X27067200Y-7533400D01*
X37347200Y-2632400D02*
X27067200Y-2632400D01*
X37347200Y-1132400D02*
X27067200Y-1132400D01*
X37347200Y-572400D02*
X27067200Y-572400D01*
X30894200Y-4209400D02*
X30941200Y-4163400D01*
X30701200Y-3993400D02*
X30736200Y-3958400D01*
X28597200Y-6507400D02*
X28632200Y-6471400D01*
X28392200Y-6301400D02*
X28439200Y-6255400D01*
X27067200Y-10493400D02*
X27067200Y-572400D01*
X36282199Y-5916399D02*
G75*
G03*
X36282626Y-4549358I-1534992J684000D01*
G01*
X34063201Y-6767399D02*
G75*
G03*
X35430242Y-6767826I684000J1534992D01*
G01*
X35431200Y-3697401D02*
G75*
G03*
X34718395Y-3552148I-683999J-1535000D01*
G01*
X34747200Y-3552401D02*
G75*
G03*
X34063882Y-3697645I0J-1679999D01*
G01*
X33212200Y-4548400D02*
G75*
G03*
X33211774Y-5915442I1535000J-684000D01*
G01*
X31347200Y-5232400D02*
G75*
G03*
X31347200Y-5232400I-1680000J0D01*
G01*
%TO.C,J8*%
X49058400Y-21649200D02*
X49058400Y-24149200D01*
X49058400Y-24149200D02*
X51558400Y-24149200D01*
X49358400Y-19829200D02*
X49358400Y-23849200D01*
X49358400Y-21539200D02*
X49858400Y-21539200D01*
X49358400Y-22349200D02*
X50358400Y-22349200D01*
X49358400Y-23849200D02*
X57078400Y-23849200D01*
X49858400Y-20329200D02*
X56578400Y-20329200D01*
X49858400Y-21539200D02*
X49858400Y-20329200D01*
X50358400Y-22349200D02*
X50358400Y-23849200D01*
X56078400Y-22349200D02*
X56078400Y-23849200D01*
X56578400Y-20329200D02*
X56578400Y-21539200D01*
X56578400Y-21539200D02*
X57078400Y-21539200D01*
X57078400Y-19829200D02*
X49358400Y-19829200D01*
X57078400Y-22349200D02*
X56078400Y-22349200D01*
X57078400Y-23849200D02*
X57078400Y-19829200D01*
%TO.C,J9*%
X12888800Y-21649200D02*
X12888800Y-24149200D01*
X12888800Y-24149200D02*
X15388800Y-24149200D01*
X13188800Y-19829200D02*
X13188800Y-23849200D01*
X13188800Y-21539200D02*
X13688800Y-21539200D01*
X13188800Y-22349200D02*
X14188800Y-22349200D01*
X13188800Y-23849200D02*
X20908800Y-23849200D01*
X13688800Y-20329200D02*
X20408800Y-20329200D01*
X13688800Y-21539200D02*
X13688800Y-20329200D01*
X14188800Y-22349200D02*
X14188800Y-23849200D01*
X19908800Y-22349200D02*
X19908800Y-23849200D01*
X20408800Y-20329200D02*
X20408800Y-21539200D01*
X20408800Y-21539200D02*
X20908800Y-21539200D01*
X20908800Y-19829200D02*
X13188800Y-19829200D01*
X20908800Y-22349200D02*
X19908800Y-22349200D01*
X20908800Y-23849200D02*
X20908800Y-19829200D01*
%TO.C,J7*%
X61361600Y-1072400D02*
X61361600Y-332400D01*
X61361600Y-332400D02*
X60861600Y-332400D01*
X61121600Y-10493400D02*
X61121600Y-572400D01*
X61121600Y-10493400D02*
X50841600Y-10493400D01*
X61121600Y-7533400D02*
X50841600Y-7533400D01*
X61121600Y-2632400D02*
X50841600Y-2632400D01*
X61121600Y-1132400D02*
X50841600Y-1132400D01*
X61121600Y-572400D02*
X50841600Y-572400D01*
X54668600Y-4209400D02*
X54715600Y-4163400D01*
X54475600Y-3993400D02*
X54510600Y-3958400D01*
X52371600Y-6507400D02*
X52406600Y-6471400D01*
X52166600Y-6301400D02*
X52213600Y-6255400D01*
X50841600Y-10493400D02*
X50841600Y-572400D01*
X60056599Y-5916399D02*
G75*
G03*
X60057026Y-4549358I-1534992J684000D01*
G01*
X57837601Y-6767399D02*
G75*
G03*
X59204642Y-6767826I684000J1534992D01*
G01*
X59205600Y-3697401D02*
G75*
G03*
X58492795Y-3552148I-683999J-1535000D01*
G01*
X58521600Y-3552401D02*
G75*
G03*
X57838282Y-3697645I0J-1679999D01*
G01*
X56986600Y-4548400D02*
G75*
G03*
X56986174Y-5915442I1535000J-684000D01*
G01*
X55121600Y-5232400D02*
G75*
G03*
X55121600Y-5232400I-1680000J0D01*
G01*
%TO.C,J17*%
X7899600Y-35111200D02*
X7899600Y-37611200D01*
X7899600Y-37611200D02*
X10399600Y-37611200D01*
X8199600Y-33291200D02*
X8199600Y-37311200D01*
X8199600Y-35001200D02*
X8699600Y-35001200D01*
X8199600Y-35811200D02*
X9199600Y-35811200D01*
X8199600Y-37311200D02*
X15919600Y-37311200D01*
X8699600Y-33791200D02*
X15419600Y-33791200D01*
X8699600Y-35001200D02*
X8699600Y-33791200D01*
X9199600Y-35811200D02*
X9199600Y-37311200D01*
X14919600Y-35811200D02*
X14919600Y-37311200D01*
X15419600Y-33791200D02*
X15419600Y-35001200D01*
X15419600Y-35001200D02*
X15919600Y-35001200D01*
X15919600Y-33291200D02*
X8199600Y-33291200D01*
X15919600Y-35811200D02*
X14919600Y-35811200D01*
X15919600Y-37311200D02*
X15919600Y-33291200D01*
%TO.C,J14*%
X31420000Y-21649200D02*
X31420000Y-24149200D01*
X31420000Y-24149200D02*
X33920000Y-24149200D01*
X31720000Y-19829200D02*
X31720000Y-23849200D01*
X31720000Y-21539200D02*
X32220000Y-21539200D01*
X31720000Y-22349200D02*
X32720000Y-22349200D01*
X31720000Y-23849200D02*
X39440000Y-23849200D01*
X32220000Y-20329200D02*
X38940000Y-20329200D01*
X32220000Y-21539200D02*
X32220000Y-20329200D01*
X32720000Y-22349200D02*
X32720000Y-23849200D01*
X38440000Y-22349200D02*
X38440000Y-23849200D01*
X38940000Y-20329200D02*
X38940000Y-21539200D01*
X38940000Y-21539200D02*
X39440000Y-21539200D01*
X39440000Y-19829200D02*
X31720000Y-19829200D01*
X39440000Y-22349200D02*
X38440000Y-22349200D01*
X39440000Y-23849200D02*
X39440000Y-19829200D01*
%TO.C,D1*%
X32996000Y-16103600D02*
X32346000Y-16103600D01*
X32346000Y-17223600D02*
X32346000Y-14983600D01*
X32346000Y-14983600D02*
X28106000Y-14983600D01*
X31746000Y-17223600D02*
X31746000Y-14983600D01*
X31626000Y-17223600D02*
X31626000Y-14983600D01*
X31506000Y-17223600D02*
X31506000Y-14983600D01*
X28106000Y-17223600D02*
X32346000Y-17223600D01*
X28106000Y-14983600D02*
X28106000Y-17223600D01*
X27456000Y-16103600D02*
X28106000Y-16103600D01*
%TO.C,J18*%
X65212800Y-35060400D02*
X65212800Y-37560400D01*
X65212800Y-37560400D02*
X67712800Y-37560400D01*
X65512800Y-33240400D02*
X65512800Y-37260400D01*
X65512800Y-34950400D02*
X66012800Y-34950400D01*
X65512800Y-35760400D02*
X66512800Y-35760400D01*
X65512800Y-37260400D02*
X73232800Y-37260400D01*
X66012800Y-33740400D02*
X72732800Y-33740400D01*
X66012800Y-34950400D02*
X66012800Y-33740400D01*
X66512800Y-35760400D02*
X66512800Y-37260400D01*
X72232800Y-35760400D02*
X72232800Y-37260400D01*
X72732800Y-33740400D02*
X72732800Y-34950400D01*
X72732800Y-34950400D02*
X73232800Y-34950400D01*
X73232800Y-33240400D02*
X65512800Y-33240400D01*
X73232800Y-35760400D02*
X72232800Y-35760400D01*
X73232800Y-37260400D02*
X73232800Y-33240400D01*
%TO.C,R1*%
X40036000Y-16052800D02*
X40656000Y-16052800D01*
X40036000Y-16052800D02*
G75*
G03*
X40036000Y-16052800I-920000J0D01*
G01*
%TO.C,J15*%
X7290000Y-4682000D02*
X7290000Y-7182000D01*
X7290000Y-7182000D02*
X9790000Y-7182000D01*
X7590000Y-2862000D02*
X7590000Y-6882000D01*
X7590000Y-4572000D02*
X8090000Y-4572000D01*
X7590000Y-5382000D02*
X8590000Y-5382000D01*
X7590000Y-6882000D02*
X15310000Y-6882000D01*
X8090000Y-3362000D02*
X14810000Y-3362000D01*
X8090000Y-4572000D02*
X8090000Y-3362000D01*
X8590000Y-5382000D02*
X8590000Y-6882000D01*
X14310000Y-5382000D02*
X14310000Y-6882000D01*
X14810000Y-3362000D02*
X14810000Y-4572000D01*
X14810000Y-4572000D02*
X15310000Y-4572000D01*
X15310000Y-2862000D02*
X7590000Y-2862000D01*
X15310000Y-5382000D02*
X14310000Y-5382000D01*
X15310000Y-6882000D02*
X15310000Y-2862000D01*
%TO.C,J13*%
X57948400Y-21700000D02*
X57948400Y-24200000D01*
X57948400Y-24200000D02*
X60448400Y-24200000D01*
X58248400Y-19880000D02*
X58248400Y-23900000D01*
X58248400Y-21590000D02*
X58748400Y-21590000D01*
X58248400Y-22400000D02*
X59248400Y-22400000D01*
X58248400Y-23900000D02*
X65968400Y-23900000D01*
X58748400Y-20380000D02*
X65468400Y-20380000D01*
X58748400Y-21590000D02*
X58748400Y-20380000D01*
X59248400Y-22400000D02*
X59248400Y-23900000D01*
X64968400Y-22400000D02*
X64968400Y-23900000D01*
X65468400Y-20380000D02*
X65468400Y-21590000D01*
X65468400Y-21590000D02*
X65968400Y-21590000D01*
X65968400Y-19880000D02*
X58248400Y-19880000D01*
X65968400Y-22400000D02*
X64968400Y-22400000D01*
X65968400Y-23900000D02*
X65968400Y-19880000D01*
%TO.C,J3*%
X17530800Y-38907200D02*
X17530800Y-39647200D01*
X17530800Y-39647200D02*
X18030800Y-39647200D01*
X17770800Y-29486200D02*
X17770800Y-39407200D01*
X17770800Y-29486200D02*
X28050800Y-29486200D01*
X17770800Y-32446200D02*
X28050800Y-32446200D01*
X17770800Y-37347200D02*
X28050800Y-37347200D01*
X17770800Y-38847200D02*
X28050800Y-38847200D01*
X17770800Y-39407200D02*
X28050800Y-39407200D01*
X24223800Y-35770200D02*
X24176800Y-35816200D01*
X24416800Y-35986200D02*
X24381800Y-36021200D01*
X26520800Y-33472200D02*
X26485800Y-33508200D01*
X26725800Y-33678200D02*
X26678800Y-33724200D01*
X28050800Y-29486200D02*
X28050800Y-39407200D01*
X18835801Y-34063201D02*
G75*
G03*
X18835374Y-35430242I1534992J-684000D01*
G01*
X21054799Y-33212201D02*
G75*
G03*
X19687758Y-33211774I-684000J-1534992D01*
G01*
X19686800Y-36282199D02*
G75*
G03*
X20399605Y-36427452I683999J1535000D01*
G01*
X20370800Y-36427199D02*
G75*
G03*
X21054118Y-36281955I0J1679999D01*
G01*
X21905800Y-35431200D02*
G75*
G03*
X21906226Y-34064158I-1535000J684000D01*
G01*
X27130800Y-34747200D02*
G75*
G03*
X27130800Y-34747200I-1680000J0D01*
G01*
%TO.C,J16*%
X17602400Y-4682000D02*
X17602400Y-7182000D01*
X17602400Y-7182000D02*
X20102400Y-7182000D01*
X17902400Y-2862000D02*
X17902400Y-6882000D01*
X17902400Y-4572000D02*
X18402400Y-4572000D01*
X17902400Y-5382000D02*
X18902400Y-5382000D01*
X17902400Y-6882000D02*
X25622400Y-6882000D01*
X18402400Y-3362000D02*
X25122400Y-3362000D01*
X18402400Y-4572000D02*
X18402400Y-3362000D01*
X18902400Y-5382000D02*
X18902400Y-6882000D01*
X24622400Y-5382000D02*
X24622400Y-6882000D01*
X25122400Y-3362000D02*
X25122400Y-4572000D01*
X25122400Y-4572000D02*
X25622400Y-4572000D01*
X25622400Y-2862000D02*
X17902400Y-2862000D01*
X25622400Y-5382000D02*
X24622400Y-5382000D01*
X25622400Y-6882000D02*
X25622400Y-2862000D01*
%TO.C,J5*%
X43642000Y-38958000D02*
X43642000Y-39698000D01*
X43642000Y-39698000D02*
X44142000Y-39698000D01*
X43882000Y-29537000D02*
X43882000Y-39458000D01*
X43882000Y-29537000D02*
X54162000Y-29537000D01*
X43882000Y-32497000D02*
X54162000Y-32497000D01*
X43882000Y-37398000D02*
X54162000Y-37398000D01*
X43882000Y-38898000D02*
X54162000Y-38898000D01*
X43882000Y-39458000D02*
X54162000Y-39458000D01*
X50335000Y-35821000D02*
X50288000Y-35867000D01*
X50528000Y-36037000D02*
X50493000Y-36072000D01*
X52632000Y-33523000D02*
X52597000Y-33559000D01*
X52837000Y-33729000D02*
X52790000Y-33775000D01*
X54162000Y-29537000D02*
X54162000Y-39458000D01*
X44947001Y-34114001D02*
G75*
G03*
X44946574Y-35481042I1534992J-684000D01*
G01*
X47165999Y-33263001D02*
G75*
G03*
X45798958Y-33262574I-684000J-1534992D01*
G01*
X45798000Y-36332999D02*
G75*
G03*
X46510805Y-36478252I683999J1535000D01*
G01*
X46482000Y-36477999D02*
G75*
G03*
X47165318Y-36332755I0J1679999D01*
G01*
X48017000Y-35482000D02*
G75*
G03*
X48017426Y-34114958I-1535000J684000D01*
G01*
X53242000Y-34798000D02*
G75*
G03*
X53242000Y-34798000I-1680000J0D01*
G01*
%TO.C,J6*%
X79140800Y-27732000D02*
X79880800Y-27732000D01*
X79880800Y-27732000D02*
X79880800Y-27232000D01*
X69719800Y-27492000D02*
X79640800Y-27492000D01*
X69719800Y-27492000D02*
X69719800Y-17212000D01*
X72679800Y-27492000D02*
X72679800Y-17212000D01*
X77580800Y-27492000D02*
X77580800Y-17212000D01*
X79080800Y-27492000D02*
X79080800Y-17212000D01*
X79640800Y-27492000D02*
X79640800Y-17212000D01*
X76003800Y-21039000D02*
X76049800Y-21086000D01*
X76219800Y-20846000D02*
X76254800Y-20881000D01*
X73705800Y-18742000D02*
X73741800Y-18777000D01*
X73911800Y-18537000D02*
X73957800Y-18584000D01*
X69719800Y-17212000D02*
X79640800Y-17212000D01*
X74296801Y-26426999D02*
G75*
G03*
X75663842Y-26427426I684000J1534992D01*
G01*
X73445801Y-24208001D02*
G75*
G03*
X73445374Y-25575042I1534992J-684000D01*
G01*
X76515799Y-25576000D02*
G75*
G03*
X76661052Y-24863195I-1535000J683999D01*
G01*
X76660799Y-24892000D02*
G75*
G03*
X76515555Y-24208682I-1679999J0D01*
G01*
X75664800Y-23357000D02*
G75*
G03*
X74297758Y-23356574I-684000J-1535000D01*
G01*
X76660800Y-19812000D02*
G75*
G03*
X76660800Y-19812000I-1680000J0D01*
G01*
%TO.C,J10*%
X49576000Y-1072400D02*
X49576000Y-332400D01*
X49576000Y-332400D02*
X49076000Y-332400D01*
X49336000Y-10493400D02*
X49336000Y-572400D01*
X49336000Y-10493400D02*
X39056000Y-10493400D01*
X49336000Y-7533400D02*
X39056000Y-7533400D01*
X49336000Y-2632400D02*
X39056000Y-2632400D01*
X49336000Y-1132400D02*
X39056000Y-1132400D01*
X49336000Y-572400D02*
X39056000Y-572400D01*
X42883000Y-4209400D02*
X42930000Y-4163400D01*
X42690000Y-3993400D02*
X42725000Y-3958400D01*
X40586000Y-6507400D02*
X40621000Y-6471400D01*
X40381000Y-6301400D02*
X40428000Y-6255400D01*
X39056000Y-10493400D02*
X39056000Y-572400D01*
X48270999Y-5916399D02*
G75*
G03*
X48271426Y-4549358I-1534992J684000D01*
G01*
X46052001Y-6767399D02*
G75*
G03*
X47419042Y-6767826I684000J1534992D01*
G01*
X47420000Y-3697401D02*
G75*
G03*
X46707195Y-3552148I-683999J-1535000D01*
G01*
X46736000Y-3552401D02*
G75*
G03*
X46052682Y-3697645I0J-1679999D01*
G01*
X45201000Y-4548400D02*
G75*
G03*
X45200574Y-5915442I1535000J-684000D01*
G01*
X43336000Y-5232400D02*
G75*
G03*
X43336000Y-5232400I-1680000J0D01*
G01*
%TO.C,J19*%
X55713200Y-35060400D02*
X55713200Y-37560400D01*
X55713200Y-37560400D02*
X58213200Y-37560400D01*
X56013200Y-33240400D02*
X56013200Y-37260400D01*
X56013200Y-34950400D02*
X56513200Y-34950400D01*
X56013200Y-35760400D02*
X57013200Y-35760400D01*
X56013200Y-37260400D02*
X63733200Y-37260400D01*
X56513200Y-33740400D02*
X63233200Y-33740400D01*
X56513200Y-34950400D02*
X56513200Y-33740400D01*
X57013200Y-35760400D02*
X57013200Y-37260400D01*
X62733200Y-35760400D02*
X62733200Y-37260400D01*
X63233200Y-33740400D02*
X63233200Y-34950400D01*
X63233200Y-34950400D02*
X63733200Y-34950400D01*
X63733200Y-33240400D02*
X56013200Y-33240400D01*
X63733200Y-35760400D02*
X62733200Y-35760400D01*
X63733200Y-37260400D02*
X63733200Y-33240400D01*
%TD*%
M02*
