%TF.GenerationSoftware,KiCad,Pcbnew,(7.0.0-0)*%
%TF.CreationDate,2023-08-08T20:11:38-05:00*%
%TF.ProjectId,DingoPCB,44696e67-6f50-4434-922e-6b696361645f,rev?*%
%TF.SameCoordinates,Original*%
%TF.FileFunction,Soldermask,Top*%
%TF.FilePolarity,Negative*%
%FSLAX46Y46*%
G04 Gerber Fmt 4.6, Leading zero omitted, Abs format (unit mm)*
G04 Created by KiCad (PCBNEW (7.0.0-0)) date 2023-08-08 20:11:38*
%MOMM*%
%LPD*%
G01*
G04 APERTURE LIST*
G04 Aperture macros list*
%AMRoundRect*
0 Rectangle with rounded corners*
0 $1 Rounding radius*
0 $2 $3 $4 $5 $6 $7 $8 $9 X,Y pos of 4 corners*
0 Add a 4 corners polygon primitive as box body*
4,1,4,$2,$3,$4,$5,$6,$7,$8,$9,$2,$3,0*
0 Add four circle primitives for the rounded corners*
1,1,$1+$1,$2,$3*
1,1,$1+$1,$4,$5*
1,1,$1+$1,$6,$7*
1,1,$1+$1,$8,$9*
0 Add four rect primitives between the rounded corners*
20,1,$1+$1,$2,$3,$4,$5,0*
20,1,$1+$1,$4,$5,$6,$7,0*
20,1,$1+$1,$6,$7,$8,$9,0*
20,1,$1+$1,$8,$9,$2,$3,0*%
G04 Aperture macros list end*
%ADD10RoundRect,0.250000X-0.600000X-0.750000X0.600000X-0.750000X0.600000X0.750000X-0.600000X0.750000X0*%
%ADD11O,1.700000X2.000000*%
%ADD12R,2.600000X2.600000*%
%ADD13C,2.600000*%
%ADD14C,1.400000*%
%ADD15O,1.400000X1.400000*%
%ADD16R,1.600000X1.600000*%
%ADD17O,1.600000X1.600000*%
G04 APERTURE END LIST*
D10*
%TO.C,J12*%
X25338400Y-21539200D03*
D11*
X27838399Y-21539199D03*
%TD*%
D12*
%TO.C,J1*%
X5537199Y-19303999D03*
D13*
X5537200Y-24384000D03*
%TD*%
D10*
%TO.C,J11*%
X43129200Y-21539200D03*
D11*
X45629199Y-21539199D03*
%TD*%
D14*
%TO.C,R2*%
X46735200Y-16052800D03*
D15*
X49275199Y-16052799D03*
%TD*%
D12*
%TO.C,J4*%
X33832799Y-34797999D03*
D13*
X38912800Y-34798000D03*
%TD*%
D10*
%TO.C,J20*%
X66903600Y-4267200D03*
D11*
X69403599Y-4267199D03*
%TD*%
D12*
%TO.C,J2*%
X34747199Y-5232399D03*
D13*
X29667200Y-5232400D03*
%TD*%
D10*
%TO.C,J8*%
X51968400Y-21539200D03*
D11*
X54468399Y-21539199D03*
%TD*%
D10*
%TO.C,J9*%
X15798800Y-21539200D03*
D11*
X18298799Y-21539199D03*
%TD*%
D12*
%TO.C,J7*%
X58521599Y-5232399D03*
D13*
X53441600Y-5232400D03*
%TD*%
D10*
%TO.C,J17*%
X10809600Y-35001200D03*
D11*
X13309599Y-35001199D03*
%TD*%
D10*
%TO.C,J14*%
X34330000Y-21539200D03*
D11*
X36829999Y-21539199D03*
%TD*%
D16*
%TO.C,D1*%
X34035999Y-16103599D03*
D17*
X26415999Y-16103599D03*
%TD*%
D10*
%TO.C,J18*%
X68122800Y-34950400D03*
D11*
X70622799Y-34950399D03*
%TD*%
D14*
%TO.C,R1*%
X39116000Y-16052800D03*
D15*
X41655999Y-16052799D03*
%TD*%
D10*
%TO.C,J15*%
X10200000Y-4572000D03*
D11*
X12699999Y-4571999D03*
%TD*%
D10*
%TO.C,J13*%
X60858400Y-21590000D03*
D11*
X63358399Y-21589999D03*
%TD*%
D12*
%TO.C,J3*%
X20370799Y-34747199D03*
D13*
X25450800Y-34747200D03*
%TD*%
D10*
%TO.C,J16*%
X20512400Y-4572000D03*
D11*
X23012399Y-4571999D03*
%TD*%
D12*
%TO.C,J5*%
X46481999Y-34797999D03*
D13*
X51562000Y-34798000D03*
%TD*%
D12*
%TO.C,J6*%
X74980799Y-24891999D03*
D13*
X74980800Y-19812000D03*
%TD*%
D12*
%TO.C,J10*%
X46735999Y-5232399D03*
D13*
X41656000Y-5232400D03*
%TD*%
D10*
%TO.C,J19*%
X58623200Y-34950400D03*
D11*
X61123199Y-34950399D03*
%TD*%
M02*
