%TF.GenerationSoftware,KiCad,Pcbnew,7.0.7*%
%TF.CreationDate,2023-09-26T10:41:06-05:00*%
%TF.ProjectId,DingoPCB,44696e67-6f50-4434-922e-6b696361645f,rev?*%
%TF.SameCoordinates,Original*%
%TF.FileFunction,Legend,Bot*%
%TF.FilePolarity,Positive*%
%FSLAX46Y46*%
G04 Gerber Fmt 4.6, Leading zero omitted, Abs format (unit mm)*
G04 Created by KiCad (PCBNEW 7.0.7) date 2023-09-26 10:41:06*
%MOMM*%
%LPD*%
G01*
G04 APERTURE LIST*
%ADD10C,0.150000*%
%ADD11C,0.120000*%
G04 APERTURE END LIST*
D10*
X86153523Y-120917619D02*
X86153523Y-121631904D01*
X86153523Y-121631904D02*
X86201142Y-121774761D01*
X86201142Y-121774761D02*
X86296380Y-121870000D01*
X86296380Y-121870000D02*
X86439237Y-121917619D01*
X86439237Y-121917619D02*
X86534475Y-121917619D01*
X85724951Y-121012857D02*
X85677332Y-120965238D01*
X85677332Y-120965238D02*
X85582094Y-120917619D01*
X85582094Y-120917619D02*
X85343999Y-120917619D01*
X85343999Y-120917619D02*
X85248761Y-120965238D01*
X85248761Y-120965238D02*
X85201142Y-121012857D01*
X85201142Y-121012857D02*
X85153523Y-121108095D01*
X85153523Y-121108095D02*
X85153523Y-121203333D01*
X85153523Y-121203333D02*
X85201142Y-121346190D01*
X85201142Y-121346190D02*
X85772570Y-121917619D01*
X85772570Y-121917619D02*
X85153523Y-121917619D01*
X84201142Y-121917619D02*
X84772570Y-121917619D01*
X84486856Y-121917619D02*
X84486856Y-120917619D01*
X84486856Y-120917619D02*
X84582094Y-121060476D01*
X84582094Y-121060476D02*
X84677332Y-121155714D01*
X84677332Y-121155714D02*
X84772570Y-121203333D01*
D11*
%TO.C,J21*%
X35398400Y-128990400D02*
X35398400Y-123790400D01*
X83718400Y-128990400D02*
X35398400Y-128990400D01*
X83718400Y-128990400D02*
X83718400Y-126390400D01*
X84988400Y-128990400D02*
X86318400Y-128990400D01*
X86318400Y-128990400D02*
X86318400Y-127660400D01*
X83718400Y-126390400D02*
X86318400Y-126390400D01*
X86318400Y-126390400D02*
X86318400Y-123790400D01*
X86318400Y-123790400D02*
X35398400Y-123790400D01*
%TD*%
M02*
