%TF.GenerationSoftware,KiCad,Pcbnew,(7.0.0-0)*%
%TF.CreationDate,2023-08-08T20:11:38-05:00*%
%TF.ProjectId,DingoPCB,44696e67-6f50-4434-922e-6b696361645f,rev?*%
%TF.SameCoordinates,Original*%
%TF.FileFunction,Legend,Bot*%
%TF.FilePolarity,Positive*%
%FSLAX46Y46*%
G04 Gerber Fmt 4.6, Leading zero omitted, Abs format (unit mm)*
G04 Created by KiCad (PCBNEW (7.0.0-0)) date 2023-08-08 20:11:38*
%MOMM*%
%LPD*%
G01*
G04 APERTURE LIST*
%ADD10C,0.150000*%
G04 APERTURE END LIST*
D10*
X72211200Y-9423561D02*
X72211200Y-11042609D01*
X72211200Y-11042609D02*
X72115962Y-11233085D01*
X72115962Y-11233085D02*
X72020724Y-11328323D01*
X72020724Y-11328323D02*
X71830248Y-11423561D01*
X71830248Y-11423561D02*
X71449295Y-11423561D01*
X71449295Y-11423561D02*
X71258819Y-11328323D01*
X71258819Y-11328323D02*
X71163581Y-11233085D01*
X71163581Y-11233085D02*
X71068343Y-11042609D01*
X71068343Y-11042609D02*
X71068343Y-9423561D01*
X70115962Y-11423561D02*
X70115962Y-9423561D01*
X70115962Y-9423561D02*
X68973105Y-11423561D01*
X68973105Y-11423561D02*
X68973105Y-9423561D01*
X67639772Y-9423561D02*
X67258819Y-9423561D01*
X67258819Y-9423561D02*
X67068343Y-9518800D01*
X67068343Y-9518800D02*
X66877867Y-9709276D01*
X66877867Y-9709276D02*
X66782629Y-10090228D01*
X66782629Y-10090228D02*
X66782629Y-10756895D01*
X66782629Y-10756895D02*
X66877867Y-11137847D01*
X66877867Y-11137847D02*
X67068343Y-11328323D01*
X67068343Y-11328323D02*
X67258819Y-11423561D01*
X67258819Y-11423561D02*
X67639772Y-11423561D01*
X67639772Y-11423561D02*
X67830248Y-11328323D01*
X67830248Y-11328323D02*
X68020724Y-11137847D01*
X68020724Y-11137847D02*
X68115962Y-10756895D01*
X68115962Y-10756895D02*
X68115962Y-10090228D01*
X68115962Y-10090228D02*
X68020724Y-9709276D01*
X68020724Y-9709276D02*
X67830248Y-9518800D01*
X67830248Y-9518800D02*
X67639772Y-9423561D01*
X65258819Y-10375942D02*
X65925486Y-10375942D01*
X65925486Y-11423561D02*
X65925486Y-9423561D01*
X65925486Y-9423561D02*
X64973105Y-9423561D01*
X63544533Y-10375942D02*
X64211200Y-10375942D01*
X64211200Y-11423561D02*
X64211200Y-9423561D01*
X64211200Y-9423561D02*
X63258819Y-9423561D01*
X62496914Y-11423561D02*
X62496914Y-9423561D01*
X60401676Y-11233085D02*
X60496914Y-11328323D01*
X60496914Y-11328323D02*
X60782628Y-11423561D01*
X60782628Y-11423561D02*
X60973104Y-11423561D01*
X60973104Y-11423561D02*
X61258819Y-11328323D01*
X61258819Y-11328323D02*
X61449295Y-11137847D01*
X61449295Y-11137847D02*
X61544533Y-10947371D01*
X61544533Y-10947371D02*
X61639771Y-10566419D01*
X61639771Y-10566419D02*
X61639771Y-10280704D01*
X61639771Y-10280704D02*
X61544533Y-9899752D01*
X61544533Y-9899752D02*
X61449295Y-9709276D01*
X61449295Y-9709276D02*
X61258819Y-9518800D01*
X61258819Y-9518800D02*
X60973104Y-9423561D01*
X60973104Y-9423561D02*
X60782628Y-9423561D01*
X60782628Y-9423561D02*
X60496914Y-9518800D01*
X60496914Y-9518800D02*
X60401676Y-9614038D01*
X59544533Y-11423561D02*
X59544533Y-9423561D01*
X58687390Y-10852133D02*
X57735009Y-10852133D01*
X58877866Y-11423561D02*
X58211200Y-9423561D01*
X58211200Y-9423561D02*
X57544533Y-11423561D01*
X55925485Y-11423561D02*
X56877866Y-11423561D01*
X56877866Y-11423561D02*
X56877866Y-9423561D01*
X68306437Y-14663561D02*
X68306437Y-12663561D01*
X68306437Y-12663561D02*
X67830247Y-12663561D01*
X67830247Y-12663561D02*
X67544532Y-12758800D01*
X67544532Y-12758800D02*
X67354056Y-12949276D01*
X67354056Y-12949276D02*
X67258818Y-13139752D01*
X67258818Y-13139752D02*
X67163580Y-13520704D01*
X67163580Y-13520704D02*
X67163580Y-13806419D01*
X67163580Y-13806419D02*
X67258818Y-14187371D01*
X67258818Y-14187371D02*
X67354056Y-14377847D01*
X67354056Y-14377847D02*
X67544532Y-14568323D01*
X67544532Y-14568323D02*
X67830247Y-14663561D01*
X67830247Y-14663561D02*
X68306437Y-14663561D01*
X66306437Y-14663561D02*
X66306437Y-12663561D01*
X65354056Y-14663561D02*
X65354056Y-12663561D01*
X65354056Y-12663561D02*
X64211199Y-14663561D01*
X64211199Y-14663561D02*
X64211199Y-12663561D01*
X62211199Y-12758800D02*
X62401675Y-12663561D01*
X62401675Y-12663561D02*
X62687389Y-12663561D01*
X62687389Y-12663561D02*
X62973104Y-12758800D01*
X62973104Y-12758800D02*
X63163580Y-12949276D01*
X63163580Y-12949276D02*
X63258818Y-13139752D01*
X63258818Y-13139752D02*
X63354056Y-13520704D01*
X63354056Y-13520704D02*
X63354056Y-13806419D01*
X63354056Y-13806419D02*
X63258818Y-14187371D01*
X63258818Y-14187371D02*
X63163580Y-14377847D01*
X63163580Y-14377847D02*
X62973104Y-14568323D01*
X62973104Y-14568323D02*
X62687389Y-14663561D01*
X62687389Y-14663561D02*
X62496913Y-14663561D01*
X62496913Y-14663561D02*
X62211199Y-14568323D01*
X62211199Y-14568323D02*
X62115961Y-14473085D01*
X62115961Y-14473085D02*
X62115961Y-13806419D01*
X62115961Y-13806419D02*
X62496913Y-13806419D01*
X60877866Y-12663561D02*
X60496913Y-12663561D01*
X60496913Y-12663561D02*
X60306437Y-12758800D01*
X60306437Y-12758800D02*
X60115961Y-12949276D01*
X60115961Y-12949276D02*
X60020723Y-13330228D01*
X60020723Y-13330228D02*
X60020723Y-13996895D01*
X60020723Y-13996895D02*
X60115961Y-14377847D01*
X60115961Y-14377847D02*
X60306437Y-14568323D01*
X60306437Y-14568323D02*
X60496913Y-14663561D01*
X60496913Y-14663561D02*
X60877866Y-14663561D01*
X60877866Y-14663561D02*
X61068342Y-14568323D01*
X61068342Y-14568323D02*
X61258818Y-14377847D01*
X61258818Y-14377847D02*
X61354056Y-13996895D01*
X61354056Y-13996895D02*
X61354056Y-13330228D01*
X61354056Y-13330228D02*
X61258818Y-12949276D01*
X61258818Y-12949276D02*
X61068342Y-12758800D01*
X61068342Y-12758800D02*
X60877866Y-12663561D01*
X66735009Y-17903561D02*
X66735009Y-15903561D01*
X66735009Y-15903561D02*
X65973104Y-15903561D01*
X65973104Y-15903561D02*
X65782628Y-15998800D01*
X65782628Y-15998800D02*
X65687390Y-16094038D01*
X65687390Y-16094038D02*
X65592152Y-16284514D01*
X65592152Y-16284514D02*
X65592152Y-16570228D01*
X65592152Y-16570228D02*
X65687390Y-16760704D01*
X65687390Y-16760704D02*
X65782628Y-16855942D01*
X65782628Y-16855942D02*
X65973104Y-16951180D01*
X65973104Y-16951180D02*
X66735009Y-16951180D01*
X63592152Y-17713085D02*
X63687390Y-17808323D01*
X63687390Y-17808323D02*
X63973104Y-17903561D01*
X63973104Y-17903561D02*
X64163580Y-17903561D01*
X64163580Y-17903561D02*
X64449295Y-17808323D01*
X64449295Y-17808323D02*
X64639771Y-17617847D01*
X64639771Y-17617847D02*
X64735009Y-17427371D01*
X64735009Y-17427371D02*
X64830247Y-17046419D01*
X64830247Y-17046419D02*
X64830247Y-16760704D01*
X64830247Y-16760704D02*
X64735009Y-16379752D01*
X64735009Y-16379752D02*
X64639771Y-16189276D01*
X64639771Y-16189276D02*
X64449295Y-15998800D01*
X64449295Y-15998800D02*
X64163580Y-15903561D01*
X64163580Y-15903561D02*
X63973104Y-15903561D01*
X63973104Y-15903561D02*
X63687390Y-15998800D01*
X63687390Y-15998800D02*
X63592152Y-16094038D01*
X62068342Y-16855942D02*
X61782628Y-16951180D01*
X61782628Y-16951180D02*
X61687390Y-17046419D01*
X61687390Y-17046419D02*
X61592152Y-17236895D01*
X61592152Y-17236895D02*
X61592152Y-17522609D01*
X61592152Y-17522609D02*
X61687390Y-17713085D01*
X61687390Y-17713085D02*
X61782628Y-17808323D01*
X61782628Y-17808323D02*
X61973104Y-17903561D01*
X61973104Y-17903561D02*
X62735009Y-17903561D01*
X62735009Y-17903561D02*
X62735009Y-15903561D01*
X62735009Y-15903561D02*
X62068342Y-15903561D01*
X62068342Y-15903561D02*
X61877866Y-15998800D01*
X61877866Y-15998800D02*
X61782628Y-16094038D01*
X61782628Y-16094038D02*
X61687390Y-16284514D01*
X61687390Y-16284514D02*
X61687390Y-16474990D01*
X61687390Y-16474990D02*
X61782628Y-16665466D01*
X61782628Y-16665466D02*
X61877866Y-16760704D01*
X61877866Y-16760704D02*
X62068342Y-16855942D01*
X62068342Y-16855942D02*
X62735009Y-16855942D01*
M02*
