%TF.GenerationSoftware,KiCad,Pcbnew,(7.0.0-0)*%
%TF.CreationDate,2023-08-08T20:11:38-05:00*%
%TF.ProjectId,DingoPCB,44696e67-6f50-4434-922e-6b696361645f,rev?*%
%TF.SameCoordinates,Original*%
%TF.FileFunction,Copper,L2,Bot*%
%TF.FilePolarity,Positive*%
%FSLAX46Y46*%
G04 Gerber Fmt 4.6, Leading zero omitted, Abs format (unit mm)*
G04 Created by KiCad (PCBNEW (7.0.0-0)) date 2023-08-08 20:11:38*
%MOMM*%
%LPD*%
G01*
G04 APERTURE LIST*
G04 Aperture macros list*
%AMRoundRect*
0 Rectangle with rounded corners*
0 $1 Rounding radius*
0 $2 $3 $4 $5 $6 $7 $8 $9 X,Y pos of 4 corners*
0 Add a 4 corners polygon primitive as box body*
4,1,4,$2,$3,$4,$5,$6,$7,$8,$9,$2,$3,0*
0 Add four circle primitives for the rounded corners*
1,1,$1+$1,$2,$3*
1,1,$1+$1,$4,$5*
1,1,$1+$1,$6,$7*
1,1,$1+$1,$8,$9*
0 Add four rect primitives between the rounded corners*
20,1,$1+$1,$2,$3,$4,$5,0*
20,1,$1+$1,$4,$5,$6,$7,0*
20,1,$1+$1,$6,$7,$8,$9,0*
20,1,$1+$1,$8,$9,$2,$3,0*%
G04 Aperture macros list end*
%TA.AperFunction,ComponentPad*%
%ADD10RoundRect,0.250000X-0.600000X-0.750000X0.600000X-0.750000X0.600000X0.750000X-0.600000X0.750000X0*%
%TD*%
%TA.AperFunction,ComponentPad*%
%ADD11O,1.700000X2.000000*%
%TD*%
%TA.AperFunction,ComponentPad*%
%ADD12R,2.600000X2.600000*%
%TD*%
%TA.AperFunction,ComponentPad*%
%ADD13C,2.600000*%
%TD*%
%TA.AperFunction,ComponentPad*%
%ADD14C,1.400000*%
%TD*%
%TA.AperFunction,ComponentPad*%
%ADD15O,1.400000X1.400000*%
%TD*%
%TA.AperFunction,ComponentPad*%
%ADD16R,1.600000X1.600000*%
%TD*%
%TA.AperFunction,ComponentPad*%
%ADD17O,1.600000X1.600000*%
%TD*%
%TA.AperFunction,Conductor*%
%ADD18C,0.250000*%
%TD*%
G04 APERTURE END LIST*
D10*
%TO.P,J12,1,Pin_1*%
%TO.N,GND*%
X25338400Y-21539200D03*
D11*
%TO.P,J12,2,Pin_2*%
%TO.N,+5V*%
X27838399Y-21539199D03*
%TD*%
D12*
%TO.P,J1,1,Pin_1*%
%TO.N,GND*%
X5537199Y-19303999D03*
D13*
%TO.P,J1,2,Pin_2*%
%TO.N,+15V*%
X5537200Y-24384000D03*
%TD*%
D10*
%TO.P,J11,1,Pin_1*%
%TO.N,+12V*%
X43129200Y-21539200D03*
D11*
%TO.P,J11,2,Pin_2*%
%TO.N,GND*%
X45629199Y-21539199D03*
%TD*%
D14*
%TO.P,R2,1*%
%TO.N,Net-(J10-Pin_2)*%
X46735200Y-16052800D03*
D15*
%TO.P,R2,2*%
%TO.N,GND*%
X49275199Y-16052799D03*
%TD*%
D12*
%TO.P,J4,1,Pin_1*%
%TO.N,GND*%
X33832799Y-34797999D03*
D13*
%TO.P,J4,2,Pin_2*%
%TO.N,+15V*%
X38912800Y-34798000D03*
%TD*%
D10*
%TO.P,J20,1,Pin_1*%
%TO.N,GND*%
X66903600Y-4267200D03*
D11*
%TO.P,J20,2,Pin_2*%
%TO.N,+5V*%
X69403599Y-4267199D03*
%TD*%
D12*
%TO.P,J2,1,Pin_1*%
%TO.N,GND*%
X34747199Y-5232399D03*
D13*
%TO.P,J2,2,Pin_2*%
%TO.N,+15V*%
X29667200Y-5232400D03*
%TD*%
D10*
%TO.P,J8,1,Pin_1*%
%TO.N,+12V*%
X51968400Y-21539200D03*
D11*
%TO.P,J8,2,Pin_2*%
%TO.N,GND*%
X54468399Y-21539199D03*
%TD*%
D10*
%TO.P,J9,1,Pin_1*%
%TO.N,GND*%
X15798800Y-21539200D03*
D11*
%TO.P,J9,2,Pin_2*%
%TO.N,+5V*%
X18298799Y-21539199D03*
%TD*%
D12*
%TO.P,J7,1,Pin_1*%
%TO.N,GND*%
X58521599Y-5232399D03*
D13*
%TO.P,J7,2,Pin_2*%
%TO.N,+5V*%
X53441600Y-5232400D03*
%TD*%
D10*
%TO.P,J17,1,Pin_1*%
%TO.N,GND*%
X10809600Y-35001200D03*
D11*
%TO.P,J17,2,Pin_2*%
%TO.N,+5V*%
X13309599Y-35001199D03*
%TD*%
D10*
%TO.P,J14,1,Pin_1*%
%TO.N,GND*%
X34330000Y-21539200D03*
D11*
%TO.P,J14,2,Pin_2*%
%TO.N,+5V*%
X36829999Y-21539199D03*
%TD*%
D16*
%TO.P,D1,1,K*%
%TO.N,Net-(D1-K)*%
X34035999Y-16103599D03*
D17*
%TO.P,D1,2,A*%
%TO.N,+15V*%
X26415999Y-16103599D03*
%TD*%
D10*
%TO.P,J18,1,Pin_1*%
%TO.N,GND*%
X68122800Y-34950400D03*
D11*
%TO.P,J18,2,Pin_2*%
%TO.N,+5V*%
X70622799Y-34950399D03*
%TD*%
D14*
%TO.P,R1,1*%
%TO.N,Net-(D1-K)*%
X39116000Y-16052800D03*
D15*
%TO.P,R1,2*%
%TO.N,Net-(J10-Pin_2)*%
X41655999Y-16052799D03*
%TD*%
D10*
%TO.P,J15,1,Pin_1*%
%TO.N,GND*%
X10200000Y-4572000D03*
D11*
%TO.P,J15,2,Pin_2*%
%TO.N,+5V*%
X12699999Y-4571999D03*
%TD*%
D10*
%TO.P,J13,1,Pin_1*%
%TO.N,+12V*%
X60858400Y-21590000D03*
D11*
%TO.P,J13,2,Pin_2*%
%TO.N,GND*%
X63358399Y-21589999D03*
%TD*%
D12*
%TO.P,J3,1,Pin_1*%
%TO.N,GND*%
X20370799Y-34747199D03*
D13*
%TO.P,J3,2,Pin_2*%
%TO.N,+15V*%
X25450800Y-34747200D03*
%TD*%
D10*
%TO.P,J16,1,Pin_1*%
%TO.N,GND*%
X20512400Y-4572000D03*
D11*
%TO.P,J16,2,Pin_2*%
%TO.N,+5V*%
X23012399Y-4571999D03*
%TD*%
D12*
%TO.P,J5,1,Pin_1*%
%TO.N,GND*%
X46481999Y-34797999D03*
D13*
%TO.P,J5,2,Pin_2*%
%TO.N,+15V*%
X51562000Y-34798000D03*
%TD*%
D12*
%TO.P,J6,1,Pin_1*%
%TO.N,GND*%
X74980799Y-24891999D03*
D13*
%TO.P,J6,2,Pin_2*%
%TO.N,+12V*%
X74980800Y-19812000D03*
%TD*%
D12*
%TO.P,J10,1,Pin_1*%
%TO.N,GND*%
X46735999Y-5232399D03*
D13*
%TO.P,J10,2,Pin_2*%
%TO.N,Net-(J10-Pin_2)*%
X41656000Y-5232400D03*
%TD*%
D10*
%TO.P,J19,1,Pin_1*%
%TO.N,GND*%
X58623200Y-34950400D03*
D11*
%TO.P,J19,2,Pin_2*%
%TO.N,+5V*%
X61123199Y-34950399D03*
%TD*%
D18*
%TO.N,+5V*%
X23012400Y-8737600D02*
X18298800Y-13451200D01*
X37744400Y-18694400D02*
X36830000Y-19608800D01*
X53441600Y-5232400D02*
X53441600Y-2641600D01*
X35505000Y-22864200D02*
X36830000Y-21539200D01*
X48971200Y-18694400D02*
X37744400Y-18694400D01*
X53441600Y-15494000D02*
X50241200Y-18694400D01*
X12700000Y-3251200D02*
X13970000Y-1981200D01*
X19623800Y-22864200D02*
X26513400Y-22864200D01*
X70622800Y-34950400D02*
X69297800Y-33625400D01*
X13970000Y-1981200D02*
X21132800Y-1981200D01*
X18298800Y-13451200D02*
X18298800Y-21539200D01*
X50241200Y-18694400D02*
X48971200Y-18694400D01*
X27838400Y-21539200D02*
X29163400Y-22864200D01*
X36830000Y-19608800D02*
X36830000Y-21539200D01*
X48971200Y-22798400D02*
X48971200Y-18694400D01*
X26513400Y-22864200D02*
X27838400Y-21539200D01*
X69297800Y-33625400D02*
X62448200Y-33625400D01*
X54711600Y-1371600D02*
X67665600Y-1371600D01*
X18298800Y-21539200D02*
X19623800Y-22864200D01*
X21132800Y-1981200D02*
X23012400Y-3860800D01*
X62448200Y-33625400D02*
X61123200Y-34950400D01*
X53441600Y-5232400D02*
X53441600Y-15494000D01*
X53441600Y-2641600D02*
X54711600Y-1371600D01*
X67665600Y-1371600D02*
X69403600Y-3109600D01*
X29163400Y-22864200D02*
X35505000Y-22864200D01*
X61123200Y-34950400D02*
X48971200Y-22798400D01*
X69403600Y-3109600D02*
X69403600Y-4267200D01*
X18298800Y-23814400D02*
X13309600Y-28803600D01*
X23012400Y-4572000D02*
X23012400Y-8737600D01*
X23012400Y-3860800D02*
X23012400Y-4572000D01*
X18298800Y-21539200D02*
X18298800Y-23814400D01*
X12700000Y-4572000D02*
X12700000Y-3251200D01*
X13309600Y-28803600D02*
X13309600Y-35001200D01*
%TO.N,Net-(J10-Pin_2)*%
X41656000Y-5232400D02*
X41656000Y-16052800D01*
%TD*%
%TA.AperFunction,Conductor*%
%TO.N,GND*%
G36*
X23608793Y-65559D02*
G01*
X80140079Y-101521D01*
X80202046Y-118160D01*
X80247400Y-163544D01*
X80264000Y-225521D01*
X80264000Y-39754000D01*
X80247387Y-39816000D01*
X80202000Y-39861387D01*
X80140000Y-39878000D01*
X530400Y-39878000D01*
X468400Y-39861387D01*
X423013Y-39816000D01*
X406400Y-39754000D01*
X406400Y-37000000D01*
X1120612Y-37000000D01*
X1120928Y-37004418D01*
X1139424Y-37263042D01*
X1139425Y-37263051D01*
X1139741Y-37267465D01*
X1140681Y-37271790D01*
X1140683Y-37271798D01*
X1190356Y-37500140D01*
X1196740Y-37529485D01*
X1290449Y-37780726D01*
X1292569Y-37784608D01*
X1292572Y-37784615D01*
X1416831Y-38012180D01*
X1416835Y-38012187D01*
X1418958Y-38016074D01*
X1421615Y-38019623D01*
X1577000Y-38227194D01*
X1577005Y-38227200D01*
X1579653Y-38230737D01*
X1769263Y-38420347D01*
X1772800Y-38422995D01*
X1772805Y-38422999D01*
X1875404Y-38499803D01*
X1983926Y-38581042D01*
X1987816Y-38583166D01*
X1987819Y-38583168D01*
X2215384Y-38707427D01*
X2219274Y-38709551D01*
X2470515Y-38803260D01*
X2732535Y-38860259D01*
X3000000Y-38879388D01*
X3267465Y-38860259D01*
X3529485Y-38803260D01*
X3780726Y-38709551D01*
X4016074Y-38581042D01*
X4230737Y-38420347D01*
X4420347Y-38230737D01*
X4581042Y-38016074D01*
X4709551Y-37780726D01*
X4803260Y-37529485D01*
X4860259Y-37267465D01*
X4879388Y-37000000D01*
X75120612Y-37000000D01*
X75120928Y-37004418D01*
X75139424Y-37263042D01*
X75139425Y-37263051D01*
X75139741Y-37267465D01*
X75140681Y-37271790D01*
X75140683Y-37271798D01*
X75190356Y-37500140D01*
X75196740Y-37529485D01*
X75290449Y-37780726D01*
X75292569Y-37784608D01*
X75292572Y-37784615D01*
X75416831Y-38012180D01*
X75416835Y-38012187D01*
X75418958Y-38016074D01*
X75421615Y-38019623D01*
X75577000Y-38227194D01*
X75577005Y-38227200D01*
X75579653Y-38230737D01*
X75769263Y-38420347D01*
X75772800Y-38422995D01*
X75772805Y-38422999D01*
X75875404Y-38499803D01*
X75983926Y-38581042D01*
X75987816Y-38583166D01*
X75987819Y-38583168D01*
X76215384Y-38707427D01*
X76219274Y-38709551D01*
X76470515Y-38803260D01*
X76732535Y-38860259D01*
X77000000Y-38879388D01*
X77267465Y-38860259D01*
X77529485Y-38803260D01*
X77780726Y-38709551D01*
X78016074Y-38581042D01*
X78230737Y-38420347D01*
X78420347Y-38230737D01*
X78581042Y-38016074D01*
X78709551Y-37780726D01*
X78803260Y-37529485D01*
X78860259Y-37267465D01*
X78879388Y-37000000D01*
X78860259Y-36732535D01*
X78803260Y-36470515D01*
X78709551Y-36219274D01*
X78693400Y-36189695D01*
X78583168Y-35987819D01*
X78583166Y-35987816D01*
X78581042Y-35983926D01*
X78487914Y-35859522D01*
X78422999Y-35772805D01*
X78422995Y-35772800D01*
X78420347Y-35769263D01*
X78230737Y-35579653D01*
X78227200Y-35577005D01*
X78227194Y-35577000D01*
X78019623Y-35421615D01*
X78016074Y-35418958D01*
X78012187Y-35416835D01*
X78012180Y-35416831D01*
X77784615Y-35292572D01*
X77784608Y-35292569D01*
X77780726Y-35290449D01*
X77776576Y-35288901D01*
X77533628Y-35198285D01*
X77533624Y-35198283D01*
X77529485Y-35196740D01*
X77500140Y-35190356D01*
X77271798Y-35140683D01*
X77271790Y-35140681D01*
X77267465Y-35139741D01*
X77263051Y-35139425D01*
X77263042Y-35139424D01*
X77004418Y-35120928D01*
X77000000Y-35120612D01*
X76995582Y-35120928D01*
X76736957Y-35139424D01*
X76736946Y-35139425D01*
X76732535Y-35139741D01*
X76728211Y-35140681D01*
X76728201Y-35140683D01*
X76474840Y-35195799D01*
X76474837Y-35195799D01*
X76470515Y-35196740D01*
X76466379Y-35198282D01*
X76466371Y-35198285D01*
X76223423Y-35288901D01*
X76223417Y-35288903D01*
X76219274Y-35290449D01*
X76215396Y-35292566D01*
X76215384Y-35292572D01*
X75987819Y-35416831D01*
X75987805Y-35416839D01*
X75983926Y-35418958D01*
X75980380Y-35421611D01*
X75980376Y-35421615D01*
X75772805Y-35577000D01*
X75772792Y-35577010D01*
X75769263Y-35579653D01*
X75766137Y-35582778D01*
X75766130Y-35582785D01*
X75582785Y-35766130D01*
X75582778Y-35766137D01*
X75579653Y-35769263D01*
X75577010Y-35772792D01*
X75577000Y-35772805D01*
X75421615Y-35980376D01*
X75421611Y-35980380D01*
X75418958Y-35983926D01*
X75416839Y-35987805D01*
X75416831Y-35987819D01*
X75292572Y-36215384D01*
X75292566Y-36215396D01*
X75290449Y-36219274D01*
X75288903Y-36223417D01*
X75288901Y-36223423D01*
X75198285Y-36466371D01*
X75198282Y-36466379D01*
X75196740Y-36470515D01*
X75195799Y-36474837D01*
X75195799Y-36474840D01*
X75140683Y-36728201D01*
X75140681Y-36728211D01*
X75139741Y-36732535D01*
X75139425Y-36736946D01*
X75139424Y-36736957D01*
X75121561Y-36986727D01*
X75120612Y-37000000D01*
X4879388Y-37000000D01*
X4860259Y-36732535D01*
X4803260Y-36470515D01*
X4709551Y-36219274D01*
X4693400Y-36189695D01*
X4583168Y-35987819D01*
X4583166Y-35987816D01*
X4581042Y-35983926D01*
X4487914Y-35859522D01*
X4441881Y-35798029D01*
X9459601Y-35798029D01*
X9459921Y-35804311D01*
X9469405Y-35897159D01*
X9472223Y-35910322D01*
X9522970Y-36063467D01*
X9529032Y-36076466D01*
X9613490Y-36213394D01*
X9622394Y-36224655D01*
X9736144Y-36338405D01*
X9747405Y-36347309D01*
X9884333Y-36431767D01*
X9897332Y-36437829D01*
X10050474Y-36488575D01*
X10063641Y-36491394D01*
X10156490Y-36500880D01*
X10162768Y-36501200D01*
X10543274Y-36501200D01*
X10556149Y-36497749D01*
X10559600Y-36484874D01*
X10559600Y-35267526D01*
X10556149Y-35254650D01*
X10543274Y-35251200D01*
X9475927Y-35251200D01*
X9463051Y-35254650D01*
X9459601Y-35267526D01*
X9459601Y-35798029D01*
X4441881Y-35798029D01*
X4422999Y-35772805D01*
X4422995Y-35772800D01*
X4420347Y-35769263D01*
X4230737Y-35579653D01*
X4227200Y-35577005D01*
X4227194Y-35577000D01*
X4019623Y-35421615D01*
X4016074Y-35418958D01*
X4012187Y-35416835D01*
X4012180Y-35416831D01*
X3784615Y-35292572D01*
X3784608Y-35292569D01*
X3780726Y-35290449D01*
X3776576Y-35288901D01*
X3533628Y-35198285D01*
X3533624Y-35198283D01*
X3529485Y-35196740D01*
X3500140Y-35190356D01*
X3271798Y-35140683D01*
X3271790Y-35140681D01*
X3267465Y-35139741D01*
X3263051Y-35139425D01*
X3263042Y-35139424D01*
X3004418Y-35120928D01*
X3000000Y-35120612D01*
X2995582Y-35120928D01*
X2736957Y-35139424D01*
X2736946Y-35139425D01*
X2732535Y-35139741D01*
X2728211Y-35140681D01*
X2728201Y-35140683D01*
X2474840Y-35195799D01*
X2474837Y-35195799D01*
X2470515Y-35196740D01*
X2466379Y-35198282D01*
X2466371Y-35198285D01*
X2223423Y-35288901D01*
X2223417Y-35288903D01*
X2219274Y-35290449D01*
X2215396Y-35292566D01*
X2215384Y-35292572D01*
X1987819Y-35416831D01*
X1987805Y-35416839D01*
X1983926Y-35418958D01*
X1980380Y-35421611D01*
X1980376Y-35421615D01*
X1772805Y-35577000D01*
X1772792Y-35577010D01*
X1769263Y-35579653D01*
X1766137Y-35582778D01*
X1766130Y-35582785D01*
X1582785Y-35766130D01*
X1582778Y-35766137D01*
X1579653Y-35769263D01*
X1577010Y-35772792D01*
X1577000Y-35772805D01*
X1421615Y-35980376D01*
X1421611Y-35980380D01*
X1418958Y-35983926D01*
X1416839Y-35987805D01*
X1416831Y-35987819D01*
X1292572Y-36215384D01*
X1292566Y-36215396D01*
X1290449Y-36219274D01*
X1288903Y-36223417D01*
X1288901Y-36223423D01*
X1198285Y-36466371D01*
X1198282Y-36466379D01*
X1196740Y-36470515D01*
X1195799Y-36474837D01*
X1195799Y-36474840D01*
X1140683Y-36728201D01*
X1140681Y-36728211D01*
X1139741Y-36732535D01*
X1139425Y-36736946D01*
X1139424Y-36736957D01*
X1121561Y-36986727D01*
X1120612Y-37000000D01*
X406400Y-37000000D01*
X406400Y-34734874D01*
X9459600Y-34734874D01*
X9463050Y-34747749D01*
X9475926Y-34751200D01*
X10543274Y-34751200D01*
X10556149Y-34747749D01*
X10559600Y-34734874D01*
X10559600Y-33517527D01*
X10556149Y-33504651D01*
X10543274Y-33501201D01*
X10162771Y-33501201D01*
X10156488Y-33501521D01*
X10063640Y-33511005D01*
X10050477Y-33513823D01*
X9897332Y-33564570D01*
X9884333Y-33570632D01*
X9747405Y-33655090D01*
X9736144Y-33663994D01*
X9622394Y-33777744D01*
X9613490Y-33789005D01*
X9529032Y-33925933D01*
X9522970Y-33938932D01*
X9472224Y-34092074D01*
X9469405Y-34105241D01*
X9459919Y-34198090D01*
X9459600Y-34204368D01*
X9459600Y-34734874D01*
X406400Y-34734874D01*
X406400Y-24384000D01*
X3731651Y-24384000D01*
X3731998Y-24388631D01*
X3749761Y-24625674D01*
X3751817Y-24653103D01*
X3811866Y-24916195D01*
X3910457Y-25167398D01*
X4045385Y-25401102D01*
X4213639Y-25612085D01*
X4411459Y-25795635D01*
X4634426Y-25947651D01*
X4877559Y-26064738D01*
X4881987Y-26066103D01*
X4881990Y-26066105D01*
X5006493Y-26104509D01*
X5135428Y-26144280D01*
X5402271Y-26184500D01*
X5667492Y-26184500D01*
X5672129Y-26184500D01*
X5938972Y-26144280D01*
X6196841Y-26064738D01*
X6439975Y-25947651D01*
X6662941Y-25795635D01*
X6860761Y-25612085D01*
X7029015Y-25401102D01*
X7163943Y-25167398D01*
X7262534Y-24916195D01*
X7322583Y-24653103D01*
X7342749Y-24384000D01*
X7322583Y-24114897D01*
X7262534Y-23851805D01*
X7163943Y-23600602D01*
X7029015Y-23366898D01*
X6860761Y-23155915D01*
X6719468Y-23024814D01*
X6666346Y-22975524D01*
X6666343Y-22975521D01*
X6662941Y-22972365D01*
X6659112Y-22969754D01*
X6659109Y-22969752D01*
X6471181Y-22841625D01*
X6439975Y-22820349D01*
X6418834Y-22810168D01*
X6201020Y-22705274D01*
X6201014Y-22705271D01*
X6196841Y-22703262D01*
X6192419Y-22701898D01*
X6192409Y-22701894D01*
X5943402Y-22625086D01*
X5943396Y-22625084D01*
X5938972Y-22623720D01*
X5934395Y-22623030D01*
X5934386Y-22623028D01*
X5676714Y-22584191D01*
X5676713Y-22584190D01*
X5672129Y-22583500D01*
X5402271Y-22583500D01*
X5397687Y-22584190D01*
X5397685Y-22584191D01*
X5140013Y-22623028D01*
X5140001Y-22623030D01*
X5135428Y-22623720D01*
X5131006Y-22625083D01*
X5130997Y-22625086D01*
X4881990Y-22701894D01*
X4881975Y-22701899D01*
X4877559Y-22703262D01*
X4873385Y-22705271D01*
X4873380Y-22705274D01*
X4638611Y-22818333D01*
X4638604Y-22818336D01*
X4634426Y-22820349D01*
X4630593Y-22822962D01*
X4630590Y-22822964D01*
X4415290Y-22969752D01*
X4415280Y-22969759D01*
X4411459Y-22972365D01*
X4408063Y-22975516D01*
X4408053Y-22975524D01*
X4217043Y-23152756D01*
X4217039Y-23152759D01*
X4213639Y-23155915D01*
X4210749Y-23159537D01*
X4210746Y-23159542D01*
X4048996Y-23362370D01*
X4045385Y-23366898D01*
X4043066Y-23370913D01*
X4043065Y-23370916D01*
X3912778Y-23596581D01*
X3912775Y-23596586D01*
X3910457Y-23600602D01*
X3908763Y-23604916D01*
X3908761Y-23604922D01*
X3821823Y-23826435D01*
X3811866Y-23851805D01*
X3810833Y-23856326D01*
X3810832Y-23856333D01*
X3752848Y-24110377D01*
X3752846Y-24110385D01*
X3751817Y-24114897D01*
X3751470Y-24119516D01*
X3751470Y-24119522D01*
X3741813Y-24248389D01*
X3731651Y-24384000D01*
X406400Y-24384000D01*
X406400Y-22336029D01*
X14448801Y-22336029D01*
X14449121Y-22342311D01*
X14458605Y-22435159D01*
X14461423Y-22448322D01*
X14512170Y-22601467D01*
X14518232Y-22614466D01*
X14602690Y-22751394D01*
X14611594Y-22762655D01*
X14725344Y-22876405D01*
X14736605Y-22885309D01*
X14873533Y-22969767D01*
X14886532Y-22975829D01*
X15039674Y-23026575D01*
X15052841Y-23029394D01*
X15145690Y-23038880D01*
X15151968Y-23039200D01*
X15532474Y-23039200D01*
X15545349Y-23035749D01*
X15548800Y-23022874D01*
X15548800Y-21805526D01*
X15545349Y-21792650D01*
X15532474Y-21789200D01*
X14465127Y-21789200D01*
X14452251Y-21792650D01*
X14448801Y-21805526D01*
X14448801Y-22336029D01*
X406400Y-22336029D01*
X406400Y-21272874D01*
X14448800Y-21272874D01*
X14452250Y-21285749D01*
X14465126Y-21289200D01*
X15532474Y-21289200D01*
X15545349Y-21285749D01*
X15548800Y-21272874D01*
X15548800Y-20055527D01*
X15545349Y-20042651D01*
X15532474Y-20039201D01*
X15151971Y-20039201D01*
X15145688Y-20039521D01*
X15052840Y-20049005D01*
X15039677Y-20051823D01*
X14886532Y-20102570D01*
X14873533Y-20108632D01*
X14736605Y-20193090D01*
X14725344Y-20201994D01*
X14611594Y-20315744D01*
X14602690Y-20327005D01*
X14518232Y-20463933D01*
X14512170Y-20476932D01*
X14461424Y-20630074D01*
X14458605Y-20643241D01*
X14449119Y-20736090D01*
X14448800Y-20742368D01*
X14448800Y-21272874D01*
X406400Y-21272874D01*
X406400Y-20648518D01*
X3737200Y-20648518D01*
X3737553Y-20655114D01*
X3742773Y-20703667D01*
X3746311Y-20718641D01*
X3790747Y-20837777D01*
X3799162Y-20853189D01*
X3874698Y-20954092D01*
X3887107Y-20966501D01*
X3988010Y-21042037D01*
X4003422Y-21050452D01*
X4122558Y-21094888D01*
X4137532Y-21098426D01*
X4186085Y-21103646D01*
X4192682Y-21104000D01*
X5270874Y-21104000D01*
X5283749Y-21100549D01*
X5287200Y-21087674D01*
X5787200Y-21087674D01*
X5790650Y-21100549D01*
X5803526Y-21104000D01*
X6881718Y-21104000D01*
X6888314Y-21103646D01*
X6936867Y-21098426D01*
X6951841Y-21094888D01*
X7070977Y-21050452D01*
X7086389Y-21042037D01*
X7187292Y-20966501D01*
X7199701Y-20954092D01*
X7275237Y-20853189D01*
X7283652Y-20837777D01*
X7328088Y-20718641D01*
X7331626Y-20703667D01*
X7336846Y-20655114D01*
X7337200Y-20648518D01*
X7337200Y-19570326D01*
X7333749Y-19557450D01*
X7320874Y-19554000D01*
X5803526Y-19554000D01*
X5790650Y-19557450D01*
X5787200Y-19570326D01*
X5787200Y-21087674D01*
X5287200Y-21087674D01*
X5287200Y-19570326D01*
X5283749Y-19557450D01*
X5270874Y-19554000D01*
X3753526Y-19554000D01*
X3740650Y-19557450D01*
X3737200Y-19570326D01*
X3737200Y-20648518D01*
X406400Y-20648518D01*
X406400Y-19037674D01*
X3737200Y-19037674D01*
X3740650Y-19050549D01*
X3753526Y-19054000D01*
X5270874Y-19054000D01*
X5283749Y-19050549D01*
X5287200Y-19037674D01*
X5787200Y-19037674D01*
X5790650Y-19050549D01*
X5803526Y-19054000D01*
X7320874Y-19054000D01*
X7333749Y-19050549D01*
X7337200Y-19037674D01*
X7337200Y-17959482D01*
X7336846Y-17952885D01*
X7331626Y-17904332D01*
X7328088Y-17889358D01*
X7283652Y-17770222D01*
X7275237Y-17754810D01*
X7199701Y-17653907D01*
X7187292Y-17641498D01*
X7086389Y-17565962D01*
X7070977Y-17557547D01*
X6951841Y-17513111D01*
X6936867Y-17509573D01*
X6888314Y-17504353D01*
X6881718Y-17504000D01*
X5803526Y-17504000D01*
X5790650Y-17507450D01*
X5787200Y-17520326D01*
X5787200Y-19037674D01*
X5287200Y-19037674D01*
X5287200Y-17520326D01*
X5283749Y-17507450D01*
X5270874Y-17504000D01*
X4192682Y-17504000D01*
X4186085Y-17504353D01*
X4137532Y-17509573D01*
X4122558Y-17513111D01*
X4003422Y-17557547D01*
X3988010Y-17565962D01*
X3887107Y-17641498D01*
X3874698Y-17653907D01*
X3799162Y-17754810D01*
X3790747Y-17770222D01*
X3746311Y-17889358D01*
X3742773Y-17904332D01*
X3737553Y-17952885D01*
X3737200Y-17959482D01*
X3737200Y-19037674D01*
X406400Y-19037674D01*
X406400Y-5368829D01*
X8850001Y-5368829D01*
X8850321Y-5375111D01*
X8859805Y-5467959D01*
X8862623Y-5481122D01*
X8913370Y-5634267D01*
X8919432Y-5647266D01*
X9003890Y-5784194D01*
X9012794Y-5795455D01*
X9126544Y-5909205D01*
X9137805Y-5918109D01*
X9274733Y-6002567D01*
X9287732Y-6008629D01*
X9440874Y-6059375D01*
X9454041Y-6062194D01*
X9546890Y-6071680D01*
X9553168Y-6072000D01*
X9933674Y-6072000D01*
X9946549Y-6068549D01*
X9950000Y-6055674D01*
X9950000Y-6055673D01*
X10450000Y-6055673D01*
X10453450Y-6068548D01*
X10466326Y-6071999D01*
X10846829Y-6071999D01*
X10853111Y-6071678D01*
X10945959Y-6062194D01*
X10959122Y-6059376D01*
X11112267Y-6008629D01*
X11125266Y-6002567D01*
X11262194Y-5918109D01*
X11273455Y-5909205D01*
X11387205Y-5795455D01*
X11396109Y-5784194D01*
X11484358Y-5641122D01*
X11485205Y-5641644D01*
X11517286Y-5601667D01*
X11571241Y-5577922D01*
X11630064Y-5581775D01*
X11680460Y-5612356D01*
X11828599Y-5760495D01*
X11833031Y-5763598D01*
X11833033Y-5763600D01*
X11878527Y-5795455D01*
X12022170Y-5896035D01*
X12027070Y-5898320D01*
X12027072Y-5898321D01*
X12050413Y-5909205D01*
X12236337Y-5995903D01*
X12241567Y-5997304D01*
X12241569Y-5997305D01*
X12283619Y-6008572D01*
X12464592Y-6057063D01*
X12700000Y-6077659D01*
X12935408Y-6057063D01*
X13163663Y-5995903D01*
X13377829Y-5896035D01*
X13571401Y-5760495D01*
X13738495Y-5593401D01*
X13874035Y-5399829D01*
X13888491Y-5368829D01*
X19162401Y-5368829D01*
X19162721Y-5375111D01*
X19172205Y-5467959D01*
X19175023Y-5481122D01*
X19225770Y-5634267D01*
X19231832Y-5647266D01*
X19316290Y-5784194D01*
X19325194Y-5795455D01*
X19438944Y-5909205D01*
X19450205Y-5918109D01*
X19587133Y-6002567D01*
X19600132Y-6008629D01*
X19753274Y-6059375D01*
X19766441Y-6062194D01*
X19859290Y-6071680D01*
X19865568Y-6072000D01*
X20246074Y-6072000D01*
X20258949Y-6068549D01*
X20262400Y-6055674D01*
X20262400Y-4838326D01*
X20258949Y-4825450D01*
X20246074Y-4822000D01*
X19178727Y-4822000D01*
X19165851Y-4825450D01*
X19162401Y-4838326D01*
X19162401Y-5368829D01*
X13888491Y-5368829D01*
X13973903Y-5185663D01*
X14035063Y-4957408D01*
X14050500Y-4780966D01*
X14050500Y-4363034D01*
X14045482Y-4305674D01*
X19162400Y-4305674D01*
X19165850Y-4318549D01*
X19178726Y-4322000D01*
X20246074Y-4322000D01*
X20258949Y-4318549D01*
X20262400Y-4305674D01*
X20262400Y-3088327D01*
X20258949Y-3075451D01*
X20246074Y-3072001D01*
X19865571Y-3072001D01*
X19859288Y-3072321D01*
X19766440Y-3081805D01*
X19753277Y-3084623D01*
X19600132Y-3135370D01*
X19587133Y-3141432D01*
X19450205Y-3225890D01*
X19438944Y-3234794D01*
X19325194Y-3348544D01*
X19316290Y-3359805D01*
X19231832Y-3496733D01*
X19225770Y-3509732D01*
X19175024Y-3662874D01*
X19172205Y-3676041D01*
X19162719Y-3768890D01*
X19162400Y-3775168D01*
X19162400Y-4305674D01*
X14045482Y-4305674D01*
X14035063Y-4186592D01*
X13985301Y-4000874D01*
X13975305Y-3963569D01*
X13975304Y-3963567D01*
X13973903Y-3958337D01*
X13874035Y-3744171D01*
X13738495Y-3550599D01*
X13599523Y-3411627D01*
X13567429Y-3356039D01*
X13567429Y-3291852D01*
X13599521Y-3236268D01*
X14192771Y-2643019D01*
X14233000Y-2616139D01*
X14280453Y-2606700D01*
X20822348Y-2606700D01*
X20869801Y-2616139D01*
X20910029Y-2643019D01*
X21127329Y-2860319D01*
X21157579Y-2909682D01*
X21162121Y-2967398D01*
X21139966Y-3020885D01*
X21095943Y-3058485D01*
X21039648Y-3072000D01*
X20778726Y-3072000D01*
X20765850Y-3075450D01*
X20762400Y-3088326D01*
X20762400Y-6055673D01*
X20765850Y-6068548D01*
X20778726Y-6071999D01*
X21159229Y-6071999D01*
X21165511Y-6071678D01*
X21258359Y-6062194D01*
X21271522Y-6059376D01*
X21424667Y-6008629D01*
X21437666Y-6002567D01*
X21574594Y-5918109D01*
X21585855Y-5909205D01*
X21699605Y-5795455D01*
X21708509Y-5784194D01*
X21796758Y-5641122D01*
X21797605Y-5641644D01*
X21829686Y-5601667D01*
X21883641Y-5577922D01*
X21942464Y-5581775D01*
X21992860Y-5612356D01*
X22140999Y-5760495D01*
X22145431Y-5763598D01*
X22145433Y-5763600D01*
X22334024Y-5895653D01*
X22372889Y-5939971D01*
X22386900Y-5997228D01*
X22386900Y-8427148D01*
X22377461Y-8474601D01*
X22350581Y-8514829D01*
X17911496Y-12953911D01*
X17903311Y-12961359D01*
X17896923Y-12965414D01*
X17891588Y-12971094D01*
X17891583Y-12971099D01*
X17850896Y-13014425D01*
X17848192Y-13017216D01*
X17831428Y-13033980D01*
X17831421Y-13033987D01*
X17828680Y-13036729D01*
X17826300Y-13039796D01*
X17826289Y-13039809D01*
X17826200Y-13039925D01*
X17818642Y-13048770D01*
X17794080Y-13074927D01*
X17794073Y-13074936D01*
X17788738Y-13080618D01*
X17784982Y-13087449D01*
X17784979Y-13087454D01*
X17779085Y-13098175D01*
X17768409Y-13114427D01*
X17760909Y-13124096D01*
X17760901Y-13124107D01*
X17756127Y-13130264D01*
X17753034Y-13137408D01*
X17753029Y-13137419D01*
X17738774Y-13170360D01*
X17733638Y-13180843D01*
X17712603Y-13219108D01*
X17710664Y-13226656D01*
X17710663Y-13226661D01*
X17707622Y-13238507D01*
X17701321Y-13256911D01*
X17696458Y-13268148D01*
X17696456Y-13268152D01*
X17693362Y-13275304D01*
X17692142Y-13283003D01*
X17692142Y-13283005D01*
X17686529Y-13318441D01*
X17684161Y-13329876D01*
X17675238Y-13364628D01*
X17675236Y-13364636D01*
X17673300Y-13372181D01*
X17673300Y-13379977D01*
X17673300Y-13392217D01*
X17671774Y-13411602D01*
X17668640Y-13431396D01*
X17669374Y-13439161D01*
X17669374Y-13439164D01*
X17672750Y-13474876D01*
X17673300Y-13486545D01*
X17673300Y-20113974D01*
X17659289Y-20171231D01*
X17620425Y-20215547D01*
X17567804Y-20252393D01*
X17431834Y-20347599D01*
X17431829Y-20347602D01*
X17427399Y-20350705D01*
X17423575Y-20354528D01*
X17423575Y-20354529D01*
X17279260Y-20498844D01*
X17228865Y-20529423D01*
X17170044Y-20533278D01*
X17116090Y-20509536D01*
X17084004Y-20469555D01*
X17083158Y-20470078D01*
X16994909Y-20327005D01*
X16986005Y-20315744D01*
X16872255Y-20201994D01*
X16860994Y-20193090D01*
X16724066Y-20108632D01*
X16711067Y-20102570D01*
X16557925Y-20051824D01*
X16544758Y-20049005D01*
X16451909Y-20039519D01*
X16445632Y-20039200D01*
X16065126Y-20039200D01*
X16052250Y-20042650D01*
X16048800Y-20055526D01*
X16048800Y-23022873D01*
X16052250Y-23035748D01*
X16065126Y-23039199D01*
X16445629Y-23039199D01*
X16451911Y-23038878D01*
X16544759Y-23029394D01*
X16557922Y-23026576D01*
X16711067Y-22975829D01*
X16724066Y-22969767D01*
X16860994Y-22885309D01*
X16872255Y-22876405D01*
X16986005Y-22762655D01*
X16994909Y-22751394D01*
X17083158Y-22608322D01*
X17084005Y-22608844D01*
X17116086Y-22568867D01*
X17170041Y-22545122D01*
X17228864Y-22548975D01*
X17279260Y-22579556D01*
X17427399Y-22727695D01*
X17431831Y-22730798D01*
X17431833Y-22730800D01*
X17620424Y-22862853D01*
X17659289Y-22907171D01*
X17673300Y-22964428D01*
X17673300Y-23503947D01*
X17663861Y-23551400D01*
X17636981Y-23591628D01*
X12922296Y-28306311D01*
X12914111Y-28313759D01*
X12907723Y-28317814D01*
X12902388Y-28323494D01*
X12902383Y-28323499D01*
X12861696Y-28366825D01*
X12858992Y-28369616D01*
X12842228Y-28386380D01*
X12842221Y-28386387D01*
X12839480Y-28389129D01*
X12837100Y-28392196D01*
X12837089Y-28392209D01*
X12837000Y-28392325D01*
X12829442Y-28401170D01*
X12804880Y-28427327D01*
X12804873Y-28427336D01*
X12799538Y-28433018D01*
X12795782Y-28439849D01*
X12795779Y-28439854D01*
X12789885Y-28450575D01*
X12779209Y-28466827D01*
X12771709Y-28476496D01*
X12771701Y-28476507D01*
X12766927Y-28482664D01*
X12763834Y-28489808D01*
X12763829Y-28489819D01*
X12749574Y-28522760D01*
X12744438Y-28533243D01*
X12723403Y-28571508D01*
X12721464Y-28579056D01*
X12721463Y-28579061D01*
X12718422Y-28590907D01*
X12712121Y-28609311D01*
X12707258Y-28620548D01*
X12707256Y-28620552D01*
X12704162Y-28627704D01*
X12702942Y-28635403D01*
X12702942Y-28635405D01*
X12697329Y-28670841D01*
X12694961Y-28682276D01*
X12686038Y-28717028D01*
X12686036Y-28717036D01*
X12684100Y-28724581D01*
X12684100Y-28732377D01*
X12684100Y-28744617D01*
X12682574Y-28764002D01*
X12679440Y-28783796D01*
X12680174Y-28791561D01*
X12680174Y-28791564D01*
X12683550Y-28827276D01*
X12684100Y-28838945D01*
X12684100Y-33575974D01*
X12670089Y-33633231D01*
X12631223Y-33677549D01*
X12442634Y-33809599D01*
X12442629Y-33809602D01*
X12438199Y-33812705D01*
X12434375Y-33816529D01*
X12290060Y-33960844D01*
X12239665Y-33991423D01*
X12180844Y-33995278D01*
X12126890Y-33971536D01*
X12094804Y-33931555D01*
X12093958Y-33932078D01*
X12005709Y-33789005D01*
X11996805Y-33777744D01*
X11883055Y-33663994D01*
X11871794Y-33655090D01*
X11734866Y-33570632D01*
X11721867Y-33564570D01*
X11568725Y-33513824D01*
X11555558Y-33511005D01*
X11462709Y-33501519D01*
X11456432Y-33501200D01*
X11075926Y-33501200D01*
X11063050Y-33504650D01*
X11059600Y-33517526D01*
X11059600Y-36484873D01*
X11063050Y-36497748D01*
X11075926Y-36501199D01*
X11456429Y-36501199D01*
X11462711Y-36500878D01*
X11555559Y-36491394D01*
X11568722Y-36488576D01*
X11721867Y-36437829D01*
X11734866Y-36431767D01*
X11871794Y-36347309D01*
X11883055Y-36338405D01*
X11996805Y-36224655D01*
X12005709Y-36213394D01*
X12093958Y-36070322D01*
X12094805Y-36070844D01*
X12126886Y-36030867D01*
X12180841Y-36007122D01*
X12239664Y-36010975D01*
X12290059Y-36041555D01*
X12438199Y-36189695D01*
X12442631Y-36192798D01*
X12442633Y-36192800D01*
X12488127Y-36224655D01*
X12631770Y-36325235D01*
X12636670Y-36327520D01*
X12636672Y-36327521D01*
X12645799Y-36331777D01*
X12845937Y-36425103D01*
X12851167Y-36426504D01*
X12851169Y-36426505D01*
X12886359Y-36435934D01*
X13074192Y-36486263D01*
X13309600Y-36506859D01*
X13545008Y-36486263D01*
X13773263Y-36425103D01*
X13987429Y-36325235D01*
X14181001Y-36189695D01*
X14278978Y-36091718D01*
X18570800Y-36091718D01*
X18571153Y-36098314D01*
X18576373Y-36146867D01*
X18579911Y-36161841D01*
X18624347Y-36280977D01*
X18632762Y-36296389D01*
X18708298Y-36397292D01*
X18720707Y-36409701D01*
X18821610Y-36485237D01*
X18837022Y-36493652D01*
X18956158Y-36538088D01*
X18971132Y-36541626D01*
X19019685Y-36546846D01*
X19026282Y-36547200D01*
X20104474Y-36547200D01*
X20117349Y-36543749D01*
X20120800Y-36530874D01*
X20620800Y-36530874D01*
X20624250Y-36543749D01*
X20637126Y-36547200D01*
X21715318Y-36547200D01*
X21721914Y-36546846D01*
X21770467Y-36541626D01*
X21785441Y-36538088D01*
X21904577Y-36493652D01*
X21919989Y-36485237D01*
X22020892Y-36409701D01*
X22033301Y-36397292D01*
X22108837Y-36296389D01*
X22117252Y-36280977D01*
X22161688Y-36161841D01*
X22165226Y-36146867D01*
X22170446Y-36098314D01*
X22170800Y-36091718D01*
X22170800Y-35013526D01*
X22167349Y-35000650D01*
X22154474Y-34997200D01*
X20637126Y-34997200D01*
X20624250Y-35000650D01*
X20620800Y-35013526D01*
X20620800Y-36530874D01*
X20120800Y-36530874D01*
X20120800Y-35013526D01*
X20117349Y-35000650D01*
X20104474Y-34997200D01*
X18587126Y-34997200D01*
X18574250Y-35000650D01*
X18570800Y-35013526D01*
X18570800Y-36091718D01*
X14278978Y-36091718D01*
X14348095Y-36022601D01*
X14483635Y-35829029D01*
X14583503Y-35614863D01*
X14644663Y-35386608D01*
X14660100Y-35210166D01*
X14660100Y-34792234D01*
X14656160Y-34747200D01*
X23645251Y-34747200D01*
X23665417Y-35016303D01*
X23666447Y-35020816D01*
X23666448Y-35020822D01*
X23719818Y-35254650D01*
X23725466Y-35279395D01*
X23727162Y-35283718D01*
X23727163Y-35283719D01*
X23769595Y-35391834D01*
X23824057Y-35530598D01*
X23958985Y-35764302D01*
X24127239Y-35975285D01*
X24185392Y-36029243D01*
X24312160Y-36146867D01*
X24325059Y-36158835D01*
X24548026Y-36310851D01*
X24791159Y-36427938D01*
X24795587Y-36429303D01*
X24795590Y-36429305D01*
X24863976Y-36450399D01*
X25049028Y-36507480D01*
X25315871Y-36547700D01*
X25581092Y-36547700D01*
X25585729Y-36547700D01*
X25852572Y-36507480D01*
X26110441Y-36427938D01*
X26353575Y-36310851D01*
X26576541Y-36158835D01*
X26594127Y-36142518D01*
X32032800Y-36142518D01*
X32033153Y-36149114D01*
X32038373Y-36197667D01*
X32041911Y-36212641D01*
X32086347Y-36331777D01*
X32094762Y-36347189D01*
X32170298Y-36448092D01*
X32182707Y-36460501D01*
X32283610Y-36536037D01*
X32299022Y-36544452D01*
X32418158Y-36588888D01*
X32433132Y-36592426D01*
X32481685Y-36597646D01*
X32488282Y-36598000D01*
X33566474Y-36598000D01*
X33579349Y-36594549D01*
X33582800Y-36581674D01*
X34082800Y-36581674D01*
X34086250Y-36594549D01*
X34099126Y-36598000D01*
X35177318Y-36598000D01*
X35183914Y-36597646D01*
X35232467Y-36592426D01*
X35247441Y-36588888D01*
X35366577Y-36544452D01*
X35381989Y-36536037D01*
X35482892Y-36460501D01*
X35495301Y-36448092D01*
X35570837Y-36347189D01*
X35579252Y-36331777D01*
X35623688Y-36212641D01*
X35627226Y-36197667D01*
X35632446Y-36149114D01*
X35632800Y-36142518D01*
X35632800Y-35064326D01*
X35629349Y-35051450D01*
X35616474Y-35048000D01*
X34099126Y-35048000D01*
X34086250Y-35051450D01*
X34082800Y-35064326D01*
X34082800Y-36581674D01*
X33582800Y-36581674D01*
X33582800Y-35064326D01*
X33579349Y-35051450D01*
X33566474Y-35048000D01*
X32049126Y-35048000D01*
X32036250Y-35051450D01*
X32032800Y-35064326D01*
X32032800Y-36142518D01*
X26594127Y-36142518D01*
X26774361Y-35975285D01*
X26942615Y-35764302D01*
X27077543Y-35530598D01*
X27176134Y-35279395D01*
X27236183Y-35016303D01*
X27252542Y-34798000D01*
X37107251Y-34798000D01*
X37107598Y-34802631D01*
X37122178Y-34997200D01*
X37127417Y-35067103D01*
X37128447Y-35071616D01*
X37128448Y-35071622D01*
X37186432Y-35325666D01*
X37187466Y-35330195D01*
X37286057Y-35581398D01*
X37420985Y-35815102D01*
X37589239Y-36026085D01*
X37706473Y-36134862D01*
X37774160Y-36197667D01*
X37787059Y-36209635D01*
X38010026Y-36361651D01*
X38253159Y-36478738D01*
X38257587Y-36480103D01*
X38257590Y-36480105D01*
X38382093Y-36518509D01*
X38511028Y-36558280D01*
X38777871Y-36598500D01*
X39043092Y-36598500D01*
X39047729Y-36598500D01*
X39314572Y-36558280D01*
X39572441Y-36478738D01*
X39815575Y-36361651D01*
X40038541Y-36209635D01*
X40110876Y-36142518D01*
X44682000Y-36142518D01*
X44682353Y-36149114D01*
X44687573Y-36197667D01*
X44691111Y-36212641D01*
X44735547Y-36331777D01*
X44743962Y-36347189D01*
X44819498Y-36448092D01*
X44831907Y-36460501D01*
X44932810Y-36536037D01*
X44948222Y-36544452D01*
X45067358Y-36588888D01*
X45082332Y-36592426D01*
X45130885Y-36597646D01*
X45137482Y-36598000D01*
X46215674Y-36598000D01*
X46228549Y-36594549D01*
X46232000Y-36581674D01*
X46732000Y-36581674D01*
X46735450Y-36594549D01*
X46748326Y-36598000D01*
X47826518Y-36598000D01*
X47833114Y-36597646D01*
X47881667Y-36592426D01*
X47896641Y-36588888D01*
X48015777Y-36544452D01*
X48031189Y-36536037D01*
X48132092Y-36460501D01*
X48144501Y-36448092D01*
X48220037Y-36347189D01*
X48228452Y-36331777D01*
X48272888Y-36212641D01*
X48276426Y-36197667D01*
X48281646Y-36149114D01*
X48282000Y-36142518D01*
X48282000Y-35064326D01*
X48278549Y-35051450D01*
X48265674Y-35048000D01*
X46748326Y-35048000D01*
X46735450Y-35051450D01*
X46732000Y-35064326D01*
X46732000Y-36581674D01*
X46232000Y-36581674D01*
X46232000Y-35064326D01*
X46228549Y-35051450D01*
X46215674Y-35048000D01*
X44698326Y-35048000D01*
X44685450Y-35051450D01*
X44682000Y-35064326D01*
X44682000Y-36142518D01*
X40110876Y-36142518D01*
X40236361Y-36026085D01*
X40404615Y-35815102D01*
X40539543Y-35581398D01*
X40638134Y-35330195D01*
X40698183Y-35067103D01*
X40718349Y-34798000D01*
X49756451Y-34798000D01*
X49756798Y-34802631D01*
X49771378Y-34997200D01*
X49776617Y-35067103D01*
X49777647Y-35071616D01*
X49777648Y-35071622D01*
X49835632Y-35325666D01*
X49836666Y-35330195D01*
X49935257Y-35581398D01*
X50070185Y-35815102D01*
X50238439Y-36026085D01*
X50355673Y-36134862D01*
X50423360Y-36197667D01*
X50436259Y-36209635D01*
X50659226Y-36361651D01*
X50902359Y-36478738D01*
X50906787Y-36480103D01*
X50906790Y-36480105D01*
X51031293Y-36518509D01*
X51160228Y-36558280D01*
X51427071Y-36598500D01*
X51692292Y-36598500D01*
X51696929Y-36598500D01*
X51963772Y-36558280D01*
X52221641Y-36478738D01*
X52464775Y-36361651D01*
X52687741Y-36209635D01*
X52885561Y-36026085D01*
X53053815Y-35815102D01*
X53093001Y-35747229D01*
X57273201Y-35747229D01*
X57273521Y-35753511D01*
X57283005Y-35846359D01*
X57285823Y-35859522D01*
X57336570Y-36012667D01*
X57342632Y-36025666D01*
X57427090Y-36162594D01*
X57435994Y-36173855D01*
X57549744Y-36287605D01*
X57561005Y-36296509D01*
X57697933Y-36380967D01*
X57710932Y-36387029D01*
X57864074Y-36437775D01*
X57877241Y-36440594D01*
X57970090Y-36450080D01*
X57976368Y-36450400D01*
X58356874Y-36450400D01*
X58369749Y-36446949D01*
X58373200Y-36434074D01*
X58373200Y-35216726D01*
X58369749Y-35203850D01*
X58356874Y-35200400D01*
X57289527Y-35200400D01*
X57276651Y-35203850D01*
X57273201Y-35216726D01*
X57273201Y-35747229D01*
X53093001Y-35747229D01*
X53188743Y-35581398D01*
X53287334Y-35330195D01*
X53347383Y-35067103D01*
X53367549Y-34798000D01*
X53347383Y-34528897D01*
X53287334Y-34265805D01*
X53188743Y-34014602D01*
X53053815Y-33780898D01*
X52885561Y-33569915D01*
X52786651Y-33478140D01*
X52691146Y-33389524D01*
X52691143Y-33389521D01*
X52687741Y-33386365D01*
X52683912Y-33383754D01*
X52683909Y-33383752D01*
X52543587Y-33288082D01*
X52464775Y-33234349D01*
X52459752Y-33231930D01*
X52225820Y-33119274D01*
X52225814Y-33119271D01*
X52221641Y-33117262D01*
X52217219Y-33115898D01*
X52217209Y-33115894D01*
X51968202Y-33039086D01*
X51968196Y-33039084D01*
X51963772Y-33037720D01*
X51959195Y-33037030D01*
X51959186Y-33037028D01*
X51701514Y-32998191D01*
X51701513Y-32998190D01*
X51696929Y-32997500D01*
X51427071Y-32997500D01*
X51422487Y-32998190D01*
X51422485Y-32998191D01*
X51164813Y-33037028D01*
X51164801Y-33037030D01*
X51160228Y-33037720D01*
X51155806Y-33039083D01*
X51155797Y-33039086D01*
X50906790Y-33115894D01*
X50906775Y-33115899D01*
X50902359Y-33117262D01*
X50898185Y-33119271D01*
X50898180Y-33119274D01*
X50663411Y-33232333D01*
X50663404Y-33232336D01*
X50659226Y-33234349D01*
X50655393Y-33236962D01*
X50655390Y-33236964D01*
X50440090Y-33383752D01*
X50440080Y-33383759D01*
X50436259Y-33386365D01*
X50432863Y-33389516D01*
X50432853Y-33389524D01*
X50241843Y-33566756D01*
X50241839Y-33566759D01*
X50238439Y-33569915D01*
X50235549Y-33573537D01*
X50235546Y-33573542D01*
X50087808Y-33758799D01*
X50070185Y-33780898D01*
X50067866Y-33784913D01*
X50067865Y-33784916D01*
X49937578Y-34010581D01*
X49937575Y-34010586D01*
X49935257Y-34014602D01*
X49933563Y-34018916D01*
X49933561Y-34018922D01*
X49838811Y-34260339D01*
X49836666Y-34265805D01*
X49835633Y-34270326D01*
X49835632Y-34270333D01*
X49777648Y-34524377D01*
X49777646Y-34524385D01*
X49776617Y-34528897D01*
X49776270Y-34533516D01*
X49776270Y-34533522D01*
X49760892Y-34738735D01*
X49756451Y-34798000D01*
X40718349Y-34798000D01*
X40698391Y-34531674D01*
X44682000Y-34531674D01*
X44685450Y-34544549D01*
X44698326Y-34548000D01*
X46215674Y-34548000D01*
X46228549Y-34544549D01*
X46232000Y-34531674D01*
X46732000Y-34531674D01*
X46735450Y-34544549D01*
X46748326Y-34548000D01*
X48265674Y-34548000D01*
X48278549Y-34544549D01*
X48282000Y-34531674D01*
X48282000Y-33453482D01*
X48281646Y-33446885D01*
X48276426Y-33398332D01*
X48272888Y-33383358D01*
X48228452Y-33264222D01*
X48220037Y-33248810D01*
X48144501Y-33147907D01*
X48132092Y-33135498D01*
X48031189Y-33059962D01*
X48015777Y-33051547D01*
X47896641Y-33007111D01*
X47881667Y-33003573D01*
X47833114Y-32998353D01*
X47826518Y-32998000D01*
X46748326Y-32998000D01*
X46735450Y-33001450D01*
X46732000Y-33014326D01*
X46732000Y-34531674D01*
X46232000Y-34531674D01*
X46232000Y-33014326D01*
X46228549Y-33001450D01*
X46215674Y-32998000D01*
X45137482Y-32998000D01*
X45130885Y-32998353D01*
X45082332Y-33003573D01*
X45067358Y-33007111D01*
X44948222Y-33051547D01*
X44932810Y-33059962D01*
X44831907Y-33135498D01*
X44819498Y-33147907D01*
X44743962Y-33248810D01*
X44735547Y-33264222D01*
X44691111Y-33383358D01*
X44687573Y-33398332D01*
X44682353Y-33446885D01*
X44682000Y-33453482D01*
X44682000Y-34531674D01*
X40698391Y-34531674D01*
X40698183Y-34528897D01*
X40638134Y-34265805D01*
X40539543Y-34014602D01*
X40404615Y-33780898D01*
X40236361Y-33569915D01*
X40137451Y-33478140D01*
X40041946Y-33389524D01*
X40041943Y-33389521D01*
X40038541Y-33386365D01*
X40034712Y-33383754D01*
X40034709Y-33383752D01*
X39894387Y-33288082D01*
X39815575Y-33234349D01*
X39810552Y-33231930D01*
X39576620Y-33119274D01*
X39576614Y-33119271D01*
X39572441Y-33117262D01*
X39568019Y-33115898D01*
X39568009Y-33115894D01*
X39319002Y-33039086D01*
X39318996Y-33039084D01*
X39314572Y-33037720D01*
X39309995Y-33037030D01*
X39309986Y-33037028D01*
X39052314Y-32998191D01*
X39052313Y-32998190D01*
X39047729Y-32997500D01*
X38777871Y-32997500D01*
X38773287Y-32998190D01*
X38773285Y-32998191D01*
X38515613Y-33037028D01*
X38515601Y-33037030D01*
X38511028Y-33037720D01*
X38506606Y-33039083D01*
X38506597Y-33039086D01*
X38257590Y-33115894D01*
X38257575Y-33115899D01*
X38253159Y-33117262D01*
X38248985Y-33119271D01*
X38248980Y-33119274D01*
X38014211Y-33232333D01*
X38014204Y-33232336D01*
X38010026Y-33234349D01*
X38006193Y-33236962D01*
X38006190Y-33236964D01*
X37790890Y-33383752D01*
X37790880Y-33383759D01*
X37787059Y-33386365D01*
X37783663Y-33389516D01*
X37783653Y-33389524D01*
X37592643Y-33566756D01*
X37592639Y-33566759D01*
X37589239Y-33569915D01*
X37586349Y-33573537D01*
X37586346Y-33573542D01*
X37438608Y-33758799D01*
X37420985Y-33780898D01*
X37418666Y-33784913D01*
X37418665Y-33784916D01*
X37288378Y-34010581D01*
X37288375Y-34010586D01*
X37286057Y-34014602D01*
X37284363Y-34018916D01*
X37284361Y-34018922D01*
X37189611Y-34260339D01*
X37187466Y-34265805D01*
X37186433Y-34270326D01*
X37186432Y-34270333D01*
X37128448Y-34524377D01*
X37128446Y-34524385D01*
X37127417Y-34528897D01*
X37127070Y-34533516D01*
X37127070Y-34533522D01*
X37111692Y-34738735D01*
X37107251Y-34798000D01*
X27252542Y-34798000D01*
X27256349Y-34747200D01*
X27240198Y-34531674D01*
X32032800Y-34531674D01*
X32036250Y-34544549D01*
X32049126Y-34548000D01*
X33566474Y-34548000D01*
X33579349Y-34544549D01*
X33582800Y-34531674D01*
X34082800Y-34531674D01*
X34086250Y-34544549D01*
X34099126Y-34548000D01*
X35616474Y-34548000D01*
X35629349Y-34544549D01*
X35632800Y-34531674D01*
X35632800Y-33453482D01*
X35632446Y-33446885D01*
X35627226Y-33398332D01*
X35623688Y-33383358D01*
X35579252Y-33264222D01*
X35570837Y-33248810D01*
X35495301Y-33147907D01*
X35482892Y-33135498D01*
X35381989Y-33059962D01*
X35366577Y-33051547D01*
X35247441Y-33007111D01*
X35232467Y-33003573D01*
X35183914Y-32998353D01*
X35177318Y-32998000D01*
X34099126Y-32998000D01*
X34086250Y-33001450D01*
X34082800Y-33014326D01*
X34082800Y-34531674D01*
X33582800Y-34531674D01*
X33582800Y-33014326D01*
X33579349Y-33001450D01*
X33566474Y-32998000D01*
X32488282Y-32998000D01*
X32481685Y-32998353D01*
X32433132Y-33003573D01*
X32418158Y-33007111D01*
X32299022Y-33051547D01*
X32283610Y-33059962D01*
X32182707Y-33135498D01*
X32170298Y-33147907D01*
X32094762Y-33248810D01*
X32086347Y-33264222D01*
X32041911Y-33383358D01*
X32038373Y-33398332D01*
X32033153Y-33446885D01*
X32032800Y-33453482D01*
X32032800Y-34531674D01*
X27240198Y-34531674D01*
X27236183Y-34478097D01*
X27176134Y-34215005D01*
X27077543Y-33963802D01*
X26942615Y-33730098D01*
X26774361Y-33519115D01*
X26634695Y-33389524D01*
X26579946Y-33338724D01*
X26579943Y-33338721D01*
X26576541Y-33335565D01*
X26572712Y-33332954D01*
X26572709Y-33332952D01*
X26404369Y-33218180D01*
X26353575Y-33183549D01*
X26338259Y-33176173D01*
X26114620Y-33068474D01*
X26114614Y-33068471D01*
X26110441Y-33066462D01*
X26106019Y-33065098D01*
X26106009Y-33065094D01*
X25857002Y-32988286D01*
X25856996Y-32988284D01*
X25852572Y-32986920D01*
X25847995Y-32986230D01*
X25847986Y-32986228D01*
X25590314Y-32947391D01*
X25590313Y-32947390D01*
X25585729Y-32946700D01*
X25315871Y-32946700D01*
X25311287Y-32947390D01*
X25311285Y-32947391D01*
X25053613Y-32986228D01*
X25053601Y-32986230D01*
X25049028Y-32986920D01*
X25044606Y-32988283D01*
X25044597Y-32988286D01*
X24795590Y-33065094D01*
X24795575Y-33065099D01*
X24791159Y-33066462D01*
X24786985Y-33068471D01*
X24786980Y-33068474D01*
X24552211Y-33181533D01*
X24552204Y-33181536D01*
X24548026Y-33183549D01*
X24544193Y-33186162D01*
X24544190Y-33186164D01*
X24328890Y-33332952D01*
X24328880Y-33332959D01*
X24325059Y-33335565D01*
X24321663Y-33338716D01*
X24321653Y-33338724D01*
X24130643Y-33515956D01*
X24130639Y-33515959D01*
X24127239Y-33519115D01*
X24124349Y-33522737D01*
X24124346Y-33522742D01*
X23961877Y-33726471D01*
X23958985Y-33730098D01*
X23956666Y-33734113D01*
X23956665Y-33734116D01*
X23826378Y-33959781D01*
X23826375Y-33959786D01*
X23824057Y-33963802D01*
X23822363Y-33968116D01*
X23822361Y-33968122D01*
X23727163Y-34210680D01*
X23725466Y-34215005D01*
X23724433Y-34219526D01*
X23724432Y-34219533D01*
X23666448Y-34473577D01*
X23666446Y-34473585D01*
X23665417Y-34478097D01*
X23665070Y-34482716D01*
X23665070Y-34482722D01*
X23649017Y-34696949D01*
X23645251Y-34747200D01*
X14656160Y-34747200D01*
X14644663Y-34615792D01*
X14608512Y-34480874D01*
X18570800Y-34480874D01*
X18574250Y-34493749D01*
X18587126Y-34497200D01*
X20104474Y-34497200D01*
X20117349Y-34493749D01*
X20120800Y-34480874D01*
X20620800Y-34480874D01*
X20624250Y-34493749D01*
X20637126Y-34497200D01*
X22154474Y-34497200D01*
X22167349Y-34493749D01*
X22170800Y-34480874D01*
X22170800Y-33402682D01*
X22170446Y-33396085D01*
X22165226Y-33347532D01*
X22161688Y-33332558D01*
X22117252Y-33213422D01*
X22108837Y-33198010D01*
X22033301Y-33097107D01*
X22020892Y-33084698D01*
X21919989Y-33009162D01*
X21904577Y-33000747D01*
X21785441Y-32956311D01*
X21770467Y-32952773D01*
X21721914Y-32947553D01*
X21715318Y-32947200D01*
X20637126Y-32947200D01*
X20624250Y-32950650D01*
X20620800Y-32963526D01*
X20620800Y-34480874D01*
X20120800Y-34480874D01*
X20120800Y-32963526D01*
X20117349Y-32950650D01*
X20104474Y-32947200D01*
X19026282Y-32947200D01*
X19019685Y-32947553D01*
X18971132Y-32952773D01*
X18956158Y-32956311D01*
X18837022Y-33000747D01*
X18821610Y-33009162D01*
X18720707Y-33084698D01*
X18708298Y-33097107D01*
X18632762Y-33198010D01*
X18624347Y-33213422D01*
X18579911Y-33332558D01*
X18576373Y-33347532D01*
X18571153Y-33396085D01*
X18570800Y-33402682D01*
X18570800Y-34480874D01*
X14608512Y-34480874D01*
X14583503Y-34387537D01*
X14483635Y-34173371D01*
X14348095Y-33979799D01*
X14181001Y-33812705D01*
X14176570Y-33809602D01*
X14176566Y-33809599D01*
X13987976Y-33677547D01*
X13949111Y-33633229D01*
X13935100Y-33575972D01*
X13935100Y-29114052D01*
X13944539Y-29066599D01*
X13971419Y-29026371D01*
X16322116Y-26675674D01*
X18686111Y-24311678D01*
X18694281Y-24304244D01*
X18700677Y-24300186D01*
X18746718Y-24251156D01*
X18749335Y-24248454D01*
X18768920Y-24228871D01*
X18771385Y-24225692D01*
X18778967Y-24216816D01*
X18808862Y-24184982D01*
X18818513Y-24167423D01*
X18829190Y-24151170D01*
X18841473Y-24135336D01*
X18858818Y-24095252D01*
X18863951Y-24084771D01*
X18884997Y-24046492D01*
X18889979Y-24027084D01*
X18896282Y-24008676D01*
X18904237Y-23990296D01*
X18911071Y-23947144D01*
X18913433Y-23935738D01*
X18924300Y-23893419D01*
X18924300Y-23873383D01*
X18925827Y-23853985D01*
X18927739Y-23841913D01*
X18927738Y-23841913D01*
X18928960Y-23834204D01*
X18924850Y-23790724D01*
X18924300Y-23779055D01*
X18924300Y-23350631D01*
X18938895Y-23292265D01*
X18979246Y-23247638D01*
X19035852Y-23227257D01*
X19095389Y-23235920D01*
X19137336Y-23266798D01*
X19138014Y-23266077D01*
X19187023Y-23312100D01*
X19189819Y-23314810D01*
X19209329Y-23334320D01*
X19212509Y-23336787D01*
X19221371Y-23344355D01*
X19234680Y-23356854D01*
X19247532Y-23368923D01*
X19247534Y-23368924D01*
X19253218Y-23374262D01*
X19260051Y-23378018D01*
X19260052Y-23378019D01*
X19270773Y-23383913D01*
X19287034Y-23394594D01*
X19302864Y-23406873D01*
X19342954Y-23424221D01*
X19353431Y-23429354D01*
X19391708Y-23450397D01*
X19408757Y-23454774D01*
X19411105Y-23455377D01*
X19429519Y-23461681D01*
X19447904Y-23469638D01*
X19491065Y-23476473D01*
X19502464Y-23478834D01*
X19544781Y-23489700D01*
X19564817Y-23489700D01*
X19584202Y-23491225D01*
X19603996Y-23494360D01*
X19642076Y-23490760D01*
X19647476Y-23490250D01*
X19659145Y-23489700D01*
X26435625Y-23489700D01*
X26446680Y-23490221D01*
X26454067Y-23491873D01*
X26521272Y-23489761D01*
X26525168Y-23489700D01*
X26548848Y-23489700D01*
X26552750Y-23489700D01*
X26556713Y-23489199D01*
X26568363Y-23488280D01*
X26612027Y-23486909D01*
X26631261Y-23481319D01*
X26650317Y-23477374D01*
X26650444Y-23477358D01*
X26670192Y-23474864D01*
X26710795Y-23458787D01*
X26721850Y-23455002D01*
X26763790Y-23442818D01*
X26781029Y-23432622D01*
X26798503Y-23424062D01*
X26809874Y-23419560D01*
X26809876Y-23419558D01*
X26817132Y-23416686D01*
X26852469Y-23391011D01*
X26862224Y-23384603D01*
X26899820Y-23362370D01*
X26913984Y-23348205D01*
X26928779Y-23335568D01*
X26944987Y-23323794D01*
X26972828Y-23290138D01*
X26980679Y-23281509D01*
X27264451Y-22997737D01*
X27320037Y-22965645D01*
X27384224Y-22965645D01*
X27602992Y-23024263D01*
X27838400Y-23044859D01*
X28073808Y-23024263D01*
X28292576Y-22965645D01*
X28356761Y-22965645D01*
X28412348Y-22997739D01*
X28666107Y-23251498D01*
X28673559Y-23259687D01*
X28677614Y-23266077D01*
X28705501Y-23292265D01*
X28726623Y-23312100D01*
X28729419Y-23314810D01*
X28748929Y-23334320D01*
X28752109Y-23336787D01*
X28760971Y-23344355D01*
X28774280Y-23356854D01*
X28787132Y-23368923D01*
X28787134Y-23368924D01*
X28792818Y-23374262D01*
X28799651Y-23378018D01*
X28799652Y-23378019D01*
X28810373Y-23383913D01*
X28826634Y-23394594D01*
X28842464Y-23406873D01*
X28882554Y-23424221D01*
X28893031Y-23429354D01*
X28931308Y-23450397D01*
X28948357Y-23454774D01*
X28950705Y-23455377D01*
X28969119Y-23461681D01*
X28987504Y-23469638D01*
X29030665Y-23476473D01*
X29042064Y-23478834D01*
X29084381Y-23489700D01*
X29104417Y-23489700D01*
X29123802Y-23491225D01*
X29143596Y-23494360D01*
X29181676Y-23490760D01*
X29187076Y-23490250D01*
X29198745Y-23489700D01*
X35427225Y-23489700D01*
X35438280Y-23490221D01*
X35445667Y-23491873D01*
X35512872Y-23489761D01*
X35516768Y-23489700D01*
X35540448Y-23489700D01*
X35544350Y-23489700D01*
X35548313Y-23489199D01*
X35559963Y-23488280D01*
X35603627Y-23486909D01*
X35622861Y-23481319D01*
X35641917Y-23477374D01*
X35642044Y-23477358D01*
X35661792Y-23474864D01*
X35702395Y-23458787D01*
X35713450Y-23455002D01*
X35755390Y-23442818D01*
X35772629Y-23432622D01*
X35790103Y-23424062D01*
X35801474Y-23419560D01*
X35801476Y-23419558D01*
X35808732Y-23416686D01*
X35844069Y-23391011D01*
X35853824Y-23384603D01*
X35891420Y-23362370D01*
X35905584Y-23348205D01*
X35920379Y-23335568D01*
X35936587Y-23323794D01*
X35964428Y-23290138D01*
X35972279Y-23281509D01*
X36256051Y-22997737D01*
X36311637Y-22965645D01*
X36375824Y-22965645D01*
X36594592Y-23024263D01*
X36830000Y-23044859D01*
X37065408Y-23024263D01*
X37293663Y-22963103D01*
X37507829Y-22863235D01*
X37701401Y-22727695D01*
X37868495Y-22560601D01*
X38004035Y-22367029D01*
X38018468Y-22336078D01*
X41778700Y-22336078D01*
X41778701Y-22339208D01*
X41779020Y-22342340D01*
X41779021Y-22342341D01*
X41788512Y-22435261D01*
X41788513Y-22435269D01*
X41789201Y-22441997D01*
X41791329Y-22448419D01*
X41791330Y-22448423D01*
X41840172Y-22595817D01*
X41844386Y-22608534D01*
X41848177Y-22614680D01*
X41932697Y-22751711D01*
X41932700Y-22751715D01*
X41936488Y-22757856D01*
X42060544Y-22881912D01*
X42066685Y-22885700D01*
X42066688Y-22885702D01*
X42123758Y-22920902D01*
X42209866Y-22974014D01*
X42376403Y-23029199D01*
X42479191Y-23039700D01*
X43779208Y-23039699D01*
X43881997Y-23029199D01*
X44048534Y-22974014D01*
X44197856Y-22881912D01*
X44321912Y-22757856D01*
X44414014Y-22608534D01*
X44414790Y-22609012D01*
X44447086Y-22568764D01*
X44501041Y-22545017D01*
X44559866Y-22548870D01*
X44610263Y-22579451D01*
X44754290Y-22723478D01*
X44762556Y-22730415D01*
X44947191Y-22859698D01*
X44956523Y-22865086D01*
X45160802Y-22960343D01*
X45170936Y-22964031D01*
X45365419Y-23016143D01*
X45376648Y-23016511D01*
X45379200Y-23005569D01*
X45879200Y-23005569D01*
X45881751Y-23016511D01*
X45892980Y-23016143D01*
X46087463Y-22964031D01*
X46097597Y-22960343D01*
X46301867Y-22865089D01*
X46311217Y-22859691D01*
X46495842Y-22730415D01*
X46504107Y-22723480D01*
X46663480Y-22564107D01*
X46670415Y-22555842D01*
X46799691Y-22371217D01*
X46805089Y-22361867D01*
X46900343Y-22157597D01*
X46904031Y-22147463D01*
X46962366Y-21929753D01*
X46964241Y-21919122D01*
X46974105Y-21806378D01*
X46971532Y-21792934D01*
X46958365Y-21789200D01*
X45895526Y-21789200D01*
X45882650Y-21792650D01*
X45879200Y-21805526D01*
X45879200Y-23005569D01*
X45379200Y-23005569D01*
X45379200Y-21272874D01*
X45879200Y-21272874D01*
X45882650Y-21285749D01*
X45895526Y-21289200D01*
X46958365Y-21289200D01*
X46971532Y-21285465D01*
X46974105Y-21272021D01*
X46964241Y-21159277D01*
X46962366Y-21148646D01*
X46904031Y-20930936D01*
X46900343Y-20920802D01*
X46805089Y-20716532D01*
X46799691Y-20707182D01*
X46670415Y-20522557D01*
X46663480Y-20514292D01*
X46504109Y-20354921D01*
X46495843Y-20347984D01*
X46311208Y-20218701D01*
X46301876Y-20213313D01*
X46097597Y-20118056D01*
X46087463Y-20114368D01*
X45892980Y-20062256D01*
X45881751Y-20061888D01*
X45879200Y-20072831D01*
X45879200Y-21272874D01*
X45379200Y-21272874D01*
X45379200Y-20072831D01*
X45376648Y-20061888D01*
X45365419Y-20062256D01*
X45170936Y-20114368D01*
X45160802Y-20118056D01*
X44956532Y-20213310D01*
X44947182Y-20218708D01*
X44762557Y-20347984D01*
X44754298Y-20354914D01*
X44610263Y-20498949D01*
X44559867Y-20529529D01*
X44501045Y-20533382D01*
X44447090Y-20509638D01*
X44414789Y-20469387D01*
X44414014Y-20469866D01*
X44325702Y-20326688D01*
X44325700Y-20326685D01*
X44321912Y-20320544D01*
X44197856Y-20196488D01*
X44191715Y-20192700D01*
X44191711Y-20192697D01*
X44054680Y-20108177D01*
X44048534Y-20104386D01*
X43964310Y-20076477D01*
X43888425Y-20051331D01*
X43888424Y-20051330D01*
X43881997Y-20049201D01*
X43875264Y-20048513D01*
X43875259Y-20048512D01*
X43782340Y-20039019D01*
X43782323Y-20039018D01*
X43779209Y-20038700D01*
X43776060Y-20038700D01*
X42482340Y-20038700D01*
X42482320Y-20038700D01*
X42479192Y-20038701D01*
X42476060Y-20039020D01*
X42476058Y-20039021D01*
X42383138Y-20048512D01*
X42383128Y-20048513D01*
X42376403Y-20049201D01*
X42369981Y-20051328D01*
X42369976Y-20051330D01*
X42216721Y-20102114D01*
X42216717Y-20102115D01*
X42209866Y-20104386D01*
X42203722Y-20108175D01*
X42203719Y-20108177D01*
X42066688Y-20192697D01*
X42066680Y-20192703D01*
X42060544Y-20196488D01*
X42055442Y-20201589D01*
X42055438Y-20201593D01*
X41941593Y-20315438D01*
X41941589Y-20315442D01*
X41936488Y-20320544D01*
X41932703Y-20326680D01*
X41932697Y-20326688D01*
X41848177Y-20463719D01*
X41844386Y-20469866D01*
X41842115Y-20476717D01*
X41842114Y-20476721D01*
X41791331Y-20629974D01*
X41789201Y-20636403D01*
X41788513Y-20643133D01*
X41788512Y-20643140D01*
X41779019Y-20736059D01*
X41779018Y-20736077D01*
X41778700Y-20739191D01*
X41778700Y-20742338D01*
X41778700Y-20742339D01*
X41778700Y-22336059D01*
X41778700Y-22336078D01*
X38018468Y-22336078D01*
X38103903Y-22152863D01*
X38165063Y-21924608D01*
X38180500Y-21748166D01*
X38180500Y-21330234D01*
X38165063Y-21153792D01*
X38103903Y-20925537D01*
X38004035Y-20711371D01*
X37868495Y-20517799D01*
X37701401Y-20350705D01*
X37696970Y-20347602D01*
X37696966Y-20347599D01*
X37508376Y-20215547D01*
X37469511Y-20171229D01*
X37455500Y-20113972D01*
X37455500Y-19919252D01*
X37464939Y-19871799D01*
X37491819Y-19831571D01*
X37967172Y-19356219D01*
X38007400Y-19329339D01*
X38054853Y-19319900D01*
X48221700Y-19319900D01*
X48283700Y-19336513D01*
X48329087Y-19381900D01*
X48345700Y-19443900D01*
X48345700Y-22720625D01*
X48345178Y-22731680D01*
X48343527Y-22739067D01*
X48343771Y-22746853D01*
X48343771Y-22746861D01*
X48345639Y-22806273D01*
X48345700Y-22810168D01*
X48345700Y-22837750D01*
X48346188Y-22841619D01*
X48346189Y-22841625D01*
X48346204Y-22841743D01*
X48347118Y-22853366D01*
X48348245Y-22889230D01*
X48348246Y-22889237D01*
X48348491Y-22897027D01*
X48350667Y-22904519D01*
X48350668Y-22904521D01*
X48354079Y-22916262D01*
X48358025Y-22935315D01*
X48360536Y-22955192D01*
X48363406Y-22962442D01*
X48363408Y-22962448D01*
X48376614Y-22995804D01*
X48380397Y-23006851D01*
X48392582Y-23048790D01*
X48396553Y-23055505D01*
X48396554Y-23055507D01*
X48402781Y-23066037D01*
X48411336Y-23083499D01*
X48415842Y-23094880D01*
X48415843Y-23094883D01*
X48418714Y-23102132D01*
X48440640Y-23132312D01*
X48444381Y-23137460D01*
X48450793Y-23147222D01*
X48469056Y-23178102D01*
X48469059Y-23178107D01*
X48473030Y-23184820D01*
X48478545Y-23190335D01*
X48487190Y-23198980D01*
X48499826Y-23213774D01*
X48507019Y-23223675D01*
X48507023Y-23223679D01*
X48511606Y-23229987D01*
X48517615Y-23234958D01*
X48517616Y-23234959D01*
X48545258Y-23257826D01*
X48553899Y-23265689D01*
X58526928Y-33238719D01*
X58557178Y-33288082D01*
X58561720Y-33345798D01*
X58539565Y-33399285D01*
X58495542Y-33436885D01*
X58439247Y-33450400D01*
X57976371Y-33450400D01*
X57970088Y-33450721D01*
X57877240Y-33460205D01*
X57864077Y-33463023D01*
X57710932Y-33513770D01*
X57697933Y-33519832D01*
X57561005Y-33604290D01*
X57549744Y-33613194D01*
X57435994Y-33726944D01*
X57427090Y-33738205D01*
X57342632Y-33875133D01*
X57336570Y-33888132D01*
X57285824Y-34041274D01*
X57283005Y-34054441D01*
X57273519Y-34147290D01*
X57273200Y-34153568D01*
X57273200Y-34684074D01*
X57276650Y-34696949D01*
X57289526Y-34700400D01*
X58749200Y-34700400D01*
X58811200Y-34717013D01*
X58856587Y-34762400D01*
X58873200Y-34824400D01*
X58873200Y-36434073D01*
X58876650Y-36446948D01*
X58889526Y-36450399D01*
X59270029Y-36450399D01*
X59276311Y-36450078D01*
X59369159Y-36440594D01*
X59382322Y-36437776D01*
X59535467Y-36387029D01*
X59548466Y-36380967D01*
X59685394Y-36296509D01*
X59696655Y-36287605D01*
X59810405Y-36173855D01*
X59819309Y-36162594D01*
X59907558Y-36019522D01*
X59908405Y-36020044D01*
X59940486Y-35980067D01*
X59994441Y-35956322D01*
X60053264Y-35960175D01*
X60103660Y-35990756D01*
X60251799Y-36138895D01*
X60256231Y-36141998D01*
X60256233Y-36142000D01*
X60366592Y-36219274D01*
X60445370Y-36274435D01*
X60450270Y-36276720D01*
X60450272Y-36276721D01*
X60459399Y-36280977D01*
X60659537Y-36374303D01*
X60664767Y-36375704D01*
X60664769Y-36375705D01*
X60706819Y-36386972D01*
X60887792Y-36435463D01*
X61123200Y-36456059D01*
X61358608Y-36435463D01*
X61586863Y-36374303D01*
X61801029Y-36274435D01*
X61994601Y-36138895D01*
X62161695Y-35971801D01*
X62297235Y-35778229D01*
X62311691Y-35747229D01*
X66772801Y-35747229D01*
X66773121Y-35753511D01*
X66782605Y-35846359D01*
X66785423Y-35859522D01*
X66836170Y-36012667D01*
X66842232Y-36025666D01*
X66926690Y-36162594D01*
X66935594Y-36173855D01*
X67049344Y-36287605D01*
X67060605Y-36296509D01*
X67197533Y-36380967D01*
X67210532Y-36387029D01*
X67363674Y-36437775D01*
X67376841Y-36440594D01*
X67469690Y-36450080D01*
X67475968Y-36450400D01*
X67856474Y-36450400D01*
X67869349Y-36446949D01*
X67872800Y-36434074D01*
X67872800Y-35216726D01*
X67869349Y-35203850D01*
X67856474Y-35200400D01*
X66789127Y-35200400D01*
X66776251Y-35203850D01*
X66772801Y-35216726D01*
X66772801Y-35747229D01*
X62311691Y-35747229D01*
X62397103Y-35564063D01*
X62458263Y-35335808D01*
X62473700Y-35159366D01*
X62473700Y-34741434D01*
X62458263Y-34564992D01*
X62459896Y-34564849D01*
X62463159Y-34514857D01*
X62493742Y-34464447D01*
X62670974Y-34287216D01*
X62711201Y-34260339D01*
X62758653Y-34250900D01*
X66648800Y-34250900D01*
X66710800Y-34267513D01*
X66756187Y-34312900D01*
X66772800Y-34374900D01*
X66772800Y-34684074D01*
X66776250Y-34696949D01*
X66789126Y-34700400D01*
X68248800Y-34700400D01*
X68310800Y-34717013D01*
X68356187Y-34762400D01*
X68372800Y-34824400D01*
X68372800Y-36434073D01*
X68376250Y-36446948D01*
X68389126Y-36450399D01*
X68769629Y-36450399D01*
X68775911Y-36450078D01*
X68868759Y-36440594D01*
X68881922Y-36437776D01*
X69035067Y-36387029D01*
X69048066Y-36380967D01*
X69184994Y-36296509D01*
X69196255Y-36287605D01*
X69310005Y-36173855D01*
X69318909Y-36162594D01*
X69407158Y-36019522D01*
X69408005Y-36020044D01*
X69440086Y-35980067D01*
X69494041Y-35956322D01*
X69552864Y-35960175D01*
X69603260Y-35990756D01*
X69751399Y-36138895D01*
X69755831Y-36141998D01*
X69755833Y-36142000D01*
X69866192Y-36219274D01*
X69944970Y-36274435D01*
X69949870Y-36276720D01*
X69949872Y-36276721D01*
X69958999Y-36280977D01*
X70159137Y-36374303D01*
X70164367Y-36375704D01*
X70164369Y-36375705D01*
X70206419Y-36386972D01*
X70387392Y-36435463D01*
X70622800Y-36456059D01*
X70858208Y-36435463D01*
X71086463Y-36374303D01*
X71300629Y-36274435D01*
X71494201Y-36138895D01*
X71661295Y-35971801D01*
X71796835Y-35778229D01*
X71896703Y-35564063D01*
X71957863Y-35335808D01*
X71973300Y-35159366D01*
X71973300Y-34741434D01*
X71957863Y-34564992D01*
X71896703Y-34336737D01*
X71796835Y-34122571D01*
X71661295Y-33928999D01*
X71494201Y-33761905D01*
X71489770Y-33758802D01*
X71489766Y-33758799D01*
X71305059Y-33629466D01*
X71305057Y-33629464D01*
X71300630Y-33626365D01*
X71295733Y-33624081D01*
X71295727Y-33624078D01*
X71091372Y-33528786D01*
X71091370Y-33528785D01*
X71086463Y-33526497D01*
X71081238Y-33525097D01*
X71081230Y-33525094D01*
X70863434Y-33466737D01*
X70863430Y-33466736D01*
X70858208Y-33465337D01*
X70852820Y-33464865D01*
X70852817Y-33464865D01*
X70628195Y-33445213D01*
X70622800Y-33444741D01*
X70617405Y-33445213D01*
X70392782Y-33464865D01*
X70392777Y-33464865D01*
X70387392Y-33465337D01*
X70382171Y-33466735D01*
X70382165Y-33466737D01*
X70168625Y-33523954D01*
X70104438Y-33523954D01*
X70048851Y-33491860D01*
X69795086Y-33238095D01*
X69787642Y-33229914D01*
X69783586Y-33223523D01*
X69734575Y-33177498D01*
X69731778Y-33174787D01*
X69715027Y-33158036D01*
X69712271Y-33155280D01*
X69709090Y-33152812D01*
X69700214Y-33145230D01*
X69674069Y-33120678D01*
X69674067Y-33120676D01*
X69668382Y-33115338D01*
X69661549Y-33111582D01*
X69661543Y-33111577D01*
X69650825Y-33105685D01*
X69634566Y-33095006D01*
X69624895Y-33087504D01*
X69624892Y-33087502D01*
X69618736Y-33082727D01*
X69611579Y-33079629D01*
X69611576Y-33079628D01*
X69578649Y-33065378D01*
X69568163Y-33060241D01*
X69536732Y-33042962D01*
X69536723Y-33042958D01*
X69529892Y-33039203D01*
X69522335Y-33037262D01*
X69522331Y-33037261D01*
X69510488Y-33034220D01*
X69492084Y-33027919D01*
X69480857Y-33023060D01*
X69480850Y-33023058D01*
X69473696Y-33019962D01*
X69465992Y-33018741D01*
X69465990Y-33018741D01*
X69430559Y-33013129D01*
X69419124Y-33010761D01*
X69384371Y-33001838D01*
X69384363Y-33001837D01*
X69376819Y-32999900D01*
X69369023Y-32999900D01*
X69356783Y-32999900D01*
X69337397Y-32998374D01*
X69317604Y-32995240D01*
X69309838Y-32995974D01*
X69309835Y-32995974D01*
X69274124Y-32999350D01*
X69262455Y-32999900D01*
X62525975Y-32999900D01*
X62514919Y-32999378D01*
X62507533Y-32997727D01*
X62499745Y-32997971D01*
X62499738Y-32997971D01*
X62440327Y-32999839D01*
X62436432Y-32999900D01*
X62408850Y-32999900D01*
X62405005Y-33000385D01*
X62404980Y-33000387D01*
X62404853Y-33000404D01*
X62393234Y-33001318D01*
X62357372Y-33002445D01*
X62357365Y-33002446D01*
X62349573Y-33002691D01*
X62342088Y-33004865D01*
X62342072Y-33004868D01*
X62330326Y-33008281D01*
X62311283Y-33012225D01*
X62299149Y-33013758D01*
X62299148Y-33013758D01*
X62291408Y-33014736D01*
X62284158Y-33017605D01*
X62284151Y-33017608D01*
X62250798Y-33030813D01*
X62239754Y-33034594D01*
X62205301Y-33044604D01*
X62205290Y-33044608D01*
X62197810Y-33046782D01*
X62191098Y-33050751D01*
X62191096Y-33050752D01*
X62180564Y-33056980D01*
X62163104Y-33065534D01*
X62151719Y-33070042D01*
X62151713Y-33070044D01*
X62144468Y-33072914D01*
X62138163Y-33077494D01*
X62138155Y-33077499D01*
X62109132Y-33098585D01*
X62099374Y-33104995D01*
X62068496Y-33123257D01*
X62068490Y-33123261D01*
X62061780Y-33127230D01*
X62056267Y-33132741D01*
X62056260Y-33132748D01*
X62047610Y-33141398D01*
X62032827Y-33154024D01*
X62022926Y-33161217D01*
X62022916Y-33161226D01*
X62016613Y-33165806D01*
X62011644Y-33171811D01*
X62011641Y-33171815D01*
X61988772Y-33199459D01*
X61980911Y-33208097D01*
X61697147Y-33491860D01*
X61641560Y-33523954D01*
X61577373Y-33523954D01*
X61363834Y-33466737D01*
X61363830Y-33466736D01*
X61358608Y-33465337D01*
X61353220Y-33464865D01*
X61353217Y-33464865D01*
X61128595Y-33445213D01*
X61123200Y-33444741D01*
X61117805Y-33445213D01*
X60893182Y-33464865D01*
X60893177Y-33464865D01*
X60887792Y-33465337D01*
X60882571Y-33466735D01*
X60882565Y-33466737D01*
X60669025Y-33523954D01*
X60604838Y-33523954D01*
X60549251Y-33491860D01*
X53293909Y-26236518D01*
X73180800Y-26236518D01*
X73181153Y-26243114D01*
X73186373Y-26291667D01*
X73189911Y-26306641D01*
X73234347Y-26425777D01*
X73242762Y-26441189D01*
X73318298Y-26542092D01*
X73330707Y-26554501D01*
X73431610Y-26630037D01*
X73447022Y-26638452D01*
X73566158Y-26682888D01*
X73581132Y-26686426D01*
X73629685Y-26691646D01*
X73636282Y-26692000D01*
X74714474Y-26692000D01*
X74727349Y-26688549D01*
X74730800Y-26675674D01*
X75230800Y-26675674D01*
X75234250Y-26688549D01*
X75247126Y-26692000D01*
X76325318Y-26692000D01*
X76331914Y-26691646D01*
X76380467Y-26686426D01*
X76395441Y-26682888D01*
X76514577Y-26638452D01*
X76529989Y-26630037D01*
X76630892Y-26554501D01*
X76643301Y-26542092D01*
X76718837Y-26441189D01*
X76727252Y-26425777D01*
X76771688Y-26306641D01*
X76775226Y-26291667D01*
X76780446Y-26243114D01*
X76780800Y-26236518D01*
X76780800Y-25158326D01*
X76777349Y-25145450D01*
X76764474Y-25142000D01*
X75247126Y-25142000D01*
X75234250Y-25145450D01*
X75230800Y-25158326D01*
X75230800Y-26675674D01*
X74730800Y-26675674D01*
X74730800Y-25158326D01*
X74727349Y-25145450D01*
X74714474Y-25142000D01*
X73197126Y-25142000D01*
X73184250Y-25145450D01*
X73180800Y-25158326D01*
X73180800Y-26236518D01*
X53293909Y-26236518D01*
X51683065Y-24625674D01*
X73180800Y-24625674D01*
X73184250Y-24638549D01*
X73197126Y-24642000D01*
X74714474Y-24642000D01*
X74727349Y-24638549D01*
X74730800Y-24625674D01*
X75230800Y-24625674D01*
X75234250Y-24638549D01*
X75247126Y-24642000D01*
X76764474Y-24642000D01*
X76777349Y-24638549D01*
X76780800Y-24625674D01*
X76780800Y-23547482D01*
X76780446Y-23540885D01*
X76775226Y-23492332D01*
X76771688Y-23477358D01*
X76727252Y-23358222D01*
X76718837Y-23342810D01*
X76643301Y-23241907D01*
X76630892Y-23229498D01*
X76529989Y-23153962D01*
X76514577Y-23145547D01*
X76395441Y-23101111D01*
X76380467Y-23097573D01*
X76331914Y-23092353D01*
X76325318Y-23092000D01*
X75247126Y-23092000D01*
X75234250Y-23095450D01*
X75230800Y-23108326D01*
X75230800Y-24625674D01*
X74730800Y-24625674D01*
X74730800Y-23108326D01*
X74727349Y-23095450D01*
X74714474Y-23092000D01*
X73636282Y-23092000D01*
X73629685Y-23092353D01*
X73581132Y-23097573D01*
X73566158Y-23101111D01*
X73447022Y-23145547D01*
X73431610Y-23153962D01*
X73330707Y-23229498D01*
X73318298Y-23241907D01*
X73242762Y-23342810D01*
X73234347Y-23358222D01*
X73189911Y-23477358D01*
X73186373Y-23492332D01*
X73181153Y-23540885D01*
X73180800Y-23547482D01*
X73180800Y-24625674D01*
X51683065Y-24625674D01*
X49633019Y-22575628D01*
X49606139Y-22535400D01*
X49596700Y-22487947D01*
X49596700Y-22336078D01*
X50617900Y-22336078D01*
X50617901Y-22339208D01*
X50618220Y-22342340D01*
X50618221Y-22342341D01*
X50627712Y-22435261D01*
X50627713Y-22435269D01*
X50628401Y-22441997D01*
X50630529Y-22448419D01*
X50630530Y-22448423D01*
X50679372Y-22595817D01*
X50683586Y-22608534D01*
X50687377Y-22614680D01*
X50771897Y-22751711D01*
X50771900Y-22751715D01*
X50775688Y-22757856D01*
X50899744Y-22881912D01*
X50905885Y-22885700D01*
X50905888Y-22885702D01*
X50962958Y-22920902D01*
X51049066Y-22974014D01*
X51215603Y-23029199D01*
X51318391Y-23039700D01*
X52618408Y-23039699D01*
X52721197Y-23029199D01*
X52887734Y-22974014D01*
X53037056Y-22881912D01*
X53161112Y-22757856D01*
X53253214Y-22608534D01*
X53253990Y-22609012D01*
X53286286Y-22568764D01*
X53340241Y-22545017D01*
X53399066Y-22548870D01*
X53449463Y-22579451D01*
X53593490Y-22723478D01*
X53601756Y-22730415D01*
X53786391Y-22859698D01*
X53795723Y-22865086D01*
X54000002Y-22960343D01*
X54010136Y-22964031D01*
X54204619Y-23016143D01*
X54215848Y-23016511D01*
X54218400Y-23005569D01*
X54718400Y-23005569D01*
X54720951Y-23016511D01*
X54732180Y-23016143D01*
X54926663Y-22964031D01*
X54936797Y-22960343D01*
X55141067Y-22865089D01*
X55150417Y-22859691D01*
X55335042Y-22730415D01*
X55343307Y-22723480D01*
X55502680Y-22564107D01*
X55509615Y-22555842D01*
X55627925Y-22386878D01*
X59507900Y-22386878D01*
X59507901Y-22390008D01*
X59508220Y-22393140D01*
X59508221Y-22393141D01*
X59517712Y-22486061D01*
X59517713Y-22486069D01*
X59518401Y-22492797D01*
X59520529Y-22499219D01*
X59520530Y-22499223D01*
X59562237Y-22625086D01*
X59573586Y-22659334D01*
X59577377Y-22665480D01*
X59661897Y-22802511D01*
X59661900Y-22802515D01*
X59665688Y-22808656D01*
X59789744Y-22932712D01*
X59795885Y-22936500D01*
X59795888Y-22936502D01*
X59826190Y-22955192D01*
X59939066Y-23024814D01*
X60105603Y-23079999D01*
X60208391Y-23090500D01*
X61508408Y-23090499D01*
X61611197Y-23079999D01*
X61777734Y-23024814D01*
X61927056Y-22932712D01*
X62051112Y-22808656D01*
X62143214Y-22659334D01*
X62143990Y-22659812D01*
X62176286Y-22619564D01*
X62230241Y-22595817D01*
X62289066Y-22599670D01*
X62339463Y-22630251D01*
X62483490Y-22774278D01*
X62491756Y-22781215D01*
X62676391Y-22910498D01*
X62685723Y-22915886D01*
X62890002Y-23011143D01*
X62900136Y-23014831D01*
X63094619Y-23066943D01*
X63105848Y-23067311D01*
X63108400Y-23056369D01*
X63608400Y-23056369D01*
X63610951Y-23067311D01*
X63622180Y-23066943D01*
X63816663Y-23014831D01*
X63826797Y-23011143D01*
X64031067Y-22915889D01*
X64040417Y-22910491D01*
X64225042Y-22781215D01*
X64233307Y-22774280D01*
X64392680Y-22614907D01*
X64399615Y-22606642D01*
X64528891Y-22422017D01*
X64534289Y-22412667D01*
X64629543Y-22208397D01*
X64633231Y-22198263D01*
X64691566Y-21980553D01*
X64693441Y-21969922D01*
X64703305Y-21857178D01*
X64700732Y-21843734D01*
X64687565Y-21840000D01*
X63624726Y-21840000D01*
X63611850Y-21843450D01*
X63608400Y-21856326D01*
X63608400Y-23056369D01*
X63108400Y-23056369D01*
X63108400Y-21323674D01*
X63608400Y-21323674D01*
X63611850Y-21336549D01*
X63624726Y-21340000D01*
X64687565Y-21340000D01*
X64700732Y-21336265D01*
X64703305Y-21322821D01*
X64693441Y-21210077D01*
X64691566Y-21199446D01*
X64633231Y-20981736D01*
X64629543Y-20971602D01*
X64534289Y-20767332D01*
X64528891Y-20757982D01*
X64399615Y-20573357D01*
X64392680Y-20565092D01*
X64233309Y-20405721D01*
X64225043Y-20398784D01*
X64040408Y-20269501D01*
X64031076Y-20264113D01*
X63826797Y-20168856D01*
X63816663Y-20165168D01*
X63622180Y-20113056D01*
X63610951Y-20112688D01*
X63608400Y-20123631D01*
X63608400Y-21323674D01*
X63108400Y-21323674D01*
X63108400Y-20123631D01*
X63105848Y-20112688D01*
X63094619Y-20113056D01*
X62900136Y-20165168D01*
X62890002Y-20168856D01*
X62685732Y-20264110D01*
X62676382Y-20269508D01*
X62491757Y-20398784D01*
X62483498Y-20405714D01*
X62339463Y-20549749D01*
X62289067Y-20580329D01*
X62230245Y-20584182D01*
X62176290Y-20560438D01*
X62143989Y-20520187D01*
X62143214Y-20520666D01*
X62054902Y-20377488D01*
X62054900Y-20377485D01*
X62051112Y-20371344D01*
X61927056Y-20247288D01*
X61920915Y-20243500D01*
X61920911Y-20243497D01*
X61783880Y-20158977D01*
X61777734Y-20155186D01*
X61682507Y-20123631D01*
X61617625Y-20102131D01*
X61617624Y-20102130D01*
X61611197Y-20100001D01*
X61604464Y-20099313D01*
X61604459Y-20099312D01*
X61511540Y-20089819D01*
X61511523Y-20089818D01*
X61508409Y-20089500D01*
X61505260Y-20089500D01*
X60211540Y-20089500D01*
X60211520Y-20089500D01*
X60208392Y-20089501D01*
X60205260Y-20089820D01*
X60205258Y-20089821D01*
X60112338Y-20099312D01*
X60112328Y-20099313D01*
X60105603Y-20100001D01*
X60099181Y-20102128D01*
X60099176Y-20102130D01*
X59945921Y-20152914D01*
X59945917Y-20152915D01*
X59939066Y-20155186D01*
X59932922Y-20158975D01*
X59932919Y-20158977D01*
X59795888Y-20243497D01*
X59795880Y-20243503D01*
X59789744Y-20247288D01*
X59784642Y-20252389D01*
X59784638Y-20252393D01*
X59670793Y-20366238D01*
X59670789Y-20366242D01*
X59665688Y-20371344D01*
X59661903Y-20377480D01*
X59661897Y-20377488D01*
X59577517Y-20514292D01*
X59573586Y-20520666D01*
X59571315Y-20527517D01*
X59571314Y-20527521D01*
X59531220Y-20648518D01*
X59518401Y-20687203D01*
X59517713Y-20693933D01*
X59517712Y-20693940D01*
X59508219Y-20786859D01*
X59508218Y-20786877D01*
X59507900Y-20789991D01*
X59507900Y-20793138D01*
X59507900Y-20793139D01*
X59507900Y-22386859D01*
X59507900Y-22386878D01*
X55627925Y-22386878D01*
X55638891Y-22371217D01*
X55644289Y-22361867D01*
X55739543Y-22157597D01*
X55743231Y-22147463D01*
X55801566Y-21929753D01*
X55803441Y-21919122D01*
X55813305Y-21806378D01*
X55810732Y-21792934D01*
X55797565Y-21789200D01*
X54734726Y-21789200D01*
X54721850Y-21792650D01*
X54718400Y-21805526D01*
X54718400Y-23005569D01*
X54218400Y-23005569D01*
X54218400Y-21272874D01*
X54718400Y-21272874D01*
X54721850Y-21285749D01*
X54734726Y-21289200D01*
X55797565Y-21289200D01*
X55810732Y-21285465D01*
X55813305Y-21272021D01*
X55803441Y-21159277D01*
X55801566Y-21148646D01*
X55743231Y-20930936D01*
X55739543Y-20920802D01*
X55644289Y-20716532D01*
X55638891Y-20707182D01*
X55509615Y-20522557D01*
X55502680Y-20514292D01*
X55343309Y-20354921D01*
X55335043Y-20347984D01*
X55150408Y-20218701D01*
X55141076Y-20213313D01*
X54936797Y-20118056D01*
X54926663Y-20114368D01*
X54732180Y-20062256D01*
X54720951Y-20061888D01*
X54718400Y-20072831D01*
X54718400Y-21272874D01*
X54218400Y-21272874D01*
X54218400Y-20072831D01*
X54215848Y-20061888D01*
X54204619Y-20062256D01*
X54010136Y-20114368D01*
X54000002Y-20118056D01*
X53795732Y-20213310D01*
X53786382Y-20218708D01*
X53601757Y-20347984D01*
X53593498Y-20354914D01*
X53449463Y-20498949D01*
X53399067Y-20529529D01*
X53340245Y-20533382D01*
X53286290Y-20509638D01*
X53253989Y-20469387D01*
X53253214Y-20469866D01*
X53164902Y-20326688D01*
X53164900Y-20326685D01*
X53161112Y-20320544D01*
X53037056Y-20196488D01*
X53030915Y-20192700D01*
X53030911Y-20192697D01*
X52893880Y-20108177D01*
X52887734Y-20104386D01*
X52803510Y-20076477D01*
X52727625Y-20051331D01*
X52727624Y-20051330D01*
X52721197Y-20049201D01*
X52714464Y-20048513D01*
X52714459Y-20048512D01*
X52621540Y-20039019D01*
X52621523Y-20039018D01*
X52618409Y-20038700D01*
X52615260Y-20038700D01*
X51321540Y-20038700D01*
X51321520Y-20038700D01*
X51318392Y-20038701D01*
X51315260Y-20039020D01*
X51315258Y-20039021D01*
X51222338Y-20048512D01*
X51222328Y-20048513D01*
X51215603Y-20049201D01*
X51209181Y-20051328D01*
X51209176Y-20051330D01*
X51055921Y-20102114D01*
X51055917Y-20102115D01*
X51049066Y-20104386D01*
X51042922Y-20108175D01*
X51042919Y-20108177D01*
X50905888Y-20192697D01*
X50905880Y-20192703D01*
X50899744Y-20196488D01*
X50894642Y-20201589D01*
X50894638Y-20201593D01*
X50780793Y-20315438D01*
X50780789Y-20315442D01*
X50775688Y-20320544D01*
X50771903Y-20326680D01*
X50771897Y-20326688D01*
X50687377Y-20463719D01*
X50683586Y-20469866D01*
X50681315Y-20476717D01*
X50681314Y-20476721D01*
X50630531Y-20629974D01*
X50628401Y-20636403D01*
X50627713Y-20643133D01*
X50627712Y-20643140D01*
X50618219Y-20736059D01*
X50618218Y-20736077D01*
X50617900Y-20739191D01*
X50617900Y-20742338D01*
X50617900Y-20742339D01*
X50617900Y-22336059D01*
X50617900Y-22336078D01*
X49596700Y-22336078D01*
X49596700Y-19812000D01*
X73175251Y-19812000D01*
X73175598Y-19816631D01*
X73194004Y-20062256D01*
X73195417Y-20081103D01*
X73196447Y-20085616D01*
X73196448Y-20085622D01*
X73238419Y-20269508D01*
X73255466Y-20344195D01*
X73257162Y-20348518D01*
X73257163Y-20348519D01*
X73324726Y-20520666D01*
X73354057Y-20595398D01*
X73488985Y-20829102D01*
X73657239Y-21040085D01*
X73660643Y-21043243D01*
X73785697Y-21159277D01*
X73855059Y-21223635D01*
X74078026Y-21375651D01*
X74321159Y-21492738D01*
X74325587Y-21494103D01*
X74325590Y-21494105D01*
X74450093Y-21532508D01*
X74579028Y-21572280D01*
X74845871Y-21612500D01*
X75111092Y-21612500D01*
X75115729Y-21612500D01*
X75382572Y-21572280D01*
X75640441Y-21492738D01*
X75883575Y-21375651D01*
X76106541Y-21223635D01*
X76304361Y-21040085D01*
X76472615Y-20829102D01*
X76607543Y-20595398D01*
X76706134Y-20344195D01*
X76766183Y-20081103D01*
X76786349Y-19812000D01*
X76766183Y-19542897D01*
X76706134Y-19279805D01*
X76607543Y-19028602D01*
X76472615Y-18794898D01*
X76304361Y-18583915D01*
X76106541Y-18400365D01*
X76102712Y-18397754D01*
X76102709Y-18397752D01*
X75925740Y-18277097D01*
X75883575Y-18248349D01*
X75879389Y-18246333D01*
X75644620Y-18133274D01*
X75644614Y-18133271D01*
X75640441Y-18131262D01*
X75636019Y-18129898D01*
X75636009Y-18129894D01*
X75387002Y-18053086D01*
X75386996Y-18053084D01*
X75382572Y-18051720D01*
X75377995Y-18051030D01*
X75377986Y-18051028D01*
X75120314Y-18012191D01*
X75120313Y-18012190D01*
X75115729Y-18011500D01*
X74845871Y-18011500D01*
X74841287Y-18012190D01*
X74841285Y-18012191D01*
X74583613Y-18051028D01*
X74583601Y-18051030D01*
X74579028Y-18051720D01*
X74574606Y-18053083D01*
X74574597Y-18053086D01*
X74325590Y-18129894D01*
X74325575Y-18129899D01*
X74321159Y-18131262D01*
X74316985Y-18133271D01*
X74316980Y-18133274D01*
X74082211Y-18246333D01*
X74082204Y-18246336D01*
X74078026Y-18248349D01*
X74074193Y-18250962D01*
X74074190Y-18250964D01*
X73858890Y-18397752D01*
X73858880Y-18397759D01*
X73855059Y-18400365D01*
X73851663Y-18403516D01*
X73851653Y-18403524D01*
X73660643Y-18580756D01*
X73660639Y-18580759D01*
X73657239Y-18583915D01*
X73654349Y-18587537D01*
X73654346Y-18587542D01*
X73491877Y-18791271D01*
X73488985Y-18794898D01*
X73486666Y-18798913D01*
X73486665Y-18798916D01*
X73356378Y-19024581D01*
X73356375Y-19024586D01*
X73354057Y-19028602D01*
X73352363Y-19032916D01*
X73352361Y-19032922D01*
X73257163Y-19275480D01*
X73255466Y-19279805D01*
X73254433Y-19284326D01*
X73254432Y-19284333D01*
X73196448Y-19538377D01*
X73196446Y-19538385D01*
X73195417Y-19542897D01*
X73195070Y-19547516D01*
X73195070Y-19547522D01*
X73175598Y-19807369D01*
X73175251Y-19812000D01*
X49596700Y-19812000D01*
X49596700Y-19443900D01*
X49613313Y-19381900D01*
X49658700Y-19336513D01*
X49720700Y-19319900D01*
X50163425Y-19319900D01*
X50174480Y-19320421D01*
X50181867Y-19322073D01*
X50249072Y-19319961D01*
X50252968Y-19319900D01*
X50276648Y-19319900D01*
X50280550Y-19319900D01*
X50284513Y-19319399D01*
X50296163Y-19318480D01*
X50339827Y-19317109D01*
X50359061Y-19311519D01*
X50378117Y-19307574D01*
X50397992Y-19305064D01*
X50438595Y-19288987D01*
X50449650Y-19285202D01*
X50480191Y-19276329D01*
X50484100Y-19275194D01*
X50484100Y-19275193D01*
X50491590Y-19273018D01*
X50508829Y-19262822D01*
X50526303Y-19254262D01*
X50537674Y-19249760D01*
X50537676Y-19249758D01*
X50544932Y-19246886D01*
X50580269Y-19221211D01*
X50590024Y-19214803D01*
X50627620Y-19192570D01*
X50641784Y-19178405D01*
X50656579Y-19165768D01*
X50672787Y-19153994D01*
X50700628Y-19120338D01*
X50708479Y-19111709D01*
X53828911Y-15991278D01*
X53837081Y-15983844D01*
X53843477Y-15979786D01*
X53889518Y-15930756D01*
X53892135Y-15928054D01*
X53911720Y-15908471D01*
X53914185Y-15905292D01*
X53921767Y-15896416D01*
X53951662Y-15864582D01*
X53961313Y-15847023D01*
X53971990Y-15830770D01*
X53984273Y-15814936D01*
X54001618Y-15774852D01*
X54006751Y-15764371D01*
X54027797Y-15726092D01*
X54032779Y-15706684D01*
X54039082Y-15688276D01*
X54047037Y-15669896D01*
X54053871Y-15626744D01*
X54056233Y-15615338D01*
X54067100Y-15573019D01*
X54067100Y-15552983D01*
X54068627Y-15533585D01*
X54070539Y-15521513D01*
X54070538Y-15521513D01*
X54071760Y-15513804D01*
X54067650Y-15470324D01*
X54067100Y-15458655D01*
X54067100Y-7007494D01*
X54086106Y-6941522D01*
X54137298Y-6895774D01*
X54164878Y-6882492D01*
X54344375Y-6796051D01*
X54567341Y-6644035D01*
X54639676Y-6576918D01*
X56721600Y-6576918D01*
X56721953Y-6583514D01*
X56727173Y-6632067D01*
X56730711Y-6647041D01*
X56775147Y-6766177D01*
X56783562Y-6781589D01*
X56859098Y-6882492D01*
X56871507Y-6894901D01*
X56972410Y-6970437D01*
X56987822Y-6978852D01*
X57106958Y-7023288D01*
X57121932Y-7026826D01*
X57170485Y-7032046D01*
X57177082Y-7032400D01*
X58255274Y-7032400D01*
X58268149Y-7028949D01*
X58271600Y-7016074D01*
X58771600Y-7016074D01*
X58775050Y-7028949D01*
X58787926Y-7032400D01*
X59866118Y-7032400D01*
X59872714Y-7032046D01*
X59921267Y-7026826D01*
X59936241Y-7023288D01*
X60055377Y-6978852D01*
X60070789Y-6970437D01*
X60171692Y-6894901D01*
X60184101Y-6882492D01*
X60259637Y-6781589D01*
X60268052Y-6766177D01*
X60312488Y-6647041D01*
X60316026Y-6632067D01*
X60321246Y-6583514D01*
X60321600Y-6576918D01*
X60321600Y-5498726D01*
X60318149Y-5485850D01*
X60305274Y-5482400D01*
X58787926Y-5482400D01*
X58775050Y-5485850D01*
X58771600Y-5498726D01*
X58771600Y-7016074D01*
X58271600Y-7016074D01*
X58271600Y-5498726D01*
X58268149Y-5485850D01*
X58255274Y-5482400D01*
X56737926Y-5482400D01*
X56725050Y-5485850D01*
X56721600Y-5498726D01*
X56721600Y-6576918D01*
X54639676Y-6576918D01*
X54765161Y-6460485D01*
X54933415Y-6249502D01*
X55068343Y-6015798D01*
X55166934Y-5764595D01*
X55226983Y-5501503D01*
X55247149Y-5232400D01*
X55234532Y-5064029D01*
X65553601Y-5064029D01*
X65553921Y-5070311D01*
X65563405Y-5163159D01*
X65566223Y-5176322D01*
X65616970Y-5329467D01*
X65623032Y-5342466D01*
X65707490Y-5479394D01*
X65716394Y-5490655D01*
X65830144Y-5604405D01*
X65841405Y-5613309D01*
X65978333Y-5697767D01*
X65991332Y-5703829D01*
X66144474Y-5754575D01*
X66157641Y-5757394D01*
X66250490Y-5766880D01*
X66256768Y-5767200D01*
X66637274Y-5767200D01*
X66650149Y-5763749D01*
X66653600Y-5750874D01*
X66653600Y-4533526D01*
X66650149Y-4520650D01*
X66637274Y-4517200D01*
X65569927Y-4517200D01*
X65557051Y-4520650D01*
X65553601Y-4533526D01*
X65553601Y-5064029D01*
X55234532Y-5064029D01*
X55227191Y-4966074D01*
X56721600Y-4966074D01*
X56725050Y-4978949D01*
X56737926Y-4982400D01*
X58255274Y-4982400D01*
X58268149Y-4978949D01*
X58271600Y-4966074D01*
X58771600Y-4966074D01*
X58775050Y-4978949D01*
X58787926Y-4982400D01*
X60305274Y-4982400D01*
X60318149Y-4978949D01*
X60321600Y-4966074D01*
X60321600Y-4000874D01*
X65553600Y-4000874D01*
X65557050Y-4013749D01*
X65569926Y-4017200D01*
X66637274Y-4017200D01*
X66650149Y-4013749D01*
X66653600Y-4000874D01*
X66653600Y-2783527D01*
X66650149Y-2770651D01*
X66637274Y-2767201D01*
X66256771Y-2767201D01*
X66250488Y-2767521D01*
X66157640Y-2777005D01*
X66144477Y-2779823D01*
X65991332Y-2830570D01*
X65978333Y-2836632D01*
X65841405Y-2921090D01*
X65830144Y-2929994D01*
X65716394Y-3043744D01*
X65707490Y-3055005D01*
X65623032Y-3191933D01*
X65616970Y-3204932D01*
X65566224Y-3358074D01*
X65563405Y-3371241D01*
X65553919Y-3464090D01*
X65553600Y-3470368D01*
X65553600Y-4000874D01*
X60321600Y-4000874D01*
X60321600Y-3887882D01*
X60321246Y-3881285D01*
X60316026Y-3832732D01*
X60312488Y-3817758D01*
X60268052Y-3698622D01*
X60259637Y-3683210D01*
X60184101Y-3582307D01*
X60171692Y-3569898D01*
X60070789Y-3494362D01*
X60055377Y-3485947D01*
X59936241Y-3441511D01*
X59921267Y-3437973D01*
X59872714Y-3432753D01*
X59866118Y-3432400D01*
X58787926Y-3432400D01*
X58775050Y-3435850D01*
X58771600Y-3448726D01*
X58771600Y-4966074D01*
X58271600Y-4966074D01*
X58271600Y-3448726D01*
X58268149Y-3435850D01*
X58255274Y-3432400D01*
X57177082Y-3432400D01*
X57170485Y-3432753D01*
X57121932Y-3437973D01*
X57106958Y-3441511D01*
X56987822Y-3485947D01*
X56972410Y-3494362D01*
X56871507Y-3569898D01*
X56859098Y-3582307D01*
X56783562Y-3683210D01*
X56775147Y-3698622D01*
X56730711Y-3817758D01*
X56727173Y-3832732D01*
X56721953Y-3881285D01*
X56721600Y-3887882D01*
X56721600Y-4966074D01*
X55227191Y-4966074D01*
X55226983Y-4963297D01*
X55166934Y-4700205D01*
X55068343Y-4449002D01*
X54933415Y-4215298D01*
X54765161Y-4004315D01*
X54627479Y-3876565D01*
X54570746Y-3823924D01*
X54570743Y-3823921D01*
X54567341Y-3820765D01*
X54563512Y-3818154D01*
X54563509Y-3818152D01*
X54423911Y-3722976D01*
X54344375Y-3668749D01*
X54332175Y-3662874D01*
X54137298Y-3569026D01*
X54086106Y-3523278D01*
X54067100Y-3457306D01*
X54067100Y-2952052D01*
X54076539Y-2904599D01*
X54103419Y-2864371D01*
X54934372Y-2033419D01*
X54974600Y-2006539D01*
X55022053Y-1997100D01*
X67355148Y-1997100D01*
X67402601Y-2006539D01*
X67442829Y-2033419D01*
X68422474Y-3013065D01*
X68454568Y-3068652D01*
X68454568Y-3132839D01*
X68422475Y-3188426D01*
X68384061Y-3226841D01*
X68333669Y-3257421D01*
X68274849Y-3261278D01*
X68220895Y-3237539D01*
X68188803Y-3197556D01*
X68187958Y-3198078D01*
X68099709Y-3055005D01*
X68090805Y-3043744D01*
X67977055Y-2929994D01*
X67965794Y-2921090D01*
X67828866Y-2836632D01*
X67815867Y-2830570D01*
X67662725Y-2779824D01*
X67649558Y-2777005D01*
X67556709Y-2767519D01*
X67550432Y-2767200D01*
X67169926Y-2767200D01*
X67157050Y-2770650D01*
X67153600Y-2783526D01*
X67153600Y-5750873D01*
X67157050Y-5763748D01*
X67169926Y-5767199D01*
X67550429Y-5767199D01*
X67556711Y-5766878D01*
X67649559Y-5757394D01*
X67662722Y-5754576D01*
X67815867Y-5703829D01*
X67828866Y-5697767D01*
X67965794Y-5613309D01*
X67977055Y-5604405D01*
X68090805Y-5490655D01*
X68099709Y-5479394D01*
X68187958Y-5336322D01*
X68188805Y-5336844D01*
X68220886Y-5296867D01*
X68274841Y-5273122D01*
X68333664Y-5276975D01*
X68384060Y-5307556D01*
X68532199Y-5455695D01*
X68536631Y-5458798D01*
X68536633Y-5458800D01*
X68604073Y-5506022D01*
X68725770Y-5591235D01*
X68730670Y-5593520D01*
X68730672Y-5593521D01*
X68738626Y-5597230D01*
X68939937Y-5691103D01*
X68945167Y-5692504D01*
X68945169Y-5692505D01*
X68987219Y-5703772D01*
X69168192Y-5752263D01*
X69403600Y-5772859D01*
X69639008Y-5752263D01*
X69867263Y-5691103D01*
X70081429Y-5591235D01*
X70275001Y-5455695D01*
X70442095Y-5288601D01*
X70577635Y-5095029D01*
X70677503Y-4880863D01*
X70738663Y-4652608D01*
X70754100Y-4476166D01*
X70754100Y-4058234D01*
X70738663Y-3881792D01*
X70677503Y-3653537D01*
X70577635Y-3439371D01*
X70442095Y-3245799D01*
X70275001Y-3078705D01*
X70270570Y-3075602D01*
X70270566Y-3075599D01*
X70162600Y-3000000D01*
X75120612Y-3000000D01*
X75120928Y-3004418D01*
X75139424Y-3263042D01*
X75139425Y-3263051D01*
X75139741Y-3267465D01*
X75140681Y-3271790D01*
X75140683Y-3271798D01*
X75175620Y-3432400D01*
X75196740Y-3529485D01*
X75198283Y-3533624D01*
X75198285Y-3533628D01*
X75278646Y-3749081D01*
X75290449Y-3780726D01*
X75292569Y-3784608D01*
X75292572Y-3784615D01*
X75416831Y-4012180D01*
X75416835Y-4012187D01*
X75418958Y-4016074D01*
X75421615Y-4019623D01*
X75577000Y-4227194D01*
X75577005Y-4227200D01*
X75579653Y-4230737D01*
X75769263Y-4420347D01*
X75772800Y-4422995D01*
X75772805Y-4422999D01*
X75813312Y-4453322D01*
X75983926Y-4581042D01*
X75987816Y-4583166D01*
X75987819Y-4583168D01*
X76210450Y-4704733D01*
X76219274Y-4709551D01*
X76470515Y-4803260D01*
X76732535Y-4860259D01*
X77000000Y-4879388D01*
X77267465Y-4860259D01*
X77529485Y-4803260D01*
X77780726Y-4709551D01*
X78016074Y-4581042D01*
X78230737Y-4420347D01*
X78420347Y-4230737D01*
X78581042Y-4016074D01*
X78709551Y-3780726D01*
X78803260Y-3529485D01*
X78860259Y-3267465D01*
X78879388Y-3000000D01*
X78860259Y-2732535D01*
X78803260Y-2470515D01*
X78709551Y-2219274D01*
X78678004Y-2161499D01*
X78583168Y-1987819D01*
X78583166Y-1987816D01*
X78581042Y-1983926D01*
X78499803Y-1875404D01*
X78422999Y-1772805D01*
X78422995Y-1772800D01*
X78420347Y-1769263D01*
X78230737Y-1579653D01*
X78227200Y-1577005D01*
X78227194Y-1577000D01*
X78066605Y-1456785D01*
X78016074Y-1418958D01*
X78012187Y-1416835D01*
X78012180Y-1416831D01*
X77784615Y-1292572D01*
X77784608Y-1292569D01*
X77780726Y-1290449D01*
X77776576Y-1288901D01*
X77533628Y-1198285D01*
X77533624Y-1198283D01*
X77529485Y-1196740D01*
X77500140Y-1190356D01*
X77271798Y-1140683D01*
X77271790Y-1140681D01*
X77267465Y-1139741D01*
X77263051Y-1139425D01*
X77263042Y-1139424D01*
X77004418Y-1120928D01*
X77000000Y-1120612D01*
X76995582Y-1120928D01*
X76736957Y-1139424D01*
X76736946Y-1139425D01*
X76732535Y-1139741D01*
X76728211Y-1140681D01*
X76728201Y-1140683D01*
X76474840Y-1195799D01*
X76474837Y-1195799D01*
X76470515Y-1196740D01*
X76466379Y-1198282D01*
X76466371Y-1198285D01*
X76223423Y-1288901D01*
X76223417Y-1288903D01*
X76219274Y-1290449D01*
X76215396Y-1292566D01*
X76215384Y-1292572D01*
X75987819Y-1416831D01*
X75987805Y-1416839D01*
X75983926Y-1418958D01*
X75980380Y-1421611D01*
X75980376Y-1421615D01*
X75772805Y-1577000D01*
X75772792Y-1577010D01*
X75769263Y-1579653D01*
X75766137Y-1582778D01*
X75766130Y-1582785D01*
X75582785Y-1766130D01*
X75582778Y-1766137D01*
X75579653Y-1769263D01*
X75577010Y-1772792D01*
X75577000Y-1772805D01*
X75421615Y-1980376D01*
X75421611Y-1980380D01*
X75418958Y-1983926D01*
X75416839Y-1987805D01*
X75416831Y-1987819D01*
X75292572Y-2215384D01*
X75292566Y-2215396D01*
X75290449Y-2219274D01*
X75288903Y-2223417D01*
X75288901Y-2223423D01*
X75198285Y-2466371D01*
X75198282Y-2466379D01*
X75196740Y-2470515D01*
X75195799Y-2474837D01*
X75195799Y-2474840D01*
X75140683Y-2728201D01*
X75140681Y-2728211D01*
X75139741Y-2732535D01*
X75139425Y-2736946D01*
X75139424Y-2736957D01*
X75125925Y-2925713D01*
X75120612Y-3000000D01*
X70162600Y-3000000D01*
X70085864Y-2946269D01*
X70085858Y-2946265D01*
X70081430Y-2943165D01*
X70076526Y-2940878D01*
X70076524Y-2940877D01*
X70044005Y-2925713D01*
X70007512Y-2899778D01*
X69983645Y-2864124D01*
X69982218Y-2859210D01*
X69978244Y-2852490D01*
X69972021Y-2841968D01*
X69963458Y-2824490D01*
X69956086Y-2805868D01*
X69951502Y-2799559D01*
X69951499Y-2799553D01*
X69930417Y-2770537D01*
X69924001Y-2760770D01*
X69905743Y-2729896D01*
X69905740Y-2729892D01*
X69901770Y-2723179D01*
X69887606Y-2709015D01*
X69874968Y-2694218D01*
X69867784Y-2684329D01*
X69867778Y-2684323D01*
X69863194Y-2678013D01*
X69829546Y-2650177D01*
X69820905Y-2642314D01*
X68162886Y-984295D01*
X68155442Y-976114D01*
X68151386Y-969723D01*
X68102375Y-923698D01*
X68099578Y-920987D01*
X68082827Y-904236D01*
X68080071Y-901480D01*
X68076890Y-899012D01*
X68068014Y-891430D01*
X68041869Y-866878D01*
X68041867Y-866876D01*
X68036182Y-861538D01*
X68029349Y-857782D01*
X68029343Y-857777D01*
X68018625Y-851885D01*
X68002366Y-841206D01*
X67992695Y-833704D01*
X67992692Y-833702D01*
X67986536Y-828927D01*
X67979379Y-825829D01*
X67979376Y-825828D01*
X67946449Y-811578D01*
X67935963Y-806441D01*
X67904532Y-789162D01*
X67904523Y-789158D01*
X67897692Y-785403D01*
X67890135Y-783462D01*
X67890131Y-783461D01*
X67878288Y-780420D01*
X67859884Y-774119D01*
X67848657Y-769260D01*
X67848650Y-769258D01*
X67841496Y-766162D01*
X67833792Y-764941D01*
X67833790Y-764941D01*
X67798359Y-759329D01*
X67786924Y-756961D01*
X67752171Y-748038D01*
X67752163Y-748037D01*
X67744619Y-746100D01*
X67736823Y-746100D01*
X67724583Y-746100D01*
X67705197Y-744574D01*
X67685404Y-741440D01*
X67677638Y-742174D01*
X67677635Y-742174D01*
X67641924Y-745550D01*
X67630255Y-746100D01*
X54789371Y-746100D01*
X54778318Y-745579D01*
X54770932Y-743928D01*
X54763134Y-744173D01*
X54703744Y-746039D01*
X54699850Y-746100D01*
X54672250Y-746100D01*
X54668399Y-746586D01*
X54668368Y-746588D01*
X54668240Y-746605D01*
X54656629Y-747518D01*
X54620772Y-748645D01*
X54620765Y-748646D01*
X54612973Y-748891D01*
X54605488Y-751065D01*
X54605472Y-751068D01*
X54593726Y-754481D01*
X54574683Y-758425D01*
X54562549Y-759958D01*
X54562548Y-759958D01*
X54554808Y-760936D01*
X54547558Y-763805D01*
X54547551Y-763808D01*
X54514198Y-777013D01*
X54503154Y-780794D01*
X54468705Y-790803D01*
X54468695Y-790807D01*
X54461210Y-792982D01*
X54454500Y-796949D01*
X54454498Y-796951D01*
X54451105Y-798957D01*
X54443960Y-803183D01*
X54426500Y-811736D01*
X54407868Y-819114D01*
X54401565Y-823692D01*
X54401558Y-823697D01*
X54372539Y-844781D01*
X54362779Y-851192D01*
X54331894Y-869457D01*
X54331884Y-869464D01*
X54325179Y-873430D01*
X54319663Y-878945D01*
X54319660Y-878948D01*
X54311007Y-887600D01*
X54296224Y-900226D01*
X54286327Y-907417D01*
X54286320Y-907423D01*
X54280013Y-912006D01*
X54275046Y-918008D01*
X54275035Y-918020D01*
X54252170Y-945659D01*
X54244310Y-954297D01*
X53054296Y-2144311D01*
X53046111Y-2151759D01*
X53039723Y-2155814D01*
X53034388Y-2161494D01*
X53034383Y-2161499D01*
X52993696Y-2204825D01*
X52990992Y-2207616D01*
X52974228Y-2224380D01*
X52974221Y-2224387D01*
X52971480Y-2227129D01*
X52969100Y-2230196D01*
X52969089Y-2230209D01*
X52969000Y-2230325D01*
X52961442Y-2239170D01*
X52936880Y-2265327D01*
X52936873Y-2265336D01*
X52931538Y-2271018D01*
X52927782Y-2277849D01*
X52927779Y-2277854D01*
X52921885Y-2288575D01*
X52911209Y-2304827D01*
X52903709Y-2314496D01*
X52903701Y-2314507D01*
X52898927Y-2320664D01*
X52895834Y-2327808D01*
X52895829Y-2327819D01*
X52881574Y-2360760D01*
X52876438Y-2371243D01*
X52855403Y-2409508D01*
X52853464Y-2417056D01*
X52853463Y-2417061D01*
X52850422Y-2428907D01*
X52844121Y-2447311D01*
X52839258Y-2458548D01*
X52839256Y-2458552D01*
X52836162Y-2465704D01*
X52834942Y-2473403D01*
X52834942Y-2473405D01*
X52829329Y-2508841D01*
X52826961Y-2520276D01*
X52818038Y-2555028D01*
X52818036Y-2555036D01*
X52816100Y-2562581D01*
X52816100Y-2570377D01*
X52816100Y-2582617D01*
X52814574Y-2602002D01*
X52811440Y-2621796D01*
X52812174Y-2629561D01*
X52812174Y-2629564D01*
X52815550Y-2665276D01*
X52816100Y-2676945D01*
X52816100Y-3457306D01*
X52797094Y-3523278D01*
X52745902Y-3569026D01*
X52543011Y-3666733D01*
X52543004Y-3666736D01*
X52538826Y-3668749D01*
X52534993Y-3671362D01*
X52534990Y-3671364D01*
X52319690Y-3818152D01*
X52319680Y-3818159D01*
X52315859Y-3820765D01*
X52312463Y-3823916D01*
X52312453Y-3823924D01*
X52121443Y-4001156D01*
X52121439Y-4001159D01*
X52118039Y-4004315D01*
X52115149Y-4007937D01*
X52115146Y-4007942D01*
X51972677Y-4186592D01*
X51949785Y-4215298D01*
X51947466Y-4219313D01*
X51947465Y-4219316D01*
X51817178Y-4444981D01*
X51817175Y-4444986D01*
X51814857Y-4449002D01*
X51813163Y-4453316D01*
X51813161Y-4453322D01*
X51717963Y-4695880D01*
X51716266Y-4700205D01*
X51715233Y-4704726D01*
X51715232Y-4704733D01*
X51657248Y-4958777D01*
X51657246Y-4958785D01*
X51656217Y-4963297D01*
X51655870Y-4967916D01*
X51655870Y-4967922D01*
X51636398Y-5227769D01*
X51636051Y-5232400D01*
X51636398Y-5237031D01*
X51654689Y-5481122D01*
X51656217Y-5501503D01*
X51657247Y-5506016D01*
X51657248Y-5506022D01*
X51714456Y-5756665D01*
X51716266Y-5764595D01*
X51717962Y-5768918D01*
X51717963Y-5768919D01*
X51766635Y-5892933D01*
X51814857Y-6015798D01*
X51949785Y-6249502D01*
X52118039Y-6460485D01*
X52121443Y-6463643D01*
X52302960Y-6632067D01*
X52315859Y-6644035D01*
X52538826Y-6796051D01*
X52681640Y-6864827D01*
X52745902Y-6895774D01*
X52797094Y-6941522D01*
X52816100Y-7007494D01*
X52816100Y-15183548D01*
X52806661Y-15231001D01*
X52779781Y-15271229D01*
X50018428Y-18032581D01*
X49978200Y-18059461D01*
X49930747Y-18068900D01*
X49050219Y-18068900D01*
X49042049Y-18068900D01*
X49018814Y-18066704D01*
X49018446Y-18066633D01*
X49018439Y-18066632D01*
X49010788Y-18065173D01*
X49003009Y-18065662D01*
X49003004Y-18065662D01*
X48955441Y-18068655D01*
X48947655Y-18068900D01*
X37822175Y-18068900D01*
X37811119Y-18068378D01*
X37803733Y-18066727D01*
X37795945Y-18066971D01*
X37795938Y-18066971D01*
X37736527Y-18068839D01*
X37732632Y-18068900D01*
X37705050Y-18068900D01*
X37701205Y-18069385D01*
X37701180Y-18069387D01*
X37701053Y-18069404D01*
X37689434Y-18070318D01*
X37653572Y-18071445D01*
X37653565Y-18071446D01*
X37645773Y-18071691D01*
X37638288Y-18073865D01*
X37638272Y-18073868D01*
X37626526Y-18077281D01*
X37607483Y-18081225D01*
X37595349Y-18082758D01*
X37595348Y-18082758D01*
X37587608Y-18083736D01*
X37580358Y-18086605D01*
X37580351Y-18086608D01*
X37546998Y-18099813D01*
X37535954Y-18103594D01*
X37501501Y-18113604D01*
X37501490Y-18113608D01*
X37494010Y-18115782D01*
X37487298Y-18119751D01*
X37487296Y-18119752D01*
X37476764Y-18125980D01*
X37459304Y-18134534D01*
X37447919Y-18139042D01*
X37447913Y-18139044D01*
X37440668Y-18141914D01*
X37434363Y-18146494D01*
X37434355Y-18146499D01*
X37405332Y-18167585D01*
X37395574Y-18173995D01*
X37364696Y-18192257D01*
X37364690Y-18192261D01*
X37357980Y-18196230D01*
X37352467Y-18201741D01*
X37352460Y-18201748D01*
X37343810Y-18210398D01*
X37329027Y-18223024D01*
X37319126Y-18230217D01*
X37319116Y-18230226D01*
X37312813Y-18234806D01*
X37307844Y-18240811D01*
X37307841Y-18240815D01*
X37284972Y-18268459D01*
X37277111Y-18277097D01*
X36442696Y-19111511D01*
X36434511Y-19118959D01*
X36428123Y-19123014D01*
X36422788Y-19128694D01*
X36422783Y-19128699D01*
X36382096Y-19172025D01*
X36379392Y-19174816D01*
X36362628Y-19191580D01*
X36362621Y-19191587D01*
X36359880Y-19194329D01*
X36357500Y-19197396D01*
X36357489Y-19197409D01*
X36357400Y-19197525D01*
X36349842Y-19206370D01*
X36325280Y-19232527D01*
X36325273Y-19232536D01*
X36319938Y-19238218D01*
X36316182Y-19245049D01*
X36316179Y-19245054D01*
X36310285Y-19255775D01*
X36299609Y-19272027D01*
X36292109Y-19281696D01*
X36292101Y-19281707D01*
X36287327Y-19287864D01*
X36284234Y-19295008D01*
X36284229Y-19295019D01*
X36269974Y-19327960D01*
X36264838Y-19338443D01*
X36243803Y-19376708D01*
X36241864Y-19384256D01*
X36241863Y-19384261D01*
X36238822Y-19396107D01*
X36232521Y-19414511D01*
X36227658Y-19425748D01*
X36227656Y-19425752D01*
X36224562Y-19432904D01*
X36223342Y-19440603D01*
X36223342Y-19440605D01*
X36217729Y-19476041D01*
X36215361Y-19487476D01*
X36206438Y-19522228D01*
X36206436Y-19522236D01*
X36204500Y-19529781D01*
X36204500Y-19537577D01*
X36204500Y-19549817D01*
X36202974Y-19569202D01*
X36199840Y-19588996D01*
X36200574Y-19596761D01*
X36200574Y-19596764D01*
X36203950Y-19632476D01*
X36204500Y-19644145D01*
X36204500Y-20113974D01*
X36190489Y-20171231D01*
X36151625Y-20215547D01*
X36099004Y-20252393D01*
X35963034Y-20347599D01*
X35963029Y-20347602D01*
X35958599Y-20350705D01*
X35954775Y-20354528D01*
X35954775Y-20354529D01*
X35810460Y-20498844D01*
X35760065Y-20529423D01*
X35701244Y-20533278D01*
X35647290Y-20509536D01*
X35615204Y-20469555D01*
X35614358Y-20470078D01*
X35526109Y-20327005D01*
X35517205Y-20315744D01*
X35403455Y-20201994D01*
X35392194Y-20193090D01*
X35255266Y-20108632D01*
X35242267Y-20102570D01*
X35089125Y-20051824D01*
X35075958Y-20049005D01*
X34983109Y-20039519D01*
X34976832Y-20039200D01*
X34596326Y-20039200D01*
X34583450Y-20042650D01*
X34580000Y-20055526D01*
X34580000Y-21665200D01*
X34563387Y-21727200D01*
X34518000Y-21772587D01*
X34456000Y-21789200D01*
X32996327Y-21789200D01*
X32983451Y-21792650D01*
X32980001Y-21805526D01*
X32980001Y-22114700D01*
X32963388Y-22176700D01*
X32918001Y-22222087D01*
X32856001Y-22238700D01*
X29473852Y-22238700D01*
X29426399Y-22229261D01*
X29386171Y-22202381D01*
X29298490Y-22114700D01*
X29208944Y-22025153D01*
X29178358Y-21974736D01*
X29175098Y-21924751D01*
X29173463Y-21924608D01*
X29179437Y-21856326D01*
X29188900Y-21748166D01*
X29188900Y-21330234D01*
X29183882Y-21272874D01*
X32980000Y-21272874D01*
X32983450Y-21285749D01*
X32996326Y-21289200D01*
X34063674Y-21289200D01*
X34076549Y-21285749D01*
X34080000Y-21272874D01*
X34080000Y-20055527D01*
X34076549Y-20042651D01*
X34063674Y-20039201D01*
X33683171Y-20039201D01*
X33676888Y-20039521D01*
X33584040Y-20049005D01*
X33570877Y-20051823D01*
X33417732Y-20102570D01*
X33404733Y-20108632D01*
X33267805Y-20193090D01*
X33256544Y-20201994D01*
X33142794Y-20315744D01*
X33133890Y-20327005D01*
X33049432Y-20463933D01*
X33043370Y-20476932D01*
X32992624Y-20630074D01*
X32989805Y-20643241D01*
X32980319Y-20736090D01*
X32980000Y-20742368D01*
X32980000Y-21272874D01*
X29183882Y-21272874D01*
X29173463Y-21153792D01*
X29112303Y-20925537D01*
X29012435Y-20711371D01*
X28876895Y-20517799D01*
X28709801Y-20350705D01*
X28705370Y-20347602D01*
X28705366Y-20347599D01*
X28520659Y-20218266D01*
X28520657Y-20218264D01*
X28516230Y-20215165D01*
X28511333Y-20212881D01*
X28511327Y-20212878D01*
X28306972Y-20117586D01*
X28306970Y-20117585D01*
X28302063Y-20115297D01*
X28296838Y-20113897D01*
X28296830Y-20113894D01*
X28079034Y-20055537D01*
X28079030Y-20055536D01*
X28073808Y-20054137D01*
X28068420Y-20053665D01*
X28068417Y-20053665D01*
X27843795Y-20034013D01*
X27838400Y-20033541D01*
X27833005Y-20034013D01*
X27608382Y-20053665D01*
X27608377Y-20053665D01*
X27602992Y-20054137D01*
X27597771Y-20055535D01*
X27597765Y-20055537D01*
X27379969Y-20113894D01*
X27379957Y-20113898D01*
X27374737Y-20115297D01*
X27369832Y-20117583D01*
X27369827Y-20117586D01*
X27165481Y-20212875D01*
X27165477Y-20212877D01*
X27160571Y-20215165D01*
X27156138Y-20218268D01*
X27156131Y-20218273D01*
X26971434Y-20347599D01*
X26971429Y-20347602D01*
X26966999Y-20350705D01*
X26963175Y-20354528D01*
X26963175Y-20354529D01*
X26818860Y-20498844D01*
X26768465Y-20529423D01*
X26709644Y-20533278D01*
X26655690Y-20509536D01*
X26623604Y-20469555D01*
X26622758Y-20470078D01*
X26534509Y-20327005D01*
X26525605Y-20315744D01*
X26411855Y-20201994D01*
X26400594Y-20193090D01*
X26263666Y-20108632D01*
X26250667Y-20102570D01*
X26097525Y-20051824D01*
X26084358Y-20049005D01*
X25991509Y-20039519D01*
X25985232Y-20039200D01*
X25604726Y-20039200D01*
X25591850Y-20042650D01*
X25588400Y-20055526D01*
X25588400Y-21665200D01*
X25571787Y-21727200D01*
X25526400Y-21772587D01*
X25464400Y-21789200D01*
X24004727Y-21789200D01*
X23991851Y-21792650D01*
X23988401Y-21805526D01*
X23988401Y-22114700D01*
X23971788Y-22176700D01*
X23926401Y-22222087D01*
X23864401Y-22238700D01*
X19934252Y-22238700D01*
X19886799Y-22229261D01*
X19846571Y-22202381D01*
X19758890Y-22114700D01*
X19669344Y-22025153D01*
X19638758Y-21974736D01*
X19635498Y-21924751D01*
X19633863Y-21924608D01*
X19639837Y-21856326D01*
X19649300Y-21748166D01*
X19649300Y-21330234D01*
X19644282Y-21272874D01*
X23988400Y-21272874D01*
X23991850Y-21285749D01*
X24004726Y-21289200D01*
X25072074Y-21289200D01*
X25084949Y-21285749D01*
X25088400Y-21272874D01*
X25088400Y-20055527D01*
X25084949Y-20042651D01*
X25072074Y-20039201D01*
X24691571Y-20039201D01*
X24685288Y-20039521D01*
X24592440Y-20049005D01*
X24579277Y-20051823D01*
X24426132Y-20102570D01*
X24413133Y-20108632D01*
X24276205Y-20193090D01*
X24264944Y-20201994D01*
X24151194Y-20315744D01*
X24142290Y-20327005D01*
X24057832Y-20463933D01*
X24051770Y-20476932D01*
X24001024Y-20630074D01*
X23998205Y-20643241D01*
X23988719Y-20736090D01*
X23988400Y-20742368D01*
X23988400Y-21272874D01*
X19644282Y-21272874D01*
X19633863Y-21153792D01*
X19572703Y-20925537D01*
X19472835Y-20711371D01*
X19337295Y-20517799D01*
X19170201Y-20350705D01*
X19165770Y-20347602D01*
X19165766Y-20347599D01*
X18977176Y-20215547D01*
X18938311Y-20171229D01*
X18924300Y-20113972D01*
X18924300Y-16103600D01*
X25110532Y-16103600D01*
X25111004Y-16108995D01*
X25128522Y-16309233D01*
X25130365Y-16330292D01*
X25131762Y-16335507D01*
X25131764Y-16335516D01*
X25187858Y-16544863D01*
X25187861Y-16544871D01*
X25189261Y-16550096D01*
X25285432Y-16756334D01*
X25415953Y-16942739D01*
X25576861Y-17103647D01*
X25763266Y-17234168D01*
X25969504Y-17330339D01*
X25974734Y-17331740D01*
X25974736Y-17331741D01*
X26184083Y-17387835D01*
X26189308Y-17389235D01*
X26416000Y-17409068D01*
X26642692Y-17389235D01*
X26862496Y-17330339D01*
X27068734Y-17234168D01*
X27255139Y-17103647D01*
X27410608Y-16948178D01*
X32735500Y-16948178D01*
X32735501Y-16951472D01*
X32735853Y-16954750D01*
X32735854Y-16954761D01*
X32741079Y-17003368D01*
X32741080Y-17003373D01*
X32741909Y-17011083D01*
X32744619Y-17018349D01*
X32744620Y-17018353D01*
X32775005Y-17099817D01*
X32792204Y-17145931D01*
X32797518Y-17153030D01*
X32797519Y-17153031D01*
X32850902Y-17224342D01*
X32878454Y-17261146D01*
X32993669Y-17347396D01*
X33128517Y-17397691D01*
X33188127Y-17404100D01*
X34883872Y-17404099D01*
X34943483Y-17397691D01*
X35078331Y-17347396D01*
X35193546Y-17261146D01*
X35279796Y-17145931D01*
X35330091Y-17011083D01*
X35336500Y-16951473D01*
X35336499Y-16052800D01*
X37910357Y-16052800D01*
X37930885Y-16274336D01*
X37932454Y-16279850D01*
X37990201Y-16482813D01*
X37990204Y-16482821D01*
X37991771Y-16488328D01*
X37994323Y-16493453D01*
X37994325Y-16493458D01*
X38088387Y-16682359D01*
X38088389Y-16682363D01*
X38090942Y-16687489D01*
X38094391Y-16692056D01*
X38094394Y-16692061D01*
X38221561Y-16860458D01*
X38221566Y-16860463D01*
X38225019Y-16865036D01*
X38229255Y-16868897D01*
X38229259Y-16868902D01*
X38319836Y-16951473D01*
X38389438Y-17014924D01*
X38578599Y-17132047D01*
X38786060Y-17212418D01*
X39004757Y-17253300D01*
X39221514Y-17253300D01*
X39227243Y-17253300D01*
X39445940Y-17212418D01*
X39653401Y-17132047D01*
X39842562Y-17014924D01*
X40006981Y-16865036D01*
X40141058Y-16687489D01*
X40240229Y-16488328D01*
X40266734Y-16395171D01*
X40299133Y-16340618D01*
X40354275Y-16309233D01*
X40417725Y-16309233D01*
X40472867Y-16340618D01*
X40505265Y-16395171D01*
X40531771Y-16488328D01*
X40534323Y-16493453D01*
X40534325Y-16493458D01*
X40628387Y-16682359D01*
X40628389Y-16682363D01*
X40630942Y-16687489D01*
X40634391Y-16692056D01*
X40634394Y-16692061D01*
X40761561Y-16860458D01*
X40761566Y-16860463D01*
X40765019Y-16865036D01*
X40769255Y-16868897D01*
X40769259Y-16868902D01*
X40859836Y-16951473D01*
X40929438Y-17014924D01*
X41118599Y-17132047D01*
X41326060Y-17212418D01*
X41544757Y-17253300D01*
X41761514Y-17253300D01*
X41767243Y-17253300D01*
X41985940Y-17212418D01*
X42193401Y-17132047D01*
X42382562Y-17014924D01*
X42546981Y-16865036D01*
X42681058Y-16687489D01*
X42780229Y-16488328D01*
X42841115Y-16274336D01*
X42861643Y-16052800D01*
X45529557Y-16052800D01*
X45550085Y-16274336D01*
X45551654Y-16279850D01*
X45609401Y-16482813D01*
X45609404Y-16482821D01*
X45610971Y-16488328D01*
X45613523Y-16493453D01*
X45613525Y-16493458D01*
X45707587Y-16682359D01*
X45707589Y-16682363D01*
X45710142Y-16687489D01*
X45713591Y-16692056D01*
X45713594Y-16692061D01*
X45840761Y-16860458D01*
X45840766Y-16860463D01*
X45844219Y-16865036D01*
X45848455Y-16868897D01*
X45848459Y-16868902D01*
X45939036Y-16951473D01*
X46008638Y-17014924D01*
X46197799Y-17132047D01*
X46405260Y-17212418D01*
X46623957Y-17253300D01*
X46840714Y-17253300D01*
X46846443Y-17253300D01*
X47065140Y-17212418D01*
X47272601Y-17132047D01*
X47461762Y-17014924D01*
X47626181Y-16865036D01*
X47760258Y-16687489D01*
X47859429Y-16488328D01*
X47886195Y-16394254D01*
X47918591Y-16339706D01*
X47973734Y-16308320D01*
X48037183Y-16308320D01*
X48092326Y-16339705D01*
X48124725Y-16394258D01*
X48149870Y-16482634D01*
X48153993Y-16493277D01*
X48248013Y-16682095D01*
X48254020Y-16691797D01*
X48381132Y-16860120D01*
X48388830Y-16868564D01*
X48544705Y-17010662D01*
X48553809Y-17017538D01*
X48733150Y-17128581D01*
X48743363Y-17133667D01*
X48940055Y-17209866D01*
X48951031Y-17212988D01*
X49011770Y-17224342D01*
X49022798Y-17223960D01*
X49025200Y-17213193D01*
X49525200Y-17213193D01*
X49527601Y-17223960D01*
X49538629Y-17224342D01*
X49599368Y-17212988D01*
X49610344Y-17209866D01*
X49807036Y-17133667D01*
X49817249Y-17128581D01*
X49996590Y-17017538D01*
X50005694Y-17010662D01*
X50161569Y-16868564D01*
X50169267Y-16860120D01*
X50296379Y-16691797D01*
X50302386Y-16682095D01*
X50396407Y-16493274D01*
X50400527Y-16482640D01*
X50447759Y-16316635D01*
X50448279Y-16305380D01*
X50437310Y-16302800D01*
X49541526Y-16302800D01*
X49528650Y-16306250D01*
X49525200Y-16319126D01*
X49525200Y-17213193D01*
X49025200Y-17213193D01*
X49025200Y-15786474D01*
X49525200Y-15786474D01*
X49528650Y-15799349D01*
X49541526Y-15802800D01*
X50437310Y-15802800D01*
X50448279Y-15800219D01*
X50447759Y-15788964D01*
X50400527Y-15622959D01*
X50396407Y-15612325D01*
X50302386Y-15423504D01*
X50296379Y-15413802D01*
X50169267Y-15245479D01*
X50161569Y-15237035D01*
X50005694Y-15094937D01*
X49996590Y-15088061D01*
X49817249Y-14977018D01*
X49807036Y-14971932D01*
X49610344Y-14895733D01*
X49599368Y-14892611D01*
X49538629Y-14881257D01*
X49527601Y-14881639D01*
X49525200Y-14892407D01*
X49525200Y-15786474D01*
X49025200Y-15786474D01*
X49025200Y-14892407D01*
X49022798Y-14881639D01*
X49011770Y-14881257D01*
X48951031Y-14892611D01*
X48940055Y-14895733D01*
X48743363Y-14971932D01*
X48733150Y-14977018D01*
X48553809Y-15088061D01*
X48544705Y-15094937D01*
X48388830Y-15237035D01*
X48381132Y-15245479D01*
X48254020Y-15413802D01*
X48248013Y-15423504D01*
X48153993Y-15612322D01*
X48149870Y-15622965D01*
X48124725Y-15711341D01*
X48092326Y-15765894D01*
X48037183Y-15797279D01*
X47973734Y-15797279D01*
X47918591Y-15765893D01*
X47886194Y-15711343D01*
X47859429Y-15617272D01*
X47760258Y-15418111D01*
X47756805Y-15413538D01*
X47629638Y-15245141D01*
X47629634Y-15245137D01*
X47626181Y-15240564D01*
X47621944Y-15236701D01*
X47621940Y-15236697D01*
X47495846Y-15121748D01*
X47461762Y-15090676D01*
X47456891Y-15087660D01*
X47456890Y-15087659D01*
X47277475Y-14976571D01*
X47277476Y-14976571D01*
X47272601Y-14973553D01*
X47065140Y-14893182D01*
X47059502Y-14892128D01*
X46852072Y-14853352D01*
X46852069Y-14853351D01*
X46846443Y-14852300D01*
X46623957Y-14852300D01*
X46618331Y-14853351D01*
X46618327Y-14853352D01*
X46410897Y-14892128D01*
X46410894Y-14892128D01*
X46405260Y-14893182D01*
X46399917Y-14895251D01*
X46399913Y-14895253D01*
X46203141Y-14971483D01*
X46203136Y-14971485D01*
X46197799Y-14973553D01*
X46192927Y-14976569D01*
X46192924Y-14976571D01*
X46013509Y-15087659D01*
X46013501Y-15087664D01*
X46008638Y-15090676D01*
X46004407Y-15094532D01*
X46004403Y-15094536D01*
X45848459Y-15236697D01*
X45848449Y-15236707D01*
X45844219Y-15240564D01*
X45840770Y-15245130D01*
X45840761Y-15245141D01*
X45713594Y-15413538D01*
X45713587Y-15413548D01*
X45710142Y-15418111D01*
X45707592Y-15423231D01*
X45707587Y-15423240D01*
X45613525Y-15612141D01*
X45613521Y-15612149D01*
X45610971Y-15617272D01*
X45609405Y-15622775D01*
X45609401Y-15622786D01*
X45556769Y-15807773D01*
X45550085Y-15831264D01*
X45549556Y-15836969D01*
X45549556Y-15836971D01*
X45535828Y-15985121D01*
X45529557Y-16052800D01*
X42861643Y-16052800D01*
X42841115Y-15831264D01*
X42789539Y-15649994D01*
X42781798Y-15622786D01*
X42781797Y-15622784D01*
X42780229Y-15617272D01*
X42681058Y-15418111D01*
X42677605Y-15413538D01*
X42550438Y-15245141D01*
X42550434Y-15245137D01*
X42546981Y-15240564D01*
X42542744Y-15236701D01*
X42542740Y-15236697D01*
X42416646Y-15121748D01*
X42382562Y-15090676D01*
X42377696Y-15087663D01*
X42377692Y-15087660D01*
X42340222Y-15064460D01*
X42297171Y-15019372D01*
X42281500Y-14959033D01*
X42281500Y-7007494D01*
X42300506Y-6941522D01*
X42351698Y-6895774D01*
X42379278Y-6882492D01*
X42558775Y-6796051D01*
X42781741Y-6644035D01*
X42854076Y-6576918D01*
X44936000Y-6576918D01*
X44936353Y-6583514D01*
X44941573Y-6632067D01*
X44945111Y-6647041D01*
X44989547Y-6766177D01*
X44997962Y-6781589D01*
X45073498Y-6882492D01*
X45085907Y-6894901D01*
X45186810Y-6970437D01*
X45202222Y-6978852D01*
X45321358Y-7023288D01*
X45336332Y-7026826D01*
X45384885Y-7032046D01*
X45391482Y-7032400D01*
X46469674Y-7032400D01*
X46482549Y-7028949D01*
X46486000Y-7016074D01*
X46986000Y-7016074D01*
X46989450Y-7028949D01*
X47002326Y-7032400D01*
X48080518Y-7032400D01*
X48087114Y-7032046D01*
X48135667Y-7026826D01*
X48150641Y-7023288D01*
X48269777Y-6978852D01*
X48285189Y-6970437D01*
X48386092Y-6894901D01*
X48398501Y-6882492D01*
X48474037Y-6781589D01*
X48482452Y-6766177D01*
X48526888Y-6647041D01*
X48530426Y-6632067D01*
X48535646Y-6583514D01*
X48536000Y-6576918D01*
X48536000Y-5498726D01*
X48532549Y-5485850D01*
X48519674Y-5482400D01*
X47002326Y-5482400D01*
X46989450Y-5485850D01*
X46986000Y-5498726D01*
X46986000Y-7016074D01*
X46486000Y-7016074D01*
X46486000Y-5498726D01*
X46482549Y-5485850D01*
X46469674Y-5482400D01*
X44952326Y-5482400D01*
X44939450Y-5485850D01*
X44936000Y-5498726D01*
X44936000Y-6576918D01*
X42854076Y-6576918D01*
X42979561Y-6460485D01*
X43147815Y-6249502D01*
X43282743Y-6015798D01*
X43381334Y-5764595D01*
X43441383Y-5501503D01*
X43461549Y-5232400D01*
X43441591Y-4966074D01*
X44936000Y-4966074D01*
X44939450Y-4978949D01*
X44952326Y-4982400D01*
X46469674Y-4982400D01*
X46482549Y-4978949D01*
X46486000Y-4966074D01*
X46986000Y-4966074D01*
X46989450Y-4978949D01*
X47002326Y-4982400D01*
X48519674Y-4982400D01*
X48532549Y-4978949D01*
X48536000Y-4966074D01*
X48536000Y-3887882D01*
X48535646Y-3881285D01*
X48530426Y-3832732D01*
X48526888Y-3817758D01*
X48482452Y-3698622D01*
X48474037Y-3683210D01*
X48398501Y-3582307D01*
X48386092Y-3569898D01*
X48285189Y-3494362D01*
X48269777Y-3485947D01*
X48150641Y-3441511D01*
X48135667Y-3437973D01*
X48087114Y-3432753D01*
X48080518Y-3432400D01*
X47002326Y-3432400D01*
X46989450Y-3435850D01*
X46986000Y-3448726D01*
X46986000Y-4966074D01*
X46486000Y-4966074D01*
X46486000Y-3448726D01*
X46482549Y-3435850D01*
X46469674Y-3432400D01*
X45391482Y-3432400D01*
X45384885Y-3432753D01*
X45336332Y-3437973D01*
X45321358Y-3441511D01*
X45202222Y-3485947D01*
X45186810Y-3494362D01*
X45085907Y-3569898D01*
X45073498Y-3582307D01*
X44997962Y-3683210D01*
X44989547Y-3698622D01*
X44945111Y-3817758D01*
X44941573Y-3832732D01*
X44936353Y-3881285D01*
X44936000Y-3887882D01*
X44936000Y-4966074D01*
X43441591Y-4966074D01*
X43441383Y-4963297D01*
X43381334Y-4700205D01*
X43282743Y-4449002D01*
X43147815Y-4215298D01*
X42979561Y-4004315D01*
X42841879Y-3876565D01*
X42785146Y-3823924D01*
X42785143Y-3823921D01*
X42781741Y-3820765D01*
X42777912Y-3818154D01*
X42777909Y-3818152D01*
X42638311Y-3722976D01*
X42558775Y-3668749D01*
X42554589Y-3666733D01*
X42319820Y-3553674D01*
X42319814Y-3553671D01*
X42315641Y-3551662D01*
X42311219Y-3550298D01*
X42311209Y-3550294D01*
X42062202Y-3473486D01*
X42062196Y-3473484D01*
X42057772Y-3472120D01*
X42053195Y-3471430D01*
X42053186Y-3471428D01*
X41795514Y-3432591D01*
X41795513Y-3432590D01*
X41790929Y-3431900D01*
X41521071Y-3431900D01*
X41516487Y-3432590D01*
X41516485Y-3432591D01*
X41258813Y-3471428D01*
X41258801Y-3471430D01*
X41254228Y-3472120D01*
X41249806Y-3473483D01*
X41249797Y-3473486D01*
X41000790Y-3550294D01*
X41000775Y-3550299D01*
X40996359Y-3551662D01*
X40992185Y-3553671D01*
X40992180Y-3553674D01*
X40757411Y-3666733D01*
X40757404Y-3666736D01*
X40753226Y-3668749D01*
X40749393Y-3671362D01*
X40749390Y-3671364D01*
X40534090Y-3818152D01*
X40534080Y-3818159D01*
X40530259Y-3820765D01*
X40526863Y-3823916D01*
X40526853Y-3823924D01*
X40335843Y-4001156D01*
X40335839Y-4001159D01*
X40332439Y-4004315D01*
X40329549Y-4007937D01*
X40329546Y-4007942D01*
X40187077Y-4186592D01*
X40164185Y-4215298D01*
X40161866Y-4219313D01*
X40161865Y-4219316D01*
X40031578Y-4444981D01*
X40031575Y-4444986D01*
X40029257Y-4449002D01*
X40027563Y-4453316D01*
X40027561Y-4453322D01*
X39932363Y-4695880D01*
X39930666Y-4700205D01*
X39929633Y-4704726D01*
X39929632Y-4704733D01*
X39871648Y-4958777D01*
X39871646Y-4958785D01*
X39870617Y-4963297D01*
X39870270Y-4967916D01*
X39870270Y-4967922D01*
X39850798Y-5227769D01*
X39850451Y-5232400D01*
X39850798Y-5237031D01*
X39869089Y-5481122D01*
X39870617Y-5501503D01*
X39871647Y-5506016D01*
X39871648Y-5506022D01*
X39928856Y-5756665D01*
X39930666Y-5764595D01*
X39932362Y-5768918D01*
X39932363Y-5768919D01*
X39981035Y-5892933D01*
X40029257Y-6015798D01*
X40164185Y-6249502D01*
X40332439Y-6460485D01*
X40335843Y-6463643D01*
X40517360Y-6632067D01*
X40530259Y-6644035D01*
X40753226Y-6796051D01*
X40896040Y-6864827D01*
X40960302Y-6895774D01*
X41011494Y-6941522D01*
X41030500Y-7007494D01*
X41030500Y-14959033D01*
X41014829Y-15019372D01*
X40971778Y-15064460D01*
X40934307Y-15087660D01*
X40934297Y-15087666D01*
X40929438Y-15090676D01*
X40925207Y-15094532D01*
X40925203Y-15094536D01*
X40769259Y-15236697D01*
X40769249Y-15236707D01*
X40765019Y-15240564D01*
X40761570Y-15245130D01*
X40761561Y-15245141D01*
X40634394Y-15413538D01*
X40634387Y-15413548D01*
X40630942Y-15418111D01*
X40628392Y-15423231D01*
X40628387Y-15423240D01*
X40534325Y-15612141D01*
X40534321Y-15612149D01*
X40531771Y-15617272D01*
X40530205Y-15622775D01*
X40530201Y-15622786D01*
X40505266Y-15710427D01*
X40472867Y-15764981D01*
X40417724Y-15796366D01*
X40354276Y-15796366D01*
X40299133Y-15764981D01*
X40266734Y-15710427D01*
X40241798Y-15622786D01*
X40241797Y-15622784D01*
X40240229Y-15617272D01*
X40141058Y-15418111D01*
X40137605Y-15413538D01*
X40010438Y-15245141D01*
X40010434Y-15245137D01*
X40006981Y-15240564D01*
X40002744Y-15236701D01*
X40002740Y-15236697D01*
X39876646Y-15121748D01*
X39842562Y-15090676D01*
X39837691Y-15087660D01*
X39837690Y-15087659D01*
X39658275Y-14976571D01*
X39658276Y-14976571D01*
X39653401Y-14973553D01*
X39445940Y-14893182D01*
X39440302Y-14892128D01*
X39232872Y-14853352D01*
X39232869Y-14853351D01*
X39227243Y-14852300D01*
X39004757Y-14852300D01*
X38999131Y-14853351D01*
X38999127Y-14853352D01*
X38791697Y-14892128D01*
X38791694Y-14892128D01*
X38786060Y-14893182D01*
X38780717Y-14895251D01*
X38780713Y-14895253D01*
X38583941Y-14971483D01*
X38583936Y-14971485D01*
X38578599Y-14973553D01*
X38573727Y-14976569D01*
X38573724Y-14976571D01*
X38394309Y-15087659D01*
X38394301Y-15087664D01*
X38389438Y-15090676D01*
X38385207Y-15094532D01*
X38385203Y-15094536D01*
X38229259Y-15236697D01*
X38229249Y-15236707D01*
X38225019Y-15240564D01*
X38221570Y-15245130D01*
X38221561Y-15245141D01*
X38094394Y-15413538D01*
X38094387Y-15413548D01*
X38090942Y-15418111D01*
X38088392Y-15423231D01*
X38088387Y-15423240D01*
X37994325Y-15612141D01*
X37994321Y-15612149D01*
X37991771Y-15617272D01*
X37990205Y-15622775D01*
X37990201Y-15622786D01*
X37937569Y-15807773D01*
X37930885Y-15831264D01*
X37930356Y-15836969D01*
X37930356Y-15836971D01*
X37916628Y-15985121D01*
X37910357Y-16052800D01*
X35336499Y-16052800D01*
X35336499Y-15255728D01*
X35330091Y-15196117D01*
X35279796Y-15061269D01*
X35193546Y-14946054D01*
X35122155Y-14892611D01*
X35085431Y-14865119D01*
X35085430Y-14865118D01*
X35078331Y-14859804D01*
X34966155Y-14817965D01*
X34950752Y-14812220D01*
X34950750Y-14812219D01*
X34943483Y-14809509D01*
X34935770Y-14808679D01*
X34935767Y-14808679D01*
X34887180Y-14803455D01*
X34887169Y-14803454D01*
X34883873Y-14803100D01*
X34880550Y-14803100D01*
X33191439Y-14803100D01*
X33191420Y-14803100D01*
X33188128Y-14803101D01*
X33184850Y-14803453D01*
X33184838Y-14803454D01*
X33136231Y-14808679D01*
X33136225Y-14808680D01*
X33128517Y-14809509D01*
X33121252Y-14812218D01*
X33121246Y-14812220D01*
X33001980Y-14856704D01*
X33001978Y-14856704D01*
X32993669Y-14859804D01*
X32986572Y-14865116D01*
X32986568Y-14865119D01*
X32885550Y-14940741D01*
X32885546Y-14940744D01*
X32878454Y-14946054D01*
X32873144Y-14953146D01*
X32873141Y-14953150D01*
X32797519Y-15054168D01*
X32797516Y-15054172D01*
X32792204Y-15061269D01*
X32789104Y-15069578D01*
X32789104Y-15069580D01*
X32744620Y-15188847D01*
X32744619Y-15188850D01*
X32741909Y-15196117D01*
X32741079Y-15203827D01*
X32741079Y-15203832D01*
X32735855Y-15252419D01*
X32735854Y-15252431D01*
X32735500Y-15255727D01*
X32735500Y-15259048D01*
X32735500Y-15259049D01*
X32735500Y-16948160D01*
X32735500Y-16948178D01*
X27410608Y-16948178D01*
X27416047Y-16942739D01*
X27546568Y-16756334D01*
X27642739Y-16550096D01*
X27701635Y-16330292D01*
X27721468Y-16103600D01*
X27701635Y-15876908D01*
X27657027Y-15710427D01*
X27644141Y-15662336D01*
X27644140Y-15662334D01*
X27642739Y-15657104D01*
X27546568Y-15450866D01*
X27416047Y-15264461D01*
X27255139Y-15103553D01*
X27184609Y-15054168D01*
X27073173Y-14976140D01*
X27073171Y-14976139D01*
X27068734Y-14973032D01*
X26895236Y-14892128D01*
X26867405Y-14879150D01*
X26867403Y-14879149D01*
X26862496Y-14876861D01*
X26857271Y-14875461D01*
X26857263Y-14875458D01*
X26647916Y-14819364D01*
X26647907Y-14819362D01*
X26642692Y-14817965D01*
X26637304Y-14817493D01*
X26637301Y-14817493D01*
X26421395Y-14798604D01*
X26416000Y-14798132D01*
X26410605Y-14798604D01*
X26194698Y-14817493D01*
X26194693Y-14817493D01*
X26189308Y-14817965D01*
X26184094Y-14819362D01*
X26184083Y-14819364D01*
X25974736Y-14875458D01*
X25974724Y-14875462D01*
X25969504Y-14876861D01*
X25964599Y-14879147D01*
X25964594Y-14879150D01*
X25768176Y-14970742D01*
X25768172Y-14970744D01*
X25763266Y-14973032D01*
X25758833Y-14976135D01*
X25758826Y-14976140D01*
X25581296Y-15100447D01*
X25581291Y-15100450D01*
X25576861Y-15103553D01*
X25573037Y-15107376D01*
X25573031Y-15107382D01*
X25419782Y-15260631D01*
X25419776Y-15260637D01*
X25415953Y-15264461D01*
X25412850Y-15268891D01*
X25412847Y-15268896D01*
X25288540Y-15446426D01*
X25288535Y-15446433D01*
X25285432Y-15450866D01*
X25283144Y-15455772D01*
X25283142Y-15455776D01*
X25191550Y-15652194D01*
X25191547Y-15652199D01*
X25189261Y-15657104D01*
X25187862Y-15662324D01*
X25187858Y-15662336D01*
X25131764Y-15871683D01*
X25131762Y-15871694D01*
X25130365Y-15876908D01*
X25129893Y-15882293D01*
X25129893Y-15882298D01*
X25120358Y-15991289D01*
X25110532Y-16103600D01*
X18924300Y-16103600D01*
X18924300Y-13761652D01*
X18933739Y-13714199D01*
X18960619Y-13673971D01*
X19680679Y-12953911D01*
X23399711Y-9234878D01*
X23407881Y-9227444D01*
X23414277Y-9223386D01*
X23460318Y-9174356D01*
X23462935Y-9171654D01*
X23482520Y-9152071D01*
X23484985Y-9148892D01*
X23492567Y-9140016D01*
X23522462Y-9108182D01*
X23532113Y-9090623D01*
X23542790Y-9074370D01*
X23555073Y-9058536D01*
X23572426Y-9018432D01*
X23577558Y-9007961D01*
X23594835Y-8976535D01*
X23594835Y-8976534D01*
X23598597Y-8969692D01*
X23603577Y-8950291D01*
X23609881Y-8931881D01*
X23617838Y-8913496D01*
X23624672Y-8870341D01*
X23627038Y-8858921D01*
X23635960Y-8824174D01*
X23637900Y-8816619D01*
X23637900Y-8796583D01*
X23639425Y-8777197D01*
X23642560Y-8757404D01*
X23638450Y-8713924D01*
X23637900Y-8702255D01*
X23637900Y-5997226D01*
X23651911Y-5939969D01*
X23690777Y-5895651D01*
X23694669Y-5892926D01*
X23883801Y-5760495D01*
X24050895Y-5593401D01*
X24186435Y-5399829D01*
X24264509Y-5232400D01*
X27861651Y-5232400D01*
X27861998Y-5237031D01*
X27880289Y-5481122D01*
X27881817Y-5501503D01*
X27882847Y-5506016D01*
X27882848Y-5506022D01*
X27940056Y-5756665D01*
X27941866Y-5764595D01*
X27943562Y-5768918D01*
X27943563Y-5768919D01*
X27992235Y-5892933D01*
X28040457Y-6015798D01*
X28175385Y-6249502D01*
X28343639Y-6460485D01*
X28347043Y-6463643D01*
X28528560Y-6632067D01*
X28541459Y-6644035D01*
X28764426Y-6796051D01*
X29007559Y-6913138D01*
X29011987Y-6914503D01*
X29011990Y-6914505D01*
X29099578Y-6941522D01*
X29265428Y-6992680D01*
X29532271Y-7032900D01*
X29797492Y-7032900D01*
X29802129Y-7032900D01*
X30068972Y-6992680D01*
X30326841Y-6913138D01*
X30569975Y-6796051D01*
X30792941Y-6644035D01*
X30865276Y-6576918D01*
X32947200Y-6576918D01*
X32947553Y-6583514D01*
X32952773Y-6632067D01*
X32956311Y-6647041D01*
X33000747Y-6766177D01*
X33009162Y-6781589D01*
X33084698Y-6882492D01*
X33097107Y-6894901D01*
X33198010Y-6970437D01*
X33213422Y-6978852D01*
X33332558Y-7023288D01*
X33347532Y-7026826D01*
X33396085Y-7032046D01*
X33402682Y-7032400D01*
X34480874Y-7032400D01*
X34493749Y-7028949D01*
X34497200Y-7016074D01*
X34997200Y-7016074D01*
X35000650Y-7028949D01*
X35013526Y-7032400D01*
X36091718Y-7032400D01*
X36098314Y-7032046D01*
X36146867Y-7026826D01*
X36161841Y-7023288D01*
X36280977Y-6978852D01*
X36296389Y-6970437D01*
X36397292Y-6894901D01*
X36409701Y-6882492D01*
X36485237Y-6781589D01*
X36493652Y-6766177D01*
X36538088Y-6647041D01*
X36541626Y-6632067D01*
X36546846Y-6583514D01*
X36547200Y-6576918D01*
X36547200Y-5498726D01*
X36543749Y-5485850D01*
X36530874Y-5482400D01*
X35013526Y-5482400D01*
X35000650Y-5485850D01*
X34997200Y-5498726D01*
X34997200Y-7016074D01*
X34497200Y-7016074D01*
X34497200Y-5498726D01*
X34493749Y-5485850D01*
X34480874Y-5482400D01*
X32963526Y-5482400D01*
X32950650Y-5485850D01*
X32947200Y-5498726D01*
X32947200Y-6576918D01*
X30865276Y-6576918D01*
X30990761Y-6460485D01*
X31159015Y-6249502D01*
X31293943Y-6015798D01*
X31392534Y-5764595D01*
X31452583Y-5501503D01*
X31472749Y-5232400D01*
X31452791Y-4966074D01*
X32947200Y-4966074D01*
X32950650Y-4978949D01*
X32963526Y-4982400D01*
X34480874Y-4982400D01*
X34493749Y-4978949D01*
X34497200Y-4966074D01*
X34997200Y-4966074D01*
X35000650Y-4978949D01*
X35013526Y-4982400D01*
X36530874Y-4982400D01*
X36543749Y-4978949D01*
X36547200Y-4966074D01*
X36547200Y-3887882D01*
X36546846Y-3881285D01*
X36541626Y-3832732D01*
X36538088Y-3817758D01*
X36493652Y-3698622D01*
X36485237Y-3683210D01*
X36409701Y-3582307D01*
X36397292Y-3569898D01*
X36296389Y-3494362D01*
X36280977Y-3485947D01*
X36161841Y-3441511D01*
X36146867Y-3437973D01*
X36098314Y-3432753D01*
X36091718Y-3432400D01*
X35013526Y-3432400D01*
X35000650Y-3435850D01*
X34997200Y-3448726D01*
X34997200Y-4966074D01*
X34497200Y-4966074D01*
X34497200Y-3448726D01*
X34493749Y-3435850D01*
X34480874Y-3432400D01*
X33402682Y-3432400D01*
X33396085Y-3432753D01*
X33347532Y-3437973D01*
X33332558Y-3441511D01*
X33213422Y-3485947D01*
X33198010Y-3494362D01*
X33097107Y-3569898D01*
X33084698Y-3582307D01*
X33009162Y-3683210D01*
X33000747Y-3698622D01*
X32956311Y-3817758D01*
X32952773Y-3832732D01*
X32947553Y-3881285D01*
X32947200Y-3887882D01*
X32947200Y-4966074D01*
X31452791Y-4966074D01*
X31452583Y-4963297D01*
X31392534Y-4700205D01*
X31293943Y-4449002D01*
X31159015Y-4215298D01*
X30990761Y-4004315D01*
X30853079Y-3876565D01*
X30796346Y-3823924D01*
X30796343Y-3823921D01*
X30792941Y-3820765D01*
X30789112Y-3818154D01*
X30789109Y-3818152D01*
X30649511Y-3722976D01*
X30569975Y-3668749D01*
X30565789Y-3666733D01*
X30331020Y-3553674D01*
X30331014Y-3553671D01*
X30326841Y-3551662D01*
X30322419Y-3550298D01*
X30322409Y-3550294D01*
X30073402Y-3473486D01*
X30073396Y-3473484D01*
X30068972Y-3472120D01*
X30064395Y-3471430D01*
X30064386Y-3471428D01*
X29806714Y-3432591D01*
X29806713Y-3432590D01*
X29802129Y-3431900D01*
X29532271Y-3431900D01*
X29527687Y-3432590D01*
X29527685Y-3432591D01*
X29270013Y-3471428D01*
X29270001Y-3471430D01*
X29265428Y-3472120D01*
X29261006Y-3473483D01*
X29260997Y-3473486D01*
X29011990Y-3550294D01*
X29011975Y-3550299D01*
X29007559Y-3551662D01*
X29003385Y-3553671D01*
X29003380Y-3553674D01*
X28768611Y-3666733D01*
X28768604Y-3666736D01*
X28764426Y-3668749D01*
X28760593Y-3671362D01*
X28760590Y-3671364D01*
X28545290Y-3818152D01*
X28545280Y-3818159D01*
X28541459Y-3820765D01*
X28538063Y-3823916D01*
X28538053Y-3823924D01*
X28347043Y-4001156D01*
X28347039Y-4001159D01*
X28343639Y-4004315D01*
X28340749Y-4007937D01*
X28340746Y-4007942D01*
X28198277Y-4186592D01*
X28175385Y-4215298D01*
X28173066Y-4219313D01*
X28173065Y-4219316D01*
X28042778Y-4444981D01*
X28042775Y-4444986D01*
X28040457Y-4449002D01*
X28038763Y-4453316D01*
X28038761Y-4453322D01*
X27943563Y-4695880D01*
X27941866Y-4700205D01*
X27940833Y-4704726D01*
X27940832Y-4704733D01*
X27882848Y-4958777D01*
X27882846Y-4958785D01*
X27881817Y-4963297D01*
X27881470Y-4967916D01*
X27881470Y-4967922D01*
X27861998Y-5227769D01*
X27861651Y-5232400D01*
X24264509Y-5232400D01*
X24286303Y-5185663D01*
X24347463Y-4957408D01*
X24362900Y-4780966D01*
X24362900Y-4363034D01*
X24347463Y-4186592D01*
X24297701Y-4000874D01*
X24287705Y-3963569D01*
X24287704Y-3963567D01*
X24286303Y-3958337D01*
X24186435Y-3744171D01*
X24050895Y-3550599D01*
X23883801Y-3383505D01*
X23879370Y-3380402D01*
X23879366Y-3380399D01*
X23694659Y-3251066D01*
X23694657Y-3251064D01*
X23690230Y-3247965D01*
X23685333Y-3245681D01*
X23685327Y-3245678D01*
X23480972Y-3150386D01*
X23480970Y-3150385D01*
X23476063Y-3148097D01*
X23470838Y-3146697D01*
X23470830Y-3146694D01*
X23253034Y-3088337D01*
X23253030Y-3088336D01*
X23247808Y-3086937D01*
X23242420Y-3086465D01*
X23242417Y-3086465D01*
X23156130Y-3078915D01*
X23114534Y-3067769D01*
X23079258Y-3043068D01*
X22364009Y-2327819D01*
X21630086Y-1593895D01*
X21622642Y-1585714D01*
X21618586Y-1579323D01*
X21569575Y-1533298D01*
X21566778Y-1530587D01*
X21550027Y-1513836D01*
X21550026Y-1513835D01*
X21547271Y-1511080D01*
X21544090Y-1508612D01*
X21535214Y-1501030D01*
X21509069Y-1476478D01*
X21509067Y-1476476D01*
X21503382Y-1471138D01*
X21496549Y-1467382D01*
X21496543Y-1467377D01*
X21485825Y-1461485D01*
X21469566Y-1450806D01*
X21459895Y-1443304D01*
X21459892Y-1443302D01*
X21453736Y-1438527D01*
X21446579Y-1435429D01*
X21446576Y-1435428D01*
X21413649Y-1421178D01*
X21403163Y-1416041D01*
X21371732Y-1398762D01*
X21371723Y-1398758D01*
X21364892Y-1395003D01*
X21357335Y-1393062D01*
X21357331Y-1393061D01*
X21345488Y-1390020D01*
X21327084Y-1383719D01*
X21315857Y-1378860D01*
X21315850Y-1378858D01*
X21308696Y-1375762D01*
X21300992Y-1374541D01*
X21300990Y-1374541D01*
X21265559Y-1368929D01*
X21254124Y-1366561D01*
X21219371Y-1357638D01*
X21219363Y-1357637D01*
X21211819Y-1355700D01*
X21204023Y-1355700D01*
X21191783Y-1355700D01*
X21172397Y-1354174D01*
X21152604Y-1351040D01*
X21144838Y-1351774D01*
X21144835Y-1351774D01*
X21109124Y-1355150D01*
X21097455Y-1355700D01*
X14047771Y-1355700D01*
X14036718Y-1355179D01*
X14029332Y-1353528D01*
X14021534Y-1353773D01*
X13962144Y-1355639D01*
X13958250Y-1355700D01*
X13930650Y-1355700D01*
X13926799Y-1356186D01*
X13926768Y-1356188D01*
X13926640Y-1356205D01*
X13915029Y-1357118D01*
X13879172Y-1358245D01*
X13879165Y-1358246D01*
X13871373Y-1358491D01*
X13863888Y-1360665D01*
X13863872Y-1360668D01*
X13852126Y-1364081D01*
X13833083Y-1368025D01*
X13820949Y-1369558D01*
X13820948Y-1369558D01*
X13813208Y-1370536D01*
X13805958Y-1373405D01*
X13805951Y-1373408D01*
X13772598Y-1386613D01*
X13761554Y-1390394D01*
X13727105Y-1400403D01*
X13727095Y-1400407D01*
X13719610Y-1402582D01*
X13712900Y-1406549D01*
X13712898Y-1406551D01*
X13709505Y-1408557D01*
X13702360Y-1412783D01*
X13684900Y-1421336D01*
X13666268Y-1428714D01*
X13659965Y-1433292D01*
X13659958Y-1433297D01*
X13630939Y-1454381D01*
X13621179Y-1460792D01*
X13590294Y-1479057D01*
X13590284Y-1479064D01*
X13583579Y-1483030D01*
X13578063Y-1488545D01*
X13578060Y-1488548D01*
X13569407Y-1497200D01*
X13554624Y-1509826D01*
X13544727Y-1517017D01*
X13544720Y-1517023D01*
X13538413Y-1521606D01*
X13533446Y-1527608D01*
X13533435Y-1527620D01*
X13510570Y-1555259D01*
X13502710Y-1563897D01*
X12312696Y-2753911D01*
X12304511Y-2761359D01*
X12298123Y-2765414D01*
X12292788Y-2771094D01*
X12292783Y-2771099D01*
X12252096Y-2814425D01*
X12249392Y-2817216D01*
X12232628Y-2833980D01*
X12232621Y-2833987D01*
X12229880Y-2836729D01*
X12227500Y-2839796D01*
X12227489Y-2839809D01*
X12227400Y-2839925D01*
X12219842Y-2848770D01*
X12195280Y-2874927D01*
X12195273Y-2874936D01*
X12189938Y-2880618D01*
X12186182Y-2887449D01*
X12186179Y-2887454D01*
X12180285Y-2898175D01*
X12169609Y-2914427D01*
X12162109Y-2924096D01*
X12162101Y-2924107D01*
X12157327Y-2930264D01*
X12154234Y-2937408D01*
X12154229Y-2937419D01*
X12139974Y-2970360D01*
X12134838Y-2980843D01*
X12117560Y-3012273D01*
X12113803Y-3019108D01*
X12111864Y-3026656D01*
X12111863Y-3026661D01*
X12108822Y-3038507D01*
X12102521Y-3056911D01*
X12097658Y-3068148D01*
X12097656Y-3068152D01*
X12094562Y-3075304D01*
X12093342Y-3083003D01*
X12093342Y-3083005D01*
X12087729Y-3118441D01*
X12085361Y-3129876D01*
X12074500Y-3172180D01*
X12072728Y-3171725D01*
X12057252Y-3213323D01*
X12021457Y-3246945D01*
X12022171Y-3247965D01*
X11833034Y-3380399D01*
X11833029Y-3380402D01*
X11828599Y-3383505D01*
X11824775Y-3387329D01*
X11680460Y-3531644D01*
X11630065Y-3562223D01*
X11571244Y-3566078D01*
X11517290Y-3542336D01*
X11485204Y-3502355D01*
X11484358Y-3502878D01*
X11396109Y-3359805D01*
X11387205Y-3348544D01*
X11273455Y-3234794D01*
X11262194Y-3225890D01*
X11125266Y-3141432D01*
X11112267Y-3135370D01*
X10959125Y-3084624D01*
X10945958Y-3081805D01*
X10853109Y-3072319D01*
X10846832Y-3072000D01*
X10466326Y-3072000D01*
X10453450Y-3075450D01*
X10450000Y-3088326D01*
X10450000Y-6055673D01*
X9950000Y-6055673D01*
X9950000Y-4838326D01*
X9946549Y-4825450D01*
X9933674Y-4822000D01*
X8866327Y-4822000D01*
X8853451Y-4825450D01*
X8850001Y-4838326D01*
X8850001Y-5368829D01*
X406400Y-5368829D01*
X406400Y-2946400D01*
X1447212Y-2946400D01*
X1447528Y-2950818D01*
X1466024Y-3209442D01*
X1466025Y-3209451D01*
X1466341Y-3213865D01*
X1467281Y-3218190D01*
X1467283Y-3218198D01*
X1513772Y-3431900D01*
X1523340Y-3475885D01*
X1524883Y-3480024D01*
X1524885Y-3480028D01*
X1597995Y-3676041D01*
X1617049Y-3727126D01*
X1619169Y-3731008D01*
X1619172Y-3731015D01*
X1743431Y-3958580D01*
X1743435Y-3958587D01*
X1745558Y-3962474D01*
X1748215Y-3966023D01*
X1903600Y-4173594D01*
X1903605Y-4173600D01*
X1906253Y-4177137D01*
X2095863Y-4366747D01*
X2099400Y-4369395D01*
X2099405Y-4369399D01*
X2161620Y-4415972D01*
X2310526Y-4527442D01*
X2314416Y-4529566D01*
X2314419Y-4529568D01*
X2539752Y-4652608D01*
X2545874Y-4655951D01*
X2797115Y-4749660D01*
X3059135Y-4806659D01*
X3326600Y-4825788D01*
X3594065Y-4806659D01*
X3856085Y-4749660D01*
X4107326Y-4655951D01*
X4342674Y-4527442D01*
X4557337Y-4366747D01*
X4618410Y-4305674D01*
X8850000Y-4305674D01*
X8853450Y-4318549D01*
X8866326Y-4322000D01*
X9933674Y-4322000D01*
X9946549Y-4318549D01*
X9950000Y-4305674D01*
X9950000Y-3088327D01*
X9946549Y-3075451D01*
X9933674Y-3072001D01*
X9553171Y-3072001D01*
X9546888Y-3072321D01*
X9454040Y-3081805D01*
X9440877Y-3084623D01*
X9287732Y-3135370D01*
X9274733Y-3141432D01*
X9137805Y-3225890D01*
X9126544Y-3234794D01*
X9012794Y-3348544D01*
X9003890Y-3359805D01*
X8919432Y-3496733D01*
X8913370Y-3509732D01*
X8862624Y-3662874D01*
X8859805Y-3676041D01*
X8850319Y-3768890D01*
X8850000Y-3775168D01*
X8850000Y-4305674D01*
X4618410Y-4305674D01*
X4746947Y-4177137D01*
X4907642Y-3962474D01*
X5036151Y-3727126D01*
X5129860Y-3475885D01*
X5186859Y-3213865D01*
X5205988Y-2946400D01*
X5186859Y-2678935D01*
X5129860Y-2416915D01*
X5036151Y-2165674D01*
X5028777Y-2152170D01*
X4909768Y-1934219D01*
X4909766Y-1934216D01*
X4907642Y-1930326D01*
X4784726Y-1766130D01*
X4749599Y-1719205D01*
X4749595Y-1719200D01*
X4746947Y-1715663D01*
X4557337Y-1526053D01*
X4553800Y-1523405D01*
X4553794Y-1523400D01*
X4392399Y-1402582D01*
X4342674Y-1365358D01*
X4338787Y-1363235D01*
X4338780Y-1363231D01*
X4111215Y-1238972D01*
X4111208Y-1238969D01*
X4107326Y-1236849D01*
X4103176Y-1235301D01*
X3860228Y-1144685D01*
X3860224Y-1144683D01*
X3856085Y-1143140D01*
X3779133Y-1126400D01*
X3598398Y-1087083D01*
X3598390Y-1087081D01*
X3594065Y-1086141D01*
X3589651Y-1085825D01*
X3589642Y-1085824D01*
X3331018Y-1067328D01*
X3326600Y-1067012D01*
X3322182Y-1067328D01*
X3063557Y-1085824D01*
X3063546Y-1085825D01*
X3059135Y-1086141D01*
X3054811Y-1087081D01*
X3054801Y-1087083D01*
X2801440Y-1142199D01*
X2801437Y-1142199D01*
X2797115Y-1143140D01*
X2792979Y-1144682D01*
X2792971Y-1144685D01*
X2550023Y-1235301D01*
X2550017Y-1235303D01*
X2545874Y-1236849D01*
X2541996Y-1238966D01*
X2541984Y-1238972D01*
X2314419Y-1363231D01*
X2314405Y-1363239D01*
X2310526Y-1365358D01*
X2306980Y-1368011D01*
X2306976Y-1368015D01*
X2099405Y-1523400D01*
X2099392Y-1523410D01*
X2095863Y-1526053D01*
X2092737Y-1529178D01*
X2092730Y-1529185D01*
X1909385Y-1712530D01*
X1909378Y-1712537D01*
X1906253Y-1715663D01*
X1903610Y-1719192D01*
X1903600Y-1719205D01*
X1748215Y-1926776D01*
X1748211Y-1926780D01*
X1745558Y-1930326D01*
X1743439Y-1934205D01*
X1743431Y-1934219D01*
X1619172Y-2161784D01*
X1619166Y-2161796D01*
X1617049Y-2165674D01*
X1615503Y-2169817D01*
X1615501Y-2169823D01*
X1524885Y-2412771D01*
X1524882Y-2412779D01*
X1523340Y-2416915D01*
X1522399Y-2421237D01*
X1522399Y-2421240D01*
X1467283Y-2674601D01*
X1467281Y-2674611D01*
X1466341Y-2678935D01*
X1466025Y-2683346D01*
X1466024Y-2683357D01*
X1449838Y-2909682D01*
X1447212Y-2946400D01*
X406400Y-2946400D01*
X406400Y-174879D01*
X423026Y-112856D01*
X468446Y-67466D01*
X530479Y-50879D01*
X23608793Y-65559D01*
G37*
%TD.AperFunction*%
%TD*%
M02*
