%TF.GenerationSoftware,KiCad,Pcbnew,(7.0.0-0)*%
%TF.CreationDate,2023-08-10T08:46:55-05:00*%
%TF.ProjectId,DingoPCB,44696e67-6f50-4434-922e-6b696361645f,rev?*%
%TF.SameCoordinates,Original*%
%TF.FileFunction,Drillmap*%
%TF.FilePolarity,Positive*%
%FSLAX45Y45*%
G04 Gerber Fmt 4.5, Leading zero omitted, Abs format (unit mm)*
G04 Created by KiCad (PCBNEW (7.0.0-0)) date 2023-08-10 08:46:55*
%MOMM*%
%LPD*%
G01*
G04 APERTURE LIST*
%ADD10C,0.100000*%
%ADD11C,0.200000*%
%ADD12C,0.070000*%
%ADD13C,0.080000*%
%ADD14C,0.130000*%
G04 APERTURE END LIST*
D10*
X1775100Y-1925320D02*
X9775100Y-1925320D01*
X9775100Y-1925320D02*
X9775100Y-5925320D01*
X9775100Y-5925320D02*
X1775100Y-5925320D01*
X1775100Y-5925320D02*
X1775100Y-1925320D01*
X2262510Y-2219960D02*
G75*
G03*
X2262510Y-2219960I-187410J0D01*
G01*
X2229850Y-5625320D02*
G75*
G03*
X2229850Y-5625320I-187410J0D01*
G01*
X9629850Y-5625320D02*
G75*
G03*
X9629850Y-5625320I-187410J0D01*
G01*
X9629850Y-2225320D02*
G75*
G03*
X9629850Y-2225320I-187410J0D01*
G01*
D11*
D12*
X5619040Y-3495600D02*
X5689040Y-3565600D01*
X5689040Y-3495600D02*
X5619040Y-3565600D01*
X5873040Y-3495600D02*
X5943040Y-3565600D01*
X5943040Y-3495600D02*
X5873040Y-3565600D01*
X6380960Y-3495600D02*
X6450960Y-3565600D01*
X6450960Y-3495600D02*
X6380960Y-3565600D01*
X6634960Y-3495600D02*
X6704960Y-3565600D01*
X6704960Y-3495600D02*
X6634960Y-3565600D01*
D13*
X4424040Y-3535680D02*
G75*
G03*
X4424040Y-3535680I-40000J0D01*
G01*
X5186040Y-3535680D02*
G75*
G03*
X5186040Y-3535680I-40000J0D01*
G01*
D10*
X2762440Y-2332520D02*
X2762440Y-2432520D01*
X2712440Y-2382520D02*
X2812440Y-2382520D01*
X2823400Y-5375440D02*
X2823400Y-5475440D01*
X2773400Y-5425440D02*
X2873400Y-5425440D01*
X3012440Y-2332520D02*
X3012440Y-2432520D01*
X2962440Y-2382520D02*
X3062440Y-2382520D01*
X3073400Y-5375440D02*
X3073400Y-5475440D01*
X3023400Y-5425440D02*
X3123400Y-5425440D01*
X3322320Y-4029240D02*
X3322320Y-4129240D01*
X3272320Y-4079240D02*
X3372320Y-4079240D01*
X3572320Y-4029240D02*
X3572320Y-4129240D01*
X3522320Y-4079240D02*
X3622320Y-4079240D01*
X3793680Y-2332520D02*
X3793680Y-2432520D01*
X3743680Y-2382520D02*
X3843680Y-2382520D01*
X4043680Y-2332520D02*
X4043680Y-2432520D01*
X3993680Y-2382520D02*
X4093680Y-2382520D01*
X4276280Y-4029240D02*
X4276280Y-4129240D01*
X4226280Y-4079240D02*
X4326280Y-4079240D01*
X4526280Y-4029240D02*
X4526280Y-4129240D01*
X4476280Y-4079240D02*
X4576280Y-4079240D01*
X5175440Y-4029240D02*
X5175440Y-4129240D01*
X5125440Y-4079240D02*
X5225440Y-4079240D01*
X5425440Y-4029240D02*
X5425440Y-4129240D01*
X5375440Y-4079240D02*
X5475440Y-4079240D01*
X6055360Y-4029240D02*
X6055360Y-4129240D01*
X6005360Y-4079240D02*
X6105360Y-4079240D01*
X6305360Y-4029240D02*
X6305360Y-4129240D01*
X6255360Y-4079240D02*
X6355360Y-4079240D01*
X6939280Y-4029240D02*
X6939280Y-4129240D01*
X6889280Y-4079240D02*
X6989280Y-4079240D01*
X7189280Y-4029240D02*
X7189280Y-4129240D01*
X7139280Y-4079240D02*
X7239280Y-4079240D01*
X7604760Y-5370360D02*
X7604760Y-5470360D01*
X7554760Y-5420360D02*
X7654760Y-5420360D01*
X7828280Y-4034320D02*
X7828280Y-4134320D01*
X7778280Y-4084320D02*
X7878280Y-4084320D01*
X7854760Y-5370360D02*
X7854760Y-5470360D01*
X7804760Y-5420360D02*
X7904760Y-5420360D01*
X8078280Y-4034320D02*
X8078280Y-4134320D01*
X8028280Y-4084320D02*
X8128280Y-4084320D01*
X8432800Y-2302040D02*
X8432800Y-2402040D01*
X8382800Y-2352040D02*
X8482800Y-2352040D01*
X8554720Y-5370360D02*
X8554720Y-5470360D01*
X8504720Y-5420360D02*
X8604720Y-5420360D01*
X8682800Y-2302040D02*
X8682800Y-2402040D01*
X8632800Y-2352040D02*
X8732800Y-2352040D01*
X8804720Y-5370360D02*
X8804720Y-5470360D01*
X8754720Y-5420360D02*
X8854720Y-5420360D01*
D14*
X2342122Y-3901682D02*
X2342122Y-3809758D01*
X2250198Y-3809758D01*
X2250198Y-3901682D01*
X2342122Y-3901682D01*
X2342122Y-4409682D02*
X2342122Y-4317758D01*
X2250198Y-4317758D01*
X2250198Y-4409682D01*
X2342122Y-4409682D01*
X4049002Y-5451082D02*
X4049002Y-5359158D01*
X3957078Y-5359158D01*
X3957078Y-5451082D01*
X4049002Y-5451082D01*
X4557002Y-5451082D02*
X4557002Y-5359158D01*
X4465078Y-5359158D01*
X4465078Y-5451082D01*
X4557002Y-5451082D01*
X4831322Y-2494522D02*
X4831322Y-2402598D01*
X4739398Y-2402598D01*
X4739398Y-2494522D01*
X4831322Y-2494522D01*
X5171682Y-5451082D02*
X5171682Y-5359158D01*
X5079758Y-5359158D01*
X5079758Y-5451082D01*
X5171682Y-5451082D01*
X5339322Y-2494522D02*
X5339322Y-2402598D01*
X5247398Y-2402598D01*
X5247398Y-2494522D01*
X5339322Y-2494522D01*
X5679682Y-5451082D02*
X5679682Y-5359158D01*
X5587758Y-5359158D01*
X5587758Y-5451082D01*
X5679682Y-5451082D01*
X5954002Y-2494522D02*
X5954002Y-2402598D01*
X5862078Y-2402598D01*
X5862078Y-2494522D01*
X5954002Y-2494522D01*
X6293862Y-5451102D02*
X6293862Y-5359178D01*
X6201938Y-5359178D01*
X6201938Y-5451102D01*
X6293862Y-5451102D01*
X6462002Y-2494522D02*
X6462002Y-2402598D01*
X6370078Y-2402598D01*
X6370078Y-2494522D01*
X6462002Y-2494522D01*
X6801862Y-5451102D02*
X6801862Y-5359178D01*
X6709938Y-5359178D01*
X6709938Y-5451102D01*
X6801862Y-5451102D01*
X7076682Y-2494522D02*
X7076682Y-2402598D01*
X6984758Y-2402598D01*
X6984758Y-2494522D01*
X7076682Y-2494522D01*
X7584682Y-2494522D02*
X7584682Y-2402598D01*
X7492758Y-2402598D01*
X7492758Y-2494522D01*
X7584682Y-2494522D01*
X9286482Y-3952482D02*
X9286482Y-3860558D01*
X9194558Y-3860558D01*
X9194558Y-3952482D01*
X9286482Y-3952482D01*
X9286482Y-4460482D02*
X9286482Y-4368558D01*
X9194558Y-4368558D01*
X9194558Y-4460482D01*
X9286482Y-4460482D01*
D11*
X2017719Y-6223796D02*
X2017719Y-6023796D01*
X2017719Y-6023796D02*
X2065338Y-6023796D01*
X2065338Y-6023796D02*
X2093909Y-6033320D01*
X2093909Y-6033320D02*
X2112957Y-6052368D01*
X2112957Y-6052368D02*
X2122481Y-6071415D01*
X2122481Y-6071415D02*
X2132005Y-6109510D01*
X2132005Y-6109510D02*
X2132005Y-6138082D01*
X2132005Y-6138082D02*
X2122481Y-6176177D01*
X2122481Y-6176177D02*
X2112957Y-6195225D01*
X2112957Y-6195225D02*
X2093909Y-6214272D01*
X2093909Y-6214272D02*
X2065338Y-6223796D01*
X2065338Y-6223796D02*
X2017719Y-6223796D01*
X2217719Y-6223796D02*
X2217719Y-6090463D01*
X2217719Y-6128558D02*
X2227243Y-6109510D01*
X2227243Y-6109510D02*
X2236767Y-6099987D01*
X2236767Y-6099987D02*
X2255814Y-6090463D01*
X2255814Y-6090463D02*
X2274862Y-6090463D01*
X2341529Y-6223796D02*
X2341529Y-6090463D01*
X2341529Y-6023796D02*
X2332005Y-6033320D01*
X2332005Y-6033320D02*
X2341529Y-6042844D01*
X2341529Y-6042844D02*
X2351052Y-6033320D01*
X2351052Y-6033320D02*
X2341529Y-6023796D01*
X2341529Y-6023796D02*
X2341529Y-6042844D01*
X2465338Y-6223796D02*
X2446290Y-6214272D01*
X2446290Y-6214272D02*
X2436767Y-6195225D01*
X2436767Y-6195225D02*
X2436767Y-6023796D01*
X2570100Y-6223796D02*
X2551052Y-6214272D01*
X2551052Y-6214272D02*
X2541529Y-6195225D01*
X2541529Y-6195225D02*
X2541529Y-6023796D01*
X2766290Y-6223796D02*
X2766290Y-6023796D01*
X2766290Y-6023796D02*
X2832957Y-6166653D01*
X2832957Y-6166653D02*
X2899624Y-6023796D01*
X2899624Y-6023796D02*
X2899624Y-6223796D01*
X3080576Y-6223796D02*
X3080576Y-6119034D01*
X3080576Y-6119034D02*
X3071052Y-6099987D01*
X3071052Y-6099987D02*
X3052005Y-6090463D01*
X3052005Y-6090463D02*
X3013909Y-6090463D01*
X3013909Y-6090463D02*
X2994862Y-6099987D01*
X3080576Y-6214272D02*
X3061528Y-6223796D01*
X3061528Y-6223796D02*
X3013909Y-6223796D01*
X3013909Y-6223796D02*
X2994862Y-6214272D01*
X2994862Y-6214272D02*
X2985338Y-6195225D01*
X2985338Y-6195225D02*
X2985338Y-6176177D01*
X2985338Y-6176177D02*
X2994862Y-6157129D01*
X2994862Y-6157129D02*
X3013909Y-6147606D01*
X3013909Y-6147606D02*
X3061528Y-6147606D01*
X3061528Y-6147606D02*
X3080576Y-6138082D01*
X3175814Y-6090463D02*
X3175814Y-6290463D01*
X3175814Y-6099987D02*
X3194862Y-6090463D01*
X3194862Y-6090463D02*
X3232957Y-6090463D01*
X3232957Y-6090463D02*
X3252005Y-6099987D01*
X3252005Y-6099987D02*
X3261528Y-6109510D01*
X3261528Y-6109510D02*
X3271052Y-6128558D01*
X3271052Y-6128558D02*
X3271052Y-6185701D01*
X3271052Y-6185701D02*
X3261528Y-6204748D01*
X3261528Y-6204748D02*
X3252005Y-6214272D01*
X3252005Y-6214272D02*
X3232957Y-6223796D01*
X3232957Y-6223796D02*
X3194862Y-6223796D01*
X3194862Y-6223796D02*
X3175814Y-6214272D01*
X3356767Y-6204748D02*
X3366290Y-6214272D01*
X3366290Y-6214272D02*
X3356767Y-6223796D01*
X3356767Y-6223796D02*
X3347243Y-6214272D01*
X3347243Y-6214272D02*
X3356767Y-6204748D01*
X3356767Y-6204748D02*
X3356767Y-6223796D01*
X3356767Y-6099987D02*
X3366290Y-6109510D01*
X3366290Y-6109510D02*
X3356767Y-6119034D01*
X3356767Y-6119034D02*
X3347243Y-6109510D01*
X3347243Y-6109510D02*
X3356767Y-6099987D01*
X3356767Y-6099987D02*
X3356767Y-6119034D01*
D12*
X1700100Y-6535320D02*
X1770100Y-6605320D01*
X1770100Y-6535320D02*
X1700100Y-6605320D01*
D11*
X2055814Y-6443796D02*
X2074862Y-6443796D01*
X2074862Y-6443796D02*
X2093909Y-6453320D01*
X2093909Y-6453320D02*
X2103433Y-6462844D01*
X2103433Y-6462844D02*
X2112957Y-6481891D01*
X2112957Y-6481891D02*
X2122481Y-6519987D01*
X2122481Y-6519987D02*
X2122481Y-6567606D01*
X2122481Y-6567606D02*
X2112957Y-6605701D01*
X2112957Y-6605701D02*
X2103433Y-6624748D01*
X2103433Y-6624748D02*
X2093909Y-6634272D01*
X2093909Y-6634272D02*
X2074862Y-6643796D01*
X2074862Y-6643796D02*
X2055814Y-6643796D01*
X2055814Y-6643796D02*
X2036767Y-6634272D01*
X2036767Y-6634272D02*
X2027243Y-6624748D01*
X2027243Y-6624748D02*
X2017719Y-6605701D01*
X2017719Y-6605701D02*
X2008195Y-6567606D01*
X2008195Y-6567606D02*
X2008195Y-6519987D01*
X2008195Y-6519987D02*
X2017719Y-6481891D01*
X2017719Y-6481891D02*
X2027243Y-6462844D01*
X2027243Y-6462844D02*
X2036767Y-6453320D01*
X2036767Y-6453320D02*
X2055814Y-6443796D01*
X2208195Y-6624748D02*
X2217719Y-6634272D01*
X2217719Y-6634272D02*
X2208195Y-6643796D01*
X2208195Y-6643796D02*
X2198671Y-6634272D01*
X2198671Y-6634272D02*
X2208195Y-6624748D01*
X2208195Y-6624748D02*
X2208195Y-6643796D01*
X2284386Y-6443796D02*
X2417719Y-6443796D01*
X2417719Y-6443796D02*
X2332005Y-6643796D01*
X2532005Y-6443796D02*
X2551052Y-6443796D01*
X2551052Y-6443796D02*
X2570100Y-6453320D01*
X2570100Y-6453320D02*
X2579624Y-6462844D01*
X2579624Y-6462844D02*
X2589148Y-6481891D01*
X2589148Y-6481891D02*
X2598671Y-6519987D01*
X2598671Y-6519987D02*
X2598671Y-6567606D01*
X2598671Y-6567606D02*
X2589148Y-6605701D01*
X2589148Y-6605701D02*
X2579624Y-6624748D01*
X2579624Y-6624748D02*
X2570100Y-6634272D01*
X2570100Y-6634272D02*
X2551052Y-6643796D01*
X2551052Y-6643796D02*
X2532005Y-6643796D01*
X2532005Y-6643796D02*
X2512957Y-6634272D01*
X2512957Y-6634272D02*
X2503433Y-6624748D01*
X2503433Y-6624748D02*
X2493910Y-6605701D01*
X2493910Y-6605701D02*
X2484386Y-6567606D01*
X2484386Y-6567606D02*
X2484386Y-6519987D01*
X2484386Y-6519987D02*
X2493910Y-6481891D01*
X2493910Y-6481891D02*
X2503433Y-6462844D01*
X2503433Y-6462844D02*
X2512957Y-6453320D01*
X2512957Y-6453320D02*
X2532005Y-6443796D01*
X2722481Y-6443796D02*
X2741529Y-6443796D01*
X2741529Y-6443796D02*
X2760576Y-6453320D01*
X2760576Y-6453320D02*
X2770100Y-6462844D01*
X2770100Y-6462844D02*
X2779624Y-6481891D01*
X2779624Y-6481891D02*
X2789148Y-6519987D01*
X2789148Y-6519987D02*
X2789148Y-6567606D01*
X2789148Y-6567606D02*
X2779624Y-6605701D01*
X2779624Y-6605701D02*
X2770100Y-6624748D01*
X2770100Y-6624748D02*
X2760576Y-6634272D01*
X2760576Y-6634272D02*
X2741529Y-6643796D01*
X2741529Y-6643796D02*
X2722481Y-6643796D01*
X2722481Y-6643796D02*
X2703433Y-6634272D01*
X2703433Y-6634272D02*
X2693910Y-6624748D01*
X2693910Y-6624748D02*
X2684386Y-6605701D01*
X2684386Y-6605701D02*
X2674862Y-6567606D01*
X2674862Y-6567606D02*
X2674862Y-6519987D01*
X2674862Y-6519987D02*
X2684386Y-6481891D01*
X2684386Y-6481891D02*
X2693910Y-6462844D01*
X2693910Y-6462844D02*
X2703433Y-6453320D01*
X2703433Y-6453320D02*
X2722481Y-6443796D01*
X2874862Y-6643796D02*
X2874862Y-6510463D01*
X2874862Y-6529510D02*
X2884386Y-6519987D01*
X2884386Y-6519987D02*
X2903433Y-6510463D01*
X2903433Y-6510463D02*
X2932005Y-6510463D01*
X2932005Y-6510463D02*
X2951052Y-6519987D01*
X2951052Y-6519987D02*
X2960576Y-6539034D01*
X2960576Y-6539034D02*
X2960576Y-6643796D01*
X2960576Y-6539034D02*
X2970100Y-6519987D01*
X2970100Y-6519987D02*
X2989148Y-6510463D01*
X2989148Y-6510463D02*
X3017719Y-6510463D01*
X3017719Y-6510463D02*
X3036767Y-6519987D01*
X3036767Y-6519987D02*
X3046290Y-6539034D01*
X3046290Y-6539034D02*
X3046290Y-6643796D01*
X3141529Y-6643796D02*
X3141529Y-6510463D01*
X3141529Y-6529510D02*
X3151052Y-6519987D01*
X3151052Y-6519987D02*
X3170100Y-6510463D01*
X3170100Y-6510463D02*
X3198671Y-6510463D01*
X3198671Y-6510463D02*
X3217719Y-6519987D01*
X3217719Y-6519987D02*
X3227243Y-6539034D01*
X3227243Y-6539034D02*
X3227243Y-6643796D01*
X3227243Y-6539034D02*
X3236767Y-6519987D01*
X3236767Y-6519987D02*
X3255814Y-6510463D01*
X3255814Y-6510463D02*
X3284386Y-6510463D01*
X3284386Y-6510463D02*
X3303433Y-6519987D01*
X3303433Y-6519987D02*
X3312957Y-6539034D01*
X3312957Y-6539034D02*
X3312957Y-6643796D01*
X3671052Y-6434272D02*
X3499624Y-6691415D01*
X3895814Y-6443796D02*
X3914862Y-6443796D01*
X3914862Y-6443796D02*
X3933910Y-6453320D01*
X3933910Y-6453320D02*
X3943433Y-6462844D01*
X3943433Y-6462844D02*
X3952957Y-6481891D01*
X3952957Y-6481891D02*
X3962481Y-6519987D01*
X3962481Y-6519987D02*
X3962481Y-6567606D01*
X3962481Y-6567606D02*
X3952957Y-6605701D01*
X3952957Y-6605701D02*
X3943433Y-6624748D01*
X3943433Y-6624748D02*
X3933910Y-6634272D01*
X3933910Y-6634272D02*
X3914862Y-6643796D01*
X3914862Y-6643796D02*
X3895814Y-6643796D01*
X3895814Y-6643796D02*
X3876767Y-6634272D01*
X3876767Y-6634272D02*
X3867243Y-6624748D01*
X3867243Y-6624748D02*
X3857719Y-6605701D01*
X3857719Y-6605701D02*
X3848195Y-6567606D01*
X3848195Y-6567606D02*
X3848195Y-6519987D01*
X3848195Y-6519987D02*
X3857719Y-6481891D01*
X3857719Y-6481891D02*
X3867243Y-6462844D01*
X3867243Y-6462844D02*
X3876767Y-6453320D01*
X3876767Y-6453320D02*
X3895814Y-6443796D01*
X4048195Y-6624748D02*
X4057719Y-6634272D01*
X4057719Y-6634272D02*
X4048195Y-6643796D01*
X4048195Y-6643796D02*
X4038671Y-6634272D01*
X4038671Y-6634272D02*
X4048195Y-6624748D01*
X4048195Y-6624748D02*
X4048195Y-6643796D01*
X4181529Y-6443796D02*
X4200576Y-6443796D01*
X4200576Y-6443796D02*
X4219624Y-6453320D01*
X4219624Y-6453320D02*
X4229148Y-6462844D01*
X4229148Y-6462844D02*
X4238672Y-6481891D01*
X4238672Y-6481891D02*
X4248195Y-6519987D01*
X4248195Y-6519987D02*
X4248195Y-6567606D01*
X4248195Y-6567606D02*
X4238672Y-6605701D01*
X4238672Y-6605701D02*
X4229148Y-6624748D01*
X4229148Y-6624748D02*
X4219624Y-6634272D01*
X4219624Y-6634272D02*
X4200576Y-6643796D01*
X4200576Y-6643796D02*
X4181529Y-6643796D01*
X4181529Y-6643796D02*
X4162481Y-6634272D01*
X4162481Y-6634272D02*
X4152957Y-6624748D01*
X4152957Y-6624748D02*
X4143433Y-6605701D01*
X4143433Y-6605701D02*
X4133910Y-6567606D01*
X4133910Y-6567606D02*
X4133910Y-6519987D01*
X4133910Y-6519987D02*
X4143433Y-6481891D01*
X4143433Y-6481891D02*
X4152957Y-6462844D01*
X4152957Y-6462844D02*
X4162481Y-6453320D01*
X4162481Y-6453320D02*
X4181529Y-6443796D01*
X4324386Y-6462844D02*
X4333910Y-6453320D01*
X4333910Y-6453320D02*
X4352957Y-6443796D01*
X4352957Y-6443796D02*
X4400576Y-6443796D01*
X4400576Y-6443796D02*
X4419624Y-6453320D01*
X4419624Y-6453320D02*
X4429148Y-6462844D01*
X4429148Y-6462844D02*
X4438672Y-6481891D01*
X4438672Y-6481891D02*
X4438672Y-6500939D01*
X4438672Y-6500939D02*
X4429148Y-6529510D01*
X4429148Y-6529510D02*
X4314862Y-6643796D01*
X4314862Y-6643796D02*
X4438672Y-6643796D01*
X4505338Y-6443796D02*
X4638672Y-6443796D01*
X4638672Y-6443796D02*
X4552957Y-6643796D01*
X4800576Y-6443796D02*
X4762481Y-6443796D01*
X4762481Y-6443796D02*
X4743433Y-6453320D01*
X4743433Y-6453320D02*
X4733910Y-6462844D01*
X4733910Y-6462844D02*
X4714862Y-6491415D01*
X4714862Y-6491415D02*
X4705338Y-6529510D01*
X4705338Y-6529510D02*
X4705338Y-6605701D01*
X4705338Y-6605701D02*
X4714862Y-6624748D01*
X4714862Y-6624748D02*
X4724386Y-6634272D01*
X4724386Y-6634272D02*
X4743433Y-6643796D01*
X4743433Y-6643796D02*
X4781529Y-6643796D01*
X4781529Y-6643796D02*
X4800576Y-6634272D01*
X4800576Y-6634272D02*
X4810100Y-6624748D01*
X4810100Y-6624748D02*
X4819624Y-6605701D01*
X4819624Y-6605701D02*
X4819624Y-6558082D01*
X4819624Y-6558082D02*
X4810100Y-6539034D01*
X4810100Y-6539034D02*
X4800576Y-6529510D01*
X4800576Y-6529510D02*
X4781529Y-6519987D01*
X4781529Y-6519987D02*
X4743433Y-6519987D01*
X4743433Y-6519987D02*
X4724386Y-6529510D01*
X4724386Y-6529510D02*
X4714862Y-6539034D01*
X4714862Y-6539034D02*
X4705338Y-6558082D01*
X4895814Y-6443796D02*
X4895814Y-6481891D01*
X4972005Y-6443796D02*
X4972005Y-6481891D01*
X5234862Y-6719987D02*
X5225338Y-6710463D01*
X5225338Y-6710463D02*
X5206291Y-6681891D01*
X5206291Y-6681891D02*
X5196767Y-6662844D01*
X5196767Y-6662844D02*
X5187243Y-6634272D01*
X5187243Y-6634272D02*
X5177719Y-6586653D01*
X5177719Y-6586653D02*
X5177719Y-6548558D01*
X5177719Y-6548558D02*
X5187243Y-6500939D01*
X5187243Y-6500939D02*
X5196767Y-6472368D01*
X5196767Y-6472368D02*
X5206291Y-6453320D01*
X5206291Y-6453320D02*
X5225338Y-6424748D01*
X5225338Y-6424748D02*
X5234862Y-6415225D01*
X5396767Y-6510463D02*
X5396767Y-6643796D01*
X5349148Y-6434272D02*
X5301529Y-6577129D01*
X5301529Y-6577129D02*
X5425338Y-6577129D01*
X5621529Y-6643796D02*
X5621529Y-6443796D01*
X5707243Y-6643796D02*
X5707243Y-6539034D01*
X5707243Y-6539034D02*
X5697719Y-6519987D01*
X5697719Y-6519987D02*
X5678672Y-6510463D01*
X5678672Y-6510463D02*
X5650100Y-6510463D01*
X5650100Y-6510463D02*
X5631052Y-6519987D01*
X5631052Y-6519987D02*
X5621529Y-6529510D01*
X5831052Y-6643796D02*
X5812005Y-6634272D01*
X5812005Y-6634272D02*
X5802481Y-6624748D01*
X5802481Y-6624748D02*
X5792957Y-6605701D01*
X5792957Y-6605701D02*
X5792957Y-6548558D01*
X5792957Y-6548558D02*
X5802481Y-6529510D01*
X5802481Y-6529510D02*
X5812005Y-6519987D01*
X5812005Y-6519987D02*
X5831052Y-6510463D01*
X5831052Y-6510463D02*
X5859624Y-6510463D01*
X5859624Y-6510463D02*
X5878672Y-6519987D01*
X5878672Y-6519987D02*
X5888195Y-6529510D01*
X5888195Y-6529510D02*
X5897719Y-6548558D01*
X5897719Y-6548558D02*
X5897719Y-6605701D01*
X5897719Y-6605701D02*
X5888195Y-6624748D01*
X5888195Y-6624748D02*
X5878672Y-6634272D01*
X5878672Y-6634272D02*
X5859624Y-6643796D01*
X5859624Y-6643796D02*
X5831052Y-6643796D01*
X6012005Y-6643796D02*
X5992957Y-6634272D01*
X5992957Y-6634272D02*
X5983433Y-6615225D01*
X5983433Y-6615225D02*
X5983433Y-6443796D01*
X6164386Y-6634272D02*
X6145338Y-6643796D01*
X6145338Y-6643796D02*
X6107243Y-6643796D01*
X6107243Y-6643796D02*
X6088195Y-6634272D01*
X6088195Y-6634272D02*
X6078672Y-6615225D01*
X6078672Y-6615225D02*
X6078672Y-6539034D01*
X6078672Y-6539034D02*
X6088195Y-6519987D01*
X6088195Y-6519987D02*
X6107243Y-6510463D01*
X6107243Y-6510463D02*
X6145338Y-6510463D01*
X6145338Y-6510463D02*
X6164386Y-6519987D01*
X6164386Y-6519987D02*
X6173910Y-6539034D01*
X6173910Y-6539034D02*
X6173910Y-6558082D01*
X6173910Y-6558082D02*
X6078672Y-6577129D01*
X6250100Y-6634272D02*
X6269148Y-6643796D01*
X6269148Y-6643796D02*
X6307243Y-6643796D01*
X6307243Y-6643796D02*
X6326291Y-6634272D01*
X6326291Y-6634272D02*
X6335814Y-6615225D01*
X6335814Y-6615225D02*
X6335814Y-6605701D01*
X6335814Y-6605701D02*
X6326291Y-6586653D01*
X6326291Y-6586653D02*
X6307243Y-6577129D01*
X6307243Y-6577129D02*
X6278672Y-6577129D01*
X6278672Y-6577129D02*
X6259624Y-6567606D01*
X6259624Y-6567606D02*
X6250100Y-6548558D01*
X6250100Y-6548558D02*
X6250100Y-6539034D01*
X6250100Y-6539034D02*
X6259624Y-6519987D01*
X6259624Y-6519987D02*
X6278672Y-6510463D01*
X6278672Y-6510463D02*
X6307243Y-6510463D01*
X6307243Y-6510463D02*
X6326291Y-6519987D01*
X6402481Y-6719987D02*
X6412005Y-6710463D01*
X6412005Y-6710463D02*
X6431053Y-6681891D01*
X6431053Y-6681891D02*
X6440576Y-6662844D01*
X6440576Y-6662844D02*
X6450100Y-6634272D01*
X6450100Y-6634272D02*
X6459624Y-6586653D01*
X6459624Y-6586653D02*
X6459624Y-6548558D01*
X6459624Y-6548558D02*
X6450100Y-6500939D01*
X6450100Y-6500939D02*
X6440576Y-6472368D01*
X6440576Y-6472368D02*
X6431053Y-6453320D01*
X6431053Y-6453320D02*
X6412005Y-6424748D01*
X6412005Y-6424748D02*
X6402481Y-6415225D01*
D13*
X1770100Y-6834320D02*
G75*
G03*
X1770100Y-6834320I-40000J0D01*
G01*
D11*
X2055814Y-6707796D02*
X2074862Y-6707796D01*
X2074862Y-6707796D02*
X2093909Y-6717320D01*
X2093909Y-6717320D02*
X2103433Y-6726844D01*
X2103433Y-6726844D02*
X2112957Y-6745891D01*
X2112957Y-6745891D02*
X2122481Y-6783987D01*
X2122481Y-6783987D02*
X2122481Y-6831606D01*
X2122481Y-6831606D02*
X2112957Y-6869701D01*
X2112957Y-6869701D02*
X2103433Y-6888748D01*
X2103433Y-6888748D02*
X2093909Y-6898272D01*
X2093909Y-6898272D02*
X2074862Y-6907796D01*
X2074862Y-6907796D02*
X2055814Y-6907796D01*
X2055814Y-6907796D02*
X2036767Y-6898272D01*
X2036767Y-6898272D02*
X2027243Y-6888748D01*
X2027243Y-6888748D02*
X2017719Y-6869701D01*
X2017719Y-6869701D02*
X2008195Y-6831606D01*
X2008195Y-6831606D02*
X2008195Y-6783987D01*
X2008195Y-6783987D02*
X2017719Y-6745891D01*
X2017719Y-6745891D02*
X2027243Y-6726844D01*
X2027243Y-6726844D02*
X2036767Y-6717320D01*
X2036767Y-6717320D02*
X2055814Y-6707796D01*
X2208195Y-6888748D02*
X2217719Y-6898272D01*
X2217719Y-6898272D02*
X2208195Y-6907796D01*
X2208195Y-6907796D02*
X2198671Y-6898272D01*
X2198671Y-6898272D02*
X2208195Y-6888748D01*
X2208195Y-6888748D02*
X2208195Y-6907796D01*
X2332005Y-6793510D02*
X2312957Y-6783987D01*
X2312957Y-6783987D02*
X2303433Y-6774463D01*
X2303433Y-6774463D02*
X2293910Y-6755415D01*
X2293910Y-6755415D02*
X2293910Y-6745891D01*
X2293910Y-6745891D02*
X2303433Y-6726844D01*
X2303433Y-6726844D02*
X2312957Y-6717320D01*
X2312957Y-6717320D02*
X2332005Y-6707796D01*
X2332005Y-6707796D02*
X2370100Y-6707796D01*
X2370100Y-6707796D02*
X2389148Y-6717320D01*
X2389148Y-6717320D02*
X2398671Y-6726844D01*
X2398671Y-6726844D02*
X2408195Y-6745891D01*
X2408195Y-6745891D02*
X2408195Y-6755415D01*
X2408195Y-6755415D02*
X2398671Y-6774463D01*
X2398671Y-6774463D02*
X2389148Y-6783987D01*
X2389148Y-6783987D02*
X2370100Y-6793510D01*
X2370100Y-6793510D02*
X2332005Y-6793510D01*
X2332005Y-6793510D02*
X2312957Y-6803034D01*
X2312957Y-6803034D02*
X2303433Y-6812558D01*
X2303433Y-6812558D02*
X2293910Y-6831606D01*
X2293910Y-6831606D02*
X2293910Y-6869701D01*
X2293910Y-6869701D02*
X2303433Y-6888748D01*
X2303433Y-6888748D02*
X2312957Y-6898272D01*
X2312957Y-6898272D02*
X2332005Y-6907796D01*
X2332005Y-6907796D02*
X2370100Y-6907796D01*
X2370100Y-6907796D02*
X2389148Y-6898272D01*
X2389148Y-6898272D02*
X2398671Y-6888748D01*
X2398671Y-6888748D02*
X2408195Y-6869701D01*
X2408195Y-6869701D02*
X2408195Y-6831606D01*
X2408195Y-6831606D02*
X2398671Y-6812558D01*
X2398671Y-6812558D02*
X2389148Y-6803034D01*
X2389148Y-6803034D02*
X2370100Y-6793510D01*
X2532005Y-6707796D02*
X2551052Y-6707796D01*
X2551052Y-6707796D02*
X2570100Y-6717320D01*
X2570100Y-6717320D02*
X2579624Y-6726844D01*
X2579624Y-6726844D02*
X2589148Y-6745891D01*
X2589148Y-6745891D02*
X2598671Y-6783987D01*
X2598671Y-6783987D02*
X2598671Y-6831606D01*
X2598671Y-6831606D02*
X2589148Y-6869701D01*
X2589148Y-6869701D02*
X2579624Y-6888748D01*
X2579624Y-6888748D02*
X2570100Y-6898272D01*
X2570100Y-6898272D02*
X2551052Y-6907796D01*
X2551052Y-6907796D02*
X2532005Y-6907796D01*
X2532005Y-6907796D02*
X2512957Y-6898272D01*
X2512957Y-6898272D02*
X2503433Y-6888748D01*
X2503433Y-6888748D02*
X2493910Y-6869701D01*
X2493910Y-6869701D02*
X2484386Y-6831606D01*
X2484386Y-6831606D02*
X2484386Y-6783987D01*
X2484386Y-6783987D02*
X2493910Y-6745891D01*
X2493910Y-6745891D02*
X2503433Y-6726844D01*
X2503433Y-6726844D02*
X2512957Y-6717320D01*
X2512957Y-6717320D02*
X2532005Y-6707796D01*
X2722481Y-6707796D02*
X2741529Y-6707796D01*
X2741529Y-6707796D02*
X2760576Y-6717320D01*
X2760576Y-6717320D02*
X2770100Y-6726844D01*
X2770100Y-6726844D02*
X2779624Y-6745891D01*
X2779624Y-6745891D02*
X2789148Y-6783987D01*
X2789148Y-6783987D02*
X2789148Y-6831606D01*
X2789148Y-6831606D02*
X2779624Y-6869701D01*
X2779624Y-6869701D02*
X2770100Y-6888748D01*
X2770100Y-6888748D02*
X2760576Y-6898272D01*
X2760576Y-6898272D02*
X2741529Y-6907796D01*
X2741529Y-6907796D02*
X2722481Y-6907796D01*
X2722481Y-6907796D02*
X2703433Y-6898272D01*
X2703433Y-6898272D02*
X2693910Y-6888748D01*
X2693910Y-6888748D02*
X2684386Y-6869701D01*
X2684386Y-6869701D02*
X2674862Y-6831606D01*
X2674862Y-6831606D02*
X2674862Y-6783987D01*
X2674862Y-6783987D02*
X2684386Y-6745891D01*
X2684386Y-6745891D02*
X2693910Y-6726844D01*
X2693910Y-6726844D02*
X2703433Y-6717320D01*
X2703433Y-6717320D02*
X2722481Y-6707796D01*
X2874862Y-6907796D02*
X2874862Y-6774463D01*
X2874862Y-6793510D02*
X2884386Y-6783987D01*
X2884386Y-6783987D02*
X2903433Y-6774463D01*
X2903433Y-6774463D02*
X2932005Y-6774463D01*
X2932005Y-6774463D02*
X2951052Y-6783987D01*
X2951052Y-6783987D02*
X2960576Y-6803034D01*
X2960576Y-6803034D02*
X2960576Y-6907796D01*
X2960576Y-6803034D02*
X2970100Y-6783987D01*
X2970100Y-6783987D02*
X2989148Y-6774463D01*
X2989148Y-6774463D02*
X3017719Y-6774463D01*
X3017719Y-6774463D02*
X3036767Y-6783987D01*
X3036767Y-6783987D02*
X3046290Y-6803034D01*
X3046290Y-6803034D02*
X3046290Y-6907796D01*
X3141529Y-6907796D02*
X3141529Y-6774463D01*
X3141529Y-6793510D02*
X3151052Y-6783987D01*
X3151052Y-6783987D02*
X3170100Y-6774463D01*
X3170100Y-6774463D02*
X3198671Y-6774463D01*
X3198671Y-6774463D02*
X3217719Y-6783987D01*
X3217719Y-6783987D02*
X3227243Y-6803034D01*
X3227243Y-6803034D02*
X3227243Y-6907796D01*
X3227243Y-6803034D02*
X3236767Y-6783987D01*
X3236767Y-6783987D02*
X3255814Y-6774463D01*
X3255814Y-6774463D02*
X3284386Y-6774463D01*
X3284386Y-6774463D02*
X3303433Y-6783987D01*
X3303433Y-6783987D02*
X3312957Y-6803034D01*
X3312957Y-6803034D02*
X3312957Y-6907796D01*
X3671052Y-6698272D02*
X3499624Y-6955415D01*
X3895814Y-6707796D02*
X3914862Y-6707796D01*
X3914862Y-6707796D02*
X3933910Y-6717320D01*
X3933910Y-6717320D02*
X3943433Y-6726844D01*
X3943433Y-6726844D02*
X3952957Y-6745891D01*
X3952957Y-6745891D02*
X3962481Y-6783987D01*
X3962481Y-6783987D02*
X3962481Y-6831606D01*
X3962481Y-6831606D02*
X3952957Y-6869701D01*
X3952957Y-6869701D02*
X3943433Y-6888748D01*
X3943433Y-6888748D02*
X3933910Y-6898272D01*
X3933910Y-6898272D02*
X3914862Y-6907796D01*
X3914862Y-6907796D02*
X3895814Y-6907796D01*
X3895814Y-6907796D02*
X3876767Y-6898272D01*
X3876767Y-6898272D02*
X3867243Y-6888748D01*
X3867243Y-6888748D02*
X3857719Y-6869701D01*
X3857719Y-6869701D02*
X3848195Y-6831606D01*
X3848195Y-6831606D02*
X3848195Y-6783987D01*
X3848195Y-6783987D02*
X3857719Y-6745891D01*
X3857719Y-6745891D02*
X3867243Y-6726844D01*
X3867243Y-6726844D02*
X3876767Y-6717320D01*
X3876767Y-6717320D02*
X3895814Y-6707796D01*
X4048195Y-6888748D02*
X4057719Y-6898272D01*
X4057719Y-6898272D02*
X4048195Y-6907796D01*
X4048195Y-6907796D02*
X4038671Y-6898272D01*
X4038671Y-6898272D02*
X4048195Y-6888748D01*
X4048195Y-6888748D02*
X4048195Y-6907796D01*
X4181529Y-6707796D02*
X4200576Y-6707796D01*
X4200576Y-6707796D02*
X4219624Y-6717320D01*
X4219624Y-6717320D02*
X4229148Y-6726844D01*
X4229148Y-6726844D02*
X4238672Y-6745891D01*
X4238672Y-6745891D02*
X4248195Y-6783987D01*
X4248195Y-6783987D02*
X4248195Y-6831606D01*
X4248195Y-6831606D02*
X4238672Y-6869701D01*
X4238672Y-6869701D02*
X4229148Y-6888748D01*
X4229148Y-6888748D02*
X4219624Y-6898272D01*
X4219624Y-6898272D02*
X4200576Y-6907796D01*
X4200576Y-6907796D02*
X4181529Y-6907796D01*
X4181529Y-6907796D02*
X4162481Y-6898272D01*
X4162481Y-6898272D02*
X4152957Y-6888748D01*
X4152957Y-6888748D02*
X4143433Y-6869701D01*
X4143433Y-6869701D02*
X4133910Y-6831606D01*
X4133910Y-6831606D02*
X4133910Y-6783987D01*
X4133910Y-6783987D02*
X4143433Y-6745891D01*
X4143433Y-6745891D02*
X4152957Y-6726844D01*
X4152957Y-6726844D02*
X4162481Y-6717320D01*
X4162481Y-6717320D02*
X4181529Y-6707796D01*
X4314862Y-6707796D02*
X4438672Y-6707796D01*
X4438672Y-6707796D02*
X4372005Y-6783987D01*
X4372005Y-6783987D02*
X4400576Y-6783987D01*
X4400576Y-6783987D02*
X4419624Y-6793510D01*
X4419624Y-6793510D02*
X4429148Y-6803034D01*
X4429148Y-6803034D02*
X4438672Y-6822082D01*
X4438672Y-6822082D02*
X4438672Y-6869701D01*
X4438672Y-6869701D02*
X4429148Y-6888748D01*
X4429148Y-6888748D02*
X4419624Y-6898272D01*
X4419624Y-6898272D02*
X4400576Y-6907796D01*
X4400576Y-6907796D02*
X4343433Y-6907796D01*
X4343433Y-6907796D02*
X4324386Y-6898272D01*
X4324386Y-6898272D02*
X4314862Y-6888748D01*
X4629148Y-6907796D02*
X4514862Y-6907796D01*
X4572005Y-6907796D02*
X4572005Y-6707796D01*
X4572005Y-6707796D02*
X4552957Y-6736368D01*
X4552957Y-6736368D02*
X4533910Y-6755415D01*
X4533910Y-6755415D02*
X4514862Y-6764939D01*
X4810100Y-6707796D02*
X4714862Y-6707796D01*
X4714862Y-6707796D02*
X4705338Y-6803034D01*
X4705338Y-6803034D02*
X4714862Y-6793510D01*
X4714862Y-6793510D02*
X4733910Y-6783987D01*
X4733910Y-6783987D02*
X4781529Y-6783987D01*
X4781529Y-6783987D02*
X4800576Y-6793510D01*
X4800576Y-6793510D02*
X4810100Y-6803034D01*
X4810100Y-6803034D02*
X4819624Y-6822082D01*
X4819624Y-6822082D02*
X4819624Y-6869701D01*
X4819624Y-6869701D02*
X4810100Y-6888748D01*
X4810100Y-6888748D02*
X4800576Y-6898272D01*
X4800576Y-6898272D02*
X4781529Y-6907796D01*
X4781529Y-6907796D02*
X4733910Y-6907796D01*
X4733910Y-6907796D02*
X4714862Y-6898272D01*
X4714862Y-6898272D02*
X4705338Y-6888748D01*
X4895814Y-6707796D02*
X4895814Y-6745891D01*
X4972005Y-6707796D02*
X4972005Y-6745891D01*
X5234862Y-6983987D02*
X5225338Y-6974463D01*
X5225338Y-6974463D02*
X5206291Y-6945891D01*
X5206291Y-6945891D02*
X5196767Y-6926844D01*
X5196767Y-6926844D02*
X5187243Y-6898272D01*
X5187243Y-6898272D02*
X5177719Y-6850653D01*
X5177719Y-6850653D02*
X5177719Y-6812558D01*
X5177719Y-6812558D02*
X5187243Y-6764939D01*
X5187243Y-6764939D02*
X5196767Y-6736368D01*
X5196767Y-6736368D02*
X5206291Y-6717320D01*
X5206291Y-6717320D02*
X5225338Y-6688748D01*
X5225338Y-6688748D02*
X5234862Y-6679225D01*
X5301529Y-6726844D02*
X5311053Y-6717320D01*
X5311053Y-6717320D02*
X5330100Y-6707796D01*
X5330100Y-6707796D02*
X5377719Y-6707796D01*
X5377719Y-6707796D02*
X5396767Y-6717320D01*
X5396767Y-6717320D02*
X5406291Y-6726844D01*
X5406291Y-6726844D02*
X5415814Y-6745891D01*
X5415814Y-6745891D02*
X5415814Y-6764939D01*
X5415814Y-6764939D02*
X5406291Y-6793510D01*
X5406291Y-6793510D02*
X5292005Y-6907796D01*
X5292005Y-6907796D02*
X5415814Y-6907796D01*
X5621529Y-6907796D02*
X5621529Y-6707796D01*
X5707243Y-6907796D02*
X5707243Y-6803034D01*
X5707243Y-6803034D02*
X5697719Y-6783987D01*
X5697719Y-6783987D02*
X5678672Y-6774463D01*
X5678672Y-6774463D02*
X5650100Y-6774463D01*
X5650100Y-6774463D02*
X5631052Y-6783987D01*
X5631052Y-6783987D02*
X5621529Y-6793510D01*
X5831052Y-6907796D02*
X5812005Y-6898272D01*
X5812005Y-6898272D02*
X5802481Y-6888748D01*
X5802481Y-6888748D02*
X5792957Y-6869701D01*
X5792957Y-6869701D02*
X5792957Y-6812558D01*
X5792957Y-6812558D02*
X5802481Y-6793510D01*
X5802481Y-6793510D02*
X5812005Y-6783987D01*
X5812005Y-6783987D02*
X5831052Y-6774463D01*
X5831052Y-6774463D02*
X5859624Y-6774463D01*
X5859624Y-6774463D02*
X5878672Y-6783987D01*
X5878672Y-6783987D02*
X5888195Y-6793510D01*
X5888195Y-6793510D02*
X5897719Y-6812558D01*
X5897719Y-6812558D02*
X5897719Y-6869701D01*
X5897719Y-6869701D02*
X5888195Y-6888748D01*
X5888195Y-6888748D02*
X5878672Y-6898272D01*
X5878672Y-6898272D02*
X5859624Y-6907796D01*
X5859624Y-6907796D02*
X5831052Y-6907796D01*
X6012005Y-6907796D02*
X5992957Y-6898272D01*
X5992957Y-6898272D02*
X5983433Y-6879225D01*
X5983433Y-6879225D02*
X5983433Y-6707796D01*
X6164386Y-6898272D02*
X6145338Y-6907796D01*
X6145338Y-6907796D02*
X6107243Y-6907796D01*
X6107243Y-6907796D02*
X6088195Y-6898272D01*
X6088195Y-6898272D02*
X6078672Y-6879225D01*
X6078672Y-6879225D02*
X6078672Y-6803034D01*
X6078672Y-6803034D02*
X6088195Y-6783987D01*
X6088195Y-6783987D02*
X6107243Y-6774463D01*
X6107243Y-6774463D02*
X6145338Y-6774463D01*
X6145338Y-6774463D02*
X6164386Y-6783987D01*
X6164386Y-6783987D02*
X6173910Y-6803034D01*
X6173910Y-6803034D02*
X6173910Y-6822082D01*
X6173910Y-6822082D02*
X6078672Y-6841129D01*
X6250100Y-6898272D02*
X6269148Y-6907796D01*
X6269148Y-6907796D02*
X6307243Y-6907796D01*
X6307243Y-6907796D02*
X6326291Y-6898272D01*
X6326291Y-6898272D02*
X6335814Y-6879225D01*
X6335814Y-6879225D02*
X6335814Y-6869701D01*
X6335814Y-6869701D02*
X6326291Y-6850653D01*
X6326291Y-6850653D02*
X6307243Y-6841129D01*
X6307243Y-6841129D02*
X6278672Y-6841129D01*
X6278672Y-6841129D02*
X6259624Y-6831606D01*
X6259624Y-6831606D02*
X6250100Y-6812558D01*
X6250100Y-6812558D02*
X6250100Y-6803034D01*
X6250100Y-6803034D02*
X6259624Y-6783987D01*
X6259624Y-6783987D02*
X6278672Y-6774463D01*
X6278672Y-6774463D02*
X6307243Y-6774463D01*
X6307243Y-6774463D02*
X6326291Y-6783987D01*
X6402481Y-6983987D02*
X6412005Y-6974463D01*
X6412005Y-6974463D02*
X6431053Y-6945891D01*
X6431053Y-6945891D02*
X6440576Y-6926844D01*
X6440576Y-6926844D02*
X6450100Y-6898272D01*
X6450100Y-6898272D02*
X6459624Y-6850653D01*
X6459624Y-6850653D02*
X6459624Y-6812558D01*
X6459624Y-6812558D02*
X6450100Y-6764939D01*
X6450100Y-6764939D02*
X6440576Y-6736368D01*
X6440576Y-6736368D02*
X6431053Y-6717320D01*
X6431053Y-6717320D02*
X6412005Y-6688748D01*
X6412005Y-6688748D02*
X6402481Y-6679225D01*
D10*
X1720100Y-7048320D02*
X1720100Y-7148320D01*
X1670100Y-7098320D02*
X1770100Y-7098320D01*
D11*
X2122481Y-7171796D02*
X2008195Y-7171796D01*
X2065338Y-7171796D02*
X2065338Y-6971796D01*
X2065338Y-6971796D02*
X2046290Y-7000368D01*
X2046290Y-7000368D02*
X2027243Y-7019415D01*
X2027243Y-7019415D02*
X2008195Y-7028939D01*
X2208195Y-7152748D02*
X2217719Y-7162272D01*
X2217719Y-7162272D02*
X2208195Y-7171796D01*
X2208195Y-7171796D02*
X2198671Y-7162272D01*
X2198671Y-7162272D02*
X2208195Y-7152748D01*
X2208195Y-7152748D02*
X2208195Y-7171796D01*
X2341529Y-6971796D02*
X2360576Y-6971796D01*
X2360576Y-6971796D02*
X2379624Y-6981320D01*
X2379624Y-6981320D02*
X2389148Y-6990844D01*
X2389148Y-6990844D02*
X2398671Y-7009891D01*
X2398671Y-7009891D02*
X2408195Y-7047987D01*
X2408195Y-7047987D02*
X2408195Y-7095606D01*
X2408195Y-7095606D02*
X2398671Y-7133701D01*
X2398671Y-7133701D02*
X2389148Y-7152748D01*
X2389148Y-7152748D02*
X2379624Y-7162272D01*
X2379624Y-7162272D02*
X2360576Y-7171796D01*
X2360576Y-7171796D02*
X2341529Y-7171796D01*
X2341529Y-7171796D02*
X2322481Y-7162272D01*
X2322481Y-7162272D02*
X2312957Y-7152748D01*
X2312957Y-7152748D02*
X2303433Y-7133701D01*
X2303433Y-7133701D02*
X2293910Y-7095606D01*
X2293910Y-7095606D02*
X2293910Y-7047987D01*
X2293910Y-7047987D02*
X2303433Y-7009891D01*
X2303433Y-7009891D02*
X2312957Y-6990844D01*
X2312957Y-6990844D02*
X2322481Y-6981320D01*
X2322481Y-6981320D02*
X2341529Y-6971796D01*
X2532005Y-6971796D02*
X2551052Y-6971796D01*
X2551052Y-6971796D02*
X2570100Y-6981320D01*
X2570100Y-6981320D02*
X2579624Y-6990844D01*
X2579624Y-6990844D02*
X2589148Y-7009891D01*
X2589148Y-7009891D02*
X2598671Y-7047987D01*
X2598671Y-7047987D02*
X2598671Y-7095606D01*
X2598671Y-7095606D02*
X2589148Y-7133701D01*
X2589148Y-7133701D02*
X2579624Y-7152748D01*
X2579624Y-7152748D02*
X2570100Y-7162272D01*
X2570100Y-7162272D02*
X2551052Y-7171796D01*
X2551052Y-7171796D02*
X2532005Y-7171796D01*
X2532005Y-7171796D02*
X2512957Y-7162272D01*
X2512957Y-7162272D02*
X2503433Y-7152748D01*
X2503433Y-7152748D02*
X2493910Y-7133701D01*
X2493910Y-7133701D02*
X2484386Y-7095606D01*
X2484386Y-7095606D02*
X2484386Y-7047987D01*
X2484386Y-7047987D02*
X2493910Y-7009891D01*
X2493910Y-7009891D02*
X2503433Y-6990844D01*
X2503433Y-6990844D02*
X2512957Y-6981320D01*
X2512957Y-6981320D02*
X2532005Y-6971796D01*
X2722481Y-6971796D02*
X2741529Y-6971796D01*
X2741529Y-6971796D02*
X2760576Y-6981320D01*
X2760576Y-6981320D02*
X2770100Y-6990844D01*
X2770100Y-6990844D02*
X2779624Y-7009891D01*
X2779624Y-7009891D02*
X2789148Y-7047987D01*
X2789148Y-7047987D02*
X2789148Y-7095606D01*
X2789148Y-7095606D02*
X2779624Y-7133701D01*
X2779624Y-7133701D02*
X2770100Y-7152748D01*
X2770100Y-7152748D02*
X2760576Y-7162272D01*
X2760576Y-7162272D02*
X2741529Y-7171796D01*
X2741529Y-7171796D02*
X2722481Y-7171796D01*
X2722481Y-7171796D02*
X2703433Y-7162272D01*
X2703433Y-7162272D02*
X2693910Y-7152748D01*
X2693910Y-7152748D02*
X2684386Y-7133701D01*
X2684386Y-7133701D02*
X2674862Y-7095606D01*
X2674862Y-7095606D02*
X2674862Y-7047987D01*
X2674862Y-7047987D02*
X2684386Y-7009891D01*
X2684386Y-7009891D02*
X2693910Y-6990844D01*
X2693910Y-6990844D02*
X2703433Y-6981320D01*
X2703433Y-6981320D02*
X2722481Y-6971796D01*
X2874862Y-7171796D02*
X2874862Y-7038463D01*
X2874862Y-7057510D02*
X2884386Y-7047987D01*
X2884386Y-7047987D02*
X2903433Y-7038463D01*
X2903433Y-7038463D02*
X2932005Y-7038463D01*
X2932005Y-7038463D02*
X2951052Y-7047987D01*
X2951052Y-7047987D02*
X2960576Y-7067034D01*
X2960576Y-7067034D02*
X2960576Y-7171796D01*
X2960576Y-7067034D02*
X2970100Y-7047987D01*
X2970100Y-7047987D02*
X2989148Y-7038463D01*
X2989148Y-7038463D02*
X3017719Y-7038463D01*
X3017719Y-7038463D02*
X3036767Y-7047987D01*
X3036767Y-7047987D02*
X3046290Y-7067034D01*
X3046290Y-7067034D02*
X3046290Y-7171796D01*
X3141529Y-7171796D02*
X3141529Y-7038463D01*
X3141529Y-7057510D02*
X3151052Y-7047987D01*
X3151052Y-7047987D02*
X3170100Y-7038463D01*
X3170100Y-7038463D02*
X3198671Y-7038463D01*
X3198671Y-7038463D02*
X3217719Y-7047987D01*
X3217719Y-7047987D02*
X3227243Y-7067034D01*
X3227243Y-7067034D02*
X3227243Y-7171796D01*
X3227243Y-7067034D02*
X3236767Y-7047987D01*
X3236767Y-7047987D02*
X3255814Y-7038463D01*
X3255814Y-7038463D02*
X3284386Y-7038463D01*
X3284386Y-7038463D02*
X3303433Y-7047987D01*
X3303433Y-7047987D02*
X3312957Y-7067034D01*
X3312957Y-7067034D02*
X3312957Y-7171796D01*
X3671052Y-6962272D02*
X3499624Y-7219415D01*
X3895814Y-6971796D02*
X3914862Y-6971796D01*
X3914862Y-6971796D02*
X3933910Y-6981320D01*
X3933910Y-6981320D02*
X3943433Y-6990844D01*
X3943433Y-6990844D02*
X3952957Y-7009891D01*
X3952957Y-7009891D02*
X3962481Y-7047987D01*
X3962481Y-7047987D02*
X3962481Y-7095606D01*
X3962481Y-7095606D02*
X3952957Y-7133701D01*
X3952957Y-7133701D02*
X3943433Y-7152748D01*
X3943433Y-7152748D02*
X3933910Y-7162272D01*
X3933910Y-7162272D02*
X3914862Y-7171796D01*
X3914862Y-7171796D02*
X3895814Y-7171796D01*
X3895814Y-7171796D02*
X3876767Y-7162272D01*
X3876767Y-7162272D02*
X3867243Y-7152748D01*
X3867243Y-7152748D02*
X3857719Y-7133701D01*
X3857719Y-7133701D02*
X3848195Y-7095606D01*
X3848195Y-7095606D02*
X3848195Y-7047987D01*
X3848195Y-7047987D02*
X3857719Y-7009891D01*
X3857719Y-7009891D02*
X3867243Y-6990844D01*
X3867243Y-6990844D02*
X3876767Y-6981320D01*
X3876767Y-6981320D02*
X3895814Y-6971796D01*
X4048195Y-7152748D02*
X4057719Y-7162272D01*
X4057719Y-7162272D02*
X4048195Y-7171796D01*
X4048195Y-7171796D02*
X4038671Y-7162272D01*
X4038671Y-7162272D02*
X4048195Y-7152748D01*
X4048195Y-7152748D02*
X4048195Y-7171796D01*
X4181529Y-6971796D02*
X4200576Y-6971796D01*
X4200576Y-6971796D02*
X4219624Y-6981320D01*
X4219624Y-6981320D02*
X4229148Y-6990844D01*
X4229148Y-6990844D02*
X4238672Y-7009891D01*
X4238672Y-7009891D02*
X4248195Y-7047987D01*
X4248195Y-7047987D02*
X4248195Y-7095606D01*
X4248195Y-7095606D02*
X4238672Y-7133701D01*
X4238672Y-7133701D02*
X4229148Y-7152748D01*
X4229148Y-7152748D02*
X4219624Y-7162272D01*
X4219624Y-7162272D02*
X4200576Y-7171796D01*
X4200576Y-7171796D02*
X4181529Y-7171796D01*
X4181529Y-7171796D02*
X4162481Y-7162272D01*
X4162481Y-7162272D02*
X4152957Y-7152748D01*
X4152957Y-7152748D02*
X4143433Y-7133701D01*
X4143433Y-7133701D02*
X4133910Y-7095606D01*
X4133910Y-7095606D02*
X4133910Y-7047987D01*
X4133910Y-7047987D02*
X4143433Y-7009891D01*
X4143433Y-7009891D02*
X4152957Y-6990844D01*
X4152957Y-6990844D02*
X4162481Y-6981320D01*
X4162481Y-6981320D02*
X4181529Y-6971796D01*
X4314862Y-6971796D02*
X4438672Y-6971796D01*
X4438672Y-6971796D02*
X4372005Y-7047987D01*
X4372005Y-7047987D02*
X4400576Y-7047987D01*
X4400576Y-7047987D02*
X4419624Y-7057510D01*
X4419624Y-7057510D02*
X4429148Y-7067034D01*
X4429148Y-7067034D02*
X4438672Y-7086082D01*
X4438672Y-7086082D02*
X4438672Y-7133701D01*
X4438672Y-7133701D02*
X4429148Y-7152748D01*
X4429148Y-7152748D02*
X4419624Y-7162272D01*
X4419624Y-7162272D02*
X4400576Y-7171796D01*
X4400576Y-7171796D02*
X4343433Y-7171796D01*
X4343433Y-7171796D02*
X4324386Y-7162272D01*
X4324386Y-7162272D02*
X4314862Y-7152748D01*
X4533910Y-7171796D02*
X4572005Y-7171796D01*
X4572005Y-7171796D02*
X4591053Y-7162272D01*
X4591053Y-7162272D02*
X4600576Y-7152748D01*
X4600576Y-7152748D02*
X4619624Y-7124177D01*
X4619624Y-7124177D02*
X4629148Y-7086082D01*
X4629148Y-7086082D02*
X4629148Y-7009891D01*
X4629148Y-7009891D02*
X4619624Y-6990844D01*
X4619624Y-6990844D02*
X4610100Y-6981320D01*
X4610100Y-6981320D02*
X4591053Y-6971796D01*
X4591053Y-6971796D02*
X4552957Y-6971796D01*
X4552957Y-6971796D02*
X4533910Y-6981320D01*
X4533910Y-6981320D02*
X4524386Y-6990844D01*
X4524386Y-6990844D02*
X4514862Y-7009891D01*
X4514862Y-7009891D02*
X4514862Y-7057510D01*
X4514862Y-7057510D02*
X4524386Y-7076558D01*
X4524386Y-7076558D02*
X4533910Y-7086082D01*
X4533910Y-7086082D02*
X4552957Y-7095606D01*
X4552957Y-7095606D02*
X4591053Y-7095606D01*
X4591053Y-7095606D02*
X4610100Y-7086082D01*
X4610100Y-7086082D02*
X4619624Y-7076558D01*
X4619624Y-7076558D02*
X4629148Y-7057510D01*
X4800576Y-7038463D02*
X4800576Y-7171796D01*
X4752957Y-6962272D02*
X4705338Y-7105129D01*
X4705338Y-7105129D02*
X4829148Y-7105129D01*
X4895814Y-6971796D02*
X4895814Y-7009891D01*
X4972005Y-6971796D02*
X4972005Y-7009891D01*
X5234862Y-7247987D02*
X5225338Y-7238463D01*
X5225338Y-7238463D02*
X5206291Y-7209891D01*
X5206291Y-7209891D02*
X5196767Y-7190844D01*
X5196767Y-7190844D02*
X5187243Y-7162272D01*
X5187243Y-7162272D02*
X5177719Y-7114653D01*
X5177719Y-7114653D02*
X5177719Y-7076558D01*
X5177719Y-7076558D02*
X5187243Y-7028939D01*
X5187243Y-7028939D02*
X5196767Y-7000368D01*
X5196767Y-7000368D02*
X5206291Y-6981320D01*
X5206291Y-6981320D02*
X5225338Y-6952748D01*
X5225338Y-6952748D02*
X5234862Y-6943225D01*
X5301529Y-6990844D02*
X5311053Y-6981320D01*
X5311053Y-6981320D02*
X5330100Y-6971796D01*
X5330100Y-6971796D02*
X5377719Y-6971796D01*
X5377719Y-6971796D02*
X5396767Y-6981320D01*
X5396767Y-6981320D02*
X5406291Y-6990844D01*
X5406291Y-6990844D02*
X5415814Y-7009891D01*
X5415814Y-7009891D02*
X5415814Y-7028939D01*
X5415814Y-7028939D02*
X5406291Y-7057510D01*
X5406291Y-7057510D02*
X5292005Y-7171796D01*
X5292005Y-7171796D02*
X5415814Y-7171796D01*
X5587243Y-7038463D02*
X5587243Y-7171796D01*
X5539624Y-6962272D02*
X5492005Y-7105129D01*
X5492005Y-7105129D02*
X5615814Y-7105129D01*
X5812005Y-7171796D02*
X5812005Y-6971796D01*
X5897719Y-7171796D02*
X5897719Y-7067034D01*
X5897719Y-7067034D02*
X5888195Y-7047987D01*
X5888195Y-7047987D02*
X5869148Y-7038463D01*
X5869148Y-7038463D02*
X5840576Y-7038463D01*
X5840576Y-7038463D02*
X5821529Y-7047987D01*
X5821529Y-7047987D02*
X5812005Y-7057510D01*
X6021529Y-7171796D02*
X6002481Y-7162272D01*
X6002481Y-7162272D02*
X5992957Y-7152748D01*
X5992957Y-7152748D02*
X5983433Y-7133701D01*
X5983433Y-7133701D02*
X5983433Y-7076558D01*
X5983433Y-7076558D02*
X5992957Y-7057510D01*
X5992957Y-7057510D02*
X6002481Y-7047987D01*
X6002481Y-7047987D02*
X6021529Y-7038463D01*
X6021529Y-7038463D02*
X6050100Y-7038463D01*
X6050100Y-7038463D02*
X6069148Y-7047987D01*
X6069148Y-7047987D02*
X6078672Y-7057510D01*
X6078672Y-7057510D02*
X6088195Y-7076558D01*
X6088195Y-7076558D02*
X6088195Y-7133701D01*
X6088195Y-7133701D02*
X6078672Y-7152748D01*
X6078672Y-7152748D02*
X6069148Y-7162272D01*
X6069148Y-7162272D02*
X6050100Y-7171796D01*
X6050100Y-7171796D02*
X6021529Y-7171796D01*
X6202481Y-7171796D02*
X6183433Y-7162272D01*
X6183433Y-7162272D02*
X6173910Y-7143225D01*
X6173910Y-7143225D02*
X6173910Y-6971796D01*
X6354862Y-7162272D02*
X6335814Y-7171796D01*
X6335814Y-7171796D02*
X6297719Y-7171796D01*
X6297719Y-7171796D02*
X6278672Y-7162272D01*
X6278672Y-7162272D02*
X6269148Y-7143225D01*
X6269148Y-7143225D02*
X6269148Y-7067034D01*
X6269148Y-7067034D02*
X6278672Y-7047987D01*
X6278672Y-7047987D02*
X6297719Y-7038463D01*
X6297719Y-7038463D02*
X6335814Y-7038463D01*
X6335814Y-7038463D02*
X6354862Y-7047987D01*
X6354862Y-7047987D02*
X6364386Y-7067034D01*
X6364386Y-7067034D02*
X6364386Y-7086082D01*
X6364386Y-7086082D02*
X6269148Y-7105129D01*
X6440576Y-7162272D02*
X6459624Y-7171796D01*
X6459624Y-7171796D02*
X6497719Y-7171796D01*
X6497719Y-7171796D02*
X6516767Y-7162272D01*
X6516767Y-7162272D02*
X6526291Y-7143225D01*
X6526291Y-7143225D02*
X6526291Y-7133701D01*
X6526291Y-7133701D02*
X6516767Y-7114653D01*
X6516767Y-7114653D02*
X6497719Y-7105129D01*
X6497719Y-7105129D02*
X6469148Y-7105129D01*
X6469148Y-7105129D02*
X6450100Y-7095606D01*
X6450100Y-7095606D02*
X6440576Y-7076558D01*
X6440576Y-7076558D02*
X6440576Y-7067034D01*
X6440576Y-7067034D02*
X6450100Y-7047987D01*
X6450100Y-7047987D02*
X6469148Y-7038463D01*
X6469148Y-7038463D02*
X6497719Y-7038463D01*
X6497719Y-7038463D02*
X6516767Y-7047987D01*
X6592957Y-7247987D02*
X6602481Y-7238463D01*
X6602481Y-7238463D02*
X6621529Y-7209891D01*
X6621529Y-7209891D02*
X6631053Y-7190844D01*
X6631053Y-7190844D02*
X6640576Y-7162272D01*
X6640576Y-7162272D02*
X6650100Y-7114653D01*
X6650100Y-7114653D02*
X6650100Y-7076558D01*
X6650100Y-7076558D02*
X6640576Y-7028939D01*
X6640576Y-7028939D02*
X6631053Y-7000368D01*
X6631053Y-7000368D02*
X6621529Y-6981320D01*
X6621529Y-6981320D02*
X6602481Y-6952748D01*
X6602481Y-6952748D02*
X6592957Y-6943225D01*
D14*
X1751062Y-7408282D02*
X1751062Y-7316358D01*
X1659138Y-7316358D01*
X1659138Y-7408282D01*
X1751062Y-7408282D01*
D11*
X2122481Y-7435796D02*
X2008195Y-7435796D01*
X2065338Y-7435796D02*
X2065338Y-7235796D01*
X2065338Y-7235796D02*
X2046290Y-7264368D01*
X2046290Y-7264368D02*
X2027243Y-7283415D01*
X2027243Y-7283415D02*
X2008195Y-7292939D01*
X2208195Y-7416748D02*
X2217719Y-7426272D01*
X2217719Y-7426272D02*
X2208195Y-7435796D01*
X2208195Y-7435796D02*
X2198671Y-7426272D01*
X2198671Y-7426272D02*
X2208195Y-7416748D01*
X2208195Y-7416748D02*
X2208195Y-7435796D01*
X2284386Y-7235796D02*
X2408195Y-7235796D01*
X2408195Y-7235796D02*
X2341529Y-7311987D01*
X2341529Y-7311987D02*
X2370100Y-7311987D01*
X2370100Y-7311987D02*
X2389148Y-7321510D01*
X2389148Y-7321510D02*
X2398671Y-7331034D01*
X2398671Y-7331034D02*
X2408195Y-7350082D01*
X2408195Y-7350082D02*
X2408195Y-7397701D01*
X2408195Y-7397701D02*
X2398671Y-7416748D01*
X2398671Y-7416748D02*
X2389148Y-7426272D01*
X2389148Y-7426272D02*
X2370100Y-7435796D01*
X2370100Y-7435796D02*
X2312957Y-7435796D01*
X2312957Y-7435796D02*
X2293910Y-7426272D01*
X2293910Y-7426272D02*
X2284386Y-7416748D01*
X2532005Y-7235796D02*
X2551052Y-7235796D01*
X2551052Y-7235796D02*
X2570100Y-7245320D01*
X2570100Y-7245320D02*
X2579624Y-7254844D01*
X2579624Y-7254844D02*
X2589148Y-7273891D01*
X2589148Y-7273891D02*
X2598671Y-7311987D01*
X2598671Y-7311987D02*
X2598671Y-7359606D01*
X2598671Y-7359606D02*
X2589148Y-7397701D01*
X2589148Y-7397701D02*
X2579624Y-7416748D01*
X2579624Y-7416748D02*
X2570100Y-7426272D01*
X2570100Y-7426272D02*
X2551052Y-7435796D01*
X2551052Y-7435796D02*
X2532005Y-7435796D01*
X2532005Y-7435796D02*
X2512957Y-7426272D01*
X2512957Y-7426272D02*
X2503433Y-7416748D01*
X2503433Y-7416748D02*
X2493910Y-7397701D01*
X2493910Y-7397701D02*
X2484386Y-7359606D01*
X2484386Y-7359606D02*
X2484386Y-7311987D01*
X2484386Y-7311987D02*
X2493910Y-7273891D01*
X2493910Y-7273891D02*
X2503433Y-7254844D01*
X2503433Y-7254844D02*
X2512957Y-7245320D01*
X2512957Y-7245320D02*
X2532005Y-7235796D01*
X2722481Y-7235796D02*
X2741529Y-7235796D01*
X2741529Y-7235796D02*
X2760576Y-7245320D01*
X2760576Y-7245320D02*
X2770100Y-7254844D01*
X2770100Y-7254844D02*
X2779624Y-7273891D01*
X2779624Y-7273891D02*
X2789148Y-7311987D01*
X2789148Y-7311987D02*
X2789148Y-7359606D01*
X2789148Y-7359606D02*
X2779624Y-7397701D01*
X2779624Y-7397701D02*
X2770100Y-7416748D01*
X2770100Y-7416748D02*
X2760576Y-7426272D01*
X2760576Y-7426272D02*
X2741529Y-7435796D01*
X2741529Y-7435796D02*
X2722481Y-7435796D01*
X2722481Y-7435796D02*
X2703433Y-7426272D01*
X2703433Y-7426272D02*
X2693910Y-7416748D01*
X2693910Y-7416748D02*
X2684386Y-7397701D01*
X2684386Y-7397701D02*
X2674862Y-7359606D01*
X2674862Y-7359606D02*
X2674862Y-7311987D01*
X2674862Y-7311987D02*
X2684386Y-7273891D01*
X2684386Y-7273891D02*
X2693910Y-7254844D01*
X2693910Y-7254844D02*
X2703433Y-7245320D01*
X2703433Y-7245320D02*
X2722481Y-7235796D01*
X2874862Y-7435796D02*
X2874862Y-7302463D01*
X2874862Y-7321510D02*
X2884386Y-7311987D01*
X2884386Y-7311987D02*
X2903433Y-7302463D01*
X2903433Y-7302463D02*
X2932005Y-7302463D01*
X2932005Y-7302463D02*
X2951052Y-7311987D01*
X2951052Y-7311987D02*
X2960576Y-7331034D01*
X2960576Y-7331034D02*
X2960576Y-7435796D01*
X2960576Y-7331034D02*
X2970100Y-7311987D01*
X2970100Y-7311987D02*
X2989148Y-7302463D01*
X2989148Y-7302463D02*
X3017719Y-7302463D01*
X3017719Y-7302463D02*
X3036767Y-7311987D01*
X3036767Y-7311987D02*
X3046290Y-7331034D01*
X3046290Y-7331034D02*
X3046290Y-7435796D01*
X3141529Y-7435796D02*
X3141529Y-7302463D01*
X3141529Y-7321510D02*
X3151052Y-7311987D01*
X3151052Y-7311987D02*
X3170100Y-7302463D01*
X3170100Y-7302463D02*
X3198671Y-7302463D01*
X3198671Y-7302463D02*
X3217719Y-7311987D01*
X3217719Y-7311987D02*
X3227243Y-7331034D01*
X3227243Y-7331034D02*
X3227243Y-7435796D01*
X3227243Y-7331034D02*
X3236767Y-7311987D01*
X3236767Y-7311987D02*
X3255814Y-7302463D01*
X3255814Y-7302463D02*
X3284386Y-7302463D01*
X3284386Y-7302463D02*
X3303433Y-7311987D01*
X3303433Y-7311987D02*
X3312957Y-7331034D01*
X3312957Y-7331034D02*
X3312957Y-7435796D01*
X3671052Y-7226272D02*
X3499624Y-7483415D01*
X3895814Y-7235796D02*
X3914862Y-7235796D01*
X3914862Y-7235796D02*
X3933910Y-7245320D01*
X3933910Y-7245320D02*
X3943433Y-7254844D01*
X3943433Y-7254844D02*
X3952957Y-7273891D01*
X3952957Y-7273891D02*
X3962481Y-7311987D01*
X3962481Y-7311987D02*
X3962481Y-7359606D01*
X3962481Y-7359606D02*
X3952957Y-7397701D01*
X3952957Y-7397701D02*
X3943433Y-7416748D01*
X3943433Y-7416748D02*
X3933910Y-7426272D01*
X3933910Y-7426272D02*
X3914862Y-7435796D01*
X3914862Y-7435796D02*
X3895814Y-7435796D01*
X3895814Y-7435796D02*
X3876767Y-7426272D01*
X3876767Y-7426272D02*
X3867243Y-7416748D01*
X3867243Y-7416748D02*
X3857719Y-7397701D01*
X3857719Y-7397701D02*
X3848195Y-7359606D01*
X3848195Y-7359606D02*
X3848195Y-7311987D01*
X3848195Y-7311987D02*
X3857719Y-7273891D01*
X3857719Y-7273891D02*
X3867243Y-7254844D01*
X3867243Y-7254844D02*
X3876767Y-7245320D01*
X3876767Y-7245320D02*
X3895814Y-7235796D01*
X4048195Y-7416748D02*
X4057719Y-7426272D01*
X4057719Y-7426272D02*
X4048195Y-7435796D01*
X4048195Y-7435796D02*
X4038671Y-7426272D01*
X4038671Y-7426272D02*
X4048195Y-7416748D01*
X4048195Y-7416748D02*
X4048195Y-7435796D01*
X4181529Y-7235796D02*
X4200576Y-7235796D01*
X4200576Y-7235796D02*
X4219624Y-7245320D01*
X4219624Y-7245320D02*
X4229148Y-7254844D01*
X4229148Y-7254844D02*
X4238672Y-7273891D01*
X4238672Y-7273891D02*
X4248195Y-7311987D01*
X4248195Y-7311987D02*
X4248195Y-7359606D01*
X4248195Y-7359606D02*
X4238672Y-7397701D01*
X4238672Y-7397701D02*
X4229148Y-7416748D01*
X4229148Y-7416748D02*
X4219624Y-7426272D01*
X4219624Y-7426272D02*
X4200576Y-7435796D01*
X4200576Y-7435796D02*
X4181529Y-7435796D01*
X4181529Y-7435796D02*
X4162481Y-7426272D01*
X4162481Y-7426272D02*
X4152957Y-7416748D01*
X4152957Y-7416748D02*
X4143433Y-7397701D01*
X4143433Y-7397701D02*
X4133910Y-7359606D01*
X4133910Y-7359606D02*
X4133910Y-7311987D01*
X4133910Y-7311987D02*
X4143433Y-7273891D01*
X4143433Y-7273891D02*
X4152957Y-7254844D01*
X4152957Y-7254844D02*
X4162481Y-7245320D01*
X4162481Y-7245320D02*
X4181529Y-7235796D01*
X4429148Y-7235796D02*
X4333910Y-7235796D01*
X4333910Y-7235796D02*
X4324386Y-7331034D01*
X4324386Y-7331034D02*
X4333910Y-7321510D01*
X4333910Y-7321510D02*
X4352957Y-7311987D01*
X4352957Y-7311987D02*
X4400576Y-7311987D01*
X4400576Y-7311987D02*
X4419624Y-7321510D01*
X4419624Y-7321510D02*
X4429148Y-7331034D01*
X4429148Y-7331034D02*
X4438672Y-7350082D01*
X4438672Y-7350082D02*
X4438672Y-7397701D01*
X4438672Y-7397701D02*
X4429148Y-7416748D01*
X4429148Y-7416748D02*
X4419624Y-7426272D01*
X4419624Y-7426272D02*
X4400576Y-7435796D01*
X4400576Y-7435796D02*
X4352957Y-7435796D01*
X4352957Y-7435796D02*
X4333910Y-7426272D01*
X4333910Y-7426272D02*
X4324386Y-7416748D01*
X4629148Y-7435796D02*
X4514862Y-7435796D01*
X4572005Y-7435796D02*
X4572005Y-7235796D01*
X4572005Y-7235796D02*
X4552957Y-7264368D01*
X4552957Y-7264368D02*
X4533910Y-7283415D01*
X4533910Y-7283415D02*
X4514862Y-7292939D01*
X4705338Y-7254844D02*
X4714862Y-7245320D01*
X4714862Y-7245320D02*
X4733910Y-7235796D01*
X4733910Y-7235796D02*
X4781529Y-7235796D01*
X4781529Y-7235796D02*
X4800576Y-7245320D01*
X4800576Y-7245320D02*
X4810100Y-7254844D01*
X4810100Y-7254844D02*
X4819624Y-7273891D01*
X4819624Y-7273891D02*
X4819624Y-7292939D01*
X4819624Y-7292939D02*
X4810100Y-7321510D01*
X4810100Y-7321510D02*
X4695814Y-7435796D01*
X4695814Y-7435796D02*
X4819624Y-7435796D01*
X4895814Y-7235796D02*
X4895814Y-7273891D01*
X4972005Y-7235796D02*
X4972005Y-7273891D01*
X5234862Y-7511987D02*
X5225338Y-7502463D01*
X5225338Y-7502463D02*
X5206291Y-7473891D01*
X5206291Y-7473891D02*
X5196767Y-7454844D01*
X5196767Y-7454844D02*
X5187243Y-7426272D01*
X5187243Y-7426272D02*
X5177719Y-7378653D01*
X5177719Y-7378653D02*
X5177719Y-7340558D01*
X5177719Y-7340558D02*
X5187243Y-7292939D01*
X5187243Y-7292939D02*
X5196767Y-7264368D01*
X5196767Y-7264368D02*
X5206291Y-7245320D01*
X5206291Y-7245320D02*
X5225338Y-7216748D01*
X5225338Y-7216748D02*
X5234862Y-7207225D01*
X5415814Y-7435796D02*
X5301529Y-7435796D01*
X5358672Y-7435796D02*
X5358672Y-7235796D01*
X5358672Y-7235796D02*
X5339624Y-7264368D01*
X5339624Y-7264368D02*
X5320576Y-7283415D01*
X5320576Y-7283415D02*
X5301529Y-7292939D01*
X5587243Y-7235796D02*
X5549148Y-7235796D01*
X5549148Y-7235796D02*
X5530100Y-7245320D01*
X5530100Y-7245320D02*
X5520576Y-7254844D01*
X5520576Y-7254844D02*
X5501529Y-7283415D01*
X5501529Y-7283415D02*
X5492005Y-7321510D01*
X5492005Y-7321510D02*
X5492005Y-7397701D01*
X5492005Y-7397701D02*
X5501529Y-7416748D01*
X5501529Y-7416748D02*
X5511053Y-7426272D01*
X5511053Y-7426272D02*
X5530100Y-7435796D01*
X5530100Y-7435796D02*
X5568195Y-7435796D01*
X5568195Y-7435796D02*
X5587243Y-7426272D01*
X5587243Y-7426272D02*
X5596767Y-7416748D01*
X5596767Y-7416748D02*
X5606291Y-7397701D01*
X5606291Y-7397701D02*
X5606291Y-7350082D01*
X5606291Y-7350082D02*
X5596767Y-7331034D01*
X5596767Y-7331034D02*
X5587243Y-7321510D01*
X5587243Y-7321510D02*
X5568195Y-7311987D01*
X5568195Y-7311987D02*
X5530100Y-7311987D01*
X5530100Y-7311987D02*
X5511053Y-7321510D01*
X5511053Y-7321510D02*
X5501529Y-7331034D01*
X5501529Y-7331034D02*
X5492005Y-7350082D01*
X5812005Y-7435796D02*
X5812005Y-7235796D01*
X5897719Y-7435796D02*
X5897719Y-7331034D01*
X5897719Y-7331034D02*
X5888195Y-7311987D01*
X5888195Y-7311987D02*
X5869148Y-7302463D01*
X5869148Y-7302463D02*
X5840576Y-7302463D01*
X5840576Y-7302463D02*
X5821529Y-7311987D01*
X5821529Y-7311987D02*
X5812005Y-7321510D01*
X6021529Y-7435796D02*
X6002481Y-7426272D01*
X6002481Y-7426272D02*
X5992957Y-7416748D01*
X5992957Y-7416748D02*
X5983433Y-7397701D01*
X5983433Y-7397701D02*
X5983433Y-7340558D01*
X5983433Y-7340558D02*
X5992957Y-7321510D01*
X5992957Y-7321510D02*
X6002481Y-7311987D01*
X6002481Y-7311987D02*
X6021529Y-7302463D01*
X6021529Y-7302463D02*
X6050100Y-7302463D01*
X6050100Y-7302463D02*
X6069148Y-7311987D01*
X6069148Y-7311987D02*
X6078672Y-7321510D01*
X6078672Y-7321510D02*
X6088195Y-7340558D01*
X6088195Y-7340558D02*
X6088195Y-7397701D01*
X6088195Y-7397701D02*
X6078672Y-7416748D01*
X6078672Y-7416748D02*
X6069148Y-7426272D01*
X6069148Y-7426272D02*
X6050100Y-7435796D01*
X6050100Y-7435796D02*
X6021529Y-7435796D01*
X6202481Y-7435796D02*
X6183433Y-7426272D01*
X6183433Y-7426272D02*
X6173910Y-7407225D01*
X6173910Y-7407225D02*
X6173910Y-7235796D01*
X6354862Y-7426272D02*
X6335814Y-7435796D01*
X6335814Y-7435796D02*
X6297719Y-7435796D01*
X6297719Y-7435796D02*
X6278672Y-7426272D01*
X6278672Y-7426272D02*
X6269148Y-7407225D01*
X6269148Y-7407225D02*
X6269148Y-7331034D01*
X6269148Y-7331034D02*
X6278672Y-7311987D01*
X6278672Y-7311987D02*
X6297719Y-7302463D01*
X6297719Y-7302463D02*
X6335814Y-7302463D01*
X6335814Y-7302463D02*
X6354862Y-7311987D01*
X6354862Y-7311987D02*
X6364386Y-7331034D01*
X6364386Y-7331034D02*
X6364386Y-7350082D01*
X6364386Y-7350082D02*
X6269148Y-7369129D01*
X6440576Y-7426272D02*
X6459624Y-7435796D01*
X6459624Y-7435796D02*
X6497719Y-7435796D01*
X6497719Y-7435796D02*
X6516767Y-7426272D01*
X6516767Y-7426272D02*
X6526291Y-7407225D01*
X6526291Y-7407225D02*
X6526291Y-7397701D01*
X6526291Y-7397701D02*
X6516767Y-7378653D01*
X6516767Y-7378653D02*
X6497719Y-7369129D01*
X6497719Y-7369129D02*
X6469148Y-7369129D01*
X6469148Y-7369129D02*
X6450100Y-7359606D01*
X6450100Y-7359606D02*
X6440576Y-7340558D01*
X6440576Y-7340558D02*
X6440576Y-7331034D01*
X6440576Y-7331034D02*
X6450100Y-7311987D01*
X6450100Y-7311987D02*
X6469148Y-7302463D01*
X6469148Y-7302463D02*
X6497719Y-7302463D01*
X6497719Y-7302463D02*
X6516767Y-7311987D01*
X6592957Y-7511987D02*
X6602481Y-7502463D01*
X6602481Y-7502463D02*
X6621529Y-7473891D01*
X6621529Y-7473891D02*
X6631053Y-7454844D01*
X6631053Y-7454844D02*
X6640576Y-7426272D01*
X6640576Y-7426272D02*
X6650100Y-7378653D01*
X6650100Y-7378653D02*
X6650100Y-7340558D01*
X6650100Y-7340558D02*
X6640576Y-7292939D01*
X6640576Y-7292939D02*
X6631053Y-7264368D01*
X6631053Y-7264368D02*
X6621529Y-7245320D01*
X6621529Y-7245320D02*
X6602481Y-7216748D01*
X6602481Y-7216748D02*
X6592957Y-7207225D01*
M02*
