%TF.GenerationSoftware,KiCad,Pcbnew,(7.0.0-0)*%
%TF.CreationDate,2023-08-10T08:47:01-05:00*%
%TF.ProjectId,DingoPCB,44696e67-6f50-4434-922e-6b696361645f,rev?*%
%TF.SameCoordinates,Original*%
%TF.FileFunction,Copper,L1,Top*%
%TF.FilePolarity,Positive*%
%FSLAX46Y46*%
G04 Gerber Fmt 4.6, Leading zero omitted, Abs format (unit mm)*
G04 Created by KiCad (PCBNEW (7.0.0-0)) date 2023-08-10 08:47:01*
%MOMM*%
%LPD*%
G01*
G04 APERTURE LIST*
G04 Aperture macros list*
%AMRoundRect*
0 Rectangle with rounded corners*
0 $1 Rounding radius*
0 $2 $3 $4 $5 $6 $7 $8 $9 X,Y pos of 4 corners*
0 Add a 4 corners polygon primitive as box body*
4,1,4,$2,$3,$4,$5,$6,$7,$8,$9,$2,$3,0*
0 Add four circle primitives for the rounded corners*
1,1,$1+$1,$2,$3*
1,1,$1+$1,$4,$5*
1,1,$1+$1,$6,$7*
1,1,$1+$1,$8,$9*
0 Add four rect primitives between the rounded corners*
20,1,$1+$1,$2,$3,$4,$5,0*
20,1,$1+$1,$4,$5,$6,$7,0*
20,1,$1+$1,$6,$7,$8,$9,0*
20,1,$1+$1,$8,$9,$2,$3,0*%
G04 Aperture macros list end*
%TA.AperFunction,ComponentPad*%
%ADD10RoundRect,0.250000X-0.600000X-0.750000X0.600000X-0.750000X0.600000X0.750000X-0.600000X0.750000X0*%
%TD*%
%TA.AperFunction,ComponentPad*%
%ADD11O,1.700000X2.000000*%
%TD*%
%TA.AperFunction,ComponentPad*%
%ADD12R,2.600000X2.600000*%
%TD*%
%TA.AperFunction,ComponentPad*%
%ADD13C,2.600000*%
%TD*%
%TA.AperFunction,ComponentPad*%
%ADD14C,1.400000*%
%TD*%
%TA.AperFunction,ComponentPad*%
%ADD15O,1.400000X1.400000*%
%TD*%
%TA.AperFunction,ComponentPad*%
%ADD16R,1.600000X1.600000*%
%TD*%
%TA.AperFunction,ComponentPad*%
%ADD17O,1.600000X1.600000*%
%TD*%
%TA.AperFunction,Conductor*%
%ADD18C,0.250000*%
%TD*%
G04 APERTURE END LIST*
D10*
%TO.P,J12,1,Pin_1*%
%TO.N,GND*%
X42762800Y-40792400D03*
D11*
%TO.P,J12,2,Pin_2*%
%TO.N,+5V*%
X45262799Y-40792399D03*
%TD*%
D12*
%TO.P,J1,1,Pin_1*%
%TO.N,GND*%
X22961599Y-38557199D03*
D13*
%TO.P,J1,2,Pin_2*%
%TO.N,+15V*%
X22961600Y-43637200D03*
%TD*%
D10*
%TO.P,J11,1,Pin_1*%
%TO.N,+12V*%
X60553600Y-40792400D03*
D11*
%TO.P,J11,2,Pin_2*%
%TO.N,GND*%
X63053599Y-40792399D03*
%TD*%
D14*
%TO.P,R2,1*%
%TO.N,Net-(J10-Pin_2)*%
X64159600Y-35306000D03*
D15*
%TO.P,R2,2*%
%TO.N,GND*%
X66699599Y-35305999D03*
%TD*%
D12*
%TO.P,J4,1,Pin_1*%
%TO.N,GND*%
X51257199Y-54051199D03*
D13*
%TO.P,J4,2,Pin_2*%
%TO.N,+15V*%
X56337200Y-54051200D03*
%TD*%
D10*
%TO.P,J20,1,Pin_1*%
%TO.N,GND*%
X84328000Y-23520400D03*
D11*
%TO.P,J20,2,Pin_2*%
%TO.N,+5V*%
X86827999Y-23520399D03*
%TD*%
D12*
%TO.P,J2,1,Pin_1*%
%TO.N,GND*%
X52933599Y-24485599D03*
D13*
%TO.P,J2,2,Pin_2*%
%TO.N,+15V*%
X47853600Y-24485600D03*
%TD*%
D10*
%TO.P,J8,1,Pin_1*%
%TO.N,+12V*%
X69392800Y-40792400D03*
D11*
%TO.P,J8,2,Pin_2*%
%TO.N,GND*%
X71892799Y-40792399D03*
%TD*%
D10*
%TO.P,J9,1,Pin_1*%
%TO.N,GND*%
X33223200Y-40792400D03*
D11*
%TO.P,J9,2,Pin_2*%
%TO.N,+5V*%
X35723199Y-40792399D03*
%TD*%
D12*
%TO.P,J7,1,Pin_1*%
%TO.N,GND*%
X75387199Y-24485599D03*
D13*
%TO.P,J7,2,Pin_2*%
%TO.N,+5V*%
X70307200Y-24485600D03*
%TD*%
D10*
%TO.P,J17,1,Pin_1*%
%TO.N,GND*%
X28234000Y-54254400D03*
D11*
%TO.P,J17,2,Pin_2*%
%TO.N,+5V*%
X30733999Y-54254399D03*
%TD*%
D10*
%TO.P,J14,1,Pin_1*%
%TO.N,GND*%
X51754400Y-40792400D03*
D11*
%TO.P,J14,2,Pin_2*%
%TO.N,+5V*%
X54254399Y-40792399D03*
%TD*%
D16*
%TO.P,D1,1,K*%
%TO.N,Net-(D1-K)*%
X51460399Y-35356799D03*
D17*
%TO.P,D1,2,A*%
%TO.N,+15V*%
X43840399Y-35356799D03*
%TD*%
D10*
%TO.P,J18,1,Pin_1*%
%TO.N,GND*%
X85547200Y-54203600D03*
D11*
%TO.P,J18,2,Pin_2*%
%TO.N,+5V*%
X88047199Y-54203599D03*
%TD*%
D14*
%TO.P,R1,1*%
%TO.N,Net-(D1-K)*%
X56540400Y-35306000D03*
D15*
%TO.P,R1,2*%
%TO.N,Net-(J10-Pin_2)*%
X59080399Y-35305999D03*
%TD*%
D10*
%TO.P,J15,1,Pin_1*%
%TO.N,GND*%
X27624400Y-23825200D03*
D11*
%TO.P,J15,2,Pin_2*%
%TO.N,+5V*%
X30124399Y-23825199D03*
%TD*%
D10*
%TO.P,J13,1,Pin_1*%
%TO.N,+12V*%
X78282800Y-40843200D03*
D11*
%TO.P,J13,2,Pin_2*%
%TO.N,GND*%
X80782799Y-40843199D03*
%TD*%
D12*
%TO.P,J3,1,Pin_1*%
%TO.N,GND*%
X40030399Y-54051199D03*
D13*
%TO.P,J3,2,Pin_2*%
%TO.N,+15V*%
X45110400Y-54051200D03*
%TD*%
D10*
%TO.P,J16,1,Pin_1*%
%TO.N,GND*%
X37936800Y-23825200D03*
D11*
%TO.P,J16,2,Pin_2*%
%TO.N,+5V*%
X40436799Y-23825199D03*
%TD*%
D12*
%TO.P,J5,1,Pin_1*%
%TO.N,GND*%
X62478999Y-54051399D03*
D13*
%TO.P,J5,2,Pin_2*%
%TO.N,+15V*%
X67559000Y-54051400D03*
%TD*%
D12*
%TO.P,J6,1,Pin_1*%
%TO.N,GND*%
X92405199Y-44145199D03*
D13*
%TO.P,J6,2,Pin_2*%
%TO.N,+12V*%
X92405200Y-39065200D03*
%TD*%
D12*
%TO.P,J10,1,Pin_1*%
%TO.N,GND*%
X64160399Y-24485599D03*
D13*
%TO.P,J10,2,Pin_2*%
%TO.N,Net-(J10-Pin_2)*%
X59080400Y-24485600D03*
%TD*%
D10*
%TO.P,J19,1,Pin_1*%
%TO.N,GND*%
X76047600Y-54203600D03*
D11*
%TO.P,J19,2,Pin_2*%
%TO.N,+5V*%
X78547599Y-54203599D03*
%TD*%
D18*
%TO.N,Net-(D1-K)*%
X51460400Y-35356800D02*
X56336400Y-35356800D01*
%TO.N,+12V*%
X62636400Y-38709600D02*
X60553600Y-40792400D01*
X80314800Y-39014400D02*
X78486000Y-40843200D01*
X67310000Y-38709600D02*
X62636400Y-38709600D01*
X80365600Y-39065200D02*
X80314800Y-39014400D01*
X78486000Y-40843200D02*
X78282800Y-40843200D01*
X69392800Y-40792400D02*
X67310000Y-38709600D01*
X71831200Y-38354000D02*
X69392800Y-40792400D01*
X78282800Y-40843200D02*
X75793600Y-38354000D01*
X75793600Y-38354000D02*
X71831200Y-38354000D01*
X92405200Y-39065200D02*
X80365600Y-39065200D01*
%TO.N,Net-(J10-Pin_2)*%
X64108800Y-35356800D02*
X64159600Y-35306000D01*
X58876400Y-35356800D02*
X64108800Y-35356800D01*
%TD*%
%TA.AperFunction,Conductor*%
%TO.N,+15V*%
G36*
X41033193Y-19318759D02*
G01*
X97564479Y-19354721D01*
X97626446Y-19371360D01*
X97671800Y-19416744D01*
X97688400Y-19478721D01*
X97688400Y-59058000D01*
X97671787Y-59120000D01*
X97626400Y-59165387D01*
X97564400Y-59182000D01*
X17954800Y-59182000D01*
X17892800Y-59165387D01*
X17847413Y-59120000D01*
X17830800Y-59058000D01*
X17830800Y-56253200D01*
X18545012Y-56253200D01*
X18545328Y-56257618D01*
X18563824Y-56516242D01*
X18563825Y-56516251D01*
X18564141Y-56520665D01*
X18565081Y-56524990D01*
X18565083Y-56524998D01*
X18614756Y-56753340D01*
X18621140Y-56782685D01*
X18714849Y-57033926D01*
X18716969Y-57037808D01*
X18716972Y-57037815D01*
X18841231Y-57265380D01*
X18841235Y-57265387D01*
X18843358Y-57269274D01*
X18846015Y-57272823D01*
X19001400Y-57480394D01*
X19001405Y-57480400D01*
X19004053Y-57483937D01*
X19193663Y-57673547D01*
X19197200Y-57676195D01*
X19197205Y-57676199D01*
X19299804Y-57753003D01*
X19408326Y-57834242D01*
X19412216Y-57836366D01*
X19412219Y-57836368D01*
X19639784Y-57960627D01*
X19643674Y-57962751D01*
X19894915Y-58056460D01*
X20156935Y-58113459D01*
X20424400Y-58132588D01*
X20691865Y-58113459D01*
X20953885Y-58056460D01*
X21205126Y-57962751D01*
X21440474Y-57834242D01*
X21655137Y-57673547D01*
X21844747Y-57483937D01*
X22005442Y-57269274D01*
X22133951Y-57033926D01*
X22227660Y-56782685D01*
X22284659Y-56520665D01*
X22303788Y-56253200D01*
X92545012Y-56253200D01*
X92545328Y-56257618D01*
X92563824Y-56516242D01*
X92563825Y-56516251D01*
X92564141Y-56520665D01*
X92565081Y-56524990D01*
X92565083Y-56524998D01*
X92614756Y-56753340D01*
X92621140Y-56782685D01*
X92714849Y-57033926D01*
X92716969Y-57037808D01*
X92716972Y-57037815D01*
X92841231Y-57265380D01*
X92841235Y-57265387D01*
X92843358Y-57269274D01*
X92846015Y-57272823D01*
X93001400Y-57480394D01*
X93001405Y-57480400D01*
X93004053Y-57483937D01*
X93193663Y-57673547D01*
X93197200Y-57676195D01*
X93197205Y-57676199D01*
X93299804Y-57753003D01*
X93408326Y-57834242D01*
X93412216Y-57836366D01*
X93412219Y-57836368D01*
X93639784Y-57960627D01*
X93643674Y-57962751D01*
X93894915Y-58056460D01*
X94156935Y-58113459D01*
X94424400Y-58132588D01*
X94691865Y-58113459D01*
X94953885Y-58056460D01*
X95205126Y-57962751D01*
X95440474Y-57834242D01*
X95655137Y-57673547D01*
X95844747Y-57483937D01*
X96005442Y-57269274D01*
X96133951Y-57033926D01*
X96227660Y-56782685D01*
X96284659Y-56520665D01*
X96303788Y-56253200D01*
X96284659Y-55985735D01*
X96227660Y-55723715D01*
X96133951Y-55472474D01*
X96130913Y-55466911D01*
X96007568Y-55241019D01*
X96007566Y-55241016D01*
X96005442Y-55237126D01*
X95919987Y-55122972D01*
X95847399Y-55026005D01*
X95847395Y-55026000D01*
X95844747Y-55022463D01*
X95655137Y-54832853D01*
X95651600Y-54830205D01*
X95651594Y-54830200D01*
X95444023Y-54674815D01*
X95440474Y-54672158D01*
X95436587Y-54670035D01*
X95436580Y-54670031D01*
X95209015Y-54545772D01*
X95209008Y-54545769D01*
X95205126Y-54543649D01*
X94997115Y-54466064D01*
X94958028Y-54451485D01*
X94958024Y-54451483D01*
X94953885Y-54449940D01*
X94924540Y-54443556D01*
X94696198Y-54393883D01*
X94696190Y-54393881D01*
X94691865Y-54392941D01*
X94687451Y-54392625D01*
X94687442Y-54392624D01*
X94428818Y-54374128D01*
X94424400Y-54373812D01*
X94419982Y-54374128D01*
X94161357Y-54392624D01*
X94161346Y-54392625D01*
X94156935Y-54392941D01*
X94152611Y-54393881D01*
X94152601Y-54393883D01*
X93899240Y-54448999D01*
X93899237Y-54448999D01*
X93894915Y-54449940D01*
X93890779Y-54451482D01*
X93890771Y-54451485D01*
X93647823Y-54542101D01*
X93647817Y-54542103D01*
X93643674Y-54543649D01*
X93639796Y-54545766D01*
X93639784Y-54545772D01*
X93412219Y-54670031D01*
X93412205Y-54670039D01*
X93408326Y-54672158D01*
X93404780Y-54674811D01*
X93404776Y-54674815D01*
X93197205Y-54830200D01*
X93197192Y-54830210D01*
X93193663Y-54832853D01*
X93190537Y-54835978D01*
X93190530Y-54835985D01*
X93007185Y-55019330D01*
X93007178Y-55019337D01*
X93004053Y-55022463D01*
X93001410Y-55025992D01*
X93001400Y-55026005D01*
X92846015Y-55233576D01*
X92846011Y-55233580D01*
X92843358Y-55237126D01*
X92841239Y-55241005D01*
X92841231Y-55241019D01*
X92716972Y-55468584D01*
X92716966Y-55468596D01*
X92714849Y-55472474D01*
X92713303Y-55476617D01*
X92713301Y-55476623D01*
X92622685Y-55719571D01*
X92622682Y-55719579D01*
X92621140Y-55723715D01*
X92620199Y-55728037D01*
X92620199Y-55728040D01*
X92565083Y-55981401D01*
X92565081Y-55981411D01*
X92564141Y-55985735D01*
X92563825Y-55990146D01*
X92563824Y-55990157D01*
X92545961Y-56239927D01*
X92545012Y-56253200D01*
X22303788Y-56253200D01*
X22284659Y-55985735D01*
X22227660Y-55723715D01*
X22133951Y-55472474D01*
X22130913Y-55466911D01*
X22007568Y-55241019D01*
X22007566Y-55241016D01*
X22005442Y-55237126D01*
X21919987Y-55122972D01*
X21866318Y-55051278D01*
X26883500Y-55051278D01*
X26883501Y-55054408D01*
X26883820Y-55057540D01*
X26883821Y-55057541D01*
X26893312Y-55150461D01*
X26893313Y-55150469D01*
X26894001Y-55157197D01*
X26896129Y-55163619D01*
X26896130Y-55163623D01*
X26934389Y-55279080D01*
X26949186Y-55323734D01*
X26952977Y-55329880D01*
X27037497Y-55466911D01*
X27037500Y-55466915D01*
X27041288Y-55473056D01*
X27165344Y-55597112D01*
X27171485Y-55600900D01*
X27171488Y-55600902D01*
X27196991Y-55616632D01*
X27314666Y-55689214D01*
X27481203Y-55744399D01*
X27583991Y-55754900D01*
X28884008Y-55754899D01*
X28986797Y-55744399D01*
X29153334Y-55689214D01*
X29302656Y-55597112D01*
X29426712Y-55473056D01*
X29518814Y-55323734D01*
X29519698Y-55324279D01*
X29551662Y-55284446D01*
X29605618Y-55260700D01*
X29664441Y-55264553D01*
X29714838Y-55295134D01*
X29862599Y-55442895D01*
X29867031Y-55445998D01*
X29867033Y-55446000D01*
X29941023Y-55497808D01*
X30056170Y-55578435D01*
X30061070Y-55580720D01*
X30061072Y-55580721D01*
X30070718Y-55585219D01*
X30270337Y-55678303D01*
X30275567Y-55679704D01*
X30275569Y-55679705D01*
X30310759Y-55689134D01*
X30498592Y-55739463D01*
X30734000Y-55760059D01*
X30969408Y-55739463D01*
X31197663Y-55678303D01*
X31411829Y-55578435D01*
X31605401Y-55442895D01*
X31652518Y-55395778D01*
X38229900Y-55395778D01*
X38229901Y-55399072D01*
X38230253Y-55402350D01*
X38230254Y-55402361D01*
X38235479Y-55450968D01*
X38235480Y-55450973D01*
X38236309Y-55458683D01*
X38239019Y-55465949D01*
X38239020Y-55465953D01*
X38250902Y-55497809D01*
X38286604Y-55593531D01*
X38291918Y-55600630D01*
X38291919Y-55600631D01*
X38355393Y-55685422D01*
X38372854Y-55708746D01*
X38488069Y-55794996D01*
X38622917Y-55845291D01*
X38682527Y-55851700D01*
X41378272Y-55851699D01*
X41437883Y-55845291D01*
X41572731Y-55794996D01*
X41687946Y-55708746D01*
X41774196Y-55593531D01*
X41812978Y-55489550D01*
X44029004Y-55489550D01*
X44036550Y-55497608D01*
X44204041Y-55611801D01*
X44212062Y-55616432D01*
X44446762Y-55729458D01*
X44455373Y-55732838D01*
X44704308Y-55809624D01*
X44713324Y-55811682D01*
X44970923Y-55850508D01*
X44980146Y-55851200D01*
X45240654Y-55851200D01*
X45249876Y-55850508D01*
X45507475Y-55811682D01*
X45516491Y-55809624D01*
X45765427Y-55732837D01*
X45774037Y-55729458D01*
X46008740Y-55616431D01*
X46016759Y-55611801D01*
X46184246Y-55497609D01*
X46191794Y-55489550D01*
X46185877Y-55480230D01*
X46101425Y-55395778D01*
X49456700Y-55395778D01*
X49456701Y-55399072D01*
X49457053Y-55402350D01*
X49457054Y-55402361D01*
X49462279Y-55450968D01*
X49462280Y-55450973D01*
X49463109Y-55458683D01*
X49465819Y-55465949D01*
X49465820Y-55465953D01*
X49477702Y-55497809D01*
X49513404Y-55593531D01*
X49518718Y-55600630D01*
X49518719Y-55600631D01*
X49582193Y-55685422D01*
X49599654Y-55708746D01*
X49714869Y-55794996D01*
X49849717Y-55845291D01*
X49909327Y-55851700D01*
X52605072Y-55851699D01*
X52664683Y-55845291D01*
X52799531Y-55794996D01*
X52914746Y-55708746D01*
X53000996Y-55593531D01*
X53039778Y-55489550D01*
X55255804Y-55489550D01*
X55263350Y-55497608D01*
X55430841Y-55611801D01*
X55438862Y-55616432D01*
X55673562Y-55729458D01*
X55682173Y-55732838D01*
X55931108Y-55809624D01*
X55940124Y-55811682D01*
X56197723Y-55850508D01*
X56206946Y-55851200D01*
X56467454Y-55851200D01*
X56476676Y-55850508D01*
X56734275Y-55811682D01*
X56743291Y-55809624D01*
X56992227Y-55732837D01*
X57000837Y-55729458D01*
X57235540Y-55616431D01*
X57243559Y-55611801D01*
X57411046Y-55497609D01*
X57418594Y-55489550D01*
X57412677Y-55480230D01*
X57328425Y-55395978D01*
X60678500Y-55395978D01*
X60678501Y-55399272D01*
X60678853Y-55402550D01*
X60678854Y-55402561D01*
X60684079Y-55451168D01*
X60684080Y-55451173D01*
X60684909Y-55458883D01*
X60687619Y-55466149D01*
X60687620Y-55466153D01*
X60715613Y-55541206D01*
X60735204Y-55593731D01*
X60740518Y-55600830D01*
X60740519Y-55600831D01*
X60806682Y-55689214D01*
X60821454Y-55708946D01*
X60936669Y-55795196D01*
X61071517Y-55845491D01*
X61131127Y-55851900D01*
X63826872Y-55851899D01*
X63886483Y-55845491D01*
X64021331Y-55795196D01*
X64136546Y-55708946D01*
X64222796Y-55593731D01*
X64261578Y-55489750D01*
X66477604Y-55489750D01*
X66485150Y-55497808D01*
X66652641Y-55612001D01*
X66660662Y-55616632D01*
X66895362Y-55729658D01*
X66903973Y-55733038D01*
X67152908Y-55809824D01*
X67161924Y-55811882D01*
X67419523Y-55850708D01*
X67428746Y-55851400D01*
X67689254Y-55851400D01*
X67698476Y-55850708D01*
X67956075Y-55811882D01*
X67965091Y-55809824D01*
X68214027Y-55733037D01*
X68222637Y-55729658D01*
X68457340Y-55616631D01*
X68465359Y-55612001D01*
X68632846Y-55497809D01*
X68640394Y-55489750D01*
X68634477Y-55480430D01*
X67570542Y-54416495D01*
X67558999Y-54409831D01*
X67547457Y-54416495D01*
X66483521Y-55480430D01*
X66477604Y-55489750D01*
X64261578Y-55489750D01*
X64273091Y-55458883D01*
X64279500Y-55399273D01*
X64279500Y-54056030D01*
X65754300Y-54056030D01*
X65773767Y-54315799D01*
X65775146Y-54324952D01*
X65833111Y-54578915D01*
X65835844Y-54587775D01*
X65931011Y-54830256D01*
X65935030Y-54838602D01*
X66065278Y-55064198D01*
X66070496Y-55071850D01*
X66110379Y-55121862D01*
X66121615Y-55129835D01*
X66133674Y-55123171D01*
X67193904Y-54062942D01*
X67200568Y-54051400D01*
X67917431Y-54051400D01*
X67924095Y-54062942D01*
X68984325Y-55123172D01*
X68996382Y-55129836D01*
X69007619Y-55121863D01*
X69047507Y-55071845D01*
X69052719Y-55064200D01*
X69089509Y-55000478D01*
X74697100Y-55000478D01*
X74697101Y-55003608D01*
X74697420Y-55006740D01*
X74697421Y-55006741D01*
X74706912Y-55099661D01*
X74706913Y-55099669D01*
X74707601Y-55106397D01*
X74709729Y-55112819D01*
X74709730Y-55112823D01*
X74748171Y-55228830D01*
X74762786Y-55272934D01*
X74766577Y-55279080D01*
X74851097Y-55416111D01*
X74851100Y-55416115D01*
X74854888Y-55422256D01*
X74978944Y-55546312D01*
X74985085Y-55550100D01*
X74985088Y-55550102D01*
X75025983Y-55575326D01*
X75128266Y-55638414D01*
X75294803Y-55693599D01*
X75397591Y-55704100D01*
X76697608Y-55704099D01*
X76800397Y-55693599D01*
X76966934Y-55638414D01*
X77116256Y-55546312D01*
X77240312Y-55422256D01*
X77332414Y-55272934D01*
X77333298Y-55273479D01*
X77365262Y-55233646D01*
X77419218Y-55209900D01*
X77478041Y-55213753D01*
X77528438Y-55244334D01*
X77676199Y-55392095D01*
X77680631Y-55395198D01*
X77680633Y-55395200D01*
X77790992Y-55472474D01*
X77869770Y-55527635D01*
X77874670Y-55529920D01*
X77874672Y-55529921D01*
X77898873Y-55541206D01*
X78083937Y-55627503D01*
X78312192Y-55688663D01*
X78537579Y-55708382D01*
X78541736Y-55708746D01*
X78547600Y-55709259D01*
X78553464Y-55708746D01*
X78557020Y-55708434D01*
X78783008Y-55688663D01*
X79011263Y-55627503D01*
X79225429Y-55527635D01*
X79419001Y-55392095D01*
X79586095Y-55225001D01*
X79721635Y-55031429D01*
X79736068Y-55000478D01*
X84196700Y-55000478D01*
X84196701Y-55003608D01*
X84197020Y-55006740D01*
X84197021Y-55006741D01*
X84206512Y-55099661D01*
X84206513Y-55099669D01*
X84207201Y-55106397D01*
X84209329Y-55112819D01*
X84209330Y-55112823D01*
X84247771Y-55228830D01*
X84262386Y-55272934D01*
X84266177Y-55279080D01*
X84350697Y-55416111D01*
X84350700Y-55416115D01*
X84354488Y-55422256D01*
X84478544Y-55546312D01*
X84484685Y-55550100D01*
X84484688Y-55550102D01*
X84525583Y-55575326D01*
X84627866Y-55638414D01*
X84794403Y-55693599D01*
X84897191Y-55704100D01*
X86197208Y-55704099D01*
X86299997Y-55693599D01*
X86466534Y-55638414D01*
X86615856Y-55546312D01*
X86739912Y-55422256D01*
X86832014Y-55272934D01*
X86832898Y-55273479D01*
X86864862Y-55233646D01*
X86918818Y-55209900D01*
X86977641Y-55213753D01*
X87028038Y-55244334D01*
X87175799Y-55392095D01*
X87180231Y-55395198D01*
X87180233Y-55395200D01*
X87290592Y-55472474D01*
X87369370Y-55527635D01*
X87374270Y-55529920D01*
X87374272Y-55529921D01*
X87398473Y-55541206D01*
X87583537Y-55627503D01*
X87811792Y-55688663D01*
X88037179Y-55708382D01*
X88041336Y-55708746D01*
X88047200Y-55709259D01*
X88053064Y-55708746D01*
X88056620Y-55708434D01*
X88282608Y-55688663D01*
X88510863Y-55627503D01*
X88725029Y-55527635D01*
X88918601Y-55392095D01*
X89085695Y-55225001D01*
X89221235Y-55031429D01*
X89321103Y-54817263D01*
X89382263Y-54589008D01*
X89397700Y-54412566D01*
X89397700Y-53994634D01*
X89382263Y-53818192D01*
X89321103Y-53589937D01*
X89221235Y-53375771D01*
X89085695Y-53182199D01*
X88918601Y-53015105D01*
X88914170Y-53012002D01*
X88914166Y-53011999D01*
X88729459Y-52882666D01*
X88729457Y-52882664D01*
X88725030Y-52879565D01*
X88720133Y-52877281D01*
X88720127Y-52877278D01*
X88515772Y-52781986D01*
X88515770Y-52781985D01*
X88510863Y-52779697D01*
X88505638Y-52778297D01*
X88505630Y-52778294D01*
X88287834Y-52719937D01*
X88287830Y-52719936D01*
X88282608Y-52718537D01*
X88277220Y-52718065D01*
X88277217Y-52718065D01*
X88052595Y-52698413D01*
X88047200Y-52697941D01*
X88041805Y-52698413D01*
X87817182Y-52718065D01*
X87817177Y-52718065D01*
X87811792Y-52718537D01*
X87806571Y-52719935D01*
X87806565Y-52719937D01*
X87588769Y-52778294D01*
X87588757Y-52778298D01*
X87583537Y-52779697D01*
X87578632Y-52781983D01*
X87578627Y-52781986D01*
X87374281Y-52877275D01*
X87374277Y-52877277D01*
X87369371Y-52879565D01*
X87364938Y-52882668D01*
X87364931Y-52882673D01*
X87180234Y-53011999D01*
X87180229Y-53012002D01*
X87175799Y-53015105D01*
X87171975Y-53018928D01*
X87171975Y-53018929D01*
X87028038Y-53162866D01*
X86977643Y-53193445D01*
X86918821Y-53197300D01*
X86864867Y-53173557D01*
X86832897Y-53133720D01*
X86832014Y-53134266D01*
X86743702Y-52991088D01*
X86743700Y-52991085D01*
X86739912Y-52984944D01*
X86615856Y-52860888D01*
X86609715Y-52857100D01*
X86609711Y-52857097D01*
X86472680Y-52772577D01*
X86466534Y-52768786D01*
X86406042Y-52748741D01*
X86306425Y-52715731D01*
X86306424Y-52715730D01*
X86299997Y-52713601D01*
X86293264Y-52712913D01*
X86293259Y-52712912D01*
X86200340Y-52703419D01*
X86200323Y-52703418D01*
X86197209Y-52703100D01*
X86194060Y-52703100D01*
X84900340Y-52703100D01*
X84900320Y-52703100D01*
X84897192Y-52703101D01*
X84894060Y-52703420D01*
X84894058Y-52703421D01*
X84801138Y-52712912D01*
X84801128Y-52712913D01*
X84794403Y-52713601D01*
X84787981Y-52715728D01*
X84787976Y-52715730D01*
X84634721Y-52766514D01*
X84634717Y-52766515D01*
X84627866Y-52768786D01*
X84621722Y-52772575D01*
X84621719Y-52772577D01*
X84484688Y-52857097D01*
X84484680Y-52857103D01*
X84478544Y-52860888D01*
X84473442Y-52865989D01*
X84473438Y-52865993D01*
X84359593Y-52979838D01*
X84359589Y-52979842D01*
X84354488Y-52984944D01*
X84350703Y-52991080D01*
X84350697Y-52991088D01*
X84266177Y-53128119D01*
X84262386Y-53134266D01*
X84260115Y-53141117D01*
X84260114Y-53141121D01*
X84216565Y-53272543D01*
X84207201Y-53300803D01*
X84206513Y-53307533D01*
X84206512Y-53307540D01*
X84197019Y-53400459D01*
X84197018Y-53400477D01*
X84196700Y-53403591D01*
X84196700Y-53406738D01*
X84196700Y-53406739D01*
X84196700Y-55000459D01*
X84196700Y-55000478D01*
X79736068Y-55000478D01*
X79821503Y-54817263D01*
X79882663Y-54589008D01*
X79898100Y-54412566D01*
X79898100Y-53994634D01*
X79882663Y-53818192D01*
X79821503Y-53589937D01*
X79721635Y-53375771D01*
X79586095Y-53182199D01*
X79419001Y-53015105D01*
X79414570Y-53012002D01*
X79414566Y-53011999D01*
X79229859Y-52882666D01*
X79229857Y-52882664D01*
X79225430Y-52879565D01*
X79220533Y-52877281D01*
X79220527Y-52877278D01*
X79016172Y-52781986D01*
X79016170Y-52781985D01*
X79011263Y-52779697D01*
X79006038Y-52778297D01*
X79006030Y-52778294D01*
X78788234Y-52719937D01*
X78788230Y-52719936D01*
X78783008Y-52718537D01*
X78777620Y-52718065D01*
X78777617Y-52718065D01*
X78552995Y-52698413D01*
X78547600Y-52697941D01*
X78542205Y-52698413D01*
X78317582Y-52718065D01*
X78317577Y-52718065D01*
X78312192Y-52718537D01*
X78306971Y-52719935D01*
X78306965Y-52719937D01*
X78089169Y-52778294D01*
X78089157Y-52778298D01*
X78083937Y-52779697D01*
X78079032Y-52781983D01*
X78079027Y-52781986D01*
X77874681Y-52877275D01*
X77874677Y-52877277D01*
X77869771Y-52879565D01*
X77865338Y-52882668D01*
X77865331Y-52882673D01*
X77680634Y-53011999D01*
X77680629Y-53012002D01*
X77676199Y-53015105D01*
X77672375Y-53018928D01*
X77672375Y-53018929D01*
X77528438Y-53162866D01*
X77478043Y-53193445D01*
X77419221Y-53197300D01*
X77365267Y-53173557D01*
X77333297Y-53133720D01*
X77332414Y-53134266D01*
X77244102Y-52991088D01*
X77244100Y-52991085D01*
X77240312Y-52984944D01*
X77116256Y-52860888D01*
X77110115Y-52857100D01*
X77110111Y-52857097D01*
X76973080Y-52772577D01*
X76966934Y-52768786D01*
X76906442Y-52748741D01*
X76806825Y-52715731D01*
X76806824Y-52715730D01*
X76800397Y-52713601D01*
X76793664Y-52712913D01*
X76793659Y-52712912D01*
X76700740Y-52703419D01*
X76700723Y-52703418D01*
X76697609Y-52703100D01*
X76694460Y-52703100D01*
X75400740Y-52703100D01*
X75400720Y-52703100D01*
X75397592Y-52703101D01*
X75394460Y-52703420D01*
X75394458Y-52703421D01*
X75301538Y-52712912D01*
X75301528Y-52712913D01*
X75294803Y-52713601D01*
X75288381Y-52715728D01*
X75288376Y-52715730D01*
X75135121Y-52766514D01*
X75135117Y-52766515D01*
X75128266Y-52768786D01*
X75122122Y-52772575D01*
X75122119Y-52772577D01*
X74985088Y-52857097D01*
X74985080Y-52857103D01*
X74978944Y-52860888D01*
X74973842Y-52865989D01*
X74973838Y-52865993D01*
X74859993Y-52979838D01*
X74859989Y-52979842D01*
X74854888Y-52984944D01*
X74851103Y-52991080D01*
X74851097Y-52991088D01*
X74766577Y-53128119D01*
X74762786Y-53134266D01*
X74760515Y-53141117D01*
X74760514Y-53141121D01*
X74716965Y-53272543D01*
X74707601Y-53300803D01*
X74706913Y-53307533D01*
X74706912Y-53307540D01*
X74697419Y-53400459D01*
X74697418Y-53400477D01*
X74697100Y-53403591D01*
X74697100Y-53406738D01*
X74697100Y-53406739D01*
X74697100Y-55000459D01*
X74697100Y-55000478D01*
X69089509Y-55000478D01*
X69182969Y-54838602D01*
X69186988Y-54830256D01*
X69282155Y-54587775D01*
X69284888Y-54578915D01*
X69342853Y-54324952D01*
X69344232Y-54315799D01*
X69363700Y-54056030D01*
X69363700Y-54046770D01*
X69344232Y-53787000D01*
X69342853Y-53777847D01*
X69284888Y-53523884D01*
X69282155Y-53515024D01*
X69186988Y-53272543D01*
X69182969Y-53264197D01*
X69052721Y-53038601D01*
X69047503Y-53030949D01*
X69007619Y-52980936D01*
X68996382Y-52972962D01*
X68984325Y-52979626D01*
X67924095Y-54039857D01*
X67917431Y-54051400D01*
X67200568Y-54051400D01*
X67193904Y-54039857D01*
X66133674Y-52979627D01*
X66121615Y-52972962D01*
X66110380Y-52980934D01*
X66070488Y-53030958D01*
X66065282Y-53038595D01*
X65935030Y-53264197D01*
X65931011Y-53272543D01*
X65835844Y-53515024D01*
X65833111Y-53523884D01*
X65775146Y-53777847D01*
X65773767Y-53787000D01*
X65754300Y-54046770D01*
X65754300Y-54056030D01*
X64279500Y-54056030D01*
X64279499Y-52703528D01*
X64273091Y-52643917D01*
X64261578Y-52613048D01*
X66477603Y-52613048D01*
X66483519Y-52622366D01*
X67547457Y-53686304D01*
X67559000Y-53692968D01*
X67570542Y-53686304D01*
X68634477Y-52622368D01*
X68640394Y-52613048D01*
X68632846Y-52604989D01*
X68465360Y-52490798D01*
X68457340Y-52486168D01*
X68222637Y-52373141D01*
X68214027Y-52369762D01*
X67965091Y-52292975D01*
X67956075Y-52290917D01*
X67698476Y-52252091D01*
X67689254Y-52251400D01*
X67428746Y-52251400D01*
X67419523Y-52252091D01*
X67161924Y-52290917D01*
X67152908Y-52292975D01*
X66903973Y-52369761D01*
X66895362Y-52373141D01*
X66660660Y-52486168D01*
X66652639Y-52490799D01*
X66485151Y-52604990D01*
X66477603Y-52613048D01*
X64261578Y-52613048D01*
X64222796Y-52509069D01*
X64136546Y-52393854D01*
X64021331Y-52307604D01*
X63886483Y-52257309D01*
X63878770Y-52256479D01*
X63878767Y-52256479D01*
X63830180Y-52251255D01*
X63830169Y-52251254D01*
X63826873Y-52250900D01*
X63823550Y-52250900D01*
X61134439Y-52250900D01*
X61134420Y-52250900D01*
X61131128Y-52250901D01*
X61127850Y-52251253D01*
X61127838Y-52251254D01*
X61079231Y-52256479D01*
X61079225Y-52256480D01*
X61071517Y-52257309D01*
X61064252Y-52260018D01*
X61064246Y-52260020D01*
X60944980Y-52304504D01*
X60944978Y-52304504D01*
X60936669Y-52307604D01*
X60929572Y-52312916D01*
X60929568Y-52312919D01*
X60828550Y-52388541D01*
X60828546Y-52388544D01*
X60821454Y-52393854D01*
X60816144Y-52400946D01*
X60816141Y-52400950D01*
X60740519Y-52501968D01*
X60740516Y-52501972D01*
X60735204Y-52509069D01*
X60732104Y-52517378D01*
X60732104Y-52517380D01*
X60687620Y-52636647D01*
X60687619Y-52636650D01*
X60684909Y-52643917D01*
X60684079Y-52651627D01*
X60684079Y-52651632D01*
X60678855Y-52700219D01*
X60678854Y-52700231D01*
X60678500Y-52703527D01*
X60678500Y-52706848D01*
X60678500Y-52706849D01*
X60678500Y-55395960D01*
X60678500Y-55395978D01*
X57328425Y-55395978D01*
X56348742Y-54416295D01*
X56337199Y-54409631D01*
X56325657Y-54416295D01*
X55261721Y-55480230D01*
X55255804Y-55489550D01*
X53039778Y-55489550D01*
X53051291Y-55458683D01*
X53057700Y-55399073D01*
X53057700Y-54055830D01*
X54532500Y-54055830D01*
X54551967Y-54315599D01*
X54553346Y-54324752D01*
X54611311Y-54578715D01*
X54614044Y-54587575D01*
X54709211Y-54830056D01*
X54713230Y-54838402D01*
X54843478Y-55063998D01*
X54848696Y-55071650D01*
X54888579Y-55121662D01*
X54899815Y-55129635D01*
X54911874Y-55122971D01*
X55972104Y-54062742D01*
X55978768Y-54051200D01*
X56695631Y-54051200D01*
X56702295Y-54062742D01*
X57762525Y-55122972D01*
X57774582Y-55129636D01*
X57785819Y-55121663D01*
X57825707Y-55071645D01*
X57830919Y-55064000D01*
X57961169Y-54838402D01*
X57965188Y-54830056D01*
X58060355Y-54587575D01*
X58063088Y-54578715D01*
X58121053Y-54324752D01*
X58122432Y-54315599D01*
X58141900Y-54055830D01*
X58141900Y-54046570D01*
X58122432Y-53786800D01*
X58121053Y-53777647D01*
X58063088Y-53523684D01*
X58060355Y-53514824D01*
X57965188Y-53272343D01*
X57961169Y-53263997D01*
X57830921Y-53038401D01*
X57825703Y-53030749D01*
X57785819Y-52980736D01*
X57774582Y-52972762D01*
X57762525Y-52979426D01*
X56702295Y-54039657D01*
X56695631Y-54051200D01*
X55978768Y-54051200D01*
X55972104Y-54039657D01*
X54911874Y-52979427D01*
X54899815Y-52972762D01*
X54888580Y-52980734D01*
X54848688Y-53030758D01*
X54843482Y-53038395D01*
X54713230Y-53263997D01*
X54709211Y-53272343D01*
X54614044Y-53514824D01*
X54611311Y-53523684D01*
X54553346Y-53777647D01*
X54551967Y-53786800D01*
X54532500Y-54046570D01*
X54532500Y-54055830D01*
X53057700Y-54055830D01*
X53057699Y-52703328D01*
X53051291Y-52643717D01*
X53039778Y-52612848D01*
X55255803Y-52612848D01*
X55261719Y-52622166D01*
X56325657Y-53686104D01*
X56337199Y-53692768D01*
X56348742Y-53686104D01*
X57412677Y-52622168D01*
X57418594Y-52612848D01*
X57411046Y-52604789D01*
X57243560Y-52490598D01*
X57235540Y-52485968D01*
X57000837Y-52372941D01*
X56992227Y-52369562D01*
X56743291Y-52292775D01*
X56734275Y-52290717D01*
X56476676Y-52251891D01*
X56467454Y-52251200D01*
X56206946Y-52251200D01*
X56197723Y-52251891D01*
X55940124Y-52290717D01*
X55931108Y-52292775D01*
X55682173Y-52369561D01*
X55673562Y-52372941D01*
X55438860Y-52485968D01*
X55430839Y-52490599D01*
X55263351Y-52604790D01*
X55255803Y-52612848D01*
X53039778Y-52612848D01*
X53000996Y-52508869D01*
X52914746Y-52393654D01*
X52882830Y-52369762D01*
X52806631Y-52312719D01*
X52806630Y-52312718D01*
X52799531Y-52307404D01*
X52664683Y-52257109D01*
X52656970Y-52256279D01*
X52656967Y-52256279D01*
X52608380Y-52251055D01*
X52608369Y-52251054D01*
X52605073Y-52250700D01*
X52601750Y-52250700D01*
X49912639Y-52250700D01*
X49912620Y-52250700D01*
X49909328Y-52250701D01*
X49906050Y-52251053D01*
X49906038Y-52251054D01*
X49857431Y-52256279D01*
X49857425Y-52256280D01*
X49849717Y-52257109D01*
X49842452Y-52259818D01*
X49842446Y-52259820D01*
X49723180Y-52304304D01*
X49723178Y-52304304D01*
X49714869Y-52307404D01*
X49707772Y-52312716D01*
X49707768Y-52312719D01*
X49606750Y-52388341D01*
X49606746Y-52388344D01*
X49599654Y-52393654D01*
X49594344Y-52400746D01*
X49594341Y-52400750D01*
X49518719Y-52501768D01*
X49518716Y-52501772D01*
X49513404Y-52508869D01*
X49510304Y-52517178D01*
X49510304Y-52517180D01*
X49465820Y-52636447D01*
X49465819Y-52636450D01*
X49463109Y-52643717D01*
X49462279Y-52651427D01*
X49462279Y-52651432D01*
X49457055Y-52700019D01*
X49457054Y-52700031D01*
X49456700Y-52703327D01*
X49456700Y-52706648D01*
X49456700Y-52706649D01*
X49456700Y-55395760D01*
X49456700Y-55395778D01*
X46101425Y-55395778D01*
X45121942Y-54416295D01*
X45110399Y-54409631D01*
X45098857Y-54416295D01*
X44034921Y-55480230D01*
X44029004Y-55489550D01*
X41812978Y-55489550D01*
X41824491Y-55458683D01*
X41830900Y-55399073D01*
X41830900Y-54055830D01*
X43305700Y-54055830D01*
X43325167Y-54315599D01*
X43326546Y-54324752D01*
X43384511Y-54578715D01*
X43387244Y-54587575D01*
X43482411Y-54830056D01*
X43486430Y-54838402D01*
X43616678Y-55063998D01*
X43621896Y-55071650D01*
X43661779Y-55121662D01*
X43673015Y-55129635D01*
X43685074Y-55122971D01*
X44745304Y-54062742D01*
X44751968Y-54051200D01*
X45468831Y-54051200D01*
X45475495Y-54062742D01*
X46535725Y-55122972D01*
X46547782Y-55129636D01*
X46559019Y-55121663D01*
X46598907Y-55071645D01*
X46604119Y-55064000D01*
X46734369Y-54838402D01*
X46738388Y-54830056D01*
X46833555Y-54587575D01*
X46836288Y-54578715D01*
X46894253Y-54324752D01*
X46895632Y-54315599D01*
X46915100Y-54055830D01*
X46915100Y-54046570D01*
X46895632Y-53786800D01*
X46894253Y-53777647D01*
X46836288Y-53523684D01*
X46833555Y-53514824D01*
X46738388Y-53272343D01*
X46734369Y-53263997D01*
X46604121Y-53038401D01*
X46598903Y-53030749D01*
X46559019Y-52980736D01*
X46547782Y-52972762D01*
X46535725Y-52979426D01*
X45475495Y-54039657D01*
X45468831Y-54051200D01*
X44751968Y-54051200D01*
X44745304Y-54039657D01*
X43685074Y-52979427D01*
X43673015Y-52972762D01*
X43661780Y-52980734D01*
X43621888Y-53030758D01*
X43616682Y-53038395D01*
X43486430Y-53263997D01*
X43482411Y-53272343D01*
X43387244Y-53514824D01*
X43384511Y-53523684D01*
X43326546Y-53777647D01*
X43325167Y-53786800D01*
X43305700Y-54046570D01*
X43305700Y-54055830D01*
X41830900Y-54055830D01*
X41830899Y-52703328D01*
X41824491Y-52643717D01*
X41812978Y-52612848D01*
X44029003Y-52612848D01*
X44034919Y-52622166D01*
X45098857Y-53686104D01*
X45110399Y-53692768D01*
X45121942Y-53686104D01*
X46185877Y-52622168D01*
X46191794Y-52612848D01*
X46184246Y-52604789D01*
X46016760Y-52490598D01*
X46008740Y-52485968D01*
X45774037Y-52372941D01*
X45765427Y-52369562D01*
X45516491Y-52292775D01*
X45507475Y-52290717D01*
X45249876Y-52251891D01*
X45240654Y-52251200D01*
X44980146Y-52251200D01*
X44970923Y-52251891D01*
X44713324Y-52290717D01*
X44704308Y-52292775D01*
X44455373Y-52369561D01*
X44446762Y-52372941D01*
X44212060Y-52485968D01*
X44204039Y-52490599D01*
X44036551Y-52604790D01*
X44029003Y-52612848D01*
X41812978Y-52612848D01*
X41774196Y-52508869D01*
X41687946Y-52393654D01*
X41656030Y-52369762D01*
X41579831Y-52312719D01*
X41579830Y-52312718D01*
X41572731Y-52307404D01*
X41437883Y-52257109D01*
X41430170Y-52256279D01*
X41430167Y-52256279D01*
X41381580Y-52251055D01*
X41381569Y-52251054D01*
X41378273Y-52250700D01*
X41374950Y-52250700D01*
X38685839Y-52250700D01*
X38685820Y-52250700D01*
X38682528Y-52250701D01*
X38679250Y-52251053D01*
X38679238Y-52251054D01*
X38630631Y-52256279D01*
X38630625Y-52256280D01*
X38622917Y-52257109D01*
X38615652Y-52259818D01*
X38615646Y-52259820D01*
X38496380Y-52304304D01*
X38496378Y-52304304D01*
X38488069Y-52307404D01*
X38480972Y-52312716D01*
X38480968Y-52312719D01*
X38379950Y-52388341D01*
X38379946Y-52388344D01*
X38372854Y-52393654D01*
X38367544Y-52400746D01*
X38367541Y-52400750D01*
X38291919Y-52501768D01*
X38291916Y-52501772D01*
X38286604Y-52508869D01*
X38283504Y-52517178D01*
X38283504Y-52517180D01*
X38239020Y-52636447D01*
X38239019Y-52636450D01*
X38236309Y-52643717D01*
X38235479Y-52651427D01*
X38235479Y-52651432D01*
X38230255Y-52700019D01*
X38230254Y-52700031D01*
X38229900Y-52703327D01*
X38229900Y-52706648D01*
X38229900Y-52706649D01*
X38229900Y-55395760D01*
X38229900Y-55395778D01*
X31652518Y-55395778D01*
X31772495Y-55275801D01*
X31908035Y-55082229D01*
X32007903Y-54868063D01*
X32069063Y-54639808D01*
X32084500Y-54463366D01*
X32084500Y-54045434D01*
X32069063Y-53868992D01*
X32007903Y-53640737D01*
X31908035Y-53426571D01*
X31772495Y-53232999D01*
X31605401Y-53065905D01*
X31600970Y-53062802D01*
X31600966Y-53062799D01*
X31416259Y-52933466D01*
X31416257Y-52933464D01*
X31411830Y-52930365D01*
X31406933Y-52928081D01*
X31406927Y-52928078D01*
X31202572Y-52832786D01*
X31202570Y-52832785D01*
X31197663Y-52830497D01*
X31192438Y-52829097D01*
X31192430Y-52829094D01*
X30974634Y-52770737D01*
X30974630Y-52770736D01*
X30969408Y-52769337D01*
X30964020Y-52768865D01*
X30964017Y-52768865D01*
X30739395Y-52749213D01*
X30734000Y-52748741D01*
X30728605Y-52749213D01*
X30503982Y-52768865D01*
X30503977Y-52768865D01*
X30498592Y-52769337D01*
X30493371Y-52770735D01*
X30493365Y-52770737D01*
X30275569Y-52829094D01*
X30275557Y-52829098D01*
X30270337Y-52830497D01*
X30265432Y-52832783D01*
X30265427Y-52832786D01*
X30061081Y-52928075D01*
X30061077Y-52928077D01*
X30056171Y-52930365D01*
X30051738Y-52933468D01*
X30051731Y-52933473D01*
X29867034Y-53062799D01*
X29867029Y-53062802D01*
X29862599Y-53065905D01*
X29858774Y-53069729D01*
X29858775Y-53069729D01*
X29714838Y-53213666D01*
X29664443Y-53244245D01*
X29605621Y-53248100D01*
X29551667Y-53224357D01*
X29519697Y-53184520D01*
X29518814Y-53185066D01*
X29430502Y-53041888D01*
X29430500Y-53041885D01*
X29426712Y-53035744D01*
X29302656Y-52911688D01*
X29296515Y-52907900D01*
X29296511Y-52907897D01*
X29159480Y-52823377D01*
X29153334Y-52819586D01*
X29011470Y-52772577D01*
X28993225Y-52766531D01*
X28993224Y-52766530D01*
X28986797Y-52764401D01*
X28980064Y-52763713D01*
X28980059Y-52763712D01*
X28887140Y-52754219D01*
X28887123Y-52754218D01*
X28884009Y-52753900D01*
X28880860Y-52753900D01*
X27587140Y-52753900D01*
X27587120Y-52753900D01*
X27583992Y-52753901D01*
X27580860Y-52754220D01*
X27580858Y-52754221D01*
X27487938Y-52763712D01*
X27487928Y-52763713D01*
X27481203Y-52764401D01*
X27474781Y-52766528D01*
X27474776Y-52766530D01*
X27321521Y-52817314D01*
X27321517Y-52817315D01*
X27314666Y-52819586D01*
X27308522Y-52823375D01*
X27308519Y-52823377D01*
X27171488Y-52907897D01*
X27171480Y-52907903D01*
X27165344Y-52911688D01*
X27160242Y-52916789D01*
X27160238Y-52916793D01*
X27046393Y-53030638D01*
X27046389Y-53030642D01*
X27041288Y-53035744D01*
X27037503Y-53041880D01*
X27037497Y-53041888D01*
X26952977Y-53178919D01*
X26949186Y-53185066D01*
X26946915Y-53191917D01*
X26946914Y-53191921D01*
X26910834Y-53300803D01*
X26894001Y-53351603D01*
X26893313Y-53358333D01*
X26893312Y-53358340D01*
X26883819Y-53451259D01*
X26883818Y-53451277D01*
X26883500Y-53454391D01*
X26883500Y-53457538D01*
X26883500Y-53457539D01*
X26883500Y-55051259D01*
X26883500Y-55051278D01*
X21866318Y-55051278D01*
X21847399Y-55026005D01*
X21847395Y-55026000D01*
X21844747Y-55022463D01*
X21655137Y-54832853D01*
X21651600Y-54830205D01*
X21651594Y-54830200D01*
X21444023Y-54674815D01*
X21440474Y-54672158D01*
X21436587Y-54670035D01*
X21436580Y-54670031D01*
X21209015Y-54545772D01*
X21209008Y-54545769D01*
X21205126Y-54543649D01*
X20997115Y-54466064D01*
X20958028Y-54451485D01*
X20958024Y-54451483D01*
X20953885Y-54449940D01*
X20924540Y-54443556D01*
X20696198Y-54393883D01*
X20696190Y-54393881D01*
X20691865Y-54392941D01*
X20687451Y-54392625D01*
X20687442Y-54392624D01*
X20428818Y-54374128D01*
X20424400Y-54373812D01*
X20419982Y-54374128D01*
X20161357Y-54392624D01*
X20161346Y-54392625D01*
X20156935Y-54392941D01*
X20152611Y-54393881D01*
X20152601Y-54393883D01*
X19899240Y-54448999D01*
X19899237Y-54448999D01*
X19894915Y-54449940D01*
X19890779Y-54451482D01*
X19890771Y-54451485D01*
X19647823Y-54542101D01*
X19647817Y-54542103D01*
X19643674Y-54543649D01*
X19639796Y-54545766D01*
X19639784Y-54545772D01*
X19412219Y-54670031D01*
X19412205Y-54670039D01*
X19408326Y-54672158D01*
X19404780Y-54674811D01*
X19404776Y-54674815D01*
X19197205Y-54830200D01*
X19197192Y-54830210D01*
X19193663Y-54832853D01*
X19190537Y-54835978D01*
X19190530Y-54835985D01*
X19007185Y-55019330D01*
X19007178Y-55019337D01*
X19004053Y-55022463D01*
X19001410Y-55025992D01*
X19001400Y-55026005D01*
X18846015Y-55233576D01*
X18846011Y-55233580D01*
X18843358Y-55237126D01*
X18841239Y-55241005D01*
X18841231Y-55241019D01*
X18716972Y-55468584D01*
X18716966Y-55468596D01*
X18714849Y-55472474D01*
X18713303Y-55476617D01*
X18713301Y-55476623D01*
X18622685Y-55719571D01*
X18622682Y-55719579D01*
X18621140Y-55723715D01*
X18620199Y-55728037D01*
X18620199Y-55728040D01*
X18565083Y-55981401D01*
X18565081Y-55981411D01*
X18564141Y-55985735D01*
X18563825Y-55990146D01*
X18563824Y-55990157D01*
X18545961Y-56239927D01*
X18545012Y-56253200D01*
X17830800Y-56253200D01*
X17830800Y-45489778D01*
X90604700Y-45489778D01*
X90604701Y-45493072D01*
X90605053Y-45496350D01*
X90605054Y-45496361D01*
X90610279Y-45544968D01*
X90610280Y-45544973D01*
X90611109Y-45552683D01*
X90613819Y-45559949D01*
X90613820Y-45559953D01*
X90647417Y-45650031D01*
X90661404Y-45687531D01*
X90747654Y-45802746D01*
X90862869Y-45888996D01*
X90997717Y-45939291D01*
X91057327Y-45945700D01*
X93753072Y-45945699D01*
X93812683Y-45939291D01*
X93947531Y-45888996D01*
X94062746Y-45802746D01*
X94148996Y-45687531D01*
X94199291Y-45552683D01*
X94205700Y-45493073D01*
X94205699Y-42797328D01*
X94199291Y-42737717D01*
X94148996Y-42602869D01*
X94062746Y-42487654D01*
X93947531Y-42401404D01*
X93812683Y-42351109D01*
X93804970Y-42350279D01*
X93804967Y-42350279D01*
X93756380Y-42345055D01*
X93756369Y-42345054D01*
X93753073Y-42344700D01*
X93749750Y-42344700D01*
X91060639Y-42344700D01*
X91060620Y-42344700D01*
X91057328Y-42344701D01*
X91054050Y-42345053D01*
X91054038Y-42345054D01*
X91005431Y-42350279D01*
X91005425Y-42350280D01*
X90997717Y-42351109D01*
X90990452Y-42353818D01*
X90990446Y-42353820D01*
X90871180Y-42398304D01*
X90871178Y-42398304D01*
X90862869Y-42401404D01*
X90855772Y-42406716D01*
X90855768Y-42406719D01*
X90754750Y-42482341D01*
X90754746Y-42482344D01*
X90747654Y-42487654D01*
X90742344Y-42494746D01*
X90742341Y-42494750D01*
X90666719Y-42595768D01*
X90666716Y-42595772D01*
X90661404Y-42602869D01*
X90658304Y-42611178D01*
X90658304Y-42611180D01*
X90613820Y-42730447D01*
X90613819Y-42730450D01*
X90611109Y-42737717D01*
X90610279Y-42745427D01*
X90610279Y-42745432D01*
X90605055Y-42794019D01*
X90605054Y-42794031D01*
X90604700Y-42797327D01*
X90604700Y-42800648D01*
X90604700Y-42800649D01*
X90604700Y-45489760D01*
X90604700Y-45489778D01*
X17830800Y-45489778D01*
X17830800Y-45075550D01*
X21880204Y-45075550D01*
X21887750Y-45083608D01*
X22055241Y-45197801D01*
X22063262Y-45202432D01*
X22297962Y-45315458D01*
X22306573Y-45318838D01*
X22555508Y-45395624D01*
X22564524Y-45397682D01*
X22822123Y-45436508D01*
X22831346Y-45437200D01*
X23091854Y-45437200D01*
X23101076Y-45436508D01*
X23358675Y-45397682D01*
X23367691Y-45395624D01*
X23616627Y-45318837D01*
X23625237Y-45315458D01*
X23859940Y-45202431D01*
X23867959Y-45197801D01*
X24035446Y-45083609D01*
X24042994Y-45075550D01*
X24037077Y-45066230D01*
X22973142Y-44002295D01*
X22961600Y-43995631D01*
X22950057Y-44002295D01*
X21886121Y-45066230D01*
X21880204Y-45075550D01*
X17830800Y-45075550D01*
X17830800Y-43641830D01*
X21156900Y-43641830D01*
X21176367Y-43901599D01*
X21177746Y-43910752D01*
X21235711Y-44164715D01*
X21238444Y-44173575D01*
X21333611Y-44416056D01*
X21337630Y-44424402D01*
X21467878Y-44649998D01*
X21473096Y-44657650D01*
X21512979Y-44707662D01*
X21524215Y-44715635D01*
X21536274Y-44708971D01*
X22596504Y-43648742D01*
X22603168Y-43637200D01*
X22603167Y-43637199D01*
X23320031Y-43637199D01*
X23326695Y-43648742D01*
X24386925Y-44708972D01*
X24398982Y-44715636D01*
X24410219Y-44707663D01*
X24450107Y-44657645D01*
X24455319Y-44650000D01*
X24585569Y-44424402D01*
X24589588Y-44416056D01*
X24684755Y-44173575D01*
X24687488Y-44164715D01*
X24745453Y-43910752D01*
X24746832Y-43901599D01*
X24766300Y-43641830D01*
X24766300Y-43632570D01*
X24746832Y-43372800D01*
X24745453Y-43363647D01*
X24687488Y-43109684D01*
X24684755Y-43100824D01*
X24589588Y-42858343D01*
X24585569Y-42849997D01*
X24455321Y-42624401D01*
X24450103Y-42616749D01*
X24410219Y-42566736D01*
X24398982Y-42558762D01*
X24386925Y-42565426D01*
X23326695Y-43625657D01*
X23320031Y-43637199D01*
X22603167Y-43637199D01*
X22596504Y-43625657D01*
X21536274Y-42565427D01*
X21524215Y-42558762D01*
X21512980Y-42566734D01*
X21473088Y-42616758D01*
X21467882Y-42624395D01*
X21337630Y-42849997D01*
X21333611Y-42858343D01*
X21238444Y-43100824D01*
X21235711Y-43109684D01*
X21177746Y-43363647D01*
X21176367Y-43372800D01*
X21156900Y-43632570D01*
X21156900Y-43641830D01*
X17830800Y-43641830D01*
X17830800Y-42198848D01*
X21880203Y-42198848D01*
X21886119Y-42208166D01*
X22950057Y-43272104D01*
X22961600Y-43278768D01*
X22973142Y-43272104D01*
X24037077Y-42208168D01*
X24042994Y-42198848D01*
X24035446Y-42190789D01*
X23867960Y-42076598D01*
X23859940Y-42071968D01*
X23625237Y-41958941D01*
X23616627Y-41955562D01*
X23367691Y-41878775D01*
X23358675Y-41876717D01*
X23101076Y-41837891D01*
X23091854Y-41837200D01*
X22831346Y-41837200D01*
X22822123Y-41837891D01*
X22564524Y-41876717D01*
X22555508Y-41878775D01*
X22306573Y-41955561D01*
X22297962Y-41958941D01*
X22063260Y-42071968D01*
X22055239Y-42076599D01*
X21887751Y-42190790D01*
X21880203Y-42198848D01*
X17830800Y-42198848D01*
X17830800Y-41589278D01*
X31872700Y-41589278D01*
X31872701Y-41592408D01*
X31873020Y-41595540D01*
X31873021Y-41595541D01*
X31882512Y-41688461D01*
X31882513Y-41688469D01*
X31883201Y-41695197D01*
X31885329Y-41701619D01*
X31885330Y-41701623D01*
X31923771Y-41817630D01*
X31938386Y-41861734D01*
X31942177Y-41867880D01*
X32026697Y-42004911D01*
X32026700Y-42004915D01*
X32030488Y-42011056D01*
X32154544Y-42135112D01*
X32160685Y-42138900D01*
X32160688Y-42138902D01*
X32201583Y-42164126D01*
X32303866Y-42227214D01*
X32470403Y-42282399D01*
X32573191Y-42292900D01*
X33873208Y-42292899D01*
X33975997Y-42282399D01*
X34142534Y-42227214D01*
X34291856Y-42135112D01*
X34415912Y-42011056D01*
X34508014Y-41861734D01*
X34508898Y-41862279D01*
X34540862Y-41822446D01*
X34594818Y-41798700D01*
X34653641Y-41802553D01*
X34704037Y-41833133D01*
X34851799Y-41980895D01*
X35045370Y-42116435D01*
X35050270Y-42118720D01*
X35050272Y-42118721D01*
X35074473Y-42130006D01*
X35259537Y-42216303D01*
X35487792Y-42277463D01*
X35723200Y-42298059D01*
X35958608Y-42277463D01*
X36186863Y-42216303D01*
X36401029Y-42116435D01*
X36594601Y-41980895D01*
X36761695Y-41813801D01*
X36897235Y-41620229D01*
X36911668Y-41589278D01*
X41412300Y-41589278D01*
X41412301Y-41592408D01*
X41412620Y-41595540D01*
X41412621Y-41595541D01*
X41422112Y-41688461D01*
X41422113Y-41688469D01*
X41422801Y-41695197D01*
X41424929Y-41701619D01*
X41424930Y-41701623D01*
X41463371Y-41817630D01*
X41477986Y-41861734D01*
X41481777Y-41867880D01*
X41566297Y-42004911D01*
X41566300Y-42004915D01*
X41570088Y-42011056D01*
X41694144Y-42135112D01*
X41700285Y-42138900D01*
X41700288Y-42138902D01*
X41741183Y-42164126D01*
X41843466Y-42227214D01*
X42010003Y-42282399D01*
X42112791Y-42292900D01*
X43412808Y-42292899D01*
X43515597Y-42282399D01*
X43682134Y-42227214D01*
X43831456Y-42135112D01*
X43955512Y-42011056D01*
X44047614Y-41861734D01*
X44048498Y-41862279D01*
X44080462Y-41822446D01*
X44134418Y-41798700D01*
X44193241Y-41802553D01*
X44243637Y-41833133D01*
X44391399Y-41980895D01*
X44584970Y-42116435D01*
X44589870Y-42118720D01*
X44589872Y-42118721D01*
X44614073Y-42130006D01*
X44799137Y-42216303D01*
X45027392Y-42277463D01*
X45262800Y-42298059D01*
X45498208Y-42277463D01*
X45726463Y-42216303D01*
X45940629Y-42116435D01*
X46134201Y-41980895D01*
X46301295Y-41813801D01*
X46436835Y-41620229D01*
X46451268Y-41589278D01*
X50403900Y-41589278D01*
X50403901Y-41592408D01*
X50404220Y-41595540D01*
X50404221Y-41595541D01*
X50413712Y-41688461D01*
X50413713Y-41688469D01*
X50414401Y-41695197D01*
X50416529Y-41701619D01*
X50416530Y-41701623D01*
X50454971Y-41817630D01*
X50469586Y-41861734D01*
X50473377Y-41867880D01*
X50557897Y-42004911D01*
X50557900Y-42004915D01*
X50561688Y-42011056D01*
X50685744Y-42135112D01*
X50691885Y-42138900D01*
X50691888Y-42138902D01*
X50732783Y-42164126D01*
X50835066Y-42227214D01*
X51001603Y-42282399D01*
X51104391Y-42292900D01*
X52404408Y-42292899D01*
X52507197Y-42282399D01*
X52673734Y-42227214D01*
X52823056Y-42135112D01*
X52947112Y-42011056D01*
X53039214Y-41861734D01*
X53040098Y-41862279D01*
X53072062Y-41822446D01*
X53126018Y-41798700D01*
X53184841Y-41802553D01*
X53235237Y-41833133D01*
X53382999Y-41980895D01*
X53576570Y-42116435D01*
X53581470Y-42118720D01*
X53581472Y-42118721D01*
X53605673Y-42130006D01*
X53790737Y-42216303D01*
X54018992Y-42277463D01*
X54254400Y-42298059D01*
X54489808Y-42277463D01*
X54718063Y-42216303D01*
X54932229Y-42116435D01*
X55125801Y-41980895D01*
X55292895Y-41813801D01*
X55428435Y-41620229D01*
X55442868Y-41589278D01*
X59203100Y-41589278D01*
X59203101Y-41592408D01*
X59203420Y-41595540D01*
X59203421Y-41595541D01*
X59212912Y-41688461D01*
X59212913Y-41688469D01*
X59213601Y-41695197D01*
X59215729Y-41701619D01*
X59215730Y-41701623D01*
X59254171Y-41817630D01*
X59268786Y-41861734D01*
X59272577Y-41867880D01*
X59357097Y-42004911D01*
X59357100Y-42004915D01*
X59360888Y-42011056D01*
X59484944Y-42135112D01*
X59491085Y-42138900D01*
X59491088Y-42138902D01*
X59531983Y-42164126D01*
X59634266Y-42227214D01*
X59800803Y-42282399D01*
X59903591Y-42292900D01*
X61203608Y-42292899D01*
X61306397Y-42282399D01*
X61472934Y-42227214D01*
X61622256Y-42135112D01*
X61746312Y-42011056D01*
X61838414Y-41861734D01*
X61839298Y-41862279D01*
X61871262Y-41822446D01*
X61925218Y-41798700D01*
X61984041Y-41802553D01*
X62034437Y-41833133D01*
X62182199Y-41980895D01*
X62375770Y-42116435D01*
X62380670Y-42118720D01*
X62380672Y-42118721D01*
X62404873Y-42130006D01*
X62589937Y-42216303D01*
X62818192Y-42277463D01*
X63053600Y-42298059D01*
X63289008Y-42277463D01*
X63517263Y-42216303D01*
X63731429Y-42116435D01*
X63925001Y-41980895D01*
X64092095Y-41813801D01*
X64227635Y-41620229D01*
X64327503Y-41406063D01*
X64388663Y-41177808D01*
X64404100Y-41001366D01*
X64404100Y-40583434D01*
X64388663Y-40406992D01*
X64327503Y-40178737D01*
X64227635Y-39964571D01*
X64092095Y-39770999D01*
X63925001Y-39603905D01*
X63920568Y-39600801D01*
X63920561Y-39600795D01*
X63863263Y-39560675D01*
X63822936Y-39513458D01*
X63810556Y-39452610D01*
X63829228Y-39393390D01*
X63874270Y-39350647D01*
X63934386Y-39335100D01*
X66999548Y-39335100D01*
X67047001Y-39344539D01*
X67087229Y-39371419D01*
X68005981Y-40290171D01*
X68032861Y-40330399D01*
X68042300Y-40377852D01*
X68042300Y-41589259D01*
X68042300Y-41589278D01*
X68042301Y-41592408D01*
X68042620Y-41595540D01*
X68042621Y-41595541D01*
X68052112Y-41688461D01*
X68052113Y-41688469D01*
X68052801Y-41695197D01*
X68054929Y-41701619D01*
X68054930Y-41701623D01*
X68093371Y-41817630D01*
X68107986Y-41861734D01*
X68111777Y-41867880D01*
X68196297Y-42004911D01*
X68196300Y-42004915D01*
X68200088Y-42011056D01*
X68324144Y-42135112D01*
X68330285Y-42138900D01*
X68330288Y-42138902D01*
X68371183Y-42164126D01*
X68473466Y-42227214D01*
X68640003Y-42282399D01*
X68742791Y-42292900D01*
X70042808Y-42292899D01*
X70145597Y-42282399D01*
X70312134Y-42227214D01*
X70461456Y-42135112D01*
X70585512Y-42011056D01*
X70677614Y-41861734D01*
X70678498Y-41862279D01*
X70710462Y-41822446D01*
X70764418Y-41798700D01*
X70823241Y-41802553D01*
X70873638Y-41833133D01*
X71021399Y-41980895D01*
X71214970Y-42116435D01*
X71219870Y-42118720D01*
X71219872Y-42118721D01*
X71244073Y-42130006D01*
X71429137Y-42216303D01*
X71657392Y-42277463D01*
X71892800Y-42298059D01*
X72128208Y-42277463D01*
X72356463Y-42216303D01*
X72570629Y-42116435D01*
X72764201Y-41980895D01*
X72931295Y-41813801D01*
X73066835Y-41620229D01*
X73166703Y-41406063D01*
X73227863Y-41177808D01*
X73243300Y-41001366D01*
X73243300Y-40583434D01*
X73227863Y-40406992D01*
X73166703Y-40178737D01*
X73066835Y-39964571D01*
X72931295Y-39770999D01*
X72764201Y-39603905D01*
X72759770Y-39600802D01*
X72759766Y-39600799D01*
X72575059Y-39471466D01*
X72575057Y-39471464D01*
X72570630Y-39468365D01*
X72565733Y-39466081D01*
X72565727Y-39466078D01*
X72361372Y-39370786D01*
X72361370Y-39370785D01*
X72356463Y-39368497D01*
X72351238Y-39367097D01*
X72351230Y-39367094D01*
X72133434Y-39308737D01*
X72133430Y-39308736D01*
X72128208Y-39307337D01*
X72122820Y-39306865D01*
X72122817Y-39306865D01*
X72056784Y-39301088D01*
X71992105Y-39275936D01*
X71951070Y-39219970D01*
X71946531Y-39150721D01*
X71979908Y-39089881D01*
X72053974Y-39015816D01*
X72094201Y-38988939D01*
X72141653Y-38979500D01*
X75483148Y-38979500D01*
X75530601Y-38988939D01*
X75570829Y-39015819D01*
X76895981Y-40340971D01*
X76922861Y-40381199D01*
X76932300Y-40428652D01*
X76932300Y-41640059D01*
X76932300Y-41640078D01*
X76932301Y-41643208D01*
X76932620Y-41646340D01*
X76932621Y-41646341D01*
X76942112Y-41739261D01*
X76942113Y-41739269D01*
X76942801Y-41745997D01*
X76944929Y-41752419D01*
X76944930Y-41752423D01*
X76983189Y-41867880D01*
X76997986Y-41912534D01*
X77001777Y-41918680D01*
X77086297Y-42055711D01*
X77086300Y-42055715D01*
X77090088Y-42061856D01*
X77214144Y-42185912D01*
X77220285Y-42189700D01*
X77220288Y-42189702D01*
X77250227Y-42208168D01*
X77363466Y-42278014D01*
X77530003Y-42333199D01*
X77632791Y-42343700D01*
X78932808Y-42343699D01*
X79035597Y-42333199D01*
X79202134Y-42278014D01*
X79351456Y-42185912D01*
X79475512Y-42061856D01*
X79567614Y-41912534D01*
X79568498Y-41913079D01*
X79600462Y-41873246D01*
X79654418Y-41849500D01*
X79713241Y-41853353D01*
X79763638Y-41883934D01*
X79911399Y-42031695D01*
X80104970Y-42167235D01*
X80109870Y-42169520D01*
X80109872Y-42169521D01*
X80134073Y-42180806D01*
X80319137Y-42267103D01*
X80324367Y-42268504D01*
X80324369Y-42268505D01*
X80359559Y-42277934D01*
X80547392Y-42328263D01*
X80782800Y-42348859D01*
X81018208Y-42328263D01*
X81246463Y-42267103D01*
X81460629Y-42167235D01*
X81654201Y-42031695D01*
X81821295Y-41864601D01*
X81956835Y-41671029D01*
X82056703Y-41456863D01*
X82117863Y-41228608D01*
X82133300Y-41052166D01*
X82133300Y-40634234D01*
X82117863Y-40457792D01*
X82056703Y-40229537D01*
X81956835Y-40015371D01*
X81866125Y-39885823D01*
X81843965Y-39822810D01*
X81857711Y-39757443D01*
X81903372Y-39708691D01*
X81967700Y-39690700D01*
X90631945Y-39690700D01*
X90680111Y-39700437D01*
X90720713Y-39728119D01*
X90747373Y-39769398D01*
X90776759Y-39844273D01*
X90776761Y-39844277D01*
X90778457Y-39848598D01*
X90913385Y-40082302D01*
X91081639Y-40293285D01*
X91151061Y-40357699D01*
X91264744Y-40463182D01*
X91279459Y-40476835D01*
X91502426Y-40628851D01*
X91745559Y-40745938D01*
X91749987Y-40747303D01*
X91749990Y-40747305D01*
X91874493Y-40785708D01*
X92003428Y-40825480D01*
X92270271Y-40865700D01*
X92535492Y-40865700D01*
X92540129Y-40865700D01*
X92806972Y-40825480D01*
X93064841Y-40745938D01*
X93307975Y-40628851D01*
X93530941Y-40476835D01*
X93728761Y-40293285D01*
X93897015Y-40082302D01*
X94031943Y-39848598D01*
X94130534Y-39597395D01*
X94190583Y-39334303D01*
X94210749Y-39065200D01*
X94190583Y-38796097D01*
X94130534Y-38533005D01*
X94031943Y-38281802D01*
X93897015Y-38048098D01*
X93728761Y-37837115D01*
X93614445Y-37731045D01*
X93534346Y-37656724D01*
X93534343Y-37656721D01*
X93530941Y-37653565D01*
X93527112Y-37650954D01*
X93527109Y-37650952D01*
X93311810Y-37504164D01*
X93307975Y-37501549D01*
X93303789Y-37499533D01*
X93069020Y-37386474D01*
X93069014Y-37386471D01*
X93064841Y-37384462D01*
X93060419Y-37383098D01*
X93060409Y-37383094D01*
X92811402Y-37306286D01*
X92811396Y-37306284D01*
X92806972Y-37304920D01*
X92802395Y-37304230D01*
X92802386Y-37304228D01*
X92544714Y-37265391D01*
X92544713Y-37265390D01*
X92540129Y-37264700D01*
X92270271Y-37264700D01*
X92265687Y-37265390D01*
X92265685Y-37265391D01*
X92008013Y-37304228D01*
X92008001Y-37304230D01*
X92003428Y-37304920D01*
X91999006Y-37306283D01*
X91998997Y-37306286D01*
X91749990Y-37383094D01*
X91749975Y-37383099D01*
X91745559Y-37384462D01*
X91741385Y-37386471D01*
X91741380Y-37386474D01*
X91506611Y-37499533D01*
X91506604Y-37499536D01*
X91502426Y-37501549D01*
X91498593Y-37504162D01*
X91498590Y-37504164D01*
X91283290Y-37650952D01*
X91283280Y-37650959D01*
X91279459Y-37653565D01*
X91276063Y-37656716D01*
X91276053Y-37656724D01*
X91085043Y-37833956D01*
X91085039Y-37833959D01*
X91081639Y-37837115D01*
X91078749Y-37840737D01*
X91078746Y-37840742D01*
X90916277Y-38044471D01*
X90913385Y-38048098D01*
X90911066Y-38052113D01*
X90911065Y-38052116D01*
X90780778Y-38277781D01*
X90780775Y-38277786D01*
X90778457Y-38281802D01*
X90776764Y-38286115D01*
X90776759Y-38286126D01*
X90747373Y-38361002D01*
X90720713Y-38402281D01*
X90680111Y-38429963D01*
X90631945Y-38439700D01*
X80594440Y-38439700D01*
X80542694Y-38427277D01*
X80542655Y-38427386D01*
X80541673Y-38427032D01*
X80538147Y-38426186D01*
X80535316Y-38424743D01*
X80535311Y-38424741D01*
X80528365Y-38421202D01*
X80520754Y-38419500D01*
X80520744Y-38419497D01*
X80520376Y-38419415D01*
X80498203Y-38412210D01*
X80497864Y-38412063D01*
X80497857Y-38412061D01*
X80490696Y-38408962D01*
X80472445Y-38406071D01*
X80435918Y-38400286D01*
X80428268Y-38398827D01*
X80381749Y-38388429D01*
X80381745Y-38388428D01*
X80374133Y-38386727D01*
X80366335Y-38386971D01*
X80366328Y-38386971D01*
X80365954Y-38386983D01*
X80342683Y-38385519D01*
X80342311Y-38385460D01*
X80342307Y-38385459D01*
X80334604Y-38384240D01*
X80326846Y-38384973D01*
X80326837Y-38384973D01*
X80279394Y-38389458D01*
X80271622Y-38389947D01*
X80223969Y-38391444D01*
X80223961Y-38391445D01*
X80216173Y-38391690D01*
X80208688Y-38393864D01*
X80208677Y-38393866D01*
X80208304Y-38393975D01*
X80185404Y-38398343D01*
X80185301Y-38398353D01*
X80185033Y-38398378D01*
X80185027Y-38398379D01*
X80177267Y-38399113D01*
X80169931Y-38401753D01*
X80169926Y-38401755D01*
X80125092Y-38417895D01*
X80117693Y-38420299D01*
X80071898Y-38433605D01*
X80071888Y-38433609D01*
X80064410Y-38435782D01*
X80057704Y-38439747D01*
X80057689Y-38439754D01*
X80057362Y-38439948D01*
X80036273Y-38449872D01*
X80035917Y-38449999D01*
X80035901Y-38450006D01*
X80028572Y-38452646D01*
X80022126Y-38457026D01*
X80022121Y-38457029D01*
X79982684Y-38483830D01*
X79976112Y-38488000D01*
X79935094Y-38512259D01*
X79928380Y-38516230D01*
X79922867Y-38521741D01*
X79922865Y-38521744D01*
X79922597Y-38522013D01*
X79904629Y-38536876D01*
X79897862Y-38541476D01*
X79892708Y-38547321D01*
X79892700Y-38547329D01*
X79861169Y-38583094D01*
X79855838Y-38588770D01*
X79127900Y-39316708D01*
X79081782Y-39345854D01*
X79027618Y-39352385D01*
X78935943Y-39343020D01*
X78935939Y-39343019D01*
X78932809Y-39342700D01*
X78929660Y-39342700D01*
X77718253Y-39342700D01*
X77670800Y-39333261D01*
X77630572Y-39306381D01*
X76290886Y-37966695D01*
X76283442Y-37958514D01*
X76279386Y-37952123D01*
X76230375Y-37906098D01*
X76227578Y-37903387D01*
X76210827Y-37886636D01*
X76210826Y-37886635D01*
X76208071Y-37883880D01*
X76204890Y-37881412D01*
X76196014Y-37873830D01*
X76169869Y-37849278D01*
X76169867Y-37849276D01*
X76164182Y-37843938D01*
X76157349Y-37840182D01*
X76157343Y-37840177D01*
X76146625Y-37834285D01*
X76130366Y-37823606D01*
X76120695Y-37816104D01*
X76120692Y-37816102D01*
X76114536Y-37811327D01*
X76107379Y-37808229D01*
X76107376Y-37808228D01*
X76074449Y-37793978D01*
X76063963Y-37788841D01*
X76032532Y-37771562D01*
X76032523Y-37771558D01*
X76025692Y-37767803D01*
X76018135Y-37765862D01*
X76018131Y-37765861D01*
X76006288Y-37762820D01*
X75987884Y-37756519D01*
X75976657Y-37751660D01*
X75976650Y-37751658D01*
X75969496Y-37748562D01*
X75961792Y-37747341D01*
X75961790Y-37747341D01*
X75926359Y-37741729D01*
X75914924Y-37739361D01*
X75880171Y-37730438D01*
X75880163Y-37730437D01*
X75872619Y-37728500D01*
X75864823Y-37728500D01*
X75852583Y-37728500D01*
X75833197Y-37726974D01*
X75813404Y-37723840D01*
X75805638Y-37724574D01*
X75805635Y-37724574D01*
X75769924Y-37727950D01*
X75758255Y-37728500D01*
X71908971Y-37728500D01*
X71897918Y-37727979D01*
X71890532Y-37726328D01*
X71882734Y-37726573D01*
X71823344Y-37728439D01*
X71819450Y-37728500D01*
X71791850Y-37728500D01*
X71787999Y-37728986D01*
X71787968Y-37728988D01*
X71787840Y-37729005D01*
X71776229Y-37729918D01*
X71740371Y-37731045D01*
X71740364Y-37731046D01*
X71732572Y-37731291D01*
X71725088Y-37733465D01*
X71725077Y-37733467D01*
X71713328Y-37736881D01*
X71694283Y-37740825D01*
X71682147Y-37742358D01*
X71682144Y-37742358D01*
X71674408Y-37743336D01*
X71667160Y-37746205D01*
X71667150Y-37746208D01*
X71633792Y-37759415D01*
X71622750Y-37763196D01*
X71588297Y-37773207D01*
X71588292Y-37773208D01*
X71580810Y-37775383D01*
X71574102Y-37779349D01*
X71574097Y-37779352D01*
X71563564Y-37785581D01*
X71546100Y-37794136D01*
X71534724Y-37798640D01*
X71534717Y-37798643D01*
X71527468Y-37801514D01*
X71521162Y-37806094D01*
X71521157Y-37806098D01*
X71492127Y-37827189D01*
X71482369Y-37833598D01*
X71451498Y-37851856D01*
X71444779Y-37855830D01*
X71439263Y-37861344D01*
X71439256Y-37861351D01*
X71430607Y-37870000D01*
X71415824Y-37882626D01*
X71405927Y-37889817D01*
X71405920Y-37889823D01*
X71399613Y-37894406D01*
X71394646Y-37900408D01*
X71394635Y-37900420D01*
X71371770Y-37928059D01*
X71363910Y-37936697D01*
X70045027Y-39255581D01*
X70004799Y-39282461D01*
X69957346Y-39291900D01*
X68828253Y-39291900D01*
X68780800Y-39282461D01*
X68740572Y-39255581D01*
X67807286Y-38322295D01*
X67799842Y-38314114D01*
X67795786Y-38307723D01*
X67746775Y-38261698D01*
X67743978Y-38258987D01*
X67727227Y-38242236D01*
X67727226Y-38242235D01*
X67724471Y-38239480D01*
X67721290Y-38237012D01*
X67712414Y-38229430D01*
X67686269Y-38204878D01*
X67686267Y-38204876D01*
X67680582Y-38199538D01*
X67673749Y-38195782D01*
X67673743Y-38195777D01*
X67663025Y-38189885D01*
X67646766Y-38179206D01*
X67637095Y-38171704D01*
X67637092Y-38171702D01*
X67630936Y-38166927D01*
X67623779Y-38163829D01*
X67623776Y-38163828D01*
X67590849Y-38149578D01*
X67580363Y-38144441D01*
X67548932Y-38127162D01*
X67548923Y-38127158D01*
X67542092Y-38123403D01*
X67534535Y-38121462D01*
X67534531Y-38121461D01*
X67522688Y-38118420D01*
X67504284Y-38112119D01*
X67493057Y-38107260D01*
X67493050Y-38107258D01*
X67485896Y-38104162D01*
X67478192Y-38102941D01*
X67478190Y-38102941D01*
X67442759Y-38097329D01*
X67431324Y-38094961D01*
X67396571Y-38086038D01*
X67396563Y-38086037D01*
X67389019Y-38084100D01*
X67381223Y-38084100D01*
X67368983Y-38084100D01*
X67349597Y-38082574D01*
X67329804Y-38079440D01*
X67322038Y-38080174D01*
X67322035Y-38080174D01*
X67286324Y-38083550D01*
X67274655Y-38084100D01*
X62714175Y-38084100D01*
X62703119Y-38083578D01*
X62695733Y-38081927D01*
X62687945Y-38082171D01*
X62687938Y-38082171D01*
X62628527Y-38084039D01*
X62624632Y-38084100D01*
X62597050Y-38084100D01*
X62593205Y-38084585D01*
X62593180Y-38084587D01*
X62593053Y-38084604D01*
X62581434Y-38085518D01*
X62545572Y-38086645D01*
X62545565Y-38086646D01*
X62537773Y-38086891D01*
X62530288Y-38089065D01*
X62530272Y-38089068D01*
X62518526Y-38092481D01*
X62499483Y-38096425D01*
X62487349Y-38097958D01*
X62487348Y-38097958D01*
X62479608Y-38098936D01*
X62472358Y-38101805D01*
X62472351Y-38101808D01*
X62438998Y-38115013D01*
X62427954Y-38118794D01*
X62393501Y-38128804D01*
X62393490Y-38128808D01*
X62386010Y-38130982D01*
X62379298Y-38134951D01*
X62379296Y-38134952D01*
X62368764Y-38141180D01*
X62351304Y-38149734D01*
X62339919Y-38154242D01*
X62339913Y-38154244D01*
X62332668Y-38157114D01*
X62326363Y-38161694D01*
X62326355Y-38161699D01*
X62297332Y-38182785D01*
X62287574Y-38189195D01*
X62256696Y-38207457D01*
X62256690Y-38207461D01*
X62249980Y-38211430D01*
X62244467Y-38216941D01*
X62244460Y-38216948D01*
X62235810Y-38225598D01*
X62221027Y-38238224D01*
X62211126Y-38245417D01*
X62211116Y-38245426D01*
X62204813Y-38250006D01*
X62199844Y-38256011D01*
X62199841Y-38256015D01*
X62176972Y-38283659D01*
X62169111Y-38292297D01*
X61205827Y-39255581D01*
X61165599Y-39282461D01*
X61118146Y-39291900D01*
X59906740Y-39291900D01*
X59906720Y-39291900D01*
X59903592Y-39291901D01*
X59900460Y-39292220D01*
X59900458Y-39292221D01*
X59807538Y-39301712D01*
X59807528Y-39301713D01*
X59800803Y-39302401D01*
X59794381Y-39304528D01*
X59794376Y-39304530D01*
X59641121Y-39355314D01*
X59641117Y-39355315D01*
X59634266Y-39357586D01*
X59628122Y-39361375D01*
X59628119Y-39361377D01*
X59491088Y-39445897D01*
X59491080Y-39445903D01*
X59484944Y-39449688D01*
X59479842Y-39454789D01*
X59479838Y-39454793D01*
X59365993Y-39568638D01*
X59365989Y-39568642D01*
X59360888Y-39573744D01*
X59357103Y-39579880D01*
X59357097Y-39579888D01*
X59272577Y-39716919D01*
X59268786Y-39723066D01*
X59266515Y-39729917D01*
X59266514Y-39729921D01*
X59215731Y-39883174D01*
X59213601Y-39889603D01*
X59212913Y-39896333D01*
X59212912Y-39896340D01*
X59203419Y-39989259D01*
X59203418Y-39989277D01*
X59203100Y-39992391D01*
X59203100Y-39995538D01*
X59203100Y-39995539D01*
X59203100Y-41589259D01*
X59203100Y-41589278D01*
X55442868Y-41589278D01*
X55528303Y-41406063D01*
X55589463Y-41177808D01*
X55604900Y-41001366D01*
X55604900Y-40583434D01*
X55589463Y-40406992D01*
X55528303Y-40178737D01*
X55428435Y-39964571D01*
X55292895Y-39770999D01*
X55125801Y-39603905D01*
X55121370Y-39600802D01*
X55121366Y-39600799D01*
X54936659Y-39471466D01*
X54936657Y-39471464D01*
X54932230Y-39468365D01*
X54927333Y-39466081D01*
X54927327Y-39466078D01*
X54722972Y-39370786D01*
X54722970Y-39370785D01*
X54718063Y-39368497D01*
X54712838Y-39367097D01*
X54712830Y-39367094D01*
X54495034Y-39308737D01*
X54495030Y-39308736D01*
X54489808Y-39307337D01*
X54484420Y-39306865D01*
X54484417Y-39306865D01*
X54259795Y-39287213D01*
X54254400Y-39286741D01*
X54249005Y-39287213D01*
X54024382Y-39306865D01*
X54024377Y-39306865D01*
X54018992Y-39307337D01*
X54013771Y-39308735D01*
X54013765Y-39308737D01*
X53795969Y-39367094D01*
X53795957Y-39367098D01*
X53790737Y-39368497D01*
X53785832Y-39370783D01*
X53785827Y-39370786D01*
X53581481Y-39466075D01*
X53581477Y-39466077D01*
X53576571Y-39468365D01*
X53572138Y-39471468D01*
X53572131Y-39471473D01*
X53387434Y-39600799D01*
X53387429Y-39600802D01*
X53382999Y-39603905D01*
X53379175Y-39607728D01*
X53379175Y-39607729D01*
X53235238Y-39751666D01*
X53184843Y-39782245D01*
X53126021Y-39786100D01*
X53072067Y-39762357D01*
X53040097Y-39722520D01*
X53039214Y-39723066D01*
X52950902Y-39579888D01*
X52950900Y-39579885D01*
X52947112Y-39573744D01*
X52823056Y-39449688D01*
X52816915Y-39445900D01*
X52816911Y-39445897D01*
X52679880Y-39361377D01*
X52673734Y-39357586D01*
X52658038Y-39352385D01*
X52513625Y-39304531D01*
X52513624Y-39304530D01*
X52507197Y-39302401D01*
X52500464Y-39301713D01*
X52500459Y-39301712D01*
X52407540Y-39292219D01*
X52407523Y-39292218D01*
X52404409Y-39291900D01*
X52401260Y-39291900D01*
X51107540Y-39291900D01*
X51107520Y-39291900D01*
X51104392Y-39291901D01*
X51101260Y-39292220D01*
X51101258Y-39292221D01*
X51008338Y-39301712D01*
X51008328Y-39301713D01*
X51001603Y-39302401D01*
X50995181Y-39304528D01*
X50995176Y-39304530D01*
X50841921Y-39355314D01*
X50841917Y-39355315D01*
X50835066Y-39357586D01*
X50828922Y-39361375D01*
X50828919Y-39361377D01*
X50691888Y-39445897D01*
X50691880Y-39445903D01*
X50685744Y-39449688D01*
X50680642Y-39454789D01*
X50680638Y-39454793D01*
X50566793Y-39568638D01*
X50566789Y-39568642D01*
X50561688Y-39573744D01*
X50557903Y-39579880D01*
X50557897Y-39579888D01*
X50473377Y-39716919D01*
X50469586Y-39723066D01*
X50467315Y-39729917D01*
X50467314Y-39729921D01*
X50416531Y-39883174D01*
X50414401Y-39889603D01*
X50413713Y-39896333D01*
X50413712Y-39896340D01*
X50404219Y-39989259D01*
X50404218Y-39989277D01*
X50403900Y-39992391D01*
X50403900Y-39995538D01*
X50403900Y-39995539D01*
X50403900Y-41589259D01*
X50403900Y-41589278D01*
X46451268Y-41589278D01*
X46536703Y-41406063D01*
X46597863Y-41177808D01*
X46613300Y-41001366D01*
X46613300Y-40583434D01*
X46597863Y-40406992D01*
X46536703Y-40178737D01*
X46436835Y-39964571D01*
X46301295Y-39770999D01*
X46134201Y-39603905D01*
X46129770Y-39600802D01*
X46129766Y-39600799D01*
X45945059Y-39471466D01*
X45945057Y-39471464D01*
X45940630Y-39468365D01*
X45935733Y-39466081D01*
X45935727Y-39466078D01*
X45731372Y-39370786D01*
X45731370Y-39370785D01*
X45726463Y-39368497D01*
X45721238Y-39367097D01*
X45721230Y-39367094D01*
X45503434Y-39308737D01*
X45503430Y-39308736D01*
X45498208Y-39307337D01*
X45492820Y-39306865D01*
X45492817Y-39306865D01*
X45268195Y-39287213D01*
X45262800Y-39286741D01*
X45257405Y-39287213D01*
X45032782Y-39306865D01*
X45032777Y-39306865D01*
X45027392Y-39307337D01*
X45022171Y-39308735D01*
X45022165Y-39308737D01*
X44804369Y-39367094D01*
X44804357Y-39367098D01*
X44799137Y-39368497D01*
X44794232Y-39370783D01*
X44794227Y-39370786D01*
X44589881Y-39466075D01*
X44589877Y-39466077D01*
X44584971Y-39468365D01*
X44580538Y-39471468D01*
X44580531Y-39471473D01*
X44395834Y-39600799D01*
X44395829Y-39600802D01*
X44391399Y-39603905D01*
X44387575Y-39607728D01*
X44387575Y-39607729D01*
X44243638Y-39751666D01*
X44193243Y-39782245D01*
X44134421Y-39786100D01*
X44080467Y-39762357D01*
X44048497Y-39722520D01*
X44047614Y-39723066D01*
X43959302Y-39579888D01*
X43959300Y-39579885D01*
X43955512Y-39573744D01*
X43831456Y-39449688D01*
X43825315Y-39445900D01*
X43825311Y-39445897D01*
X43688280Y-39361377D01*
X43682134Y-39357586D01*
X43666438Y-39352385D01*
X43522025Y-39304531D01*
X43522024Y-39304530D01*
X43515597Y-39302401D01*
X43508864Y-39301713D01*
X43508859Y-39301712D01*
X43415940Y-39292219D01*
X43415923Y-39292218D01*
X43412809Y-39291900D01*
X43409660Y-39291900D01*
X42115940Y-39291900D01*
X42115920Y-39291900D01*
X42112792Y-39291901D01*
X42109660Y-39292220D01*
X42109658Y-39292221D01*
X42016738Y-39301712D01*
X42016728Y-39301713D01*
X42010003Y-39302401D01*
X42003581Y-39304528D01*
X42003576Y-39304530D01*
X41850321Y-39355314D01*
X41850317Y-39355315D01*
X41843466Y-39357586D01*
X41837322Y-39361375D01*
X41837319Y-39361377D01*
X41700288Y-39445897D01*
X41700280Y-39445903D01*
X41694144Y-39449688D01*
X41689042Y-39454789D01*
X41689038Y-39454793D01*
X41575193Y-39568638D01*
X41575189Y-39568642D01*
X41570088Y-39573744D01*
X41566303Y-39579880D01*
X41566297Y-39579888D01*
X41481777Y-39716919D01*
X41477986Y-39723066D01*
X41475715Y-39729917D01*
X41475714Y-39729921D01*
X41424931Y-39883174D01*
X41422801Y-39889603D01*
X41422113Y-39896333D01*
X41422112Y-39896340D01*
X41412619Y-39989259D01*
X41412618Y-39989277D01*
X41412300Y-39992391D01*
X41412300Y-39995538D01*
X41412300Y-39995539D01*
X41412300Y-41589259D01*
X41412300Y-41589278D01*
X36911668Y-41589278D01*
X36997103Y-41406063D01*
X37058263Y-41177808D01*
X37073700Y-41001366D01*
X37073700Y-40583434D01*
X37058263Y-40406992D01*
X36997103Y-40178737D01*
X36897235Y-39964571D01*
X36761695Y-39770999D01*
X36594601Y-39603905D01*
X36590170Y-39600802D01*
X36590166Y-39600799D01*
X36405459Y-39471466D01*
X36405457Y-39471464D01*
X36401030Y-39468365D01*
X36396133Y-39466081D01*
X36396127Y-39466078D01*
X36191772Y-39370786D01*
X36191770Y-39370785D01*
X36186863Y-39368497D01*
X36181638Y-39367097D01*
X36181630Y-39367094D01*
X35963834Y-39308737D01*
X35963830Y-39308736D01*
X35958608Y-39307337D01*
X35953220Y-39306865D01*
X35953217Y-39306865D01*
X35728595Y-39287213D01*
X35723200Y-39286741D01*
X35717805Y-39287213D01*
X35493182Y-39306865D01*
X35493177Y-39306865D01*
X35487792Y-39307337D01*
X35482571Y-39308735D01*
X35482565Y-39308737D01*
X35264769Y-39367094D01*
X35264757Y-39367098D01*
X35259537Y-39368497D01*
X35254632Y-39370783D01*
X35254627Y-39370786D01*
X35050281Y-39466075D01*
X35050277Y-39466077D01*
X35045371Y-39468365D01*
X35040938Y-39471468D01*
X35040931Y-39471473D01*
X34856234Y-39600799D01*
X34856229Y-39600802D01*
X34851799Y-39603905D01*
X34847975Y-39607728D01*
X34847975Y-39607729D01*
X34704038Y-39751666D01*
X34653643Y-39782245D01*
X34594821Y-39786100D01*
X34540867Y-39762357D01*
X34508897Y-39722520D01*
X34508014Y-39723066D01*
X34419702Y-39579888D01*
X34419700Y-39579885D01*
X34415912Y-39573744D01*
X34291856Y-39449688D01*
X34285715Y-39445900D01*
X34285711Y-39445897D01*
X34148680Y-39361377D01*
X34142534Y-39357586D01*
X34126838Y-39352385D01*
X33982425Y-39304531D01*
X33982424Y-39304530D01*
X33975997Y-39302401D01*
X33969264Y-39301713D01*
X33969259Y-39301712D01*
X33876340Y-39292219D01*
X33876323Y-39292218D01*
X33873209Y-39291900D01*
X33870060Y-39291900D01*
X32576340Y-39291900D01*
X32576320Y-39291900D01*
X32573192Y-39291901D01*
X32570060Y-39292220D01*
X32570058Y-39292221D01*
X32477138Y-39301712D01*
X32477128Y-39301713D01*
X32470403Y-39302401D01*
X32463981Y-39304528D01*
X32463976Y-39304530D01*
X32310721Y-39355314D01*
X32310717Y-39355315D01*
X32303866Y-39357586D01*
X32297722Y-39361375D01*
X32297719Y-39361377D01*
X32160688Y-39445897D01*
X32160680Y-39445903D01*
X32154544Y-39449688D01*
X32149442Y-39454789D01*
X32149438Y-39454793D01*
X32035593Y-39568638D01*
X32035589Y-39568642D01*
X32030488Y-39573744D01*
X32026703Y-39579880D01*
X32026697Y-39579888D01*
X31942177Y-39716919D01*
X31938386Y-39723066D01*
X31936115Y-39729917D01*
X31936114Y-39729921D01*
X31885331Y-39883174D01*
X31883201Y-39889603D01*
X31882513Y-39896333D01*
X31882512Y-39896340D01*
X31873019Y-39989259D01*
X31873018Y-39989277D01*
X31872700Y-39992391D01*
X31872700Y-39995538D01*
X31872700Y-39995539D01*
X31872700Y-41589259D01*
X31872700Y-41589278D01*
X17830800Y-41589278D01*
X17830800Y-39901778D01*
X21161100Y-39901778D01*
X21161101Y-39905072D01*
X21161453Y-39908350D01*
X21161454Y-39908361D01*
X21166679Y-39956968D01*
X21166680Y-39956973D01*
X21167509Y-39964683D01*
X21170219Y-39971949D01*
X21170220Y-39971953D01*
X21203817Y-40062031D01*
X21217804Y-40099531D01*
X21223118Y-40106630D01*
X21223119Y-40106631D01*
X21277097Y-40178737D01*
X21304054Y-40214746D01*
X21419269Y-40300996D01*
X21554117Y-40351291D01*
X21613727Y-40357700D01*
X24309472Y-40357699D01*
X24369083Y-40351291D01*
X24503931Y-40300996D01*
X24619146Y-40214746D01*
X24705396Y-40099531D01*
X24755691Y-39964683D01*
X24762100Y-39905073D01*
X24762099Y-37209328D01*
X24755691Y-37149717D01*
X24705396Y-37014869D01*
X24619146Y-36899654D01*
X24503931Y-36813404D01*
X24369083Y-36763109D01*
X24361370Y-36762279D01*
X24361367Y-36762279D01*
X24312780Y-36757055D01*
X24312769Y-36757054D01*
X24309473Y-36756700D01*
X24306150Y-36756700D01*
X21617039Y-36756700D01*
X21617020Y-36756700D01*
X21613728Y-36756701D01*
X21610450Y-36757053D01*
X21610438Y-36757054D01*
X21561831Y-36762279D01*
X21561825Y-36762280D01*
X21554117Y-36763109D01*
X21546852Y-36765818D01*
X21546846Y-36765820D01*
X21427580Y-36810304D01*
X21427578Y-36810304D01*
X21419269Y-36813404D01*
X21412172Y-36818716D01*
X21412168Y-36818719D01*
X21311150Y-36894341D01*
X21311146Y-36894344D01*
X21304054Y-36899654D01*
X21298744Y-36906746D01*
X21298741Y-36906750D01*
X21223119Y-37007768D01*
X21223116Y-37007772D01*
X21217804Y-37014869D01*
X21214704Y-37023178D01*
X21214704Y-37023180D01*
X21170220Y-37142447D01*
X21170219Y-37142450D01*
X21167509Y-37149717D01*
X21166679Y-37157427D01*
X21166679Y-37157432D01*
X21161455Y-37206019D01*
X21161454Y-37206031D01*
X21161100Y-37209327D01*
X21161100Y-37212648D01*
X21161100Y-37212649D01*
X21161100Y-39901760D01*
X21161100Y-39901778D01*
X17830800Y-39901778D01*
X17830800Y-35609351D01*
X42564852Y-35609351D01*
X42565220Y-35620580D01*
X42612730Y-35797892D01*
X42616422Y-35808034D01*
X42707979Y-36004380D01*
X42713367Y-36013712D01*
X42837632Y-36191181D01*
X42844569Y-36199447D01*
X42997752Y-36352630D01*
X43006018Y-36359567D01*
X43183487Y-36483832D01*
X43192819Y-36489220D01*
X43389165Y-36580777D01*
X43399307Y-36584469D01*
X43576619Y-36631979D01*
X43587848Y-36632347D01*
X43590400Y-36621405D01*
X44090400Y-36621405D01*
X44092951Y-36632347D01*
X44104180Y-36631979D01*
X44281492Y-36584469D01*
X44291634Y-36580777D01*
X44487980Y-36489220D01*
X44497312Y-36483832D01*
X44674781Y-36359567D01*
X44683047Y-36352630D01*
X44834299Y-36201378D01*
X50159900Y-36201378D01*
X50159901Y-36204672D01*
X50160253Y-36207950D01*
X50160254Y-36207961D01*
X50165479Y-36256568D01*
X50165480Y-36256573D01*
X50166309Y-36264283D01*
X50169019Y-36271549D01*
X50169020Y-36271553D01*
X50199260Y-36352630D01*
X50216604Y-36399131D01*
X50302854Y-36514346D01*
X50418069Y-36600596D01*
X50552917Y-36650891D01*
X50612527Y-36657300D01*
X52308272Y-36657299D01*
X52367883Y-36650891D01*
X52502731Y-36600596D01*
X52617946Y-36514346D01*
X52704196Y-36399131D01*
X52754491Y-36264283D01*
X52760900Y-36204673D01*
X52760900Y-36106300D01*
X52777513Y-36044300D01*
X52822900Y-35998913D01*
X52884900Y-35982300D01*
X55485020Y-35982300D01*
X55540291Y-35995300D01*
X55583974Y-36031573D01*
X55645961Y-36113658D01*
X55645966Y-36113663D01*
X55649419Y-36118236D01*
X55653655Y-36122097D01*
X55653659Y-36122102D01*
X55744236Y-36204673D01*
X55813838Y-36268124D01*
X56002999Y-36385247D01*
X56210460Y-36465618D01*
X56429157Y-36506500D01*
X56645914Y-36506500D01*
X56651643Y-36506500D01*
X56870340Y-36465618D01*
X57077801Y-36385247D01*
X57266962Y-36268124D01*
X57431381Y-36118236D01*
X57565458Y-35940689D01*
X57664629Y-35741528D01*
X57691134Y-35648371D01*
X57723533Y-35593818D01*
X57778675Y-35562433D01*
X57842125Y-35562433D01*
X57897267Y-35593818D01*
X57929665Y-35648371D01*
X57956171Y-35741528D01*
X57958723Y-35746653D01*
X57958725Y-35746658D01*
X58052787Y-35935559D01*
X58052789Y-35935563D01*
X58055342Y-35940689D01*
X58058791Y-35945256D01*
X58058794Y-35945261D01*
X58185961Y-36113658D01*
X58185966Y-36113663D01*
X58189419Y-36118236D01*
X58193655Y-36122097D01*
X58193659Y-36122102D01*
X58284236Y-36204673D01*
X58353838Y-36268124D01*
X58542999Y-36385247D01*
X58750460Y-36465618D01*
X58969157Y-36506500D01*
X59185914Y-36506500D01*
X59191643Y-36506500D01*
X59410340Y-36465618D01*
X59617801Y-36385247D01*
X59806962Y-36268124D01*
X59971381Y-36118236D01*
X60036825Y-36031573D01*
X60080509Y-35995300D01*
X60135780Y-35982300D01*
X63104220Y-35982300D01*
X63159491Y-35995300D01*
X63203174Y-36031573D01*
X63265161Y-36113658D01*
X63265166Y-36113663D01*
X63268619Y-36118236D01*
X63272855Y-36122097D01*
X63272859Y-36122102D01*
X63363436Y-36204673D01*
X63433038Y-36268124D01*
X63622199Y-36385247D01*
X63829660Y-36465618D01*
X64048357Y-36506500D01*
X64265114Y-36506500D01*
X64270843Y-36506500D01*
X64489540Y-36465618D01*
X64697001Y-36385247D01*
X64886162Y-36268124D01*
X65050581Y-36118236D01*
X65184658Y-35940689D01*
X65283829Y-35741528D01*
X65310334Y-35648371D01*
X65342733Y-35593818D01*
X65397875Y-35562433D01*
X65461325Y-35562433D01*
X65516467Y-35593818D01*
X65548865Y-35648371D01*
X65575371Y-35741528D01*
X65577923Y-35746653D01*
X65577925Y-35746658D01*
X65671987Y-35935559D01*
X65671989Y-35935563D01*
X65674542Y-35940689D01*
X65677991Y-35945256D01*
X65677994Y-35945261D01*
X65805161Y-36113658D01*
X65805166Y-36113663D01*
X65808619Y-36118236D01*
X65812855Y-36122097D01*
X65812859Y-36122102D01*
X65903436Y-36204673D01*
X65973038Y-36268124D01*
X66162199Y-36385247D01*
X66369660Y-36465618D01*
X66588357Y-36506500D01*
X66805114Y-36506500D01*
X66810843Y-36506500D01*
X67029540Y-36465618D01*
X67237001Y-36385247D01*
X67426162Y-36268124D01*
X67590581Y-36118236D01*
X67724658Y-35940689D01*
X67823829Y-35741528D01*
X67884715Y-35527536D01*
X67905243Y-35306000D01*
X67884715Y-35084464D01*
X67823829Y-34870472D01*
X67724658Y-34671311D01*
X67721205Y-34666738D01*
X67594038Y-34498341D01*
X67594034Y-34498337D01*
X67590581Y-34493764D01*
X67586344Y-34489901D01*
X67586340Y-34489897D01*
X67444912Y-34360969D01*
X67426162Y-34343876D01*
X67421292Y-34340861D01*
X67421290Y-34340859D01*
X67241875Y-34229771D01*
X67241876Y-34229771D01*
X67237001Y-34226753D01*
X67029540Y-34146382D01*
X67023902Y-34145328D01*
X66816472Y-34106552D01*
X66816469Y-34106551D01*
X66810843Y-34105500D01*
X66588357Y-34105500D01*
X66582731Y-34106551D01*
X66582727Y-34106552D01*
X66375297Y-34145328D01*
X66375294Y-34145328D01*
X66369660Y-34146382D01*
X66364317Y-34148451D01*
X66364313Y-34148453D01*
X66167541Y-34224683D01*
X66167536Y-34224685D01*
X66162199Y-34226753D01*
X66157327Y-34229769D01*
X66157324Y-34229771D01*
X65977909Y-34340859D01*
X65977901Y-34340864D01*
X65973038Y-34343876D01*
X65968807Y-34347732D01*
X65968803Y-34347736D01*
X65812859Y-34489897D01*
X65812849Y-34489907D01*
X65808619Y-34493764D01*
X65805170Y-34498330D01*
X65805161Y-34498341D01*
X65677994Y-34666738D01*
X65677987Y-34666748D01*
X65674542Y-34671311D01*
X65671992Y-34676431D01*
X65671987Y-34676440D01*
X65577925Y-34865341D01*
X65577921Y-34865349D01*
X65575371Y-34870472D01*
X65573805Y-34875975D01*
X65573801Y-34875986D01*
X65548866Y-34963627D01*
X65516467Y-35018181D01*
X65461324Y-35049566D01*
X65397876Y-35049566D01*
X65342733Y-35018181D01*
X65310334Y-34963627D01*
X65285398Y-34875986D01*
X65285397Y-34875984D01*
X65283829Y-34870472D01*
X65184658Y-34671311D01*
X65181205Y-34666738D01*
X65054038Y-34498341D01*
X65054034Y-34498337D01*
X65050581Y-34493764D01*
X65046344Y-34489901D01*
X65046340Y-34489897D01*
X64904912Y-34360969D01*
X64886162Y-34343876D01*
X64881292Y-34340861D01*
X64881290Y-34340859D01*
X64701875Y-34229771D01*
X64701876Y-34229771D01*
X64697001Y-34226753D01*
X64489540Y-34146382D01*
X64483902Y-34145328D01*
X64276472Y-34106552D01*
X64276469Y-34106551D01*
X64270843Y-34105500D01*
X64048357Y-34105500D01*
X64042731Y-34106551D01*
X64042727Y-34106552D01*
X63835297Y-34145328D01*
X63835294Y-34145328D01*
X63829660Y-34146382D01*
X63824317Y-34148451D01*
X63824313Y-34148453D01*
X63627541Y-34224683D01*
X63627536Y-34224685D01*
X63622199Y-34226753D01*
X63617327Y-34229769D01*
X63617324Y-34229771D01*
X63437909Y-34340859D01*
X63437901Y-34340864D01*
X63433038Y-34343876D01*
X63428807Y-34347732D01*
X63428803Y-34347736D01*
X63272859Y-34489897D01*
X63272849Y-34489907D01*
X63268619Y-34493764D01*
X63265170Y-34498330D01*
X63265161Y-34498341D01*
X63137995Y-34666738D01*
X63134542Y-34671311D01*
X63133487Y-34673429D01*
X63089292Y-34715629D01*
X63028953Y-34731300D01*
X60211047Y-34731300D01*
X60150708Y-34715629D01*
X60106512Y-34673429D01*
X60105458Y-34671311D01*
X60037374Y-34581153D01*
X59974838Y-34498341D01*
X59974834Y-34498337D01*
X59971381Y-34493764D01*
X59967144Y-34489901D01*
X59967140Y-34489897D01*
X59825712Y-34360969D01*
X59806962Y-34343876D01*
X59802092Y-34340861D01*
X59802090Y-34340859D01*
X59622675Y-34229771D01*
X59622676Y-34229771D01*
X59617801Y-34226753D01*
X59410340Y-34146382D01*
X59404702Y-34145328D01*
X59197272Y-34106552D01*
X59197269Y-34106551D01*
X59191643Y-34105500D01*
X58969157Y-34105500D01*
X58963531Y-34106551D01*
X58963527Y-34106552D01*
X58756097Y-34145328D01*
X58756094Y-34145328D01*
X58750460Y-34146382D01*
X58745117Y-34148451D01*
X58745113Y-34148453D01*
X58548341Y-34224683D01*
X58548336Y-34224685D01*
X58542999Y-34226753D01*
X58538127Y-34229769D01*
X58538124Y-34229771D01*
X58358709Y-34340859D01*
X58358701Y-34340864D01*
X58353838Y-34343876D01*
X58349607Y-34347732D01*
X58349603Y-34347736D01*
X58193659Y-34489897D01*
X58193649Y-34489907D01*
X58189419Y-34493764D01*
X58185970Y-34498330D01*
X58185961Y-34498341D01*
X58058794Y-34666738D01*
X58058787Y-34666748D01*
X58055342Y-34671311D01*
X58052792Y-34676431D01*
X58052787Y-34676440D01*
X57958725Y-34865341D01*
X57958721Y-34865349D01*
X57956171Y-34870472D01*
X57954605Y-34875975D01*
X57954601Y-34875986D01*
X57929666Y-34963627D01*
X57897267Y-35018181D01*
X57842124Y-35049566D01*
X57778676Y-35049566D01*
X57723533Y-35018181D01*
X57691134Y-34963627D01*
X57666198Y-34875986D01*
X57666197Y-34875984D01*
X57664629Y-34870472D01*
X57565458Y-34671311D01*
X57562005Y-34666738D01*
X57434838Y-34498341D01*
X57434834Y-34498337D01*
X57431381Y-34493764D01*
X57427144Y-34489901D01*
X57427140Y-34489897D01*
X57285712Y-34360969D01*
X57266962Y-34343876D01*
X57262092Y-34340861D01*
X57262090Y-34340859D01*
X57082675Y-34229771D01*
X57082676Y-34229771D01*
X57077801Y-34226753D01*
X56870340Y-34146382D01*
X56864702Y-34145328D01*
X56657272Y-34106552D01*
X56657269Y-34106551D01*
X56651643Y-34105500D01*
X56429157Y-34105500D01*
X56423531Y-34106551D01*
X56423527Y-34106552D01*
X56216097Y-34145328D01*
X56216094Y-34145328D01*
X56210460Y-34146382D01*
X56205117Y-34148451D01*
X56205113Y-34148453D01*
X56008341Y-34224683D01*
X56008336Y-34224685D01*
X56002999Y-34226753D01*
X55998127Y-34229769D01*
X55998124Y-34229771D01*
X55818709Y-34340859D01*
X55818701Y-34340864D01*
X55813838Y-34343876D01*
X55809607Y-34347732D01*
X55809603Y-34347736D01*
X55653659Y-34489897D01*
X55653649Y-34489907D01*
X55649419Y-34493764D01*
X55645970Y-34498330D01*
X55645961Y-34498341D01*
X55518795Y-34666738D01*
X55515342Y-34671311D01*
X55514287Y-34673429D01*
X55470092Y-34715629D01*
X55409753Y-34731300D01*
X52884899Y-34731300D01*
X52822899Y-34714687D01*
X52777512Y-34669300D01*
X52760899Y-34607300D01*
X52760899Y-34512239D01*
X52760899Y-34508928D01*
X52754491Y-34449317D01*
X52704196Y-34314469D01*
X52617946Y-34199254D01*
X52529204Y-34132822D01*
X52509831Y-34118319D01*
X52509830Y-34118318D01*
X52502731Y-34113004D01*
X52418586Y-34081620D01*
X52375152Y-34065420D01*
X52375150Y-34065419D01*
X52367883Y-34062709D01*
X52360170Y-34061879D01*
X52360167Y-34061879D01*
X52311580Y-34056655D01*
X52311569Y-34056654D01*
X52308273Y-34056300D01*
X52304950Y-34056300D01*
X50615839Y-34056300D01*
X50615820Y-34056300D01*
X50612528Y-34056301D01*
X50609250Y-34056653D01*
X50609238Y-34056654D01*
X50560631Y-34061879D01*
X50560625Y-34061880D01*
X50552917Y-34062709D01*
X50545652Y-34065418D01*
X50545646Y-34065420D01*
X50426380Y-34109904D01*
X50426378Y-34109904D01*
X50418069Y-34113004D01*
X50410972Y-34118316D01*
X50410968Y-34118319D01*
X50309950Y-34193941D01*
X50309946Y-34193944D01*
X50302854Y-34199254D01*
X50297544Y-34206346D01*
X50297541Y-34206350D01*
X50221919Y-34307368D01*
X50221916Y-34307372D01*
X50216604Y-34314469D01*
X50213504Y-34322778D01*
X50213504Y-34322780D01*
X50169020Y-34442047D01*
X50169019Y-34442050D01*
X50166309Y-34449317D01*
X50165479Y-34457027D01*
X50165479Y-34457032D01*
X50160255Y-34505619D01*
X50160254Y-34505631D01*
X50159900Y-34508927D01*
X50159900Y-34512248D01*
X50159900Y-34512249D01*
X50159900Y-36201360D01*
X50159900Y-36201378D01*
X44834299Y-36201378D01*
X44836230Y-36199447D01*
X44843167Y-36191181D01*
X44967432Y-36013712D01*
X44972820Y-36004380D01*
X45064377Y-35808034D01*
X45068069Y-35797892D01*
X45115579Y-35620580D01*
X45115947Y-35609351D01*
X45105005Y-35606800D01*
X44106726Y-35606800D01*
X44093850Y-35610250D01*
X44090400Y-35623126D01*
X44090400Y-36621405D01*
X43590400Y-36621405D01*
X43590400Y-35623126D01*
X43586949Y-35610250D01*
X43574074Y-35606800D01*
X42575795Y-35606800D01*
X42564852Y-35609351D01*
X17830800Y-35609351D01*
X17830800Y-35104248D01*
X42564852Y-35104248D01*
X42575795Y-35106800D01*
X43574074Y-35106800D01*
X43586949Y-35103349D01*
X43590400Y-35090474D01*
X44090400Y-35090474D01*
X44093850Y-35103349D01*
X44106726Y-35106800D01*
X45105005Y-35106800D01*
X45115947Y-35104248D01*
X45115579Y-35093019D01*
X45068069Y-34915707D01*
X45064377Y-34905565D01*
X44972820Y-34709219D01*
X44967432Y-34699887D01*
X44843167Y-34522418D01*
X44836230Y-34514152D01*
X44683047Y-34360969D01*
X44674781Y-34354032D01*
X44497312Y-34229767D01*
X44487980Y-34224379D01*
X44291634Y-34132822D01*
X44281492Y-34129130D01*
X44104180Y-34081620D01*
X44092951Y-34081252D01*
X44090400Y-34092195D01*
X44090400Y-35090474D01*
X43590400Y-35090474D01*
X43590400Y-34092195D01*
X43587848Y-34081252D01*
X43576619Y-34081620D01*
X43399307Y-34129130D01*
X43389165Y-34132822D01*
X43192819Y-34224379D01*
X43183487Y-34229767D01*
X43006018Y-34354032D01*
X42997752Y-34360969D01*
X42844569Y-34514152D01*
X42837632Y-34522418D01*
X42713367Y-34699887D01*
X42707979Y-34709219D01*
X42616422Y-34905565D01*
X42612730Y-34915707D01*
X42565220Y-35093019D01*
X42564852Y-35104248D01*
X17830800Y-35104248D01*
X17830800Y-25923950D01*
X46772204Y-25923950D01*
X46779750Y-25932008D01*
X46947241Y-26046201D01*
X46955262Y-26050832D01*
X47189962Y-26163858D01*
X47198573Y-26167238D01*
X47447508Y-26244024D01*
X47456524Y-26246082D01*
X47714123Y-26284908D01*
X47723346Y-26285600D01*
X47983854Y-26285600D01*
X47993076Y-26284908D01*
X48250675Y-26246082D01*
X48259691Y-26244024D01*
X48508627Y-26167237D01*
X48517237Y-26163858D01*
X48751940Y-26050831D01*
X48759959Y-26046201D01*
X48927446Y-25932009D01*
X48934994Y-25923950D01*
X48929077Y-25914630D01*
X48844625Y-25830178D01*
X51133100Y-25830178D01*
X51133101Y-25833472D01*
X51133453Y-25836750D01*
X51133454Y-25836761D01*
X51138679Y-25885368D01*
X51138680Y-25885373D01*
X51139509Y-25893083D01*
X51142219Y-25900349D01*
X51142220Y-25900353D01*
X51154027Y-25932008D01*
X51189804Y-26027931D01*
X51276054Y-26143146D01*
X51391269Y-26229396D01*
X51526117Y-26279691D01*
X51585727Y-26286100D01*
X54281472Y-26286099D01*
X54341083Y-26279691D01*
X54475931Y-26229396D01*
X54591146Y-26143146D01*
X54677396Y-26027931D01*
X54727691Y-25893083D01*
X54734100Y-25833473D01*
X54734099Y-24485600D01*
X57274851Y-24485600D01*
X57275198Y-24490230D01*
X57275198Y-24490231D01*
X57293015Y-24727997D01*
X57295017Y-24754703D01*
X57296047Y-24759216D01*
X57296048Y-24759222D01*
X57353256Y-25009865D01*
X57355066Y-25017795D01*
X57356762Y-25022118D01*
X57356763Y-25022119D01*
X57405435Y-25146133D01*
X57453657Y-25268998D01*
X57588585Y-25502702D01*
X57756839Y-25713685D01*
X57760243Y-25716843D01*
X57882358Y-25830150D01*
X57954659Y-25897235D01*
X58177626Y-26049251D01*
X58420759Y-26166338D01*
X58425187Y-26167703D01*
X58425190Y-26167705D01*
X58549693Y-26206108D01*
X58678628Y-26245880D01*
X58945471Y-26286100D01*
X59210692Y-26286100D01*
X59215329Y-26286100D01*
X59482172Y-26245880D01*
X59740041Y-26166338D01*
X59983175Y-26049251D01*
X60206141Y-25897235D01*
X60278411Y-25830178D01*
X62359900Y-25830178D01*
X62359901Y-25833472D01*
X62360253Y-25836750D01*
X62360254Y-25836761D01*
X62365479Y-25885368D01*
X62365480Y-25885373D01*
X62366309Y-25893083D01*
X62369019Y-25900349D01*
X62369020Y-25900353D01*
X62380827Y-25932008D01*
X62416604Y-26027931D01*
X62502854Y-26143146D01*
X62618069Y-26229396D01*
X62752917Y-26279691D01*
X62812527Y-26286100D01*
X65508272Y-26286099D01*
X65567883Y-26279691D01*
X65702731Y-26229396D01*
X65817946Y-26143146D01*
X65904196Y-26027931D01*
X65954491Y-25893083D01*
X65960900Y-25833473D01*
X65960899Y-24485600D01*
X68501651Y-24485600D01*
X68501998Y-24490230D01*
X68501998Y-24490231D01*
X68519815Y-24727997D01*
X68521817Y-24754703D01*
X68522847Y-24759216D01*
X68522848Y-24759222D01*
X68580056Y-25009865D01*
X68581866Y-25017795D01*
X68583562Y-25022118D01*
X68583563Y-25022119D01*
X68632235Y-25146133D01*
X68680457Y-25268998D01*
X68815385Y-25502702D01*
X68983639Y-25713685D01*
X68987043Y-25716843D01*
X69109158Y-25830150D01*
X69181459Y-25897235D01*
X69404426Y-26049251D01*
X69647559Y-26166338D01*
X69651987Y-26167703D01*
X69651990Y-26167705D01*
X69776493Y-26206108D01*
X69905428Y-26245880D01*
X70172271Y-26286100D01*
X70437492Y-26286100D01*
X70442129Y-26286100D01*
X70708972Y-26245880D01*
X70966841Y-26166338D01*
X71209975Y-26049251D01*
X71432941Y-25897235D01*
X71505211Y-25830178D01*
X73586700Y-25830178D01*
X73586701Y-25833472D01*
X73587053Y-25836750D01*
X73587054Y-25836761D01*
X73592279Y-25885368D01*
X73592280Y-25885373D01*
X73593109Y-25893083D01*
X73595819Y-25900349D01*
X73595820Y-25900353D01*
X73607627Y-25932008D01*
X73643404Y-26027931D01*
X73729654Y-26143146D01*
X73844869Y-26229396D01*
X73979717Y-26279691D01*
X74039327Y-26286100D01*
X76735072Y-26286099D01*
X76794683Y-26279691D01*
X76929531Y-26229396D01*
X77044746Y-26143146D01*
X77130996Y-26027931D01*
X77181291Y-25893083D01*
X77187700Y-25833473D01*
X77187699Y-24317278D01*
X82977500Y-24317278D01*
X82977501Y-24320408D01*
X82977820Y-24323540D01*
X82977821Y-24323541D01*
X82987312Y-24416461D01*
X82987313Y-24416469D01*
X82988001Y-24423197D01*
X82990129Y-24429619D01*
X82990130Y-24429623D01*
X83028571Y-24545630D01*
X83043186Y-24589734D01*
X83046977Y-24595880D01*
X83131497Y-24732911D01*
X83131500Y-24732915D01*
X83135288Y-24739056D01*
X83259344Y-24863112D01*
X83265485Y-24866900D01*
X83265488Y-24866902D01*
X83299172Y-24887678D01*
X83408666Y-24955214D01*
X83575203Y-25010399D01*
X83677991Y-25020900D01*
X84978008Y-25020899D01*
X85080797Y-25010399D01*
X85247334Y-24955214D01*
X85396656Y-24863112D01*
X85520712Y-24739056D01*
X85612814Y-24589734D01*
X85613698Y-24590279D01*
X85645662Y-24550446D01*
X85699618Y-24526700D01*
X85758441Y-24530553D01*
X85808838Y-24561134D01*
X85956599Y-24708895D01*
X85961031Y-24711998D01*
X85961033Y-24712000D01*
X86028373Y-24759152D01*
X86150170Y-24844435D01*
X86155070Y-24846720D01*
X86155072Y-24846721D01*
X86173354Y-24855246D01*
X86364337Y-24944303D01*
X86592592Y-25005463D01*
X86828000Y-25026059D01*
X87063408Y-25005463D01*
X87291663Y-24944303D01*
X87505829Y-24844435D01*
X87699401Y-24708895D01*
X87866495Y-24541801D01*
X88002035Y-24348229D01*
X88101903Y-24134063D01*
X88163063Y-23905808D01*
X88178500Y-23729366D01*
X88178500Y-23311434D01*
X88163063Y-23134992D01*
X88114572Y-22954019D01*
X88103305Y-22911969D01*
X88103304Y-22911967D01*
X88101903Y-22906737D01*
X88002035Y-22692571D01*
X87866495Y-22498999D01*
X87699401Y-22331905D01*
X87694970Y-22328802D01*
X87694966Y-22328799D01*
X87586999Y-22253200D01*
X92545012Y-22253200D01*
X92545328Y-22257618D01*
X92563824Y-22516242D01*
X92563825Y-22516251D01*
X92564141Y-22520665D01*
X92565081Y-22524990D01*
X92565083Y-22524998D01*
X92612247Y-22741804D01*
X92621140Y-22782685D01*
X92622683Y-22786824D01*
X92622685Y-22786828D01*
X92703046Y-23002281D01*
X92714849Y-23033926D01*
X92716969Y-23037808D01*
X92716972Y-23037815D01*
X92841231Y-23265380D01*
X92841235Y-23265387D01*
X92843358Y-23269274D01*
X92846015Y-23272823D01*
X93001400Y-23480394D01*
X93001405Y-23480400D01*
X93004053Y-23483937D01*
X93193663Y-23673547D01*
X93197200Y-23676195D01*
X93197205Y-23676199D01*
X93264611Y-23726658D01*
X93408326Y-23834242D01*
X93412216Y-23836366D01*
X93412219Y-23836368D01*
X93634850Y-23957933D01*
X93643674Y-23962751D01*
X93894915Y-24056460D01*
X94156935Y-24113459D01*
X94424400Y-24132588D01*
X94691865Y-24113459D01*
X94953885Y-24056460D01*
X95205126Y-23962751D01*
X95440474Y-23834242D01*
X95655137Y-23673547D01*
X95844747Y-23483937D01*
X96005442Y-23269274D01*
X96133951Y-23033926D01*
X96227660Y-22782685D01*
X96284659Y-22520665D01*
X96303788Y-22253200D01*
X96284659Y-21985735D01*
X96227660Y-21723715D01*
X96133951Y-21472474D01*
X96005442Y-21237126D01*
X95924203Y-21128604D01*
X95847399Y-21026005D01*
X95847395Y-21026000D01*
X95844747Y-21022463D01*
X95655137Y-20832853D01*
X95651600Y-20830205D01*
X95651594Y-20830200D01*
X95444023Y-20674815D01*
X95440474Y-20672158D01*
X95436587Y-20670035D01*
X95436580Y-20670031D01*
X95209015Y-20545772D01*
X95209008Y-20545769D01*
X95205126Y-20543649D01*
X95200976Y-20542101D01*
X94958028Y-20451485D01*
X94958024Y-20451483D01*
X94953885Y-20449940D01*
X94924540Y-20443556D01*
X94696198Y-20393883D01*
X94696190Y-20393881D01*
X94691865Y-20392941D01*
X94687451Y-20392625D01*
X94687442Y-20392624D01*
X94428818Y-20374128D01*
X94424400Y-20373812D01*
X94419982Y-20374128D01*
X94161357Y-20392624D01*
X94161346Y-20392625D01*
X94156935Y-20392941D01*
X94152611Y-20393881D01*
X94152601Y-20393883D01*
X93899240Y-20448999D01*
X93899237Y-20448999D01*
X93894915Y-20449940D01*
X93890779Y-20451482D01*
X93890771Y-20451485D01*
X93647823Y-20542101D01*
X93647817Y-20542103D01*
X93643674Y-20543649D01*
X93639796Y-20545766D01*
X93639784Y-20545772D01*
X93412219Y-20670031D01*
X93412205Y-20670039D01*
X93408326Y-20672158D01*
X93404780Y-20674811D01*
X93404776Y-20674815D01*
X93197205Y-20830200D01*
X93197192Y-20830210D01*
X93193663Y-20832853D01*
X93190537Y-20835978D01*
X93190530Y-20835985D01*
X93007185Y-21019330D01*
X93007178Y-21019337D01*
X93004053Y-21022463D01*
X93001410Y-21025992D01*
X93001400Y-21026005D01*
X92846015Y-21233576D01*
X92846011Y-21233580D01*
X92843358Y-21237126D01*
X92841239Y-21241005D01*
X92841231Y-21241019D01*
X92716972Y-21468584D01*
X92716966Y-21468596D01*
X92714849Y-21472474D01*
X92713303Y-21476617D01*
X92713301Y-21476623D01*
X92622685Y-21719571D01*
X92622682Y-21719579D01*
X92621140Y-21723715D01*
X92620199Y-21728037D01*
X92620199Y-21728040D01*
X92565083Y-21981401D01*
X92565081Y-21981411D01*
X92564141Y-21985735D01*
X92563825Y-21990146D01*
X92563824Y-21990157D01*
X92548845Y-22199600D01*
X92545012Y-22253200D01*
X87586999Y-22253200D01*
X87510259Y-22199466D01*
X87510257Y-22199464D01*
X87505830Y-22196365D01*
X87500933Y-22194081D01*
X87500927Y-22194078D01*
X87296572Y-22098786D01*
X87296570Y-22098785D01*
X87291663Y-22096497D01*
X87286438Y-22095097D01*
X87286430Y-22095094D01*
X87068634Y-22036737D01*
X87068630Y-22036736D01*
X87063408Y-22035337D01*
X87058020Y-22034865D01*
X87058017Y-22034865D01*
X86833395Y-22015213D01*
X86828000Y-22014741D01*
X86822605Y-22015213D01*
X86597982Y-22034865D01*
X86597977Y-22034865D01*
X86592592Y-22035337D01*
X86587371Y-22036735D01*
X86587365Y-22036737D01*
X86369569Y-22095094D01*
X86369557Y-22095098D01*
X86364337Y-22096497D01*
X86359432Y-22098783D01*
X86359427Y-22098786D01*
X86155081Y-22194075D01*
X86155077Y-22194077D01*
X86150171Y-22196365D01*
X86145738Y-22199468D01*
X86145731Y-22199473D01*
X85961034Y-22328799D01*
X85961029Y-22328802D01*
X85956599Y-22331905D01*
X85952774Y-22335729D01*
X85952775Y-22335729D01*
X85808838Y-22479666D01*
X85758443Y-22510245D01*
X85699621Y-22514100D01*
X85645667Y-22490357D01*
X85613697Y-22450520D01*
X85612814Y-22451066D01*
X85524502Y-22307888D01*
X85524500Y-22307885D01*
X85520712Y-22301744D01*
X85396656Y-22177688D01*
X85390515Y-22173900D01*
X85390511Y-22173897D01*
X85253480Y-22089377D01*
X85247334Y-22085586D01*
X85094268Y-22034865D01*
X85087225Y-22032531D01*
X85087224Y-22032530D01*
X85080797Y-22030401D01*
X85074064Y-22029713D01*
X85074059Y-22029712D01*
X84981140Y-22020219D01*
X84981123Y-22020218D01*
X84978009Y-22019900D01*
X84974860Y-22019900D01*
X83681140Y-22019900D01*
X83681120Y-22019900D01*
X83677992Y-22019901D01*
X83674860Y-22020220D01*
X83674858Y-22020221D01*
X83581938Y-22029712D01*
X83581928Y-22029713D01*
X83575203Y-22030401D01*
X83568781Y-22032528D01*
X83568776Y-22032530D01*
X83415521Y-22083314D01*
X83415517Y-22083315D01*
X83408666Y-22085586D01*
X83402522Y-22089375D01*
X83402519Y-22089377D01*
X83265488Y-22173897D01*
X83265480Y-22173903D01*
X83259344Y-22177688D01*
X83254242Y-22182789D01*
X83254238Y-22182793D01*
X83140393Y-22296638D01*
X83140389Y-22296642D01*
X83135288Y-22301744D01*
X83131503Y-22307880D01*
X83131497Y-22307888D01*
X83046977Y-22444919D01*
X83043186Y-22451066D01*
X83040915Y-22457917D01*
X83040914Y-22457921D01*
X82990131Y-22611174D01*
X82988001Y-22617603D01*
X82987313Y-22624333D01*
X82987312Y-22624340D01*
X82977819Y-22717259D01*
X82977818Y-22717277D01*
X82977500Y-22720391D01*
X82977500Y-22723538D01*
X82977500Y-22723539D01*
X82977500Y-24317259D01*
X82977500Y-24317278D01*
X77187699Y-24317278D01*
X77187699Y-23137728D01*
X77181291Y-23078117D01*
X77130996Y-22943269D01*
X77044746Y-22828054D01*
X77007229Y-22799969D01*
X76936631Y-22747119D01*
X76936630Y-22747118D01*
X76929531Y-22741804D01*
X76794683Y-22691509D01*
X76786970Y-22690679D01*
X76786967Y-22690679D01*
X76738380Y-22685455D01*
X76738369Y-22685454D01*
X76735073Y-22685100D01*
X76731750Y-22685100D01*
X74042639Y-22685100D01*
X74042620Y-22685100D01*
X74039328Y-22685101D01*
X74036050Y-22685453D01*
X74036038Y-22685454D01*
X73987431Y-22690679D01*
X73987425Y-22690680D01*
X73979717Y-22691509D01*
X73972452Y-22694218D01*
X73972446Y-22694220D01*
X73853180Y-22738704D01*
X73853178Y-22738704D01*
X73844869Y-22741804D01*
X73837772Y-22747116D01*
X73837768Y-22747119D01*
X73736750Y-22822741D01*
X73736746Y-22822744D01*
X73729654Y-22828054D01*
X73724344Y-22835146D01*
X73724341Y-22835150D01*
X73648719Y-22936168D01*
X73648716Y-22936172D01*
X73643404Y-22943269D01*
X73640304Y-22951578D01*
X73640304Y-22951580D01*
X73595820Y-23070847D01*
X73595819Y-23070850D01*
X73593109Y-23078117D01*
X73592279Y-23085827D01*
X73592279Y-23085832D01*
X73587055Y-23134419D01*
X73587054Y-23134431D01*
X73586700Y-23137727D01*
X73586700Y-23141048D01*
X73586700Y-23141049D01*
X73586700Y-25830160D01*
X73586700Y-25830178D01*
X71505211Y-25830178D01*
X71630761Y-25713685D01*
X71799015Y-25502702D01*
X71933943Y-25268998D01*
X72032534Y-25017795D01*
X72092583Y-24754703D01*
X72112749Y-24485600D01*
X72092583Y-24216497D01*
X72032534Y-23953405D01*
X71933943Y-23702202D01*
X71799015Y-23468498D01*
X71630761Y-23257515D01*
X71531851Y-23165740D01*
X71436346Y-23077124D01*
X71436343Y-23077121D01*
X71432941Y-23073965D01*
X71429112Y-23071354D01*
X71429109Y-23071352D01*
X71280944Y-22970335D01*
X71209975Y-22921949D01*
X71197568Y-22915974D01*
X70971020Y-22806874D01*
X70971014Y-22806871D01*
X70966841Y-22804862D01*
X70962419Y-22803498D01*
X70962409Y-22803494D01*
X70713402Y-22726686D01*
X70713396Y-22726684D01*
X70708972Y-22725320D01*
X70704395Y-22724630D01*
X70704386Y-22724628D01*
X70446714Y-22685791D01*
X70446713Y-22685790D01*
X70442129Y-22685100D01*
X70172271Y-22685100D01*
X70167687Y-22685790D01*
X70167685Y-22685791D01*
X69910013Y-22724628D01*
X69910001Y-22724630D01*
X69905428Y-22725320D01*
X69901006Y-22726683D01*
X69900997Y-22726686D01*
X69651990Y-22803494D01*
X69651975Y-22803499D01*
X69647559Y-22804862D01*
X69643385Y-22806871D01*
X69643380Y-22806874D01*
X69408611Y-22919933D01*
X69408604Y-22919936D01*
X69404426Y-22921949D01*
X69400593Y-22924562D01*
X69400590Y-22924564D01*
X69185290Y-23071352D01*
X69185280Y-23071359D01*
X69181459Y-23073965D01*
X69178063Y-23077116D01*
X69178053Y-23077124D01*
X68987043Y-23254356D01*
X68987039Y-23254359D01*
X68983639Y-23257515D01*
X68980749Y-23261137D01*
X68980746Y-23261142D01*
X68838277Y-23439792D01*
X68815385Y-23468498D01*
X68813066Y-23472513D01*
X68813065Y-23472516D01*
X68682778Y-23698181D01*
X68682775Y-23698186D01*
X68680457Y-23702202D01*
X68678763Y-23706516D01*
X68678761Y-23706522D01*
X68583563Y-23949080D01*
X68581866Y-23953405D01*
X68580833Y-23957926D01*
X68580832Y-23957933D01*
X68522848Y-24211977D01*
X68522846Y-24211985D01*
X68521817Y-24216497D01*
X68521470Y-24221116D01*
X68521470Y-24221122D01*
X68502516Y-24474057D01*
X68501651Y-24485600D01*
X65960899Y-24485600D01*
X65960899Y-23137728D01*
X65954491Y-23078117D01*
X65904196Y-22943269D01*
X65817946Y-22828054D01*
X65780429Y-22799969D01*
X65709831Y-22747119D01*
X65709830Y-22747118D01*
X65702731Y-22741804D01*
X65567883Y-22691509D01*
X65560170Y-22690679D01*
X65560167Y-22690679D01*
X65511580Y-22685455D01*
X65511569Y-22685454D01*
X65508273Y-22685100D01*
X65504950Y-22685100D01*
X62815839Y-22685100D01*
X62815820Y-22685100D01*
X62812528Y-22685101D01*
X62809250Y-22685453D01*
X62809238Y-22685454D01*
X62760631Y-22690679D01*
X62760625Y-22690680D01*
X62752917Y-22691509D01*
X62745652Y-22694218D01*
X62745646Y-22694220D01*
X62626380Y-22738704D01*
X62626378Y-22738704D01*
X62618069Y-22741804D01*
X62610972Y-22747116D01*
X62610968Y-22747119D01*
X62509950Y-22822741D01*
X62509946Y-22822744D01*
X62502854Y-22828054D01*
X62497544Y-22835146D01*
X62497541Y-22835150D01*
X62421919Y-22936168D01*
X62421916Y-22936172D01*
X62416604Y-22943269D01*
X62413504Y-22951578D01*
X62413504Y-22951580D01*
X62369020Y-23070847D01*
X62369019Y-23070850D01*
X62366309Y-23078117D01*
X62365479Y-23085827D01*
X62365479Y-23085832D01*
X62360255Y-23134419D01*
X62360254Y-23134431D01*
X62359900Y-23137727D01*
X62359900Y-23141048D01*
X62359900Y-23141049D01*
X62359900Y-25830160D01*
X62359900Y-25830178D01*
X60278411Y-25830178D01*
X60403961Y-25713685D01*
X60572215Y-25502702D01*
X60707143Y-25268998D01*
X60805734Y-25017795D01*
X60865783Y-24754703D01*
X60885949Y-24485600D01*
X60865783Y-24216497D01*
X60805734Y-23953405D01*
X60707143Y-23702202D01*
X60572215Y-23468498D01*
X60403961Y-23257515D01*
X60305051Y-23165740D01*
X60209546Y-23077124D01*
X60209543Y-23077121D01*
X60206141Y-23073965D01*
X60202312Y-23071354D01*
X60202309Y-23071352D01*
X60054144Y-22970335D01*
X59983175Y-22921949D01*
X59970768Y-22915974D01*
X59744220Y-22806874D01*
X59744214Y-22806871D01*
X59740041Y-22804862D01*
X59735619Y-22803498D01*
X59735609Y-22803494D01*
X59486602Y-22726686D01*
X59486596Y-22726684D01*
X59482172Y-22725320D01*
X59477595Y-22724630D01*
X59477586Y-22724628D01*
X59219914Y-22685791D01*
X59219913Y-22685790D01*
X59215329Y-22685100D01*
X58945471Y-22685100D01*
X58940887Y-22685790D01*
X58940885Y-22685791D01*
X58683213Y-22724628D01*
X58683201Y-22724630D01*
X58678628Y-22725320D01*
X58674206Y-22726683D01*
X58674197Y-22726686D01*
X58425190Y-22803494D01*
X58425175Y-22803499D01*
X58420759Y-22804862D01*
X58416585Y-22806871D01*
X58416580Y-22806874D01*
X58181811Y-22919933D01*
X58181804Y-22919936D01*
X58177626Y-22921949D01*
X58173793Y-22924562D01*
X58173790Y-22924564D01*
X57958490Y-23071352D01*
X57958480Y-23071359D01*
X57954659Y-23073965D01*
X57951263Y-23077116D01*
X57951253Y-23077124D01*
X57760243Y-23254356D01*
X57760239Y-23254359D01*
X57756839Y-23257515D01*
X57753949Y-23261137D01*
X57753946Y-23261142D01*
X57611477Y-23439792D01*
X57588585Y-23468498D01*
X57586266Y-23472513D01*
X57586265Y-23472516D01*
X57455978Y-23698181D01*
X57455975Y-23698186D01*
X57453657Y-23702202D01*
X57451963Y-23706516D01*
X57451961Y-23706522D01*
X57356763Y-23949080D01*
X57355066Y-23953405D01*
X57354033Y-23957926D01*
X57354032Y-23957933D01*
X57296048Y-24211977D01*
X57296046Y-24211985D01*
X57295017Y-24216497D01*
X57294670Y-24221116D01*
X57294670Y-24221122D01*
X57275716Y-24474057D01*
X57274851Y-24485600D01*
X54734099Y-24485600D01*
X54734099Y-23137728D01*
X54727691Y-23078117D01*
X54677396Y-22943269D01*
X54591146Y-22828054D01*
X54553629Y-22799969D01*
X54483031Y-22747119D01*
X54483030Y-22747118D01*
X54475931Y-22741804D01*
X54341083Y-22691509D01*
X54333370Y-22690679D01*
X54333367Y-22690679D01*
X54284780Y-22685455D01*
X54284769Y-22685454D01*
X54281473Y-22685100D01*
X54278150Y-22685100D01*
X51589039Y-22685100D01*
X51589020Y-22685100D01*
X51585728Y-22685101D01*
X51582450Y-22685453D01*
X51582438Y-22685454D01*
X51533831Y-22690679D01*
X51533825Y-22690680D01*
X51526117Y-22691509D01*
X51518852Y-22694218D01*
X51518846Y-22694220D01*
X51399580Y-22738704D01*
X51399578Y-22738704D01*
X51391269Y-22741804D01*
X51384172Y-22747116D01*
X51384168Y-22747119D01*
X51283150Y-22822741D01*
X51283146Y-22822744D01*
X51276054Y-22828054D01*
X51270744Y-22835146D01*
X51270741Y-22835150D01*
X51195119Y-22936168D01*
X51195116Y-22936172D01*
X51189804Y-22943269D01*
X51186704Y-22951578D01*
X51186704Y-22951580D01*
X51142220Y-23070847D01*
X51142219Y-23070850D01*
X51139509Y-23078117D01*
X51138679Y-23085827D01*
X51138679Y-23085832D01*
X51133455Y-23134419D01*
X51133454Y-23134431D01*
X51133100Y-23137727D01*
X51133100Y-23141048D01*
X51133100Y-23141049D01*
X51133100Y-25830160D01*
X51133100Y-25830178D01*
X48844625Y-25830178D01*
X47865142Y-24850695D01*
X47853600Y-24844031D01*
X47842057Y-24850695D01*
X46778121Y-25914630D01*
X46772204Y-25923950D01*
X17830800Y-25923950D01*
X17830800Y-24622078D01*
X26273900Y-24622078D01*
X26273901Y-24625208D01*
X26274220Y-24628340D01*
X26274221Y-24628341D01*
X26283712Y-24721261D01*
X26283713Y-24721269D01*
X26284401Y-24727997D01*
X26286529Y-24734419D01*
X26286530Y-24734423D01*
X26337314Y-24887678D01*
X26339586Y-24894534D01*
X26343377Y-24900680D01*
X26427897Y-25037711D01*
X26427900Y-25037715D01*
X26431688Y-25043856D01*
X26555744Y-25167912D01*
X26561885Y-25171700D01*
X26561888Y-25171702D01*
X26618958Y-25206902D01*
X26705066Y-25260014D01*
X26871603Y-25315199D01*
X26974391Y-25325700D01*
X28274408Y-25325699D01*
X28377197Y-25315199D01*
X28543734Y-25260014D01*
X28693056Y-25167912D01*
X28817112Y-25043856D01*
X28909214Y-24894534D01*
X28910098Y-24895079D01*
X28942062Y-24855246D01*
X28996018Y-24831500D01*
X29054841Y-24835353D01*
X29105237Y-24865933D01*
X29252999Y-25013695D01*
X29257431Y-25016798D01*
X29257433Y-25016800D01*
X29287297Y-25037711D01*
X29446570Y-25149235D01*
X29451470Y-25151520D01*
X29451472Y-25151521D01*
X29475673Y-25162806D01*
X29660737Y-25249103D01*
X29888992Y-25310263D01*
X30124400Y-25330859D01*
X30359808Y-25310263D01*
X30588063Y-25249103D01*
X30802229Y-25149235D01*
X30995801Y-25013695D01*
X31162895Y-24846601D01*
X31298435Y-24653029D01*
X31312868Y-24622078D01*
X36586300Y-24622078D01*
X36586301Y-24625208D01*
X36586620Y-24628340D01*
X36586621Y-24628341D01*
X36596112Y-24721261D01*
X36596113Y-24721269D01*
X36596801Y-24727997D01*
X36598929Y-24734419D01*
X36598930Y-24734423D01*
X36649714Y-24887678D01*
X36651986Y-24894534D01*
X36655777Y-24900680D01*
X36740297Y-25037711D01*
X36740300Y-25037715D01*
X36744088Y-25043856D01*
X36868144Y-25167912D01*
X36874285Y-25171700D01*
X36874288Y-25171702D01*
X36931358Y-25206902D01*
X37017466Y-25260014D01*
X37184003Y-25315199D01*
X37286791Y-25325700D01*
X38586808Y-25325699D01*
X38689597Y-25315199D01*
X38856134Y-25260014D01*
X39005456Y-25167912D01*
X39129512Y-25043856D01*
X39221614Y-24894534D01*
X39222498Y-24895079D01*
X39254462Y-24855246D01*
X39308418Y-24831500D01*
X39367241Y-24835353D01*
X39417638Y-24865933D01*
X39565399Y-25013695D01*
X39569831Y-25016798D01*
X39569833Y-25016800D01*
X39599697Y-25037711D01*
X39758970Y-25149235D01*
X39763870Y-25151520D01*
X39763872Y-25151521D01*
X39788073Y-25162806D01*
X39973137Y-25249103D01*
X40201392Y-25310263D01*
X40436800Y-25330859D01*
X40672208Y-25310263D01*
X40900463Y-25249103D01*
X41114629Y-25149235D01*
X41308201Y-25013695D01*
X41475295Y-24846601D01*
X41610835Y-24653029D01*
X41686750Y-24490230D01*
X46048900Y-24490230D01*
X46068367Y-24749999D01*
X46069746Y-24759152D01*
X46127711Y-25013115D01*
X46130444Y-25021975D01*
X46225611Y-25264456D01*
X46229630Y-25272802D01*
X46359878Y-25498398D01*
X46365096Y-25506050D01*
X46404979Y-25556062D01*
X46416215Y-25564035D01*
X46428274Y-25557371D01*
X47488504Y-24497142D01*
X47495168Y-24485600D01*
X47495167Y-24485599D01*
X48212031Y-24485599D01*
X48218695Y-24497142D01*
X49278925Y-25557372D01*
X49290982Y-25564036D01*
X49302219Y-25556063D01*
X49342107Y-25506045D01*
X49347319Y-25498400D01*
X49477569Y-25272802D01*
X49481588Y-25264456D01*
X49576755Y-25021975D01*
X49579488Y-25013115D01*
X49637453Y-24759152D01*
X49638832Y-24749999D01*
X49658300Y-24490230D01*
X49658300Y-24480970D01*
X49638832Y-24221200D01*
X49637453Y-24212047D01*
X49579488Y-23958084D01*
X49576755Y-23949224D01*
X49481588Y-23706743D01*
X49477569Y-23698397D01*
X49347321Y-23472801D01*
X49342103Y-23465149D01*
X49302219Y-23415136D01*
X49290982Y-23407162D01*
X49278925Y-23413826D01*
X48218695Y-24474057D01*
X48212031Y-24485599D01*
X47495167Y-24485599D01*
X47488504Y-24474057D01*
X46428274Y-23413827D01*
X46416215Y-23407162D01*
X46404980Y-23415134D01*
X46365088Y-23465158D01*
X46359882Y-23472795D01*
X46229630Y-23698397D01*
X46225611Y-23706743D01*
X46130444Y-23949224D01*
X46127711Y-23958084D01*
X46069746Y-24212047D01*
X46068367Y-24221200D01*
X46048900Y-24480970D01*
X46048900Y-24490230D01*
X41686750Y-24490230D01*
X41710703Y-24438863D01*
X41771863Y-24210608D01*
X41787300Y-24034166D01*
X41787300Y-23616234D01*
X41771863Y-23439792D01*
X41722176Y-23254356D01*
X41712105Y-23216769D01*
X41712104Y-23216767D01*
X41710703Y-23211537D01*
X41634093Y-23047248D01*
X46772203Y-23047248D01*
X46778119Y-23056566D01*
X47842057Y-24120504D01*
X47853599Y-24127168D01*
X47865142Y-24120504D01*
X48929077Y-23056568D01*
X48934994Y-23047248D01*
X48927446Y-23039189D01*
X48759960Y-22924998D01*
X48751940Y-22920368D01*
X48517237Y-22807341D01*
X48508627Y-22803962D01*
X48259691Y-22727175D01*
X48250675Y-22725117D01*
X47993076Y-22686291D01*
X47983854Y-22685600D01*
X47723346Y-22685600D01*
X47714123Y-22686291D01*
X47456524Y-22725117D01*
X47447508Y-22727175D01*
X47198573Y-22803961D01*
X47189962Y-22807341D01*
X46955260Y-22920368D01*
X46947239Y-22924999D01*
X46779751Y-23039190D01*
X46772203Y-23047248D01*
X41634093Y-23047248D01*
X41610835Y-22997371D01*
X41475295Y-22803799D01*
X41308201Y-22636705D01*
X41303770Y-22633602D01*
X41303766Y-22633599D01*
X41119059Y-22504266D01*
X41119057Y-22504264D01*
X41114630Y-22501165D01*
X41109733Y-22498881D01*
X41109727Y-22498878D01*
X40905372Y-22403586D01*
X40905370Y-22403585D01*
X40900463Y-22401297D01*
X40895238Y-22399897D01*
X40895230Y-22399894D01*
X40677434Y-22341537D01*
X40677430Y-22341536D01*
X40672208Y-22340137D01*
X40666820Y-22339665D01*
X40666817Y-22339665D01*
X40442195Y-22320013D01*
X40436800Y-22319541D01*
X40431405Y-22320013D01*
X40206782Y-22339665D01*
X40206777Y-22339665D01*
X40201392Y-22340137D01*
X40196171Y-22341535D01*
X40196165Y-22341537D01*
X39978369Y-22399894D01*
X39978357Y-22399898D01*
X39973137Y-22401297D01*
X39968232Y-22403583D01*
X39968227Y-22403586D01*
X39763881Y-22498875D01*
X39763877Y-22498877D01*
X39758971Y-22501165D01*
X39754538Y-22504268D01*
X39754531Y-22504273D01*
X39569834Y-22633599D01*
X39569829Y-22633602D01*
X39565399Y-22636705D01*
X39561574Y-22640529D01*
X39561575Y-22640529D01*
X39417638Y-22784466D01*
X39367243Y-22815045D01*
X39308421Y-22818900D01*
X39254467Y-22795157D01*
X39222497Y-22755320D01*
X39221614Y-22755866D01*
X39133302Y-22612688D01*
X39133300Y-22612685D01*
X39129512Y-22606544D01*
X39005456Y-22482488D01*
X38999315Y-22478700D01*
X38999311Y-22478697D01*
X38862280Y-22394177D01*
X38856134Y-22390386D01*
X38703068Y-22339665D01*
X38696025Y-22337331D01*
X38696024Y-22337330D01*
X38689597Y-22335201D01*
X38682864Y-22334513D01*
X38682859Y-22334512D01*
X38589940Y-22325019D01*
X38589923Y-22325018D01*
X38586809Y-22324700D01*
X38583660Y-22324700D01*
X37289940Y-22324700D01*
X37289920Y-22324700D01*
X37286792Y-22324701D01*
X37283660Y-22325020D01*
X37283658Y-22325021D01*
X37190738Y-22334512D01*
X37190728Y-22334513D01*
X37184003Y-22335201D01*
X37177581Y-22337328D01*
X37177576Y-22337330D01*
X37024321Y-22388114D01*
X37024317Y-22388115D01*
X37017466Y-22390386D01*
X37011322Y-22394175D01*
X37011319Y-22394177D01*
X36874288Y-22478697D01*
X36874280Y-22478703D01*
X36868144Y-22482488D01*
X36863042Y-22487589D01*
X36863038Y-22487593D01*
X36749193Y-22601438D01*
X36749189Y-22601442D01*
X36744088Y-22606544D01*
X36740303Y-22612680D01*
X36740297Y-22612688D01*
X36660659Y-22741804D01*
X36651986Y-22755866D01*
X36649715Y-22762717D01*
X36649714Y-22762721D01*
X36603619Y-22901827D01*
X36596801Y-22922403D01*
X36596113Y-22929133D01*
X36596112Y-22929140D01*
X36586619Y-23022059D01*
X36586618Y-23022077D01*
X36586300Y-23025191D01*
X36586300Y-23028338D01*
X36586300Y-23028339D01*
X36586300Y-24622059D01*
X36586300Y-24622078D01*
X31312868Y-24622078D01*
X31398303Y-24438863D01*
X31459463Y-24210608D01*
X31474900Y-24034166D01*
X31474900Y-23616234D01*
X31459463Y-23439792D01*
X31409776Y-23254356D01*
X31399705Y-23216769D01*
X31399704Y-23216767D01*
X31398303Y-23211537D01*
X31298435Y-22997371D01*
X31162895Y-22803799D01*
X30995801Y-22636705D01*
X30991370Y-22633602D01*
X30991366Y-22633599D01*
X30806659Y-22504266D01*
X30806657Y-22504264D01*
X30802230Y-22501165D01*
X30797333Y-22498881D01*
X30797327Y-22498878D01*
X30592972Y-22403586D01*
X30592970Y-22403585D01*
X30588063Y-22401297D01*
X30582838Y-22399897D01*
X30582830Y-22399894D01*
X30365034Y-22341537D01*
X30365030Y-22341536D01*
X30359808Y-22340137D01*
X30354420Y-22339665D01*
X30354417Y-22339665D01*
X30129795Y-22320013D01*
X30124400Y-22319541D01*
X30119005Y-22320013D01*
X29894382Y-22339665D01*
X29894377Y-22339665D01*
X29888992Y-22340137D01*
X29883771Y-22341535D01*
X29883765Y-22341537D01*
X29665969Y-22399894D01*
X29665957Y-22399898D01*
X29660737Y-22401297D01*
X29655832Y-22403583D01*
X29655827Y-22403586D01*
X29451481Y-22498875D01*
X29451477Y-22498877D01*
X29446571Y-22501165D01*
X29442138Y-22504268D01*
X29442131Y-22504273D01*
X29257434Y-22633599D01*
X29257429Y-22633602D01*
X29252999Y-22636705D01*
X29249174Y-22640529D01*
X29249175Y-22640529D01*
X29105238Y-22784466D01*
X29054843Y-22815045D01*
X28996021Y-22818900D01*
X28942067Y-22795157D01*
X28910097Y-22755320D01*
X28909214Y-22755866D01*
X28820902Y-22612688D01*
X28820900Y-22612685D01*
X28817112Y-22606544D01*
X28693056Y-22482488D01*
X28686915Y-22478700D01*
X28686911Y-22478697D01*
X28549880Y-22394177D01*
X28543734Y-22390386D01*
X28390668Y-22339665D01*
X28383625Y-22337331D01*
X28383624Y-22337330D01*
X28377197Y-22335201D01*
X28370464Y-22334513D01*
X28370459Y-22334512D01*
X28277540Y-22325019D01*
X28277523Y-22325018D01*
X28274409Y-22324700D01*
X28271260Y-22324700D01*
X26977540Y-22324700D01*
X26977520Y-22324700D01*
X26974392Y-22324701D01*
X26971260Y-22325020D01*
X26971258Y-22325021D01*
X26878338Y-22334512D01*
X26878328Y-22334513D01*
X26871603Y-22335201D01*
X26865181Y-22337328D01*
X26865176Y-22337330D01*
X26711921Y-22388114D01*
X26711917Y-22388115D01*
X26705066Y-22390386D01*
X26698922Y-22394175D01*
X26698919Y-22394177D01*
X26561888Y-22478697D01*
X26561880Y-22478703D01*
X26555744Y-22482488D01*
X26550642Y-22487589D01*
X26550638Y-22487593D01*
X26436793Y-22601438D01*
X26436789Y-22601442D01*
X26431688Y-22606544D01*
X26427903Y-22612680D01*
X26427897Y-22612688D01*
X26348259Y-22741804D01*
X26339586Y-22755866D01*
X26337315Y-22762717D01*
X26337314Y-22762721D01*
X26291219Y-22901827D01*
X26284401Y-22922403D01*
X26283713Y-22929133D01*
X26283712Y-22929140D01*
X26274219Y-23022059D01*
X26274218Y-23022077D01*
X26273900Y-23025191D01*
X26273900Y-23028338D01*
X26273900Y-23028339D01*
X26273900Y-24622059D01*
X26273900Y-24622078D01*
X17830800Y-24622078D01*
X17830800Y-22199600D01*
X18871612Y-22199600D01*
X18871928Y-22204018D01*
X18890424Y-22462642D01*
X18890425Y-22462651D01*
X18890741Y-22467065D01*
X18891681Y-22471390D01*
X18891683Y-22471398D01*
X18938172Y-22685100D01*
X18947740Y-22729085D01*
X18949283Y-22733224D01*
X18949285Y-22733228D01*
X19039901Y-22976176D01*
X19041449Y-22980326D01*
X19043569Y-22984208D01*
X19043572Y-22984215D01*
X19167831Y-23211780D01*
X19167835Y-23211787D01*
X19169958Y-23215674D01*
X19172615Y-23219223D01*
X19328000Y-23426794D01*
X19328005Y-23426800D01*
X19330653Y-23430337D01*
X19520263Y-23619947D01*
X19523800Y-23622595D01*
X19523805Y-23622599D01*
X19586020Y-23669172D01*
X19734926Y-23780642D01*
X19738816Y-23782766D01*
X19738819Y-23782768D01*
X19964152Y-23905808D01*
X19970274Y-23909151D01*
X20221515Y-24002860D01*
X20483535Y-24059859D01*
X20751000Y-24078988D01*
X21018465Y-24059859D01*
X21280485Y-24002860D01*
X21531726Y-23909151D01*
X21767074Y-23780642D01*
X21981737Y-23619947D01*
X22171347Y-23430337D01*
X22332042Y-23215674D01*
X22460551Y-22980326D01*
X22554260Y-22729085D01*
X22611259Y-22467065D01*
X22630388Y-22199600D01*
X22611259Y-21932135D01*
X22554260Y-21670115D01*
X22460551Y-21418874D01*
X22458427Y-21414984D01*
X22334168Y-21187419D01*
X22334166Y-21187416D01*
X22332042Y-21183526D01*
X22209126Y-21019330D01*
X22173999Y-20972405D01*
X22173995Y-20972400D01*
X22171347Y-20968863D01*
X21981737Y-20779253D01*
X21978200Y-20776605D01*
X21978194Y-20776600D01*
X21770623Y-20621215D01*
X21767074Y-20618558D01*
X21763187Y-20616435D01*
X21763180Y-20616431D01*
X21535615Y-20492172D01*
X21535608Y-20492169D01*
X21531726Y-20490049D01*
X21527576Y-20488501D01*
X21284628Y-20397885D01*
X21284624Y-20397883D01*
X21280485Y-20396340D01*
X21203533Y-20379600D01*
X21022798Y-20340283D01*
X21022790Y-20340281D01*
X21018465Y-20339341D01*
X21014051Y-20339025D01*
X21014042Y-20339024D01*
X20755418Y-20320528D01*
X20751000Y-20320212D01*
X20746582Y-20320528D01*
X20487957Y-20339024D01*
X20487946Y-20339025D01*
X20483535Y-20339341D01*
X20479211Y-20340281D01*
X20479201Y-20340283D01*
X20225840Y-20395399D01*
X20225837Y-20395399D01*
X20221515Y-20396340D01*
X20217379Y-20397882D01*
X20217371Y-20397885D01*
X19974423Y-20488501D01*
X19974417Y-20488503D01*
X19970274Y-20490049D01*
X19966396Y-20492166D01*
X19966384Y-20492172D01*
X19738819Y-20616431D01*
X19738805Y-20616439D01*
X19734926Y-20618558D01*
X19731380Y-20621211D01*
X19731376Y-20621215D01*
X19523805Y-20776600D01*
X19523792Y-20776610D01*
X19520263Y-20779253D01*
X19517137Y-20782378D01*
X19517130Y-20782385D01*
X19333785Y-20965730D01*
X19333778Y-20965737D01*
X19330653Y-20968863D01*
X19328010Y-20972392D01*
X19328000Y-20972405D01*
X19172615Y-21179976D01*
X19172611Y-21179980D01*
X19169958Y-21183526D01*
X19167839Y-21187405D01*
X19167831Y-21187419D01*
X19043572Y-21414984D01*
X19043566Y-21414996D01*
X19041449Y-21418874D01*
X19039903Y-21423017D01*
X19039901Y-21423023D01*
X18949285Y-21665971D01*
X18949282Y-21665979D01*
X18947740Y-21670115D01*
X18946799Y-21674437D01*
X18946799Y-21674440D01*
X18891683Y-21927801D01*
X18891681Y-21927811D01*
X18890741Y-21932135D01*
X18890425Y-21936546D01*
X18890424Y-21936557D01*
X18879766Y-22085586D01*
X18871612Y-22199600D01*
X17830800Y-22199600D01*
X17830800Y-19428079D01*
X17847426Y-19366056D01*
X17892846Y-19320666D01*
X17954879Y-19304079D01*
X41033193Y-19318759D01*
G37*
%TD.AperFunction*%
%TD*%
M02*
