%TF.GenerationSoftware,KiCad,Pcbnew,(7.0.0-0)*%
%TF.CreationDate,2023-08-08T20:11:38-05:00*%
%TF.ProjectId,DingoPCB,44696e67-6f50-4434-922e-6b696361645f,rev?*%
%TF.SameCoordinates,Original*%
%TF.FileFunction,Copper,L1,Top*%
%TF.FilePolarity,Positive*%
%FSLAX46Y46*%
G04 Gerber Fmt 4.6, Leading zero omitted, Abs format (unit mm)*
G04 Created by KiCad (PCBNEW (7.0.0-0)) date 2023-08-08 20:11:38*
%MOMM*%
%LPD*%
G01*
G04 APERTURE LIST*
G04 Aperture macros list*
%AMRoundRect*
0 Rectangle with rounded corners*
0 $1 Rounding radius*
0 $2 $3 $4 $5 $6 $7 $8 $9 X,Y pos of 4 corners*
0 Add a 4 corners polygon primitive as box body*
4,1,4,$2,$3,$4,$5,$6,$7,$8,$9,$2,$3,0*
0 Add four circle primitives for the rounded corners*
1,1,$1+$1,$2,$3*
1,1,$1+$1,$4,$5*
1,1,$1+$1,$6,$7*
1,1,$1+$1,$8,$9*
0 Add four rect primitives between the rounded corners*
20,1,$1+$1,$2,$3,$4,$5,0*
20,1,$1+$1,$4,$5,$6,$7,0*
20,1,$1+$1,$6,$7,$8,$9,0*
20,1,$1+$1,$8,$9,$2,$3,0*%
G04 Aperture macros list end*
%TA.AperFunction,ComponentPad*%
%ADD10RoundRect,0.250000X-0.600000X-0.750000X0.600000X-0.750000X0.600000X0.750000X-0.600000X0.750000X0*%
%TD*%
%TA.AperFunction,ComponentPad*%
%ADD11O,1.700000X2.000000*%
%TD*%
%TA.AperFunction,ComponentPad*%
%ADD12R,2.600000X2.600000*%
%TD*%
%TA.AperFunction,ComponentPad*%
%ADD13C,2.600000*%
%TD*%
%TA.AperFunction,ComponentPad*%
%ADD14C,1.400000*%
%TD*%
%TA.AperFunction,ComponentPad*%
%ADD15O,1.400000X1.400000*%
%TD*%
%TA.AperFunction,ComponentPad*%
%ADD16R,1.600000X1.600000*%
%TD*%
%TA.AperFunction,ComponentPad*%
%ADD17O,1.600000X1.600000*%
%TD*%
%TA.AperFunction,Conductor*%
%ADD18C,0.250000*%
%TD*%
G04 APERTURE END LIST*
D10*
%TO.P,J12,1,Pin_1*%
%TO.N,GND*%
X25338400Y-21539200D03*
D11*
%TO.P,J12,2,Pin_2*%
%TO.N,+5V*%
X27838399Y-21539199D03*
%TD*%
D12*
%TO.P,J1,1,Pin_1*%
%TO.N,GND*%
X5537199Y-19303999D03*
D13*
%TO.P,J1,2,Pin_2*%
%TO.N,+15V*%
X5537200Y-24384000D03*
%TD*%
D10*
%TO.P,J11,1,Pin_1*%
%TO.N,+12V*%
X43129200Y-21539200D03*
D11*
%TO.P,J11,2,Pin_2*%
%TO.N,GND*%
X45629199Y-21539199D03*
%TD*%
D14*
%TO.P,R2,1*%
%TO.N,Net-(J10-Pin_2)*%
X46735200Y-16052800D03*
D15*
%TO.P,R2,2*%
%TO.N,GND*%
X49275199Y-16052799D03*
%TD*%
D12*
%TO.P,J4,1,Pin_1*%
%TO.N,GND*%
X33832799Y-34797999D03*
D13*
%TO.P,J4,2,Pin_2*%
%TO.N,+15V*%
X38912800Y-34798000D03*
%TD*%
D10*
%TO.P,J20,1,Pin_1*%
%TO.N,GND*%
X66903600Y-4267200D03*
D11*
%TO.P,J20,2,Pin_2*%
%TO.N,+5V*%
X69403599Y-4267199D03*
%TD*%
D12*
%TO.P,J2,1,Pin_1*%
%TO.N,GND*%
X34747199Y-5232399D03*
D13*
%TO.P,J2,2,Pin_2*%
%TO.N,+15V*%
X29667200Y-5232400D03*
%TD*%
D10*
%TO.P,J8,1,Pin_1*%
%TO.N,+12V*%
X51968400Y-21539200D03*
D11*
%TO.P,J8,2,Pin_2*%
%TO.N,GND*%
X54468399Y-21539199D03*
%TD*%
D10*
%TO.P,J9,1,Pin_1*%
%TO.N,GND*%
X15798800Y-21539200D03*
D11*
%TO.P,J9,2,Pin_2*%
%TO.N,+5V*%
X18298799Y-21539199D03*
%TD*%
D12*
%TO.P,J7,1,Pin_1*%
%TO.N,GND*%
X58521599Y-5232399D03*
D13*
%TO.P,J7,2,Pin_2*%
%TO.N,+5V*%
X53441600Y-5232400D03*
%TD*%
D10*
%TO.P,J17,1,Pin_1*%
%TO.N,GND*%
X10809600Y-35001200D03*
D11*
%TO.P,J17,2,Pin_2*%
%TO.N,+5V*%
X13309599Y-35001199D03*
%TD*%
D10*
%TO.P,J14,1,Pin_1*%
%TO.N,GND*%
X34330000Y-21539200D03*
D11*
%TO.P,J14,2,Pin_2*%
%TO.N,+5V*%
X36829999Y-21539199D03*
%TD*%
D16*
%TO.P,D1,1,K*%
%TO.N,Net-(D1-K)*%
X34035999Y-16103599D03*
D17*
%TO.P,D1,2,A*%
%TO.N,+15V*%
X26415999Y-16103599D03*
%TD*%
D10*
%TO.P,J18,1,Pin_1*%
%TO.N,GND*%
X68122800Y-34950400D03*
D11*
%TO.P,J18,2,Pin_2*%
%TO.N,+5V*%
X70622799Y-34950399D03*
%TD*%
D14*
%TO.P,R1,1*%
%TO.N,Net-(D1-K)*%
X39116000Y-16052800D03*
D15*
%TO.P,R1,2*%
%TO.N,Net-(J10-Pin_2)*%
X41655999Y-16052799D03*
%TD*%
D10*
%TO.P,J15,1,Pin_1*%
%TO.N,GND*%
X10200000Y-4572000D03*
D11*
%TO.P,J15,2,Pin_2*%
%TO.N,+5V*%
X12699999Y-4571999D03*
%TD*%
D10*
%TO.P,J13,1,Pin_1*%
%TO.N,+12V*%
X60858400Y-21590000D03*
D11*
%TO.P,J13,2,Pin_2*%
%TO.N,GND*%
X63358399Y-21589999D03*
%TD*%
D12*
%TO.P,J3,1,Pin_1*%
%TO.N,GND*%
X20370799Y-34747199D03*
D13*
%TO.P,J3,2,Pin_2*%
%TO.N,+15V*%
X25450800Y-34747200D03*
%TD*%
D10*
%TO.P,J16,1,Pin_1*%
%TO.N,GND*%
X20512400Y-4572000D03*
D11*
%TO.P,J16,2,Pin_2*%
%TO.N,+5V*%
X23012399Y-4571999D03*
%TD*%
D12*
%TO.P,J5,1,Pin_1*%
%TO.N,GND*%
X46481999Y-34797999D03*
D13*
%TO.P,J5,2,Pin_2*%
%TO.N,+15V*%
X51562000Y-34798000D03*
%TD*%
D12*
%TO.P,J6,1,Pin_1*%
%TO.N,GND*%
X74980799Y-24891999D03*
D13*
%TO.P,J6,2,Pin_2*%
%TO.N,+12V*%
X74980800Y-19812000D03*
%TD*%
D12*
%TO.P,J10,1,Pin_1*%
%TO.N,GND*%
X46735999Y-5232399D03*
D13*
%TO.P,J10,2,Pin_2*%
%TO.N,Net-(J10-Pin_2)*%
X41656000Y-5232400D03*
%TD*%
D10*
%TO.P,J19,1,Pin_1*%
%TO.N,GND*%
X58623200Y-34950400D03*
D11*
%TO.P,J19,2,Pin_2*%
%TO.N,+5V*%
X61123199Y-34950399D03*
%TD*%
D18*
%TO.N,+12V*%
X51968400Y-21539200D02*
X49885600Y-19456400D01*
X49885600Y-19456400D02*
X45212000Y-19456400D01*
X45212000Y-19456400D02*
X43129200Y-21539200D01*
X60858400Y-21590000D02*
X58369200Y-19100800D01*
X58369200Y-19100800D02*
X54406800Y-19100800D01*
X54406800Y-19100800D02*
X51968400Y-21539200D01*
X62941200Y-19812000D02*
X62890400Y-19761200D01*
X61061600Y-21590000D02*
X60858400Y-21590000D01*
X74980800Y-19812000D02*
X62941200Y-19812000D01*
X62890400Y-19761200D02*
X61061600Y-21590000D01*
%TO.N,Net-(D1-K)*%
X34036000Y-16103600D02*
X38912000Y-16103600D01*
%TO.N,Net-(J10-Pin_2)*%
X46684400Y-16103600D02*
X46735200Y-16052800D01*
X41452000Y-16103600D02*
X46684400Y-16103600D01*
%TD*%
%TA.AperFunction,Conductor*%
%TO.N,+15V*%
G36*
X23608793Y-65559D02*
G01*
X80140079Y-101521D01*
X80202046Y-118160D01*
X80247400Y-163544D01*
X80264000Y-225521D01*
X80264000Y-39804800D01*
X80247387Y-39866800D01*
X80202000Y-39912187D01*
X80140000Y-39928800D01*
X530400Y-39928800D01*
X468400Y-39912187D01*
X423013Y-39866800D01*
X406400Y-39804800D01*
X406400Y-37000000D01*
X1120612Y-37000000D01*
X1120928Y-37004418D01*
X1139424Y-37263042D01*
X1139425Y-37263051D01*
X1139741Y-37267465D01*
X1140681Y-37271790D01*
X1140683Y-37271798D01*
X1190356Y-37500140D01*
X1196740Y-37529485D01*
X1290449Y-37780726D01*
X1292569Y-37784608D01*
X1292572Y-37784615D01*
X1416831Y-38012180D01*
X1416835Y-38012187D01*
X1418958Y-38016074D01*
X1421615Y-38019623D01*
X1577000Y-38227194D01*
X1577005Y-38227200D01*
X1579653Y-38230737D01*
X1769263Y-38420347D01*
X1772800Y-38422995D01*
X1772805Y-38422999D01*
X1875404Y-38499803D01*
X1983926Y-38581042D01*
X1987816Y-38583166D01*
X1987819Y-38583168D01*
X2215384Y-38707427D01*
X2219274Y-38709551D01*
X2470515Y-38803260D01*
X2732535Y-38860259D01*
X3000000Y-38879388D01*
X3267465Y-38860259D01*
X3529485Y-38803260D01*
X3780726Y-38709551D01*
X4016074Y-38581042D01*
X4230737Y-38420347D01*
X4420347Y-38230737D01*
X4581042Y-38016074D01*
X4709551Y-37780726D01*
X4803260Y-37529485D01*
X4860259Y-37267465D01*
X4879388Y-37000000D01*
X75120612Y-37000000D01*
X75120928Y-37004418D01*
X75139424Y-37263042D01*
X75139425Y-37263051D01*
X75139741Y-37267465D01*
X75140681Y-37271790D01*
X75140683Y-37271798D01*
X75190356Y-37500140D01*
X75196740Y-37529485D01*
X75290449Y-37780726D01*
X75292569Y-37784608D01*
X75292572Y-37784615D01*
X75416831Y-38012180D01*
X75416835Y-38012187D01*
X75418958Y-38016074D01*
X75421615Y-38019623D01*
X75577000Y-38227194D01*
X75577005Y-38227200D01*
X75579653Y-38230737D01*
X75769263Y-38420347D01*
X75772800Y-38422995D01*
X75772805Y-38422999D01*
X75875404Y-38499803D01*
X75983926Y-38581042D01*
X75987816Y-38583166D01*
X75987819Y-38583168D01*
X76215384Y-38707427D01*
X76219274Y-38709551D01*
X76470515Y-38803260D01*
X76732535Y-38860259D01*
X77000000Y-38879388D01*
X77267465Y-38860259D01*
X77529485Y-38803260D01*
X77780726Y-38709551D01*
X78016074Y-38581042D01*
X78230737Y-38420347D01*
X78420347Y-38230737D01*
X78581042Y-38016074D01*
X78709551Y-37780726D01*
X78803260Y-37529485D01*
X78860259Y-37267465D01*
X78879388Y-37000000D01*
X78860259Y-36732535D01*
X78803260Y-36470515D01*
X78709551Y-36219274D01*
X78693400Y-36189695D01*
X78583168Y-35987819D01*
X78583166Y-35987816D01*
X78581042Y-35983926D01*
X78495587Y-35869772D01*
X78422999Y-35772805D01*
X78422995Y-35772800D01*
X78420347Y-35769263D01*
X78230737Y-35579653D01*
X78227200Y-35577005D01*
X78227194Y-35577000D01*
X78019623Y-35421615D01*
X78016074Y-35418958D01*
X78012187Y-35416835D01*
X78012180Y-35416831D01*
X77784615Y-35292572D01*
X77784608Y-35292569D01*
X77780726Y-35290449D01*
X77776576Y-35288901D01*
X77533628Y-35198285D01*
X77533624Y-35198283D01*
X77529485Y-35196740D01*
X77500140Y-35190356D01*
X77271798Y-35140683D01*
X77271790Y-35140681D01*
X77267465Y-35139741D01*
X77263051Y-35139425D01*
X77263042Y-35139424D01*
X77004418Y-35120928D01*
X77000000Y-35120612D01*
X76995582Y-35120928D01*
X76736957Y-35139424D01*
X76736946Y-35139425D01*
X76732535Y-35139741D01*
X76728211Y-35140681D01*
X76728201Y-35140683D01*
X76474840Y-35195799D01*
X76474837Y-35195799D01*
X76470515Y-35196740D01*
X76466379Y-35198282D01*
X76466371Y-35198285D01*
X76223423Y-35288901D01*
X76223417Y-35288903D01*
X76219274Y-35290449D01*
X76215396Y-35292566D01*
X76215384Y-35292572D01*
X75987819Y-35416831D01*
X75987805Y-35416839D01*
X75983926Y-35418958D01*
X75980380Y-35421611D01*
X75980376Y-35421615D01*
X75772805Y-35577000D01*
X75772792Y-35577010D01*
X75769263Y-35579653D01*
X75766137Y-35582778D01*
X75766130Y-35582785D01*
X75582785Y-35766130D01*
X75582778Y-35766137D01*
X75579653Y-35769263D01*
X75577010Y-35772792D01*
X75577000Y-35772805D01*
X75421615Y-35980376D01*
X75421611Y-35980380D01*
X75418958Y-35983926D01*
X75416839Y-35987805D01*
X75416831Y-35987819D01*
X75292572Y-36215384D01*
X75292566Y-36215396D01*
X75290449Y-36219274D01*
X75288903Y-36223417D01*
X75288901Y-36223423D01*
X75198285Y-36466371D01*
X75198282Y-36466379D01*
X75196740Y-36470515D01*
X75195799Y-36474837D01*
X75195799Y-36474840D01*
X75140683Y-36728201D01*
X75140681Y-36728211D01*
X75139741Y-36732535D01*
X75139425Y-36736946D01*
X75139424Y-36736957D01*
X75121561Y-36986727D01*
X75120612Y-37000000D01*
X4879388Y-37000000D01*
X4860259Y-36732535D01*
X4803260Y-36470515D01*
X4709551Y-36219274D01*
X4693400Y-36189695D01*
X4583168Y-35987819D01*
X4583166Y-35987816D01*
X4581042Y-35983926D01*
X4495587Y-35869772D01*
X4441918Y-35798078D01*
X9459100Y-35798078D01*
X9459101Y-35801208D01*
X9459420Y-35804340D01*
X9459421Y-35804341D01*
X9468912Y-35897261D01*
X9468913Y-35897269D01*
X9469601Y-35903997D01*
X9471729Y-35910419D01*
X9471730Y-35910423D01*
X9509989Y-36025880D01*
X9524786Y-36070534D01*
X9528577Y-36076680D01*
X9613097Y-36213711D01*
X9613100Y-36213715D01*
X9616888Y-36219856D01*
X9740944Y-36343912D01*
X9747085Y-36347700D01*
X9747088Y-36347702D01*
X9772265Y-36363231D01*
X9890266Y-36436014D01*
X10056803Y-36491199D01*
X10159591Y-36501700D01*
X11459608Y-36501699D01*
X11562397Y-36491199D01*
X11728934Y-36436014D01*
X11878256Y-36343912D01*
X12002312Y-36219856D01*
X12094414Y-36070534D01*
X12095298Y-36071079D01*
X12127262Y-36031246D01*
X12181218Y-36007500D01*
X12240041Y-36011353D01*
X12290438Y-36041934D01*
X12438199Y-36189695D01*
X12442631Y-36192798D01*
X12442633Y-36192800D01*
X12554780Y-36271326D01*
X12631770Y-36325235D01*
X12636670Y-36327520D01*
X12636672Y-36327521D01*
X12646318Y-36332019D01*
X12845937Y-36425103D01*
X12851167Y-36426504D01*
X12851169Y-36426505D01*
X12886359Y-36435934D01*
X13074192Y-36486263D01*
X13309600Y-36506859D01*
X13545008Y-36486263D01*
X13773263Y-36425103D01*
X13987429Y-36325235D01*
X14181001Y-36189695D01*
X14278918Y-36091778D01*
X18570300Y-36091778D01*
X18570301Y-36095072D01*
X18570653Y-36098350D01*
X18570654Y-36098361D01*
X18575879Y-36146968D01*
X18575880Y-36146973D01*
X18576709Y-36154683D01*
X18579419Y-36161949D01*
X18579420Y-36161953D01*
X18598725Y-36213711D01*
X18627004Y-36289531D01*
X18632318Y-36296630D01*
X18632319Y-36296631D01*
X18695793Y-36381422D01*
X18713254Y-36404746D01*
X18828469Y-36490996D01*
X18963317Y-36541291D01*
X19022927Y-36547700D01*
X21718672Y-36547699D01*
X21778283Y-36541291D01*
X21913131Y-36490996D01*
X22028346Y-36404746D01*
X22114596Y-36289531D01*
X22153378Y-36185550D01*
X24369404Y-36185550D01*
X24376950Y-36193608D01*
X24544441Y-36307801D01*
X24552462Y-36312432D01*
X24787162Y-36425458D01*
X24795773Y-36428838D01*
X25044708Y-36505624D01*
X25053724Y-36507682D01*
X25311323Y-36546508D01*
X25320546Y-36547200D01*
X25581054Y-36547200D01*
X25590276Y-36546508D01*
X25847875Y-36507682D01*
X25856891Y-36505624D01*
X26105827Y-36428837D01*
X26114437Y-36425458D01*
X26349140Y-36312431D01*
X26357159Y-36307801D01*
X26524646Y-36193609D01*
X26532194Y-36185550D01*
X26526277Y-36176230D01*
X26492625Y-36142578D01*
X32032300Y-36142578D01*
X32032301Y-36145872D01*
X32032653Y-36149150D01*
X32032654Y-36149161D01*
X32037879Y-36197768D01*
X32037880Y-36197773D01*
X32038709Y-36205483D01*
X32041419Y-36212749D01*
X32041420Y-36212753D01*
X32053227Y-36244408D01*
X32089004Y-36340331D01*
X32094318Y-36347430D01*
X32094319Y-36347431D01*
X32157793Y-36432222D01*
X32175254Y-36455546D01*
X32290469Y-36541796D01*
X32425317Y-36592091D01*
X32484927Y-36598500D01*
X35180672Y-36598499D01*
X35240283Y-36592091D01*
X35375131Y-36541796D01*
X35490346Y-36455546D01*
X35576596Y-36340331D01*
X35615378Y-36236350D01*
X37831404Y-36236350D01*
X37838950Y-36244408D01*
X38006441Y-36358601D01*
X38014462Y-36363232D01*
X38249162Y-36476258D01*
X38257773Y-36479638D01*
X38506708Y-36556424D01*
X38515724Y-36558482D01*
X38773323Y-36597308D01*
X38782546Y-36598000D01*
X39043054Y-36598000D01*
X39052276Y-36597308D01*
X39309875Y-36558482D01*
X39318891Y-36556424D01*
X39567827Y-36479637D01*
X39576437Y-36476258D01*
X39811140Y-36363231D01*
X39819159Y-36358601D01*
X39986646Y-36244409D01*
X39994194Y-36236350D01*
X39988277Y-36227030D01*
X39903825Y-36142578D01*
X44681500Y-36142578D01*
X44681501Y-36145872D01*
X44681853Y-36149150D01*
X44681854Y-36149161D01*
X44687079Y-36197768D01*
X44687080Y-36197773D01*
X44687909Y-36205483D01*
X44690619Y-36212749D01*
X44690620Y-36212753D01*
X44702427Y-36244408D01*
X44738204Y-36340331D01*
X44743518Y-36347430D01*
X44743519Y-36347431D01*
X44806993Y-36432222D01*
X44824454Y-36455546D01*
X44939669Y-36541796D01*
X45074517Y-36592091D01*
X45134127Y-36598500D01*
X47829872Y-36598499D01*
X47889483Y-36592091D01*
X48024331Y-36541796D01*
X48139546Y-36455546D01*
X48225796Y-36340331D01*
X48264578Y-36236350D01*
X50480604Y-36236350D01*
X50488150Y-36244408D01*
X50655641Y-36358601D01*
X50663662Y-36363232D01*
X50898362Y-36476258D01*
X50906973Y-36479638D01*
X51155908Y-36556424D01*
X51164924Y-36558482D01*
X51422523Y-36597308D01*
X51431746Y-36598000D01*
X51692254Y-36598000D01*
X51701476Y-36597308D01*
X51959075Y-36558482D01*
X51968091Y-36556424D01*
X52217027Y-36479637D01*
X52225637Y-36476258D01*
X52460340Y-36363231D01*
X52468359Y-36358601D01*
X52635846Y-36244409D01*
X52643394Y-36236350D01*
X52637477Y-36227030D01*
X51573542Y-35163095D01*
X51561999Y-35156431D01*
X51550457Y-35163095D01*
X50486521Y-36227030D01*
X50480604Y-36236350D01*
X48264578Y-36236350D01*
X48276091Y-36205483D01*
X48282500Y-36145873D01*
X48282500Y-34802630D01*
X49757300Y-34802630D01*
X49776767Y-35062399D01*
X49778146Y-35071552D01*
X49836111Y-35325515D01*
X49838844Y-35334375D01*
X49934011Y-35576856D01*
X49938030Y-35585202D01*
X50068278Y-35810798D01*
X50073496Y-35818450D01*
X50113379Y-35868462D01*
X50124615Y-35876435D01*
X50136674Y-35869771D01*
X51196904Y-34809542D01*
X51203568Y-34798000D01*
X51920431Y-34798000D01*
X51927095Y-34809542D01*
X52987325Y-35869772D01*
X52999382Y-35876436D01*
X53010619Y-35868463D01*
X53050507Y-35818445D01*
X53055719Y-35810800D01*
X53092394Y-35747278D01*
X57272700Y-35747278D01*
X57272701Y-35750408D01*
X57273020Y-35753540D01*
X57273021Y-35753541D01*
X57282512Y-35846461D01*
X57282513Y-35846469D01*
X57283201Y-35853197D01*
X57285329Y-35859619D01*
X57285330Y-35859623D01*
X57323771Y-35975630D01*
X57338386Y-36019734D01*
X57342177Y-36025880D01*
X57426697Y-36162911D01*
X57426700Y-36162915D01*
X57430488Y-36169056D01*
X57554544Y-36293112D01*
X57560685Y-36296900D01*
X57560688Y-36296902D01*
X57585865Y-36312431D01*
X57703866Y-36385214D01*
X57870403Y-36440399D01*
X57973191Y-36450900D01*
X59273208Y-36450899D01*
X59375997Y-36440399D01*
X59542534Y-36385214D01*
X59691856Y-36293112D01*
X59815912Y-36169056D01*
X59908014Y-36019734D01*
X59908898Y-36020279D01*
X59940862Y-35980446D01*
X59994818Y-35956700D01*
X60053641Y-35960553D01*
X60104038Y-35991134D01*
X60251799Y-36138895D01*
X60256231Y-36141998D01*
X60256233Y-36142000D01*
X60366592Y-36219274D01*
X60445370Y-36274435D01*
X60450270Y-36276720D01*
X60450272Y-36276721D01*
X60459918Y-36281219D01*
X60659537Y-36374303D01*
X60887792Y-36435463D01*
X61113179Y-36455182D01*
X61117336Y-36455546D01*
X61123200Y-36456059D01*
X61129064Y-36455546D01*
X61132620Y-36455234D01*
X61358608Y-36435463D01*
X61586863Y-36374303D01*
X61801029Y-36274435D01*
X61994601Y-36138895D01*
X62161695Y-35971801D01*
X62297235Y-35778229D01*
X62311668Y-35747278D01*
X66772300Y-35747278D01*
X66772301Y-35750408D01*
X66772620Y-35753540D01*
X66772621Y-35753541D01*
X66782112Y-35846461D01*
X66782113Y-35846469D01*
X66782801Y-35853197D01*
X66784929Y-35859619D01*
X66784930Y-35859623D01*
X66823371Y-35975630D01*
X66837986Y-36019734D01*
X66841777Y-36025880D01*
X66926297Y-36162911D01*
X66926300Y-36162915D01*
X66930088Y-36169056D01*
X67054144Y-36293112D01*
X67060285Y-36296900D01*
X67060288Y-36296902D01*
X67085465Y-36312431D01*
X67203466Y-36385214D01*
X67370003Y-36440399D01*
X67472791Y-36450900D01*
X68772808Y-36450899D01*
X68875597Y-36440399D01*
X69042134Y-36385214D01*
X69191456Y-36293112D01*
X69315512Y-36169056D01*
X69407614Y-36019734D01*
X69408498Y-36020279D01*
X69440462Y-35980446D01*
X69494418Y-35956700D01*
X69553241Y-35960553D01*
X69603638Y-35991134D01*
X69751399Y-36138895D01*
X69755831Y-36141998D01*
X69755833Y-36142000D01*
X69866192Y-36219274D01*
X69944970Y-36274435D01*
X69949870Y-36276720D01*
X69949872Y-36276721D01*
X69959518Y-36281219D01*
X70159137Y-36374303D01*
X70387392Y-36435463D01*
X70612779Y-36455182D01*
X70616936Y-36455546D01*
X70622800Y-36456059D01*
X70628664Y-36455546D01*
X70632220Y-36455234D01*
X70858208Y-36435463D01*
X71086463Y-36374303D01*
X71300629Y-36274435D01*
X71494201Y-36138895D01*
X71661295Y-35971801D01*
X71796835Y-35778229D01*
X71896703Y-35564063D01*
X71957863Y-35335808D01*
X71973300Y-35159366D01*
X71973300Y-34741434D01*
X71957863Y-34564992D01*
X71896703Y-34336737D01*
X71796835Y-34122571D01*
X71661295Y-33928999D01*
X71494201Y-33761905D01*
X71489770Y-33758802D01*
X71489766Y-33758799D01*
X71305059Y-33629466D01*
X71305057Y-33629464D01*
X71300630Y-33626365D01*
X71295733Y-33624081D01*
X71295727Y-33624078D01*
X71091372Y-33528786D01*
X71091370Y-33528785D01*
X71086463Y-33526497D01*
X71081238Y-33525097D01*
X71081230Y-33525094D01*
X70863434Y-33466737D01*
X70863430Y-33466736D01*
X70858208Y-33465337D01*
X70852820Y-33464865D01*
X70852817Y-33464865D01*
X70628195Y-33445213D01*
X70622800Y-33444741D01*
X70617405Y-33445213D01*
X70392782Y-33464865D01*
X70392777Y-33464865D01*
X70387392Y-33465337D01*
X70382171Y-33466735D01*
X70382165Y-33466737D01*
X70164369Y-33525094D01*
X70164357Y-33525098D01*
X70159137Y-33526497D01*
X70154232Y-33528783D01*
X70154227Y-33528786D01*
X69949881Y-33624075D01*
X69949877Y-33624077D01*
X69944971Y-33626365D01*
X69940538Y-33629468D01*
X69940531Y-33629473D01*
X69755834Y-33758799D01*
X69755829Y-33758802D01*
X69751399Y-33761905D01*
X69747575Y-33765728D01*
X69747575Y-33765729D01*
X69603638Y-33909666D01*
X69553243Y-33940245D01*
X69494421Y-33944100D01*
X69440467Y-33920357D01*
X69408497Y-33880520D01*
X69407614Y-33881066D01*
X69319302Y-33737888D01*
X69319300Y-33737885D01*
X69315512Y-33731744D01*
X69191456Y-33607688D01*
X69185315Y-33603900D01*
X69185311Y-33603897D01*
X69048280Y-33519377D01*
X69042134Y-33515586D01*
X68981642Y-33495541D01*
X68882025Y-33462531D01*
X68882024Y-33462530D01*
X68875597Y-33460401D01*
X68868864Y-33459713D01*
X68868859Y-33459712D01*
X68775940Y-33450219D01*
X68775923Y-33450218D01*
X68772809Y-33449900D01*
X68769660Y-33449900D01*
X67475940Y-33449900D01*
X67475920Y-33449900D01*
X67472792Y-33449901D01*
X67469660Y-33450220D01*
X67469658Y-33450221D01*
X67376738Y-33459712D01*
X67376728Y-33459713D01*
X67370003Y-33460401D01*
X67363581Y-33462528D01*
X67363576Y-33462530D01*
X67210321Y-33513314D01*
X67210317Y-33513315D01*
X67203466Y-33515586D01*
X67197322Y-33519375D01*
X67197319Y-33519377D01*
X67060288Y-33603897D01*
X67060280Y-33603903D01*
X67054144Y-33607688D01*
X67049042Y-33612789D01*
X67049038Y-33612793D01*
X66935193Y-33726638D01*
X66935189Y-33726642D01*
X66930088Y-33731744D01*
X66926303Y-33737880D01*
X66926297Y-33737888D01*
X66841777Y-33874919D01*
X66837986Y-33881066D01*
X66835715Y-33887917D01*
X66835714Y-33887921D01*
X66784931Y-34041174D01*
X66782801Y-34047603D01*
X66782113Y-34054333D01*
X66782112Y-34054340D01*
X66772619Y-34147259D01*
X66772618Y-34147277D01*
X66772300Y-34150391D01*
X66772300Y-34153538D01*
X66772300Y-34153539D01*
X66772300Y-35747259D01*
X66772300Y-35747278D01*
X62311668Y-35747278D01*
X62397103Y-35564063D01*
X62458263Y-35335808D01*
X62473700Y-35159366D01*
X62473700Y-34741434D01*
X62458263Y-34564992D01*
X62397103Y-34336737D01*
X62297235Y-34122571D01*
X62161695Y-33928999D01*
X61994601Y-33761905D01*
X61990170Y-33758802D01*
X61990166Y-33758799D01*
X61805459Y-33629466D01*
X61805457Y-33629464D01*
X61801030Y-33626365D01*
X61796133Y-33624081D01*
X61796127Y-33624078D01*
X61591772Y-33528786D01*
X61591770Y-33528785D01*
X61586863Y-33526497D01*
X61581638Y-33525097D01*
X61581630Y-33525094D01*
X61363834Y-33466737D01*
X61363830Y-33466736D01*
X61358608Y-33465337D01*
X61353220Y-33464865D01*
X61353217Y-33464865D01*
X61128595Y-33445213D01*
X61123200Y-33444741D01*
X61117805Y-33445213D01*
X60893182Y-33464865D01*
X60893177Y-33464865D01*
X60887792Y-33465337D01*
X60882571Y-33466735D01*
X60882565Y-33466737D01*
X60664769Y-33525094D01*
X60664757Y-33525098D01*
X60659537Y-33526497D01*
X60654632Y-33528783D01*
X60654627Y-33528786D01*
X60450281Y-33624075D01*
X60450277Y-33624077D01*
X60445371Y-33626365D01*
X60440938Y-33629468D01*
X60440931Y-33629473D01*
X60256234Y-33758799D01*
X60256229Y-33758802D01*
X60251799Y-33761905D01*
X60247975Y-33765728D01*
X60247975Y-33765729D01*
X60104038Y-33909666D01*
X60053643Y-33940245D01*
X59994821Y-33944100D01*
X59940867Y-33920357D01*
X59908897Y-33880520D01*
X59908014Y-33881066D01*
X59819702Y-33737888D01*
X59819700Y-33737885D01*
X59815912Y-33731744D01*
X59691856Y-33607688D01*
X59685715Y-33603900D01*
X59685711Y-33603897D01*
X59548680Y-33519377D01*
X59542534Y-33515586D01*
X59482042Y-33495541D01*
X59382425Y-33462531D01*
X59382424Y-33462530D01*
X59375997Y-33460401D01*
X59369264Y-33459713D01*
X59369259Y-33459712D01*
X59276340Y-33450219D01*
X59276323Y-33450218D01*
X59273209Y-33449900D01*
X59270060Y-33449900D01*
X57976340Y-33449900D01*
X57976320Y-33449900D01*
X57973192Y-33449901D01*
X57970060Y-33450220D01*
X57970058Y-33450221D01*
X57877138Y-33459712D01*
X57877128Y-33459713D01*
X57870403Y-33460401D01*
X57863981Y-33462528D01*
X57863976Y-33462530D01*
X57710721Y-33513314D01*
X57710717Y-33513315D01*
X57703866Y-33515586D01*
X57697722Y-33519375D01*
X57697719Y-33519377D01*
X57560688Y-33603897D01*
X57560680Y-33603903D01*
X57554544Y-33607688D01*
X57549442Y-33612789D01*
X57549438Y-33612793D01*
X57435593Y-33726638D01*
X57435589Y-33726642D01*
X57430488Y-33731744D01*
X57426703Y-33737880D01*
X57426697Y-33737888D01*
X57342177Y-33874919D01*
X57338386Y-33881066D01*
X57336115Y-33887917D01*
X57336114Y-33887921D01*
X57285331Y-34041174D01*
X57283201Y-34047603D01*
X57282513Y-34054333D01*
X57282512Y-34054340D01*
X57273019Y-34147259D01*
X57273018Y-34147277D01*
X57272700Y-34150391D01*
X57272700Y-34153538D01*
X57272700Y-34153539D01*
X57272700Y-35747259D01*
X57272700Y-35747278D01*
X53092394Y-35747278D01*
X53185969Y-35585202D01*
X53189988Y-35576856D01*
X53285155Y-35334375D01*
X53287888Y-35325515D01*
X53345853Y-35071552D01*
X53347232Y-35062399D01*
X53366700Y-34802630D01*
X53366700Y-34793370D01*
X53347232Y-34533600D01*
X53345853Y-34524447D01*
X53287888Y-34270484D01*
X53285155Y-34261624D01*
X53189988Y-34019143D01*
X53185969Y-34010797D01*
X53055721Y-33785201D01*
X53050503Y-33777549D01*
X53010619Y-33727536D01*
X52999382Y-33719562D01*
X52987325Y-33726226D01*
X51927095Y-34786457D01*
X51920431Y-34798000D01*
X51203568Y-34798000D01*
X51196904Y-34786457D01*
X50136674Y-33726227D01*
X50124615Y-33719562D01*
X50113380Y-33727534D01*
X50073488Y-33777558D01*
X50068282Y-33785195D01*
X49938030Y-34010797D01*
X49934011Y-34019143D01*
X49838844Y-34261624D01*
X49836111Y-34270484D01*
X49778146Y-34524447D01*
X49776767Y-34533600D01*
X49757300Y-34793370D01*
X49757300Y-34802630D01*
X48282500Y-34802630D01*
X48282499Y-33450128D01*
X48276091Y-33390517D01*
X48264578Y-33359648D01*
X50480603Y-33359648D01*
X50486519Y-33368966D01*
X51550457Y-34432904D01*
X51562000Y-34439568D01*
X51573542Y-34432904D01*
X52637477Y-33368968D01*
X52643394Y-33359648D01*
X52635846Y-33351589D01*
X52468360Y-33237398D01*
X52460340Y-33232768D01*
X52225637Y-33119741D01*
X52217027Y-33116362D01*
X51968091Y-33039575D01*
X51959075Y-33037517D01*
X51701476Y-32998691D01*
X51692254Y-32998000D01*
X51431746Y-32998000D01*
X51422523Y-32998691D01*
X51164924Y-33037517D01*
X51155908Y-33039575D01*
X50906973Y-33116361D01*
X50898362Y-33119741D01*
X50663660Y-33232768D01*
X50655639Y-33237399D01*
X50488151Y-33351590D01*
X50480603Y-33359648D01*
X48264578Y-33359648D01*
X48225796Y-33255669D01*
X48139546Y-33140454D01*
X48024331Y-33054204D01*
X47953965Y-33027959D01*
X47896752Y-33006620D01*
X47896750Y-33006619D01*
X47889483Y-33003909D01*
X47881770Y-33003079D01*
X47881767Y-33003079D01*
X47833180Y-32997855D01*
X47833169Y-32997854D01*
X47829873Y-32997500D01*
X47826550Y-32997500D01*
X45137439Y-32997500D01*
X45137420Y-32997500D01*
X45134128Y-32997501D01*
X45130850Y-32997853D01*
X45130838Y-32997854D01*
X45082231Y-33003079D01*
X45082225Y-33003080D01*
X45074517Y-33003909D01*
X45067252Y-33006618D01*
X45067246Y-33006620D01*
X44947980Y-33051104D01*
X44947978Y-33051104D01*
X44939669Y-33054204D01*
X44932572Y-33059516D01*
X44932568Y-33059519D01*
X44831550Y-33135141D01*
X44831546Y-33135144D01*
X44824454Y-33140454D01*
X44819144Y-33147546D01*
X44819141Y-33147550D01*
X44743519Y-33248568D01*
X44743516Y-33248572D01*
X44738204Y-33255669D01*
X44735104Y-33263978D01*
X44735104Y-33263980D01*
X44690620Y-33383247D01*
X44690619Y-33383250D01*
X44687909Y-33390517D01*
X44687079Y-33398227D01*
X44687079Y-33398232D01*
X44681855Y-33446819D01*
X44681854Y-33446831D01*
X44681500Y-33450127D01*
X44681500Y-33453448D01*
X44681500Y-33453449D01*
X44681500Y-36142560D01*
X44681500Y-36142578D01*
X39903825Y-36142578D01*
X38924342Y-35163095D01*
X38912799Y-35156431D01*
X38901257Y-35163095D01*
X37837321Y-36227030D01*
X37831404Y-36236350D01*
X35615378Y-36236350D01*
X35626891Y-36205483D01*
X35633300Y-36145873D01*
X35633300Y-34802630D01*
X37108100Y-34802630D01*
X37127567Y-35062399D01*
X37128946Y-35071552D01*
X37186911Y-35325515D01*
X37189644Y-35334375D01*
X37284811Y-35576856D01*
X37288830Y-35585202D01*
X37419078Y-35810798D01*
X37424296Y-35818450D01*
X37464179Y-35868462D01*
X37475415Y-35876435D01*
X37487474Y-35869771D01*
X38547704Y-34809542D01*
X38554368Y-34798000D01*
X39271231Y-34798000D01*
X39277895Y-34809542D01*
X40338125Y-35869772D01*
X40350182Y-35876436D01*
X40361419Y-35868463D01*
X40401307Y-35818445D01*
X40406519Y-35810800D01*
X40536769Y-35585202D01*
X40540788Y-35576856D01*
X40635955Y-35334375D01*
X40638688Y-35325515D01*
X40696653Y-35071552D01*
X40698032Y-35062399D01*
X40717500Y-34802630D01*
X40717500Y-34793370D01*
X40698032Y-34533600D01*
X40696653Y-34524447D01*
X40638688Y-34270484D01*
X40635955Y-34261624D01*
X40540788Y-34019143D01*
X40536769Y-34010797D01*
X40406521Y-33785201D01*
X40401303Y-33777549D01*
X40361419Y-33727536D01*
X40350182Y-33719562D01*
X40338125Y-33726226D01*
X39277895Y-34786457D01*
X39271231Y-34798000D01*
X38554368Y-34798000D01*
X38547704Y-34786457D01*
X37487474Y-33726227D01*
X37475415Y-33719562D01*
X37464180Y-33727534D01*
X37424288Y-33777558D01*
X37419082Y-33785195D01*
X37288830Y-34010797D01*
X37284811Y-34019143D01*
X37189644Y-34261624D01*
X37186911Y-34270484D01*
X37128946Y-34524447D01*
X37127567Y-34533600D01*
X37108100Y-34793370D01*
X37108100Y-34802630D01*
X35633300Y-34802630D01*
X35633299Y-33450128D01*
X35626891Y-33390517D01*
X35615378Y-33359648D01*
X37831403Y-33359648D01*
X37837319Y-33368966D01*
X38901257Y-34432904D01*
X38912800Y-34439568D01*
X38924342Y-34432904D01*
X39988277Y-33368968D01*
X39994194Y-33359648D01*
X39986646Y-33351589D01*
X39819160Y-33237398D01*
X39811140Y-33232768D01*
X39576437Y-33119741D01*
X39567827Y-33116362D01*
X39318891Y-33039575D01*
X39309875Y-33037517D01*
X39052276Y-32998691D01*
X39043054Y-32998000D01*
X38782546Y-32998000D01*
X38773323Y-32998691D01*
X38515724Y-33037517D01*
X38506708Y-33039575D01*
X38257773Y-33116361D01*
X38249162Y-33119741D01*
X38014460Y-33232768D01*
X38006439Y-33237399D01*
X37838951Y-33351590D01*
X37831403Y-33359648D01*
X35615378Y-33359648D01*
X35576596Y-33255669D01*
X35490346Y-33140454D01*
X35375131Y-33054204D01*
X35304765Y-33027959D01*
X35247552Y-33006620D01*
X35247550Y-33006619D01*
X35240283Y-33003909D01*
X35232570Y-33003079D01*
X35232567Y-33003079D01*
X35183980Y-32997855D01*
X35183969Y-32997854D01*
X35180673Y-32997500D01*
X35177350Y-32997500D01*
X32488239Y-32997500D01*
X32488220Y-32997500D01*
X32484928Y-32997501D01*
X32481650Y-32997853D01*
X32481638Y-32997854D01*
X32433031Y-33003079D01*
X32433025Y-33003080D01*
X32425317Y-33003909D01*
X32418052Y-33006618D01*
X32418046Y-33006620D01*
X32298780Y-33051104D01*
X32298778Y-33051104D01*
X32290469Y-33054204D01*
X32283372Y-33059516D01*
X32283368Y-33059519D01*
X32182350Y-33135141D01*
X32182346Y-33135144D01*
X32175254Y-33140454D01*
X32169944Y-33147546D01*
X32169941Y-33147550D01*
X32094319Y-33248568D01*
X32094316Y-33248572D01*
X32089004Y-33255669D01*
X32085904Y-33263978D01*
X32085904Y-33263980D01*
X32041420Y-33383247D01*
X32041419Y-33383250D01*
X32038709Y-33390517D01*
X32037879Y-33398227D01*
X32037879Y-33398232D01*
X32032655Y-33446819D01*
X32032654Y-33446831D01*
X32032300Y-33450127D01*
X32032300Y-33453448D01*
X32032300Y-33453449D01*
X32032300Y-36142560D01*
X32032300Y-36142578D01*
X26492625Y-36142578D01*
X25462342Y-35112295D01*
X25450800Y-35105631D01*
X25439257Y-35112295D01*
X24375321Y-36176230D01*
X24369404Y-36185550D01*
X22153378Y-36185550D01*
X22164891Y-36154683D01*
X22171300Y-36095073D01*
X22171300Y-34751830D01*
X23646100Y-34751830D01*
X23665567Y-35011599D01*
X23666946Y-35020752D01*
X23724911Y-35274715D01*
X23727644Y-35283575D01*
X23822811Y-35526056D01*
X23826830Y-35534402D01*
X23957078Y-35759998D01*
X23962296Y-35767650D01*
X24002179Y-35817662D01*
X24013415Y-35825635D01*
X24025474Y-35818971D01*
X25085704Y-34758742D01*
X25092368Y-34747200D01*
X25809231Y-34747200D01*
X25815895Y-34758742D01*
X26876125Y-35818972D01*
X26888182Y-35825636D01*
X26899419Y-35817663D01*
X26939307Y-35767645D01*
X26944519Y-35760000D01*
X27074769Y-35534402D01*
X27078788Y-35526056D01*
X27173955Y-35283575D01*
X27176688Y-35274715D01*
X27234653Y-35020752D01*
X27236032Y-35011599D01*
X27255500Y-34751830D01*
X27255500Y-34742570D01*
X27236032Y-34482800D01*
X27234653Y-34473647D01*
X27176688Y-34219684D01*
X27173955Y-34210824D01*
X27078788Y-33968343D01*
X27074769Y-33959997D01*
X26944521Y-33734401D01*
X26939303Y-33726749D01*
X26899419Y-33676736D01*
X26888182Y-33668762D01*
X26876125Y-33675426D01*
X25815895Y-34735657D01*
X25809231Y-34747200D01*
X25092368Y-34747200D01*
X25085704Y-34735657D01*
X24025474Y-33675427D01*
X24013415Y-33668762D01*
X24002180Y-33676734D01*
X23962288Y-33726758D01*
X23957082Y-33734395D01*
X23826830Y-33959997D01*
X23822811Y-33968343D01*
X23727644Y-34210824D01*
X23724911Y-34219684D01*
X23666946Y-34473647D01*
X23665567Y-34482800D01*
X23646100Y-34742570D01*
X23646100Y-34751830D01*
X22171300Y-34751830D01*
X22171299Y-33399328D01*
X22164891Y-33339717D01*
X22153378Y-33308848D01*
X24369403Y-33308848D01*
X24375319Y-33318166D01*
X25439257Y-34382104D01*
X25450800Y-34388768D01*
X25462342Y-34382104D01*
X26526277Y-33318168D01*
X26532194Y-33308848D01*
X26524646Y-33300789D01*
X26357160Y-33186598D01*
X26349140Y-33181968D01*
X26114437Y-33068941D01*
X26105827Y-33065562D01*
X25856891Y-32988775D01*
X25847875Y-32986717D01*
X25590276Y-32947891D01*
X25581054Y-32947200D01*
X25320546Y-32947200D01*
X25311323Y-32947891D01*
X25053724Y-32986717D01*
X25044708Y-32988775D01*
X24795773Y-33065561D01*
X24787162Y-33068941D01*
X24552460Y-33181968D01*
X24544439Y-33186599D01*
X24376951Y-33300790D01*
X24369403Y-33308848D01*
X22153378Y-33308848D01*
X22114596Y-33204869D01*
X22028346Y-33089654D01*
X21913131Y-33003404D01*
X21778283Y-32953109D01*
X21770570Y-32952279D01*
X21770567Y-32952279D01*
X21721980Y-32947055D01*
X21721969Y-32947054D01*
X21718673Y-32946700D01*
X21715350Y-32946700D01*
X19026239Y-32946700D01*
X19026220Y-32946700D01*
X19022928Y-32946701D01*
X19019650Y-32947053D01*
X19019638Y-32947054D01*
X18971031Y-32952279D01*
X18971025Y-32952280D01*
X18963317Y-32953109D01*
X18956052Y-32955818D01*
X18956046Y-32955820D01*
X18836780Y-33000304D01*
X18836778Y-33000304D01*
X18828469Y-33003404D01*
X18821372Y-33008716D01*
X18821368Y-33008719D01*
X18720350Y-33084341D01*
X18720346Y-33084344D01*
X18713254Y-33089654D01*
X18707944Y-33096746D01*
X18707941Y-33096750D01*
X18632319Y-33197768D01*
X18632316Y-33197772D01*
X18627004Y-33204869D01*
X18623904Y-33213178D01*
X18623904Y-33213180D01*
X18579420Y-33332447D01*
X18579419Y-33332450D01*
X18576709Y-33339717D01*
X18575879Y-33347427D01*
X18575879Y-33347432D01*
X18570655Y-33396019D01*
X18570654Y-33396031D01*
X18570300Y-33399327D01*
X18570300Y-33402648D01*
X18570300Y-33402649D01*
X18570300Y-36091760D01*
X18570300Y-36091778D01*
X14278918Y-36091778D01*
X14348095Y-36022601D01*
X14483635Y-35829029D01*
X14583503Y-35614863D01*
X14644663Y-35386608D01*
X14660100Y-35210166D01*
X14660100Y-34792234D01*
X14644663Y-34615792D01*
X14583503Y-34387537D01*
X14483635Y-34173371D01*
X14348095Y-33979799D01*
X14181001Y-33812705D01*
X14176570Y-33809602D01*
X14176566Y-33809599D01*
X13991859Y-33680266D01*
X13991857Y-33680264D01*
X13987430Y-33677165D01*
X13982533Y-33674881D01*
X13982527Y-33674878D01*
X13778172Y-33579586D01*
X13778170Y-33579585D01*
X13773263Y-33577297D01*
X13768038Y-33575897D01*
X13768030Y-33575894D01*
X13550234Y-33517537D01*
X13550230Y-33517536D01*
X13545008Y-33516137D01*
X13539620Y-33515665D01*
X13539617Y-33515665D01*
X13314995Y-33496013D01*
X13309600Y-33495541D01*
X13304205Y-33496013D01*
X13079582Y-33515665D01*
X13079577Y-33515665D01*
X13074192Y-33516137D01*
X13068971Y-33517535D01*
X13068965Y-33517537D01*
X12851169Y-33575894D01*
X12851157Y-33575898D01*
X12845937Y-33577297D01*
X12841032Y-33579583D01*
X12841027Y-33579586D01*
X12636681Y-33674875D01*
X12636677Y-33674877D01*
X12631771Y-33677165D01*
X12627338Y-33680268D01*
X12627331Y-33680273D01*
X12442634Y-33809599D01*
X12442629Y-33809602D01*
X12438199Y-33812705D01*
X12434375Y-33816529D01*
X12290438Y-33960466D01*
X12240043Y-33991045D01*
X12181221Y-33994900D01*
X12127267Y-33971157D01*
X12095297Y-33931320D01*
X12094414Y-33931866D01*
X12006102Y-33788688D01*
X12006100Y-33788685D01*
X12002312Y-33782544D01*
X11878256Y-33658488D01*
X11872115Y-33654700D01*
X11872111Y-33654697D01*
X11735080Y-33570177D01*
X11728934Y-33566386D01*
X11587070Y-33519377D01*
X11568825Y-33513331D01*
X11568824Y-33513330D01*
X11562397Y-33511201D01*
X11555664Y-33510513D01*
X11555659Y-33510512D01*
X11462740Y-33501019D01*
X11462723Y-33501018D01*
X11459609Y-33500700D01*
X11456460Y-33500700D01*
X10162740Y-33500700D01*
X10162720Y-33500700D01*
X10159592Y-33500701D01*
X10156460Y-33501020D01*
X10156458Y-33501021D01*
X10063538Y-33510512D01*
X10063528Y-33510513D01*
X10056803Y-33511201D01*
X10050381Y-33513328D01*
X10050376Y-33513330D01*
X9897121Y-33564114D01*
X9897117Y-33564115D01*
X9890266Y-33566386D01*
X9884122Y-33570175D01*
X9884119Y-33570177D01*
X9747088Y-33654697D01*
X9747080Y-33654703D01*
X9740944Y-33658488D01*
X9735842Y-33663589D01*
X9735838Y-33663593D01*
X9621993Y-33777438D01*
X9621989Y-33777442D01*
X9616888Y-33782544D01*
X9613103Y-33788680D01*
X9613097Y-33788688D01*
X9528577Y-33925719D01*
X9524786Y-33931866D01*
X9522515Y-33938717D01*
X9522514Y-33938721D01*
X9486434Y-34047603D01*
X9469601Y-34098403D01*
X9468913Y-34105133D01*
X9468912Y-34105140D01*
X9459419Y-34198059D01*
X9459418Y-34198077D01*
X9459100Y-34201191D01*
X9459100Y-34204338D01*
X9459100Y-34204339D01*
X9459100Y-35798059D01*
X9459100Y-35798078D01*
X4441918Y-35798078D01*
X4422999Y-35772805D01*
X4422995Y-35772800D01*
X4420347Y-35769263D01*
X4230737Y-35579653D01*
X4227200Y-35577005D01*
X4227194Y-35577000D01*
X4019623Y-35421615D01*
X4016074Y-35418958D01*
X4012187Y-35416835D01*
X4012180Y-35416831D01*
X3784615Y-35292572D01*
X3784608Y-35292569D01*
X3780726Y-35290449D01*
X3776576Y-35288901D01*
X3533628Y-35198285D01*
X3533624Y-35198283D01*
X3529485Y-35196740D01*
X3500140Y-35190356D01*
X3271798Y-35140683D01*
X3271790Y-35140681D01*
X3267465Y-35139741D01*
X3263051Y-35139425D01*
X3263042Y-35139424D01*
X3004418Y-35120928D01*
X3000000Y-35120612D01*
X2995582Y-35120928D01*
X2736957Y-35139424D01*
X2736946Y-35139425D01*
X2732535Y-35139741D01*
X2728211Y-35140681D01*
X2728201Y-35140683D01*
X2474840Y-35195799D01*
X2474837Y-35195799D01*
X2470515Y-35196740D01*
X2466379Y-35198282D01*
X2466371Y-35198285D01*
X2223423Y-35288901D01*
X2223417Y-35288903D01*
X2219274Y-35290449D01*
X2215396Y-35292566D01*
X2215384Y-35292572D01*
X1987819Y-35416831D01*
X1987805Y-35416839D01*
X1983926Y-35418958D01*
X1980380Y-35421611D01*
X1980376Y-35421615D01*
X1772805Y-35577000D01*
X1772792Y-35577010D01*
X1769263Y-35579653D01*
X1766137Y-35582778D01*
X1766130Y-35582785D01*
X1582785Y-35766130D01*
X1582778Y-35766137D01*
X1579653Y-35769263D01*
X1577010Y-35772792D01*
X1577000Y-35772805D01*
X1421615Y-35980376D01*
X1421611Y-35980380D01*
X1418958Y-35983926D01*
X1416839Y-35987805D01*
X1416831Y-35987819D01*
X1292572Y-36215384D01*
X1292566Y-36215396D01*
X1290449Y-36219274D01*
X1288903Y-36223417D01*
X1288901Y-36223423D01*
X1198285Y-36466371D01*
X1198282Y-36466379D01*
X1196740Y-36470515D01*
X1195799Y-36474837D01*
X1195799Y-36474840D01*
X1140683Y-36728201D01*
X1140681Y-36728211D01*
X1139741Y-36732535D01*
X1139425Y-36736946D01*
X1139424Y-36736957D01*
X1121561Y-36986727D01*
X1120612Y-37000000D01*
X406400Y-37000000D01*
X406400Y-26236578D01*
X73180300Y-26236578D01*
X73180301Y-26239872D01*
X73180653Y-26243150D01*
X73180654Y-26243161D01*
X73185879Y-26291768D01*
X73185880Y-26291773D01*
X73186709Y-26299483D01*
X73189419Y-26306749D01*
X73189420Y-26306753D01*
X73223017Y-26396831D01*
X73237004Y-26434331D01*
X73323254Y-26549546D01*
X73438469Y-26635796D01*
X73573317Y-26686091D01*
X73632927Y-26692500D01*
X76328672Y-26692499D01*
X76388283Y-26686091D01*
X76523131Y-26635796D01*
X76638346Y-26549546D01*
X76724596Y-26434331D01*
X76774891Y-26299483D01*
X76781300Y-26239873D01*
X76781299Y-23544128D01*
X76774891Y-23484517D01*
X76724596Y-23349669D01*
X76638346Y-23234454D01*
X76523131Y-23148204D01*
X76388283Y-23097909D01*
X76380570Y-23097079D01*
X76380567Y-23097079D01*
X76331980Y-23091855D01*
X76331969Y-23091854D01*
X76328673Y-23091500D01*
X76325350Y-23091500D01*
X73636239Y-23091500D01*
X73636220Y-23091500D01*
X73632928Y-23091501D01*
X73629650Y-23091853D01*
X73629638Y-23091854D01*
X73581031Y-23097079D01*
X73581025Y-23097080D01*
X73573317Y-23097909D01*
X73566052Y-23100618D01*
X73566046Y-23100620D01*
X73446780Y-23145104D01*
X73446778Y-23145104D01*
X73438469Y-23148204D01*
X73431372Y-23153516D01*
X73431368Y-23153519D01*
X73330350Y-23229141D01*
X73330346Y-23229144D01*
X73323254Y-23234454D01*
X73317944Y-23241546D01*
X73317941Y-23241550D01*
X73242319Y-23342568D01*
X73242316Y-23342572D01*
X73237004Y-23349669D01*
X73233904Y-23357978D01*
X73233904Y-23357980D01*
X73189420Y-23477247D01*
X73189419Y-23477250D01*
X73186709Y-23484517D01*
X73185879Y-23492227D01*
X73185879Y-23492232D01*
X73180655Y-23540819D01*
X73180654Y-23540831D01*
X73180300Y-23544127D01*
X73180300Y-23547448D01*
X73180300Y-23547449D01*
X73180300Y-26236560D01*
X73180300Y-26236578D01*
X406400Y-26236578D01*
X406400Y-25822350D01*
X4455804Y-25822350D01*
X4463350Y-25830408D01*
X4630841Y-25944601D01*
X4638862Y-25949232D01*
X4873562Y-26062258D01*
X4882173Y-26065638D01*
X5131108Y-26142424D01*
X5140124Y-26144482D01*
X5397723Y-26183308D01*
X5406946Y-26184000D01*
X5667454Y-26184000D01*
X5676676Y-26183308D01*
X5934275Y-26144482D01*
X5943291Y-26142424D01*
X6192227Y-26065637D01*
X6200837Y-26062258D01*
X6435540Y-25949231D01*
X6443559Y-25944601D01*
X6611046Y-25830409D01*
X6618594Y-25822350D01*
X6612677Y-25813030D01*
X5548742Y-24749095D01*
X5537200Y-24742431D01*
X5525657Y-24749095D01*
X4461721Y-25813030D01*
X4455804Y-25822350D01*
X406400Y-25822350D01*
X406400Y-24388630D01*
X3732500Y-24388630D01*
X3751967Y-24648399D01*
X3753346Y-24657552D01*
X3811311Y-24911515D01*
X3814044Y-24920375D01*
X3909211Y-25162856D01*
X3913230Y-25171202D01*
X4043478Y-25396798D01*
X4048696Y-25404450D01*
X4088579Y-25454462D01*
X4099815Y-25462435D01*
X4111874Y-25455771D01*
X5172104Y-24395542D01*
X5178768Y-24384000D01*
X5895631Y-24384000D01*
X5902295Y-24395542D01*
X6962525Y-25455772D01*
X6974582Y-25462436D01*
X6985819Y-25454463D01*
X7025707Y-25404445D01*
X7030919Y-25396800D01*
X7161169Y-25171202D01*
X7165188Y-25162856D01*
X7260355Y-24920375D01*
X7263088Y-24911515D01*
X7321053Y-24657552D01*
X7322432Y-24648399D01*
X7341900Y-24388630D01*
X7341900Y-24379370D01*
X7322432Y-24119600D01*
X7321053Y-24110447D01*
X7263088Y-23856484D01*
X7260355Y-23847624D01*
X7165188Y-23605143D01*
X7161169Y-23596797D01*
X7030921Y-23371201D01*
X7025703Y-23363549D01*
X6985819Y-23313536D01*
X6974582Y-23305562D01*
X6962525Y-23312226D01*
X5902295Y-24372457D01*
X5895631Y-24384000D01*
X5178768Y-24384000D01*
X5172104Y-24372457D01*
X4111874Y-23312227D01*
X4099815Y-23305562D01*
X4088580Y-23313534D01*
X4048688Y-23363558D01*
X4043482Y-23371195D01*
X3913230Y-23596797D01*
X3909211Y-23605143D01*
X3814044Y-23847624D01*
X3811311Y-23856484D01*
X3753346Y-24110447D01*
X3751967Y-24119600D01*
X3732500Y-24379370D01*
X3732500Y-24388630D01*
X406400Y-24388630D01*
X406400Y-22945648D01*
X4455803Y-22945648D01*
X4461719Y-22954966D01*
X5525657Y-24018904D01*
X5537200Y-24025568D01*
X5548742Y-24018904D01*
X6612677Y-22954968D01*
X6618594Y-22945648D01*
X6611046Y-22937589D01*
X6443560Y-22823398D01*
X6435540Y-22818768D01*
X6200837Y-22705741D01*
X6192227Y-22702362D01*
X5943291Y-22625575D01*
X5934275Y-22623517D01*
X5676676Y-22584691D01*
X5667454Y-22584000D01*
X5406946Y-22584000D01*
X5397723Y-22584691D01*
X5140124Y-22623517D01*
X5131108Y-22625575D01*
X4882173Y-22702361D01*
X4873562Y-22705741D01*
X4638860Y-22818768D01*
X4630839Y-22823399D01*
X4463351Y-22937590D01*
X4455803Y-22945648D01*
X406400Y-22945648D01*
X406400Y-22336078D01*
X14448300Y-22336078D01*
X14448301Y-22339208D01*
X14448620Y-22342340D01*
X14448621Y-22342341D01*
X14458112Y-22435261D01*
X14458113Y-22435269D01*
X14458801Y-22441997D01*
X14460929Y-22448419D01*
X14460930Y-22448423D01*
X14499371Y-22564430D01*
X14513986Y-22608534D01*
X14517777Y-22614680D01*
X14602297Y-22751711D01*
X14602300Y-22751715D01*
X14606088Y-22757856D01*
X14730144Y-22881912D01*
X14736285Y-22885700D01*
X14736288Y-22885702D01*
X14777183Y-22910926D01*
X14879466Y-22974014D01*
X15046003Y-23029199D01*
X15148791Y-23039700D01*
X16448808Y-23039699D01*
X16551597Y-23029199D01*
X16718134Y-22974014D01*
X16867456Y-22881912D01*
X16991512Y-22757856D01*
X17083614Y-22608534D01*
X17084498Y-22609079D01*
X17116462Y-22569246D01*
X17170418Y-22545500D01*
X17229241Y-22549353D01*
X17279637Y-22579933D01*
X17427399Y-22727695D01*
X17620970Y-22863235D01*
X17625870Y-22865520D01*
X17625872Y-22865521D01*
X17650073Y-22876806D01*
X17835137Y-22963103D01*
X18063392Y-23024263D01*
X18298800Y-23044859D01*
X18534208Y-23024263D01*
X18762463Y-22963103D01*
X18976629Y-22863235D01*
X19170201Y-22727695D01*
X19337295Y-22560601D01*
X19472835Y-22367029D01*
X19487268Y-22336078D01*
X23987900Y-22336078D01*
X23987901Y-22339208D01*
X23988220Y-22342340D01*
X23988221Y-22342341D01*
X23997712Y-22435261D01*
X23997713Y-22435269D01*
X23998401Y-22441997D01*
X24000529Y-22448419D01*
X24000530Y-22448423D01*
X24038971Y-22564430D01*
X24053586Y-22608534D01*
X24057377Y-22614680D01*
X24141897Y-22751711D01*
X24141900Y-22751715D01*
X24145688Y-22757856D01*
X24269744Y-22881912D01*
X24275885Y-22885700D01*
X24275888Y-22885702D01*
X24316783Y-22910926D01*
X24419066Y-22974014D01*
X24585603Y-23029199D01*
X24688391Y-23039700D01*
X25988408Y-23039699D01*
X26091197Y-23029199D01*
X26257734Y-22974014D01*
X26407056Y-22881912D01*
X26531112Y-22757856D01*
X26623214Y-22608534D01*
X26624098Y-22609079D01*
X26656062Y-22569246D01*
X26710018Y-22545500D01*
X26768841Y-22549353D01*
X26819237Y-22579933D01*
X26966999Y-22727695D01*
X27160570Y-22863235D01*
X27165470Y-22865520D01*
X27165472Y-22865521D01*
X27189673Y-22876806D01*
X27374737Y-22963103D01*
X27602992Y-23024263D01*
X27838400Y-23044859D01*
X28073808Y-23024263D01*
X28302063Y-22963103D01*
X28516229Y-22863235D01*
X28709801Y-22727695D01*
X28876895Y-22560601D01*
X29012435Y-22367029D01*
X29026868Y-22336078D01*
X32979500Y-22336078D01*
X32979501Y-22339208D01*
X32979820Y-22342340D01*
X32979821Y-22342341D01*
X32989312Y-22435261D01*
X32989313Y-22435269D01*
X32990001Y-22441997D01*
X32992129Y-22448419D01*
X32992130Y-22448423D01*
X33030571Y-22564430D01*
X33045186Y-22608534D01*
X33048977Y-22614680D01*
X33133497Y-22751711D01*
X33133500Y-22751715D01*
X33137288Y-22757856D01*
X33261344Y-22881912D01*
X33267485Y-22885700D01*
X33267488Y-22885702D01*
X33308383Y-22910926D01*
X33410666Y-22974014D01*
X33577203Y-23029199D01*
X33679991Y-23039700D01*
X34980008Y-23039699D01*
X35082797Y-23029199D01*
X35249334Y-22974014D01*
X35398656Y-22881912D01*
X35522712Y-22757856D01*
X35614814Y-22608534D01*
X35615698Y-22609079D01*
X35647662Y-22569246D01*
X35701618Y-22545500D01*
X35760441Y-22549353D01*
X35810838Y-22579933D01*
X35958599Y-22727695D01*
X36152170Y-22863235D01*
X36157070Y-22865520D01*
X36157072Y-22865521D01*
X36181273Y-22876806D01*
X36366337Y-22963103D01*
X36594592Y-23024263D01*
X36830000Y-23044859D01*
X37065408Y-23024263D01*
X37293663Y-22963103D01*
X37507829Y-22863235D01*
X37701401Y-22727695D01*
X37868495Y-22560601D01*
X38004035Y-22367029D01*
X38018468Y-22336078D01*
X41778700Y-22336078D01*
X41778701Y-22339208D01*
X41779020Y-22342340D01*
X41779021Y-22342341D01*
X41788512Y-22435261D01*
X41788513Y-22435269D01*
X41789201Y-22441997D01*
X41791329Y-22448419D01*
X41791330Y-22448423D01*
X41829771Y-22564430D01*
X41844386Y-22608534D01*
X41848177Y-22614680D01*
X41932697Y-22751711D01*
X41932700Y-22751715D01*
X41936488Y-22757856D01*
X42060544Y-22881912D01*
X42066685Y-22885700D01*
X42066688Y-22885702D01*
X42107583Y-22910926D01*
X42209866Y-22974014D01*
X42376403Y-23029199D01*
X42479191Y-23039700D01*
X43779208Y-23039699D01*
X43881997Y-23029199D01*
X44048534Y-22974014D01*
X44197856Y-22881912D01*
X44321912Y-22757856D01*
X44414014Y-22608534D01*
X44414898Y-22609079D01*
X44446862Y-22569246D01*
X44500818Y-22545500D01*
X44559641Y-22549353D01*
X44610038Y-22579933D01*
X44757799Y-22727695D01*
X44951370Y-22863235D01*
X44956270Y-22865520D01*
X44956272Y-22865521D01*
X44980473Y-22876806D01*
X45165537Y-22963103D01*
X45393792Y-23024263D01*
X45629200Y-23044859D01*
X45864608Y-23024263D01*
X46092863Y-22963103D01*
X46307029Y-22863235D01*
X46500601Y-22727695D01*
X46667695Y-22560601D01*
X46803235Y-22367029D01*
X46903103Y-22152863D01*
X46964263Y-21924608D01*
X46979700Y-21748166D01*
X46979700Y-21330234D01*
X46964263Y-21153792D01*
X46903103Y-20925537D01*
X46803235Y-20711371D01*
X46667695Y-20517799D01*
X46500601Y-20350705D01*
X46496168Y-20347601D01*
X46496161Y-20347595D01*
X46438863Y-20307475D01*
X46398536Y-20260258D01*
X46386156Y-20199410D01*
X46404828Y-20140190D01*
X46449870Y-20097447D01*
X46509986Y-20081900D01*
X49575148Y-20081900D01*
X49622601Y-20091339D01*
X49662829Y-20118219D01*
X50581581Y-21036971D01*
X50608461Y-21077199D01*
X50617900Y-21124652D01*
X50617900Y-22336059D01*
X50617900Y-22336078D01*
X50617901Y-22339208D01*
X50618220Y-22342340D01*
X50618221Y-22342341D01*
X50627712Y-22435261D01*
X50627713Y-22435269D01*
X50628401Y-22441997D01*
X50630529Y-22448419D01*
X50630530Y-22448423D01*
X50668971Y-22564430D01*
X50683586Y-22608534D01*
X50687377Y-22614680D01*
X50771897Y-22751711D01*
X50771900Y-22751715D01*
X50775688Y-22757856D01*
X50899744Y-22881912D01*
X50905885Y-22885700D01*
X50905888Y-22885702D01*
X50946783Y-22910926D01*
X51049066Y-22974014D01*
X51215603Y-23029199D01*
X51318391Y-23039700D01*
X52618408Y-23039699D01*
X52721197Y-23029199D01*
X52887734Y-22974014D01*
X53037056Y-22881912D01*
X53161112Y-22757856D01*
X53253214Y-22608534D01*
X53254098Y-22609079D01*
X53286062Y-22569246D01*
X53340018Y-22545500D01*
X53398841Y-22549353D01*
X53449238Y-22579933D01*
X53596999Y-22727695D01*
X53790570Y-22863235D01*
X53795470Y-22865520D01*
X53795472Y-22865521D01*
X53819673Y-22876806D01*
X54004737Y-22963103D01*
X54232992Y-23024263D01*
X54468400Y-23044859D01*
X54703808Y-23024263D01*
X54932063Y-22963103D01*
X55146229Y-22863235D01*
X55339801Y-22727695D01*
X55506895Y-22560601D01*
X55642435Y-22367029D01*
X55742303Y-22152863D01*
X55803463Y-21924608D01*
X55818900Y-21748166D01*
X55818900Y-21330234D01*
X55803463Y-21153792D01*
X55742303Y-20925537D01*
X55642435Y-20711371D01*
X55506895Y-20517799D01*
X55339801Y-20350705D01*
X55335370Y-20347602D01*
X55335366Y-20347599D01*
X55150659Y-20218266D01*
X55150657Y-20218264D01*
X55146230Y-20215165D01*
X55141333Y-20212881D01*
X55141327Y-20212878D01*
X54936972Y-20117586D01*
X54936970Y-20117585D01*
X54932063Y-20115297D01*
X54926838Y-20113897D01*
X54926830Y-20113894D01*
X54709034Y-20055537D01*
X54709030Y-20055536D01*
X54703808Y-20054137D01*
X54698420Y-20053665D01*
X54698417Y-20053665D01*
X54632384Y-20047888D01*
X54567705Y-20022736D01*
X54526670Y-19966770D01*
X54522131Y-19897521D01*
X54555508Y-19836681D01*
X54629574Y-19762616D01*
X54669801Y-19735739D01*
X54717253Y-19726300D01*
X58058748Y-19726300D01*
X58106201Y-19735739D01*
X58146429Y-19762619D01*
X59471581Y-21087771D01*
X59498461Y-21127999D01*
X59507900Y-21175452D01*
X59507900Y-22386859D01*
X59507900Y-22386878D01*
X59507901Y-22390008D01*
X59508220Y-22393140D01*
X59508221Y-22393141D01*
X59517712Y-22486061D01*
X59517713Y-22486069D01*
X59518401Y-22492797D01*
X59520529Y-22499219D01*
X59520530Y-22499223D01*
X59558789Y-22614680D01*
X59573586Y-22659334D01*
X59577377Y-22665480D01*
X59661897Y-22802511D01*
X59661900Y-22802515D01*
X59665688Y-22808656D01*
X59789744Y-22932712D01*
X59795885Y-22936500D01*
X59795888Y-22936502D01*
X59825827Y-22954968D01*
X59939066Y-23024814D01*
X60105603Y-23079999D01*
X60208391Y-23090500D01*
X61508408Y-23090499D01*
X61611197Y-23079999D01*
X61777734Y-23024814D01*
X61927056Y-22932712D01*
X62051112Y-22808656D01*
X62143214Y-22659334D01*
X62144098Y-22659879D01*
X62176062Y-22620046D01*
X62230018Y-22596300D01*
X62288841Y-22600153D01*
X62339238Y-22630734D01*
X62486999Y-22778495D01*
X62680570Y-22914035D01*
X62685470Y-22916320D01*
X62685472Y-22916321D01*
X62709673Y-22927606D01*
X62894737Y-23013903D01*
X62899967Y-23015304D01*
X62899969Y-23015305D01*
X62935159Y-23024734D01*
X63122992Y-23075063D01*
X63358400Y-23095659D01*
X63593808Y-23075063D01*
X63822063Y-23013903D01*
X64036229Y-22914035D01*
X64229801Y-22778495D01*
X64396895Y-22611401D01*
X64532435Y-22417829D01*
X64632303Y-22203663D01*
X64693463Y-21975408D01*
X64708900Y-21798966D01*
X64708900Y-21381034D01*
X64693463Y-21204592D01*
X64632303Y-20976337D01*
X64532435Y-20762171D01*
X64441725Y-20632623D01*
X64419565Y-20569610D01*
X64433311Y-20504243D01*
X64478972Y-20455491D01*
X64543300Y-20437500D01*
X73207545Y-20437500D01*
X73255711Y-20447237D01*
X73296313Y-20474919D01*
X73322973Y-20516198D01*
X73352359Y-20591073D01*
X73352361Y-20591077D01*
X73354057Y-20595398D01*
X73488985Y-20829102D01*
X73657239Y-21040085D01*
X73726661Y-21104499D01*
X73840344Y-21209982D01*
X73855059Y-21223635D01*
X74078026Y-21375651D01*
X74321159Y-21492738D01*
X74325587Y-21494103D01*
X74325590Y-21494105D01*
X74450093Y-21532508D01*
X74579028Y-21572280D01*
X74845871Y-21612500D01*
X75111092Y-21612500D01*
X75115729Y-21612500D01*
X75382572Y-21572280D01*
X75640441Y-21492738D01*
X75883575Y-21375651D01*
X76106541Y-21223635D01*
X76304361Y-21040085D01*
X76472615Y-20829102D01*
X76607543Y-20595398D01*
X76706134Y-20344195D01*
X76766183Y-20081103D01*
X76786349Y-19812000D01*
X76766183Y-19542897D01*
X76706134Y-19279805D01*
X76607543Y-19028602D01*
X76472615Y-18794898D01*
X76304361Y-18583915D01*
X76190045Y-18477845D01*
X76109946Y-18403524D01*
X76109943Y-18403521D01*
X76106541Y-18400365D01*
X76102712Y-18397754D01*
X76102709Y-18397752D01*
X75887410Y-18250964D01*
X75883575Y-18248349D01*
X75879389Y-18246333D01*
X75644620Y-18133274D01*
X75644614Y-18133271D01*
X75640441Y-18131262D01*
X75636019Y-18129898D01*
X75636009Y-18129894D01*
X75387002Y-18053086D01*
X75386996Y-18053084D01*
X75382572Y-18051720D01*
X75377995Y-18051030D01*
X75377986Y-18051028D01*
X75120314Y-18012191D01*
X75120313Y-18012190D01*
X75115729Y-18011500D01*
X74845871Y-18011500D01*
X74841287Y-18012190D01*
X74841285Y-18012191D01*
X74583613Y-18051028D01*
X74583601Y-18051030D01*
X74579028Y-18051720D01*
X74574606Y-18053083D01*
X74574597Y-18053086D01*
X74325590Y-18129894D01*
X74325575Y-18129899D01*
X74321159Y-18131262D01*
X74316985Y-18133271D01*
X74316980Y-18133274D01*
X74082211Y-18246333D01*
X74082204Y-18246336D01*
X74078026Y-18248349D01*
X74074193Y-18250962D01*
X74074190Y-18250964D01*
X73858890Y-18397752D01*
X73858880Y-18397759D01*
X73855059Y-18400365D01*
X73851663Y-18403516D01*
X73851653Y-18403524D01*
X73660643Y-18580756D01*
X73660639Y-18580759D01*
X73657239Y-18583915D01*
X73654349Y-18587537D01*
X73654346Y-18587542D01*
X73491877Y-18791271D01*
X73488985Y-18794898D01*
X73486666Y-18798913D01*
X73486665Y-18798916D01*
X73356378Y-19024581D01*
X73356375Y-19024586D01*
X73354057Y-19028602D01*
X73352364Y-19032915D01*
X73352359Y-19032926D01*
X73322973Y-19107802D01*
X73296313Y-19149081D01*
X73255711Y-19176763D01*
X73207545Y-19186500D01*
X63170040Y-19186500D01*
X63118294Y-19174077D01*
X63118255Y-19174186D01*
X63117273Y-19173832D01*
X63113747Y-19172986D01*
X63110916Y-19171543D01*
X63110911Y-19171541D01*
X63103965Y-19168002D01*
X63096354Y-19166300D01*
X63096344Y-19166297D01*
X63095976Y-19166215D01*
X63073803Y-19159010D01*
X63073464Y-19158863D01*
X63073457Y-19158861D01*
X63066296Y-19155762D01*
X63048045Y-19152871D01*
X63011518Y-19147086D01*
X63003868Y-19145627D01*
X62957349Y-19135229D01*
X62957345Y-19135228D01*
X62949733Y-19133527D01*
X62941935Y-19133771D01*
X62941928Y-19133771D01*
X62941554Y-19133783D01*
X62918283Y-19132319D01*
X62917911Y-19132260D01*
X62917907Y-19132259D01*
X62910204Y-19131040D01*
X62902446Y-19131773D01*
X62902437Y-19131773D01*
X62854994Y-19136258D01*
X62847222Y-19136747D01*
X62799569Y-19138244D01*
X62799561Y-19138245D01*
X62791773Y-19138490D01*
X62784288Y-19140664D01*
X62784277Y-19140666D01*
X62783904Y-19140775D01*
X62761004Y-19145143D01*
X62760901Y-19145153D01*
X62760633Y-19145178D01*
X62760627Y-19145179D01*
X62752867Y-19145913D01*
X62745531Y-19148553D01*
X62745526Y-19148555D01*
X62700692Y-19164695D01*
X62693293Y-19167099D01*
X62647498Y-19180405D01*
X62647488Y-19180409D01*
X62640010Y-19182582D01*
X62633304Y-19186547D01*
X62633289Y-19186554D01*
X62632962Y-19186748D01*
X62611873Y-19196672D01*
X62611517Y-19196799D01*
X62611501Y-19196806D01*
X62604172Y-19199446D01*
X62597726Y-19203826D01*
X62597721Y-19203829D01*
X62558284Y-19230630D01*
X62551712Y-19234800D01*
X62510694Y-19259059D01*
X62503980Y-19263030D01*
X62498467Y-19268541D01*
X62498465Y-19268544D01*
X62498197Y-19268813D01*
X62480229Y-19283676D01*
X62473462Y-19288276D01*
X62468308Y-19294121D01*
X62468300Y-19294129D01*
X62436769Y-19329894D01*
X62431438Y-19335570D01*
X61703500Y-20063508D01*
X61657382Y-20092654D01*
X61603218Y-20099185D01*
X61511543Y-20089820D01*
X61511539Y-20089819D01*
X61508409Y-20089500D01*
X61505260Y-20089500D01*
X60293853Y-20089500D01*
X60246400Y-20080061D01*
X60206172Y-20053181D01*
X58866486Y-18713495D01*
X58859042Y-18705314D01*
X58854986Y-18698923D01*
X58805975Y-18652898D01*
X58803178Y-18650187D01*
X58786427Y-18633436D01*
X58783671Y-18630680D01*
X58780490Y-18628212D01*
X58771614Y-18620630D01*
X58745469Y-18596078D01*
X58745467Y-18596076D01*
X58739782Y-18590738D01*
X58732949Y-18586982D01*
X58732943Y-18586977D01*
X58722225Y-18581085D01*
X58705966Y-18570406D01*
X58696295Y-18562904D01*
X58696292Y-18562902D01*
X58690136Y-18558127D01*
X58682979Y-18555029D01*
X58682976Y-18555028D01*
X58650049Y-18540778D01*
X58639563Y-18535641D01*
X58608132Y-18518362D01*
X58608123Y-18518358D01*
X58601292Y-18514603D01*
X58593735Y-18512662D01*
X58593731Y-18512661D01*
X58581888Y-18509620D01*
X58563484Y-18503319D01*
X58552257Y-18498460D01*
X58552250Y-18498458D01*
X58545096Y-18495362D01*
X58537392Y-18494141D01*
X58537390Y-18494141D01*
X58501959Y-18488529D01*
X58490524Y-18486161D01*
X58455771Y-18477238D01*
X58455763Y-18477237D01*
X58448219Y-18475300D01*
X58440423Y-18475300D01*
X58428183Y-18475300D01*
X58408797Y-18473774D01*
X58389004Y-18470640D01*
X58381238Y-18471374D01*
X58381235Y-18471374D01*
X58345524Y-18474750D01*
X58333855Y-18475300D01*
X54484571Y-18475300D01*
X54473518Y-18474779D01*
X54466132Y-18473128D01*
X54458334Y-18473373D01*
X54398944Y-18475239D01*
X54395050Y-18475300D01*
X54367450Y-18475300D01*
X54363599Y-18475786D01*
X54363568Y-18475788D01*
X54363440Y-18475805D01*
X54351829Y-18476718D01*
X54315971Y-18477845D01*
X54315964Y-18477846D01*
X54308172Y-18478091D01*
X54300688Y-18480265D01*
X54300677Y-18480267D01*
X54288928Y-18483681D01*
X54269883Y-18487625D01*
X54257747Y-18489158D01*
X54257744Y-18489158D01*
X54250008Y-18490136D01*
X54242760Y-18493005D01*
X54242750Y-18493008D01*
X54209392Y-18506215D01*
X54198350Y-18509996D01*
X54163897Y-18520007D01*
X54163892Y-18520008D01*
X54156410Y-18522183D01*
X54149702Y-18526149D01*
X54149697Y-18526152D01*
X54139164Y-18532381D01*
X54121700Y-18540936D01*
X54110324Y-18545440D01*
X54110317Y-18545443D01*
X54103068Y-18548314D01*
X54096762Y-18552894D01*
X54096757Y-18552898D01*
X54067727Y-18573989D01*
X54057969Y-18580398D01*
X54027098Y-18598656D01*
X54020379Y-18602630D01*
X54014863Y-18608144D01*
X54014856Y-18608151D01*
X54006207Y-18616800D01*
X53991424Y-18629426D01*
X53981527Y-18636617D01*
X53981520Y-18636623D01*
X53975213Y-18641206D01*
X53970246Y-18647208D01*
X53970235Y-18647220D01*
X53947370Y-18674859D01*
X53939510Y-18683497D01*
X52620627Y-20002381D01*
X52580399Y-20029261D01*
X52532946Y-20038700D01*
X51403853Y-20038700D01*
X51356400Y-20029261D01*
X51316172Y-20002381D01*
X50382886Y-19069095D01*
X50375442Y-19060914D01*
X50371386Y-19054523D01*
X50322375Y-19008498D01*
X50319578Y-19005787D01*
X50302827Y-18989036D01*
X50302827Y-18989035D01*
X50300071Y-18986280D01*
X50296890Y-18983812D01*
X50288014Y-18976230D01*
X50261869Y-18951678D01*
X50261867Y-18951676D01*
X50256182Y-18946338D01*
X50249349Y-18942582D01*
X50249343Y-18942577D01*
X50238625Y-18936685D01*
X50222366Y-18926006D01*
X50212695Y-18918504D01*
X50212692Y-18918502D01*
X50206536Y-18913727D01*
X50199379Y-18910629D01*
X50199376Y-18910628D01*
X50166449Y-18896378D01*
X50155963Y-18891241D01*
X50124532Y-18873962D01*
X50124523Y-18873958D01*
X50117692Y-18870203D01*
X50110135Y-18868262D01*
X50110131Y-18868261D01*
X50098288Y-18865220D01*
X50079884Y-18858919D01*
X50068657Y-18854060D01*
X50068650Y-18854058D01*
X50061496Y-18850962D01*
X50053792Y-18849741D01*
X50053790Y-18849741D01*
X50018359Y-18844129D01*
X50006924Y-18841761D01*
X49972171Y-18832838D01*
X49972163Y-18832837D01*
X49964619Y-18830900D01*
X49956823Y-18830900D01*
X49944583Y-18830900D01*
X49925197Y-18829374D01*
X49905404Y-18826240D01*
X49897638Y-18826974D01*
X49897635Y-18826974D01*
X49861924Y-18830350D01*
X49850255Y-18830900D01*
X45289775Y-18830900D01*
X45278719Y-18830378D01*
X45271333Y-18828727D01*
X45263545Y-18828971D01*
X45263538Y-18828971D01*
X45204127Y-18830839D01*
X45200232Y-18830900D01*
X45172650Y-18830900D01*
X45168805Y-18831385D01*
X45168780Y-18831387D01*
X45168653Y-18831404D01*
X45157034Y-18832318D01*
X45121172Y-18833445D01*
X45121165Y-18833446D01*
X45113373Y-18833691D01*
X45105888Y-18835865D01*
X45105872Y-18835868D01*
X45094126Y-18839281D01*
X45075083Y-18843225D01*
X45062949Y-18844758D01*
X45062948Y-18844758D01*
X45055208Y-18845736D01*
X45047958Y-18848605D01*
X45047951Y-18848608D01*
X45014598Y-18861813D01*
X45003554Y-18865594D01*
X44969101Y-18875604D01*
X44969090Y-18875608D01*
X44961610Y-18877782D01*
X44954898Y-18881751D01*
X44954896Y-18881752D01*
X44944364Y-18887980D01*
X44926904Y-18896534D01*
X44915519Y-18901042D01*
X44915513Y-18901044D01*
X44908268Y-18903914D01*
X44901963Y-18908494D01*
X44901955Y-18908499D01*
X44872932Y-18929585D01*
X44863174Y-18935995D01*
X44832296Y-18954257D01*
X44832290Y-18954261D01*
X44825580Y-18958230D01*
X44820067Y-18963741D01*
X44820060Y-18963748D01*
X44811410Y-18972398D01*
X44796627Y-18985024D01*
X44786726Y-18992217D01*
X44786716Y-18992226D01*
X44780413Y-18996806D01*
X44775444Y-19002811D01*
X44775441Y-19002815D01*
X44752572Y-19030459D01*
X44744711Y-19039097D01*
X43781427Y-20002381D01*
X43741199Y-20029261D01*
X43693746Y-20038700D01*
X42482340Y-20038700D01*
X42482320Y-20038700D01*
X42479192Y-20038701D01*
X42476060Y-20039020D01*
X42476058Y-20039021D01*
X42383138Y-20048512D01*
X42383128Y-20048513D01*
X42376403Y-20049201D01*
X42369981Y-20051328D01*
X42369976Y-20051330D01*
X42216721Y-20102114D01*
X42216717Y-20102115D01*
X42209866Y-20104386D01*
X42203722Y-20108175D01*
X42203719Y-20108177D01*
X42066688Y-20192697D01*
X42066680Y-20192703D01*
X42060544Y-20196488D01*
X42055442Y-20201589D01*
X42055438Y-20201593D01*
X41941593Y-20315438D01*
X41941589Y-20315442D01*
X41936488Y-20320544D01*
X41932703Y-20326680D01*
X41932697Y-20326688D01*
X41848177Y-20463719D01*
X41844386Y-20469866D01*
X41842115Y-20476717D01*
X41842114Y-20476721D01*
X41791331Y-20629974D01*
X41789201Y-20636403D01*
X41788513Y-20643133D01*
X41788512Y-20643140D01*
X41779019Y-20736059D01*
X41779018Y-20736077D01*
X41778700Y-20739191D01*
X41778700Y-20742338D01*
X41778700Y-20742339D01*
X41778700Y-22336059D01*
X41778700Y-22336078D01*
X38018468Y-22336078D01*
X38103903Y-22152863D01*
X38165063Y-21924608D01*
X38180500Y-21748166D01*
X38180500Y-21330234D01*
X38165063Y-21153792D01*
X38103903Y-20925537D01*
X38004035Y-20711371D01*
X37868495Y-20517799D01*
X37701401Y-20350705D01*
X37696970Y-20347602D01*
X37696966Y-20347599D01*
X37512259Y-20218266D01*
X37512257Y-20218264D01*
X37507830Y-20215165D01*
X37502933Y-20212881D01*
X37502927Y-20212878D01*
X37298572Y-20117586D01*
X37298570Y-20117585D01*
X37293663Y-20115297D01*
X37288438Y-20113897D01*
X37288430Y-20113894D01*
X37070634Y-20055537D01*
X37070630Y-20055536D01*
X37065408Y-20054137D01*
X37060020Y-20053665D01*
X37060017Y-20053665D01*
X36835395Y-20034013D01*
X36830000Y-20033541D01*
X36824605Y-20034013D01*
X36599982Y-20053665D01*
X36599977Y-20053665D01*
X36594592Y-20054137D01*
X36589371Y-20055535D01*
X36589365Y-20055537D01*
X36371569Y-20113894D01*
X36371557Y-20113898D01*
X36366337Y-20115297D01*
X36361432Y-20117583D01*
X36361427Y-20117586D01*
X36157081Y-20212875D01*
X36157077Y-20212877D01*
X36152171Y-20215165D01*
X36147738Y-20218268D01*
X36147731Y-20218273D01*
X35963034Y-20347599D01*
X35963029Y-20347602D01*
X35958599Y-20350705D01*
X35954775Y-20354528D01*
X35954775Y-20354529D01*
X35810838Y-20498466D01*
X35760443Y-20529045D01*
X35701621Y-20532900D01*
X35647667Y-20509157D01*
X35615697Y-20469320D01*
X35614814Y-20469866D01*
X35526502Y-20326688D01*
X35526500Y-20326685D01*
X35522712Y-20320544D01*
X35398656Y-20196488D01*
X35392515Y-20192700D01*
X35392511Y-20192697D01*
X35255480Y-20108177D01*
X35249334Y-20104386D01*
X35233638Y-20099185D01*
X35089225Y-20051331D01*
X35089224Y-20051330D01*
X35082797Y-20049201D01*
X35076064Y-20048513D01*
X35076059Y-20048512D01*
X34983140Y-20039019D01*
X34983123Y-20039018D01*
X34980009Y-20038700D01*
X34976860Y-20038700D01*
X33683140Y-20038700D01*
X33683120Y-20038700D01*
X33679992Y-20038701D01*
X33676860Y-20039020D01*
X33676858Y-20039021D01*
X33583938Y-20048512D01*
X33583928Y-20048513D01*
X33577203Y-20049201D01*
X33570781Y-20051328D01*
X33570776Y-20051330D01*
X33417521Y-20102114D01*
X33417517Y-20102115D01*
X33410666Y-20104386D01*
X33404522Y-20108175D01*
X33404519Y-20108177D01*
X33267488Y-20192697D01*
X33267480Y-20192703D01*
X33261344Y-20196488D01*
X33256242Y-20201589D01*
X33256238Y-20201593D01*
X33142393Y-20315438D01*
X33142389Y-20315442D01*
X33137288Y-20320544D01*
X33133503Y-20326680D01*
X33133497Y-20326688D01*
X33048977Y-20463719D01*
X33045186Y-20469866D01*
X33042915Y-20476717D01*
X33042914Y-20476721D01*
X32992131Y-20629974D01*
X32990001Y-20636403D01*
X32989313Y-20643133D01*
X32989312Y-20643140D01*
X32979819Y-20736059D01*
X32979818Y-20736077D01*
X32979500Y-20739191D01*
X32979500Y-20742338D01*
X32979500Y-20742339D01*
X32979500Y-22336059D01*
X32979500Y-22336078D01*
X29026868Y-22336078D01*
X29112303Y-22152863D01*
X29173463Y-21924608D01*
X29188900Y-21748166D01*
X29188900Y-21330234D01*
X29173463Y-21153792D01*
X29112303Y-20925537D01*
X29012435Y-20711371D01*
X28876895Y-20517799D01*
X28709801Y-20350705D01*
X28705370Y-20347602D01*
X28705366Y-20347599D01*
X28520659Y-20218266D01*
X28520657Y-20218264D01*
X28516230Y-20215165D01*
X28511333Y-20212881D01*
X28511327Y-20212878D01*
X28306972Y-20117586D01*
X28306970Y-20117585D01*
X28302063Y-20115297D01*
X28296838Y-20113897D01*
X28296830Y-20113894D01*
X28079034Y-20055537D01*
X28079030Y-20055536D01*
X28073808Y-20054137D01*
X28068420Y-20053665D01*
X28068417Y-20053665D01*
X27843795Y-20034013D01*
X27838400Y-20033541D01*
X27833005Y-20034013D01*
X27608382Y-20053665D01*
X27608377Y-20053665D01*
X27602992Y-20054137D01*
X27597771Y-20055535D01*
X27597765Y-20055537D01*
X27379969Y-20113894D01*
X27379957Y-20113898D01*
X27374737Y-20115297D01*
X27369832Y-20117583D01*
X27369827Y-20117586D01*
X27165481Y-20212875D01*
X27165477Y-20212877D01*
X27160571Y-20215165D01*
X27156138Y-20218268D01*
X27156131Y-20218273D01*
X26971434Y-20347599D01*
X26971429Y-20347602D01*
X26966999Y-20350705D01*
X26963175Y-20354528D01*
X26963175Y-20354529D01*
X26819238Y-20498466D01*
X26768843Y-20529045D01*
X26710021Y-20532900D01*
X26656067Y-20509157D01*
X26624097Y-20469320D01*
X26623214Y-20469866D01*
X26534902Y-20326688D01*
X26534900Y-20326685D01*
X26531112Y-20320544D01*
X26407056Y-20196488D01*
X26400915Y-20192700D01*
X26400911Y-20192697D01*
X26263880Y-20108177D01*
X26257734Y-20104386D01*
X26242038Y-20099185D01*
X26097625Y-20051331D01*
X26097624Y-20051330D01*
X26091197Y-20049201D01*
X26084464Y-20048513D01*
X26084459Y-20048512D01*
X25991540Y-20039019D01*
X25991523Y-20039018D01*
X25988409Y-20038700D01*
X25985260Y-20038700D01*
X24691540Y-20038700D01*
X24691520Y-20038700D01*
X24688392Y-20038701D01*
X24685260Y-20039020D01*
X24685258Y-20039021D01*
X24592338Y-20048512D01*
X24592328Y-20048513D01*
X24585603Y-20049201D01*
X24579181Y-20051328D01*
X24579176Y-20051330D01*
X24425921Y-20102114D01*
X24425917Y-20102115D01*
X24419066Y-20104386D01*
X24412922Y-20108175D01*
X24412919Y-20108177D01*
X24275888Y-20192697D01*
X24275880Y-20192703D01*
X24269744Y-20196488D01*
X24264642Y-20201589D01*
X24264638Y-20201593D01*
X24150793Y-20315438D01*
X24150789Y-20315442D01*
X24145688Y-20320544D01*
X24141903Y-20326680D01*
X24141897Y-20326688D01*
X24057377Y-20463719D01*
X24053586Y-20469866D01*
X24051315Y-20476717D01*
X24051314Y-20476721D01*
X24000531Y-20629974D01*
X23998401Y-20636403D01*
X23997713Y-20643133D01*
X23997712Y-20643140D01*
X23988219Y-20736059D01*
X23988218Y-20736077D01*
X23987900Y-20739191D01*
X23987900Y-20742338D01*
X23987900Y-20742339D01*
X23987900Y-22336059D01*
X23987900Y-22336078D01*
X19487268Y-22336078D01*
X19572703Y-22152863D01*
X19633863Y-21924608D01*
X19649300Y-21748166D01*
X19649300Y-21330234D01*
X19633863Y-21153792D01*
X19572703Y-20925537D01*
X19472835Y-20711371D01*
X19337295Y-20517799D01*
X19170201Y-20350705D01*
X19165770Y-20347602D01*
X19165766Y-20347599D01*
X18981059Y-20218266D01*
X18981057Y-20218264D01*
X18976630Y-20215165D01*
X18971733Y-20212881D01*
X18971727Y-20212878D01*
X18767372Y-20117586D01*
X18767370Y-20117585D01*
X18762463Y-20115297D01*
X18757238Y-20113897D01*
X18757230Y-20113894D01*
X18539434Y-20055537D01*
X18539430Y-20055536D01*
X18534208Y-20054137D01*
X18528820Y-20053665D01*
X18528817Y-20053665D01*
X18304195Y-20034013D01*
X18298800Y-20033541D01*
X18293405Y-20034013D01*
X18068782Y-20053665D01*
X18068777Y-20053665D01*
X18063392Y-20054137D01*
X18058171Y-20055535D01*
X18058165Y-20055537D01*
X17840369Y-20113894D01*
X17840357Y-20113898D01*
X17835137Y-20115297D01*
X17830232Y-20117583D01*
X17830227Y-20117586D01*
X17625881Y-20212875D01*
X17625877Y-20212877D01*
X17620971Y-20215165D01*
X17616538Y-20218268D01*
X17616531Y-20218273D01*
X17431834Y-20347599D01*
X17431829Y-20347602D01*
X17427399Y-20350705D01*
X17423575Y-20354528D01*
X17423575Y-20354529D01*
X17279638Y-20498466D01*
X17229243Y-20529045D01*
X17170421Y-20532900D01*
X17116467Y-20509157D01*
X17084497Y-20469320D01*
X17083614Y-20469866D01*
X16995302Y-20326688D01*
X16995300Y-20326685D01*
X16991512Y-20320544D01*
X16867456Y-20196488D01*
X16861315Y-20192700D01*
X16861311Y-20192697D01*
X16724280Y-20108177D01*
X16718134Y-20104386D01*
X16702438Y-20099185D01*
X16558025Y-20051331D01*
X16558024Y-20051330D01*
X16551597Y-20049201D01*
X16544864Y-20048513D01*
X16544859Y-20048512D01*
X16451940Y-20039019D01*
X16451923Y-20039018D01*
X16448809Y-20038700D01*
X16445660Y-20038700D01*
X15151940Y-20038700D01*
X15151920Y-20038700D01*
X15148792Y-20038701D01*
X15145660Y-20039020D01*
X15145658Y-20039021D01*
X15052738Y-20048512D01*
X15052728Y-20048513D01*
X15046003Y-20049201D01*
X15039581Y-20051328D01*
X15039576Y-20051330D01*
X14886321Y-20102114D01*
X14886317Y-20102115D01*
X14879466Y-20104386D01*
X14873322Y-20108175D01*
X14873319Y-20108177D01*
X14736288Y-20192697D01*
X14736280Y-20192703D01*
X14730144Y-20196488D01*
X14725042Y-20201589D01*
X14725038Y-20201593D01*
X14611193Y-20315438D01*
X14611189Y-20315442D01*
X14606088Y-20320544D01*
X14602303Y-20326680D01*
X14602297Y-20326688D01*
X14517777Y-20463719D01*
X14513986Y-20469866D01*
X14511715Y-20476717D01*
X14511714Y-20476721D01*
X14460931Y-20629974D01*
X14458801Y-20636403D01*
X14458113Y-20643133D01*
X14458112Y-20643140D01*
X14448619Y-20736059D01*
X14448618Y-20736077D01*
X14448300Y-20739191D01*
X14448300Y-20742338D01*
X14448300Y-20742339D01*
X14448300Y-22336059D01*
X14448300Y-22336078D01*
X406400Y-22336078D01*
X406400Y-20648578D01*
X3736700Y-20648578D01*
X3736701Y-20651872D01*
X3737053Y-20655150D01*
X3737054Y-20655161D01*
X3742279Y-20703768D01*
X3742280Y-20703773D01*
X3743109Y-20711483D01*
X3745819Y-20718749D01*
X3745820Y-20718753D01*
X3779417Y-20808831D01*
X3793404Y-20846331D01*
X3798718Y-20853430D01*
X3798719Y-20853431D01*
X3852697Y-20925537D01*
X3879654Y-20961546D01*
X3994869Y-21047796D01*
X4129717Y-21098091D01*
X4189327Y-21104500D01*
X6885072Y-21104499D01*
X6944683Y-21098091D01*
X7079531Y-21047796D01*
X7194746Y-20961546D01*
X7280996Y-20846331D01*
X7331291Y-20711483D01*
X7337700Y-20651873D01*
X7337699Y-17956128D01*
X7331291Y-17896517D01*
X7280996Y-17761669D01*
X7194746Y-17646454D01*
X7079531Y-17560204D01*
X6944683Y-17509909D01*
X6936970Y-17509079D01*
X6936967Y-17509079D01*
X6888380Y-17503855D01*
X6888369Y-17503854D01*
X6885073Y-17503500D01*
X6881750Y-17503500D01*
X4192639Y-17503500D01*
X4192620Y-17503500D01*
X4189328Y-17503501D01*
X4186050Y-17503853D01*
X4186038Y-17503854D01*
X4137431Y-17509079D01*
X4137425Y-17509080D01*
X4129717Y-17509909D01*
X4122452Y-17512618D01*
X4122446Y-17512620D01*
X4003180Y-17557104D01*
X4003178Y-17557104D01*
X3994869Y-17560204D01*
X3987772Y-17565516D01*
X3987768Y-17565519D01*
X3886750Y-17641141D01*
X3886746Y-17641144D01*
X3879654Y-17646454D01*
X3874344Y-17653546D01*
X3874341Y-17653550D01*
X3798719Y-17754568D01*
X3798716Y-17754572D01*
X3793404Y-17761669D01*
X3790304Y-17769978D01*
X3790304Y-17769980D01*
X3745820Y-17889247D01*
X3745819Y-17889250D01*
X3743109Y-17896517D01*
X3742279Y-17904227D01*
X3742279Y-17904232D01*
X3737055Y-17952819D01*
X3737054Y-17952831D01*
X3736700Y-17956127D01*
X3736700Y-17959448D01*
X3736700Y-17959449D01*
X3736700Y-20648560D01*
X3736700Y-20648578D01*
X406400Y-20648578D01*
X406400Y-16356151D01*
X25140452Y-16356151D01*
X25140820Y-16367380D01*
X25188330Y-16544692D01*
X25192022Y-16554834D01*
X25283579Y-16751180D01*
X25288967Y-16760512D01*
X25413232Y-16937981D01*
X25420169Y-16946247D01*
X25573352Y-17099430D01*
X25581618Y-17106367D01*
X25759087Y-17230632D01*
X25768419Y-17236020D01*
X25964765Y-17327577D01*
X25974907Y-17331269D01*
X26152219Y-17378779D01*
X26163448Y-17379147D01*
X26166000Y-17368205D01*
X26666000Y-17368205D01*
X26668551Y-17379147D01*
X26679780Y-17378779D01*
X26857092Y-17331269D01*
X26867234Y-17327577D01*
X27063580Y-17236020D01*
X27072912Y-17230632D01*
X27250381Y-17106367D01*
X27258647Y-17099430D01*
X27409899Y-16948178D01*
X32735500Y-16948178D01*
X32735501Y-16951472D01*
X32735853Y-16954750D01*
X32735854Y-16954761D01*
X32741079Y-17003368D01*
X32741080Y-17003373D01*
X32741909Y-17011083D01*
X32744619Y-17018349D01*
X32744620Y-17018353D01*
X32774860Y-17099430D01*
X32792204Y-17145931D01*
X32878454Y-17261146D01*
X32993669Y-17347396D01*
X33128517Y-17397691D01*
X33188127Y-17404100D01*
X34883872Y-17404099D01*
X34943483Y-17397691D01*
X35078331Y-17347396D01*
X35193546Y-17261146D01*
X35279796Y-17145931D01*
X35330091Y-17011083D01*
X35336500Y-16951473D01*
X35336500Y-16853100D01*
X35353113Y-16791100D01*
X35398500Y-16745713D01*
X35460500Y-16729100D01*
X38060620Y-16729100D01*
X38115891Y-16742100D01*
X38159574Y-16778373D01*
X38221561Y-16860458D01*
X38221566Y-16860463D01*
X38225019Y-16865036D01*
X38229255Y-16868897D01*
X38229259Y-16868902D01*
X38319836Y-16951473D01*
X38389438Y-17014924D01*
X38578599Y-17132047D01*
X38786060Y-17212418D01*
X39004757Y-17253300D01*
X39221514Y-17253300D01*
X39227243Y-17253300D01*
X39445940Y-17212418D01*
X39653401Y-17132047D01*
X39842562Y-17014924D01*
X40006981Y-16865036D01*
X40141058Y-16687489D01*
X40240229Y-16488328D01*
X40266734Y-16395171D01*
X40299133Y-16340618D01*
X40354275Y-16309233D01*
X40417725Y-16309233D01*
X40472867Y-16340618D01*
X40505265Y-16395171D01*
X40531771Y-16488328D01*
X40534323Y-16493453D01*
X40534325Y-16493458D01*
X40628387Y-16682359D01*
X40628389Y-16682363D01*
X40630942Y-16687489D01*
X40634391Y-16692056D01*
X40634394Y-16692061D01*
X40761561Y-16860458D01*
X40761566Y-16860463D01*
X40765019Y-16865036D01*
X40769255Y-16868897D01*
X40769259Y-16868902D01*
X40859836Y-16951473D01*
X40929438Y-17014924D01*
X41118599Y-17132047D01*
X41326060Y-17212418D01*
X41544757Y-17253300D01*
X41761514Y-17253300D01*
X41767243Y-17253300D01*
X41985940Y-17212418D01*
X42193401Y-17132047D01*
X42382562Y-17014924D01*
X42546981Y-16865036D01*
X42612425Y-16778373D01*
X42656109Y-16742100D01*
X42711380Y-16729100D01*
X45679820Y-16729100D01*
X45735091Y-16742100D01*
X45778774Y-16778373D01*
X45840761Y-16860458D01*
X45840766Y-16860463D01*
X45844219Y-16865036D01*
X45848455Y-16868897D01*
X45848459Y-16868902D01*
X45939036Y-16951473D01*
X46008638Y-17014924D01*
X46197799Y-17132047D01*
X46405260Y-17212418D01*
X46623957Y-17253300D01*
X46840714Y-17253300D01*
X46846443Y-17253300D01*
X47065140Y-17212418D01*
X47272601Y-17132047D01*
X47461762Y-17014924D01*
X47626181Y-16865036D01*
X47760258Y-16687489D01*
X47859429Y-16488328D01*
X47885934Y-16395171D01*
X47918333Y-16340618D01*
X47973475Y-16309233D01*
X48036925Y-16309233D01*
X48092067Y-16340618D01*
X48124465Y-16395171D01*
X48150971Y-16488328D01*
X48153523Y-16493453D01*
X48153525Y-16493458D01*
X48247587Y-16682359D01*
X48247589Y-16682363D01*
X48250142Y-16687489D01*
X48253591Y-16692056D01*
X48253594Y-16692061D01*
X48380761Y-16860458D01*
X48380766Y-16860463D01*
X48384219Y-16865036D01*
X48388455Y-16868897D01*
X48388459Y-16868902D01*
X48479036Y-16951473D01*
X48548638Y-17014924D01*
X48737799Y-17132047D01*
X48945260Y-17212418D01*
X49163957Y-17253300D01*
X49380714Y-17253300D01*
X49386443Y-17253300D01*
X49605140Y-17212418D01*
X49812601Y-17132047D01*
X50001762Y-17014924D01*
X50166181Y-16865036D01*
X50300258Y-16687489D01*
X50399429Y-16488328D01*
X50460315Y-16274336D01*
X50480843Y-16052800D01*
X50460315Y-15831264D01*
X50399429Y-15617272D01*
X50300258Y-15418111D01*
X50296805Y-15413538D01*
X50169638Y-15245141D01*
X50169634Y-15245137D01*
X50166181Y-15240564D01*
X50161944Y-15236701D01*
X50161940Y-15236697D01*
X50020512Y-15107769D01*
X50001762Y-15090676D01*
X49996892Y-15087661D01*
X49996890Y-15087659D01*
X49817475Y-14976571D01*
X49817476Y-14976571D01*
X49812601Y-14973553D01*
X49605140Y-14893182D01*
X49599502Y-14892128D01*
X49392072Y-14853352D01*
X49392069Y-14853351D01*
X49386443Y-14852300D01*
X49163957Y-14852300D01*
X49158331Y-14853351D01*
X49158327Y-14853352D01*
X48950897Y-14892128D01*
X48950894Y-14892128D01*
X48945260Y-14893182D01*
X48939917Y-14895251D01*
X48939913Y-14895253D01*
X48743141Y-14971483D01*
X48743136Y-14971485D01*
X48737799Y-14973553D01*
X48732927Y-14976569D01*
X48732924Y-14976571D01*
X48553509Y-15087659D01*
X48553501Y-15087664D01*
X48548638Y-15090676D01*
X48544407Y-15094532D01*
X48544403Y-15094536D01*
X48388459Y-15236697D01*
X48388449Y-15236707D01*
X48384219Y-15240564D01*
X48380770Y-15245130D01*
X48380761Y-15245141D01*
X48253594Y-15413538D01*
X48253587Y-15413548D01*
X48250142Y-15418111D01*
X48247592Y-15423231D01*
X48247587Y-15423240D01*
X48153525Y-15612141D01*
X48153521Y-15612149D01*
X48150971Y-15617272D01*
X48149405Y-15622775D01*
X48149401Y-15622786D01*
X48124466Y-15710427D01*
X48092067Y-15764981D01*
X48036924Y-15796366D01*
X47973476Y-15796366D01*
X47918333Y-15764981D01*
X47885934Y-15710427D01*
X47860998Y-15622786D01*
X47860997Y-15622784D01*
X47859429Y-15617272D01*
X47760258Y-15418111D01*
X47756805Y-15413538D01*
X47629638Y-15245141D01*
X47629634Y-15245137D01*
X47626181Y-15240564D01*
X47621944Y-15236701D01*
X47621940Y-15236697D01*
X47480512Y-15107769D01*
X47461762Y-15090676D01*
X47456892Y-15087661D01*
X47456890Y-15087659D01*
X47277475Y-14976571D01*
X47277476Y-14976571D01*
X47272601Y-14973553D01*
X47065140Y-14893182D01*
X47059502Y-14892128D01*
X46852072Y-14853352D01*
X46852069Y-14853351D01*
X46846443Y-14852300D01*
X46623957Y-14852300D01*
X46618331Y-14853351D01*
X46618327Y-14853352D01*
X46410897Y-14892128D01*
X46410894Y-14892128D01*
X46405260Y-14893182D01*
X46399917Y-14895251D01*
X46399913Y-14895253D01*
X46203141Y-14971483D01*
X46203136Y-14971485D01*
X46197799Y-14973553D01*
X46192927Y-14976569D01*
X46192924Y-14976571D01*
X46013509Y-15087659D01*
X46013501Y-15087664D01*
X46008638Y-15090676D01*
X46004407Y-15094532D01*
X46004403Y-15094536D01*
X45848459Y-15236697D01*
X45848449Y-15236707D01*
X45844219Y-15240564D01*
X45840770Y-15245130D01*
X45840761Y-15245141D01*
X45713595Y-15413538D01*
X45710142Y-15418111D01*
X45709087Y-15420229D01*
X45664892Y-15462429D01*
X45604553Y-15478100D01*
X42786647Y-15478100D01*
X42726308Y-15462429D01*
X42682112Y-15420229D01*
X42681058Y-15418111D01*
X42612974Y-15327953D01*
X42550438Y-15245141D01*
X42550434Y-15245137D01*
X42546981Y-15240564D01*
X42542744Y-15236701D01*
X42542740Y-15236697D01*
X42401312Y-15107769D01*
X42382562Y-15090676D01*
X42377692Y-15087661D01*
X42377690Y-15087659D01*
X42198275Y-14976571D01*
X42198276Y-14976571D01*
X42193401Y-14973553D01*
X41985940Y-14893182D01*
X41980302Y-14892128D01*
X41772872Y-14853352D01*
X41772869Y-14853351D01*
X41767243Y-14852300D01*
X41544757Y-14852300D01*
X41539131Y-14853351D01*
X41539127Y-14853352D01*
X41331697Y-14892128D01*
X41331694Y-14892128D01*
X41326060Y-14893182D01*
X41320717Y-14895251D01*
X41320713Y-14895253D01*
X41123941Y-14971483D01*
X41123936Y-14971485D01*
X41118599Y-14973553D01*
X41113727Y-14976569D01*
X41113724Y-14976571D01*
X40934309Y-15087659D01*
X40934301Y-15087664D01*
X40929438Y-15090676D01*
X40925207Y-15094532D01*
X40925203Y-15094536D01*
X40769259Y-15236697D01*
X40769249Y-15236707D01*
X40765019Y-15240564D01*
X40761570Y-15245130D01*
X40761561Y-15245141D01*
X40634394Y-15413538D01*
X40634387Y-15413548D01*
X40630942Y-15418111D01*
X40628392Y-15423231D01*
X40628387Y-15423240D01*
X40534325Y-15612141D01*
X40534321Y-15612149D01*
X40531771Y-15617272D01*
X40530205Y-15622775D01*
X40530201Y-15622786D01*
X40505266Y-15710427D01*
X40472867Y-15764981D01*
X40417724Y-15796366D01*
X40354276Y-15796366D01*
X40299133Y-15764981D01*
X40266734Y-15710427D01*
X40241798Y-15622786D01*
X40241797Y-15622784D01*
X40240229Y-15617272D01*
X40141058Y-15418111D01*
X40137605Y-15413538D01*
X40010438Y-15245141D01*
X40010434Y-15245137D01*
X40006981Y-15240564D01*
X40002744Y-15236701D01*
X40002740Y-15236697D01*
X39861312Y-15107769D01*
X39842562Y-15090676D01*
X39837692Y-15087661D01*
X39837690Y-15087659D01*
X39658275Y-14976571D01*
X39658276Y-14976571D01*
X39653401Y-14973553D01*
X39445940Y-14893182D01*
X39440302Y-14892128D01*
X39232872Y-14853352D01*
X39232869Y-14853351D01*
X39227243Y-14852300D01*
X39004757Y-14852300D01*
X38999131Y-14853351D01*
X38999127Y-14853352D01*
X38791697Y-14892128D01*
X38791694Y-14892128D01*
X38786060Y-14893182D01*
X38780717Y-14895251D01*
X38780713Y-14895253D01*
X38583941Y-14971483D01*
X38583936Y-14971485D01*
X38578599Y-14973553D01*
X38573727Y-14976569D01*
X38573724Y-14976571D01*
X38394309Y-15087659D01*
X38394301Y-15087664D01*
X38389438Y-15090676D01*
X38385207Y-15094532D01*
X38385203Y-15094536D01*
X38229259Y-15236697D01*
X38229249Y-15236707D01*
X38225019Y-15240564D01*
X38221570Y-15245130D01*
X38221561Y-15245141D01*
X38094395Y-15413538D01*
X38090942Y-15418111D01*
X38089887Y-15420229D01*
X38045692Y-15462429D01*
X37985353Y-15478100D01*
X35460499Y-15478100D01*
X35398499Y-15461487D01*
X35353112Y-15416100D01*
X35336499Y-15354100D01*
X35336499Y-15259039D01*
X35336499Y-15255728D01*
X35330091Y-15196117D01*
X35279796Y-15061269D01*
X35193546Y-14946054D01*
X35104804Y-14879622D01*
X35085431Y-14865119D01*
X35085430Y-14865118D01*
X35078331Y-14859804D01*
X34994186Y-14828420D01*
X34950752Y-14812220D01*
X34950750Y-14812219D01*
X34943483Y-14809509D01*
X34935770Y-14808679D01*
X34935767Y-14808679D01*
X34887180Y-14803455D01*
X34887169Y-14803454D01*
X34883873Y-14803100D01*
X34880550Y-14803100D01*
X33191439Y-14803100D01*
X33191420Y-14803100D01*
X33188128Y-14803101D01*
X33184850Y-14803453D01*
X33184838Y-14803454D01*
X33136231Y-14808679D01*
X33136225Y-14808680D01*
X33128517Y-14809509D01*
X33121252Y-14812218D01*
X33121246Y-14812220D01*
X33001980Y-14856704D01*
X33001978Y-14856704D01*
X32993669Y-14859804D01*
X32986572Y-14865116D01*
X32986568Y-14865119D01*
X32885550Y-14940741D01*
X32885546Y-14940744D01*
X32878454Y-14946054D01*
X32873144Y-14953146D01*
X32873141Y-14953150D01*
X32797519Y-15054168D01*
X32797516Y-15054172D01*
X32792204Y-15061269D01*
X32789104Y-15069578D01*
X32789104Y-15069580D01*
X32744620Y-15188847D01*
X32744619Y-15188850D01*
X32741909Y-15196117D01*
X32741079Y-15203827D01*
X32741079Y-15203832D01*
X32735855Y-15252419D01*
X32735854Y-15252431D01*
X32735500Y-15255727D01*
X32735500Y-15259048D01*
X32735500Y-15259049D01*
X32735500Y-16948160D01*
X32735500Y-16948178D01*
X27409899Y-16948178D01*
X27411830Y-16946247D01*
X27418767Y-16937981D01*
X27543032Y-16760512D01*
X27548420Y-16751180D01*
X27639977Y-16554834D01*
X27643669Y-16544692D01*
X27691179Y-16367380D01*
X27691547Y-16356151D01*
X27680605Y-16353600D01*
X26682326Y-16353600D01*
X26669450Y-16357050D01*
X26666000Y-16369926D01*
X26666000Y-17368205D01*
X26166000Y-17368205D01*
X26166000Y-16369926D01*
X26162549Y-16357050D01*
X26149674Y-16353600D01*
X25151395Y-16353600D01*
X25140452Y-16356151D01*
X406400Y-16356151D01*
X406400Y-15851048D01*
X25140452Y-15851048D01*
X25151395Y-15853600D01*
X26149674Y-15853600D01*
X26162549Y-15850149D01*
X26166000Y-15837274D01*
X26666000Y-15837274D01*
X26669450Y-15850149D01*
X26682326Y-15853600D01*
X27680605Y-15853600D01*
X27691547Y-15851048D01*
X27691179Y-15839819D01*
X27643669Y-15662507D01*
X27639977Y-15652365D01*
X27548420Y-15456019D01*
X27543032Y-15446687D01*
X27418767Y-15269218D01*
X27411830Y-15260952D01*
X27258647Y-15107769D01*
X27250381Y-15100832D01*
X27072912Y-14976567D01*
X27063580Y-14971179D01*
X26867234Y-14879622D01*
X26857092Y-14875930D01*
X26679780Y-14828420D01*
X26668551Y-14828052D01*
X26666000Y-14838995D01*
X26666000Y-15837274D01*
X26166000Y-15837274D01*
X26166000Y-14838995D01*
X26163448Y-14828052D01*
X26152219Y-14828420D01*
X25974907Y-14875930D01*
X25964765Y-14879622D01*
X25768419Y-14971179D01*
X25759087Y-14976567D01*
X25581618Y-15100832D01*
X25573352Y-15107769D01*
X25420169Y-15260952D01*
X25413232Y-15269218D01*
X25288967Y-15446687D01*
X25283579Y-15456019D01*
X25192022Y-15652365D01*
X25188330Y-15662507D01*
X25140820Y-15839819D01*
X25140452Y-15851048D01*
X406400Y-15851048D01*
X406400Y-6670750D01*
X28585804Y-6670750D01*
X28593350Y-6678808D01*
X28760841Y-6793001D01*
X28768862Y-6797632D01*
X29003562Y-6910658D01*
X29012173Y-6914038D01*
X29261108Y-6990824D01*
X29270124Y-6992882D01*
X29527723Y-7031708D01*
X29536946Y-7032400D01*
X29797454Y-7032400D01*
X29806676Y-7031708D01*
X30064275Y-6992882D01*
X30073291Y-6990824D01*
X30322227Y-6914037D01*
X30330837Y-6910658D01*
X30565540Y-6797631D01*
X30573559Y-6793001D01*
X30741046Y-6678809D01*
X30748594Y-6670750D01*
X30742677Y-6661430D01*
X30658225Y-6576978D01*
X32946700Y-6576978D01*
X32946701Y-6580272D01*
X32947053Y-6583550D01*
X32947054Y-6583561D01*
X32952279Y-6632168D01*
X32952280Y-6632173D01*
X32953109Y-6639883D01*
X32955819Y-6647149D01*
X32955820Y-6647153D01*
X32967627Y-6678808D01*
X33003404Y-6774731D01*
X33089654Y-6889946D01*
X33204869Y-6976196D01*
X33339717Y-7026491D01*
X33399327Y-7032900D01*
X36095072Y-7032899D01*
X36154683Y-7026491D01*
X36289531Y-6976196D01*
X36404746Y-6889946D01*
X36490996Y-6774731D01*
X36541291Y-6639883D01*
X36547700Y-6580273D01*
X36547699Y-5232400D01*
X39850451Y-5232400D01*
X39850798Y-5237030D01*
X39850798Y-5237031D01*
X39868615Y-5474797D01*
X39870617Y-5501503D01*
X39871647Y-5506016D01*
X39871648Y-5506022D01*
X39928856Y-5756665D01*
X39930666Y-5764595D01*
X39932362Y-5768918D01*
X39932363Y-5768919D01*
X39981035Y-5892933D01*
X40029257Y-6015798D01*
X40164185Y-6249502D01*
X40332439Y-6460485D01*
X40335843Y-6463643D01*
X40457958Y-6576950D01*
X40530259Y-6644035D01*
X40753226Y-6796051D01*
X40996359Y-6913138D01*
X41000787Y-6914503D01*
X41000790Y-6914505D01*
X41125293Y-6952909D01*
X41254228Y-6992680D01*
X41521071Y-7032900D01*
X41786292Y-7032900D01*
X41790929Y-7032900D01*
X42057772Y-6992680D01*
X42315641Y-6913138D01*
X42558775Y-6796051D01*
X42781741Y-6644035D01*
X42854011Y-6576978D01*
X44935500Y-6576978D01*
X44935501Y-6580272D01*
X44935853Y-6583550D01*
X44935854Y-6583561D01*
X44941079Y-6632168D01*
X44941080Y-6632173D01*
X44941909Y-6639883D01*
X44944619Y-6647149D01*
X44944620Y-6647153D01*
X44956427Y-6678808D01*
X44992204Y-6774731D01*
X45078454Y-6889946D01*
X45193669Y-6976196D01*
X45328517Y-7026491D01*
X45388127Y-7032900D01*
X48083872Y-7032899D01*
X48143483Y-7026491D01*
X48278331Y-6976196D01*
X48393546Y-6889946D01*
X48479796Y-6774731D01*
X48530091Y-6639883D01*
X48536500Y-6580273D01*
X48536499Y-5232400D01*
X51636051Y-5232400D01*
X51636398Y-5237030D01*
X51636398Y-5237031D01*
X51654215Y-5474797D01*
X51656217Y-5501503D01*
X51657247Y-5506016D01*
X51657248Y-5506022D01*
X51714456Y-5756665D01*
X51716266Y-5764595D01*
X51717962Y-5768918D01*
X51717963Y-5768919D01*
X51766635Y-5892933D01*
X51814857Y-6015798D01*
X51949785Y-6249502D01*
X52118039Y-6460485D01*
X52121443Y-6463643D01*
X52243558Y-6576950D01*
X52315859Y-6644035D01*
X52538826Y-6796051D01*
X52781959Y-6913138D01*
X52786387Y-6914503D01*
X52786390Y-6914505D01*
X52910893Y-6952909D01*
X53039828Y-6992680D01*
X53306671Y-7032900D01*
X53571892Y-7032900D01*
X53576529Y-7032900D01*
X53843372Y-6992680D01*
X54101241Y-6913138D01*
X54344375Y-6796051D01*
X54567341Y-6644035D01*
X54639611Y-6576978D01*
X56721100Y-6576978D01*
X56721101Y-6580272D01*
X56721453Y-6583550D01*
X56721454Y-6583561D01*
X56726679Y-6632168D01*
X56726680Y-6632173D01*
X56727509Y-6639883D01*
X56730219Y-6647149D01*
X56730220Y-6647153D01*
X56742027Y-6678808D01*
X56777804Y-6774731D01*
X56864054Y-6889946D01*
X56979269Y-6976196D01*
X57114117Y-7026491D01*
X57173727Y-7032900D01*
X59869472Y-7032899D01*
X59929083Y-7026491D01*
X60063931Y-6976196D01*
X60179146Y-6889946D01*
X60265396Y-6774731D01*
X60315691Y-6639883D01*
X60322100Y-6580273D01*
X60322099Y-5064078D01*
X65553100Y-5064078D01*
X65553101Y-5067208D01*
X65553420Y-5070340D01*
X65553421Y-5070341D01*
X65562912Y-5163261D01*
X65562913Y-5163269D01*
X65563601Y-5169997D01*
X65565729Y-5176419D01*
X65565730Y-5176423D01*
X65604171Y-5292430D01*
X65618786Y-5336534D01*
X65622577Y-5342680D01*
X65707097Y-5479711D01*
X65707100Y-5479715D01*
X65710888Y-5485856D01*
X65834944Y-5609912D01*
X65841085Y-5613700D01*
X65841088Y-5613702D01*
X65874772Y-5634478D01*
X65984266Y-5702014D01*
X66150803Y-5757199D01*
X66253591Y-5767700D01*
X67553608Y-5767699D01*
X67656397Y-5757199D01*
X67822934Y-5702014D01*
X67972256Y-5609912D01*
X68096312Y-5485856D01*
X68188414Y-5336534D01*
X68189298Y-5337079D01*
X68221262Y-5297246D01*
X68275218Y-5273500D01*
X68334041Y-5277353D01*
X68384438Y-5307933D01*
X68532199Y-5455695D01*
X68536631Y-5458798D01*
X68536633Y-5458800D01*
X68603973Y-5505952D01*
X68725770Y-5591235D01*
X68730670Y-5593520D01*
X68730672Y-5593521D01*
X68748954Y-5602046D01*
X68939937Y-5691103D01*
X69168192Y-5752263D01*
X69403600Y-5772859D01*
X69639008Y-5752263D01*
X69867263Y-5691103D01*
X70081429Y-5591235D01*
X70275001Y-5455695D01*
X70442095Y-5288601D01*
X70577635Y-5095029D01*
X70677503Y-4880863D01*
X70738663Y-4652608D01*
X70754100Y-4476166D01*
X70754100Y-4058234D01*
X70738663Y-3881792D01*
X70690172Y-3700819D01*
X70678905Y-3658769D01*
X70678904Y-3658767D01*
X70677503Y-3653537D01*
X70577635Y-3439371D01*
X70442095Y-3245799D01*
X70275001Y-3078705D01*
X70270570Y-3075602D01*
X70270566Y-3075599D01*
X70162599Y-3000000D01*
X75120612Y-3000000D01*
X75120928Y-3004418D01*
X75139424Y-3263042D01*
X75139425Y-3263051D01*
X75139741Y-3267465D01*
X75140681Y-3271790D01*
X75140683Y-3271798D01*
X75187847Y-3488604D01*
X75196740Y-3529485D01*
X75198283Y-3533624D01*
X75198285Y-3533628D01*
X75278646Y-3749081D01*
X75290449Y-3780726D01*
X75292569Y-3784608D01*
X75292572Y-3784615D01*
X75416831Y-4012180D01*
X75416835Y-4012187D01*
X75418958Y-4016074D01*
X75421615Y-4019623D01*
X75577000Y-4227194D01*
X75577005Y-4227200D01*
X75579653Y-4230737D01*
X75769263Y-4420347D01*
X75772800Y-4422995D01*
X75772805Y-4422999D01*
X75840211Y-4473458D01*
X75983926Y-4581042D01*
X75987816Y-4583166D01*
X75987819Y-4583168D01*
X76210450Y-4704733D01*
X76219274Y-4709551D01*
X76470515Y-4803260D01*
X76732535Y-4860259D01*
X77000000Y-4879388D01*
X77267465Y-4860259D01*
X77529485Y-4803260D01*
X77780726Y-4709551D01*
X78016074Y-4581042D01*
X78230737Y-4420347D01*
X78420347Y-4230737D01*
X78581042Y-4016074D01*
X78709551Y-3780726D01*
X78803260Y-3529485D01*
X78860259Y-3267465D01*
X78879388Y-3000000D01*
X78860259Y-2732535D01*
X78803260Y-2470515D01*
X78709551Y-2219274D01*
X78581042Y-1983926D01*
X78499803Y-1875404D01*
X78422999Y-1772805D01*
X78422995Y-1772800D01*
X78420347Y-1769263D01*
X78230737Y-1579653D01*
X78227200Y-1577005D01*
X78227194Y-1577000D01*
X78019623Y-1421615D01*
X78016074Y-1418958D01*
X78012187Y-1416835D01*
X78012180Y-1416831D01*
X77784615Y-1292572D01*
X77784608Y-1292569D01*
X77780726Y-1290449D01*
X77776576Y-1288901D01*
X77533628Y-1198285D01*
X77533624Y-1198283D01*
X77529485Y-1196740D01*
X77500140Y-1190356D01*
X77271798Y-1140683D01*
X77271790Y-1140681D01*
X77267465Y-1139741D01*
X77263051Y-1139425D01*
X77263042Y-1139424D01*
X77004418Y-1120928D01*
X77000000Y-1120612D01*
X76995582Y-1120928D01*
X76736957Y-1139424D01*
X76736946Y-1139425D01*
X76732535Y-1139741D01*
X76728211Y-1140681D01*
X76728201Y-1140683D01*
X76474840Y-1195799D01*
X76474837Y-1195799D01*
X76470515Y-1196740D01*
X76466379Y-1198282D01*
X76466371Y-1198285D01*
X76223423Y-1288901D01*
X76223417Y-1288903D01*
X76219274Y-1290449D01*
X76215396Y-1292566D01*
X76215384Y-1292572D01*
X75987819Y-1416831D01*
X75987805Y-1416839D01*
X75983926Y-1418958D01*
X75980380Y-1421611D01*
X75980376Y-1421615D01*
X75772805Y-1577000D01*
X75772792Y-1577010D01*
X75769263Y-1579653D01*
X75766137Y-1582778D01*
X75766130Y-1582785D01*
X75582785Y-1766130D01*
X75582778Y-1766137D01*
X75579653Y-1769263D01*
X75577010Y-1772792D01*
X75577000Y-1772805D01*
X75421615Y-1980376D01*
X75421611Y-1980380D01*
X75418958Y-1983926D01*
X75416839Y-1987805D01*
X75416831Y-1987819D01*
X75292572Y-2215384D01*
X75292566Y-2215396D01*
X75290449Y-2219274D01*
X75288903Y-2223417D01*
X75288901Y-2223423D01*
X75198285Y-2466371D01*
X75198282Y-2466379D01*
X75196740Y-2470515D01*
X75195799Y-2474837D01*
X75195799Y-2474840D01*
X75140683Y-2728201D01*
X75140681Y-2728211D01*
X75139741Y-2732535D01*
X75139425Y-2736946D01*
X75139424Y-2736957D01*
X75124445Y-2946400D01*
X75120612Y-3000000D01*
X70162599Y-3000000D01*
X70085859Y-2946266D01*
X70085857Y-2946264D01*
X70081430Y-2943165D01*
X70076533Y-2940881D01*
X70076527Y-2940878D01*
X69872172Y-2845586D01*
X69872170Y-2845585D01*
X69867263Y-2843297D01*
X69862038Y-2841897D01*
X69862030Y-2841894D01*
X69644234Y-2783537D01*
X69644230Y-2783536D01*
X69639008Y-2782137D01*
X69633620Y-2781665D01*
X69633617Y-2781665D01*
X69408995Y-2762013D01*
X69403600Y-2761541D01*
X69398205Y-2762013D01*
X69173582Y-2781665D01*
X69173577Y-2781665D01*
X69168192Y-2782137D01*
X69162971Y-2783535D01*
X69162965Y-2783537D01*
X68945169Y-2841894D01*
X68945157Y-2841898D01*
X68939937Y-2843297D01*
X68935032Y-2845583D01*
X68935027Y-2845586D01*
X68730681Y-2940875D01*
X68730677Y-2940877D01*
X68725771Y-2943165D01*
X68721338Y-2946268D01*
X68721331Y-2946273D01*
X68536634Y-3075599D01*
X68536629Y-3075602D01*
X68532199Y-3078705D01*
X68528375Y-3082528D01*
X68528375Y-3082529D01*
X68384438Y-3226466D01*
X68334043Y-3257045D01*
X68275221Y-3260900D01*
X68221267Y-3237157D01*
X68189297Y-3197320D01*
X68188414Y-3197866D01*
X68100102Y-3054688D01*
X68100100Y-3054685D01*
X68096312Y-3048544D01*
X67972256Y-2924488D01*
X67966115Y-2920700D01*
X67966111Y-2920697D01*
X67829080Y-2836177D01*
X67822934Y-2832386D01*
X67669868Y-2781665D01*
X67662825Y-2779331D01*
X67662824Y-2779330D01*
X67656397Y-2777201D01*
X67649664Y-2776513D01*
X67649659Y-2776512D01*
X67556740Y-2767019D01*
X67556723Y-2767018D01*
X67553609Y-2766700D01*
X67550460Y-2766700D01*
X66256740Y-2766700D01*
X66256720Y-2766700D01*
X66253592Y-2766701D01*
X66250460Y-2767020D01*
X66250458Y-2767021D01*
X66157538Y-2776512D01*
X66157528Y-2776513D01*
X66150803Y-2777201D01*
X66144381Y-2779328D01*
X66144376Y-2779330D01*
X65991121Y-2830114D01*
X65991117Y-2830115D01*
X65984266Y-2832386D01*
X65978122Y-2836175D01*
X65978119Y-2836177D01*
X65841088Y-2920697D01*
X65841080Y-2920703D01*
X65834944Y-2924488D01*
X65829842Y-2929589D01*
X65829838Y-2929593D01*
X65715993Y-3043438D01*
X65715989Y-3043442D01*
X65710888Y-3048544D01*
X65707103Y-3054680D01*
X65707097Y-3054688D01*
X65622577Y-3191719D01*
X65618786Y-3197866D01*
X65616515Y-3204717D01*
X65616514Y-3204721D01*
X65565731Y-3357974D01*
X65563601Y-3364403D01*
X65562913Y-3371133D01*
X65562912Y-3371140D01*
X65553419Y-3464059D01*
X65553418Y-3464077D01*
X65553100Y-3467191D01*
X65553100Y-3470338D01*
X65553100Y-3470339D01*
X65553100Y-5064059D01*
X65553100Y-5064078D01*
X60322099Y-5064078D01*
X60322099Y-3884528D01*
X60315691Y-3824917D01*
X60265396Y-3690069D01*
X60179146Y-3574854D01*
X60141629Y-3546769D01*
X60071031Y-3493919D01*
X60071030Y-3493918D01*
X60063931Y-3488604D01*
X59929083Y-3438309D01*
X59921370Y-3437479D01*
X59921367Y-3437479D01*
X59872780Y-3432255D01*
X59872769Y-3432254D01*
X59869473Y-3431900D01*
X59866150Y-3431900D01*
X57177039Y-3431900D01*
X57177020Y-3431900D01*
X57173728Y-3431901D01*
X57170450Y-3432253D01*
X57170438Y-3432254D01*
X57121831Y-3437479D01*
X57121825Y-3437480D01*
X57114117Y-3438309D01*
X57106852Y-3441018D01*
X57106846Y-3441020D01*
X56987580Y-3485504D01*
X56987578Y-3485504D01*
X56979269Y-3488604D01*
X56972172Y-3493916D01*
X56972168Y-3493919D01*
X56871150Y-3569541D01*
X56871146Y-3569544D01*
X56864054Y-3574854D01*
X56858744Y-3581946D01*
X56858741Y-3581950D01*
X56783119Y-3682968D01*
X56783116Y-3682972D01*
X56777804Y-3690069D01*
X56774704Y-3698378D01*
X56774704Y-3698380D01*
X56730220Y-3817647D01*
X56730219Y-3817650D01*
X56727509Y-3824917D01*
X56726679Y-3832627D01*
X56726679Y-3832632D01*
X56721455Y-3881219D01*
X56721454Y-3881231D01*
X56721100Y-3884527D01*
X56721100Y-3887848D01*
X56721100Y-3887849D01*
X56721100Y-6576960D01*
X56721100Y-6576978D01*
X54639611Y-6576978D01*
X54765161Y-6460485D01*
X54933415Y-6249502D01*
X55068343Y-6015798D01*
X55166934Y-5764595D01*
X55226983Y-5501503D01*
X55247149Y-5232400D01*
X55226983Y-4963297D01*
X55166934Y-4700205D01*
X55068343Y-4449002D01*
X54933415Y-4215298D01*
X54765161Y-4004315D01*
X54666251Y-3912540D01*
X54570746Y-3823924D01*
X54570743Y-3823921D01*
X54567341Y-3820765D01*
X54563512Y-3818154D01*
X54563509Y-3818152D01*
X54415344Y-3717135D01*
X54344375Y-3668749D01*
X54331968Y-3662774D01*
X54105420Y-3553674D01*
X54105414Y-3553671D01*
X54101241Y-3551662D01*
X54096819Y-3550298D01*
X54096809Y-3550294D01*
X53847802Y-3473486D01*
X53847796Y-3473484D01*
X53843372Y-3472120D01*
X53838795Y-3471430D01*
X53838786Y-3471428D01*
X53581114Y-3432591D01*
X53581113Y-3432590D01*
X53576529Y-3431900D01*
X53306671Y-3431900D01*
X53302087Y-3432590D01*
X53302085Y-3432591D01*
X53044413Y-3471428D01*
X53044401Y-3471430D01*
X53039828Y-3472120D01*
X53035406Y-3473483D01*
X53035397Y-3473486D01*
X52786390Y-3550294D01*
X52786375Y-3550299D01*
X52781959Y-3551662D01*
X52777785Y-3553671D01*
X52777780Y-3553674D01*
X52543011Y-3666733D01*
X52543004Y-3666736D01*
X52538826Y-3668749D01*
X52534993Y-3671362D01*
X52534990Y-3671364D01*
X52319690Y-3818152D01*
X52319680Y-3818159D01*
X52315859Y-3820765D01*
X52312463Y-3823916D01*
X52312453Y-3823924D01*
X52121443Y-4001156D01*
X52121439Y-4001159D01*
X52118039Y-4004315D01*
X52115149Y-4007937D01*
X52115146Y-4007942D01*
X51972677Y-4186592D01*
X51949785Y-4215298D01*
X51947466Y-4219313D01*
X51947465Y-4219316D01*
X51817178Y-4444981D01*
X51817175Y-4444986D01*
X51814857Y-4449002D01*
X51813163Y-4453316D01*
X51813161Y-4453322D01*
X51717963Y-4695880D01*
X51716266Y-4700205D01*
X51715233Y-4704726D01*
X51715232Y-4704733D01*
X51657248Y-4958777D01*
X51657246Y-4958785D01*
X51656217Y-4963297D01*
X51655870Y-4967916D01*
X51655870Y-4967922D01*
X51636916Y-5220857D01*
X51636051Y-5232400D01*
X48536499Y-5232400D01*
X48536499Y-3884528D01*
X48530091Y-3824917D01*
X48479796Y-3690069D01*
X48393546Y-3574854D01*
X48356029Y-3546769D01*
X48285431Y-3493919D01*
X48285430Y-3493918D01*
X48278331Y-3488604D01*
X48143483Y-3438309D01*
X48135770Y-3437479D01*
X48135767Y-3437479D01*
X48087180Y-3432255D01*
X48087169Y-3432254D01*
X48083873Y-3431900D01*
X48080550Y-3431900D01*
X45391439Y-3431900D01*
X45391420Y-3431900D01*
X45388128Y-3431901D01*
X45384850Y-3432253D01*
X45384838Y-3432254D01*
X45336231Y-3437479D01*
X45336225Y-3437480D01*
X45328517Y-3438309D01*
X45321252Y-3441018D01*
X45321246Y-3441020D01*
X45201980Y-3485504D01*
X45201978Y-3485504D01*
X45193669Y-3488604D01*
X45186572Y-3493916D01*
X45186568Y-3493919D01*
X45085550Y-3569541D01*
X45085546Y-3569544D01*
X45078454Y-3574854D01*
X45073144Y-3581946D01*
X45073141Y-3581950D01*
X44997519Y-3682968D01*
X44997516Y-3682972D01*
X44992204Y-3690069D01*
X44989104Y-3698378D01*
X44989104Y-3698380D01*
X44944620Y-3817647D01*
X44944619Y-3817650D01*
X44941909Y-3824917D01*
X44941079Y-3832627D01*
X44941079Y-3832632D01*
X44935855Y-3881219D01*
X44935854Y-3881231D01*
X44935500Y-3884527D01*
X44935500Y-3887848D01*
X44935500Y-3887849D01*
X44935500Y-6576960D01*
X44935500Y-6576978D01*
X42854011Y-6576978D01*
X42979561Y-6460485D01*
X43147815Y-6249502D01*
X43282743Y-6015798D01*
X43381334Y-5764595D01*
X43441383Y-5501503D01*
X43461549Y-5232400D01*
X43441383Y-4963297D01*
X43381334Y-4700205D01*
X43282743Y-4449002D01*
X43147815Y-4215298D01*
X42979561Y-4004315D01*
X42880651Y-3912540D01*
X42785146Y-3823924D01*
X42785143Y-3823921D01*
X42781741Y-3820765D01*
X42777912Y-3818154D01*
X42777909Y-3818152D01*
X42629744Y-3717135D01*
X42558775Y-3668749D01*
X42546368Y-3662774D01*
X42319820Y-3553674D01*
X42319814Y-3553671D01*
X42315641Y-3551662D01*
X42311219Y-3550298D01*
X42311209Y-3550294D01*
X42062202Y-3473486D01*
X42062196Y-3473484D01*
X42057772Y-3472120D01*
X42053195Y-3471430D01*
X42053186Y-3471428D01*
X41795514Y-3432591D01*
X41795513Y-3432590D01*
X41790929Y-3431900D01*
X41521071Y-3431900D01*
X41516487Y-3432590D01*
X41516485Y-3432591D01*
X41258813Y-3471428D01*
X41258801Y-3471430D01*
X41254228Y-3472120D01*
X41249806Y-3473483D01*
X41249797Y-3473486D01*
X41000790Y-3550294D01*
X41000775Y-3550299D01*
X40996359Y-3551662D01*
X40992185Y-3553671D01*
X40992180Y-3553674D01*
X40757411Y-3666733D01*
X40757404Y-3666736D01*
X40753226Y-3668749D01*
X40749393Y-3671362D01*
X40749390Y-3671364D01*
X40534090Y-3818152D01*
X40534080Y-3818159D01*
X40530259Y-3820765D01*
X40526863Y-3823916D01*
X40526853Y-3823924D01*
X40335843Y-4001156D01*
X40335839Y-4001159D01*
X40332439Y-4004315D01*
X40329549Y-4007937D01*
X40329546Y-4007942D01*
X40187077Y-4186592D01*
X40164185Y-4215298D01*
X40161866Y-4219313D01*
X40161865Y-4219316D01*
X40031578Y-4444981D01*
X40031575Y-4444986D01*
X40029257Y-4449002D01*
X40027563Y-4453316D01*
X40027561Y-4453322D01*
X39932363Y-4695880D01*
X39930666Y-4700205D01*
X39929633Y-4704726D01*
X39929632Y-4704733D01*
X39871648Y-4958777D01*
X39871646Y-4958785D01*
X39870617Y-4963297D01*
X39870270Y-4967916D01*
X39870270Y-4967922D01*
X39851316Y-5220857D01*
X39850451Y-5232400D01*
X36547699Y-5232400D01*
X36547699Y-3884528D01*
X36541291Y-3824917D01*
X36490996Y-3690069D01*
X36404746Y-3574854D01*
X36367229Y-3546769D01*
X36296631Y-3493919D01*
X36296630Y-3493918D01*
X36289531Y-3488604D01*
X36154683Y-3438309D01*
X36146970Y-3437479D01*
X36146967Y-3437479D01*
X36098380Y-3432255D01*
X36098369Y-3432254D01*
X36095073Y-3431900D01*
X36091750Y-3431900D01*
X33402639Y-3431900D01*
X33402620Y-3431900D01*
X33399328Y-3431901D01*
X33396050Y-3432253D01*
X33396038Y-3432254D01*
X33347431Y-3437479D01*
X33347425Y-3437480D01*
X33339717Y-3438309D01*
X33332452Y-3441018D01*
X33332446Y-3441020D01*
X33213180Y-3485504D01*
X33213178Y-3485504D01*
X33204869Y-3488604D01*
X33197772Y-3493916D01*
X33197768Y-3493919D01*
X33096750Y-3569541D01*
X33096746Y-3569544D01*
X33089654Y-3574854D01*
X33084344Y-3581946D01*
X33084341Y-3581950D01*
X33008719Y-3682968D01*
X33008716Y-3682972D01*
X33003404Y-3690069D01*
X33000304Y-3698378D01*
X33000304Y-3698380D01*
X32955820Y-3817647D01*
X32955819Y-3817650D01*
X32953109Y-3824917D01*
X32952279Y-3832627D01*
X32952279Y-3832632D01*
X32947055Y-3881219D01*
X32947054Y-3881231D01*
X32946700Y-3884527D01*
X32946700Y-3887848D01*
X32946700Y-3887849D01*
X32946700Y-6576960D01*
X32946700Y-6576978D01*
X30658225Y-6576978D01*
X29678742Y-5597495D01*
X29667200Y-5590831D01*
X29655657Y-5597495D01*
X28591721Y-6661430D01*
X28585804Y-6670750D01*
X406400Y-6670750D01*
X406400Y-5368878D01*
X8849500Y-5368878D01*
X8849501Y-5372008D01*
X8849820Y-5375140D01*
X8849821Y-5375141D01*
X8859312Y-5468061D01*
X8859313Y-5468069D01*
X8860001Y-5474797D01*
X8862129Y-5481219D01*
X8862130Y-5481223D01*
X8912914Y-5634478D01*
X8915186Y-5641334D01*
X8918977Y-5647480D01*
X9003497Y-5784511D01*
X9003500Y-5784515D01*
X9007288Y-5790656D01*
X9131344Y-5914712D01*
X9137485Y-5918500D01*
X9137488Y-5918502D01*
X9194558Y-5953702D01*
X9280666Y-6006814D01*
X9447203Y-6061999D01*
X9549991Y-6072500D01*
X10850008Y-6072499D01*
X10952797Y-6061999D01*
X11119334Y-6006814D01*
X11268656Y-5914712D01*
X11392712Y-5790656D01*
X11484814Y-5641334D01*
X11485698Y-5641879D01*
X11517662Y-5602046D01*
X11571618Y-5578300D01*
X11630441Y-5582153D01*
X11680838Y-5612734D01*
X11828599Y-5760495D01*
X11833031Y-5763598D01*
X11833033Y-5763600D01*
X11862897Y-5784511D01*
X12022170Y-5896035D01*
X12027070Y-5898320D01*
X12027072Y-5898321D01*
X12051273Y-5909606D01*
X12236337Y-5995903D01*
X12464592Y-6057063D01*
X12700000Y-6077659D01*
X12935408Y-6057063D01*
X13163663Y-5995903D01*
X13377829Y-5896035D01*
X13571401Y-5760495D01*
X13738495Y-5593401D01*
X13874035Y-5399829D01*
X13888468Y-5368878D01*
X19161900Y-5368878D01*
X19161901Y-5372008D01*
X19162220Y-5375140D01*
X19162221Y-5375141D01*
X19171712Y-5468061D01*
X19171713Y-5468069D01*
X19172401Y-5474797D01*
X19174529Y-5481219D01*
X19174530Y-5481223D01*
X19225314Y-5634478D01*
X19227586Y-5641334D01*
X19231377Y-5647480D01*
X19315897Y-5784511D01*
X19315900Y-5784515D01*
X19319688Y-5790656D01*
X19443744Y-5914712D01*
X19449885Y-5918500D01*
X19449888Y-5918502D01*
X19506958Y-5953702D01*
X19593066Y-6006814D01*
X19759603Y-6061999D01*
X19862391Y-6072500D01*
X21162408Y-6072499D01*
X21265197Y-6061999D01*
X21431734Y-6006814D01*
X21581056Y-5914712D01*
X21705112Y-5790656D01*
X21797214Y-5641334D01*
X21798098Y-5641879D01*
X21830062Y-5602046D01*
X21884018Y-5578300D01*
X21942841Y-5582153D01*
X21993238Y-5612734D01*
X22140999Y-5760495D01*
X22145431Y-5763598D01*
X22145433Y-5763600D01*
X22175297Y-5784511D01*
X22334570Y-5896035D01*
X22339470Y-5898320D01*
X22339472Y-5898321D01*
X22363673Y-5909606D01*
X22548737Y-5995903D01*
X22776992Y-6057063D01*
X23012400Y-6077659D01*
X23247808Y-6057063D01*
X23476063Y-5995903D01*
X23690229Y-5896035D01*
X23883801Y-5760495D01*
X24050895Y-5593401D01*
X24186435Y-5399829D01*
X24262350Y-5237030D01*
X27862500Y-5237030D01*
X27881967Y-5496799D01*
X27883346Y-5505952D01*
X27941311Y-5759915D01*
X27944044Y-5768775D01*
X28039211Y-6011256D01*
X28043230Y-6019602D01*
X28173478Y-6245198D01*
X28178696Y-6252850D01*
X28218579Y-6302862D01*
X28229815Y-6310835D01*
X28241874Y-6304171D01*
X29302104Y-5243942D01*
X29308768Y-5232400D01*
X30025631Y-5232400D01*
X30032295Y-5243942D01*
X31092525Y-6304172D01*
X31104582Y-6310836D01*
X31115819Y-6302863D01*
X31155707Y-6252845D01*
X31160919Y-6245200D01*
X31291169Y-6019602D01*
X31295188Y-6011256D01*
X31390355Y-5768775D01*
X31393088Y-5759915D01*
X31451053Y-5505952D01*
X31452432Y-5496799D01*
X31471900Y-5237030D01*
X31471900Y-5227770D01*
X31452432Y-4968000D01*
X31451053Y-4958847D01*
X31393088Y-4704884D01*
X31390355Y-4696024D01*
X31295188Y-4453543D01*
X31291169Y-4445197D01*
X31160921Y-4219601D01*
X31155703Y-4211949D01*
X31115819Y-4161936D01*
X31104582Y-4153962D01*
X31092525Y-4160626D01*
X30032295Y-5220857D01*
X30025631Y-5232400D01*
X29308768Y-5232400D01*
X29302104Y-5220857D01*
X28241874Y-4160627D01*
X28229815Y-4153962D01*
X28218580Y-4161934D01*
X28178688Y-4211958D01*
X28173482Y-4219595D01*
X28043230Y-4445197D01*
X28039211Y-4453543D01*
X27944044Y-4696024D01*
X27941311Y-4704884D01*
X27883346Y-4958847D01*
X27881967Y-4968000D01*
X27862500Y-5227770D01*
X27862500Y-5237030D01*
X24262350Y-5237030D01*
X24286303Y-5185663D01*
X24347463Y-4957408D01*
X24362900Y-4780966D01*
X24362900Y-4363034D01*
X24347463Y-4186592D01*
X24297776Y-4001156D01*
X24287705Y-3963569D01*
X24287704Y-3963567D01*
X24286303Y-3958337D01*
X24209693Y-3794048D01*
X28585803Y-3794048D01*
X28591719Y-3803366D01*
X29655657Y-4867304D01*
X29667200Y-4873968D01*
X29678742Y-4867304D01*
X30742677Y-3803368D01*
X30748594Y-3794048D01*
X30741046Y-3785989D01*
X30573560Y-3671798D01*
X30565540Y-3667168D01*
X30330837Y-3554141D01*
X30322227Y-3550762D01*
X30073291Y-3473975D01*
X30064275Y-3471917D01*
X29806676Y-3433091D01*
X29797454Y-3432400D01*
X29536946Y-3432400D01*
X29527723Y-3433091D01*
X29270124Y-3471917D01*
X29261108Y-3473975D01*
X29012173Y-3550761D01*
X29003562Y-3554141D01*
X28768860Y-3667168D01*
X28760839Y-3671799D01*
X28593351Y-3785990D01*
X28585803Y-3794048D01*
X24209693Y-3794048D01*
X24186435Y-3744171D01*
X24050895Y-3550599D01*
X23883801Y-3383505D01*
X23879370Y-3380402D01*
X23879366Y-3380399D01*
X23694659Y-3251066D01*
X23694657Y-3251064D01*
X23690230Y-3247965D01*
X23685333Y-3245681D01*
X23685327Y-3245678D01*
X23480972Y-3150386D01*
X23480970Y-3150385D01*
X23476063Y-3148097D01*
X23470838Y-3146697D01*
X23470830Y-3146694D01*
X23253034Y-3088337D01*
X23253030Y-3088336D01*
X23247808Y-3086937D01*
X23242420Y-3086465D01*
X23242417Y-3086465D01*
X23017795Y-3066813D01*
X23012400Y-3066341D01*
X23007005Y-3066813D01*
X22782382Y-3086465D01*
X22782377Y-3086465D01*
X22776992Y-3086937D01*
X22771771Y-3088335D01*
X22771765Y-3088337D01*
X22553969Y-3146694D01*
X22553957Y-3146698D01*
X22548737Y-3148097D01*
X22543832Y-3150383D01*
X22543827Y-3150386D01*
X22339481Y-3245675D01*
X22339477Y-3245677D01*
X22334571Y-3247965D01*
X22330138Y-3251068D01*
X22330131Y-3251073D01*
X22145434Y-3380399D01*
X22145429Y-3380402D01*
X22140999Y-3383505D01*
X22137175Y-3387328D01*
X22137175Y-3387329D01*
X21993238Y-3531266D01*
X21942843Y-3561845D01*
X21884021Y-3565700D01*
X21830067Y-3541957D01*
X21798097Y-3502120D01*
X21797214Y-3502666D01*
X21708902Y-3359488D01*
X21708900Y-3359485D01*
X21705112Y-3353344D01*
X21581056Y-3229288D01*
X21574915Y-3225500D01*
X21574911Y-3225497D01*
X21437880Y-3140977D01*
X21431734Y-3137186D01*
X21278668Y-3086465D01*
X21271625Y-3084131D01*
X21271624Y-3084130D01*
X21265197Y-3082001D01*
X21258464Y-3081313D01*
X21258459Y-3081312D01*
X21165540Y-3071819D01*
X21165523Y-3071818D01*
X21162409Y-3071500D01*
X21159260Y-3071500D01*
X19865540Y-3071500D01*
X19865520Y-3071500D01*
X19862392Y-3071501D01*
X19859260Y-3071820D01*
X19859258Y-3071821D01*
X19766338Y-3081312D01*
X19766328Y-3081313D01*
X19759603Y-3082001D01*
X19753181Y-3084128D01*
X19753176Y-3084130D01*
X19599921Y-3134914D01*
X19599917Y-3134915D01*
X19593066Y-3137186D01*
X19586922Y-3140975D01*
X19586919Y-3140977D01*
X19449888Y-3225497D01*
X19449880Y-3225503D01*
X19443744Y-3229288D01*
X19438642Y-3234389D01*
X19438638Y-3234393D01*
X19324793Y-3348238D01*
X19324789Y-3348242D01*
X19319688Y-3353344D01*
X19315903Y-3359480D01*
X19315897Y-3359488D01*
X19236259Y-3488604D01*
X19227586Y-3502666D01*
X19225315Y-3509517D01*
X19225314Y-3509521D01*
X19179219Y-3648627D01*
X19172401Y-3669203D01*
X19171713Y-3675933D01*
X19171712Y-3675940D01*
X19162219Y-3768859D01*
X19162218Y-3768877D01*
X19161900Y-3771991D01*
X19161900Y-3775138D01*
X19161900Y-3775139D01*
X19161900Y-5368859D01*
X19161900Y-5368878D01*
X13888468Y-5368878D01*
X13973903Y-5185663D01*
X14035063Y-4957408D01*
X14050500Y-4780966D01*
X14050500Y-4363034D01*
X14035063Y-4186592D01*
X13985376Y-4001156D01*
X13975305Y-3963569D01*
X13975304Y-3963567D01*
X13973903Y-3958337D01*
X13874035Y-3744171D01*
X13738495Y-3550599D01*
X13571401Y-3383505D01*
X13566970Y-3380402D01*
X13566966Y-3380399D01*
X13382259Y-3251066D01*
X13382257Y-3251064D01*
X13377830Y-3247965D01*
X13372933Y-3245681D01*
X13372927Y-3245678D01*
X13168572Y-3150386D01*
X13168570Y-3150385D01*
X13163663Y-3148097D01*
X13158438Y-3146697D01*
X13158430Y-3146694D01*
X12940634Y-3088337D01*
X12940630Y-3088336D01*
X12935408Y-3086937D01*
X12930020Y-3086465D01*
X12930017Y-3086465D01*
X12705395Y-3066813D01*
X12700000Y-3066341D01*
X12694605Y-3066813D01*
X12469982Y-3086465D01*
X12469977Y-3086465D01*
X12464592Y-3086937D01*
X12459371Y-3088335D01*
X12459365Y-3088337D01*
X12241569Y-3146694D01*
X12241557Y-3146698D01*
X12236337Y-3148097D01*
X12231432Y-3150383D01*
X12231427Y-3150386D01*
X12027081Y-3245675D01*
X12027077Y-3245677D01*
X12022171Y-3247965D01*
X12017738Y-3251068D01*
X12017731Y-3251073D01*
X11833034Y-3380399D01*
X11833029Y-3380402D01*
X11828599Y-3383505D01*
X11824775Y-3387329D01*
X11680838Y-3531266D01*
X11630443Y-3561845D01*
X11571621Y-3565700D01*
X11517667Y-3541957D01*
X11485697Y-3502120D01*
X11484814Y-3502666D01*
X11396502Y-3359488D01*
X11396500Y-3359485D01*
X11392712Y-3353344D01*
X11268656Y-3229288D01*
X11262515Y-3225500D01*
X11262511Y-3225497D01*
X11125480Y-3140977D01*
X11119334Y-3137186D01*
X10966268Y-3086465D01*
X10959225Y-3084131D01*
X10959224Y-3084130D01*
X10952797Y-3082001D01*
X10946064Y-3081313D01*
X10946059Y-3081312D01*
X10853140Y-3071819D01*
X10853123Y-3071818D01*
X10850009Y-3071500D01*
X10846860Y-3071500D01*
X9553140Y-3071500D01*
X9553120Y-3071500D01*
X9549992Y-3071501D01*
X9546860Y-3071820D01*
X9546858Y-3071821D01*
X9453938Y-3081312D01*
X9453928Y-3081313D01*
X9447203Y-3082001D01*
X9440781Y-3084128D01*
X9440776Y-3084130D01*
X9287521Y-3134914D01*
X9287517Y-3134915D01*
X9280666Y-3137186D01*
X9274522Y-3140975D01*
X9274519Y-3140977D01*
X9137488Y-3225497D01*
X9137480Y-3225503D01*
X9131344Y-3229288D01*
X9126242Y-3234389D01*
X9126238Y-3234393D01*
X9012393Y-3348238D01*
X9012389Y-3348242D01*
X9007288Y-3353344D01*
X9003503Y-3359480D01*
X9003497Y-3359488D01*
X8923859Y-3488604D01*
X8915186Y-3502666D01*
X8912915Y-3509517D01*
X8912914Y-3509521D01*
X8866819Y-3648627D01*
X8860001Y-3669203D01*
X8859313Y-3675933D01*
X8859312Y-3675940D01*
X8849819Y-3768859D01*
X8849818Y-3768877D01*
X8849500Y-3771991D01*
X8849500Y-3775138D01*
X8849500Y-3775139D01*
X8849500Y-5368859D01*
X8849500Y-5368878D01*
X406400Y-5368878D01*
X406400Y-2946400D01*
X1447212Y-2946400D01*
X1447528Y-2950818D01*
X1466024Y-3209442D01*
X1466025Y-3209451D01*
X1466341Y-3213865D01*
X1467281Y-3218190D01*
X1467283Y-3218198D01*
X1513772Y-3431900D01*
X1523340Y-3475885D01*
X1524883Y-3480024D01*
X1524885Y-3480028D01*
X1615501Y-3722976D01*
X1617049Y-3727126D01*
X1619169Y-3731008D01*
X1619172Y-3731015D01*
X1743431Y-3958580D01*
X1743435Y-3958587D01*
X1745558Y-3962474D01*
X1748215Y-3966023D01*
X1903600Y-4173594D01*
X1903605Y-4173600D01*
X1906253Y-4177137D01*
X2095863Y-4366747D01*
X2099400Y-4369395D01*
X2099405Y-4369399D01*
X2161620Y-4415972D01*
X2310526Y-4527442D01*
X2314416Y-4529566D01*
X2314419Y-4529568D01*
X2539752Y-4652608D01*
X2545874Y-4655951D01*
X2797115Y-4749660D01*
X3059135Y-4806659D01*
X3326600Y-4825788D01*
X3594065Y-4806659D01*
X3856085Y-4749660D01*
X4107326Y-4655951D01*
X4342674Y-4527442D01*
X4557337Y-4366747D01*
X4746947Y-4177137D01*
X4907642Y-3962474D01*
X5036151Y-3727126D01*
X5129860Y-3475885D01*
X5186859Y-3213865D01*
X5205988Y-2946400D01*
X5186859Y-2678935D01*
X5129860Y-2416915D01*
X5036151Y-2165674D01*
X5034027Y-2161784D01*
X4909768Y-1934219D01*
X4909766Y-1934216D01*
X4907642Y-1930326D01*
X4784726Y-1766130D01*
X4749599Y-1719205D01*
X4749595Y-1719200D01*
X4746947Y-1715663D01*
X4557337Y-1526053D01*
X4553800Y-1523405D01*
X4553794Y-1523400D01*
X4346223Y-1368015D01*
X4342674Y-1365358D01*
X4338787Y-1363235D01*
X4338780Y-1363231D01*
X4111215Y-1238972D01*
X4111208Y-1238969D01*
X4107326Y-1236849D01*
X4103176Y-1235301D01*
X3860228Y-1144685D01*
X3860224Y-1144683D01*
X3856085Y-1143140D01*
X3779133Y-1126400D01*
X3598398Y-1087083D01*
X3598390Y-1087081D01*
X3594065Y-1086141D01*
X3589651Y-1085825D01*
X3589642Y-1085824D01*
X3331018Y-1067328D01*
X3326600Y-1067012D01*
X3322182Y-1067328D01*
X3063557Y-1085824D01*
X3063546Y-1085825D01*
X3059135Y-1086141D01*
X3054811Y-1087081D01*
X3054801Y-1087083D01*
X2801440Y-1142199D01*
X2801437Y-1142199D01*
X2797115Y-1143140D01*
X2792979Y-1144682D01*
X2792971Y-1144685D01*
X2550023Y-1235301D01*
X2550017Y-1235303D01*
X2545874Y-1236849D01*
X2541996Y-1238966D01*
X2541984Y-1238972D01*
X2314419Y-1363231D01*
X2314405Y-1363239D01*
X2310526Y-1365358D01*
X2306980Y-1368011D01*
X2306976Y-1368015D01*
X2099405Y-1523400D01*
X2099392Y-1523410D01*
X2095863Y-1526053D01*
X2092737Y-1529178D01*
X2092730Y-1529185D01*
X1909385Y-1712530D01*
X1909378Y-1712537D01*
X1906253Y-1715663D01*
X1903610Y-1719192D01*
X1903600Y-1719205D01*
X1748215Y-1926776D01*
X1748211Y-1926780D01*
X1745558Y-1930326D01*
X1743439Y-1934205D01*
X1743431Y-1934219D01*
X1619172Y-2161784D01*
X1619166Y-2161796D01*
X1617049Y-2165674D01*
X1615503Y-2169817D01*
X1615501Y-2169823D01*
X1524885Y-2412771D01*
X1524882Y-2412779D01*
X1523340Y-2416915D01*
X1522399Y-2421237D01*
X1522399Y-2421240D01*
X1467283Y-2674601D01*
X1467281Y-2674611D01*
X1466341Y-2678935D01*
X1466025Y-2683346D01*
X1466024Y-2683357D01*
X1455366Y-2832386D01*
X1447212Y-2946400D01*
X406400Y-2946400D01*
X406400Y-174879D01*
X423026Y-112856D01*
X468446Y-67466D01*
X530479Y-50879D01*
X23608793Y-65559D01*
G37*
%TD.AperFunction*%
%TD*%
M02*
