%TF.GenerationSoftware,KiCad,Pcbnew,7.0.7*%
%TF.CreationDate,2023-09-26T10:41:10-05:00*%
%TF.ProjectId,DingoPCB,44696e67-6f50-4434-922e-6b696361645f,rev?*%
%TF.SameCoordinates,Original*%
%TF.FileFunction,Drillmap*%
%TF.FilePolarity,Positive*%
%FSLAX45Y45*%
G04 Gerber Fmt 4.5, Leading zero omitted, Abs format (unit mm)*
G04 Created by KiCad (PCBNEW 7.0.7) date 2023-09-26 10:41:10*
%MOMM*%
%LPD*%
G01*
G04 APERTURE LIST*
%ADD10C,0.349999*%
%ADD11C,0.100000*%
%ADD12C,0.200000*%
%ADD13C,0.040000*%
G04 APERTURE END LIST*
D10*
X2782342Y-7097769D02*
X2779112Y-7083444D01*
X10586931Y-2066901D02*
X10588160Y-2116488D01*
X10500291Y-15628621D02*
X10510550Y-15617841D01*
X1905967Y-1645597D02*
X1884042Y-1689205D01*
X10305364Y-5619599D02*
X10303740Y-5625935D01*
X2450987Y-1175045D02*
X2405477Y-1192609D01*
X2081054Y-1409381D02*
X2046859Y-1445314D01*
X10529292Y-15594970D02*
X10537756Y-15582929D01*
X9970842Y-1192608D02*
X10015442Y-1212370D01*
X10587016Y-4812550D02*
X10587516Y-4806025D01*
X10295266Y-1409381D02*
X10329460Y-1445314D01*
X1788529Y-15431364D02*
X1789628Y-15446139D01*
X10577944Y-4864001D02*
X10579568Y-4857664D01*
X10142959Y-1284500D02*
X10183098Y-1312712D01*
X2233360Y-1284500D02*
X2193221Y-1312712D01*
X1847027Y-11678086D02*
X1838564Y-11690128D01*
X10361695Y-1482730D02*
X10391935Y-1521549D01*
X2765324Y-7041764D02*
X2759395Y-7028384D01*
X2088160Y-15716488D02*
X10288160Y-15716488D01*
X1846717Y-1779314D02*
X1831385Y-1825653D01*
X10579112Y-15489613D02*
X10582342Y-15475288D01*
X1984384Y-1521549D02*
X1956172Y-1561687D01*
X10574282Y-12695460D02*
X10572244Y-12689232D01*
X10288160Y-15716488D02*
X10303036Y-15716120D01*
X10311064Y-5600802D02*
X10309026Y-5607030D01*
X2640491Y-1127447D02*
X2592159Y-1135880D01*
X1789628Y-11826917D02*
X1788529Y-11841692D01*
X1793054Y-2017650D02*
X1789389Y-2066901D01*
X10429426Y-15681146D02*
X10442186Y-15673930D01*
X1801128Y-11769318D02*
X1797208Y-11783443D01*
X10329460Y-1445314D02*
X10361695Y-1482730D01*
X10489511Y-15638879D02*
X10500291Y-15628621D01*
X10295147Y-11874808D02*
X10295218Y-11881367D01*
X1816925Y-11728383D02*
X1810996Y-11741763D01*
X1793978Y-15475288D02*
X1797208Y-15489613D01*
X1973355Y-15693652D02*
X1987008Y-15698921D01*
X1856099Y-15606616D02*
X1865770Y-15617841D01*
X2759396Y-10736224D02*
X2765324Y-10722844D01*
X10389311Y-15698921D02*
X10402964Y-15693652D01*
X2015035Y-15707441D02*
X2029360Y-15710671D01*
X10101582Y-1258349D02*
X10142959Y-1284500D01*
X1810996Y-15531293D02*
X1816924Y-15544673D01*
X10583602Y-12733556D02*
X10582397Y-12727131D01*
X2154403Y-1342953D02*
X2116986Y-1375187D01*
X10558001Y-1872738D02*
X10568767Y-1920487D01*
X1886808Y-15638879D02*
X1898033Y-15648549D01*
X2779113Y-10681164D02*
X2782343Y-10666839D01*
X1830719Y-11702541D02*
X1823502Y-11715301D01*
X10577944Y-12708029D02*
X10576182Y-12701726D01*
X10588160Y-12785650D02*
X10588088Y-12779092D01*
X10303036Y-15716120D02*
X10317811Y-15715020D01*
D11*
X4034600Y-2600000D02*
G75*
G03*
X4034600Y-2600000I-250000J0D01*
G01*
D10*
X10298640Y-11920457D02*
X10299705Y-11926906D01*
X1856100Y-11666441D02*
X1847027Y-11678086D01*
X1797208Y-15489613D02*
X1801128Y-15503739D01*
X2000909Y-15703521D02*
X2015035Y-15707441D01*
X10510550Y-15617841D02*
X10520220Y-15606616D01*
X10582397Y-4844898D02*
X10583602Y-4838473D01*
X1788160Y-5908040D02*
X1788529Y-5922916D01*
X10572244Y-12689232D02*
X10570069Y-12683046D01*
X2745602Y-10762066D02*
X2752818Y-10749306D01*
X1898033Y-15648549D02*
X1909678Y-15657621D01*
X1987008Y-15698921D02*
X2000909Y-15703521D01*
X10587791Y-15431364D02*
X10588160Y-15416488D01*
X1788529Y-11841692D02*
X1788160Y-11856568D01*
X10579568Y-4857664D02*
X10581052Y-4851296D01*
X10565323Y-15531293D02*
X10570593Y-15517640D01*
X10584667Y-12740005D02*
X10583602Y-12733556D01*
X10585591Y-12746477D02*
X10584667Y-12740005D01*
X1810996Y-6022844D02*
X1816925Y-6036223D01*
X10587873Y-12772543D02*
X10587516Y-12766004D01*
X1864281Y-1733804D02*
X1846717Y-1779314D01*
X10307126Y-11958738D02*
X10309026Y-11965004D01*
X1847027Y-15594970D02*
X1856099Y-15606616D01*
X10581052Y-4851296D02*
X10582397Y-4844898D01*
X2737756Y-6990129D02*
X2729292Y-6978087D01*
X1865770Y-6109391D02*
X1876028Y-6120171D01*
X1818319Y-1872737D02*
X1807553Y-1920487D01*
X10299706Y-5645125D02*
X10298642Y-5651574D01*
X2788160Y-7156568D02*
X2787791Y-7141692D01*
X10297717Y-5658046D02*
X10296934Y-5664538D01*
X10302255Y-11939729D02*
X10303740Y-11946098D01*
X2775193Y-10695289D02*
X2779113Y-10681164D01*
X1797208Y-11783443D02*
X1793978Y-11797768D01*
X1930021Y-1603064D02*
X1905967Y-1645597D01*
X10303740Y-11946098D02*
X10305363Y-11952435D01*
X1789389Y-2066901D02*
X1788160Y-2116488D01*
D11*
X8850000Y-2600000D02*
G75*
G03*
X8850000Y-2600000I-250000J0D01*
G01*
D10*
X10537756Y-15582929D02*
X10545601Y-15570515D01*
X10309026Y-5607030D02*
X10307126Y-5613296D01*
X9735829Y-1127447D02*
X9784161Y-1135880D01*
X10582397Y-12727131D02*
X10581052Y-12720734D01*
X1816924Y-15544673D02*
X1823502Y-15557755D01*
X1831385Y-1825653D02*
X1818319Y-1872737D01*
X2116986Y-1375187D02*
X2081054Y-1409381D01*
X10544934Y-1825653D02*
X10558001Y-1872738D01*
X2720220Y-6966442D02*
X2710550Y-6955217D01*
X1801128Y-15503739D02*
X1805727Y-15517640D01*
X10568767Y-1920487D02*
X10577201Y-1968818D01*
X10059049Y-1234294D02*
X10101582Y-1258349D01*
X1876028Y-15628621D02*
X1886808Y-15638879D01*
X10296293Y-5671047D02*
X10295793Y-5677572D01*
X2689323Y-1121381D02*
X2640491Y-1127447D01*
X10576182Y-12701726D02*
X10574282Y-12695460D01*
X10296290Y-11900982D02*
X10296932Y-11907492D01*
X2779112Y-7083444D02*
X2775192Y-7069319D01*
X10586374Y-12752969D02*
X10585591Y-12746477D01*
X9637747Y-1117717D02*
X9686997Y-1121381D01*
X2043859Y-15713201D02*
X2058509Y-15715020D01*
X2737757Y-10774480D02*
X2745602Y-10762066D01*
X1797208Y-5981164D02*
X1801128Y-5995289D01*
X10570067Y-4888985D02*
X10572243Y-4882798D01*
X2784873Y-10652339D02*
X2786692Y-10637690D01*
X1838564Y-11690128D02*
X1830719Y-11702541D01*
X2729293Y-10786521D02*
X2737757Y-10774480D01*
X2073284Y-15716120D02*
X2088160Y-15716488D01*
X1805727Y-15517640D02*
X1810996Y-15531293D01*
X10298642Y-5651574D02*
X10297717Y-5658046D01*
X10577201Y-1968818D02*
X10583266Y-2017650D01*
X1959975Y-15687724D02*
X1973355Y-15693652D01*
X10402964Y-15693652D02*
X10416344Y-15687724D01*
X1856100Y-6098166D02*
X1865770Y-6109391D01*
X2014625Y-1482730D02*
X1984384Y-1521549D01*
X1791448Y-5952340D02*
X1793978Y-5966839D01*
X1847027Y-6086520D02*
X1856100Y-6098166D01*
X2752818Y-7015302D02*
X2745601Y-7002542D01*
X9588160Y-1116488D02*
X9637747Y-1117717D01*
X9784161Y-1135880D02*
X9831910Y-1146647D01*
X2759395Y-7028384D02*
X2752818Y-7015302D01*
X10575192Y-15503739D02*
X10579112Y-15489613D01*
X1788160Y-11856568D02*
X1788160Y-15416488D01*
X2752818Y-10749306D02*
X2759396Y-10736224D01*
X10303740Y-5625935D02*
X10302256Y-5632303D01*
X10586692Y-15446139D02*
X10587791Y-15431364D01*
X1830718Y-15570515D02*
X1838564Y-15582929D01*
X10297715Y-11913985D02*
X10298640Y-11920457D01*
X10311065Y-11971232D02*
X10313241Y-11977420D01*
X10584667Y-4832024D02*
X10585591Y-4825552D01*
X1876028Y-11644436D02*
X1865770Y-11655216D01*
X1793978Y-11797768D02*
X1791448Y-11812267D01*
X2193221Y-1312712D02*
X2154403Y-1342953D01*
X2058509Y-15715020D02*
X2073284Y-15716120D01*
X2497325Y-1159713D02*
X2450987Y-1175045D01*
X2405477Y-1192609D02*
X2360877Y-1212370D01*
X1934133Y-15673930D02*
X1946893Y-15681146D01*
X10587516Y-4806025D02*
X10587873Y-4799486D01*
X10295150Y-5697218D02*
X10295147Y-11874809D01*
X1823502Y-11715301D02*
X1816925Y-11728383D01*
X1876028Y-6120171D02*
X2700292Y-6944436D01*
X1788529Y-5922916D02*
X1789628Y-5937691D01*
X10559395Y-15544673D02*
X10565323Y-15531293D01*
X10588088Y-4792936D02*
X10588160Y-4786378D01*
X10221917Y-1342952D02*
X10259333Y-1375187D01*
X2770593Y-7055417D02*
X2765324Y-7041764D01*
X9831910Y-1146647D02*
X9878994Y-1159713D01*
X10520220Y-15606616D02*
X10529292Y-15594970D01*
X2788160Y-1116488D02*
X2738573Y-1117717D01*
X1789628Y-15446139D02*
X1791448Y-15460789D01*
X2775192Y-7069319D02*
X2770593Y-7055417D01*
X10572243Y-4882798D02*
X10574281Y-4876570D01*
X10295793Y-5677572D02*
X10295436Y-5684111D01*
X10295436Y-5684111D02*
X10295221Y-5690660D01*
X10295433Y-11887917D02*
X10295791Y-11894456D01*
X2765324Y-10722844D02*
X2770593Y-10709191D01*
X2787792Y-10622914D02*
X2788160Y-10608038D01*
X10512039Y-1733805D02*
X10529602Y-1779315D01*
X10584872Y-15460789D02*
X10586692Y-15446139D01*
D11*
X9841040Y-14686280D02*
G75*
G03*
X9841040Y-14686280I-250000J0D01*
G01*
D10*
X10552818Y-15557755D02*
X10559395Y-15544673D01*
X10259333Y-1375187D02*
X10295266Y-1409381D01*
X10313239Y-5594615D02*
X10311064Y-5600802D01*
X1876028Y-11644436D02*
X2700292Y-10820172D01*
X10446298Y-1603064D02*
X10470353Y-1645598D01*
X1865770Y-11655216D02*
X1856100Y-11666441D01*
X9686997Y-1121381D02*
X9735829Y-1127447D01*
X2788160Y-10608040D02*
X2788160Y-7156568D01*
X10587516Y-12766004D02*
X10587016Y-12759479D01*
X1865770Y-15617841D02*
X1876028Y-15628621D01*
X10300910Y-11933331D02*
X10302255Y-11939729D01*
X2770593Y-10709191D02*
X2775193Y-10695289D01*
X10529602Y-1779315D02*
X10544934Y-1825653D01*
X1810996Y-11741763D02*
X1805727Y-11755416D01*
X10420147Y-1561688D02*
X10446298Y-1603064D01*
X1838564Y-15582929D02*
X1847027Y-15594970D01*
X1788160Y-15416488D02*
X1788529Y-15431364D01*
X2784872Y-7112268D02*
X2782342Y-7097769D01*
X10296932Y-11907492D02*
X10297715Y-11913985D01*
X10583602Y-4838473D02*
X10584667Y-4832024D01*
X2782343Y-10666839D02*
X2784873Y-10652339D01*
X10416344Y-15687724D02*
X10429426Y-15681146D01*
X1791448Y-15460789D02*
X1793978Y-15475288D01*
X1823502Y-15557755D02*
X1830718Y-15570515D01*
X2786692Y-7126917D02*
X2784872Y-7112268D01*
X2592159Y-1135880D02*
X2544410Y-1146647D01*
X2710550Y-10809392D02*
X2720221Y-10798167D01*
X10478286Y-15648549D02*
X10489511Y-15638879D01*
X2029360Y-15710671D02*
X2043859Y-15713201D01*
X1805727Y-6009191D02*
X1810996Y-6022844D01*
X10583266Y-2017650D02*
X10586931Y-2066901D01*
X1801128Y-5995289D02*
X1805727Y-6009191D01*
X1816925Y-6036223D02*
X1823502Y-6049306D01*
X1884042Y-1689205D02*
X1864281Y-1733804D01*
X1909678Y-15657621D02*
X1921720Y-15666085D01*
X1823502Y-6049306D02*
X1830718Y-6062066D01*
X10346960Y-15710671D02*
X10361284Y-15707441D01*
X1956172Y-1561687D02*
X1930021Y-1603064D01*
X10307126Y-5613296D02*
X10305364Y-5619599D01*
X2745601Y-7002542D02*
X2737756Y-6990129D01*
X10302256Y-5632303D02*
X10300911Y-5638701D01*
X2317270Y-1234295D02*
X2274737Y-1258349D01*
X2700292Y-10820172D02*
X2710550Y-10809392D01*
X10313239Y-5594615D02*
X10570067Y-4888985D01*
X10588160Y-15416488D02*
X10588160Y-12785650D01*
X10587873Y-4799486D02*
X10588088Y-4792936D01*
X10305363Y-11952435D02*
X10307126Y-11958738D01*
X10582342Y-15475288D02*
X10584872Y-15460789D01*
X2710550Y-6955217D02*
X2700291Y-6944437D01*
X1799119Y-1968818D02*
X1793054Y-2017650D01*
X10375410Y-15703521D02*
X10389311Y-15698921D01*
X1921720Y-15666085D02*
X1934133Y-15673930D01*
X2720221Y-10798167D02*
X2729293Y-10786521D01*
X10295218Y-11881367D02*
X10295433Y-11887917D01*
X10574281Y-4876570D02*
X10576182Y-4870304D01*
X2274737Y-1258349D02*
X2233360Y-1284500D01*
X1838564Y-6074479D02*
X1847027Y-6086520D01*
X10466641Y-15657621D02*
X10478286Y-15648549D01*
X10470353Y-1645598D02*
X10492278Y-1689205D01*
X2786692Y-10637690D02*
X2787792Y-10622914D01*
X10015442Y-1212370D02*
X10059049Y-1234294D01*
X10570593Y-15517640D02*
X10575192Y-15503739D01*
X10585591Y-4825552D02*
X10586374Y-4819060D01*
X10295791Y-11894456D02*
X10296290Y-11900982D01*
X10299705Y-11926906D02*
X10300910Y-11933331D01*
X2787791Y-7141692D02*
X2786692Y-7126917D01*
X1789628Y-5937691D02*
X1791448Y-5952340D01*
X2544410Y-1146647D02*
X2497325Y-1159713D01*
X2360877Y-1212370D02*
X2317270Y-1234295D01*
X10576182Y-4870304D02*
X10577944Y-4864001D01*
D11*
X2769680Y-13696760D02*
G75*
G03*
X2769680Y-13696760I-250000J0D01*
G01*
D10*
X10588088Y-12779092D02*
X10587873Y-12772543D01*
X10317811Y-15715020D02*
X10332460Y-15713201D01*
X1788160Y-2116488D02*
X1788160Y-5908040D01*
X1807553Y-1920487D02*
X1799119Y-1968818D01*
X1946893Y-15681146D02*
X1959975Y-15687724D01*
X1793978Y-5966839D02*
X1797208Y-5981164D01*
X9925333Y-1175045D02*
X9970842Y-1192608D01*
X2738573Y-1117717D02*
X2689323Y-1121381D01*
X10442186Y-15673930D02*
X10454599Y-15666085D01*
X10309026Y-11965004D02*
X10311065Y-11971232D01*
X9878994Y-1159713D02*
X9925333Y-1175045D01*
X10588160Y-2116488D02*
X10588160Y-4786379D01*
X10492278Y-1689205D02*
X10512039Y-1733805D01*
X2729292Y-6978087D02*
X2720220Y-6966442D01*
X10361284Y-15707441D02*
X10375410Y-15703521D01*
X1791448Y-11812267D02*
X1789628Y-11826917D01*
X1805727Y-11755416D02*
X1801128Y-11769318D01*
X1830718Y-6062066D02*
X1838564Y-6074479D01*
X10586374Y-4819060D02*
X10587016Y-4812550D01*
X10581052Y-12720734D02*
X10579568Y-12714366D01*
X10391935Y-1521549D02*
X10420147Y-1561688D01*
X10313241Y-11977420D02*
X10570067Y-12683044D01*
X10587016Y-12759479D02*
X10586374Y-12752969D01*
X2046859Y-1445314D02*
X2014625Y-1482730D01*
X10332460Y-15713201D02*
X10346960Y-15710671D01*
X10545601Y-15570515D02*
X10552818Y-15557755D01*
X10454599Y-15666085D02*
X10466641Y-15657621D01*
X10183098Y-1312712D02*
X10221917Y-1342952D01*
X2788160Y-1116488D02*
X9588160Y-1116488D01*
X10579568Y-12714366D02*
X10577944Y-12708029D01*
X10296934Y-5664538D02*
X10296293Y-5671047D01*
X10300911Y-5638701D02*
X10299706Y-5645125D01*
X10295221Y-5690660D02*
X10295150Y-5697218D01*
D12*
D13*
X2657160Y-6157280D02*
X2697160Y-6197280D01*
X2697160Y-6157280D02*
X2657160Y-6197280D01*
X2689043Y-5972997D02*
X2729043Y-6012997D01*
X2729043Y-5972997D02*
X2689043Y-6012997D01*
X3307400Y-3759520D02*
X3347400Y-3799520D01*
X3347400Y-3759520D02*
X3307400Y-3799520D01*
X3307400Y-3859470D02*
X3347400Y-3899470D01*
X3347400Y-3859470D02*
X3307400Y-3899470D01*
X3384263Y-6665083D02*
X3424263Y-6705083D01*
X3424263Y-6665083D02*
X3384263Y-6705083D01*
X3411556Y-13032570D02*
X3451556Y-13072570D01*
X3451556Y-13032570D02*
X3411556Y-13072570D01*
X3475040Y-4125280D02*
X3515040Y-4165280D01*
X3515040Y-4125280D02*
X3475040Y-4165280D01*
X3576640Y-3342960D02*
X3616640Y-3382960D01*
X3616640Y-3342960D02*
X3576640Y-3382960D01*
X3693480Y-3342960D02*
X3733480Y-3382960D01*
X3733480Y-3342960D02*
X3693480Y-3382960D01*
X3810320Y-3337880D02*
X3850320Y-3377880D01*
X3850320Y-3337880D02*
X3810320Y-3377880D01*
X4445320Y-14122720D02*
X4485320Y-14162720D01*
X4485320Y-14122720D02*
X4445320Y-14162720D01*
X4673920Y-10835960D02*
X4713920Y-10875960D01*
X4713920Y-10835960D02*
X4673920Y-10875960D01*
X5060000Y-8936040D02*
X5100000Y-8976040D01*
X5100000Y-8936040D02*
X5060000Y-8976040D01*
X5115880Y-10749600D02*
X5155880Y-10789600D01*
X5155880Y-10749600D02*
X5115880Y-10789600D01*
X5415600Y-9606600D02*
X5455600Y-9646600D01*
X5455600Y-9606600D02*
X5415600Y-9646600D01*
X5618800Y-9916480D02*
X5658800Y-9956480D01*
X5658800Y-9916480D02*
X5618800Y-9956480D01*
X5745800Y-14772960D02*
X5785800Y-14812960D01*
X5785800Y-14772960D02*
X5745800Y-14812960D01*
X5872800Y-11435400D02*
X5912800Y-11475400D01*
X5912800Y-11435400D02*
X5872800Y-11475400D01*
X5893120Y-9819960D02*
X5933120Y-9859960D01*
X5933120Y-9819960D02*
X5893120Y-9859960D01*
X6004880Y-9103680D02*
X6044880Y-9143680D01*
X6044880Y-9103680D02*
X6004880Y-9143680D01*
X6040440Y-13045760D02*
X6080440Y-13085760D01*
X6080440Y-13045760D02*
X6040440Y-13085760D01*
X6111560Y-14310680D02*
X6151560Y-14350680D01*
X6151560Y-14310680D02*
X6111560Y-14350680D01*
X6411280Y-9637080D02*
X6451280Y-9677080D01*
X6451280Y-9637080D02*
X6411280Y-9677080D01*
X6502720Y-9383080D02*
X6542720Y-9423080D01*
X6542720Y-9383080D02*
X6502720Y-9423080D01*
X6553520Y-5913440D02*
X6593520Y-5953440D01*
X6593520Y-5913440D02*
X6553520Y-5953440D01*
X6746560Y-9301800D02*
X6786560Y-9341800D01*
X6786560Y-9301800D02*
X6746560Y-9341800D01*
X6751640Y-6319840D02*
X6791640Y-6359840D01*
X6791640Y-6319840D02*
X6751640Y-6359840D01*
X6898960Y-6731320D02*
X6938960Y-6771320D01*
X6938960Y-6731320D02*
X6898960Y-6771320D01*
X7178360Y-6294440D02*
X7218360Y-6334440D01*
X7218360Y-6294440D02*
X7178360Y-6334440D01*
X7310440Y-10988360D02*
X7350440Y-11028360D01*
X7350440Y-10988360D02*
X7310440Y-11028360D01*
X7346000Y-11476040D02*
X7386000Y-11516040D01*
X7386000Y-11476040D02*
X7346000Y-11516040D01*
X7630480Y-5603560D02*
X7670480Y-5643560D01*
X7670480Y-5603560D02*
X7630480Y-5643560D01*
X7630480Y-6294440D02*
X7670480Y-6334440D01*
X7670480Y-6294440D02*
X7630480Y-6334440D01*
X7762560Y-14366560D02*
X7802560Y-14406560D01*
X7802560Y-14366560D02*
X7762560Y-14406560D01*
X7950520Y-5507040D02*
X7990520Y-5547040D01*
X7990520Y-5507040D02*
X7950520Y-5547040D01*
X8082600Y-8265480D02*
X8122600Y-8305480D01*
X8122600Y-8265480D02*
X8082600Y-8305480D01*
X8453440Y-7950520D02*
X8493440Y-7990520D01*
X8493440Y-7950520D02*
X8453440Y-7990520D01*
X8560120Y-11350370D02*
X8600120Y-11390370D01*
X8600120Y-11350370D02*
X8560120Y-11390370D01*
X8753160Y-12436160D02*
X8793160Y-12476160D01*
X8793160Y-12436160D02*
X8753160Y-12476160D01*
X9235760Y-11537000D02*
X9275760Y-11577000D01*
X9275760Y-11537000D02*
X9235760Y-11577000D01*
X9261160Y-12253280D02*
X9301160Y-12293280D01*
X9301160Y-12253280D02*
X9261160Y-12293280D01*
X9418640Y-4882200D02*
X9458640Y-4922200D01*
X9458640Y-4882200D02*
X9418640Y-4922200D01*
X9418640Y-5126040D02*
X9458640Y-5166040D01*
X9458640Y-5126040D02*
X9418640Y-5166040D01*
X9576120Y-4892360D02*
X9616120Y-4932360D01*
X9616120Y-4892360D02*
X9576120Y-4932360D01*
X9576120Y-5131120D02*
X9616120Y-5171120D01*
X9616120Y-5131120D02*
X9576120Y-5171120D01*
X9652320Y-11130600D02*
X9692320Y-11170600D01*
X9692320Y-11130600D02*
X9652320Y-11170600D01*
X9652320Y-11531920D02*
X9692320Y-11571920D01*
X9692320Y-11531920D02*
X9652320Y-11571920D01*
X10129840Y-12700320D02*
X10169840Y-12740320D01*
X10169840Y-12700320D02*
X10129840Y-12740320D01*
X10348280Y-12426000D02*
X10388280Y-12466000D01*
X10388280Y-12426000D02*
X10348280Y-12466000D01*
D12*
X2031437Y-16045472D02*
X2031437Y-15845472D01*
X2031437Y-15845472D02*
X2079056Y-15845472D01*
X2079056Y-15845472D02*
X2107627Y-15854996D01*
X2107627Y-15854996D02*
X2126675Y-15874043D01*
X2126675Y-15874043D02*
X2136199Y-15893091D01*
X2136199Y-15893091D02*
X2145723Y-15931186D01*
X2145723Y-15931186D02*
X2145723Y-15959758D01*
X2145723Y-15959758D02*
X2136199Y-15997853D01*
X2136199Y-15997853D02*
X2126675Y-16016901D01*
X2126675Y-16016901D02*
X2107627Y-16035948D01*
X2107627Y-16035948D02*
X2079056Y-16045472D01*
X2079056Y-16045472D02*
X2031437Y-16045472D01*
X2231437Y-16045472D02*
X2231437Y-15912139D01*
X2231437Y-15950234D02*
X2240961Y-15931186D01*
X2240961Y-15931186D02*
X2250485Y-15921662D01*
X2250485Y-15921662D02*
X2269532Y-15912139D01*
X2269532Y-15912139D02*
X2288580Y-15912139D01*
X2355246Y-16045472D02*
X2355246Y-15912139D01*
X2355246Y-15845472D02*
X2345723Y-15854996D01*
X2345723Y-15854996D02*
X2355246Y-15864520D01*
X2355246Y-15864520D02*
X2364770Y-15854996D01*
X2364770Y-15854996D02*
X2355246Y-15845472D01*
X2355246Y-15845472D02*
X2355246Y-15864520D01*
X2479056Y-16045472D02*
X2460008Y-16035948D01*
X2460008Y-16035948D02*
X2450485Y-16016901D01*
X2450485Y-16016901D02*
X2450485Y-15845472D01*
X2583818Y-16045472D02*
X2564770Y-16035948D01*
X2564770Y-16035948D02*
X2555246Y-16016901D01*
X2555246Y-16016901D02*
X2555246Y-15845472D01*
X2812389Y-16045472D02*
X2812389Y-15845472D01*
X2812389Y-15845472D02*
X2879056Y-15988329D01*
X2879056Y-15988329D02*
X2945723Y-15845472D01*
X2945723Y-15845472D02*
X2945723Y-16045472D01*
X3126675Y-16045472D02*
X3126675Y-15940710D01*
X3126675Y-15940710D02*
X3117151Y-15921662D01*
X3117151Y-15921662D02*
X3098104Y-15912139D01*
X3098104Y-15912139D02*
X3060008Y-15912139D01*
X3060008Y-15912139D02*
X3040961Y-15921662D01*
X3126675Y-16035948D02*
X3107627Y-16045472D01*
X3107627Y-16045472D02*
X3060008Y-16045472D01*
X3060008Y-16045472D02*
X3040961Y-16035948D01*
X3040961Y-16035948D02*
X3031437Y-16016901D01*
X3031437Y-16016901D02*
X3031437Y-15997853D01*
X3031437Y-15997853D02*
X3040961Y-15978805D01*
X3040961Y-15978805D02*
X3060008Y-15969282D01*
X3060008Y-15969282D02*
X3107627Y-15969282D01*
X3107627Y-15969282D02*
X3126675Y-15959758D01*
X3221913Y-15912139D02*
X3221913Y-16112139D01*
X3221913Y-15921662D02*
X3240961Y-15912139D01*
X3240961Y-15912139D02*
X3279056Y-15912139D01*
X3279056Y-15912139D02*
X3298104Y-15921662D01*
X3298104Y-15921662D02*
X3307627Y-15931186D01*
X3307627Y-15931186D02*
X3317151Y-15950234D01*
X3317151Y-15950234D02*
X3317151Y-16007377D01*
X3317151Y-16007377D02*
X3307627Y-16026424D01*
X3307627Y-16026424D02*
X3298104Y-16035948D01*
X3298104Y-16035948D02*
X3279056Y-16045472D01*
X3279056Y-16045472D02*
X3240961Y-16045472D01*
X3240961Y-16045472D02*
X3221913Y-16035948D01*
X3402865Y-16026424D02*
X3412389Y-16035948D01*
X3412389Y-16035948D02*
X3402865Y-16045472D01*
X3402865Y-16045472D02*
X3393342Y-16035948D01*
X3393342Y-16035948D02*
X3402865Y-16026424D01*
X3402865Y-16026424D02*
X3402865Y-16045472D01*
X3402865Y-15921662D02*
X3412389Y-15931186D01*
X3412389Y-15931186D02*
X3402865Y-15940710D01*
X3402865Y-15940710D02*
X3393342Y-15931186D01*
X3393342Y-15931186D02*
X3402865Y-15921662D01*
X3402865Y-15921662D02*
X3402865Y-15940710D01*
D13*
X1730660Y-16353988D02*
X1770660Y-16393988D01*
X1770660Y-16353988D02*
X1730660Y-16393988D01*
D12*
X2069532Y-16265472D02*
X2088580Y-16265472D01*
X2088580Y-16265472D02*
X2107627Y-16274996D01*
X2107627Y-16274996D02*
X2117151Y-16284520D01*
X2117151Y-16284520D02*
X2126675Y-16303567D01*
X2126675Y-16303567D02*
X2136199Y-16341662D01*
X2136199Y-16341662D02*
X2136199Y-16389282D01*
X2136199Y-16389282D02*
X2126675Y-16427377D01*
X2126675Y-16427377D02*
X2117151Y-16446424D01*
X2117151Y-16446424D02*
X2107627Y-16455948D01*
X2107627Y-16455948D02*
X2088580Y-16465472D01*
X2088580Y-16465472D02*
X2069532Y-16465472D01*
X2069532Y-16465472D02*
X2050484Y-16455948D01*
X2050484Y-16455948D02*
X2040961Y-16446424D01*
X2040961Y-16446424D02*
X2031437Y-16427377D01*
X2031437Y-16427377D02*
X2021913Y-16389282D01*
X2021913Y-16389282D02*
X2021913Y-16341662D01*
X2021913Y-16341662D02*
X2031437Y-16303567D01*
X2031437Y-16303567D02*
X2040961Y-16284520D01*
X2040961Y-16284520D02*
X2050484Y-16274996D01*
X2050484Y-16274996D02*
X2069532Y-16265472D01*
X2221913Y-16446424D02*
X2231437Y-16455948D01*
X2231437Y-16455948D02*
X2221913Y-16465472D01*
X2221913Y-16465472D02*
X2212389Y-16455948D01*
X2212389Y-16455948D02*
X2221913Y-16446424D01*
X2221913Y-16446424D02*
X2221913Y-16465472D01*
X2402866Y-16332139D02*
X2402866Y-16465472D01*
X2355246Y-16255948D02*
X2307627Y-16398805D01*
X2307627Y-16398805D02*
X2431437Y-16398805D01*
X2545723Y-16265472D02*
X2564770Y-16265472D01*
X2564770Y-16265472D02*
X2583818Y-16274996D01*
X2583818Y-16274996D02*
X2593342Y-16284520D01*
X2593342Y-16284520D02*
X2602866Y-16303567D01*
X2602866Y-16303567D02*
X2612389Y-16341662D01*
X2612389Y-16341662D02*
X2612389Y-16389282D01*
X2612389Y-16389282D02*
X2602866Y-16427377D01*
X2602866Y-16427377D02*
X2593342Y-16446424D01*
X2593342Y-16446424D02*
X2583818Y-16455948D01*
X2583818Y-16455948D02*
X2564770Y-16465472D01*
X2564770Y-16465472D02*
X2545723Y-16465472D01*
X2545723Y-16465472D02*
X2526675Y-16455948D01*
X2526675Y-16455948D02*
X2517151Y-16446424D01*
X2517151Y-16446424D02*
X2507627Y-16427377D01*
X2507627Y-16427377D02*
X2498104Y-16389282D01*
X2498104Y-16389282D02*
X2498104Y-16341662D01*
X2498104Y-16341662D02*
X2507627Y-16303567D01*
X2507627Y-16303567D02*
X2517151Y-16284520D01*
X2517151Y-16284520D02*
X2526675Y-16274996D01*
X2526675Y-16274996D02*
X2545723Y-16265472D01*
X2736199Y-16265472D02*
X2755247Y-16265472D01*
X2755247Y-16265472D02*
X2774294Y-16274996D01*
X2774294Y-16274996D02*
X2783818Y-16284520D01*
X2783818Y-16284520D02*
X2793342Y-16303567D01*
X2793342Y-16303567D02*
X2802865Y-16341662D01*
X2802865Y-16341662D02*
X2802865Y-16389282D01*
X2802865Y-16389282D02*
X2793342Y-16427377D01*
X2793342Y-16427377D02*
X2783818Y-16446424D01*
X2783818Y-16446424D02*
X2774294Y-16455948D01*
X2774294Y-16455948D02*
X2755247Y-16465472D01*
X2755247Y-16465472D02*
X2736199Y-16465472D01*
X2736199Y-16465472D02*
X2717151Y-16455948D01*
X2717151Y-16455948D02*
X2707627Y-16446424D01*
X2707627Y-16446424D02*
X2698104Y-16427377D01*
X2698104Y-16427377D02*
X2688580Y-16389282D01*
X2688580Y-16389282D02*
X2688580Y-16341662D01*
X2688580Y-16341662D02*
X2698104Y-16303567D01*
X2698104Y-16303567D02*
X2707627Y-16284520D01*
X2707627Y-16284520D02*
X2717151Y-16274996D01*
X2717151Y-16274996D02*
X2736199Y-16265472D01*
X2888580Y-16465472D02*
X2888580Y-16332139D01*
X2888580Y-16351186D02*
X2898104Y-16341662D01*
X2898104Y-16341662D02*
X2917151Y-16332139D01*
X2917151Y-16332139D02*
X2945723Y-16332139D01*
X2945723Y-16332139D02*
X2964770Y-16341662D01*
X2964770Y-16341662D02*
X2974294Y-16360710D01*
X2974294Y-16360710D02*
X2974294Y-16465472D01*
X2974294Y-16360710D02*
X2983818Y-16341662D01*
X2983818Y-16341662D02*
X3002865Y-16332139D01*
X3002865Y-16332139D02*
X3031437Y-16332139D01*
X3031437Y-16332139D02*
X3050485Y-16341662D01*
X3050485Y-16341662D02*
X3060008Y-16360710D01*
X3060008Y-16360710D02*
X3060008Y-16465472D01*
X3155246Y-16465472D02*
X3155246Y-16332139D01*
X3155246Y-16351186D02*
X3164770Y-16341662D01*
X3164770Y-16341662D02*
X3183818Y-16332139D01*
X3183818Y-16332139D02*
X3212389Y-16332139D01*
X3212389Y-16332139D02*
X3231437Y-16341662D01*
X3231437Y-16341662D02*
X3240961Y-16360710D01*
X3240961Y-16360710D02*
X3240961Y-16465472D01*
X3240961Y-16360710D02*
X3250485Y-16341662D01*
X3250485Y-16341662D02*
X3269532Y-16332139D01*
X3269532Y-16332139D02*
X3298104Y-16332139D01*
X3298104Y-16332139D02*
X3317151Y-16341662D01*
X3317151Y-16341662D02*
X3326675Y-16360710D01*
X3326675Y-16360710D02*
X3326675Y-16465472D01*
X3717151Y-16255948D02*
X3545723Y-16513091D01*
X3974294Y-16265472D02*
X3993342Y-16265472D01*
X3993342Y-16265472D02*
X4012389Y-16274996D01*
X4012389Y-16274996D02*
X4021913Y-16284520D01*
X4021913Y-16284520D02*
X4031437Y-16303567D01*
X4031437Y-16303567D02*
X4040961Y-16341662D01*
X4040961Y-16341662D02*
X4040961Y-16389282D01*
X4040961Y-16389282D02*
X4031437Y-16427377D01*
X4031437Y-16427377D02*
X4021913Y-16446424D01*
X4021913Y-16446424D02*
X4012389Y-16455948D01*
X4012389Y-16455948D02*
X3993342Y-16465472D01*
X3993342Y-16465472D02*
X3974294Y-16465472D01*
X3974294Y-16465472D02*
X3955247Y-16455948D01*
X3955247Y-16455948D02*
X3945723Y-16446424D01*
X3945723Y-16446424D02*
X3936199Y-16427377D01*
X3936199Y-16427377D02*
X3926675Y-16389282D01*
X3926675Y-16389282D02*
X3926675Y-16341662D01*
X3926675Y-16341662D02*
X3936199Y-16303567D01*
X3936199Y-16303567D02*
X3945723Y-16284520D01*
X3945723Y-16284520D02*
X3955247Y-16274996D01*
X3955247Y-16274996D02*
X3974294Y-16265472D01*
X4126675Y-16446424D02*
X4136199Y-16455948D01*
X4136199Y-16455948D02*
X4126675Y-16465472D01*
X4126675Y-16465472D02*
X4117151Y-16455948D01*
X4117151Y-16455948D02*
X4126675Y-16446424D01*
X4126675Y-16446424D02*
X4126675Y-16465472D01*
X4260009Y-16265472D02*
X4279056Y-16265472D01*
X4279056Y-16265472D02*
X4298104Y-16274996D01*
X4298104Y-16274996D02*
X4307628Y-16284520D01*
X4307628Y-16284520D02*
X4317151Y-16303567D01*
X4317151Y-16303567D02*
X4326675Y-16341662D01*
X4326675Y-16341662D02*
X4326675Y-16389282D01*
X4326675Y-16389282D02*
X4317151Y-16427377D01*
X4317151Y-16427377D02*
X4307628Y-16446424D01*
X4307628Y-16446424D02*
X4298104Y-16455948D01*
X4298104Y-16455948D02*
X4279056Y-16465472D01*
X4279056Y-16465472D02*
X4260009Y-16465472D01*
X4260009Y-16465472D02*
X4240961Y-16455948D01*
X4240961Y-16455948D02*
X4231437Y-16446424D01*
X4231437Y-16446424D02*
X4221913Y-16427377D01*
X4221913Y-16427377D02*
X4212390Y-16389282D01*
X4212390Y-16389282D02*
X4212390Y-16341662D01*
X4212390Y-16341662D02*
X4221913Y-16303567D01*
X4221913Y-16303567D02*
X4231437Y-16284520D01*
X4231437Y-16284520D02*
X4240961Y-16274996D01*
X4240961Y-16274996D02*
X4260009Y-16265472D01*
X4517151Y-16465472D02*
X4402866Y-16465472D01*
X4460009Y-16465472D02*
X4460009Y-16265472D01*
X4460009Y-16265472D02*
X4440961Y-16294043D01*
X4440961Y-16294043D02*
X4421913Y-16313091D01*
X4421913Y-16313091D02*
X4402866Y-16322615D01*
X4698104Y-16265472D02*
X4602866Y-16265472D01*
X4602866Y-16265472D02*
X4593342Y-16360710D01*
X4593342Y-16360710D02*
X4602866Y-16351186D01*
X4602866Y-16351186D02*
X4621913Y-16341662D01*
X4621913Y-16341662D02*
X4669532Y-16341662D01*
X4669532Y-16341662D02*
X4688580Y-16351186D01*
X4688580Y-16351186D02*
X4698104Y-16360710D01*
X4698104Y-16360710D02*
X4707628Y-16379758D01*
X4707628Y-16379758D02*
X4707628Y-16427377D01*
X4707628Y-16427377D02*
X4698104Y-16446424D01*
X4698104Y-16446424D02*
X4688580Y-16455948D01*
X4688580Y-16455948D02*
X4669532Y-16465472D01*
X4669532Y-16465472D02*
X4621913Y-16465472D01*
X4621913Y-16465472D02*
X4602866Y-16455948D01*
X4602866Y-16455948D02*
X4593342Y-16446424D01*
X4774294Y-16265472D02*
X4907628Y-16265472D01*
X4907628Y-16265472D02*
X4821913Y-16465472D01*
X4974294Y-16265472D02*
X4974294Y-16303567D01*
X5050485Y-16265472D02*
X5050485Y-16303567D01*
X5345723Y-16541662D02*
X5336199Y-16532139D01*
X5336199Y-16532139D02*
X5317152Y-16503567D01*
X5317152Y-16503567D02*
X5307628Y-16484520D01*
X5307628Y-16484520D02*
X5298104Y-16455948D01*
X5298104Y-16455948D02*
X5288580Y-16408329D01*
X5288580Y-16408329D02*
X5288580Y-16370234D01*
X5288580Y-16370234D02*
X5298104Y-16322615D01*
X5298104Y-16322615D02*
X5307628Y-16294043D01*
X5307628Y-16294043D02*
X5317152Y-16274996D01*
X5317152Y-16274996D02*
X5336199Y-16246424D01*
X5336199Y-16246424D02*
X5345723Y-16236901D01*
X5507628Y-16332139D02*
X5507628Y-16465472D01*
X5460009Y-16255948D02*
X5412390Y-16398805D01*
X5412390Y-16398805D02*
X5536199Y-16398805D01*
X5621913Y-16465472D02*
X5660009Y-16465472D01*
X5660009Y-16465472D02*
X5679056Y-16455948D01*
X5679056Y-16455948D02*
X5688580Y-16446424D01*
X5688580Y-16446424D02*
X5707628Y-16417853D01*
X5707628Y-16417853D02*
X5717151Y-16379758D01*
X5717151Y-16379758D02*
X5717151Y-16303567D01*
X5717151Y-16303567D02*
X5707628Y-16284520D01*
X5707628Y-16284520D02*
X5698104Y-16274996D01*
X5698104Y-16274996D02*
X5679056Y-16265472D01*
X5679056Y-16265472D02*
X5640961Y-16265472D01*
X5640961Y-16265472D02*
X5621913Y-16274996D01*
X5621913Y-16274996D02*
X5612390Y-16284520D01*
X5612390Y-16284520D02*
X5602866Y-16303567D01*
X5602866Y-16303567D02*
X5602866Y-16351186D01*
X5602866Y-16351186D02*
X5612390Y-16370234D01*
X5612390Y-16370234D02*
X5621913Y-16379758D01*
X5621913Y-16379758D02*
X5640961Y-16389282D01*
X5640961Y-16389282D02*
X5679056Y-16389282D01*
X5679056Y-16389282D02*
X5698104Y-16379758D01*
X5698104Y-16379758D02*
X5707628Y-16370234D01*
X5707628Y-16370234D02*
X5717151Y-16351186D01*
X5955247Y-16465472D02*
X5955247Y-16265472D01*
X6040961Y-16465472D02*
X6040961Y-16360710D01*
X6040961Y-16360710D02*
X6031437Y-16341662D01*
X6031437Y-16341662D02*
X6012390Y-16332139D01*
X6012390Y-16332139D02*
X5983818Y-16332139D01*
X5983818Y-16332139D02*
X5964771Y-16341662D01*
X5964771Y-16341662D02*
X5955247Y-16351186D01*
X6164771Y-16465472D02*
X6145723Y-16455948D01*
X6145723Y-16455948D02*
X6136199Y-16446424D01*
X6136199Y-16446424D02*
X6126675Y-16427377D01*
X6126675Y-16427377D02*
X6126675Y-16370234D01*
X6126675Y-16370234D02*
X6136199Y-16351186D01*
X6136199Y-16351186D02*
X6145723Y-16341662D01*
X6145723Y-16341662D02*
X6164771Y-16332139D01*
X6164771Y-16332139D02*
X6193342Y-16332139D01*
X6193342Y-16332139D02*
X6212390Y-16341662D01*
X6212390Y-16341662D02*
X6221913Y-16351186D01*
X6221913Y-16351186D02*
X6231437Y-16370234D01*
X6231437Y-16370234D02*
X6231437Y-16427377D01*
X6231437Y-16427377D02*
X6221913Y-16446424D01*
X6221913Y-16446424D02*
X6212390Y-16455948D01*
X6212390Y-16455948D02*
X6193342Y-16465472D01*
X6193342Y-16465472D02*
X6164771Y-16465472D01*
X6345723Y-16465472D02*
X6326675Y-16455948D01*
X6326675Y-16455948D02*
X6317152Y-16436901D01*
X6317152Y-16436901D02*
X6317152Y-16265472D01*
X6498104Y-16455948D02*
X6479056Y-16465472D01*
X6479056Y-16465472D02*
X6440961Y-16465472D01*
X6440961Y-16465472D02*
X6421913Y-16455948D01*
X6421913Y-16455948D02*
X6412390Y-16436901D01*
X6412390Y-16436901D02*
X6412390Y-16360710D01*
X6412390Y-16360710D02*
X6421913Y-16341662D01*
X6421913Y-16341662D02*
X6440961Y-16332139D01*
X6440961Y-16332139D02*
X6479056Y-16332139D01*
X6479056Y-16332139D02*
X6498104Y-16341662D01*
X6498104Y-16341662D02*
X6507628Y-16360710D01*
X6507628Y-16360710D02*
X6507628Y-16379758D01*
X6507628Y-16379758D02*
X6412390Y-16398805D01*
X6583818Y-16455948D02*
X6602866Y-16465472D01*
X6602866Y-16465472D02*
X6640961Y-16465472D01*
X6640961Y-16465472D02*
X6660009Y-16455948D01*
X6660009Y-16455948D02*
X6669533Y-16436901D01*
X6669533Y-16436901D02*
X6669533Y-16427377D01*
X6669533Y-16427377D02*
X6660009Y-16408329D01*
X6660009Y-16408329D02*
X6640961Y-16398805D01*
X6640961Y-16398805D02*
X6612390Y-16398805D01*
X6612390Y-16398805D02*
X6593342Y-16389282D01*
X6593342Y-16389282D02*
X6583818Y-16370234D01*
X6583818Y-16370234D02*
X6583818Y-16360710D01*
X6583818Y-16360710D02*
X6593342Y-16341662D01*
X6593342Y-16341662D02*
X6612390Y-16332139D01*
X6612390Y-16332139D02*
X6640961Y-16332139D01*
X6640961Y-16332139D02*
X6660009Y-16341662D01*
X6736199Y-16541662D02*
X6745723Y-16532139D01*
X6745723Y-16532139D02*
X6764771Y-16503567D01*
X6764771Y-16503567D02*
X6774294Y-16484520D01*
X6774294Y-16484520D02*
X6783818Y-16455948D01*
X6783818Y-16455948D02*
X6793342Y-16408329D01*
X6793342Y-16408329D02*
X6793342Y-16370234D01*
X6793342Y-16370234D02*
X6783818Y-16322615D01*
X6783818Y-16322615D02*
X6774294Y-16294043D01*
X6774294Y-16294043D02*
X6764771Y-16274996D01*
X6764771Y-16274996D02*
X6745723Y-16246424D01*
X6745723Y-16246424D02*
X6736199Y-16236901D01*
M02*
