%TF.GenerationSoftware,KiCad,Pcbnew,7.0.7*%
%TF.CreationDate,2023-09-26T10:41:10-05:00*%
%TF.ProjectId,DingoPCB,44696e67-6f50-4434-922e-6b696361645f,rev?*%
%TF.SameCoordinates,Original*%
%TF.FileFunction,Drillmap*%
%TF.FilePolarity,Positive*%
%FSLAX45Y45*%
G04 Gerber Fmt 4.5, Leading zero omitted, Abs format (unit mm)*
G04 Created by KiCad (PCBNEW 7.0.7) date 2023-09-26 10:41:10*
%MOMM*%
%LPD*%
G01*
G04 APERTURE LIST*
%ADD10C,0.349999*%
%ADD11C,0.100000*%
%ADD12C,0.200000*%
%ADD13C,0.040000*%
%ADD14C,0.070000*%
%ADD15C,0.076200*%
%ADD16C,0.095000*%
%ADD17C,0.130000*%
G04 APERTURE END LIST*
D10*
X2782342Y-7097769D02*
X2779112Y-7083444D01*
X10586931Y-2066901D02*
X10588160Y-2116488D01*
X10500291Y-15628621D02*
X10510550Y-15617841D01*
X1905967Y-1645597D02*
X1884042Y-1689205D01*
X10305364Y-5619599D02*
X10303740Y-5625935D01*
X2450987Y-1175045D02*
X2405477Y-1192609D01*
X2081054Y-1409381D02*
X2046859Y-1445314D01*
X10529292Y-15594970D02*
X10537756Y-15582929D01*
X9970842Y-1192608D02*
X10015442Y-1212370D01*
X10587016Y-4812550D02*
X10587516Y-4806025D01*
X10295266Y-1409381D02*
X10329460Y-1445314D01*
X1788529Y-15431364D02*
X1789628Y-15446139D01*
X10577944Y-4864001D02*
X10579568Y-4857664D01*
X10142959Y-1284500D02*
X10183098Y-1312712D01*
X2233360Y-1284500D02*
X2193221Y-1312712D01*
X1847027Y-11678086D02*
X1838564Y-11690128D01*
X10361695Y-1482730D02*
X10391935Y-1521549D01*
X2765324Y-7041764D02*
X2759395Y-7028384D01*
X2088160Y-15716488D02*
X10288160Y-15716488D01*
X1846717Y-1779314D02*
X1831385Y-1825653D01*
X10579112Y-15489613D02*
X10582342Y-15475288D01*
X1984384Y-1521549D02*
X1956172Y-1561687D01*
X10574282Y-12695460D02*
X10572244Y-12689232D01*
X10288160Y-15716488D02*
X10303036Y-15716120D01*
X10311064Y-5600802D02*
X10309026Y-5607030D01*
X2640491Y-1127447D02*
X2592159Y-1135880D01*
X1789628Y-11826917D02*
X1788529Y-11841692D01*
X1793054Y-2017650D02*
X1789389Y-2066901D01*
X10429426Y-15681146D02*
X10442186Y-15673930D01*
X1801128Y-11769318D02*
X1797208Y-11783443D01*
X10329460Y-1445314D02*
X10361695Y-1482730D01*
X10489511Y-15638879D02*
X10500291Y-15628621D01*
X10295147Y-11874808D02*
X10295218Y-11881367D01*
X1816925Y-11728383D02*
X1810996Y-11741763D01*
X1793978Y-15475288D02*
X1797208Y-15489613D01*
X1973355Y-15693652D02*
X1987008Y-15698921D01*
X1856099Y-15606616D02*
X1865770Y-15617841D01*
X2759396Y-10736224D02*
X2765324Y-10722844D01*
X10389311Y-15698921D02*
X10402964Y-15693652D01*
X2015035Y-15707441D02*
X2029360Y-15710671D01*
X10101582Y-1258349D02*
X10142959Y-1284500D01*
X1810996Y-15531293D02*
X1816924Y-15544673D01*
X10583602Y-12733556D02*
X10582397Y-12727131D01*
X2154403Y-1342953D02*
X2116986Y-1375187D01*
X10558001Y-1872738D02*
X10568767Y-1920487D01*
X1886808Y-15638879D02*
X1898033Y-15648549D01*
X2779113Y-10681164D02*
X2782343Y-10666839D01*
X1830719Y-11702541D02*
X1823502Y-11715301D01*
X10577944Y-12708029D02*
X10576182Y-12701726D01*
X10588160Y-12785650D02*
X10588088Y-12779092D01*
X10303036Y-15716120D02*
X10317811Y-15715020D01*
D11*
X4034600Y-2600000D02*
G75*
G03*
X4034600Y-2600000I-250000J0D01*
G01*
D10*
X10298640Y-11920457D02*
X10299705Y-11926906D01*
X1856100Y-11666441D02*
X1847027Y-11678086D01*
X1797208Y-15489613D02*
X1801128Y-15503739D01*
X2000909Y-15703521D02*
X2015035Y-15707441D01*
X10510550Y-15617841D02*
X10520220Y-15606616D01*
X10582397Y-4844898D02*
X10583602Y-4838473D01*
X1788160Y-5908040D02*
X1788529Y-5922916D01*
X10572244Y-12689232D02*
X10570069Y-12683046D01*
X2745602Y-10762066D02*
X2752818Y-10749306D01*
X1898033Y-15648549D02*
X1909678Y-15657621D01*
X1987008Y-15698921D02*
X2000909Y-15703521D01*
X10587791Y-15431364D02*
X10588160Y-15416488D01*
X1788529Y-11841692D02*
X1788160Y-11856568D01*
X10579568Y-4857664D02*
X10581052Y-4851296D01*
X10565323Y-15531293D02*
X10570593Y-15517640D01*
X10584667Y-12740005D02*
X10583602Y-12733556D01*
X10585591Y-12746477D02*
X10584667Y-12740005D01*
X1810996Y-6022844D02*
X1816925Y-6036223D01*
X10587873Y-12772543D02*
X10587516Y-12766004D01*
X1864281Y-1733804D02*
X1846717Y-1779314D01*
X10307126Y-11958738D02*
X10309026Y-11965004D01*
X1847027Y-15594970D02*
X1856099Y-15606616D01*
X10581052Y-4851296D02*
X10582397Y-4844898D01*
X2737756Y-6990129D02*
X2729292Y-6978087D01*
X1865770Y-6109391D02*
X1876028Y-6120171D01*
X1818319Y-1872737D02*
X1807553Y-1920487D01*
X10299706Y-5645125D02*
X10298642Y-5651574D01*
X2788160Y-7156568D02*
X2787791Y-7141692D01*
X10297717Y-5658046D02*
X10296934Y-5664538D01*
X10302255Y-11939729D02*
X10303740Y-11946098D01*
X2775193Y-10695289D02*
X2779113Y-10681164D01*
X1797208Y-11783443D02*
X1793978Y-11797768D01*
X1930021Y-1603064D02*
X1905967Y-1645597D01*
X10303740Y-11946098D02*
X10305363Y-11952435D01*
X1789389Y-2066901D02*
X1788160Y-2116488D01*
D11*
X8850000Y-2600000D02*
G75*
G03*
X8850000Y-2600000I-250000J0D01*
G01*
D10*
X10537756Y-15582929D02*
X10545601Y-15570515D01*
X10309026Y-5607030D02*
X10307126Y-5613296D01*
X9735829Y-1127447D02*
X9784161Y-1135880D01*
X10582397Y-12727131D02*
X10581052Y-12720734D01*
X1816924Y-15544673D02*
X1823502Y-15557755D01*
X1831385Y-1825653D02*
X1818319Y-1872737D01*
X2116986Y-1375187D02*
X2081054Y-1409381D01*
X10544934Y-1825653D02*
X10558001Y-1872738D01*
X2720220Y-6966442D02*
X2710550Y-6955217D01*
X1801128Y-15503739D02*
X1805727Y-15517640D01*
X10568767Y-1920487D02*
X10577201Y-1968818D01*
X10059049Y-1234294D02*
X10101582Y-1258349D01*
X1876028Y-15628621D02*
X1886808Y-15638879D01*
X10296293Y-5671047D02*
X10295793Y-5677572D01*
X2689323Y-1121381D02*
X2640491Y-1127447D01*
X10576182Y-12701726D02*
X10574282Y-12695460D01*
X10296290Y-11900982D02*
X10296932Y-11907492D01*
X2779112Y-7083444D02*
X2775192Y-7069319D01*
X10586374Y-12752969D02*
X10585591Y-12746477D01*
X9637747Y-1117717D02*
X9686997Y-1121381D01*
X2043859Y-15713201D02*
X2058509Y-15715020D01*
X2737757Y-10774480D02*
X2745602Y-10762066D01*
X1797208Y-5981164D02*
X1801128Y-5995289D01*
X10570067Y-4888985D02*
X10572243Y-4882798D01*
X2784873Y-10652339D02*
X2786692Y-10637690D01*
X1838564Y-11690128D02*
X1830719Y-11702541D01*
X2729293Y-10786521D02*
X2737757Y-10774480D01*
X2073284Y-15716120D02*
X2088160Y-15716488D01*
X1805727Y-15517640D02*
X1810996Y-15531293D01*
X10298642Y-5651574D02*
X10297717Y-5658046D01*
X10577201Y-1968818D02*
X10583266Y-2017650D01*
X1959975Y-15687724D02*
X1973355Y-15693652D01*
X10402964Y-15693652D02*
X10416344Y-15687724D01*
X1856100Y-6098166D02*
X1865770Y-6109391D01*
X2014625Y-1482730D02*
X1984384Y-1521549D01*
X1791448Y-5952340D02*
X1793978Y-5966839D01*
X1847027Y-6086520D02*
X1856100Y-6098166D01*
X2752818Y-7015302D02*
X2745601Y-7002542D01*
X9588160Y-1116488D02*
X9637747Y-1117717D01*
X9784161Y-1135880D02*
X9831910Y-1146647D01*
X2759395Y-7028384D02*
X2752818Y-7015302D01*
X10575192Y-15503739D02*
X10579112Y-15489613D01*
X1788160Y-11856568D02*
X1788160Y-15416488D01*
X2752818Y-10749306D02*
X2759396Y-10736224D01*
X10303740Y-5625935D02*
X10302256Y-5632303D01*
X10586692Y-15446139D02*
X10587791Y-15431364D01*
X1830718Y-15570515D02*
X1838564Y-15582929D01*
X10297715Y-11913985D02*
X10298640Y-11920457D01*
X10311065Y-11971232D02*
X10313241Y-11977420D01*
X10584667Y-4832024D02*
X10585591Y-4825552D01*
X1876028Y-11644436D02*
X1865770Y-11655216D01*
X1793978Y-11797768D02*
X1791448Y-11812267D01*
X2193221Y-1312712D02*
X2154403Y-1342953D01*
X2058509Y-15715020D02*
X2073284Y-15716120D01*
X2497325Y-1159713D02*
X2450987Y-1175045D01*
X2405477Y-1192609D02*
X2360877Y-1212370D01*
X1934133Y-15673930D02*
X1946893Y-15681146D01*
X10587516Y-4806025D02*
X10587873Y-4799486D01*
X10295150Y-5697218D02*
X10295147Y-11874809D01*
X1823502Y-11715301D02*
X1816925Y-11728383D01*
X1876028Y-6120171D02*
X2700292Y-6944436D01*
X1788529Y-5922916D02*
X1789628Y-5937691D01*
X10559395Y-15544673D02*
X10565323Y-15531293D01*
X10588088Y-4792936D02*
X10588160Y-4786378D01*
X10221917Y-1342952D02*
X10259333Y-1375187D01*
X2770593Y-7055417D02*
X2765324Y-7041764D01*
X9831910Y-1146647D02*
X9878994Y-1159713D01*
X10520220Y-15606616D02*
X10529292Y-15594970D01*
X2788160Y-1116488D02*
X2738573Y-1117717D01*
X1789628Y-15446139D02*
X1791448Y-15460789D01*
X2775192Y-7069319D02*
X2770593Y-7055417D01*
X10572243Y-4882798D02*
X10574281Y-4876570D01*
X10295793Y-5677572D02*
X10295436Y-5684111D01*
X10295436Y-5684111D02*
X10295221Y-5690660D01*
X10295433Y-11887917D02*
X10295791Y-11894456D01*
X2765324Y-10722844D02*
X2770593Y-10709191D01*
X2787792Y-10622914D02*
X2788160Y-10608038D01*
X10512039Y-1733805D02*
X10529602Y-1779315D01*
X10584872Y-15460789D02*
X10586692Y-15446139D01*
D11*
X9841040Y-14686280D02*
G75*
G03*
X9841040Y-14686280I-250000J0D01*
G01*
D10*
X10552818Y-15557755D02*
X10559395Y-15544673D01*
X10259333Y-1375187D02*
X10295266Y-1409381D01*
X10313239Y-5594615D02*
X10311064Y-5600802D01*
X1876028Y-11644436D02*
X2700292Y-10820172D01*
X10446298Y-1603064D02*
X10470353Y-1645598D01*
X1865770Y-11655216D02*
X1856100Y-11666441D01*
X9686997Y-1121381D02*
X9735829Y-1127447D01*
X2788160Y-10608040D02*
X2788160Y-7156568D01*
X10587516Y-12766004D02*
X10587016Y-12759479D01*
X1865770Y-15617841D02*
X1876028Y-15628621D01*
X10300910Y-11933331D02*
X10302255Y-11939729D01*
X2770593Y-10709191D02*
X2775193Y-10695289D01*
X10529602Y-1779315D02*
X10544934Y-1825653D01*
X1810996Y-11741763D02*
X1805727Y-11755416D01*
X10420147Y-1561688D02*
X10446298Y-1603064D01*
X1838564Y-15582929D02*
X1847027Y-15594970D01*
X1788160Y-15416488D02*
X1788529Y-15431364D01*
X2784872Y-7112268D02*
X2782342Y-7097769D01*
X10296932Y-11907492D02*
X10297715Y-11913985D01*
X10583602Y-4838473D02*
X10584667Y-4832024D01*
X2782343Y-10666839D02*
X2784873Y-10652339D01*
X10416344Y-15687724D02*
X10429426Y-15681146D01*
X1791448Y-15460789D02*
X1793978Y-15475288D01*
X1823502Y-15557755D02*
X1830718Y-15570515D01*
X2786692Y-7126917D02*
X2784872Y-7112268D01*
X2592159Y-1135880D02*
X2544410Y-1146647D01*
X2710550Y-10809392D02*
X2720221Y-10798167D01*
X10478286Y-15648549D02*
X10489511Y-15638879D01*
X2029360Y-15710671D02*
X2043859Y-15713201D01*
X1805727Y-6009191D02*
X1810996Y-6022844D01*
X10583266Y-2017650D02*
X10586931Y-2066901D01*
X1801128Y-5995289D02*
X1805727Y-6009191D01*
X1816925Y-6036223D02*
X1823502Y-6049306D01*
X1884042Y-1689205D02*
X1864281Y-1733804D01*
X1909678Y-15657621D02*
X1921720Y-15666085D01*
X1823502Y-6049306D02*
X1830718Y-6062066D01*
X10346960Y-15710671D02*
X10361284Y-15707441D01*
X1956172Y-1561687D02*
X1930021Y-1603064D01*
X10307126Y-5613296D02*
X10305364Y-5619599D01*
X2745601Y-7002542D02*
X2737756Y-6990129D01*
X10302256Y-5632303D02*
X10300911Y-5638701D01*
X2317270Y-1234295D02*
X2274737Y-1258349D01*
X2700292Y-10820172D02*
X2710550Y-10809392D01*
X10313239Y-5594615D02*
X10570067Y-4888985D01*
X10588160Y-15416488D02*
X10588160Y-12785650D01*
X10587873Y-4799486D02*
X10588088Y-4792936D01*
X10305363Y-11952435D02*
X10307126Y-11958738D01*
X10582342Y-15475288D02*
X10584872Y-15460789D01*
X2710550Y-6955217D02*
X2700291Y-6944437D01*
X1799119Y-1968818D02*
X1793054Y-2017650D01*
X10375410Y-15703521D02*
X10389311Y-15698921D01*
X1921720Y-15666085D02*
X1934133Y-15673930D01*
X2720221Y-10798167D02*
X2729293Y-10786521D01*
X10295218Y-11881367D02*
X10295433Y-11887917D01*
X10574281Y-4876570D02*
X10576182Y-4870304D01*
X2274737Y-1258349D02*
X2233360Y-1284500D01*
X1838564Y-6074479D02*
X1847027Y-6086520D01*
X10466641Y-15657621D02*
X10478286Y-15648549D01*
X10470353Y-1645598D02*
X10492278Y-1689205D01*
X2786692Y-10637690D02*
X2787792Y-10622914D01*
X10015442Y-1212370D02*
X10059049Y-1234294D01*
X10570593Y-15517640D02*
X10575192Y-15503739D01*
X10585591Y-4825552D02*
X10586374Y-4819060D01*
X10295791Y-11894456D02*
X10296290Y-11900982D01*
X10299705Y-11926906D02*
X10300910Y-11933331D01*
X2787791Y-7141692D02*
X2786692Y-7126917D01*
X1789628Y-5937691D02*
X1791448Y-5952340D01*
X2544410Y-1146647D02*
X2497325Y-1159713D01*
X2360877Y-1212370D02*
X2317270Y-1234295D01*
X10576182Y-4870304D02*
X10577944Y-4864001D01*
D11*
X2769680Y-13696760D02*
G75*
G03*
X2769680Y-13696760I-250000J0D01*
G01*
D10*
X10588088Y-12779092D02*
X10587873Y-12772543D01*
X10317811Y-15715020D02*
X10332460Y-15713201D01*
X1788160Y-2116488D02*
X1788160Y-5908040D01*
X1807553Y-1920487D02*
X1799119Y-1968818D01*
X1946893Y-15681146D02*
X1959975Y-15687724D01*
X1793978Y-5966839D02*
X1797208Y-5981164D01*
X9925333Y-1175045D02*
X9970842Y-1192608D01*
X2738573Y-1117717D02*
X2689323Y-1121381D01*
X10442186Y-15673930D02*
X10454599Y-15666085D01*
X10309026Y-11965004D02*
X10311065Y-11971232D01*
X9878994Y-1159713D02*
X9925333Y-1175045D01*
X10588160Y-2116488D02*
X10588160Y-4786379D01*
X10492278Y-1689205D02*
X10512039Y-1733805D01*
X2729292Y-6978087D02*
X2720220Y-6966442D01*
X10361284Y-15707441D02*
X10375410Y-15703521D01*
X1791448Y-11812267D02*
X1789628Y-11826917D01*
X1805727Y-11755416D02*
X1801128Y-11769318D01*
X1830718Y-6062066D02*
X1838564Y-6074479D01*
X10586374Y-4819060D02*
X10587016Y-4812550D01*
X10581052Y-12720734D02*
X10579568Y-12714366D01*
X10391935Y-1521549D02*
X10420147Y-1561688D01*
X10313241Y-11977420D02*
X10570067Y-12683044D01*
X10587016Y-12759479D02*
X10586374Y-12752969D01*
X2046859Y-1445314D02*
X2014625Y-1482730D01*
X10332460Y-15713201D02*
X10346960Y-15710671D01*
X10545601Y-15570515D02*
X10552818Y-15557755D01*
X10454599Y-15666085D02*
X10466641Y-15657621D01*
X10183098Y-1312712D02*
X10221917Y-1342952D01*
X2788160Y-1116488D02*
X9588160Y-1116488D01*
X10579568Y-12714366D02*
X10577944Y-12708029D01*
X10296934Y-5664538D02*
X10296293Y-5671047D01*
X10300911Y-5638701D02*
X10299706Y-5645125D01*
X10295221Y-5690660D02*
X10295150Y-5697218D01*
D12*
D13*
X6203000Y-13259120D02*
X6243000Y-13299120D01*
X6243000Y-13259120D02*
X6203000Y-13299120D01*
D14*
X3835000Y-4900000D02*
G75*
G03*
X3835000Y-4900000I-35000J0D01*
G01*
X3835000Y-5154000D02*
G75*
G03*
X3835000Y-5154000I-35000J0D01*
G01*
X3835000Y-5500000D02*
G75*
G03*
X3835000Y-5500000I-35000J0D01*
G01*
X3835000Y-5754000D02*
G75*
G03*
X3835000Y-5754000I-35000J0D01*
G01*
X4435000Y-4900000D02*
G75*
G03*
X4435000Y-4900000I-35000J0D01*
G01*
X4435000Y-5154000D02*
G75*
G03*
X4435000Y-5154000I-35000J0D01*
G01*
X4435000Y-5500000D02*
G75*
G03*
X4435000Y-5500000I-35000J0D01*
G01*
X4435000Y-5754000D02*
G75*
G03*
X4435000Y-5754000I-35000J0D01*
G01*
D15*
X2595880Y-2593340D02*
X2595880Y-2669540D01*
X2557780Y-2631440D02*
X2633980Y-2631440D01*
X2595880Y-2847340D02*
X2595880Y-2923540D01*
X2557780Y-2885440D02*
X2633980Y-2885440D01*
X2595880Y-3101340D02*
X2595880Y-3177540D01*
X2557780Y-3139440D02*
X2633980Y-3139440D01*
X2824480Y-14455140D02*
X2824480Y-14531340D01*
X2786380Y-14493240D02*
X2862580Y-14493240D01*
X2824480Y-14709140D02*
X2824480Y-14785340D01*
X2786380Y-14747240D02*
X2862580Y-14747240D01*
X2824480Y-14963140D02*
X2824480Y-15039340D01*
X2786380Y-15001240D02*
X2862580Y-15001240D01*
X2849880Y-2593340D02*
X2849880Y-2669540D01*
X2811780Y-2631440D02*
X2887980Y-2631440D01*
X2849880Y-2847340D02*
X2849880Y-2923540D01*
X2811780Y-2885440D02*
X2887980Y-2885440D01*
X2849880Y-3101340D02*
X2849880Y-3177540D01*
X2811780Y-3139440D02*
X2887980Y-3139440D01*
X3078480Y-14455140D02*
X3078480Y-14531340D01*
X3040380Y-14493240D02*
X3116580Y-14493240D01*
X3078480Y-14709140D02*
X3078480Y-14785340D01*
X3040380Y-14747240D02*
X3116580Y-14747240D01*
X3078480Y-14963140D02*
X3078480Y-15039340D01*
X3040380Y-15001240D02*
X3116580Y-15001240D01*
X3103880Y-2593340D02*
X3103880Y-2669540D01*
X3065780Y-2631440D02*
X3141980Y-2631440D01*
X3103880Y-2847340D02*
X3103880Y-2923540D01*
X3065780Y-2885440D02*
X3141980Y-2885440D01*
X3103880Y-3101340D02*
X3103880Y-3177540D01*
X3065780Y-3139440D02*
X3141980Y-3139440D01*
X3332480Y-14455140D02*
X3332480Y-14531340D01*
X3294380Y-14493240D02*
X3370580Y-14493240D01*
X3332480Y-14709140D02*
X3332480Y-14785340D01*
X3294380Y-14747240D02*
X3370580Y-14747240D01*
X3332480Y-14963140D02*
X3332480Y-15039340D01*
X3294380Y-15001240D02*
X3370580Y-15001240D01*
X5199600Y-7974840D02*
X5199600Y-8051040D01*
X5161500Y-8012940D02*
X5237700Y-8012940D01*
X5199600Y-8228840D02*
X5199600Y-8305040D01*
X5161500Y-8266940D02*
X5237700Y-8266940D01*
X5199600Y-8482840D02*
X5199600Y-8559040D01*
X5161500Y-8520940D02*
X5237700Y-8520940D01*
X5199600Y-8736840D02*
X5199600Y-8813040D01*
X5161500Y-8774940D02*
X5237700Y-8774940D01*
X6977600Y-7720840D02*
X6977600Y-7797040D01*
X6939500Y-7758940D02*
X7015700Y-7758940D01*
X6977600Y-7974840D02*
X6977600Y-8051040D01*
X6939500Y-8012940D02*
X7015700Y-8012940D01*
X6977600Y-8228840D02*
X6977600Y-8305040D01*
X6939500Y-8266940D02*
X7015700Y-8266940D01*
X6977600Y-8482840D02*
X6977600Y-8559040D01*
X6939500Y-8520940D02*
X7015700Y-8520940D01*
X6977600Y-8736840D02*
X6977600Y-8813040D01*
X6939500Y-8774940D02*
X7015700Y-8774940D01*
X6977600Y-8990840D02*
X6977600Y-9067040D01*
X6939500Y-9028940D02*
X7015700Y-9028940D01*
X8402320Y-7368540D02*
X8402320Y-7444740D01*
X8364220Y-7406640D02*
X8440420Y-7406640D01*
X8402320Y-9908540D02*
X8402320Y-9984740D01*
X8364220Y-9946640D02*
X8440420Y-9946640D01*
X8422640Y-14196060D02*
X8422640Y-14272260D01*
X8384540Y-14234160D02*
X8460740Y-14234160D01*
X8422640Y-14450060D02*
X8422640Y-14526260D01*
X8384540Y-14488160D02*
X8460740Y-14488160D01*
X8422640Y-14704060D02*
X8422640Y-14780260D01*
X8384540Y-14742160D02*
X8460740Y-14742160D01*
X8676640Y-14196060D02*
X8676640Y-14272260D01*
X8638540Y-14234160D02*
X8714740Y-14234160D01*
X8676640Y-14450060D02*
X8676640Y-14526260D01*
X8638540Y-14488160D02*
X8714740Y-14488160D01*
X8676640Y-14704060D02*
X8676640Y-14780260D01*
X8638540Y-14742160D02*
X8714740Y-14742160D01*
X8930640Y-14196060D02*
X8930640Y-14272260D01*
X8892540Y-14234160D02*
X8968740Y-14234160D01*
X8930640Y-14450060D02*
X8930640Y-14526260D01*
X8892540Y-14488160D02*
X8968740Y-14488160D01*
X8930640Y-14704060D02*
X8930640Y-14780260D01*
X8892540Y-14742160D02*
X8968740Y-14742160D01*
X9235440Y-2197100D02*
X9235440Y-2273300D01*
X9197340Y-2235200D02*
X9273540Y-2235200D01*
X9235440Y-2451100D02*
X9235440Y-2527300D01*
X9197340Y-2489200D02*
X9273540Y-2489200D01*
X9235440Y-2705100D02*
X9235440Y-2781300D01*
X9197340Y-2743200D02*
X9273540Y-2743200D01*
X9489440Y-2197100D02*
X9489440Y-2273300D01*
X9451340Y-2235200D02*
X9527540Y-2235200D01*
X9489440Y-2451100D02*
X9489440Y-2527300D01*
X9451340Y-2489200D02*
X9527540Y-2489200D01*
X9489440Y-2705100D02*
X9489440Y-2781300D01*
X9451340Y-2743200D02*
X9527540Y-2743200D01*
X9743440Y-2197100D02*
X9743440Y-2273300D01*
X9705340Y-2235200D02*
X9781540Y-2235200D01*
X9743440Y-2451100D02*
X9743440Y-2527300D01*
X9705340Y-2489200D02*
X9781540Y-2489200D01*
X9743440Y-2705100D02*
X9743440Y-2781300D01*
X9705340Y-2743200D02*
X9781540Y-2743200D01*
X9926320Y-7368540D02*
X9926320Y-7444740D01*
X9888220Y-7406640D02*
X9964420Y-7406640D01*
X9926320Y-9908540D02*
X9926320Y-9984740D01*
X9888220Y-9946640D02*
X9964420Y-9946640D01*
D16*
X8360468Y-1786188D02*
X8360468Y-1719012D01*
X8293292Y-1719012D01*
X8293292Y-1786188D01*
X8360468Y-1786188D01*
X8425748Y-5596188D02*
X8425748Y-5529012D01*
X8358572Y-5529012D01*
X8358572Y-5596188D01*
X8425748Y-5596188D01*
X8442828Y-6439468D02*
X8442828Y-6372292D01*
X8375652Y-6372292D01*
X8375652Y-6439468D01*
X8442828Y-6439468D01*
X8610468Y-1786188D02*
X8610468Y-1719012D01*
X8543292Y-1719012D01*
X8543292Y-1786188D01*
X8610468Y-1786188D01*
X8675748Y-5596188D02*
X8675748Y-5529012D01*
X8608572Y-5529012D01*
X8608572Y-5596188D01*
X8675748Y-5596188D01*
X8692828Y-6439468D02*
X8692828Y-6372292D01*
X8625652Y-6372292D01*
X8625652Y-6439468D01*
X8692828Y-6439468D01*
X8860468Y-1786188D02*
X8860468Y-1719012D01*
X8793292Y-1719012D01*
X8793292Y-1786188D01*
X8860468Y-1786188D01*
X8925748Y-5596188D02*
X8925748Y-5529012D01*
X8858572Y-5529012D01*
X8858572Y-5596188D01*
X8925748Y-5596188D01*
X8942828Y-6439468D02*
X8942828Y-6372292D01*
X8875652Y-6372292D01*
X8875652Y-6439468D01*
X8942828Y-6439468D01*
X9110468Y-1786188D02*
X9110468Y-1719012D01*
X9043292Y-1719012D01*
X9043292Y-1786188D01*
X9110468Y-1786188D01*
X9175748Y-5596188D02*
X9175748Y-5529012D01*
X9108572Y-5529012D01*
X9108572Y-5596188D01*
X9175748Y-5596188D01*
X9192828Y-6439468D02*
X9192828Y-6372292D01*
X9125652Y-6372292D01*
X9125652Y-6439468D01*
X9192828Y-6439468D01*
X9360468Y-1786188D02*
X9360468Y-1719012D01*
X9293292Y-1719012D01*
X9293292Y-1786188D01*
X9360468Y-1786188D01*
X9610468Y-1786188D02*
X9610468Y-1719012D01*
X9543292Y-1719012D01*
X9543292Y-1786188D01*
X9610468Y-1786188D01*
D11*
X3153280Y-7029040D02*
X3203280Y-6979040D01*
X3153280Y-6929040D01*
X3103280Y-6979040D01*
X3153280Y-7029040D01*
X3153280Y-7283040D02*
X3203280Y-7233040D01*
X3153280Y-7183040D01*
X3103280Y-7233040D01*
X3153280Y-7283040D01*
X3153280Y-7537040D02*
X3203280Y-7487040D01*
X3153280Y-7437040D01*
X3103280Y-7487040D01*
X3153280Y-7537040D01*
X3153280Y-7791040D02*
X3203280Y-7741040D01*
X3153280Y-7691040D01*
X3103280Y-7741040D01*
X3153280Y-7791040D01*
X3153280Y-8045040D02*
X3203280Y-7995040D01*
X3153280Y-7945040D01*
X3103280Y-7995040D01*
X3153280Y-8045040D01*
X3153280Y-8299040D02*
X3203280Y-8249040D01*
X3153280Y-8199040D01*
X3103280Y-8249040D01*
X3153280Y-8299040D01*
X3153280Y-8553040D02*
X3203280Y-8503040D01*
X3153280Y-8453040D01*
X3103280Y-8503040D01*
X3153280Y-8553040D01*
X3153280Y-8807040D02*
X3203280Y-8757040D01*
X3153280Y-8707040D01*
X3103280Y-8757040D01*
X3153280Y-8807040D01*
X3153280Y-9061040D02*
X3203280Y-9011040D01*
X3153280Y-8961040D01*
X3103280Y-9011040D01*
X3153280Y-9061040D01*
X3153280Y-9315040D02*
X3203280Y-9265040D01*
X3153280Y-9215040D01*
X3103280Y-9265040D01*
X3153280Y-9315040D01*
X3153280Y-9569040D02*
X3203280Y-9519040D01*
X3153280Y-9469040D01*
X3103280Y-9519040D01*
X3153280Y-9569040D01*
X3153280Y-9823040D02*
X3203280Y-9773040D01*
X3153280Y-9723040D01*
X3103280Y-9773040D01*
X3153280Y-9823040D01*
X3153280Y-10077040D02*
X3203280Y-10027040D01*
X3153280Y-9977040D01*
X3103280Y-10027040D01*
X3153280Y-10077040D01*
X3153280Y-10331040D02*
X3203280Y-10281040D01*
X3153280Y-10231040D01*
X3103280Y-10281040D01*
X3153280Y-10331040D01*
X3153280Y-10585040D02*
X3203280Y-10535040D01*
X3153280Y-10485040D01*
X3103280Y-10535040D01*
X3153280Y-10585040D01*
X3154680Y-12127700D02*
X3204680Y-12077700D01*
X3154680Y-12027700D01*
X3104680Y-12077700D01*
X3154680Y-12127700D01*
X3154680Y-12381700D02*
X3204680Y-12331700D01*
X3154680Y-12281700D01*
X3104680Y-12331700D01*
X3154680Y-12381700D01*
X3154680Y-12635700D02*
X3204680Y-12585700D01*
X3154680Y-12535700D01*
X3104680Y-12585700D01*
X3154680Y-12635700D01*
X3154680Y-12889700D02*
X3204680Y-12839700D01*
X3154680Y-12789700D01*
X3104680Y-12839700D01*
X3154680Y-12889700D01*
X3154680Y-13143700D02*
X3204680Y-13093700D01*
X3154680Y-13043700D01*
X3104680Y-13093700D01*
X3154680Y-13143700D01*
X3154680Y-13397700D02*
X3204680Y-13347700D01*
X3154680Y-13297700D01*
X3104680Y-13347700D01*
X3154680Y-13397700D01*
X3662680Y-13397700D02*
X3712680Y-13347700D01*
X3662680Y-13297700D01*
X3612680Y-13347700D01*
X3662680Y-13397700D01*
X3662680Y-13651700D02*
X3712680Y-13601700D01*
X3662680Y-13551700D01*
X3612680Y-13601700D01*
X3662680Y-13651700D01*
X3662680Y-13905700D02*
X3712680Y-13855700D01*
X3662680Y-13805700D01*
X3612680Y-13855700D01*
X3662680Y-13905700D01*
X3672840Y-12562040D02*
X3722840Y-12512040D01*
X3672840Y-12462040D01*
X3622840Y-12512040D01*
X3672840Y-12562040D01*
X3672840Y-12816040D02*
X3722840Y-12766040D01*
X3672840Y-12716040D01*
X3622840Y-12766040D01*
X3672840Y-12816040D01*
X3916680Y-13397700D02*
X3966680Y-13347700D01*
X3916680Y-13297700D01*
X3866680Y-13347700D01*
X3916680Y-13397700D01*
X3916680Y-13651700D02*
X3966680Y-13601700D01*
X3916680Y-13551700D01*
X3866680Y-13601700D01*
X3916680Y-13651700D01*
X3916680Y-13905700D02*
X3966680Y-13855700D01*
X3916680Y-13805700D01*
X3866680Y-13855700D01*
X3916680Y-13905700D01*
X3926840Y-12562040D02*
X3976840Y-12512040D01*
X3926840Y-12462040D01*
X3876840Y-12512040D01*
X3926840Y-12562040D01*
X3926840Y-12816040D02*
X3976840Y-12766040D01*
X3926840Y-12716040D01*
X3876840Y-12766040D01*
X3926840Y-12816040D01*
X4170680Y-13397700D02*
X4220680Y-13347700D01*
X4170680Y-13297700D01*
X4120680Y-13347700D01*
X4170680Y-13397700D01*
X4170680Y-13651700D02*
X4220680Y-13601700D01*
X4170680Y-13551700D01*
X4120680Y-13601700D01*
X4170680Y-13651700D01*
X4170680Y-13905700D02*
X4220680Y-13855700D01*
X4170680Y-13805700D01*
X4120680Y-13855700D01*
X4170680Y-13905700D01*
X4180840Y-12562040D02*
X4230840Y-12512040D01*
X4180840Y-12462040D01*
X4130840Y-12512040D01*
X4180840Y-12562040D01*
X4180840Y-12816040D02*
X4230840Y-12766040D01*
X4180840Y-12716040D01*
X4130840Y-12766040D01*
X4180840Y-12816040D01*
X4424680Y-13397700D02*
X4474680Y-13347700D01*
X4424680Y-13297700D01*
X4374680Y-13347700D01*
X4424680Y-13397700D01*
X4424680Y-13651700D02*
X4474680Y-13601700D01*
X4424680Y-13551700D01*
X4374680Y-13601700D01*
X4424680Y-13651700D01*
X4424680Y-13905700D02*
X4474680Y-13855700D01*
X4424680Y-13805700D01*
X4374680Y-13855700D01*
X4424680Y-13905700D01*
X4434840Y-12562040D02*
X4484840Y-12512040D01*
X4434840Y-12462040D01*
X4384840Y-12512040D01*
X4434840Y-12562040D01*
X4434840Y-12816040D02*
X4484840Y-12766040D01*
X4434840Y-12716040D01*
X4384840Y-12766040D01*
X4434840Y-12816040D01*
X4475480Y-3270720D02*
X4525480Y-3220720D01*
X4475480Y-3170720D01*
X4425480Y-3220720D01*
X4475480Y-3270720D01*
X4475480Y-3520720D02*
X4525480Y-3470720D01*
X4475480Y-3420720D01*
X4425480Y-3470720D01*
X4475480Y-3520720D01*
X4677280Y-7029040D02*
X4727280Y-6979040D01*
X4677280Y-6929040D01*
X4627280Y-6979040D01*
X4677280Y-7029040D01*
X4677280Y-7283040D02*
X4727280Y-7233040D01*
X4677280Y-7183040D01*
X4627280Y-7233040D01*
X4677280Y-7283040D01*
X4677280Y-7537040D02*
X4727280Y-7487040D01*
X4677280Y-7437040D01*
X4627280Y-7487040D01*
X4677280Y-7537040D01*
X4677280Y-7791040D02*
X4727280Y-7741040D01*
X4677280Y-7691040D01*
X4627280Y-7741040D01*
X4677280Y-7791040D01*
X4677280Y-8045040D02*
X4727280Y-7995040D01*
X4677280Y-7945040D01*
X4627280Y-7995040D01*
X4677280Y-8045040D01*
X4677280Y-8299040D02*
X4727280Y-8249040D01*
X4677280Y-8199040D01*
X4627280Y-8249040D01*
X4677280Y-8299040D01*
X4677280Y-8553040D02*
X4727280Y-8503040D01*
X4677280Y-8453040D01*
X4627280Y-8503040D01*
X4677280Y-8553040D01*
X4677280Y-8807040D02*
X4727280Y-8757040D01*
X4677280Y-8707040D01*
X4627280Y-8757040D01*
X4677280Y-8807040D01*
X4677280Y-9061040D02*
X4727280Y-9011040D01*
X4677280Y-8961040D01*
X4627280Y-9011040D01*
X4677280Y-9061040D01*
X4677280Y-9315040D02*
X4727280Y-9265040D01*
X4677280Y-9215040D01*
X4627280Y-9265040D01*
X4677280Y-9315040D01*
X4677280Y-9569040D02*
X4727280Y-9519040D01*
X4677280Y-9469040D01*
X4627280Y-9519040D01*
X4677280Y-9569040D01*
X4677280Y-9823040D02*
X4727280Y-9773040D01*
X4677280Y-9723040D01*
X4627280Y-9773040D01*
X4677280Y-9823040D01*
X4677280Y-10077040D02*
X4727280Y-10027040D01*
X4677280Y-9977040D01*
X4627280Y-10027040D01*
X4677280Y-10077040D01*
X4677280Y-10331040D02*
X4727280Y-10281040D01*
X4677280Y-10231040D01*
X4627280Y-10281040D01*
X4677280Y-10331040D01*
X4677280Y-10585040D02*
X4727280Y-10535040D01*
X4677280Y-10485040D01*
X4627280Y-10535040D01*
X4677280Y-10585040D01*
X4688840Y-12562040D02*
X4738840Y-12512040D01*
X4688840Y-12462040D01*
X4638840Y-12512040D01*
X4688840Y-12562040D01*
X4688840Y-12816040D02*
X4738840Y-12766040D01*
X4688840Y-12716040D01*
X4638840Y-12766040D01*
X4688840Y-12816040D01*
X4932680Y-13397700D02*
X4982680Y-13347700D01*
X4932680Y-13297700D01*
X4882680Y-13347700D01*
X4932680Y-13397700D01*
X4932680Y-13651700D02*
X4982680Y-13601700D01*
X4932680Y-13551700D01*
X4882680Y-13601700D01*
X4932680Y-13651700D01*
X4932680Y-13905700D02*
X4982680Y-13855700D01*
X4932680Y-13805700D01*
X4882680Y-13855700D01*
X4932680Y-13905700D01*
X4942840Y-12562040D02*
X4992840Y-12512040D01*
X4942840Y-12462040D01*
X4892840Y-12512040D01*
X4942840Y-12562040D01*
X4942840Y-12816040D02*
X4992840Y-12766040D01*
X4942840Y-12716040D01*
X4892840Y-12766040D01*
X4942840Y-12816040D01*
X5186680Y-13397700D02*
X5236680Y-13347700D01*
X5186680Y-13297700D01*
X5136680Y-13347700D01*
X5186680Y-13397700D01*
X5186680Y-13651700D02*
X5236680Y-13601700D01*
X5186680Y-13551700D01*
X5136680Y-13601700D01*
X5186680Y-13651700D01*
X5186680Y-13905700D02*
X5236680Y-13855700D01*
X5186680Y-13805700D01*
X5136680Y-13855700D01*
X5186680Y-13905700D01*
X5196840Y-12562040D02*
X5246840Y-12512040D01*
X5196840Y-12462040D01*
X5146840Y-12512040D01*
X5196840Y-12562040D01*
X5196840Y-12816040D02*
X5246840Y-12766040D01*
X5196840Y-12716040D01*
X5146840Y-12766040D01*
X5196840Y-12816040D01*
X5226240Y-14355280D02*
X5276240Y-14305280D01*
X5226240Y-14255280D01*
X5176240Y-14305280D01*
X5226240Y-14355280D01*
X5303520Y-2717000D02*
X5353520Y-2667000D01*
X5303520Y-2617000D01*
X5253520Y-2667000D01*
X5303520Y-2717000D01*
X5303520Y-2967000D02*
X5353520Y-2917000D01*
X5303520Y-2867000D01*
X5253520Y-2917000D01*
X5303520Y-2967000D01*
X5400040Y-10601160D02*
X5450040Y-10551160D01*
X5400040Y-10501160D01*
X5350040Y-10551160D01*
X5400040Y-10601160D01*
X5405120Y-11007560D02*
X5455120Y-10957560D01*
X5405120Y-10907560D01*
X5355120Y-10957560D01*
X5405120Y-11007560D01*
X5410200Y-10199840D02*
X5460200Y-10149840D01*
X5410200Y-10099840D01*
X5360200Y-10149840D01*
X5410200Y-10199840D01*
X5440680Y-13397700D02*
X5490680Y-13347700D01*
X5440680Y-13297700D01*
X5390680Y-13347700D01*
X5440680Y-13397700D01*
X5440680Y-13651700D02*
X5490680Y-13601700D01*
X5440680Y-13551700D01*
X5390680Y-13601700D01*
X5440680Y-13651700D01*
X5440680Y-13905700D02*
X5490680Y-13855700D01*
X5440680Y-13805700D01*
X5390680Y-13855700D01*
X5440680Y-13905700D01*
X5450840Y-12562040D02*
X5500840Y-12512040D01*
X5450840Y-12462040D01*
X5400840Y-12512040D01*
X5450840Y-12562040D01*
X5450840Y-12816040D02*
X5500840Y-12766040D01*
X5450840Y-12716040D01*
X5400840Y-12766040D01*
X5450840Y-12816040D01*
X5476240Y-14355280D02*
X5526240Y-14305280D01*
X5476240Y-14255280D01*
X5426240Y-14305280D01*
X5476240Y-14355280D01*
X5654040Y-10601160D02*
X5704040Y-10551160D01*
X5654040Y-10501160D01*
X5604040Y-10551160D01*
X5654040Y-10601160D01*
X5659120Y-11007560D02*
X5709120Y-10957560D01*
X5659120Y-10907560D01*
X5609120Y-10957560D01*
X5659120Y-11007560D01*
X5664200Y-10199840D02*
X5714200Y-10149840D01*
X5664200Y-10099840D01*
X5614200Y-10149840D01*
X5664200Y-10199840D01*
X5694680Y-13397700D02*
X5744680Y-13347700D01*
X5694680Y-13297700D01*
X5644680Y-13347700D01*
X5694680Y-13397700D01*
X5694680Y-13651700D02*
X5744680Y-13601700D01*
X5694680Y-13551700D01*
X5644680Y-13601700D01*
X5694680Y-13651700D01*
X5694680Y-13905700D02*
X5744680Y-13855700D01*
X5694680Y-13805700D01*
X5644680Y-13855700D01*
X5694680Y-13905700D01*
X5704840Y-12562040D02*
X5754840Y-12512040D01*
X5704840Y-12462040D01*
X5654840Y-12512040D01*
X5704840Y-12562040D01*
X5704840Y-12816040D02*
X5754840Y-12766040D01*
X5704840Y-12716040D01*
X5654840Y-12766040D01*
X5704840Y-12816040D01*
X5897880Y-11886400D02*
X5947880Y-11836400D01*
X5897880Y-11786400D01*
X5847880Y-11836400D01*
X5897880Y-11886400D01*
X5908040Y-10601160D02*
X5958040Y-10551160D01*
X5908040Y-10501160D01*
X5858040Y-10551160D01*
X5908040Y-10601160D01*
X5913120Y-11007560D02*
X5963120Y-10957560D01*
X5913120Y-10907560D01*
X5863120Y-10957560D01*
X5913120Y-11007560D01*
X5918200Y-10199840D02*
X5968200Y-10149840D01*
X5918200Y-10099840D01*
X5868200Y-10149840D01*
X5918200Y-10199840D01*
X5958840Y-12562040D02*
X6008840Y-12512040D01*
X5958840Y-12462040D01*
X5908840Y-12512040D01*
X5958840Y-12562040D01*
X5958840Y-12816040D02*
X6008840Y-12766040D01*
X5958840Y-12716040D01*
X5908840Y-12766040D01*
X5958840Y-12816040D01*
X6004560Y-3748240D02*
X6054560Y-3698240D01*
X6004560Y-3648240D01*
X5954560Y-3698240D01*
X6004560Y-3748240D01*
X6004560Y-4114000D02*
X6054560Y-4064000D01*
X6004560Y-4014000D01*
X5954560Y-4064000D01*
X6004560Y-4114000D01*
X6004560Y-4479760D02*
X6054560Y-4429760D01*
X6004560Y-4379760D01*
X5954560Y-4429760D01*
X6004560Y-4479760D01*
X6004560Y-4850600D02*
X6054560Y-4800600D01*
X6004560Y-4750600D01*
X5954560Y-4800600D01*
X6004560Y-4850600D01*
X6187440Y-14690560D02*
X6237440Y-14640560D01*
X6187440Y-14590560D01*
X6137440Y-14640560D01*
X6187440Y-14690560D01*
X6212840Y-12562040D02*
X6262840Y-12512040D01*
X6212840Y-12462040D01*
X6162840Y-12512040D01*
X6212840Y-12562040D01*
X6212840Y-12816040D02*
X6262840Y-12766040D01*
X6212840Y-12716040D01*
X6162840Y-12766040D01*
X6212840Y-12816040D01*
X6243320Y-11886400D02*
X6293320Y-11836400D01*
X6243320Y-11786400D01*
X6193320Y-11836400D01*
X6243320Y-11886400D01*
X6253480Y-2681440D02*
X6303480Y-2631440D01*
X6253480Y-2581440D01*
X6203480Y-2631440D01*
X6253480Y-2681440D01*
X6253480Y-2931440D02*
X6303480Y-2881440D01*
X6253480Y-2831440D01*
X6203480Y-2881440D01*
X6253480Y-2931440D01*
X6258560Y-3748240D02*
X6308560Y-3698240D01*
X6258560Y-3648240D01*
X6208560Y-3698240D01*
X6258560Y-3748240D01*
X6258560Y-4114000D02*
X6308560Y-4064000D01*
X6258560Y-4014000D01*
X6208560Y-4064000D01*
X6258560Y-4114000D01*
X6258560Y-4479760D02*
X6308560Y-4429760D01*
X6258560Y-4379760D01*
X6208560Y-4429760D01*
X6258560Y-4479760D01*
X6258560Y-4850600D02*
X6308560Y-4800600D01*
X6258560Y-4750600D01*
X6208560Y-4800600D01*
X6258560Y-4850600D01*
X6441440Y-14690560D02*
X6491440Y-14640560D01*
X6441440Y-14590560D01*
X6391440Y-14640560D01*
X6441440Y-14690560D01*
X6456680Y-13397700D02*
X6506680Y-13347700D01*
X6456680Y-13297700D01*
X6406680Y-13347700D01*
X6456680Y-13397700D01*
X6456680Y-13651700D02*
X6506680Y-13601700D01*
X6456680Y-13551700D01*
X6406680Y-13601700D01*
X6456680Y-13651700D01*
X6456680Y-13905700D02*
X6506680Y-13855700D01*
X6456680Y-13805700D01*
X6406680Y-13855700D01*
X6456680Y-13905700D01*
X6466840Y-12562040D02*
X6516840Y-12512040D01*
X6466840Y-12462040D01*
X6416840Y-12512040D01*
X6466840Y-12562040D01*
X6466840Y-12816040D02*
X6516840Y-12766040D01*
X6466840Y-12716040D01*
X6416840Y-12766040D01*
X6466840Y-12816040D01*
X6512560Y-3748240D02*
X6562560Y-3698240D01*
X6512560Y-3648240D01*
X6462560Y-3698240D01*
X6512560Y-3748240D01*
X6512560Y-4114000D02*
X6562560Y-4064000D01*
X6512560Y-4014000D01*
X6462560Y-4064000D01*
X6512560Y-4114000D01*
X6512560Y-4479760D02*
X6562560Y-4429760D01*
X6512560Y-4379760D01*
X6462560Y-4429760D01*
X6512560Y-4479760D01*
X6512560Y-4850600D02*
X6562560Y-4800600D01*
X6512560Y-4750600D01*
X6462560Y-4800600D01*
X6512560Y-4850600D01*
X6548120Y-10184600D02*
X6598120Y-10134600D01*
X6548120Y-10084600D01*
X6498120Y-10134600D01*
X6548120Y-10184600D01*
X6573520Y-10611320D02*
X6623520Y-10561320D01*
X6573520Y-10511320D01*
X6523520Y-10561320D01*
X6573520Y-10611320D01*
X6588760Y-11012640D02*
X6638760Y-10962640D01*
X6588760Y-10912640D01*
X6538760Y-10962640D01*
X6588760Y-11012640D01*
X6695440Y-14690560D02*
X6745440Y-14640560D01*
X6695440Y-14590560D01*
X6645440Y-14640560D01*
X6695440Y-14690560D01*
X6710680Y-13397700D02*
X6760680Y-13347700D01*
X6710680Y-13297700D01*
X6660680Y-13347700D01*
X6710680Y-13397700D01*
X6710680Y-13651700D02*
X6760680Y-13601700D01*
X6710680Y-13551700D01*
X6660680Y-13601700D01*
X6710680Y-13651700D01*
X6710680Y-13905700D02*
X6760680Y-13855700D01*
X6710680Y-13805700D01*
X6660680Y-13855700D01*
X6710680Y-13905700D01*
X6720840Y-12562040D02*
X6770840Y-12512040D01*
X6720840Y-12462040D01*
X6670840Y-12512040D01*
X6720840Y-12562040D01*
X6720840Y-12816040D02*
X6770840Y-12766040D01*
X6720840Y-12716040D01*
X6670840Y-12766040D01*
X6720840Y-12816040D01*
X6802120Y-10184600D02*
X6852120Y-10134600D01*
X6802120Y-10084600D01*
X6752120Y-10134600D01*
X6802120Y-10184600D01*
X6827520Y-10611320D02*
X6877520Y-10561320D01*
X6827520Y-10511320D01*
X6777520Y-10561320D01*
X6827520Y-10611320D01*
X6842760Y-11012640D02*
X6892760Y-10962640D01*
X6842760Y-10912640D01*
X6792760Y-10962640D01*
X6842760Y-11012640D01*
X6949440Y-14690560D02*
X6999440Y-14640560D01*
X6949440Y-14590560D01*
X6899440Y-14640560D01*
X6949440Y-14690560D01*
X6964680Y-13397700D02*
X7014680Y-13347700D01*
X6964680Y-13297700D01*
X6914680Y-13347700D01*
X6964680Y-13397700D01*
X6964680Y-13651700D02*
X7014680Y-13601700D01*
X6964680Y-13551700D01*
X6914680Y-13601700D01*
X6964680Y-13651700D01*
X6964680Y-13905700D02*
X7014680Y-13855700D01*
X6964680Y-13805700D01*
X6914680Y-13855700D01*
X6964680Y-13905700D01*
X6974840Y-12562040D02*
X7024840Y-12512040D01*
X6974840Y-12462040D01*
X6924840Y-12512040D01*
X6974840Y-12562040D01*
X6974840Y-12816040D02*
X7024840Y-12766040D01*
X6974840Y-12716040D01*
X6924840Y-12766040D01*
X6974840Y-12816040D01*
X7056120Y-10184600D02*
X7106120Y-10134600D01*
X7056120Y-10084600D01*
X7006120Y-10134600D01*
X7056120Y-10184600D01*
X7066280Y-2681440D02*
X7116280Y-2631440D01*
X7066280Y-2581440D01*
X7016280Y-2631440D01*
X7066280Y-2681440D01*
X7066280Y-2931440D02*
X7116280Y-2881440D01*
X7066280Y-2831440D01*
X7016280Y-2881440D01*
X7066280Y-2931440D01*
X7081520Y-10611320D02*
X7131520Y-10561320D01*
X7081520Y-10511320D01*
X7031520Y-10561320D01*
X7081520Y-10611320D01*
X7096760Y-11012640D02*
X7146760Y-10962640D01*
X7096760Y-10912640D01*
X7046760Y-10962640D01*
X7096760Y-11012640D01*
X7203440Y-14690560D02*
X7253440Y-14640560D01*
X7203440Y-14590560D01*
X7153440Y-14640560D01*
X7203440Y-14690560D01*
X7218680Y-13397700D02*
X7268680Y-13347700D01*
X7218680Y-13297700D01*
X7168680Y-13347700D01*
X7218680Y-13397700D01*
X7218680Y-13651700D02*
X7268680Y-13601700D01*
X7218680Y-13551700D01*
X7168680Y-13601700D01*
X7218680Y-13651700D01*
X7218680Y-13905700D02*
X7268680Y-13855700D01*
X7218680Y-13805700D01*
X7168680Y-13855700D01*
X7218680Y-13905700D01*
X7228840Y-12562040D02*
X7278840Y-12512040D01*
X7228840Y-12462040D01*
X7178840Y-12512040D01*
X7228840Y-12562040D01*
X7228840Y-12816040D02*
X7278840Y-12766040D01*
X7228840Y-12716040D01*
X7178840Y-12766040D01*
X7228840Y-12816040D01*
X7239000Y-5441380D02*
X7289000Y-5391380D01*
X7239000Y-5341380D01*
X7189000Y-5391380D01*
X7239000Y-5441380D01*
X7239000Y-5695380D02*
X7289000Y-5645380D01*
X7239000Y-5595380D01*
X7189000Y-5645380D01*
X7239000Y-5695380D01*
X7239000Y-5949380D02*
X7289000Y-5899380D01*
X7239000Y-5849380D01*
X7189000Y-5899380D01*
X7239000Y-5949380D01*
X7457440Y-14690560D02*
X7507440Y-14640560D01*
X7457440Y-14590560D01*
X7407440Y-14640560D01*
X7457440Y-14690560D01*
X7482840Y-12562040D02*
X7532840Y-12512040D01*
X7482840Y-12462040D01*
X7432840Y-12512040D01*
X7482840Y-12562040D01*
X7482840Y-12816040D02*
X7532840Y-12766040D01*
X7482840Y-12716040D01*
X7432840Y-12766040D01*
X7482840Y-12816040D01*
X7572780Y-11012640D02*
X7622780Y-10962640D01*
X7572780Y-10912640D01*
X7522780Y-10962640D01*
X7572780Y-11012640D01*
X7579360Y-10616400D02*
X7629360Y-10566400D01*
X7579360Y-10516400D01*
X7529360Y-10566400D01*
X7579360Y-10616400D01*
X7711440Y-14690560D02*
X7761440Y-14640560D01*
X7711440Y-14590560D01*
X7661440Y-14640560D01*
X7711440Y-14690560D01*
X7726680Y-9720820D02*
X7776680Y-9670820D01*
X7726680Y-9620820D01*
X7676680Y-9670820D01*
X7726680Y-9720820D01*
X7726680Y-9974820D02*
X7776680Y-9924820D01*
X7726680Y-9874820D01*
X7676680Y-9924820D01*
X7726680Y-9974820D01*
X7726680Y-10228820D02*
X7776680Y-10178820D01*
X7726680Y-10128820D01*
X7676680Y-10178820D01*
X7726680Y-10228820D01*
X7726680Y-13397700D02*
X7776680Y-13347700D01*
X7726680Y-13297700D01*
X7676680Y-13347700D01*
X7726680Y-13397700D01*
X7726680Y-13651700D02*
X7776680Y-13601700D01*
X7726680Y-13551700D01*
X7676680Y-13601700D01*
X7726680Y-13651700D01*
X7726680Y-13905700D02*
X7776680Y-13855700D01*
X7726680Y-13805700D01*
X7676680Y-13855700D01*
X7726680Y-13905700D01*
X7736840Y-12562040D02*
X7786840Y-12512040D01*
X7736840Y-12462040D01*
X7686840Y-12512040D01*
X7736840Y-12562040D01*
X7736840Y-12816040D02*
X7786840Y-12766040D01*
X7736840Y-12716040D01*
X7686840Y-12766040D01*
X7736840Y-12816040D01*
X7807960Y-3113240D02*
X7857960Y-3063240D01*
X7807960Y-3013240D01*
X7757960Y-3063240D01*
X7807960Y-3113240D01*
X7807960Y-3363240D02*
X7857960Y-3313240D01*
X7807960Y-3263240D01*
X7757960Y-3313240D01*
X7807960Y-3363240D01*
X7826780Y-11012640D02*
X7876780Y-10962640D01*
X7826780Y-10912640D01*
X7776780Y-10962640D01*
X7826780Y-11012640D01*
X7833360Y-10616400D02*
X7883360Y-10566400D01*
X7833360Y-10516400D01*
X7783360Y-10566400D01*
X7833360Y-10616400D01*
X7965440Y-14690560D02*
X8015440Y-14640560D01*
X7965440Y-14590560D01*
X7915440Y-14640560D01*
X7965440Y-14690560D01*
X7980680Y-13397700D02*
X8030680Y-13347700D01*
X7980680Y-13297700D01*
X7930680Y-13347700D01*
X7980680Y-13397700D01*
X7980680Y-13651700D02*
X8030680Y-13601700D01*
X7980680Y-13551700D01*
X7930680Y-13601700D01*
X7980680Y-13651700D01*
X7980680Y-13905700D02*
X8030680Y-13855700D01*
X7980680Y-13805700D01*
X7930680Y-13855700D01*
X7980680Y-13905700D01*
X7990840Y-12562040D02*
X8040840Y-12512040D01*
X7990840Y-12462040D01*
X7940840Y-12512040D01*
X7990840Y-12562040D01*
X7990840Y-12816040D02*
X8040840Y-12766040D01*
X7990840Y-12716040D01*
X7940840Y-12766040D01*
X7990840Y-12816040D01*
X8080780Y-11012640D02*
X8130780Y-10962640D01*
X8080780Y-10912640D01*
X8030780Y-10962640D01*
X8080780Y-11012640D01*
X8087360Y-10616400D02*
X8137360Y-10566400D01*
X8087360Y-10516400D01*
X8037360Y-10566400D01*
X8087360Y-10616400D01*
X8234680Y-13397700D02*
X8284680Y-13347700D01*
X8234680Y-13297700D01*
X8184680Y-13347700D01*
X8234680Y-13397700D01*
X8234680Y-13651700D02*
X8284680Y-13601700D01*
X8234680Y-13551700D01*
X8184680Y-13601700D01*
X8234680Y-13651700D01*
X8234680Y-13905700D02*
X8284680Y-13855700D01*
X8234680Y-13805700D01*
X8184680Y-13855700D01*
X8234680Y-13905700D01*
X8244840Y-12562040D02*
X8294840Y-12512040D01*
X8244840Y-12462040D01*
X8194840Y-12512040D01*
X8244840Y-12562040D01*
X8244840Y-12816040D02*
X8294840Y-12766040D01*
X8244840Y-12716040D01*
X8194840Y-12766040D01*
X8244840Y-12816040D01*
X8488680Y-13397700D02*
X8538680Y-13347700D01*
X8488680Y-13297700D01*
X8438680Y-13347700D01*
X8488680Y-13397700D01*
X8488680Y-13651700D02*
X8538680Y-13601700D01*
X8488680Y-13551700D01*
X8438680Y-13601700D01*
X8488680Y-13651700D01*
X8488680Y-13905700D02*
X8538680Y-13855700D01*
X8488680Y-13805700D01*
X8438680Y-13855700D01*
X8488680Y-13905700D01*
X8498840Y-12562040D02*
X8548840Y-12512040D01*
X8498840Y-12462040D01*
X8448840Y-12512040D01*
X8498840Y-12562040D01*
X8498840Y-12816040D02*
X8548840Y-12766040D01*
X8498840Y-12716040D01*
X8448840Y-12766040D01*
X8498840Y-12816040D01*
X8996680Y-12127700D02*
X9046680Y-12077700D01*
X8996680Y-12027700D01*
X8946680Y-12077700D01*
X8996680Y-12127700D01*
X8996680Y-12381700D02*
X9046680Y-12331700D01*
X8996680Y-12281700D01*
X8946680Y-12331700D01*
X8996680Y-12381700D01*
X8996680Y-12635700D02*
X9046680Y-12585700D01*
X8996680Y-12535700D01*
X8946680Y-12585700D01*
X8996680Y-12635700D01*
X8996680Y-12889700D02*
X9046680Y-12839700D01*
X8996680Y-12789700D01*
X8946680Y-12839700D01*
X8996680Y-12889700D01*
X8996680Y-13143700D02*
X9046680Y-13093700D01*
X8996680Y-13043700D01*
X8946680Y-13093700D01*
X8996680Y-13143700D01*
X8996680Y-13397700D02*
X9046680Y-13347700D01*
X8996680Y-13297700D01*
X8946680Y-13347700D01*
X8996680Y-13397700D01*
D17*
X2231160Y-4974360D02*
X2361160Y-5104360D01*
X2361160Y-4974360D02*
X2231160Y-5104360D01*
X2361160Y-5039360D02*
G75*
G03*
X2361160Y-5039360I-65000J0D01*
G01*
X2231160Y-5482360D02*
X2361160Y-5612360D01*
X2361160Y-5482360D02*
X2231160Y-5612360D01*
X2361160Y-5547360D02*
G75*
G03*
X2361160Y-5547360I-65000J0D01*
G01*
X2236240Y-3851680D02*
X2366240Y-3981680D01*
X2366240Y-3851680D02*
X2236240Y-3981680D01*
X2366240Y-3916680D02*
G75*
G03*
X2366240Y-3916680I-65000J0D01*
G01*
X2236240Y-4359680D02*
X2366240Y-4489680D01*
X2366240Y-4359680D02*
X2236240Y-4489680D01*
X2366240Y-4424680D02*
G75*
G03*
X2366240Y-4424680I-65000J0D01*
G01*
X3689120Y-1550440D02*
X3819120Y-1680440D01*
X3819120Y-1550440D02*
X3689120Y-1680440D01*
X3819120Y-1615440D02*
G75*
G03*
X3819120Y-1615440I-65000J0D01*
G01*
X3856760Y-15149600D02*
X3986760Y-15279600D01*
X3986760Y-15149600D02*
X3856760Y-15279600D01*
X3986760Y-15214600D02*
G75*
G03*
X3986760Y-15214600I-65000J0D01*
G01*
X4197120Y-1550440D02*
X4327120Y-1680440D01*
X4327120Y-1550440D02*
X4197120Y-1680440D01*
X4327120Y-1615440D02*
G75*
G03*
X4327120Y-1615440I-65000J0D01*
G01*
X4364760Y-15149600D02*
X4494760Y-15279600D01*
X4494760Y-15149600D02*
X4364760Y-15279600D01*
X4494760Y-15214600D02*
G75*
G03*
X4494760Y-15214600I-65000J0D01*
G01*
X4821960Y-1550440D02*
X4951960Y-1680440D01*
X4951960Y-1550440D02*
X4821960Y-1680440D01*
X4951960Y-1615440D02*
G75*
G03*
X4951960Y-1615440I-65000J0D01*
G01*
X4999760Y-15149600D02*
X5129760Y-15279600D01*
X5129760Y-15149600D02*
X4999760Y-15279600D01*
X5129760Y-15214600D02*
G75*
G03*
X5129760Y-15214600I-65000J0D01*
G01*
X5329960Y-1550440D02*
X5459960Y-1680440D01*
X5459960Y-1550440D02*
X5329960Y-1680440D01*
X5459960Y-1615440D02*
G75*
G03*
X5459960Y-1615440I-65000J0D01*
G01*
X5507760Y-15149600D02*
X5637760Y-15279600D01*
X5637760Y-15149600D02*
X5507760Y-15279600D01*
X5637760Y-15214600D02*
G75*
G03*
X5637760Y-15214600I-65000J0D01*
G01*
X5954800Y-1550440D02*
X6084800Y-1680440D01*
X6084800Y-1550440D02*
X5954800Y-1680440D01*
X6084800Y-1615440D02*
G75*
G03*
X6084800Y-1615440I-65000J0D01*
G01*
X6462800Y-1550440D02*
X6592800Y-1680440D01*
X6592800Y-1550440D02*
X6462800Y-1680440D01*
X6592800Y-1615440D02*
G75*
G03*
X6592800Y-1615440I-65000J0D01*
G01*
X7077480Y-1550440D02*
X7207480Y-1680440D01*
X7207480Y-1550440D02*
X7077480Y-1680440D01*
X7207480Y-1615440D02*
G75*
G03*
X7207480Y-1615440I-65000J0D01*
G01*
X7585480Y-1550440D02*
X7715480Y-1680440D01*
X7715480Y-1550440D02*
X7585480Y-1680440D01*
X7715480Y-1615440D02*
G75*
G03*
X7715480Y-1615440I-65000J0D01*
G01*
X9973080Y-3435120D02*
X10103080Y-3565120D01*
X10103080Y-3435120D02*
X9973080Y-3565120D01*
X10103080Y-3500120D02*
G75*
G03*
X10103080Y-3500120I-65000J0D01*
G01*
X9973080Y-3943120D02*
X10103080Y-4073120D01*
X10103080Y-3943120D02*
X9973080Y-4073120D01*
X10103080Y-4008120D02*
G75*
G03*
X10103080Y-4008120I-65000J0D01*
G01*
D12*
X2031437Y-16045472D02*
X2031437Y-15845472D01*
X2031437Y-15845472D02*
X2079056Y-15845472D01*
X2079056Y-15845472D02*
X2107627Y-15854996D01*
X2107627Y-15854996D02*
X2126675Y-15874043D01*
X2126675Y-15874043D02*
X2136199Y-15893091D01*
X2136199Y-15893091D02*
X2145723Y-15931186D01*
X2145723Y-15931186D02*
X2145723Y-15959758D01*
X2145723Y-15959758D02*
X2136199Y-15997853D01*
X2136199Y-15997853D02*
X2126675Y-16016901D01*
X2126675Y-16016901D02*
X2107627Y-16035948D01*
X2107627Y-16035948D02*
X2079056Y-16045472D01*
X2079056Y-16045472D02*
X2031437Y-16045472D01*
X2231437Y-16045472D02*
X2231437Y-15912139D01*
X2231437Y-15950234D02*
X2240961Y-15931186D01*
X2240961Y-15931186D02*
X2250485Y-15921662D01*
X2250485Y-15921662D02*
X2269532Y-15912139D01*
X2269532Y-15912139D02*
X2288580Y-15912139D01*
X2355246Y-16045472D02*
X2355246Y-15912139D01*
X2355246Y-15845472D02*
X2345723Y-15854996D01*
X2345723Y-15854996D02*
X2355246Y-15864520D01*
X2355246Y-15864520D02*
X2364770Y-15854996D01*
X2364770Y-15854996D02*
X2355246Y-15845472D01*
X2355246Y-15845472D02*
X2355246Y-15864520D01*
X2479056Y-16045472D02*
X2460008Y-16035948D01*
X2460008Y-16035948D02*
X2450485Y-16016901D01*
X2450485Y-16016901D02*
X2450485Y-15845472D01*
X2583818Y-16045472D02*
X2564770Y-16035948D01*
X2564770Y-16035948D02*
X2555246Y-16016901D01*
X2555246Y-16016901D02*
X2555246Y-15845472D01*
X2812389Y-16045472D02*
X2812389Y-15845472D01*
X2812389Y-15845472D02*
X2879056Y-15988329D01*
X2879056Y-15988329D02*
X2945723Y-15845472D01*
X2945723Y-15845472D02*
X2945723Y-16045472D01*
X3126675Y-16045472D02*
X3126675Y-15940710D01*
X3126675Y-15940710D02*
X3117151Y-15921662D01*
X3117151Y-15921662D02*
X3098104Y-15912139D01*
X3098104Y-15912139D02*
X3060008Y-15912139D01*
X3060008Y-15912139D02*
X3040961Y-15921662D01*
X3126675Y-16035948D02*
X3107627Y-16045472D01*
X3107627Y-16045472D02*
X3060008Y-16045472D01*
X3060008Y-16045472D02*
X3040961Y-16035948D01*
X3040961Y-16035948D02*
X3031437Y-16016901D01*
X3031437Y-16016901D02*
X3031437Y-15997853D01*
X3031437Y-15997853D02*
X3040961Y-15978805D01*
X3040961Y-15978805D02*
X3060008Y-15969282D01*
X3060008Y-15969282D02*
X3107627Y-15969282D01*
X3107627Y-15969282D02*
X3126675Y-15959758D01*
X3221913Y-15912139D02*
X3221913Y-16112139D01*
X3221913Y-15921662D02*
X3240961Y-15912139D01*
X3240961Y-15912139D02*
X3279056Y-15912139D01*
X3279056Y-15912139D02*
X3298104Y-15921662D01*
X3298104Y-15921662D02*
X3307627Y-15931186D01*
X3307627Y-15931186D02*
X3317151Y-15950234D01*
X3317151Y-15950234D02*
X3317151Y-16007377D01*
X3317151Y-16007377D02*
X3307627Y-16026424D01*
X3307627Y-16026424D02*
X3298104Y-16035948D01*
X3298104Y-16035948D02*
X3279056Y-16045472D01*
X3279056Y-16045472D02*
X3240961Y-16045472D01*
X3240961Y-16045472D02*
X3221913Y-16035948D01*
X3402865Y-16026424D02*
X3412389Y-16035948D01*
X3412389Y-16035948D02*
X3402865Y-16045472D01*
X3402865Y-16045472D02*
X3393342Y-16035948D01*
X3393342Y-16035948D02*
X3402865Y-16026424D01*
X3402865Y-16026424D02*
X3402865Y-16045472D01*
X3402865Y-15921662D02*
X3412389Y-15931186D01*
X3412389Y-15931186D02*
X3402865Y-15940710D01*
X3402865Y-15940710D02*
X3393342Y-15931186D01*
X3393342Y-15931186D02*
X3402865Y-15921662D01*
X3402865Y-15921662D02*
X3402865Y-15940710D01*
D13*
X1730660Y-16353988D02*
X1770660Y-16393988D01*
X1770660Y-16353988D02*
X1730660Y-16393988D01*
D12*
X2069532Y-16265472D02*
X2088580Y-16265472D01*
X2088580Y-16265472D02*
X2107627Y-16274996D01*
X2107627Y-16274996D02*
X2117151Y-16284520D01*
X2117151Y-16284520D02*
X2126675Y-16303567D01*
X2126675Y-16303567D02*
X2136199Y-16341662D01*
X2136199Y-16341662D02*
X2136199Y-16389282D01*
X2136199Y-16389282D02*
X2126675Y-16427377D01*
X2126675Y-16427377D02*
X2117151Y-16446424D01*
X2117151Y-16446424D02*
X2107627Y-16455948D01*
X2107627Y-16455948D02*
X2088580Y-16465472D01*
X2088580Y-16465472D02*
X2069532Y-16465472D01*
X2069532Y-16465472D02*
X2050484Y-16455948D01*
X2050484Y-16455948D02*
X2040961Y-16446424D01*
X2040961Y-16446424D02*
X2031437Y-16427377D01*
X2031437Y-16427377D02*
X2021913Y-16389282D01*
X2021913Y-16389282D02*
X2021913Y-16341662D01*
X2021913Y-16341662D02*
X2031437Y-16303567D01*
X2031437Y-16303567D02*
X2040961Y-16284520D01*
X2040961Y-16284520D02*
X2050484Y-16274996D01*
X2050484Y-16274996D02*
X2069532Y-16265472D01*
X2221913Y-16446424D02*
X2231437Y-16455948D01*
X2231437Y-16455948D02*
X2221913Y-16465472D01*
X2221913Y-16465472D02*
X2212389Y-16455948D01*
X2212389Y-16455948D02*
X2221913Y-16446424D01*
X2221913Y-16446424D02*
X2221913Y-16465472D01*
X2402866Y-16332139D02*
X2402866Y-16465472D01*
X2355246Y-16255948D02*
X2307627Y-16398805D01*
X2307627Y-16398805D02*
X2431437Y-16398805D01*
X2545723Y-16265472D02*
X2564770Y-16265472D01*
X2564770Y-16265472D02*
X2583818Y-16274996D01*
X2583818Y-16274996D02*
X2593342Y-16284520D01*
X2593342Y-16284520D02*
X2602866Y-16303567D01*
X2602866Y-16303567D02*
X2612389Y-16341662D01*
X2612389Y-16341662D02*
X2612389Y-16389282D01*
X2612389Y-16389282D02*
X2602866Y-16427377D01*
X2602866Y-16427377D02*
X2593342Y-16446424D01*
X2593342Y-16446424D02*
X2583818Y-16455948D01*
X2583818Y-16455948D02*
X2564770Y-16465472D01*
X2564770Y-16465472D02*
X2545723Y-16465472D01*
X2545723Y-16465472D02*
X2526675Y-16455948D01*
X2526675Y-16455948D02*
X2517151Y-16446424D01*
X2517151Y-16446424D02*
X2507627Y-16427377D01*
X2507627Y-16427377D02*
X2498104Y-16389282D01*
X2498104Y-16389282D02*
X2498104Y-16341662D01*
X2498104Y-16341662D02*
X2507627Y-16303567D01*
X2507627Y-16303567D02*
X2517151Y-16284520D01*
X2517151Y-16284520D02*
X2526675Y-16274996D01*
X2526675Y-16274996D02*
X2545723Y-16265472D01*
X2736199Y-16265472D02*
X2755247Y-16265472D01*
X2755247Y-16265472D02*
X2774294Y-16274996D01*
X2774294Y-16274996D02*
X2783818Y-16284520D01*
X2783818Y-16284520D02*
X2793342Y-16303567D01*
X2793342Y-16303567D02*
X2802865Y-16341662D01*
X2802865Y-16341662D02*
X2802865Y-16389282D01*
X2802865Y-16389282D02*
X2793342Y-16427377D01*
X2793342Y-16427377D02*
X2783818Y-16446424D01*
X2783818Y-16446424D02*
X2774294Y-16455948D01*
X2774294Y-16455948D02*
X2755247Y-16465472D01*
X2755247Y-16465472D02*
X2736199Y-16465472D01*
X2736199Y-16465472D02*
X2717151Y-16455948D01*
X2717151Y-16455948D02*
X2707627Y-16446424D01*
X2707627Y-16446424D02*
X2698104Y-16427377D01*
X2698104Y-16427377D02*
X2688580Y-16389282D01*
X2688580Y-16389282D02*
X2688580Y-16341662D01*
X2688580Y-16341662D02*
X2698104Y-16303567D01*
X2698104Y-16303567D02*
X2707627Y-16284520D01*
X2707627Y-16284520D02*
X2717151Y-16274996D01*
X2717151Y-16274996D02*
X2736199Y-16265472D01*
X2888580Y-16465472D02*
X2888580Y-16332139D01*
X2888580Y-16351186D02*
X2898104Y-16341662D01*
X2898104Y-16341662D02*
X2917151Y-16332139D01*
X2917151Y-16332139D02*
X2945723Y-16332139D01*
X2945723Y-16332139D02*
X2964770Y-16341662D01*
X2964770Y-16341662D02*
X2974294Y-16360710D01*
X2974294Y-16360710D02*
X2974294Y-16465472D01*
X2974294Y-16360710D02*
X2983818Y-16341662D01*
X2983818Y-16341662D02*
X3002865Y-16332139D01*
X3002865Y-16332139D02*
X3031437Y-16332139D01*
X3031437Y-16332139D02*
X3050485Y-16341662D01*
X3050485Y-16341662D02*
X3060008Y-16360710D01*
X3060008Y-16360710D02*
X3060008Y-16465472D01*
X3155246Y-16465472D02*
X3155246Y-16332139D01*
X3155246Y-16351186D02*
X3164770Y-16341662D01*
X3164770Y-16341662D02*
X3183818Y-16332139D01*
X3183818Y-16332139D02*
X3212389Y-16332139D01*
X3212389Y-16332139D02*
X3231437Y-16341662D01*
X3231437Y-16341662D02*
X3240961Y-16360710D01*
X3240961Y-16360710D02*
X3240961Y-16465472D01*
X3240961Y-16360710D02*
X3250485Y-16341662D01*
X3250485Y-16341662D02*
X3269532Y-16332139D01*
X3269532Y-16332139D02*
X3298104Y-16332139D01*
X3298104Y-16332139D02*
X3317151Y-16341662D01*
X3317151Y-16341662D02*
X3326675Y-16360710D01*
X3326675Y-16360710D02*
X3326675Y-16465472D01*
X3717151Y-16255948D02*
X3545723Y-16513091D01*
X3974294Y-16265472D02*
X3993342Y-16265472D01*
X3993342Y-16265472D02*
X4012389Y-16274996D01*
X4012389Y-16274996D02*
X4021913Y-16284520D01*
X4021913Y-16284520D02*
X4031437Y-16303567D01*
X4031437Y-16303567D02*
X4040961Y-16341662D01*
X4040961Y-16341662D02*
X4040961Y-16389282D01*
X4040961Y-16389282D02*
X4031437Y-16427377D01*
X4031437Y-16427377D02*
X4021913Y-16446424D01*
X4021913Y-16446424D02*
X4012389Y-16455948D01*
X4012389Y-16455948D02*
X3993342Y-16465472D01*
X3993342Y-16465472D02*
X3974294Y-16465472D01*
X3974294Y-16465472D02*
X3955247Y-16455948D01*
X3955247Y-16455948D02*
X3945723Y-16446424D01*
X3945723Y-16446424D02*
X3936199Y-16427377D01*
X3936199Y-16427377D02*
X3926675Y-16389282D01*
X3926675Y-16389282D02*
X3926675Y-16341662D01*
X3926675Y-16341662D02*
X3936199Y-16303567D01*
X3936199Y-16303567D02*
X3945723Y-16284520D01*
X3945723Y-16284520D02*
X3955247Y-16274996D01*
X3955247Y-16274996D02*
X3974294Y-16265472D01*
X4126675Y-16446424D02*
X4136199Y-16455948D01*
X4136199Y-16455948D02*
X4126675Y-16465472D01*
X4126675Y-16465472D02*
X4117151Y-16455948D01*
X4117151Y-16455948D02*
X4126675Y-16446424D01*
X4126675Y-16446424D02*
X4126675Y-16465472D01*
X4260009Y-16265472D02*
X4279056Y-16265472D01*
X4279056Y-16265472D02*
X4298104Y-16274996D01*
X4298104Y-16274996D02*
X4307628Y-16284520D01*
X4307628Y-16284520D02*
X4317151Y-16303567D01*
X4317151Y-16303567D02*
X4326675Y-16341662D01*
X4326675Y-16341662D02*
X4326675Y-16389282D01*
X4326675Y-16389282D02*
X4317151Y-16427377D01*
X4317151Y-16427377D02*
X4307628Y-16446424D01*
X4307628Y-16446424D02*
X4298104Y-16455948D01*
X4298104Y-16455948D02*
X4279056Y-16465472D01*
X4279056Y-16465472D02*
X4260009Y-16465472D01*
X4260009Y-16465472D02*
X4240961Y-16455948D01*
X4240961Y-16455948D02*
X4231437Y-16446424D01*
X4231437Y-16446424D02*
X4221913Y-16427377D01*
X4221913Y-16427377D02*
X4212390Y-16389282D01*
X4212390Y-16389282D02*
X4212390Y-16341662D01*
X4212390Y-16341662D02*
X4221913Y-16303567D01*
X4221913Y-16303567D02*
X4231437Y-16284520D01*
X4231437Y-16284520D02*
X4240961Y-16274996D01*
X4240961Y-16274996D02*
X4260009Y-16265472D01*
X4517151Y-16465472D02*
X4402866Y-16465472D01*
X4460009Y-16465472D02*
X4460009Y-16265472D01*
X4460009Y-16265472D02*
X4440961Y-16294043D01*
X4440961Y-16294043D02*
X4421913Y-16313091D01*
X4421913Y-16313091D02*
X4402866Y-16322615D01*
X4698104Y-16265472D02*
X4602866Y-16265472D01*
X4602866Y-16265472D02*
X4593342Y-16360710D01*
X4593342Y-16360710D02*
X4602866Y-16351186D01*
X4602866Y-16351186D02*
X4621913Y-16341662D01*
X4621913Y-16341662D02*
X4669532Y-16341662D01*
X4669532Y-16341662D02*
X4688580Y-16351186D01*
X4688580Y-16351186D02*
X4698104Y-16360710D01*
X4698104Y-16360710D02*
X4707628Y-16379758D01*
X4707628Y-16379758D02*
X4707628Y-16427377D01*
X4707628Y-16427377D02*
X4698104Y-16446424D01*
X4698104Y-16446424D02*
X4688580Y-16455948D01*
X4688580Y-16455948D02*
X4669532Y-16465472D01*
X4669532Y-16465472D02*
X4621913Y-16465472D01*
X4621913Y-16465472D02*
X4602866Y-16455948D01*
X4602866Y-16455948D02*
X4593342Y-16446424D01*
X4774294Y-16265472D02*
X4907628Y-16265472D01*
X4907628Y-16265472D02*
X4821913Y-16465472D01*
X4974294Y-16265472D02*
X4974294Y-16303567D01*
X5050485Y-16265472D02*
X5050485Y-16303567D01*
X5345723Y-16541662D02*
X5336199Y-16532139D01*
X5336199Y-16532139D02*
X5317152Y-16503567D01*
X5317152Y-16503567D02*
X5307628Y-16484520D01*
X5307628Y-16484520D02*
X5298104Y-16455948D01*
X5298104Y-16455948D02*
X5288580Y-16408329D01*
X5288580Y-16408329D02*
X5288580Y-16370234D01*
X5288580Y-16370234D02*
X5298104Y-16322615D01*
X5298104Y-16322615D02*
X5307628Y-16294043D01*
X5307628Y-16294043D02*
X5317152Y-16274996D01*
X5317152Y-16274996D02*
X5336199Y-16246424D01*
X5336199Y-16246424D02*
X5345723Y-16236901D01*
X5526675Y-16465472D02*
X5412390Y-16465472D01*
X5469532Y-16465472D02*
X5469532Y-16265472D01*
X5469532Y-16265472D02*
X5450485Y-16294043D01*
X5450485Y-16294043D02*
X5431437Y-16313091D01*
X5431437Y-16313091D02*
X5412390Y-16322615D01*
X5764771Y-16465472D02*
X5764771Y-16265472D01*
X5850485Y-16465472D02*
X5850485Y-16360710D01*
X5850485Y-16360710D02*
X5840961Y-16341662D01*
X5840961Y-16341662D02*
X5821913Y-16332139D01*
X5821913Y-16332139D02*
X5793342Y-16332139D01*
X5793342Y-16332139D02*
X5774294Y-16341662D01*
X5774294Y-16341662D02*
X5764771Y-16351186D01*
X5974294Y-16465472D02*
X5955247Y-16455948D01*
X5955247Y-16455948D02*
X5945723Y-16446424D01*
X5945723Y-16446424D02*
X5936199Y-16427377D01*
X5936199Y-16427377D02*
X5936199Y-16370234D01*
X5936199Y-16370234D02*
X5945723Y-16351186D01*
X5945723Y-16351186D02*
X5955247Y-16341662D01*
X5955247Y-16341662D02*
X5974294Y-16332139D01*
X5974294Y-16332139D02*
X6002866Y-16332139D01*
X6002866Y-16332139D02*
X6021913Y-16341662D01*
X6021913Y-16341662D02*
X6031437Y-16351186D01*
X6031437Y-16351186D02*
X6040961Y-16370234D01*
X6040961Y-16370234D02*
X6040961Y-16427377D01*
X6040961Y-16427377D02*
X6031437Y-16446424D01*
X6031437Y-16446424D02*
X6021913Y-16455948D01*
X6021913Y-16455948D02*
X6002866Y-16465472D01*
X6002866Y-16465472D02*
X5974294Y-16465472D01*
X6155247Y-16465472D02*
X6136199Y-16455948D01*
X6136199Y-16455948D02*
X6126675Y-16436901D01*
X6126675Y-16436901D02*
X6126675Y-16265472D01*
X6307628Y-16455948D02*
X6288580Y-16465472D01*
X6288580Y-16465472D02*
X6250485Y-16465472D01*
X6250485Y-16465472D02*
X6231437Y-16455948D01*
X6231437Y-16455948D02*
X6221913Y-16436901D01*
X6221913Y-16436901D02*
X6221913Y-16360710D01*
X6221913Y-16360710D02*
X6231437Y-16341662D01*
X6231437Y-16341662D02*
X6250485Y-16332139D01*
X6250485Y-16332139D02*
X6288580Y-16332139D01*
X6288580Y-16332139D02*
X6307628Y-16341662D01*
X6307628Y-16341662D02*
X6317152Y-16360710D01*
X6317152Y-16360710D02*
X6317152Y-16379758D01*
X6317152Y-16379758D02*
X6221913Y-16398805D01*
X6383818Y-16541662D02*
X6393342Y-16532139D01*
X6393342Y-16532139D02*
X6412390Y-16503567D01*
X6412390Y-16503567D02*
X6421913Y-16484520D01*
X6421913Y-16484520D02*
X6431437Y-16455948D01*
X6431437Y-16455948D02*
X6440961Y-16408329D01*
X6440961Y-16408329D02*
X6440961Y-16370234D01*
X6440961Y-16370234D02*
X6431437Y-16322615D01*
X6431437Y-16322615D02*
X6421913Y-16294043D01*
X6421913Y-16294043D02*
X6412390Y-16274996D01*
X6412390Y-16274996D02*
X6393342Y-16246424D01*
X6393342Y-16246424D02*
X6383818Y-16236901D01*
D14*
X1770660Y-16637988D02*
G75*
G03*
X1770660Y-16637988I-35000J0D01*
G01*
D12*
X2069532Y-16529472D02*
X2088580Y-16529472D01*
X2088580Y-16529472D02*
X2107627Y-16538996D01*
X2107627Y-16538996D02*
X2117151Y-16548520D01*
X2117151Y-16548520D02*
X2126675Y-16567567D01*
X2126675Y-16567567D02*
X2136199Y-16605662D01*
X2136199Y-16605662D02*
X2136199Y-16653282D01*
X2136199Y-16653282D02*
X2126675Y-16691377D01*
X2126675Y-16691377D02*
X2117151Y-16710424D01*
X2117151Y-16710424D02*
X2107627Y-16719948D01*
X2107627Y-16719948D02*
X2088580Y-16729472D01*
X2088580Y-16729472D02*
X2069532Y-16729472D01*
X2069532Y-16729472D02*
X2050484Y-16719948D01*
X2050484Y-16719948D02*
X2040961Y-16710424D01*
X2040961Y-16710424D02*
X2031437Y-16691377D01*
X2031437Y-16691377D02*
X2021913Y-16653282D01*
X2021913Y-16653282D02*
X2021913Y-16605662D01*
X2021913Y-16605662D02*
X2031437Y-16567567D01*
X2031437Y-16567567D02*
X2040961Y-16548520D01*
X2040961Y-16548520D02*
X2050484Y-16538996D01*
X2050484Y-16538996D02*
X2069532Y-16529472D01*
X2221913Y-16710424D02*
X2231437Y-16719948D01*
X2231437Y-16719948D02*
X2221913Y-16729472D01*
X2221913Y-16729472D02*
X2212389Y-16719948D01*
X2212389Y-16719948D02*
X2221913Y-16710424D01*
X2221913Y-16710424D02*
X2221913Y-16729472D01*
X2298104Y-16529472D02*
X2431437Y-16529472D01*
X2431437Y-16529472D02*
X2345723Y-16729472D01*
X2545723Y-16529472D02*
X2564770Y-16529472D01*
X2564770Y-16529472D02*
X2583818Y-16538996D01*
X2583818Y-16538996D02*
X2593342Y-16548520D01*
X2593342Y-16548520D02*
X2602866Y-16567567D01*
X2602866Y-16567567D02*
X2612389Y-16605662D01*
X2612389Y-16605662D02*
X2612389Y-16653282D01*
X2612389Y-16653282D02*
X2602866Y-16691377D01*
X2602866Y-16691377D02*
X2593342Y-16710424D01*
X2593342Y-16710424D02*
X2583818Y-16719948D01*
X2583818Y-16719948D02*
X2564770Y-16729472D01*
X2564770Y-16729472D02*
X2545723Y-16729472D01*
X2545723Y-16729472D02*
X2526675Y-16719948D01*
X2526675Y-16719948D02*
X2517151Y-16710424D01*
X2517151Y-16710424D02*
X2507627Y-16691377D01*
X2507627Y-16691377D02*
X2498104Y-16653282D01*
X2498104Y-16653282D02*
X2498104Y-16605662D01*
X2498104Y-16605662D02*
X2507627Y-16567567D01*
X2507627Y-16567567D02*
X2517151Y-16548520D01*
X2517151Y-16548520D02*
X2526675Y-16538996D01*
X2526675Y-16538996D02*
X2545723Y-16529472D01*
X2736199Y-16529472D02*
X2755247Y-16529472D01*
X2755247Y-16529472D02*
X2774294Y-16538996D01*
X2774294Y-16538996D02*
X2783818Y-16548520D01*
X2783818Y-16548520D02*
X2793342Y-16567567D01*
X2793342Y-16567567D02*
X2802865Y-16605662D01*
X2802865Y-16605662D02*
X2802865Y-16653282D01*
X2802865Y-16653282D02*
X2793342Y-16691377D01*
X2793342Y-16691377D02*
X2783818Y-16710424D01*
X2783818Y-16710424D02*
X2774294Y-16719948D01*
X2774294Y-16719948D02*
X2755247Y-16729472D01*
X2755247Y-16729472D02*
X2736199Y-16729472D01*
X2736199Y-16729472D02*
X2717151Y-16719948D01*
X2717151Y-16719948D02*
X2707627Y-16710424D01*
X2707627Y-16710424D02*
X2698104Y-16691377D01*
X2698104Y-16691377D02*
X2688580Y-16653282D01*
X2688580Y-16653282D02*
X2688580Y-16605662D01*
X2688580Y-16605662D02*
X2698104Y-16567567D01*
X2698104Y-16567567D02*
X2707627Y-16548520D01*
X2707627Y-16548520D02*
X2717151Y-16538996D01*
X2717151Y-16538996D02*
X2736199Y-16529472D01*
X2888580Y-16729472D02*
X2888580Y-16596139D01*
X2888580Y-16615186D02*
X2898104Y-16605662D01*
X2898104Y-16605662D02*
X2917151Y-16596139D01*
X2917151Y-16596139D02*
X2945723Y-16596139D01*
X2945723Y-16596139D02*
X2964770Y-16605662D01*
X2964770Y-16605662D02*
X2974294Y-16624710D01*
X2974294Y-16624710D02*
X2974294Y-16729472D01*
X2974294Y-16624710D02*
X2983818Y-16605662D01*
X2983818Y-16605662D02*
X3002865Y-16596139D01*
X3002865Y-16596139D02*
X3031437Y-16596139D01*
X3031437Y-16596139D02*
X3050485Y-16605662D01*
X3050485Y-16605662D02*
X3060008Y-16624710D01*
X3060008Y-16624710D02*
X3060008Y-16729472D01*
X3155246Y-16729472D02*
X3155246Y-16596139D01*
X3155246Y-16615186D02*
X3164770Y-16605662D01*
X3164770Y-16605662D02*
X3183818Y-16596139D01*
X3183818Y-16596139D02*
X3212389Y-16596139D01*
X3212389Y-16596139D02*
X3231437Y-16605662D01*
X3231437Y-16605662D02*
X3240961Y-16624710D01*
X3240961Y-16624710D02*
X3240961Y-16729472D01*
X3240961Y-16624710D02*
X3250485Y-16605662D01*
X3250485Y-16605662D02*
X3269532Y-16596139D01*
X3269532Y-16596139D02*
X3298104Y-16596139D01*
X3298104Y-16596139D02*
X3317151Y-16605662D01*
X3317151Y-16605662D02*
X3326675Y-16624710D01*
X3326675Y-16624710D02*
X3326675Y-16729472D01*
X3717151Y-16519948D02*
X3545723Y-16777091D01*
X3974294Y-16529472D02*
X3993342Y-16529472D01*
X3993342Y-16529472D02*
X4012389Y-16538996D01*
X4012389Y-16538996D02*
X4021913Y-16548520D01*
X4021913Y-16548520D02*
X4031437Y-16567567D01*
X4031437Y-16567567D02*
X4040961Y-16605662D01*
X4040961Y-16605662D02*
X4040961Y-16653282D01*
X4040961Y-16653282D02*
X4031437Y-16691377D01*
X4031437Y-16691377D02*
X4021913Y-16710424D01*
X4021913Y-16710424D02*
X4012389Y-16719948D01*
X4012389Y-16719948D02*
X3993342Y-16729472D01*
X3993342Y-16729472D02*
X3974294Y-16729472D01*
X3974294Y-16729472D02*
X3955247Y-16719948D01*
X3955247Y-16719948D02*
X3945723Y-16710424D01*
X3945723Y-16710424D02*
X3936199Y-16691377D01*
X3936199Y-16691377D02*
X3926675Y-16653282D01*
X3926675Y-16653282D02*
X3926675Y-16605662D01*
X3926675Y-16605662D02*
X3936199Y-16567567D01*
X3936199Y-16567567D02*
X3945723Y-16548520D01*
X3945723Y-16548520D02*
X3955247Y-16538996D01*
X3955247Y-16538996D02*
X3974294Y-16529472D01*
X4126675Y-16710424D02*
X4136199Y-16719948D01*
X4136199Y-16719948D02*
X4126675Y-16729472D01*
X4126675Y-16729472D02*
X4117151Y-16719948D01*
X4117151Y-16719948D02*
X4126675Y-16710424D01*
X4126675Y-16710424D02*
X4126675Y-16729472D01*
X4260009Y-16529472D02*
X4279056Y-16529472D01*
X4279056Y-16529472D02*
X4298104Y-16538996D01*
X4298104Y-16538996D02*
X4307628Y-16548520D01*
X4307628Y-16548520D02*
X4317151Y-16567567D01*
X4317151Y-16567567D02*
X4326675Y-16605662D01*
X4326675Y-16605662D02*
X4326675Y-16653282D01*
X4326675Y-16653282D02*
X4317151Y-16691377D01*
X4317151Y-16691377D02*
X4307628Y-16710424D01*
X4307628Y-16710424D02*
X4298104Y-16719948D01*
X4298104Y-16719948D02*
X4279056Y-16729472D01*
X4279056Y-16729472D02*
X4260009Y-16729472D01*
X4260009Y-16729472D02*
X4240961Y-16719948D01*
X4240961Y-16719948D02*
X4231437Y-16710424D01*
X4231437Y-16710424D02*
X4221913Y-16691377D01*
X4221913Y-16691377D02*
X4212390Y-16653282D01*
X4212390Y-16653282D02*
X4212390Y-16605662D01*
X4212390Y-16605662D02*
X4221913Y-16567567D01*
X4221913Y-16567567D02*
X4231437Y-16548520D01*
X4231437Y-16548520D02*
X4240961Y-16538996D01*
X4240961Y-16538996D02*
X4260009Y-16529472D01*
X4402866Y-16548520D02*
X4412390Y-16538996D01*
X4412390Y-16538996D02*
X4431437Y-16529472D01*
X4431437Y-16529472D02*
X4479056Y-16529472D01*
X4479056Y-16529472D02*
X4498104Y-16538996D01*
X4498104Y-16538996D02*
X4507628Y-16548520D01*
X4507628Y-16548520D02*
X4517151Y-16567567D01*
X4517151Y-16567567D02*
X4517151Y-16586615D01*
X4517151Y-16586615D02*
X4507628Y-16615186D01*
X4507628Y-16615186D02*
X4393342Y-16729472D01*
X4393342Y-16729472D02*
X4517151Y-16729472D01*
X4583818Y-16529472D02*
X4717151Y-16529472D01*
X4717151Y-16529472D02*
X4631437Y-16729472D01*
X4879056Y-16529472D02*
X4840961Y-16529472D01*
X4840961Y-16529472D02*
X4821913Y-16538996D01*
X4821913Y-16538996D02*
X4812390Y-16548520D01*
X4812390Y-16548520D02*
X4793342Y-16577091D01*
X4793342Y-16577091D02*
X4783818Y-16615186D01*
X4783818Y-16615186D02*
X4783818Y-16691377D01*
X4783818Y-16691377D02*
X4793342Y-16710424D01*
X4793342Y-16710424D02*
X4802866Y-16719948D01*
X4802866Y-16719948D02*
X4821913Y-16729472D01*
X4821913Y-16729472D02*
X4860009Y-16729472D01*
X4860009Y-16729472D02*
X4879056Y-16719948D01*
X4879056Y-16719948D02*
X4888580Y-16710424D01*
X4888580Y-16710424D02*
X4898104Y-16691377D01*
X4898104Y-16691377D02*
X4898104Y-16643758D01*
X4898104Y-16643758D02*
X4888580Y-16624710D01*
X4888580Y-16624710D02*
X4879056Y-16615186D01*
X4879056Y-16615186D02*
X4860009Y-16605662D01*
X4860009Y-16605662D02*
X4821913Y-16605662D01*
X4821913Y-16605662D02*
X4802866Y-16615186D01*
X4802866Y-16615186D02*
X4793342Y-16624710D01*
X4793342Y-16624710D02*
X4783818Y-16643758D01*
X4974294Y-16529472D02*
X4974294Y-16567567D01*
X5050485Y-16529472D02*
X5050485Y-16567567D01*
X5345723Y-16805663D02*
X5336199Y-16796139D01*
X5336199Y-16796139D02*
X5317152Y-16767567D01*
X5317152Y-16767567D02*
X5307628Y-16748520D01*
X5307628Y-16748520D02*
X5298104Y-16719948D01*
X5298104Y-16719948D02*
X5288580Y-16672329D01*
X5288580Y-16672329D02*
X5288580Y-16634234D01*
X5288580Y-16634234D02*
X5298104Y-16586615D01*
X5298104Y-16586615D02*
X5307628Y-16558043D01*
X5307628Y-16558043D02*
X5317152Y-16538996D01*
X5317152Y-16538996D02*
X5336199Y-16510424D01*
X5336199Y-16510424D02*
X5345723Y-16500901D01*
X5450485Y-16615186D02*
X5431437Y-16605662D01*
X5431437Y-16605662D02*
X5421913Y-16596139D01*
X5421913Y-16596139D02*
X5412390Y-16577091D01*
X5412390Y-16577091D02*
X5412390Y-16567567D01*
X5412390Y-16567567D02*
X5421913Y-16548520D01*
X5421913Y-16548520D02*
X5431437Y-16538996D01*
X5431437Y-16538996D02*
X5450485Y-16529472D01*
X5450485Y-16529472D02*
X5488580Y-16529472D01*
X5488580Y-16529472D02*
X5507628Y-16538996D01*
X5507628Y-16538996D02*
X5517152Y-16548520D01*
X5517152Y-16548520D02*
X5526675Y-16567567D01*
X5526675Y-16567567D02*
X5526675Y-16577091D01*
X5526675Y-16577091D02*
X5517152Y-16596139D01*
X5517152Y-16596139D02*
X5507628Y-16605662D01*
X5507628Y-16605662D02*
X5488580Y-16615186D01*
X5488580Y-16615186D02*
X5450485Y-16615186D01*
X5450485Y-16615186D02*
X5431437Y-16624710D01*
X5431437Y-16624710D02*
X5421913Y-16634234D01*
X5421913Y-16634234D02*
X5412390Y-16653282D01*
X5412390Y-16653282D02*
X5412390Y-16691377D01*
X5412390Y-16691377D02*
X5421913Y-16710424D01*
X5421913Y-16710424D02*
X5431437Y-16719948D01*
X5431437Y-16719948D02*
X5450485Y-16729472D01*
X5450485Y-16729472D02*
X5488580Y-16729472D01*
X5488580Y-16729472D02*
X5507628Y-16719948D01*
X5507628Y-16719948D02*
X5517152Y-16710424D01*
X5517152Y-16710424D02*
X5526675Y-16691377D01*
X5526675Y-16691377D02*
X5526675Y-16653282D01*
X5526675Y-16653282D02*
X5517152Y-16634234D01*
X5517152Y-16634234D02*
X5507628Y-16624710D01*
X5507628Y-16624710D02*
X5488580Y-16615186D01*
X5764771Y-16729472D02*
X5764771Y-16529472D01*
X5850485Y-16729472D02*
X5850485Y-16624710D01*
X5850485Y-16624710D02*
X5840961Y-16605662D01*
X5840961Y-16605662D02*
X5821913Y-16596139D01*
X5821913Y-16596139D02*
X5793342Y-16596139D01*
X5793342Y-16596139D02*
X5774294Y-16605662D01*
X5774294Y-16605662D02*
X5764771Y-16615186D01*
X5974294Y-16729472D02*
X5955247Y-16719948D01*
X5955247Y-16719948D02*
X5945723Y-16710424D01*
X5945723Y-16710424D02*
X5936199Y-16691377D01*
X5936199Y-16691377D02*
X5936199Y-16634234D01*
X5936199Y-16634234D02*
X5945723Y-16615186D01*
X5945723Y-16615186D02*
X5955247Y-16605662D01*
X5955247Y-16605662D02*
X5974294Y-16596139D01*
X5974294Y-16596139D02*
X6002866Y-16596139D01*
X6002866Y-16596139D02*
X6021913Y-16605662D01*
X6021913Y-16605662D02*
X6031437Y-16615186D01*
X6031437Y-16615186D02*
X6040961Y-16634234D01*
X6040961Y-16634234D02*
X6040961Y-16691377D01*
X6040961Y-16691377D02*
X6031437Y-16710424D01*
X6031437Y-16710424D02*
X6021913Y-16719948D01*
X6021913Y-16719948D02*
X6002866Y-16729472D01*
X6002866Y-16729472D02*
X5974294Y-16729472D01*
X6155247Y-16729472D02*
X6136199Y-16719948D01*
X6136199Y-16719948D02*
X6126675Y-16700901D01*
X6126675Y-16700901D02*
X6126675Y-16529472D01*
X6307628Y-16719948D02*
X6288580Y-16729472D01*
X6288580Y-16729472D02*
X6250485Y-16729472D01*
X6250485Y-16729472D02*
X6231437Y-16719948D01*
X6231437Y-16719948D02*
X6221913Y-16700901D01*
X6221913Y-16700901D02*
X6221913Y-16624710D01*
X6221913Y-16624710D02*
X6231437Y-16605662D01*
X6231437Y-16605662D02*
X6250485Y-16596139D01*
X6250485Y-16596139D02*
X6288580Y-16596139D01*
X6288580Y-16596139D02*
X6307628Y-16605662D01*
X6307628Y-16605662D02*
X6317152Y-16624710D01*
X6317152Y-16624710D02*
X6317152Y-16643758D01*
X6317152Y-16643758D02*
X6221913Y-16662805D01*
X6393342Y-16719948D02*
X6412390Y-16729472D01*
X6412390Y-16729472D02*
X6450485Y-16729472D01*
X6450485Y-16729472D02*
X6469533Y-16719948D01*
X6469533Y-16719948D02*
X6479056Y-16700901D01*
X6479056Y-16700901D02*
X6479056Y-16691377D01*
X6479056Y-16691377D02*
X6469533Y-16672329D01*
X6469533Y-16672329D02*
X6450485Y-16662805D01*
X6450485Y-16662805D02*
X6421913Y-16662805D01*
X6421913Y-16662805D02*
X6402866Y-16653282D01*
X6402866Y-16653282D02*
X6393342Y-16634234D01*
X6393342Y-16634234D02*
X6393342Y-16624710D01*
X6393342Y-16624710D02*
X6402866Y-16605662D01*
X6402866Y-16605662D02*
X6421913Y-16596139D01*
X6421913Y-16596139D02*
X6450485Y-16596139D01*
X6450485Y-16596139D02*
X6469533Y-16605662D01*
X6545723Y-16805663D02*
X6555247Y-16796139D01*
X6555247Y-16796139D02*
X6574294Y-16767567D01*
X6574294Y-16767567D02*
X6583818Y-16748520D01*
X6583818Y-16748520D02*
X6593342Y-16719948D01*
X6593342Y-16719948D02*
X6602866Y-16672329D01*
X6602866Y-16672329D02*
X6602866Y-16634234D01*
X6602866Y-16634234D02*
X6593342Y-16586615D01*
X6593342Y-16586615D02*
X6583818Y-16558043D01*
X6583818Y-16558043D02*
X6574294Y-16538996D01*
X6574294Y-16538996D02*
X6555247Y-16510424D01*
X6555247Y-16510424D02*
X6545723Y-16500901D01*
D15*
X1732560Y-16863888D02*
X1732560Y-16940088D01*
X1694460Y-16901988D02*
X1770660Y-16901988D01*
D12*
X2069532Y-16793472D02*
X2088580Y-16793472D01*
X2088580Y-16793472D02*
X2107627Y-16802996D01*
X2107627Y-16802996D02*
X2117151Y-16812520D01*
X2117151Y-16812520D02*
X2126675Y-16831567D01*
X2126675Y-16831567D02*
X2136199Y-16869663D01*
X2136199Y-16869663D02*
X2136199Y-16917282D01*
X2136199Y-16917282D02*
X2126675Y-16955377D01*
X2126675Y-16955377D02*
X2117151Y-16974424D01*
X2117151Y-16974424D02*
X2107627Y-16983948D01*
X2107627Y-16983948D02*
X2088580Y-16993472D01*
X2088580Y-16993472D02*
X2069532Y-16993472D01*
X2069532Y-16993472D02*
X2050484Y-16983948D01*
X2050484Y-16983948D02*
X2040961Y-16974424D01*
X2040961Y-16974424D02*
X2031437Y-16955377D01*
X2031437Y-16955377D02*
X2021913Y-16917282D01*
X2021913Y-16917282D02*
X2021913Y-16869663D01*
X2021913Y-16869663D02*
X2031437Y-16831567D01*
X2031437Y-16831567D02*
X2040961Y-16812520D01*
X2040961Y-16812520D02*
X2050484Y-16802996D01*
X2050484Y-16802996D02*
X2069532Y-16793472D01*
X2221913Y-16974424D02*
X2231437Y-16983948D01*
X2231437Y-16983948D02*
X2221913Y-16993472D01*
X2221913Y-16993472D02*
X2212389Y-16983948D01*
X2212389Y-16983948D02*
X2221913Y-16974424D01*
X2221913Y-16974424D02*
X2221913Y-16993472D01*
X2298104Y-16793472D02*
X2431437Y-16793472D01*
X2431437Y-16793472D02*
X2345723Y-16993472D01*
X2593342Y-16793472D02*
X2555246Y-16793472D01*
X2555246Y-16793472D02*
X2536199Y-16802996D01*
X2536199Y-16802996D02*
X2526675Y-16812520D01*
X2526675Y-16812520D02*
X2507627Y-16841091D01*
X2507627Y-16841091D02*
X2498104Y-16879186D01*
X2498104Y-16879186D02*
X2498104Y-16955377D01*
X2498104Y-16955377D02*
X2507627Y-16974424D01*
X2507627Y-16974424D02*
X2517151Y-16983948D01*
X2517151Y-16983948D02*
X2536199Y-16993472D01*
X2536199Y-16993472D02*
X2574294Y-16993472D01*
X2574294Y-16993472D02*
X2593342Y-16983948D01*
X2593342Y-16983948D02*
X2602866Y-16974424D01*
X2602866Y-16974424D02*
X2612389Y-16955377D01*
X2612389Y-16955377D02*
X2612389Y-16907758D01*
X2612389Y-16907758D02*
X2602866Y-16888710D01*
X2602866Y-16888710D02*
X2593342Y-16879186D01*
X2593342Y-16879186D02*
X2574294Y-16869663D01*
X2574294Y-16869663D02*
X2536199Y-16869663D01*
X2536199Y-16869663D02*
X2517151Y-16879186D01*
X2517151Y-16879186D02*
X2507627Y-16888710D01*
X2507627Y-16888710D02*
X2498104Y-16907758D01*
X2688580Y-16812520D02*
X2698104Y-16802996D01*
X2698104Y-16802996D02*
X2717151Y-16793472D01*
X2717151Y-16793472D02*
X2764770Y-16793472D01*
X2764770Y-16793472D02*
X2783818Y-16802996D01*
X2783818Y-16802996D02*
X2793342Y-16812520D01*
X2793342Y-16812520D02*
X2802865Y-16831567D01*
X2802865Y-16831567D02*
X2802865Y-16850615D01*
X2802865Y-16850615D02*
X2793342Y-16879186D01*
X2793342Y-16879186D02*
X2679056Y-16993472D01*
X2679056Y-16993472D02*
X2802865Y-16993472D01*
X2888580Y-16993472D02*
X2888580Y-16860139D01*
X2888580Y-16879186D02*
X2898104Y-16869663D01*
X2898104Y-16869663D02*
X2917151Y-16860139D01*
X2917151Y-16860139D02*
X2945723Y-16860139D01*
X2945723Y-16860139D02*
X2964770Y-16869663D01*
X2964770Y-16869663D02*
X2974294Y-16888710D01*
X2974294Y-16888710D02*
X2974294Y-16993472D01*
X2974294Y-16888710D02*
X2983818Y-16869663D01*
X2983818Y-16869663D02*
X3002865Y-16860139D01*
X3002865Y-16860139D02*
X3031437Y-16860139D01*
X3031437Y-16860139D02*
X3050485Y-16869663D01*
X3050485Y-16869663D02*
X3060008Y-16888710D01*
X3060008Y-16888710D02*
X3060008Y-16993472D01*
X3155246Y-16993472D02*
X3155246Y-16860139D01*
X3155246Y-16879186D02*
X3164770Y-16869663D01*
X3164770Y-16869663D02*
X3183818Y-16860139D01*
X3183818Y-16860139D02*
X3212389Y-16860139D01*
X3212389Y-16860139D02*
X3231437Y-16869663D01*
X3231437Y-16869663D02*
X3240961Y-16888710D01*
X3240961Y-16888710D02*
X3240961Y-16993472D01*
X3240961Y-16888710D02*
X3250485Y-16869663D01*
X3250485Y-16869663D02*
X3269532Y-16860139D01*
X3269532Y-16860139D02*
X3298104Y-16860139D01*
X3298104Y-16860139D02*
X3317151Y-16869663D01*
X3317151Y-16869663D02*
X3326675Y-16888710D01*
X3326675Y-16888710D02*
X3326675Y-16993472D01*
X3717151Y-16783948D02*
X3545723Y-17041091D01*
X3974294Y-16793472D02*
X3993342Y-16793472D01*
X3993342Y-16793472D02*
X4012389Y-16802996D01*
X4012389Y-16802996D02*
X4021913Y-16812520D01*
X4021913Y-16812520D02*
X4031437Y-16831567D01*
X4031437Y-16831567D02*
X4040961Y-16869663D01*
X4040961Y-16869663D02*
X4040961Y-16917282D01*
X4040961Y-16917282D02*
X4031437Y-16955377D01*
X4031437Y-16955377D02*
X4021913Y-16974424D01*
X4021913Y-16974424D02*
X4012389Y-16983948D01*
X4012389Y-16983948D02*
X3993342Y-16993472D01*
X3993342Y-16993472D02*
X3974294Y-16993472D01*
X3974294Y-16993472D02*
X3955247Y-16983948D01*
X3955247Y-16983948D02*
X3945723Y-16974424D01*
X3945723Y-16974424D02*
X3936199Y-16955377D01*
X3936199Y-16955377D02*
X3926675Y-16917282D01*
X3926675Y-16917282D02*
X3926675Y-16869663D01*
X3926675Y-16869663D02*
X3936199Y-16831567D01*
X3936199Y-16831567D02*
X3945723Y-16812520D01*
X3945723Y-16812520D02*
X3955247Y-16802996D01*
X3955247Y-16802996D02*
X3974294Y-16793472D01*
X4126675Y-16974424D02*
X4136199Y-16983948D01*
X4136199Y-16983948D02*
X4126675Y-16993472D01*
X4126675Y-16993472D02*
X4117151Y-16983948D01*
X4117151Y-16983948D02*
X4126675Y-16974424D01*
X4126675Y-16974424D02*
X4126675Y-16993472D01*
X4260009Y-16793472D02*
X4279056Y-16793472D01*
X4279056Y-16793472D02*
X4298104Y-16802996D01*
X4298104Y-16802996D02*
X4307628Y-16812520D01*
X4307628Y-16812520D02*
X4317151Y-16831567D01*
X4317151Y-16831567D02*
X4326675Y-16869663D01*
X4326675Y-16869663D02*
X4326675Y-16917282D01*
X4326675Y-16917282D02*
X4317151Y-16955377D01*
X4317151Y-16955377D02*
X4307628Y-16974424D01*
X4307628Y-16974424D02*
X4298104Y-16983948D01*
X4298104Y-16983948D02*
X4279056Y-16993472D01*
X4279056Y-16993472D02*
X4260009Y-16993472D01*
X4260009Y-16993472D02*
X4240961Y-16983948D01*
X4240961Y-16983948D02*
X4231437Y-16974424D01*
X4231437Y-16974424D02*
X4221913Y-16955377D01*
X4221913Y-16955377D02*
X4212390Y-16917282D01*
X4212390Y-16917282D02*
X4212390Y-16869663D01*
X4212390Y-16869663D02*
X4221913Y-16831567D01*
X4221913Y-16831567D02*
X4231437Y-16812520D01*
X4231437Y-16812520D02*
X4240961Y-16802996D01*
X4240961Y-16802996D02*
X4260009Y-16793472D01*
X4393342Y-16793472D02*
X4517151Y-16793472D01*
X4517151Y-16793472D02*
X4450485Y-16869663D01*
X4450485Y-16869663D02*
X4479056Y-16869663D01*
X4479056Y-16869663D02*
X4498104Y-16879186D01*
X4498104Y-16879186D02*
X4507628Y-16888710D01*
X4507628Y-16888710D02*
X4517151Y-16907758D01*
X4517151Y-16907758D02*
X4517151Y-16955377D01*
X4517151Y-16955377D02*
X4507628Y-16974424D01*
X4507628Y-16974424D02*
X4498104Y-16983948D01*
X4498104Y-16983948D02*
X4479056Y-16993472D01*
X4479056Y-16993472D02*
X4421913Y-16993472D01*
X4421913Y-16993472D02*
X4402866Y-16983948D01*
X4402866Y-16983948D02*
X4393342Y-16974424D01*
X4640961Y-16793472D02*
X4660009Y-16793472D01*
X4660009Y-16793472D02*
X4679056Y-16802996D01*
X4679056Y-16802996D02*
X4688580Y-16812520D01*
X4688580Y-16812520D02*
X4698104Y-16831567D01*
X4698104Y-16831567D02*
X4707628Y-16869663D01*
X4707628Y-16869663D02*
X4707628Y-16917282D01*
X4707628Y-16917282D02*
X4698104Y-16955377D01*
X4698104Y-16955377D02*
X4688580Y-16974424D01*
X4688580Y-16974424D02*
X4679056Y-16983948D01*
X4679056Y-16983948D02*
X4660009Y-16993472D01*
X4660009Y-16993472D02*
X4640961Y-16993472D01*
X4640961Y-16993472D02*
X4621913Y-16983948D01*
X4621913Y-16983948D02*
X4612390Y-16974424D01*
X4612390Y-16974424D02*
X4602866Y-16955377D01*
X4602866Y-16955377D02*
X4593342Y-16917282D01*
X4593342Y-16917282D02*
X4593342Y-16869663D01*
X4593342Y-16869663D02*
X4602866Y-16831567D01*
X4602866Y-16831567D02*
X4612390Y-16812520D01*
X4612390Y-16812520D02*
X4621913Y-16802996D01*
X4621913Y-16802996D02*
X4640961Y-16793472D01*
X4831437Y-16793472D02*
X4850485Y-16793472D01*
X4850485Y-16793472D02*
X4869532Y-16802996D01*
X4869532Y-16802996D02*
X4879056Y-16812520D01*
X4879056Y-16812520D02*
X4888580Y-16831567D01*
X4888580Y-16831567D02*
X4898104Y-16869663D01*
X4898104Y-16869663D02*
X4898104Y-16917282D01*
X4898104Y-16917282D02*
X4888580Y-16955377D01*
X4888580Y-16955377D02*
X4879056Y-16974424D01*
X4879056Y-16974424D02*
X4869532Y-16983948D01*
X4869532Y-16983948D02*
X4850485Y-16993472D01*
X4850485Y-16993472D02*
X4831437Y-16993472D01*
X4831437Y-16993472D02*
X4812390Y-16983948D01*
X4812390Y-16983948D02*
X4802866Y-16974424D01*
X4802866Y-16974424D02*
X4793342Y-16955377D01*
X4793342Y-16955377D02*
X4783818Y-16917282D01*
X4783818Y-16917282D02*
X4783818Y-16869663D01*
X4783818Y-16869663D02*
X4793342Y-16831567D01*
X4793342Y-16831567D02*
X4802866Y-16812520D01*
X4802866Y-16812520D02*
X4812390Y-16802996D01*
X4812390Y-16802996D02*
X4831437Y-16793472D01*
X4974294Y-16793472D02*
X4974294Y-16831567D01*
X5050485Y-16793472D02*
X5050485Y-16831567D01*
X5345723Y-17069663D02*
X5336199Y-17060139D01*
X5336199Y-17060139D02*
X5317152Y-17031567D01*
X5317152Y-17031567D02*
X5307628Y-17012520D01*
X5307628Y-17012520D02*
X5298104Y-16983948D01*
X5298104Y-16983948D02*
X5288580Y-16936329D01*
X5288580Y-16936329D02*
X5288580Y-16898234D01*
X5288580Y-16898234D02*
X5298104Y-16850615D01*
X5298104Y-16850615D02*
X5307628Y-16822044D01*
X5307628Y-16822044D02*
X5317152Y-16802996D01*
X5317152Y-16802996D02*
X5336199Y-16774424D01*
X5336199Y-16774424D02*
X5345723Y-16764901D01*
X5517152Y-16793472D02*
X5421913Y-16793472D01*
X5421913Y-16793472D02*
X5412390Y-16888710D01*
X5412390Y-16888710D02*
X5421913Y-16879186D01*
X5421913Y-16879186D02*
X5440961Y-16869663D01*
X5440961Y-16869663D02*
X5488580Y-16869663D01*
X5488580Y-16869663D02*
X5507628Y-16879186D01*
X5507628Y-16879186D02*
X5517152Y-16888710D01*
X5517152Y-16888710D02*
X5526675Y-16907758D01*
X5526675Y-16907758D02*
X5526675Y-16955377D01*
X5526675Y-16955377D02*
X5517152Y-16974424D01*
X5517152Y-16974424D02*
X5507628Y-16983948D01*
X5507628Y-16983948D02*
X5488580Y-16993472D01*
X5488580Y-16993472D02*
X5440961Y-16993472D01*
X5440961Y-16993472D02*
X5421913Y-16983948D01*
X5421913Y-16983948D02*
X5412390Y-16974424D01*
X5650485Y-16793472D02*
X5669532Y-16793472D01*
X5669532Y-16793472D02*
X5688580Y-16802996D01*
X5688580Y-16802996D02*
X5698104Y-16812520D01*
X5698104Y-16812520D02*
X5707628Y-16831567D01*
X5707628Y-16831567D02*
X5717151Y-16869663D01*
X5717151Y-16869663D02*
X5717151Y-16917282D01*
X5717151Y-16917282D02*
X5707628Y-16955377D01*
X5707628Y-16955377D02*
X5698104Y-16974424D01*
X5698104Y-16974424D02*
X5688580Y-16983948D01*
X5688580Y-16983948D02*
X5669532Y-16993472D01*
X5669532Y-16993472D02*
X5650485Y-16993472D01*
X5650485Y-16993472D02*
X5631437Y-16983948D01*
X5631437Y-16983948D02*
X5621913Y-16974424D01*
X5621913Y-16974424D02*
X5612390Y-16955377D01*
X5612390Y-16955377D02*
X5602866Y-16917282D01*
X5602866Y-16917282D02*
X5602866Y-16869663D01*
X5602866Y-16869663D02*
X5612390Y-16831567D01*
X5612390Y-16831567D02*
X5621913Y-16812520D01*
X5621913Y-16812520D02*
X5631437Y-16802996D01*
X5631437Y-16802996D02*
X5650485Y-16793472D01*
X5955247Y-16993472D02*
X5955247Y-16793472D01*
X6040961Y-16993472D02*
X6040961Y-16888710D01*
X6040961Y-16888710D02*
X6031437Y-16869663D01*
X6031437Y-16869663D02*
X6012390Y-16860139D01*
X6012390Y-16860139D02*
X5983818Y-16860139D01*
X5983818Y-16860139D02*
X5964771Y-16869663D01*
X5964771Y-16869663D02*
X5955247Y-16879186D01*
X6164771Y-16993472D02*
X6145723Y-16983948D01*
X6145723Y-16983948D02*
X6136199Y-16974424D01*
X6136199Y-16974424D02*
X6126675Y-16955377D01*
X6126675Y-16955377D02*
X6126675Y-16898234D01*
X6126675Y-16898234D02*
X6136199Y-16879186D01*
X6136199Y-16879186D02*
X6145723Y-16869663D01*
X6145723Y-16869663D02*
X6164771Y-16860139D01*
X6164771Y-16860139D02*
X6193342Y-16860139D01*
X6193342Y-16860139D02*
X6212390Y-16869663D01*
X6212390Y-16869663D02*
X6221913Y-16879186D01*
X6221913Y-16879186D02*
X6231437Y-16898234D01*
X6231437Y-16898234D02*
X6231437Y-16955377D01*
X6231437Y-16955377D02*
X6221913Y-16974424D01*
X6221913Y-16974424D02*
X6212390Y-16983948D01*
X6212390Y-16983948D02*
X6193342Y-16993472D01*
X6193342Y-16993472D02*
X6164771Y-16993472D01*
X6345723Y-16993472D02*
X6326675Y-16983948D01*
X6326675Y-16983948D02*
X6317152Y-16964901D01*
X6317152Y-16964901D02*
X6317152Y-16793472D01*
X6498104Y-16983948D02*
X6479056Y-16993472D01*
X6479056Y-16993472D02*
X6440961Y-16993472D01*
X6440961Y-16993472D02*
X6421913Y-16983948D01*
X6421913Y-16983948D02*
X6412390Y-16964901D01*
X6412390Y-16964901D02*
X6412390Y-16888710D01*
X6412390Y-16888710D02*
X6421913Y-16869663D01*
X6421913Y-16869663D02*
X6440961Y-16860139D01*
X6440961Y-16860139D02*
X6479056Y-16860139D01*
X6479056Y-16860139D02*
X6498104Y-16869663D01*
X6498104Y-16869663D02*
X6507628Y-16888710D01*
X6507628Y-16888710D02*
X6507628Y-16907758D01*
X6507628Y-16907758D02*
X6412390Y-16926805D01*
X6583818Y-16983948D02*
X6602866Y-16993472D01*
X6602866Y-16993472D02*
X6640961Y-16993472D01*
X6640961Y-16993472D02*
X6660009Y-16983948D01*
X6660009Y-16983948D02*
X6669533Y-16964901D01*
X6669533Y-16964901D02*
X6669533Y-16955377D01*
X6669533Y-16955377D02*
X6660009Y-16936329D01*
X6660009Y-16936329D02*
X6640961Y-16926805D01*
X6640961Y-16926805D02*
X6612390Y-16926805D01*
X6612390Y-16926805D02*
X6593342Y-16917282D01*
X6593342Y-16917282D02*
X6583818Y-16898234D01*
X6583818Y-16898234D02*
X6583818Y-16888710D01*
X6583818Y-16888710D02*
X6593342Y-16869663D01*
X6593342Y-16869663D02*
X6612390Y-16860139D01*
X6612390Y-16860139D02*
X6640961Y-16860139D01*
X6640961Y-16860139D02*
X6660009Y-16869663D01*
X6736199Y-17069663D02*
X6745723Y-17060139D01*
X6745723Y-17060139D02*
X6764771Y-17031567D01*
X6764771Y-17031567D02*
X6774294Y-17012520D01*
X6774294Y-17012520D02*
X6783818Y-16983948D01*
X6783818Y-16983948D02*
X6793342Y-16936329D01*
X6793342Y-16936329D02*
X6793342Y-16898234D01*
X6793342Y-16898234D02*
X6783818Y-16850615D01*
X6783818Y-16850615D02*
X6774294Y-16822044D01*
X6774294Y-16822044D02*
X6764771Y-16802996D01*
X6764771Y-16802996D02*
X6745723Y-16774424D01*
X6745723Y-16774424D02*
X6736199Y-16764901D01*
D16*
X1756748Y-17199576D02*
X1756748Y-17132400D01*
X1689572Y-17132400D01*
X1689572Y-17199576D01*
X1756748Y-17199576D01*
D12*
X2069532Y-17057472D02*
X2088580Y-17057472D01*
X2088580Y-17057472D02*
X2107627Y-17066996D01*
X2107627Y-17066996D02*
X2117151Y-17076520D01*
X2117151Y-17076520D02*
X2126675Y-17095567D01*
X2126675Y-17095567D02*
X2136199Y-17133663D01*
X2136199Y-17133663D02*
X2136199Y-17181282D01*
X2136199Y-17181282D02*
X2126675Y-17219377D01*
X2126675Y-17219377D02*
X2117151Y-17238424D01*
X2117151Y-17238424D02*
X2107627Y-17247948D01*
X2107627Y-17247948D02*
X2088580Y-17257472D01*
X2088580Y-17257472D02*
X2069532Y-17257472D01*
X2069532Y-17257472D02*
X2050484Y-17247948D01*
X2050484Y-17247948D02*
X2040961Y-17238424D01*
X2040961Y-17238424D02*
X2031437Y-17219377D01*
X2031437Y-17219377D02*
X2021913Y-17181282D01*
X2021913Y-17181282D02*
X2021913Y-17133663D01*
X2021913Y-17133663D02*
X2031437Y-17095567D01*
X2031437Y-17095567D02*
X2040961Y-17076520D01*
X2040961Y-17076520D02*
X2050484Y-17066996D01*
X2050484Y-17066996D02*
X2069532Y-17057472D01*
X2221913Y-17238424D02*
X2231437Y-17247948D01*
X2231437Y-17247948D02*
X2221913Y-17257472D01*
X2221913Y-17257472D02*
X2212389Y-17247948D01*
X2212389Y-17247948D02*
X2221913Y-17238424D01*
X2221913Y-17238424D02*
X2221913Y-17257472D01*
X2326675Y-17257472D02*
X2364770Y-17257472D01*
X2364770Y-17257472D02*
X2383818Y-17247948D01*
X2383818Y-17247948D02*
X2393342Y-17238424D01*
X2393342Y-17238424D02*
X2412389Y-17209853D01*
X2412389Y-17209853D02*
X2421913Y-17171758D01*
X2421913Y-17171758D02*
X2421913Y-17095567D01*
X2421913Y-17095567D02*
X2412389Y-17076520D01*
X2412389Y-17076520D02*
X2402866Y-17066996D01*
X2402866Y-17066996D02*
X2383818Y-17057472D01*
X2383818Y-17057472D02*
X2345723Y-17057472D01*
X2345723Y-17057472D02*
X2326675Y-17066996D01*
X2326675Y-17066996D02*
X2317151Y-17076520D01*
X2317151Y-17076520D02*
X2307627Y-17095567D01*
X2307627Y-17095567D02*
X2307627Y-17143186D01*
X2307627Y-17143186D02*
X2317151Y-17162234D01*
X2317151Y-17162234D02*
X2326675Y-17171758D01*
X2326675Y-17171758D02*
X2345723Y-17181282D01*
X2345723Y-17181282D02*
X2383818Y-17181282D01*
X2383818Y-17181282D02*
X2402866Y-17171758D01*
X2402866Y-17171758D02*
X2412389Y-17162234D01*
X2412389Y-17162234D02*
X2421913Y-17143186D01*
X2602866Y-17057472D02*
X2507627Y-17057472D01*
X2507627Y-17057472D02*
X2498104Y-17152710D01*
X2498104Y-17152710D02*
X2507627Y-17143186D01*
X2507627Y-17143186D02*
X2526675Y-17133663D01*
X2526675Y-17133663D02*
X2574294Y-17133663D01*
X2574294Y-17133663D02*
X2593342Y-17143186D01*
X2593342Y-17143186D02*
X2602866Y-17152710D01*
X2602866Y-17152710D02*
X2612389Y-17171758D01*
X2612389Y-17171758D02*
X2612389Y-17219377D01*
X2612389Y-17219377D02*
X2602866Y-17238424D01*
X2602866Y-17238424D02*
X2593342Y-17247948D01*
X2593342Y-17247948D02*
X2574294Y-17257472D01*
X2574294Y-17257472D02*
X2526675Y-17257472D01*
X2526675Y-17257472D02*
X2507627Y-17247948D01*
X2507627Y-17247948D02*
X2498104Y-17238424D01*
X2736199Y-17057472D02*
X2755247Y-17057472D01*
X2755247Y-17057472D02*
X2774294Y-17066996D01*
X2774294Y-17066996D02*
X2783818Y-17076520D01*
X2783818Y-17076520D02*
X2793342Y-17095567D01*
X2793342Y-17095567D02*
X2802865Y-17133663D01*
X2802865Y-17133663D02*
X2802865Y-17181282D01*
X2802865Y-17181282D02*
X2793342Y-17219377D01*
X2793342Y-17219377D02*
X2783818Y-17238424D01*
X2783818Y-17238424D02*
X2774294Y-17247948D01*
X2774294Y-17247948D02*
X2755247Y-17257472D01*
X2755247Y-17257472D02*
X2736199Y-17257472D01*
X2736199Y-17257472D02*
X2717151Y-17247948D01*
X2717151Y-17247948D02*
X2707627Y-17238424D01*
X2707627Y-17238424D02*
X2698104Y-17219377D01*
X2698104Y-17219377D02*
X2688580Y-17181282D01*
X2688580Y-17181282D02*
X2688580Y-17133663D01*
X2688580Y-17133663D02*
X2698104Y-17095567D01*
X2698104Y-17095567D02*
X2707627Y-17076520D01*
X2707627Y-17076520D02*
X2717151Y-17066996D01*
X2717151Y-17066996D02*
X2736199Y-17057472D01*
X2888580Y-17257472D02*
X2888580Y-17124139D01*
X2888580Y-17143186D02*
X2898104Y-17133663D01*
X2898104Y-17133663D02*
X2917151Y-17124139D01*
X2917151Y-17124139D02*
X2945723Y-17124139D01*
X2945723Y-17124139D02*
X2964770Y-17133663D01*
X2964770Y-17133663D02*
X2974294Y-17152710D01*
X2974294Y-17152710D02*
X2974294Y-17257472D01*
X2974294Y-17152710D02*
X2983818Y-17133663D01*
X2983818Y-17133663D02*
X3002865Y-17124139D01*
X3002865Y-17124139D02*
X3031437Y-17124139D01*
X3031437Y-17124139D02*
X3050485Y-17133663D01*
X3050485Y-17133663D02*
X3060008Y-17152710D01*
X3060008Y-17152710D02*
X3060008Y-17257472D01*
X3155246Y-17257472D02*
X3155246Y-17124139D01*
X3155246Y-17143186D02*
X3164770Y-17133663D01*
X3164770Y-17133663D02*
X3183818Y-17124139D01*
X3183818Y-17124139D02*
X3212389Y-17124139D01*
X3212389Y-17124139D02*
X3231437Y-17133663D01*
X3231437Y-17133663D02*
X3240961Y-17152710D01*
X3240961Y-17152710D02*
X3240961Y-17257472D01*
X3240961Y-17152710D02*
X3250485Y-17133663D01*
X3250485Y-17133663D02*
X3269532Y-17124139D01*
X3269532Y-17124139D02*
X3298104Y-17124139D01*
X3298104Y-17124139D02*
X3317151Y-17133663D01*
X3317151Y-17133663D02*
X3326675Y-17152710D01*
X3326675Y-17152710D02*
X3326675Y-17257472D01*
X3717151Y-17047948D02*
X3545723Y-17305091D01*
X3974294Y-17057472D02*
X3993342Y-17057472D01*
X3993342Y-17057472D02*
X4012389Y-17066996D01*
X4012389Y-17066996D02*
X4021913Y-17076520D01*
X4021913Y-17076520D02*
X4031437Y-17095567D01*
X4031437Y-17095567D02*
X4040961Y-17133663D01*
X4040961Y-17133663D02*
X4040961Y-17181282D01*
X4040961Y-17181282D02*
X4031437Y-17219377D01*
X4031437Y-17219377D02*
X4021913Y-17238424D01*
X4021913Y-17238424D02*
X4012389Y-17247948D01*
X4012389Y-17247948D02*
X3993342Y-17257472D01*
X3993342Y-17257472D02*
X3974294Y-17257472D01*
X3974294Y-17257472D02*
X3955247Y-17247948D01*
X3955247Y-17247948D02*
X3945723Y-17238424D01*
X3945723Y-17238424D02*
X3936199Y-17219377D01*
X3936199Y-17219377D02*
X3926675Y-17181282D01*
X3926675Y-17181282D02*
X3926675Y-17133663D01*
X3926675Y-17133663D02*
X3936199Y-17095567D01*
X3936199Y-17095567D02*
X3945723Y-17076520D01*
X3945723Y-17076520D02*
X3955247Y-17066996D01*
X3955247Y-17066996D02*
X3974294Y-17057472D01*
X4126675Y-17238424D02*
X4136199Y-17247948D01*
X4136199Y-17247948D02*
X4126675Y-17257472D01*
X4126675Y-17257472D02*
X4117151Y-17247948D01*
X4117151Y-17247948D02*
X4126675Y-17238424D01*
X4126675Y-17238424D02*
X4126675Y-17257472D01*
X4260009Y-17057472D02*
X4279056Y-17057472D01*
X4279056Y-17057472D02*
X4298104Y-17066996D01*
X4298104Y-17066996D02*
X4307628Y-17076520D01*
X4307628Y-17076520D02*
X4317151Y-17095567D01*
X4317151Y-17095567D02*
X4326675Y-17133663D01*
X4326675Y-17133663D02*
X4326675Y-17181282D01*
X4326675Y-17181282D02*
X4317151Y-17219377D01*
X4317151Y-17219377D02*
X4307628Y-17238424D01*
X4307628Y-17238424D02*
X4298104Y-17247948D01*
X4298104Y-17247948D02*
X4279056Y-17257472D01*
X4279056Y-17257472D02*
X4260009Y-17257472D01*
X4260009Y-17257472D02*
X4240961Y-17247948D01*
X4240961Y-17247948D02*
X4231437Y-17238424D01*
X4231437Y-17238424D02*
X4221913Y-17219377D01*
X4221913Y-17219377D02*
X4212390Y-17181282D01*
X4212390Y-17181282D02*
X4212390Y-17133663D01*
X4212390Y-17133663D02*
X4221913Y-17095567D01*
X4221913Y-17095567D02*
X4231437Y-17076520D01*
X4231437Y-17076520D02*
X4240961Y-17066996D01*
X4240961Y-17066996D02*
X4260009Y-17057472D01*
X4393342Y-17057472D02*
X4517151Y-17057472D01*
X4517151Y-17057472D02*
X4450485Y-17133663D01*
X4450485Y-17133663D02*
X4479056Y-17133663D01*
X4479056Y-17133663D02*
X4498104Y-17143186D01*
X4498104Y-17143186D02*
X4507628Y-17152710D01*
X4507628Y-17152710D02*
X4517151Y-17171758D01*
X4517151Y-17171758D02*
X4517151Y-17219377D01*
X4517151Y-17219377D02*
X4507628Y-17238424D01*
X4507628Y-17238424D02*
X4498104Y-17247948D01*
X4498104Y-17247948D02*
X4479056Y-17257472D01*
X4479056Y-17257472D02*
X4421913Y-17257472D01*
X4421913Y-17257472D02*
X4402866Y-17247948D01*
X4402866Y-17247948D02*
X4393342Y-17238424D01*
X4583818Y-17057472D02*
X4717151Y-17057472D01*
X4717151Y-17057472D02*
X4631437Y-17257472D01*
X4879056Y-17124139D02*
X4879056Y-17257472D01*
X4831437Y-17047948D02*
X4783818Y-17190805D01*
X4783818Y-17190805D02*
X4907628Y-17190805D01*
X4974294Y-17057472D02*
X4974294Y-17095567D01*
X5050485Y-17057472D02*
X5050485Y-17095567D01*
X5345723Y-17333663D02*
X5336199Y-17324139D01*
X5336199Y-17324139D02*
X5317152Y-17295567D01*
X5317152Y-17295567D02*
X5307628Y-17276520D01*
X5307628Y-17276520D02*
X5298104Y-17247948D01*
X5298104Y-17247948D02*
X5288580Y-17200329D01*
X5288580Y-17200329D02*
X5288580Y-17162234D01*
X5288580Y-17162234D02*
X5298104Y-17114615D01*
X5298104Y-17114615D02*
X5307628Y-17086044D01*
X5307628Y-17086044D02*
X5317152Y-17066996D01*
X5317152Y-17066996D02*
X5336199Y-17038424D01*
X5336199Y-17038424D02*
X5345723Y-17028901D01*
X5526675Y-17257472D02*
X5412390Y-17257472D01*
X5469532Y-17257472D02*
X5469532Y-17057472D01*
X5469532Y-17057472D02*
X5450485Y-17086044D01*
X5450485Y-17086044D02*
X5431437Y-17105091D01*
X5431437Y-17105091D02*
X5412390Y-17114615D01*
X5698104Y-17124139D02*
X5698104Y-17257472D01*
X5650485Y-17047948D02*
X5602866Y-17190805D01*
X5602866Y-17190805D02*
X5726675Y-17190805D01*
X5955247Y-17257472D02*
X5955247Y-17057472D01*
X6040961Y-17257472D02*
X6040961Y-17152710D01*
X6040961Y-17152710D02*
X6031437Y-17133663D01*
X6031437Y-17133663D02*
X6012390Y-17124139D01*
X6012390Y-17124139D02*
X5983818Y-17124139D01*
X5983818Y-17124139D02*
X5964771Y-17133663D01*
X5964771Y-17133663D02*
X5955247Y-17143186D01*
X6164771Y-17257472D02*
X6145723Y-17247948D01*
X6145723Y-17247948D02*
X6136199Y-17238424D01*
X6136199Y-17238424D02*
X6126675Y-17219377D01*
X6126675Y-17219377D02*
X6126675Y-17162234D01*
X6126675Y-17162234D02*
X6136199Y-17143186D01*
X6136199Y-17143186D02*
X6145723Y-17133663D01*
X6145723Y-17133663D02*
X6164771Y-17124139D01*
X6164771Y-17124139D02*
X6193342Y-17124139D01*
X6193342Y-17124139D02*
X6212390Y-17133663D01*
X6212390Y-17133663D02*
X6221913Y-17143186D01*
X6221913Y-17143186D02*
X6231437Y-17162234D01*
X6231437Y-17162234D02*
X6231437Y-17219377D01*
X6231437Y-17219377D02*
X6221913Y-17238424D01*
X6221913Y-17238424D02*
X6212390Y-17247948D01*
X6212390Y-17247948D02*
X6193342Y-17257472D01*
X6193342Y-17257472D02*
X6164771Y-17257472D01*
X6345723Y-17257472D02*
X6326675Y-17247948D01*
X6326675Y-17247948D02*
X6317152Y-17228901D01*
X6317152Y-17228901D02*
X6317152Y-17057472D01*
X6498104Y-17247948D02*
X6479056Y-17257472D01*
X6479056Y-17257472D02*
X6440961Y-17257472D01*
X6440961Y-17257472D02*
X6421913Y-17247948D01*
X6421913Y-17247948D02*
X6412390Y-17228901D01*
X6412390Y-17228901D02*
X6412390Y-17152710D01*
X6412390Y-17152710D02*
X6421913Y-17133663D01*
X6421913Y-17133663D02*
X6440961Y-17124139D01*
X6440961Y-17124139D02*
X6479056Y-17124139D01*
X6479056Y-17124139D02*
X6498104Y-17133663D01*
X6498104Y-17133663D02*
X6507628Y-17152710D01*
X6507628Y-17152710D02*
X6507628Y-17171758D01*
X6507628Y-17171758D02*
X6412390Y-17190805D01*
X6583818Y-17247948D02*
X6602866Y-17257472D01*
X6602866Y-17257472D02*
X6640961Y-17257472D01*
X6640961Y-17257472D02*
X6660009Y-17247948D01*
X6660009Y-17247948D02*
X6669533Y-17228901D01*
X6669533Y-17228901D02*
X6669533Y-17219377D01*
X6669533Y-17219377D02*
X6660009Y-17200329D01*
X6660009Y-17200329D02*
X6640961Y-17190805D01*
X6640961Y-17190805D02*
X6612390Y-17190805D01*
X6612390Y-17190805D02*
X6593342Y-17181282D01*
X6593342Y-17181282D02*
X6583818Y-17162234D01*
X6583818Y-17162234D02*
X6583818Y-17152710D01*
X6583818Y-17152710D02*
X6593342Y-17133663D01*
X6593342Y-17133663D02*
X6612390Y-17124139D01*
X6612390Y-17124139D02*
X6640961Y-17124139D01*
X6640961Y-17124139D02*
X6660009Y-17133663D01*
X6736199Y-17333663D02*
X6745723Y-17324139D01*
X6745723Y-17324139D02*
X6764771Y-17295567D01*
X6764771Y-17295567D02*
X6774294Y-17276520D01*
X6774294Y-17276520D02*
X6783818Y-17247948D01*
X6783818Y-17247948D02*
X6793342Y-17200329D01*
X6793342Y-17200329D02*
X6793342Y-17162234D01*
X6793342Y-17162234D02*
X6783818Y-17114615D01*
X6783818Y-17114615D02*
X6774294Y-17086044D01*
X6774294Y-17086044D02*
X6764771Y-17066996D01*
X6764771Y-17066996D02*
X6745723Y-17038424D01*
X6745723Y-17038424D02*
X6736199Y-17028901D01*
D11*
X1720660Y-17479988D02*
X1770660Y-17429988D01*
X1720660Y-17379988D01*
X1670660Y-17429988D01*
X1720660Y-17479988D01*
D12*
X2136199Y-17521472D02*
X2021913Y-17521472D01*
X2079056Y-17521472D02*
X2079056Y-17321472D01*
X2079056Y-17321472D02*
X2060008Y-17350044D01*
X2060008Y-17350044D02*
X2040961Y-17369091D01*
X2040961Y-17369091D02*
X2021913Y-17378615D01*
X2221913Y-17502424D02*
X2231437Y-17511948D01*
X2231437Y-17511948D02*
X2221913Y-17521472D01*
X2221913Y-17521472D02*
X2212389Y-17511948D01*
X2212389Y-17511948D02*
X2221913Y-17502424D01*
X2221913Y-17502424D02*
X2221913Y-17521472D01*
X2355246Y-17321472D02*
X2374294Y-17321472D01*
X2374294Y-17321472D02*
X2393342Y-17330996D01*
X2393342Y-17330996D02*
X2402866Y-17340520D01*
X2402866Y-17340520D02*
X2412389Y-17359567D01*
X2412389Y-17359567D02*
X2421913Y-17397663D01*
X2421913Y-17397663D02*
X2421913Y-17445282D01*
X2421913Y-17445282D02*
X2412389Y-17483377D01*
X2412389Y-17483377D02*
X2402866Y-17502424D01*
X2402866Y-17502424D02*
X2393342Y-17511948D01*
X2393342Y-17511948D02*
X2374294Y-17521472D01*
X2374294Y-17521472D02*
X2355246Y-17521472D01*
X2355246Y-17521472D02*
X2336199Y-17511948D01*
X2336199Y-17511948D02*
X2326675Y-17502424D01*
X2326675Y-17502424D02*
X2317151Y-17483377D01*
X2317151Y-17483377D02*
X2307627Y-17445282D01*
X2307627Y-17445282D02*
X2307627Y-17397663D01*
X2307627Y-17397663D02*
X2317151Y-17359567D01*
X2317151Y-17359567D02*
X2326675Y-17340520D01*
X2326675Y-17340520D02*
X2336199Y-17330996D01*
X2336199Y-17330996D02*
X2355246Y-17321472D01*
X2545723Y-17321472D02*
X2564770Y-17321472D01*
X2564770Y-17321472D02*
X2583818Y-17330996D01*
X2583818Y-17330996D02*
X2593342Y-17340520D01*
X2593342Y-17340520D02*
X2602866Y-17359567D01*
X2602866Y-17359567D02*
X2612389Y-17397663D01*
X2612389Y-17397663D02*
X2612389Y-17445282D01*
X2612389Y-17445282D02*
X2602866Y-17483377D01*
X2602866Y-17483377D02*
X2593342Y-17502424D01*
X2593342Y-17502424D02*
X2583818Y-17511948D01*
X2583818Y-17511948D02*
X2564770Y-17521472D01*
X2564770Y-17521472D02*
X2545723Y-17521472D01*
X2545723Y-17521472D02*
X2526675Y-17511948D01*
X2526675Y-17511948D02*
X2517151Y-17502424D01*
X2517151Y-17502424D02*
X2507627Y-17483377D01*
X2507627Y-17483377D02*
X2498104Y-17445282D01*
X2498104Y-17445282D02*
X2498104Y-17397663D01*
X2498104Y-17397663D02*
X2507627Y-17359567D01*
X2507627Y-17359567D02*
X2517151Y-17340520D01*
X2517151Y-17340520D02*
X2526675Y-17330996D01*
X2526675Y-17330996D02*
X2545723Y-17321472D01*
X2736199Y-17321472D02*
X2755247Y-17321472D01*
X2755247Y-17321472D02*
X2774294Y-17330996D01*
X2774294Y-17330996D02*
X2783818Y-17340520D01*
X2783818Y-17340520D02*
X2793342Y-17359567D01*
X2793342Y-17359567D02*
X2802865Y-17397663D01*
X2802865Y-17397663D02*
X2802865Y-17445282D01*
X2802865Y-17445282D02*
X2793342Y-17483377D01*
X2793342Y-17483377D02*
X2783818Y-17502424D01*
X2783818Y-17502424D02*
X2774294Y-17511948D01*
X2774294Y-17511948D02*
X2755247Y-17521472D01*
X2755247Y-17521472D02*
X2736199Y-17521472D01*
X2736199Y-17521472D02*
X2717151Y-17511948D01*
X2717151Y-17511948D02*
X2707627Y-17502424D01*
X2707627Y-17502424D02*
X2698104Y-17483377D01*
X2698104Y-17483377D02*
X2688580Y-17445282D01*
X2688580Y-17445282D02*
X2688580Y-17397663D01*
X2688580Y-17397663D02*
X2698104Y-17359567D01*
X2698104Y-17359567D02*
X2707627Y-17340520D01*
X2707627Y-17340520D02*
X2717151Y-17330996D01*
X2717151Y-17330996D02*
X2736199Y-17321472D01*
X2888580Y-17521472D02*
X2888580Y-17388139D01*
X2888580Y-17407186D02*
X2898104Y-17397663D01*
X2898104Y-17397663D02*
X2917151Y-17388139D01*
X2917151Y-17388139D02*
X2945723Y-17388139D01*
X2945723Y-17388139D02*
X2964770Y-17397663D01*
X2964770Y-17397663D02*
X2974294Y-17416710D01*
X2974294Y-17416710D02*
X2974294Y-17521472D01*
X2974294Y-17416710D02*
X2983818Y-17397663D01*
X2983818Y-17397663D02*
X3002865Y-17388139D01*
X3002865Y-17388139D02*
X3031437Y-17388139D01*
X3031437Y-17388139D02*
X3050485Y-17397663D01*
X3050485Y-17397663D02*
X3060008Y-17416710D01*
X3060008Y-17416710D02*
X3060008Y-17521472D01*
X3155246Y-17521472D02*
X3155246Y-17388139D01*
X3155246Y-17407186D02*
X3164770Y-17397663D01*
X3164770Y-17397663D02*
X3183818Y-17388139D01*
X3183818Y-17388139D02*
X3212389Y-17388139D01*
X3212389Y-17388139D02*
X3231437Y-17397663D01*
X3231437Y-17397663D02*
X3240961Y-17416710D01*
X3240961Y-17416710D02*
X3240961Y-17521472D01*
X3240961Y-17416710D02*
X3250485Y-17397663D01*
X3250485Y-17397663D02*
X3269532Y-17388139D01*
X3269532Y-17388139D02*
X3298104Y-17388139D01*
X3298104Y-17388139D02*
X3317151Y-17397663D01*
X3317151Y-17397663D02*
X3326675Y-17416710D01*
X3326675Y-17416710D02*
X3326675Y-17521472D01*
X3717151Y-17311948D02*
X3545723Y-17569091D01*
X3974294Y-17321472D02*
X3993342Y-17321472D01*
X3993342Y-17321472D02*
X4012389Y-17330996D01*
X4012389Y-17330996D02*
X4021913Y-17340520D01*
X4021913Y-17340520D02*
X4031437Y-17359567D01*
X4031437Y-17359567D02*
X4040961Y-17397663D01*
X4040961Y-17397663D02*
X4040961Y-17445282D01*
X4040961Y-17445282D02*
X4031437Y-17483377D01*
X4031437Y-17483377D02*
X4021913Y-17502424D01*
X4021913Y-17502424D02*
X4012389Y-17511948D01*
X4012389Y-17511948D02*
X3993342Y-17521472D01*
X3993342Y-17521472D02*
X3974294Y-17521472D01*
X3974294Y-17521472D02*
X3955247Y-17511948D01*
X3955247Y-17511948D02*
X3945723Y-17502424D01*
X3945723Y-17502424D02*
X3936199Y-17483377D01*
X3936199Y-17483377D02*
X3926675Y-17445282D01*
X3926675Y-17445282D02*
X3926675Y-17397663D01*
X3926675Y-17397663D02*
X3936199Y-17359567D01*
X3936199Y-17359567D02*
X3945723Y-17340520D01*
X3945723Y-17340520D02*
X3955247Y-17330996D01*
X3955247Y-17330996D02*
X3974294Y-17321472D01*
X4126675Y-17502424D02*
X4136199Y-17511948D01*
X4136199Y-17511948D02*
X4126675Y-17521472D01*
X4126675Y-17521472D02*
X4117151Y-17511948D01*
X4117151Y-17511948D02*
X4126675Y-17502424D01*
X4126675Y-17502424D02*
X4126675Y-17521472D01*
X4260009Y-17321472D02*
X4279056Y-17321472D01*
X4279056Y-17321472D02*
X4298104Y-17330996D01*
X4298104Y-17330996D02*
X4307628Y-17340520D01*
X4307628Y-17340520D02*
X4317151Y-17359567D01*
X4317151Y-17359567D02*
X4326675Y-17397663D01*
X4326675Y-17397663D02*
X4326675Y-17445282D01*
X4326675Y-17445282D02*
X4317151Y-17483377D01*
X4317151Y-17483377D02*
X4307628Y-17502424D01*
X4307628Y-17502424D02*
X4298104Y-17511948D01*
X4298104Y-17511948D02*
X4279056Y-17521472D01*
X4279056Y-17521472D02*
X4260009Y-17521472D01*
X4260009Y-17521472D02*
X4240961Y-17511948D01*
X4240961Y-17511948D02*
X4231437Y-17502424D01*
X4231437Y-17502424D02*
X4221913Y-17483377D01*
X4221913Y-17483377D02*
X4212390Y-17445282D01*
X4212390Y-17445282D02*
X4212390Y-17397663D01*
X4212390Y-17397663D02*
X4221913Y-17359567D01*
X4221913Y-17359567D02*
X4231437Y-17340520D01*
X4231437Y-17340520D02*
X4240961Y-17330996D01*
X4240961Y-17330996D02*
X4260009Y-17321472D01*
X4393342Y-17321472D02*
X4517151Y-17321472D01*
X4517151Y-17321472D02*
X4450485Y-17397663D01*
X4450485Y-17397663D02*
X4479056Y-17397663D01*
X4479056Y-17397663D02*
X4498104Y-17407186D01*
X4498104Y-17407186D02*
X4507628Y-17416710D01*
X4507628Y-17416710D02*
X4517151Y-17435758D01*
X4517151Y-17435758D02*
X4517151Y-17483377D01*
X4517151Y-17483377D02*
X4507628Y-17502424D01*
X4507628Y-17502424D02*
X4498104Y-17511948D01*
X4498104Y-17511948D02*
X4479056Y-17521472D01*
X4479056Y-17521472D02*
X4421913Y-17521472D01*
X4421913Y-17521472D02*
X4402866Y-17511948D01*
X4402866Y-17511948D02*
X4393342Y-17502424D01*
X4612390Y-17521472D02*
X4650485Y-17521472D01*
X4650485Y-17521472D02*
X4669532Y-17511948D01*
X4669532Y-17511948D02*
X4679056Y-17502424D01*
X4679056Y-17502424D02*
X4698104Y-17473853D01*
X4698104Y-17473853D02*
X4707628Y-17435758D01*
X4707628Y-17435758D02*
X4707628Y-17359567D01*
X4707628Y-17359567D02*
X4698104Y-17340520D01*
X4698104Y-17340520D02*
X4688580Y-17330996D01*
X4688580Y-17330996D02*
X4669532Y-17321472D01*
X4669532Y-17321472D02*
X4631437Y-17321472D01*
X4631437Y-17321472D02*
X4612390Y-17330996D01*
X4612390Y-17330996D02*
X4602866Y-17340520D01*
X4602866Y-17340520D02*
X4593342Y-17359567D01*
X4593342Y-17359567D02*
X4593342Y-17407186D01*
X4593342Y-17407186D02*
X4602866Y-17426234D01*
X4602866Y-17426234D02*
X4612390Y-17435758D01*
X4612390Y-17435758D02*
X4631437Y-17445282D01*
X4631437Y-17445282D02*
X4669532Y-17445282D01*
X4669532Y-17445282D02*
X4688580Y-17435758D01*
X4688580Y-17435758D02*
X4698104Y-17426234D01*
X4698104Y-17426234D02*
X4707628Y-17407186D01*
X4879056Y-17388139D02*
X4879056Y-17521472D01*
X4831437Y-17311948D02*
X4783818Y-17454805D01*
X4783818Y-17454805D02*
X4907628Y-17454805D01*
X4974294Y-17321472D02*
X4974294Y-17359567D01*
X5050485Y-17321472D02*
X5050485Y-17359567D01*
X5345723Y-17597663D02*
X5336199Y-17588139D01*
X5336199Y-17588139D02*
X5317152Y-17559567D01*
X5317152Y-17559567D02*
X5307628Y-17540520D01*
X5307628Y-17540520D02*
X5298104Y-17511948D01*
X5298104Y-17511948D02*
X5288580Y-17464329D01*
X5288580Y-17464329D02*
X5288580Y-17426234D01*
X5288580Y-17426234D02*
X5298104Y-17378615D01*
X5298104Y-17378615D02*
X5307628Y-17350044D01*
X5307628Y-17350044D02*
X5317152Y-17330996D01*
X5317152Y-17330996D02*
X5336199Y-17302424D01*
X5336199Y-17302424D02*
X5345723Y-17292901D01*
X5526675Y-17521472D02*
X5412390Y-17521472D01*
X5469532Y-17521472D02*
X5469532Y-17321472D01*
X5469532Y-17321472D02*
X5450485Y-17350044D01*
X5450485Y-17350044D02*
X5431437Y-17369091D01*
X5431437Y-17369091D02*
X5412390Y-17378615D01*
X5621913Y-17521472D02*
X5660009Y-17521472D01*
X5660009Y-17521472D02*
X5679056Y-17511948D01*
X5679056Y-17511948D02*
X5688580Y-17502424D01*
X5688580Y-17502424D02*
X5707628Y-17473853D01*
X5707628Y-17473853D02*
X5717151Y-17435758D01*
X5717151Y-17435758D02*
X5717151Y-17359567D01*
X5717151Y-17359567D02*
X5707628Y-17340520D01*
X5707628Y-17340520D02*
X5698104Y-17330996D01*
X5698104Y-17330996D02*
X5679056Y-17321472D01*
X5679056Y-17321472D02*
X5640961Y-17321472D01*
X5640961Y-17321472D02*
X5621913Y-17330996D01*
X5621913Y-17330996D02*
X5612390Y-17340520D01*
X5612390Y-17340520D02*
X5602866Y-17359567D01*
X5602866Y-17359567D02*
X5602866Y-17407186D01*
X5602866Y-17407186D02*
X5612390Y-17426234D01*
X5612390Y-17426234D02*
X5621913Y-17435758D01*
X5621913Y-17435758D02*
X5640961Y-17445282D01*
X5640961Y-17445282D02*
X5679056Y-17445282D01*
X5679056Y-17445282D02*
X5698104Y-17435758D01*
X5698104Y-17435758D02*
X5707628Y-17426234D01*
X5707628Y-17426234D02*
X5717151Y-17407186D01*
X5888580Y-17388139D02*
X5888580Y-17521472D01*
X5840961Y-17311948D02*
X5793342Y-17454805D01*
X5793342Y-17454805D02*
X5917151Y-17454805D01*
X6145723Y-17521472D02*
X6145723Y-17321472D01*
X6231437Y-17521472D02*
X6231437Y-17416710D01*
X6231437Y-17416710D02*
X6221913Y-17397663D01*
X6221913Y-17397663D02*
X6202866Y-17388139D01*
X6202866Y-17388139D02*
X6174294Y-17388139D01*
X6174294Y-17388139D02*
X6155247Y-17397663D01*
X6155247Y-17397663D02*
X6145723Y-17407186D01*
X6355247Y-17521472D02*
X6336199Y-17511948D01*
X6336199Y-17511948D02*
X6326675Y-17502424D01*
X6326675Y-17502424D02*
X6317152Y-17483377D01*
X6317152Y-17483377D02*
X6317152Y-17426234D01*
X6317152Y-17426234D02*
X6326675Y-17407186D01*
X6326675Y-17407186D02*
X6336199Y-17397663D01*
X6336199Y-17397663D02*
X6355247Y-17388139D01*
X6355247Y-17388139D02*
X6383818Y-17388139D01*
X6383818Y-17388139D02*
X6402866Y-17397663D01*
X6402866Y-17397663D02*
X6412390Y-17407186D01*
X6412390Y-17407186D02*
X6421913Y-17426234D01*
X6421913Y-17426234D02*
X6421913Y-17483377D01*
X6421913Y-17483377D02*
X6412390Y-17502424D01*
X6412390Y-17502424D02*
X6402866Y-17511948D01*
X6402866Y-17511948D02*
X6383818Y-17521472D01*
X6383818Y-17521472D02*
X6355247Y-17521472D01*
X6536199Y-17521472D02*
X6517152Y-17511948D01*
X6517152Y-17511948D02*
X6507628Y-17492901D01*
X6507628Y-17492901D02*
X6507628Y-17321472D01*
X6688580Y-17511948D02*
X6669533Y-17521472D01*
X6669533Y-17521472D02*
X6631437Y-17521472D01*
X6631437Y-17521472D02*
X6612390Y-17511948D01*
X6612390Y-17511948D02*
X6602866Y-17492901D01*
X6602866Y-17492901D02*
X6602866Y-17416710D01*
X6602866Y-17416710D02*
X6612390Y-17397663D01*
X6612390Y-17397663D02*
X6631437Y-17388139D01*
X6631437Y-17388139D02*
X6669533Y-17388139D01*
X6669533Y-17388139D02*
X6688580Y-17397663D01*
X6688580Y-17397663D02*
X6698104Y-17416710D01*
X6698104Y-17416710D02*
X6698104Y-17435758D01*
X6698104Y-17435758D02*
X6602866Y-17454805D01*
X6774294Y-17511948D02*
X6793342Y-17521472D01*
X6793342Y-17521472D02*
X6831437Y-17521472D01*
X6831437Y-17521472D02*
X6850485Y-17511948D01*
X6850485Y-17511948D02*
X6860009Y-17492901D01*
X6860009Y-17492901D02*
X6860009Y-17483377D01*
X6860009Y-17483377D02*
X6850485Y-17464329D01*
X6850485Y-17464329D02*
X6831437Y-17454805D01*
X6831437Y-17454805D02*
X6802866Y-17454805D01*
X6802866Y-17454805D02*
X6783818Y-17445282D01*
X6783818Y-17445282D02*
X6774294Y-17426234D01*
X6774294Y-17426234D02*
X6774294Y-17416710D01*
X6774294Y-17416710D02*
X6783818Y-17397663D01*
X6783818Y-17397663D02*
X6802866Y-17388139D01*
X6802866Y-17388139D02*
X6831437Y-17388139D01*
X6831437Y-17388139D02*
X6850485Y-17397663D01*
X6926675Y-17597663D02*
X6936199Y-17588139D01*
X6936199Y-17588139D02*
X6955247Y-17559567D01*
X6955247Y-17559567D02*
X6964771Y-17540520D01*
X6964771Y-17540520D02*
X6974294Y-17511948D01*
X6974294Y-17511948D02*
X6983818Y-17464329D01*
X6983818Y-17464329D02*
X6983818Y-17426234D01*
X6983818Y-17426234D02*
X6974294Y-17378615D01*
X6974294Y-17378615D02*
X6964771Y-17350044D01*
X6964771Y-17350044D02*
X6955247Y-17330996D01*
X6955247Y-17330996D02*
X6936199Y-17302424D01*
X6936199Y-17302424D02*
X6926675Y-17292901D01*
D17*
X1640660Y-17628988D02*
X1770660Y-17758988D01*
X1770660Y-17628988D02*
X1640660Y-17758988D01*
X1770660Y-17693988D02*
G75*
G03*
X1770660Y-17693988I-65000J0D01*
G01*
D12*
X2136199Y-17785472D02*
X2021913Y-17785472D01*
X2079056Y-17785472D02*
X2079056Y-17585472D01*
X2079056Y-17585472D02*
X2060008Y-17614044D01*
X2060008Y-17614044D02*
X2040961Y-17633091D01*
X2040961Y-17633091D02*
X2021913Y-17642615D01*
X2221913Y-17766424D02*
X2231437Y-17775948D01*
X2231437Y-17775948D02*
X2221913Y-17785472D01*
X2221913Y-17785472D02*
X2212389Y-17775948D01*
X2212389Y-17775948D02*
X2221913Y-17766424D01*
X2221913Y-17766424D02*
X2221913Y-17785472D01*
X2298104Y-17585472D02*
X2421913Y-17585472D01*
X2421913Y-17585472D02*
X2355246Y-17661663D01*
X2355246Y-17661663D02*
X2383818Y-17661663D01*
X2383818Y-17661663D02*
X2402866Y-17671186D01*
X2402866Y-17671186D02*
X2412389Y-17680710D01*
X2412389Y-17680710D02*
X2421913Y-17699758D01*
X2421913Y-17699758D02*
X2421913Y-17747377D01*
X2421913Y-17747377D02*
X2412389Y-17766424D01*
X2412389Y-17766424D02*
X2402866Y-17775948D01*
X2402866Y-17775948D02*
X2383818Y-17785472D01*
X2383818Y-17785472D02*
X2326675Y-17785472D01*
X2326675Y-17785472D02*
X2307627Y-17775948D01*
X2307627Y-17775948D02*
X2298104Y-17766424D01*
X2545723Y-17585472D02*
X2564770Y-17585472D01*
X2564770Y-17585472D02*
X2583818Y-17594996D01*
X2583818Y-17594996D02*
X2593342Y-17604520D01*
X2593342Y-17604520D02*
X2602866Y-17623567D01*
X2602866Y-17623567D02*
X2612389Y-17661663D01*
X2612389Y-17661663D02*
X2612389Y-17709282D01*
X2612389Y-17709282D02*
X2602866Y-17747377D01*
X2602866Y-17747377D02*
X2593342Y-17766424D01*
X2593342Y-17766424D02*
X2583818Y-17775948D01*
X2583818Y-17775948D02*
X2564770Y-17785472D01*
X2564770Y-17785472D02*
X2545723Y-17785472D01*
X2545723Y-17785472D02*
X2526675Y-17775948D01*
X2526675Y-17775948D02*
X2517151Y-17766424D01*
X2517151Y-17766424D02*
X2507627Y-17747377D01*
X2507627Y-17747377D02*
X2498104Y-17709282D01*
X2498104Y-17709282D02*
X2498104Y-17661663D01*
X2498104Y-17661663D02*
X2507627Y-17623567D01*
X2507627Y-17623567D02*
X2517151Y-17604520D01*
X2517151Y-17604520D02*
X2526675Y-17594996D01*
X2526675Y-17594996D02*
X2545723Y-17585472D01*
X2736199Y-17585472D02*
X2755247Y-17585472D01*
X2755247Y-17585472D02*
X2774294Y-17594996D01*
X2774294Y-17594996D02*
X2783818Y-17604520D01*
X2783818Y-17604520D02*
X2793342Y-17623567D01*
X2793342Y-17623567D02*
X2802865Y-17661663D01*
X2802865Y-17661663D02*
X2802865Y-17709282D01*
X2802865Y-17709282D02*
X2793342Y-17747377D01*
X2793342Y-17747377D02*
X2783818Y-17766424D01*
X2783818Y-17766424D02*
X2774294Y-17775948D01*
X2774294Y-17775948D02*
X2755247Y-17785472D01*
X2755247Y-17785472D02*
X2736199Y-17785472D01*
X2736199Y-17785472D02*
X2717151Y-17775948D01*
X2717151Y-17775948D02*
X2707627Y-17766424D01*
X2707627Y-17766424D02*
X2698104Y-17747377D01*
X2698104Y-17747377D02*
X2688580Y-17709282D01*
X2688580Y-17709282D02*
X2688580Y-17661663D01*
X2688580Y-17661663D02*
X2698104Y-17623567D01*
X2698104Y-17623567D02*
X2707627Y-17604520D01*
X2707627Y-17604520D02*
X2717151Y-17594996D01*
X2717151Y-17594996D02*
X2736199Y-17585472D01*
X2888580Y-17785472D02*
X2888580Y-17652139D01*
X2888580Y-17671186D02*
X2898104Y-17661663D01*
X2898104Y-17661663D02*
X2917151Y-17652139D01*
X2917151Y-17652139D02*
X2945723Y-17652139D01*
X2945723Y-17652139D02*
X2964770Y-17661663D01*
X2964770Y-17661663D02*
X2974294Y-17680710D01*
X2974294Y-17680710D02*
X2974294Y-17785472D01*
X2974294Y-17680710D02*
X2983818Y-17661663D01*
X2983818Y-17661663D02*
X3002865Y-17652139D01*
X3002865Y-17652139D02*
X3031437Y-17652139D01*
X3031437Y-17652139D02*
X3050485Y-17661663D01*
X3050485Y-17661663D02*
X3060008Y-17680710D01*
X3060008Y-17680710D02*
X3060008Y-17785472D01*
X3155246Y-17785472D02*
X3155246Y-17652139D01*
X3155246Y-17671186D02*
X3164770Y-17661663D01*
X3164770Y-17661663D02*
X3183818Y-17652139D01*
X3183818Y-17652139D02*
X3212389Y-17652139D01*
X3212389Y-17652139D02*
X3231437Y-17661663D01*
X3231437Y-17661663D02*
X3240961Y-17680710D01*
X3240961Y-17680710D02*
X3240961Y-17785472D01*
X3240961Y-17680710D02*
X3250485Y-17661663D01*
X3250485Y-17661663D02*
X3269532Y-17652139D01*
X3269532Y-17652139D02*
X3298104Y-17652139D01*
X3298104Y-17652139D02*
X3317151Y-17661663D01*
X3317151Y-17661663D02*
X3326675Y-17680710D01*
X3326675Y-17680710D02*
X3326675Y-17785472D01*
X3717151Y-17575948D02*
X3545723Y-17833091D01*
X3974294Y-17585472D02*
X3993342Y-17585472D01*
X3993342Y-17585472D02*
X4012389Y-17594996D01*
X4012389Y-17594996D02*
X4021913Y-17604520D01*
X4021913Y-17604520D02*
X4031437Y-17623567D01*
X4031437Y-17623567D02*
X4040961Y-17661663D01*
X4040961Y-17661663D02*
X4040961Y-17709282D01*
X4040961Y-17709282D02*
X4031437Y-17747377D01*
X4031437Y-17747377D02*
X4021913Y-17766424D01*
X4021913Y-17766424D02*
X4012389Y-17775948D01*
X4012389Y-17775948D02*
X3993342Y-17785472D01*
X3993342Y-17785472D02*
X3974294Y-17785472D01*
X3974294Y-17785472D02*
X3955247Y-17775948D01*
X3955247Y-17775948D02*
X3945723Y-17766424D01*
X3945723Y-17766424D02*
X3936199Y-17747377D01*
X3936199Y-17747377D02*
X3926675Y-17709282D01*
X3926675Y-17709282D02*
X3926675Y-17661663D01*
X3926675Y-17661663D02*
X3936199Y-17623567D01*
X3936199Y-17623567D02*
X3945723Y-17604520D01*
X3945723Y-17604520D02*
X3955247Y-17594996D01*
X3955247Y-17594996D02*
X3974294Y-17585472D01*
X4126675Y-17766424D02*
X4136199Y-17775948D01*
X4136199Y-17775948D02*
X4126675Y-17785472D01*
X4126675Y-17785472D02*
X4117151Y-17775948D01*
X4117151Y-17775948D02*
X4126675Y-17766424D01*
X4126675Y-17766424D02*
X4126675Y-17785472D01*
X4260009Y-17585472D02*
X4279056Y-17585472D01*
X4279056Y-17585472D02*
X4298104Y-17594996D01*
X4298104Y-17594996D02*
X4307628Y-17604520D01*
X4307628Y-17604520D02*
X4317151Y-17623567D01*
X4317151Y-17623567D02*
X4326675Y-17661663D01*
X4326675Y-17661663D02*
X4326675Y-17709282D01*
X4326675Y-17709282D02*
X4317151Y-17747377D01*
X4317151Y-17747377D02*
X4307628Y-17766424D01*
X4307628Y-17766424D02*
X4298104Y-17775948D01*
X4298104Y-17775948D02*
X4279056Y-17785472D01*
X4279056Y-17785472D02*
X4260009Y-17785472D01*
X4260009Y-17785472D02*
X4240961Y-17775948D01*
X4240961Y-17775948D02*
X4231437Y-17766424D01*
X4231437Y-17766424D02*
X4221913Y-17747377D01*
X4221913Y-17747377D02*
X4212390Y-17709282D01*
X4212390Y-17709282D02*
X4212390Y-17661663D01*
X4212390Y-17661663D02*
X4221913Y-17623567D01*
X4221913Y-17623567D02*
X4231437Y-17604520D01*
X4231437Y-17604520D02*
X4240961Y-17594996D01*
X4240961Y-17594996D02*
X4260009Y-17585472D01*
X4507628Y-17585472D02*
X4412390Y-17585472D01*
X4412390Y-17585472D02*
X4402866Y-17680710D01*
X4402866Y-17680710D02*
X4412390Y-17671186D01*
X4412390Y-17671186D02*
X4431437Y-17661663D01*
X4431437Y-17661663D02*
X4479056Y-17661663D01*
X4479056Y-17661663D02*
X4498104Y-17671186D01*
X4498104Y-17671186D02*
X4507628Y-17680710D01*
X4507628Y-17680710D02*
X4517151Y-17699758D01*
X4517151Y-17699758D02*
X4517151Y-17747377D01*
X4517151Y-17747377D02*
X4507628Y-17766424D01*
X4507628Y-17766424D02*
X4498104Y-17775948D01*
X4498104Y-17775948D02*
X4479056Y-17785472D01*
X4479056Y-17785472D02*
X4431437Y-17785472D01*
X4431437Y-17785472D02*
X4412390Y-17775948D01*
X4412390Y-17775948D02*
X4402866Y-17766424D01*
X4707628Y-17785472D02*
X4593342Y-17785472D01*
X4650485Y-17785472D02*
X4650485Y-17585472D01*
X4650485Y-17585472D02*
X4631437Y-17614044D01*
X4631437Y-17614044D02*
X4612390Y-17633091D01*
X4612390Y-17633091D02*
X4593342Y-17642615D01*
X4783818Y-17604520D02*
X4793342Y-17594996D01*
X4793342Y-17594996D02*
X4812390Y-17585472D01*
X4812390Y-17585472D02*
X4860009Y-17585472D01*
X4860009Y-17585472D02*
X4879056Y-17594996D01*
X4879056Y-17594996D02*
X4888580Y-17604520D01*
X4888580Y-17604520D02*
X4898104Y-17623567D01*
X4898104Y-17623567D02*
X4898104Y-17642615D01*
X4898104Y-17642615D02*
X4888580Y-17671186D01*
X4888580Y-17671186D02*
X4774294Y-17785472D01*
X4774294Y-17785472D02*
X4898104Y-17785472D01*
X4974294Y-17585472D02*
X4974294Y-17623567D01*
X5050485Y-17585472D02*
X5050485Y-17623567D01*
X5345723Y-17861663D02*
X5336199Y-17852139D01*
X5336199Y-17852139D02*
X5317152Y-17823567D01*
X5317152Y-17823567D02*
X5307628Y-17804520D01*
X5307628Y-17804520D02*
X5298104Y-17775948D01*
X5298104Y-17775948D02*
X5288580Y-17728329D01*
X5288580Y-17728329D02*
X5288580Y-17690234D01*
X5288580Y-17690234D02*
X5298104Y-17642615D01*
X5298104Y-17642615D02*
X5307628Y-17614044D01*
X5307628Y-17614044D02*
X5317152Y-17594996D01*
X5317152Y-17594996D02*
X5336199Y-17566424D01*
X5336199Y-17566424D02*
X5345723Y-17556901D01*
X5526675Y-17785472D02*
X5412390Y-17785472D01*
X5469532Y-17785472D02*
X5469532Y-17585472D01*
X5469532Y-17585472D02*
X5450485Y-17614044D01*
X5450485Y-17614044D02*
X5431437Y-17633091D01*
X5431437Y-17633091D02*
X5412390Y-17642615D01*
X5640961Y-17671186D02*
X5621913Y-17661663D01*
X5621913Y-17661663D02*
X5612390Y-17652139D01*
X5612390Y-17652139D02*
X5602866Y-17633091D01*
X5602866Y-17633091D02*
X5602866Y-17623567D01*
X5602866Y-17623567D02*
X5612390Y-17604520D01*
X5612390Y-17604520D02*
X5621913Y-17594996D01*
X5621913Y-17594996D02*
X5640961Y-17585472D01*
X5640961Y-17585472D02*
X5679056Y-17585472D01*
X5679056Y-17585472D02*
X5698104Y-17594996D01*
X5698104Y-17594996D02*
X5707628Y-17604520D01*
X5707628Y-17604520D02*
X5717151Y-17623567D01*
X5717151Y-17623567D02*
X5717151Y-17633091D01*
X5717151Y-17633091D02*
X5707628Y-17652139D01*
X5707628Y-17652139D02*
X5698104Y-17661663D01*
X5698104Y-17661663D02*
X5679056Y-17671186D01*
X5679056Y-17671186D02*
X5640961Y-17671186D01*
X5640961Y-17671186D02*
X5621913Y-17680710D01*
X5621913Y-17680710D02*
X5612390Y-17690234D01*
X5612390Y-17690234D02*
X5602866Y-17709282D01*
X5602866Y-17709282D02*
X5602866Y-17747377D01*
X5602866Y-17747377D02*
X5612390Y-17766424D01*
X5612390Y-17766424D02*
X5621913Y-17775948D01*
X5621913Y-17775948D02*
X5640961Y-17785472D01*
X5640961Y-17785472D02*
X5679056Y-17785472D01*
X5679056Y-17785472D02*
X5698104Y-17775948D01*
X5698104Y-17775948D02*
X5707628Y-17766424D01*
X5707628Y-17766424D02*
X5717151Y-17747377D01*
X5717151Y-17747377D02*
X5717151Y-17709282D01*
X5717151Y-17709282D02*
X5707628Y-17690234D01*
X5707628Y-17690234D02*
X5698104Y-17680710D01*
X5698104Y-17680710D02*
X5679056Y-17671186D01*
X5955247Y-17785472D02*
X5955247Y-17585472D01*
X6040961Y-17785472D02*
X6040961Y-17680710D01*
X6040961Y-17680710D02*
X6031437Y-17661663D01*
X6031437Y-17661663D02*
X6012390Y-17652139D01*
X6012390Y-17652139D02*
X5983818Y-17652139D01*
X5983818Y-17652139D02*
X5964771Y-17661663D01*
X5964771Y-17661663D02*
X5955247Y-17671186D01*
X6164771Y-17785472D02*
X6145723Y-17775948D01*
X6145723Y-17775948D02*
X6136199Y-17766424D01*
X6136199Y-17766424D02*
X6126675Y-17747377D01*
X6126675Y-17747377D02*
X6126675Y-17690234D01*
X6126675Y-17690234D02*
X6136199Y-17671186D01*
X6136199Y-17671186D02*
X6145723Y-17661663D01*
X6145723Y-17661663D02*
X6164771Y-17652139D01*
X6164771Y-17652139D02*
X6193342Y-17652139D01*
X6193342Y-17652139D02*
X6212390Y-17661663D01*
X6212390Y-17661663D02*
X6221913Y-17671186D01*
X6221913Y-17671186D02*
X6231437Y-17690234D01*
X6231437Y-17690234D02*
X6231437Y-17747377D01*
X6231437Y-17747377D02*
X6221913Y-17766424D01*
X6221913Y-17766424D02*
X6212390Y-17775948D01*
X6212390Y-17775948D02*
X6193342Y-17785472D01*
X6193342Y-17785472D02*
X6164771Y-17785472D01*
X6345723Y-17785472D02*
X6326675Y-17775948D01*
X6326675Y-17775948D02*
X6317152Y-17756901D01*
X6317152Y-17756901D02*
X6317152Y-17585472D01*
X6498104Y-17775948D02*
X6479056Y-17785472D01*
X6479056Y-17785472D02*
X6440961Y-17785472D01*
X6440961Y-17785472D02*
X6421913Y-17775948D01*
X6421913Y-17775948D02*
X6412390Y-17756901D01*
X6412390Y-17756901D02*
X6412390Y-17680710D01*
X6412390Y-17680710D02*
X6421913Y-17661663D01*
X6421913Y-17661663D02*
X6440961Y-17652139D01*
X6440961Y-17652139D02*
X6479056Y-17652139D01*
X6479056Y-17652139D02*
X6498104Y-17661663D01*
X6498104Y-17661663D02*
X6507628Y-17680710D01*
X6507628Y-17680710D02*
X6507628Y-17699758D01*
X6507628Y-17699758D02*
X6412390Y-17718805D01*
X6583818Y-17775948D02*
X6602866Y-17785472D01*
X6602866Y-17785472D02*
X6640961Y-17785472D01*
X6640961Y-17785472D02*
X6660009Y-17775948D01*
X6660009Y-17775948D02*
X6669533Y-17756901D01*
X6669533Y-17756901D02*
X6669533Y-17747377D01*
X6669533Y-17747377D02*
X6660009Y-17728329D01*
X6660009Y-17728329D02*
X6640961Y-17718805D01*
X6640961Y-17718805D02*
X6612390Y-17718805D01*
X6612390Y-17718805D02*
X6593342Y-17709282D01*
X6593342Y-17709282D02*
X6583818Y-17690234D01*
X6583818Y-17690234D02*
X6583818Y-17680710D01*
X6583818Y-17680710D02*
X6593342Y-17661663D01*
X6593342Y-17661663D02*
X6612390Y-17652139D01*
X6612390Y-17652139D02*
X6640961Y-17652139D01*
X6640961Y-17652139D02*
X6660009Y-17661663D01*
X6736199Y-17861663D02*
X6745723Y-17852139D01*
X6745723Y-17852139D02*
X6764771Y-17823567D01*
X6764771Y-17823567D02*
X6774294Y-17804520D01*
X6774294Y-17804520D02*
X6783818Y-17775948D01*
X6783818Y-17775948D02*
X6793342Y-17728329D01*
X6793342Y-17728329D02*
X6793342Y-17690234D01*
X6793342Y-17690234D02*
X6783818Y-17642615D01*
X6783818Y-17642615D02*
X6774294Y-17614044D01*
X6774294Y-17614044D02*
X6764771Y-17594996D01*
X6764771Y-17594996D02*
X6745723Y-17566424D01*
X6745723Y-17566424D02*
X6736199Y-17556901D01*
M02*
